<?xml version="1.0" standalone="no"?>
<!DOCTYPE svg PUBLIC "-//W3C//DTD SVG 20010904//EN"
 "http://www.w3.org/TR/2001/REC-SVG-20010904/DTD/svg10.dtd">
<svg version="1.0" xmlns="http://www.w3.org/2000/svg"
 width="2418.000000pt" height="906.000000pt" viewBox="0 0 2418.000000 906.000000"
 preserveAspectRatio="xMidYMid meet">
<metadata>
Created by potrace 1.16, written by Peter Selinger 2001-2019
</metadata>
<g transform="translate(0.000000,906.000000) scale(0.100000,-0.100000)"
fill="#000000" stroke="none">
<path d="M22725 8783 c-38 -8 -72 -18 -75 -22 -3 -3 -27 -17 -53 -29 -26 -13
-63 -40 -82 -59 -55 -57 -37 -96 104 -214 20 -17 29 -32 25 -42 -6 -17 -55
-37 -89 -36 -29 0 -113 -25 -126 -38 -8 -8 -8 -17 0 -32 22 -41 105 -27 247
40 34 16 66 29 71 29 5 0 23 15 41 33 51 52 42 83 -40 143 -66 48 -77 62 -78
96 0 32 34 63 108 97 29 14 52 30 52 38 0 16 -15 15 -105 -4z"/>
<path d="M23265 8728 c-22 -6 -47 -14 -56 -18 -9 -5 -34 -12 -55 -16 -22 -4
-57 -15 -79 -25 -22 -9 -54 -20 -72 -24 -42 -8 -61 -31 -42 -50 12 -12 23 -12
69 -1 30 8 75 21 100 30 25 10 70 25 100 34 68 20 120 49 120 68 0 16 -25 16
-85 2z"/>
<path d="M22240 8605 c-19 -7 -44 -14 -55 -14 -29 -1 -101 -73 -114 -114 -9
-27 -20 -37 -52 -47 -55 -18 -63 -38 -55 -134 8 -106 21 -151 50 -169 20 -14
26 -14 42 -2 11 8 29 15 42 15 44 0 68 39 75 118 6 56 60 259 70 263 1 0 22 3
47 5 25 3 49 10 55 15 5 5 17 9 27 9 20 0 68 28 68 40 0 29 -137 39 -200 15z"/>
<path d="M21235 8603 c-109 -20 -128 -27 -151 -51 -31 -32 -74 -118 -74 -149
0 -12 -4 -25 -10 -28 -32 -20 16 -252 70 -338 31 -50 31 -67 2 -67 -32 0 -120
-90 -172 -175 -40 -66 -51 -93 -52 -129 -1 -55 12 -72 63 -87 42 -13 51 -10
169 45 36 16 67 34 68 38 2 4 10 8 19 8 22 0 136 120 157 167 16 36 22 41 59
45 23 3 65 16 92 29 41 19 67 23 150 24 87 1 110 5 175 32 104 43 160 74 160
90 0 20 -31 16 -94 -12 -64 -29 -105 -31 -145 -10 -30 15 -61 76 -61 118 0 30
39 67 71 67 33 1 56 20 73 62 28 66 -17 104 -106 88 -68 -13 -91 -25 -128 -67
-92 -105 -121 -231 -67 -291 32 -35 12 -46 -58 -32 l-57 12 8 81 c28 314 -44
551 -161 530z m-54 -673 c23 -13 24 -32 2 -95 -18 -53 -112 -160 -134 -153 -7
2 -16 17 -21 34 -10 36 33 133 83 187 37 40 41 42 70 27z"/>
<path d="M20780 7960 c-8 -5 -25 -10 -38 -10 -12 0 -49 -13 -81 -30 -65 -32
-113 -84 -156 -168 -16 -30 -35 -56 -44 -59 -34 -12 -81 -55 -81 -74 0 -40 42
-120 71 -134 40 -21 54 -19 109 19 27 19 54 36 60 38 6 2 13 29 15 61 9 126
49 252 85 267 8 4 29 14 45 23 17 9 49 25 73 37 23 11 42 25 42 30 0 13 -80
13 -100 0z"/>
<path d="M19605 7844 c-7 -11 -30 -18 -65 -22 -53 -4 -80 -16 -80 -32 0 -14
31 -20 49 -11 13 8 24 4 42 -13 24 -22 24 -22 89 -6 73 19 99 47 77 81 -16 25
-97 27 -112 3z"/>
<path d="M20125 7594 c-11 -3 -47 -10 -80 -16 -33 -7 -64 -15 -70 -20 -5 -4
-35 -21 -65 -36 -47 -24 -56 -33 -61 -62 -4 -19 -28 -75 -53 -124 -38 -72 -46
-95 -41 -120 18 -85 93 -93 226 -23 129 67 185 105 244 165 60 60 75 100 56
153 -9 26 -49 69 -58 62 -2 -1 -18 4 -37 12 -20 8 -37 14 -38 14 -2 -1 -12 -3
-23 -5z m-35 -117 c23 -19 40 -54 40 -84 0 -37 -83 -115 -141 -132 -40 -12
-44 -12 -61 9 -24 29 -23 47 7 106 48 96 111 137 155 101z"/>
<path d="M19405 7345 c-16 -14 -37 -25 -46 -25 -22 0 -144 -139 -174 -197 -30
-62 -46 -129 -35 -157 4 -11 19 -32 33 -45 22 -19 37 -24 89 -24 52 0 77 6
142 36 43 20 82 37 87 37 7 0 100 61 134 87 6 5 23 16 38 26 48 31 67 51 67
69 0 24 -15 20 -72 -19 -104 -71 -238 -123 -295 -113 -18 3 -42 13 -54 23 -43
38 -1 138 102 240 38 38 67 73 63 78 -10 17 -49 9 -79 -16z"/>
<path d="M18763 7071 c-54 -14 -201 -92 -216 -115 -8 -11 -25 -31 -37 -44 -56
-59 -78 -180 -42 -233 51 -76 138 -121 237 -120 118 1 208 31 272 91 12 11 31
20 41 20 21 0 49 27 39 37 -4 3 -33 0 -64 -8 -80 -19 -249 -17 -289 4 -51 26
-59 43 -32 61 13 9 39 21 58 27 19 7 56 27 83 45 26 19 51 34 55 34 15 0 83
63 97 90 19 36 8 69 -30 94 -31 21 -123 29 -172 17z"/>
<path d="M18365 7037 c-110 -49 -138 -81 -169 -195 -18 -62 -26 -77 -41 -78
-67 -3 -135 -49 -135 -91 0 -39 74 -273 99 -315 16 -25 32 -56 36 -67 3 -12
15 -21 26 -21 26 0 117 70 123 95 3 11 8 108 11 215 8 243 28 360 61 360 8 0
37 23 66 51 41 40 49 52 37 60 -23 14 -61 10 -114 -14z"/>
<path d="M17286 6311 c-3 -4 -27 -16 -53 -26 -88 -33 -162 -137 -163 -228 0
-65 23 -101 87 -137 43 -25 64 -30 125 -31 78 -1 167 9 183 21 6 4 25 10 44
14 19 3 40 15 47 25 8 10 26 22 41 26 35 8 63 33 57 49 -3 9 -26 8 -92 -6
-122 -25 -197 -22 -241 9 -7 5 32 43 44 43 17 0 103 94 115 125 14 36 -10 89
-49 109 -32 17 -136 22 -145 7z"/>
<path d="M16710 6171 c-87 -40 -127 -80 -136 -139 -14 -90 19 -401 46 -437 4
-5 11 -28 14 -50 12 -66 57 -207 83 -259 25 -49 68 -95 91 -96 7 0 20 9 29 20
10 11 23 20 29 20 13 0 74 56 74 68 0 11 -61 135 -70 142 -22 17 -104 278 -95
301 3 8 37 34 75 59 101 65 170 161 170 235 0 53 -46 126 -93 148 -55 27 -140
22 -217 -12z m98 -106 c62 -52 69 -146 15 -213 -37 -45 -66 -52 -87 -20 -26
40 -42 145 -32 212 7 44 9 46 41 46 21 0 44 -9 63 -25z"/>
<path d="M15268 5735 c-61 -45 -64 -52 -39 -83 33 -42 56 -90 86 -176 l28 -80
-36 -30 c-19 -17 -56 -49 -82 -71 -48 -41 -48 -41 -35 -76 l13 -36 57 57 c67
68 95 86 107 68 4 -7 29 -76 54 -153 60 -178 123 -315 145 -315 9 0 26 9 38
20 12 11 33 31 48 44 42 38 44 64 8 147 -17 41 -37 85 -44 99 -13 24 -33 85
-70 211 -9 31 -16 58 -16 62 0 3 24 19 53 36 57 33 137 103 137 120 0 13 -33
14 -58 3 -121 -60 -147 -70 -158 -61 -6 5 -21 36 -33 69 -12 33 -25 60 -29 60
-4 0 -16 18 -26 41 -20 41 -63 79 -88 79 -7 0 -34 -16 -60 -35z"/>
<path d="M16121 5733 c-7 -3 -22 -14 -32 -24 -11 -11 -25 -19 -33 -19 -30 0
-145 -171 -190 -283 -36 -90 -25 -131 38 -142 39 -8 106 21 161 69 22 20 43
36 47 36 3 0 20 14 37 30 25 25 35 29 58 23 15 -4 69 -7 118 -7 97 -1 175 20
206 55 10 10 29 23 43 29 17 6 24 14 20 24 -5 12 -16 14 -52 8 -152 -23 -253
10 -269 89 -4 23 -11 29 -33 29 -15 0 -35 -9 -45 -20 -10 -11 -24 -20 -31 -20
-7 0 -23 -14 -35 -31 -18 -25 -20 -35 -10 -55 9 -21 7 -31 -14 -63 -33 -53
-65 -75 -83 -58 -10 11 -11 24 -2 61 14 62 73 179 110 218 43 44 38 70 -9 51z"/>
<path d="M17875 4973 c-16 -3 -34 -9 -39 -14 -6 -5 -24 -9 -40 -10 -32 -1
-106 -25 -141 -46 -20 -12 -20 -12 0 -50 14 -25 27 -37 38 -35 9 2 17 -2 17
-8 0 -14 43 -13 58 2 9 9 15 9 24 0 19 -19 114 -15 158 8 45 23 49 40 23 92
-9 18 -19 40 -23 48 -8 16 -28 20 -75 13z"/>
<path d="M13742 4946 c-72 -29 -86 -51 -71 -113 15 -65 76 -378 94 -483 21
-123 23 -128 46 -141 16 -8 24 -7 37 4 9 8 36 24 58 35 39 20 68 47 140 130
l29 33 70 -33 c67 -32 75 -33 190 -33 111 1 125 3 185 30 58 26 88 50 82 65
-1 3 -39 5 -85 6 -99 1 -222 33 -247 63 -3 3 -20 14 -39 25 -26 15 -45 17 -88
12 -47 -5 -65 -14 -124 -62 -39 -31 -72 -54 -75 -52 -4 4 -26 115 -57 288 -7
36 -15 70 -19 75 -3 6 -9 28 -13 50 -20 116 -38 132 -113 101z"/>
<path d="M13255 4919 c-16 -10 -40 -23 -53 -29 -13 -5 -29 -25 -37 -44 -13
-30 -48 -279 -59 -411 -2 -27 -4 -55 -5 -62 -1 -12 -55 -47 -92 -58 -30 -10
-149 -94 -149 -106 0 -4 9 -13 20 -19 17 -9 37 -3 113 33 51 25 95 43 98 41 3
-2 9 -60 12 -130 4 -70 11 -130 16 -133 5 -3 14 -24 20 -47 17 -65 51 -106
111 -137 46 -24 64 -28 105 -23 43 4 114 29 151 54 63 41 154 117 151 126 -7
22 -36 17 -87 -15 -82 -51 -183 -44 -231 15 -36 43 -67 170 -71 290 -2 53 1
61 23 75 13 9 26 18 29 21 3 3 32 19 65 35 61 30 86 65 47 65 -11 0 -22 5 -24
12 -3 8 -14 5 -34 -9 -16 -12 -47 -25 -68 -29 l-39 -7 7 114 c8 150 15 222 24
267 10 52 9 125 -3 128 -5 1 -23 -6 -40 -17z"/>
<path d="M17340 4668 c-140 -44 -165 -58 -166 -93 -1 -17 5 -42 14 -57 12 -21
25 -27 67 -33 29 -3 63 -1 79 5 15 5 54 10 87 10 51 0 67 5 105 30 43 30 44
32 30 58 -7 15 -16 39 -20 54 -16 66 -54 71 -196 26z"/>
<path d="M17075 4460 c-11 -4 -47 -16 -80 -26 -163 -48 -215 -81 -215 -137 0
-58 15 -66 95 -55 39 5 79 13 90 17 11 5 33 14 48 20 15 6 49 11 75 11 37 0
55 7 82 29 l35 29 -21 59 c-20 54 -23 58 -55 60 -19 1 -43 -2 -54 -7z"/>
<path d="M15926 4220 c-22 -11 -43 -20 -48 -20 -4 0 -31 -11 -60 -25 -28 -14
-58 -25 -65 -25 -7 0 -13 -4 -13 -8 0 -5 -21 -20 -47 -33 -27 -13 -83 -47
-127 -76 -43 -29 -82 -53 -85 -53 -4 0 -15 -16 -24 -35 -15 -33 -15 -38 9
-117 38 -130 57 -169 75 -165 11 3 24 -8 38 -33 32 -58 44 -64 88 -49 21 6 41
17 45 24 4 7 29 16 55 20 53 7 119 47 128 76 4 11 -7 43 -29 82 -20 35 -36 75
-36 88 l1 24 18 -22 c11 -13 27 -23 36 -23 10 0 35 -20 57 -45 22 -25 50 -51
62 -57 31 -17 196 -11 217 8 10 9 37 17 61 18 73 5 129 27 218 85 131 85 160
121 160 197 0 29 -3 34 -24 34 -13 0 -38 -10 -57 -22 -19 -13 -46 -29 -61 -37
-16 -8 -32 -28 -38 -46 -6 -18 -20 -41 -30 -50 -11 -10 -20 -24 -20 -31 0 -21
-58 -35 -101 -24 -53 15 -105 70 -163 174 -27 48 -69 110 -94 137 -50 56 -80
62 -146 29z"/>
<path d="M12760 4039 c-73 -47 -82 -63 -74 -128 4 -30 17 -78 30 -107 39 -88
125 -134 169 -90 9 9 30 23 46 31 24 13 49 42 49 58 0 3 -16 14 -35 26 -20 11
-38 29 -42 38 -3 10 -15 30 -25 45 -10 14 -18 43 -19 65 -2 95 -26 110 -99 62z"/>
<path d="M3823 3985 c-59 -42 -81 -75 -92 -137 -15 -90 -76 -358 -89 -390 -7
-16 -15 -28 -19 -28 -5 -1 -26 -5 -48 -9 -22 -5 -75 -16 -117 -24 -90 -18
-222 -80 -246 -115 -9 -13 -25 -31 -34 -40 -20 -18 -24 -47 -8 -57 5 -3 36 5
67 19 59 26 149 51 238 66 28 5 64 12 81 15 17 4 34 3 37 -1 2 -5 -8 -72 -23
-149 -43 -212 -48 -243 -60 -335 -6 -46 -14 -88 -16 -92 -8 -13 27 -159 47
-199 25 -50 55 -67 151 -85 88 -17 141 -14 215 11 71 24 94 39 166 107 75 72
88 105 35 94 -18 -4 -49 -15 -68 -24 -69 -36 -145 -47 -224 -34 -112 19 -151
60 -164 175 -13 105 21 354 74 538 3 11 31 21 92 33 180 37 198 44 263 108 34
33 59 62 56 65 -3 2 -47 -2 -99 -11 -180 -29 -258 -39 -264 -33 -4 3 17 110
45 237 66 296 66 339 4 295z"/>
<path d="M4396 3889 c-37 -10 -82 -59 -91 -97 -4 -18 2 -54 14 -93 34 -108 44
-227 42 -525 -1 -266 0 -281 19 -301 35 -39 57 -38 115 2 29 20 81 64 115 97
57 57 62 60 78 45 12 -13 18 -43 22 -119 3 -57 9 -109 13 -115 13 -21 56 -15
78 11 12 14 34 30 50 36 22 10 29 19 29 41 0 15 -4 30 -9 33 -4 3 -10 52 -13
109 -4 87 -8 109 -27 136 -43 60 -108 39 -222 -74 -57 -57 -72 -67 -80 -55 -7
10 -9 87 -5 215 7 263 -12 449 -60 597 -19 57 -31 67 -68 57z"/>
<path d="M12346 3885 c-47 -17 -116 -64 -117 -81 -1 -8 -2 -20 -3 -26 -1 -7
15 -18 34 -24 43 -14 100 -84 100 -123 0 -57 -98 -132 -180 -136 -49 -3 -70 7
-70 35 0 10 -7 23 -15 30 -12 10 -24 7 -63 -19 -62 -39 -76 -56 -90 -107 -18
-63 -48 -95 -80 -88 -15 4 -32 11 -39 16 -23 18 -43 105 -51 214 -8 127 -17
136 -77 79 -21 -19 -43 -35 -49 -35 -42 0 -37 -262 7 -347 21 -39 63 -73 92
-73 47 0 144 54 217 120 25 23 42 30 75 30 49 0 149 34 179 61 11 11 25 19 31
19 19 0 165 114 215 167 25 27 53 69 61 94 13 39 13 48 1 79 -16 38 -36 64
-73 95 -36 29 -63 34 -105 20z"/>
<path d="M15005 3741 c-51 -7 -204 -77 -285 -131 -25 -16 -52 -33 -60 -37 -8
-3 -19 -12 -23 -20 -4 -7 -12 -13 -17 -13 -13 0 -110 -103 -110 -116 0 -6 -9
-19 -19 -28 -11 -10 -27 -46 -36 -81 -31 -114 -6 -227 72 -323 21 -26 39 -39
46 -35 19 13 61 10 75 -4 23 -22 123 -21 158 2 13 8 39 15 59 15 60 0 156 55
243 139 84 81 137 163 164 251 24 78 41 214 33 256 -7 40 -53 93 -99 112 -37
16 -135 23 -201 13z m114 -159 c22 -24 23 -32 18 -105 -3 -44 -10 -83 -16 -87
-6 -3 -20 -39 -31 -79 -40 -143 -113 -251 -171 -251 -39 0 -97 54 -135 125
-16 31 -35 66 -41 78 -7 12 -13 57 -12 102 0 67 4 86 24 120 14 22 28 47 31
55 11 25 57 59 80 60 11 0 24 3 28 8 39 38 181 22 225 -26z"/>
<path d="M8639 3726 c-3 -3 -21 -7 -40 -9 -19 -2 -46 -11 -59 -20 -14 -9 -28
-17 -33 -17 -9 0 -112 -79 -173 -133 -63 -56 -103 -125 -116 -199 -8 -44 -20
-73 -40 -96 -24 -28 -28 -39 -22 -69 6 -34 4 -39 -36 -73 -39 -33 -42 -38 -31
-59 11 -20 17 -22 61 -16 l48 7 12 -36 c11 -34 124 -187 158 -213 26 -21 50
-15 87 21 20 19 44 38 55 41 25 8 27 49 2 67 -27 20 -81 107 -93 151 -13 51
-9 69 21 84 14 7 27 22 30 34 3 13 21 31 40 42 35 19 50 34 50 51 0 9 -41 4
-113 -15 -63 -17 -70 -7 -64 94 5 76 27 137 64 179 15 17 77 39 147 53 16 3
30 14 33 24 5 21 42 44 62 39 7 -2 21 11 31 28 l18 32 -36 6 c-45 7 -57 7 -63
2z"/>
<path d="M9786 3478 c-10 -6 -26 -16 -35 -24 -9 -7 -26 -21 -39 -31 -29 -23
-40 -71 -48 -203 -7 -143 -9 -150 -40 -150 -77 0 -131 96 -159 283 -7 47 -31
49 -39 3 -4 -18 -15 -41 -26 -51 -18 -16 -23 -17 -45 -5 -39 21 -46 5 -35 -81
11 -85 31 -159 51 -185 30 -37 93 -94 111 -100 35 -11 82 5 121 41 41 38 41
38 39 -50 -5 -200 -73 -470 -167 -665 -20 -41 -51 -104 -68 -140 -17 -36 -34
-67 -38 -70 -3 -3 -25 -38 -49 -79 -45 -78 -107 -154 -120 -146 -4 2 -18 -7
-31 -21 -38 -42 -109 -86 -125 -80 -31 12 -64 -7 -94 -52 -42 -63 -40 -88 6
-95 44 -7 79 9 151 69 28 24 56 44 62 44 7 0 14 6 17 14 3 8 12 12 19 10 7 -3
16 4 20 15 3 12 10 21 14 21 5 0 30 28 56 62 27 35 58 73 69 84 61 63 237 379
296 534 94 245 124 388 140 665 6 94 15 217 20 274 12 123 9 134 -34 109z"/>
<path d="M11077 3420 c-38 -36 -57 -74 -46 -91 5 -8 9 -28 9 -45 0 -83 -200
-183 -255 -127 -17 17 -17 74 0 117 7 16 5 17 -26 11 -40 -9 -103 -61 -132
-107 -11 -18 -20 -51 -20 -72 0 -32 7 -45 33 -69 31 -28 37 -29 99 -24 73 5
184 50 222 89 13 13 33 28 46 33 40 18 153 126 173 165 27 53 26 101 -3 128
-31 29 -66 26 -100 -8z"/>
<path d="M5820 3375 c-25 -13 -52 -27 -60 -31 -8 -5 -20 -13 -26 -18 -6 -6
-28 -27 -50 -46 -110 -99 -106 -131 27 -200 65 -33 99 -71 99 -109 0 -36 -31
-53 -107 -59 -60 -4 -65 -7 -108 -53 -66 -71 -59 -89 34 -89 124 0 341 191
341 299 0 44 -56 107 -126 140 -80 38 -85 48 -45 81 24 21 75 52 88 55 1 0 4
12 8 28 9 35 -13 36 -75 2z"/>
<path d="M6385 3378 c-16 -6 -46 -21 -65 -33 -40 -25 -150 -122 -164 -145 -5
-8 -20 -25 -34 -39 -55 -55 -75 -209 -36 -283 25 -47 82 -92 152 -119 73 -27
189 -23 242 10 19 11 43 21 52 21 9 0 20 9 23 20 3 11 13 20 20 20 13 0 35 29
35 45 0 4 -29 3 -65 0 -123 -14 -241 24 -296 93 -36 46 -26 68 46 101 36 17
87 50 113 74 26 24 66 57 88 75 43 33 68 77 62 108 -8 45 -111 76 -173 52z"/>
<path d="M10426 3361 c-3 -5 -18 -12 -33 -16 -16 -3 -45 -20 -66 -37 -27 -21
-45 -28 -61 -24 -31 8 -82 -8 -113 -36 -76 -68 -73 -63 -73 -131 0 -87 21
-151 64 -193 66 -64 147 -42 290 80 96 83 119 106 152 156 23 34 24 43 17 101
-7 57 -11 65 -42 86 -35 24 -124 33 -135 14z m17 -187 c13 -67 -30 -127 -99
-139 -38 -6 -43 -4 -63 23 -11 17 -21 41 -21 55 0 21 6 26 28 29 19 2 32 13
44 38 27 54 45 63 78 40 15 -11 30 -32 33 -46z"/>
<path d="M13793 3281 c-28 -11 -76 -34 -105 -53 -29 -18 -61 -38 -70 -43 -117
-68 -318 -247 -338 -301 -23 -60 -7 -86 70 -114 65 -24 163 -26 213 -5 19 8
67 20 105 26 113 19 199 -17 253 -106 27 -43 23 -78 -13 -126 -36 -46 -34 -45
-133 -90 -82 -38 -290 -173 -311 -203 -16 -23 -18 -64 -5 -85 6 -9 16 -11 32
-5 13 4 28 7 34 5 5 -1 22 -3 37 -3 16 -1 33 -7 39 -15 22 -26 191 -7 215 24
20 27 18 30 -25 37 -27 4 -51 18 -80 47 -42 42 -47 54 -32 77 9 15 57 42 75
42 6 0 28 11 48 25 20 14 44 25 53 25 9 0 29 9 45 20 17 11 43 29 60 40 16 11
33 20 37 20 15 0 146 121 180 166 59 77 40 152 -55 219 -52 37 -63 40 -134 43
-45 3 -109 -2 -155 -12 -138 -27 -230 -19 -274 25 -25 25 -25 29 14 77 46 58
132 124 214 165 55 28 73 43 81 67 13 37 2 38 -75 11z"/>
<path d="M5249 3212 c-122 -45 -209 -152 -230 -283 -11 -69 4 -109 47 -132 34
-18 119 -5 149 23 12 11 25 20 29 20 5 0 23 12 41 28 17 15 43 34 56 42 51 32
115 106 127 147 12 39 11 46 -13 92 -13 27 -35 57 -47 65 -29 20 -100 19 -159
-2z m46 -122 c-3 -5 1 -23 10 -40 22 -43 16 -70 -24 -97 -45 -30 -75 -29 -100
3 -26 33 -26 47 -1 102 19 41 20 42 70 42 31 0 49 -4 45 -10z"/>
<path d="M7811 3223 c-60 -11 -214 -142 -209 -177 5 -34 34 -30 81 13 49 45
62 49 95 25 57 -40 5 -145 -118 -235 -111 -81 -233 -46 -215 62 12 69 44 130
73 140 15 5 36 22 47 39 11 16 30 35 42 41 13 7 23 21 23 31 0 17 -5 19 -32
13 -43 -9 -57 -17 -107 -59 -35 -29 -74 -72 -119 -131 -4 -5 -21 -39 -37 -75
-37 -83 -40 -168 -6 -204 30 -32 80 -45 133 -36 70 14 96 27 177 92 42 34 82
67 89 73 58 46 143 140 182 201 38 61 42 132 8 164 -12 11 -30 20 -39 20 -10
0 -23 2 -31 4 -7 2 -24 1 -37 -1z"/>
<path d="M12540 3085 c-52 -35 -101 -64 -107 -64 -7 -1 -13 -5 -13 -10 0 -5
-8 -12 -17 -15 -10 -3 -31 -16 -46 -29 l-29 -23 17 -59 c10 -33 21 -64 25 -70
4 -5 15 -39 24 -75 20 -73 97 -292 106 -300 3 -3 16 -36 30 -75 39 -113 71
-169 100 -173 14 -2 36 -17 50 -33 20 -23 36 -31 76 -36 47 -5 53 -3 64 17 9
17 17 20 37 15 17 -4 29 -1 34 7 7 10 9 10 9 1 0 -7 7 -13 15 -13 8 0 15 4 15
9 0 5 21 20 47 33 26 13 49 31 51 41 2 9 -5 36 -16 60 -11 23 -33 76 -49 117
-51 127 -75 183 -99 235 -12 28 -41 109 -64 180 -23 72 -48 144 -55 160 -7 17
-22 60 -35 98 -20 61 -24 67 -48 67 -16 0 -65 -26 -122 -65z"/>
<path d="M1025 2957 c-22 -12 -41 -25 -43 -29 -2 -5 -8 -8 -14 -8 -27 0 -333
-321 -412 -434 -72 -101 -147 -218 -163 -253 -10 -21 -22 -41 -27 -44 -14 -11
2 -39 22 -39 10 0 28 17 42 41 14 22 39 59 55 82 17 23 47 67 67 97 20 30 54
74 75 97 21 23 67 74 103 115 61 68 135 144 170 172 48 40 88 65 93 60 3 -4
18 -4 32 0 19 5 25 13 25 32 0 15 10 44 22 65 19 34 20 41 7 54 -12 12 -19 11
-54 -8z"/>
<path d="M11010 2713 c-32 -14 -59 -30 -180 -108 -25 -16 -55 -35 -68 -42 -47
-25 -73 -51 -60 -59 15 -10 99 -5 113 6 6 4 24 11 42 15 30 6 33 4 48 -32 10
-24 17 -73 18 -135 2 -81 -1 -99 -15 -110 -9 -7 -21 -35 -26 -63 -9 -49 -32
-118 -59 -182 -7 -17 -13 -36 -13 -42 0 -6 -4 -11 -9 -11 -5 0 -13 -9 -16 -21
-4 -11 -20 -36 -37 -55 -24 -27 -35 -33 -55 -28 -41 11 -108 52 -143 87 -55
57 -100 212 -101 354 -1 53 -7 99 -15 115 -8 15 -14 43 -14 64 0 34 -1 36 -27
29 -36 -9 -161 -93 -238 -160 -48 -42 -66 -67 -89 -121 -16 -38 -39 -91 -52
-119 -33 -72 -128 -299 -190 -455 -30 -74 -61 -141 -68 -150 -17 -19 -50 -119
-42 -127 7 -7 106 56 106 67 0 10 130 145 145 151 16 6 65 76 65 92 0 8 8 25
19 38 10 13 24 41 30 62 16 48 40 74 52 55 5 -7 9 -24 9 -38 1 -39 38 -111 60
-117 11 -3 20 -9 20 -13 0 -17 92 -42 133 -37 116 15 170 26 180 36 6 6 17 11
24 11 8 0 39 16 70 36 32 20 74 42 96 50 54 19 217 145 247 191 14 21 30 43
37 48 12 10 71 124 111 215 21 49 51 161 53 201 1 13 2 86 3 162 1 112 -2 139
-14 147 -23 14 -110 10 -150 -7z"/>
<path d="M2406 2621 c-59 -32 -105 -73 -159 -141 -25 -31 -56 -98 -63 -135 -8
-46 -36 -105 -61 -131 -28 -28 -22 -116 13 -184 37 -69 56 -74 84 -21 11 23
24 41 28 41 4 0 15 12 24 28 12 21 16 58 17 162 1 74 6 151 11 172 10 35 53
78 80 78 11 0 170 152 170 164 0 19 -83 0 -144 -33z"/>
<path d="M11753 2628 c-24 -5 -43 -13 -43 -18 0 -4 -12 -13 -27 -19 -16 -6
-48 -25 -73 -41 -25 -17 -58 -38 -74 -48 -68 -41 -132 -86 -139 -99 -4 -7 -14
-13 -21 -13 -16 0 -128 -117 -166 -174 -33 -48 -70 -152 -70 -195 0 -16 5 -42
12 -58 6 -15 13 -38 14 -50 7 -56 51 -118 119 -168 65 -47 72 -50 142 -53 40
-3 79 0 86 6 6 5 39 17 72 27 79 23 152 46 255 83 47 17 112 38 145 47 105 29
355 165 369 201 7 20 -16 18 -61 -5 -54 -27 -184 -87 -208 -96 -11 -4 -58 -11
-105 -16 -47 -5 -111 -12 -143 -15 -82 -9 -163 16 -217 69 -43 40 -80 93 -80
113 0 6 25 24 55 39 30 16 67 39 81 52 15 13 30 23 34 23 3 0 45 38 93 84 65
63 95 101 117 148 34 72 36 85 14 130 -26 55 -81 69 -181 46z"/>
<path d="M6941 2494 c-53 -29 -81 -53 -81 -69 0 -7 -9 -20 -20 -30 -27 -24
-54 -110 -55 -175 -1 -58 -8 -80 -28 -80 -7 0 -28 -13 -47 -28 -58 -47 -103
-69 -152 -76 -41 -6 -48 -5 -48 9 0 9 -7 24 -16 32 -14 15 -18 14 -47 -1 -59
-31 -157 -91 -177 -108 -11 -10 -24 -18 -29 -18 -13 0 -51 -36 -51 -49 0 -6
-4 -11 -9 -11 -5 0 -16 -11 -24 -24 -14 -20 -14 -27 -1 -51 19 -36 17 -65 -4
-92 -9 -11 -80 -74 -157 -138 -77 -64 -144 -124 -149 -132 -4 -8 -26 -31 -49
-51 -22 -21 -52 -50 -66 -67 -14 -16 -43 -46 -63 -65 -22 -20 -38 -45 -38 -58
0 -12 -4 -22 -10 -22 -5 0 -17 -15 -26 -32 -9 -18 -36 -58 -59 -88 -24 -30
-52 -74 -64 -98 -12 -23 -25 -42 -30 -42 -5 0 -23 -24 -40 -54 -17 -29 -38
-59 -46 -66 -8 -7 -15 -19 -15 -28 0 -12 -72 -128 -89 -142 -17 -15 -51 -72
-51 -86 0 -10 -8 -27 -18 -38 -10 -12 -24 -39 -31 -61 -7 -22 -21 -48 -29 -58
-9 -10 -21 -32 -28 -50 -6 -18 -14 -39 -18 -48 -11 -26 90 -1 102 25 34 71 62
136 62 145 0 6 3 11 8 11 4 0 16 17 27 37 11 21 43 65 70 98 28 33 66 81 85
106 19 25 54 68 78 95 l43 48 30 -32 c30 -32 66 -41 85 -22 8 8 19 8 38 0 71
-26 145 1 229 84 60 60 74 91 82 187 7 72 6 75 -22 104 -15 17 -45 39 -65 49
-21 11 -38 25 -38 33 0 13 62 80 237 256 l58 59 3 -44 c8 -140 35 -356 47
-378 8 -14 19 -36 26 -50 63 -134 102 -209 119 -228 29 -30 76 -53 95 -46 9 4
25 -2 38 -14 41 -37 201 -46 247 -13 14 10 50 21 80 25 60 8 148 33 168 49 18
14 15 45 -5 55 -10 5 -34 12 -53 16 -19 3 -45 14 -57 24 -32 25 -112 178 -161
307 -60 158 -103 270 -112 290 -5 11 -16 42 -25 68 -8 27 -21 61 -29 75 -7 15
-16 54 -20 88 l-7 60 42 27 c22 15 44 27 47 27 4 0 29 11 56 25 27 13 64 27
83 31 19 4 37 14 40 23 22 72 73 113 152 122 68 8 115 21 161 42 19 8 46 18
60 22 14 4 41 13 60 22 54 24 143 65 165 76 67 36 97 47 124 47 52 0 77 50 32
65 -39 12 -237 -43 -277 -77 -11 -10 -25 -18 -32 -18 -11 0 -59 -19 -118 -48
-47 -23 -61 -12 -32 23 44 53 59 92 56 147 -3 47 -6 53 -40 74 -50 32 -117 31
-177 -2z m127 -83 c3 -33 -8 -48 -105 -133 -50 -45 -83 -32 -83 33 0 67 119
171 165 144 12 -7 21 -25 23 -44z m-1176 -1291 c12 -21 14 -37 8 -57 -15 -50
-22 -63 -35 -63 -8 0 -26 -10 -42 -23 -34 -28 -108 -67 -128 -67 -8 0 -19 9
-25 20 -21 39 31 140 70 140 10 0 30 18 45 40 22 32 34 40 59 40 24 0 35 -7
48 -30z"/>
<path d="M1860 2443 c-61 -7 -127 -67 -207 -188 -104 -157 -127 -218 -128
-330 0 -72 4 -97 20 -124 32 -54 68 -75 128 -75 76 0 100 17 200 146 10 13 44
67 75 122 31 54 65 111 74 126 9 16 24 49 33 75 14 43 14 51 -2 101 -19 61
-66 124 -92 124 -9 0 -26 7 -37 15 -10 8 -21 14 -24 13 -3 -1 -21 -3 -40 -5z
m41 -201 c31 -29 34 -36 34 -95 0 -98 -55 -187 -148 -239 -36 -20 -71 -15
-105 15 -57 52 -50 181 14 239 18 17 36 39 39 49 4 10 16 30 28 44 31 36 92
30 138 -13z"/>
<path d="M587 2329 c-17 -10 -47 -59 -47 -77 0 -7 63 -90 119 -157 33 -39 79
-111 116 -180 32 -59 76 -126 95 -145 3 -3 30 -41 60 -85 30 -44 62 -87 71
-95 9 -8 37 -45 62 -82 25 -37 52 -75 61 -84 9 -8 28 -31 43 -50 29 -39 75
-67 95 -58 16 6 58 94 58 121 0 11 -16 37 -35 58 -20 20 -55 64 -78 97 -70
100 -196 268 -208 278 -12 9 -149 204 -149 211 0 13 84 79 127 101 33 16 48
33 68 74 15 30 23 58 20 64 -10 16 -76 0 -115 -29 -19 -14 -59 -49 -88 -78
l-54 -52 -86 89 c-87 90 -101 98 -135 79z"/>
<path d="M8272 2254 c-71 -25 -188 -135 -224 -212 -18 -38 -23 -64 -23 -133 0
-49 5 -92 11 -100 7 -8 15 -30 19 -49 10 -47 50 -114 102 -169 45 -49 52 -71
29 -91 -57 -46 -126 -208 -126 -292 0 -78 19 -114 69 -129 66 -20 120 8 226
115 50 51 101 108 115 129 14 21 34 40 45 43 11 2 52 -6 92 -20 50 -17 84 -23
115 -19 51 6 98 22 98 34 0 5 7 9 16 9 17 0 44 23 44 39 0 5 8 16 19 23 10 7
21 23 25 36 4 12 13 22 19 22 7 0 13 11 13 25 2 20 -4 27 -29 33 -17 4 -51 4
-76 -1 -39 -7 -59 -4 -131 21 l-85 29 4 67 c2 40 -1 72 -8 80 -6 8 -16 64 -21
126 -12 128 -18 160 -32 157 -5 -1 -19 22 -32 50 -27 64 -64 104 -133 146 -29
17 -53 35 -53 39 0 12 -41 8 -88 -8z m94 -107 c39 -25 98 -115 109 -167 8 -37
12 -83 15 -195 3 -112 2 -118 -15 -111 -18 7 -20 -5 -3 -22 22 -22 -11 -14
-50 13 -20 14 -41 25 -47 25 -6 0 -30 25 -54 55 -24 30 -46 55 -48 55 -2 0 -1
-10 3 -22 7 -23 6 -23 -14 -5 -24 22 -66 105 -81 162 -26 97 3 194 70 228 39
20 65 16 115 -16z m39 -727 c23 0 24 -27 2 -71 -29 -59 -68 -109 -84 -109 -7
0 -13 -4 -13 -10 0 -17 -66 -11 -83 8 -35 39 -38 67 -13 153 13 45 29 85 36
89 8 5 39 -5 77 -26 36 -19 71 -34 78 -34z"/>
<path d="M7590 1863 c-46 -15 -135 -69 -170 -102 -9 -9 -47 -43 -85 -76 -159
-137 -218 -224 -236 -350 -14 -104 -2 -214 28 -243 7 -7 13 -19 13 -27 0 -7
15 -26 33 -42 28 -24 49 -32 118 -41 111 -16 159 -3 349 91 123 61 146 76 148
97 5 34 18 48 53 55 20 5 42 22 64 53 55 76 46 90 -32 47 -111 -62 -213 -72
-305 -30 -29 13 -64 34 -76 46 -25 23 -20 37 23 68 30 22 92 89 137 150 22 29
49 62 59 72 10 10 28 35 38 55 18 32 18 40 6 63 -21 42 -60 69 -109 76 -54 8
-59 21 -13 34 l32 9 -30 0 c-16 0 -37 -2 -45 -5z m-67 -249 c32 -17 34 -44 9
-90 -21 -38 -88 -98 -101 -90 -24 15 -31 183 -8 198 15 10 62 1 100 -18z"/>
<path d="M3681 1790 c-28 -28 -51 -57 -51 -65 0 -8 9 -30 20 -50 11 -20 20
-44 20 -55 0 -11 8 -24 18 -29 14 -8 26 0 65 44 42 48 47 58 47 103 0 51 -27
102 -55 102 -7 0 -36 -23 -64 -50z"/>
<path d="M3003 1727 c-29 -5 -53 -14 -53 -18 0 -5 -6 -9 -13 -9 -6 0 -50 -25
-96 -55 -46 -30 -86 -55 -88 -55 -7 0 -135 -107 -176 -148 -46 -45 -60 -69
-53 -88 10 -25 45 -15 103 31 92 72 203 147 214 143 5 -2 -9 -21 -30 -43 -22
-22 -40 -47 -41 -55 0 -9 18 -36 40 -60 22 -24 40 -47 40 -51 0 -4 7 -14 15
-23 16 -15 62 -105 105 -201 12 -27 30 -68 41 -91 10 -22 19 -44 19 -49 0 -5
14 -46 31 -92 24 -65 28 -87 19 -98 -14 -17 -126 -54 -200 -66 -56 -8 -89 -35
-138 -108 -15 -22 -15 -24 4 -38 21 -17 126 -12 163 7 12 5 30 15 41 20 11 6
24 10 29 10 23 0 285 134 321 164 8 7 29 18 47 25 30 12 92 83 122 139 10 18
9 23 -2 28 -18 6 -152 -57 -199 -94 -18 -15 -38 -9 -38 10 0 18 -99 298 -126
355 -13 28 -24 55 -24 60 0 16 -64 129 -104 183 -51 71 -61 80 -81 80 -15 0
-15 2 -1 15 20 21 61 35 101 35 24 0 35 5 39 18 4 10 22 35 41 56 19 21 35 40
35 42 0 1 -7 10 -16 18 -17 18 -17 18 -91 3z"/>
<path d="M4426 1542 c-20 -3 -50 -26 -102 -79 -80 -82 -76 -82 -98 -10 -10 31
-47 19 -98 -34 -56 -58 -54 -42 -19 -198 11 -52 21 -125 21 -162 0 -102 27
-105 102 -9 32 42 49 75 57 112 20 94 63 218 76 218 30 0 58 -123 53 -234 -2
-74 0 -90 13 -99 27 -17 122 82 156 163 30 71 58 115 67 102 3 -4 10 -54 15
-109 18 -174 56 -241 156 -273 22 -7 49 -16 61 -20 12 -5 55 -14 96 -21 71
-12 76 -11 121 11 59 30 80 52 75 82 -2 19 -16 27 -78 47 -241 78 -245 82
-279 334 -13 91 -45 174 -72 182 -29 10 -78 -23 -147 -97 -14 -16 -29 -28 -34
-28 -5 0 -18 21 -29 47 -28 65 -54 82 -113 75z"/>
</g>
</svg>
