<?xml version="1.0" standalone="no"?>
<!DOCTYPE svg PUBLIC "-//W3C//DTD SVG 20010904//EN"
 "http://www.w3.org/TR/2001/REC-SVG-20010904/DTD/svg10.dtd">
<svg version="1.0" xmlns="http://www.w3.org/2000/svg"
 width="2615.000000pt" height="3376.000000pt" viewBox="0 0 2615.000000 3376.000000"
 preserveAspectRatio="xMidYMid meet">

<g transform="translate(0.000000,3376.000000) scale(0.100000,-0.100000)"
fill="#000000" stroke="none">
<path d="M10876 19612 c-3 -22 -12 -61 -20 -88 -13 -43 -45 -158 -91 -329 -7
-27 -14 -67 -14 -89 0 -21 -3 -47 -7 -58 -6 -21 11 -73 32 -98 7 -8 12 -19 11
-24 -1 -5 6 -10 16 -12 11 -1 21 -5 24 -8 3 -2 16 0 30 5 17 6 30 6 38 -1 15
-12 54 0 74 24 7 9 18 16 23 16 20 0 76 63 71 79 -4 13 -3 13 5 2 10 -14 36
-6 27 9 -3 5 4 27 16 49 14 28 20 54 17 80 -2 22 0 37 4 35 22 -14 4 32 -29
75 -42 54 -68 66 -108 51 -32 -12 -75 -13 -75 -2 0 20 23 129 30 147 5 11 14
47 21 80 6 33 15 68 20 78 9 15 4 17 -49 17 l-59 0 -7 -38z m190 -419 c5 -19
2 -29 -12 -39 -10 -7 -25 -18 -32 -25 -7 -6 -25 -17 -40 -25 -23 -12 -24 -14
-7 -15 l20 0 -20 -9 c-11 -4 -30 -6 -42 -3 -11 2 -30 0 -41 -6 -16 -9 -24 -7
-36 5 -9 9 -14 19 -12 22 2 4 9 26 15 48 12 46 20 50 126 63 33 5 63 9 67 9 4
1 11 -10 14 -25z m-12 -84 c-3 -5 -15 -8 -27 -8 -17 1 -18 2 -4 6 9 2 15 9 12
14 -3 5 1 6 9 3 9 -3 13 -10 10 -15z"/>
<path d="M10445 19630 c3 -5 15 -10 26 -10 10 0 19 5 19 10 0 6 -12 10 -26 10
-14 0 -23 -4 -19 -10z"/>
<path d="M12652 19618 c-50 -15 -65 -25 -75 -46 -6 -15 -17 -33 -24 -40 -7 -7
-13 -22 -13 -32 0 -10 -7 -20 -15 -24 -8 -3 -15 -10 -15 -16 0 -6 -16 -26 -35
-45 -33 -31 -35 -37 -29 -77 8 -61 33 -137 48 -145 7 -5 15 -16 19 -25 7 -19
42 -24 52 -8 3 6 1 10 -4 10 -6 0 -11 5 -11 10 0 6 7 10 15 10 13 0 14 4 5 21
-13 23 -4 115 11 125 5 3 9 12 9 20 0 30 46 84 90 105 25 12 53 26 62 31 10 4
29 8 42 8 33 0 57 10 50 21 -3 5 2 6 10 3 11 -4 16 0 16 14 0 11 7 22 15 26
32 12 14 32 -37 43 -29 6 -69 15 -88 20 -26 7 -50 5 -98 -9z m138 -98 c8 -5
11 -10 5 -10 -5 0 -17 5 -25 10 -8 5 -10 10 -5 10 6 0 17 -5 25 -10z"/>
<path d="M9905 19367 c0 -215 3 -267 15 -287 8 -14 15 -29 15 -35 1 -20 26
-55 40 -55 7 0 15 -6 18 -12 3 -10 7 -10 17 -1 8 7 10 27 7 55 -12 95 -17 134
-21 150 -2 9 0 18 5 20 31 10 34 355 4 388 -8 9 -15 22 -15 28 0 7 -17 12 -42
12 l-43 0 0 -263z"/>
<path d="M15069 19583 c-9 -21 -26 -68 -39 -105 -13 -38 -31 -70 -39 -72 -9
-3 -41 -10 -72 -16 -72 -14 -86 -25 -97 -77 -8 -36 -7 -46 10 -65 17 -20 28
-23 88 -21 76 3 73 6 85 -75 4 -23 14 -48 23 -55 10 -6 23 -24 31 -39 16 -31
31 -37 31 -13 0 8 3 15 8 15 4 0 5 32 4 71 -4 79 9 122 41 136 37 16 124 43
141 43 29 0 121 47 134 69 7 11 19 21 27 21 8 0 15 5 15 11 0 5 -4 7 -10 4 -5
-3 -10 -2 -10 4 0 5 6 12 13 14 6 3 -27 6 -75 6 -51 1 -90 -3 -93 -9 -5 -8
-11 -7 -21 1 -9 7 -32 10 -63 6 -51 -6 -77 5 -82 33 -5 29 20 93 47 122 l28
28 -55 0 c-53 0 -55 -1 -70 -37z"/>
<path d="M13015 19494 c-13 -35 -16 -60 -11 -103 15 -119 23 -141 69 -183 l41
-37 -37 -54 c-20 -30 -43 -70 -51 -89 -31 -66 -109 -157 -204 -237 -13 -11
-19 -21 -15 -24 12 -6 83 -1 118 8 35 10 124 83 121 99 -2 6 -1 8 1 4 7 -12
23 -10 23 2 0 12 33 61 63 95 38 42 148 218 232 371 22 39 40 174 24 174 -17
0 -84 -70 -121 -125 -52 -77 -63 -85 -115 -85 -48 0 -52 4 -56 68 -1 24 -8 46
-13 50 -6 4 -14 25 -17 46 -4 22 -13 46 -20 53 -12 12 -17 7 -32 -33z m-35
-674 c0 -5 -4 -10 -10 -10 -5 0 -10 5 -10 10 0 6 5 10 10 10 6 0 10 -4 10 -10z"/>
<path d="M11535 19504 c-40 -8 -75 -21 -82 -30 -7 -9 -19 -14 -27 -11 -21 8
-26 -2 -42 -91 -27 -142 -34 -211 -24 -236 20 -53 83 -86 94 -48 14 50 19 93
18 150 -2 49 2 70 18 92 23 32 89 64 144 68 15 2 16 5 6 17 -10 12 -9 15 8 15
11 0 23 -6 25 -12 3 -8 6 -5 6 5 1 10 6 15 11 12 6 -3 10 -2 10 2 0 5 10 13
22 18 12 6 23 15 25 20 4 15 -62 38 -86 30 -11 -3 -22 -1 -26 5 -7 12 -9 12
-100 -6z"/>
<path d="M11920 19479 c-104 -61 -186 -231 -148 -306 15 -31 86 -41 131 -19
17 8 28 16 24 16 -5 0 15 22 42 49 34 31 51 56 51 72 0 25 34 54 50 44 6 -4
10 -25 10 -49 0 -38 6 -48 47 -89 40 -39 54 -47 85 -47 21 0 38 5 38 11 0 7 9
9 21 6 27 -7 84 45 75 68 -6 17 -26 20 -26 5 0 -7 -6 -7 -19 0 -11 5 -31 10
-44 10 -14 0 -30 7 -37 15 -7 8 -19 15 -26 15 -22 0 -41 41 -47 102 -6 66 -28
98 -52 78 -8 -7 -15 -21 -15 -31 0 -11 -10 -23 -23 -28 -12 -5 -42 -25 -66
-45 -23 -20 -49 -36 -56 -36 -7 0 -15 -6 -18 -12 -3 -9 -7 -6 -13 6 -8 22 25
56 56 56 26 0 52 35 56 75 3 38 1 39 -36 48 -17 4 -38 -1 -60 -14z"/>
<path d="M14440 19481 c-78 -28 -123 -56 -184 -116 -32 -31 -43 -48 -84 -128
-51 -102 -23 -205 61 -228 62 -17 147 2 170 39 4 6 14 12 22 12 9 0 12 6 8 16
-5 13 -2 15 17 9 18 -6 29 0 55 27 17 20 37 37 44 39 7 3 14 18 14 34 1 17 8
35 16 41 10 8 14 30 12 80 -2 56 -8 80 -33 126 -36 65 -53 72 -118 49z m85
-131 c12 -20 -28 -86 -73 -120 -26 -19 -49 -38 -52 -41 -3 -3 -21 -9 -40 -12
-19 -3 -45 -9 -57 -13 -28 -8 -42 20 -24 45 6 9 14 24 17 34 4 9 11 17 17 17
6 0 22 11 36 24 15 13 52 31 83 40 31 9 60 21 63 26 8 13 22 13 30 0z"/>
<path d="M7736 19433 c-3 -3 -9 -28 -12 -55 -4 -27 -11 -51 -16 -54 -5 -3 -30
-9 -56 -13 -30 -5 -46 -12 -44 -20 1 -7 -2 -10 -8 -6 -18 11 -32 -44 -18 -73
11 -23 20 -27 66 -30 l52 -3 -1 -142 c0 -79 3 -156 6 -172 10 -43 34 -95 45
-96 35 -6 35 -5 37 146 1 83 8 183 15 223 l13 73 53 29 c28 16 52 26 52 22 0
-4 4 -2 8 4 6 10 50 19 73 15 4 -1 3 -16 -1 -33 -32 -125 -40 -161 -35 -168 3
-5 0 -21 -5 -36 -6 -16 -8 -50 -4 -80 5 -42 11 -54 30 -63 37 -17 47 -14 103
24 28 19 53 35 56 35 3 0 5 -13 5 -30 0 -17 7 -33 18 -39 10 -6 12 -11 4 -11
-8 0 -6 -7 7 -21 11 -13 24 -18 32 -14 8 6 10 4 4 -5 -6 -10 -4 -12 10 -7 14
6 16 3 12 -12 -3 -14 2 -20 21 -24 33 -6 52 1 52 20 0 8 5 11 11 7 7 -4 10 -1
7 6 -2 7 7 24 20 37 23 23 25 50 3 45 -79 -17 -102 -7 -115 53 -7 31 -48 85
-64 85 -5 0 -12 9 -15 19 -3 12 -18 23 -38 29 -29 7 -33 12 -29 33 2 13 5 63
5 110 0 97 -13 131 -56 149 -15 7 -30 18 -33 26 -6 16 -46 19 -46 4 0 -5 -9
-10 -19 -10 -10 0 -39 -11 -62 -25 -24 -14 -47 -25 -51 -25 -4 0 -15 13 -24
29 -17 29 -57 55 -68 44z"/>
<path d="M10337 19353 c-22 -43 -37 -101 -43 -175 -5 -55 -3 -69 9 -74 8 -3
13 -13 10 -23 -3 -13 3 -20 22 -25 14 -4 23 -11 20 -16 -3 -6 -2 -10 3 -10 19
0 42 50 42 92 0 24 5 60 11 82 14 51 4 102 -26 132 -14 14 -24 27 -24 30 2 19
-12 12 -24 -13z"/>
<path d="M8624 19295 c-4 -8 -12 -15 -20 -15 -23 0 -83 -72 -113 -135 -60
-127 -62 -139 -31 -203 11 -22 20 -45 20 -50 0 -9 76 -32 120 -36 14 -1 32 -6
42 -10 9 -4 33 -3 54 3 22 6 43 7 54 1 18 -10 57 -3 78 13 11 9 11 12 -4 17
-9 4 9 7 42 8 67 2 130 26 137 52 4 14 0 18 -17 16 -12 -1 -26 -5 -31 -8 -12
-6 -99 -3 -112 4 -4 3 -29 6 -55 7 -46 1 -98 15 -98 26 0 3 18 24 40 47 22 22
39 46 37 52 -3 6 0 19 5 30 7 12 6 22 -1 29 -6 6 -11 20 -11 32 0 25 -22 75
-32 75 -5 0 -8 5 -8 11 0 36 -84 65 -96 34z m256 -375 c0 -5 -7 -7 -15 -4 -8
4 -15 8 -15 10 0 2 7 4 15 4 8 0 15 -4 15 -10z m50 0 c0 -5 -4 -10 -10 -10 -5
0 -10 5 -10 10 0 6 5 10 10 10 6 0 10 -4 10 -10z m-133 -56 c-3 -3 -12 -4 -19
-1 -8 3 -5 6 6 6 11 1 17 -2 13 -5z"/>
<path d="M4185 19249 c-22 -5 -60 -12 -85 -16 -25 -3 -72 -22 -105 -42 -33
-20 -72 -43 -87 -50 -16 -8 -28 -20 -28 -26 0 -6 -9 -21 -21 -33 -11 -12 -17
-27 -13 -34 4 -7 3 -8 -4 -4 -8 5 -12 -1 -12 -15 0 -17 -3 -19 -14 -10 -11 9
-19 6 -36 -20 -14 -19 -19 -34 -13 -38 6 -3 12 -15 14 -25 2 -10 13 -24 24
-30 11 -6 22 -13 25 -16 30 -31 114 -58 125 -41 10 16 45 14 39 -3 -6 -15 35
-35 81 -40 16 -2 31 -9 34 -17 2 -8 10 -18 18 -24 11 -8 10 -16 -4 -47 -10
-21 -23 -36 -30 -33 -6 2 -19 -5 -29 -16 -9 -11 -34 -22 -55 -25 -21 -4 -40
-13 -43 -20 -4 -11 -18 -13 -60 -8 -44 5 -58 3 -72 -10 -10 -10 -23 -14 -33
-10 -9 3 -25 8 -36 10 -11 2 -37 6 -57 10 -45 8 -81 -2 -58 -16 22 -14 -12
-13 -44 1 -38 18 -84 -7 -92 -49 -8 -42 2 -91 23 -114 16 -18 43 -25 43 -10 0
24 66 32 241 31 187 0 202 1 252 20 16 6 33 9 37 6 11 -7 79 31 106 59 34 36
58 111 46 143 -6 16 -13 41 -17 57 -10 48 -129 156 -171 156 -13 0 -23 5 -21
12 1 6 -26 21 -60 32 -35 12 -63 26 -63 33 0 13 79 64 155 101 61 30 138 51
185 53 29 0 31 2 15 9 -19 8 -19 9 3 9 12 1 22 -4 22 -11 0 -6 3 -9 6 -5 3 3
27 -1 52 -9 66 -19 95 -18 110 7 12 19 10 24 -25 55 -70 63 -166 86 -268 63z
m-10 -579 c3 -6 -1 -13 -10 -16 -19 -8 -30 0 -20 15 8 14 22 14 30 1z m-470
-80 c-3 -5 -10 -10 -16 -10 -5 0 -9 5 -9 10 0 6 7 10 16 10 8 0 12 -4 9 -10z"/>
<path d="M5375 19130 c-9 -56 19 -115 57 -116 22 -1 27 4 32 31 8 43 -6 78
-42 104 -17 11 -32 21 -35 21 -3 0 -8 -18 -12 -40z"/>
<path d="M6413 19080 c-12 -5 -25 -16 -30 -25 -5 -9 -21 -22 -34 -29 -24 -12
-47 -50 -69 -118 -11 -31 -10 -39 4 -53 9 -9 16 -23 16 -31 0 -8 4 -14 10 -14
5 0 7 -7 4 -15 -12 -30 31 -30 152 1 18 5 24 0 34 -31 7 -20 18 -49 26 -63 8
-15 14 -31 14 -37 0 -5 9 -21 20 -35 11 -14 20 -30 20 -37 0 -15 -51 -64 -61
-57 -12 7 -50 -48 -44 -63 7 -18 13 -40 7 -30 -9 17 -32 -16 -26 -38 3 -13 1
-26 -5 -29 -6 -4 -11 -18 -11 -32 0 -18 4 -23 13 -18 9 6 9 4 1 -7 -21 -28
-10 -73 28 -118 30 -35 43 -43 75 -45 49 -3 91 11 104 35 5 10 15 19 22 19 14
0 97 85 97 99 0 5 -6 12 -12 15 -9 3 -8 8 5 16 21 13 16 53 -11 105 -9 17 -16
35 -17 40 0 6 -7 9 -15 8 -11 -2 -19 11 -26 40 -17 63 -37 108 -59 133 -35 38
-58 141 -56 250 1 32 -5 46 -29 69 -17 16 -30 33 -30 37 0 5 -10 22 -22 38
-23 31 -52 37 -95 20z m-41 -165 c0 -5 -5 -11 -11 -13 -6 -2 -11 4 -11 13 0 9
5 15 11 13 6 -2 11 -8 11 -13z m326 -546 c-4 -38 -2 -49 11 -52 9 -3 4 -5 -10
-6 -14 0 -38 -14 -54 -31 -28 -29 -56 -37 -89 -24 -23 9 -21 81 4 128 11 22
34 52 52 67 l33 28 29 -31 c25 -27 28 -37 24 -79z m-103 -199 c3 -5 1 -10 -4
-10 -6 0 -11 5 -11 10 0 6 2 10 4 10 3 0 8 -4 11 -10z"/>
<path d="M5639 18963 c-1 -16 -1 -86 0 -158 1 -121 3 -131 24 -147 25 -19 51
-6 42 22 -3 10 0 20 9 23 8 3 17 21 21 39 9 44 53 118 69 118 8 0 20 10 28 21
l14 21 32 -27 c26 -22 32 -34 32 -66 0 -28 4 -39 15 -39 13 0 15 -7 10 -34 -4
-20 -2 -36 4 -40 6 -4 11 -16 11 -27 0 -11 7 -22 15 -25 8 -4 15 -12 15 -20 0
-22 37 -16 54 8 20 28 20 62 1 78 -8 7 -15 19 -15 27 0 8 -5 11 -11 7 -8 -5
-10 5 -7 32 5 42 -17 109 -32 99 -6 -3 -10 -2 -10 4 0 6 -12 17 -27 25 -16 8
-23 16 -18 16 6 1 -8 7 -29 15 -43 15 -58 12 -49 -10 3 -8 1 -15 -5 -15 -6 0
-12 5 -14 10 -2 7 -13 6 -30 -2 -33 -15 -36 -28 -8 -28 11 0 20 -4 20 -9 0
-15 -72 12 -78 29 -6 18 -64 80 -74 80 -5 0 -9 -12 -9 -27z"/>
<path d="M4558 18896 c-10 -7 -18 -21 -18 -30 0 -13 -5 -16 -21 -11 -16 5 -30
-3 -65 -39 -51 -54 -76 -106 -68 -145 3 -16 1 -38 -5 -49 -8 -15 -7 -27 4 -49
8 -15 15 -33 15 -38 0 -15 87 -45 108 -38 9 4 21 13 25 21 6 9 18 12 34 7 14
-3 30 -1 37 4 9 7 27 -2 63 -34 42 -37 58 -45 90 -45 27 0 43 6 53 20 11 15
22 19 41 15 26 -6 26 -5 20 26 -5 25 -13 35 -36 41 -17 4 -34 3 -39 -2 -6 -6
-18 -10 -28 -10 -21 0 -100 78 -95 94 6 17 -34 89 -61 110 -21 17 -22 20 -8
34 8 8 32 16 52 16 31 2 37 5 39 27 4 31 -11 51 -52 72 -38 20 -62 21 -85 3z
m-10 -162 c25 22 42 14 35 -17 -19 -92 -26 -107 -45 -101 -10 3 -25 1 -33 -6
-10 -8 -15 -8 -20 0 -11 18 4 78 23 90 12 8 14 13 5 16 -7 3 -13 13 -13 22 0
13 2 12 14 -3 14 -19 15 -19 34 -1z"/>
<path d="M4949 18864 c-9 -12 -13 -50 -14 -128 0 -129 13 -177 48 -169 17 4
19 2 8 -5 -20 -14 -7 -40 24 -48 14 -3 25 -12 25 -20 0 -19 9 -18 55 6 38 19
85 62 85 76 0 4 6 15 14 23 26 30 55 89 61 128 4 21 14 52 23 70 16 31 15 33
-12 57 -15 15 -33 26 -40 26 -7 0 -36 -47 -65 -104 -28 -56 -61 -113 -72 -125
-44 -47 -72 -13 -68 85 1 39 -2 69 -9 76 -7 7 -12 19 -12 28 0 16 -18 40 -31
40 -4 0 -13 -7 -20 -16z m106 -274 c3 -5 1 -10 -4 -10 -6 0 -11 5 -11 10 0 6
2 10 4 10 3 0 8 -4 11 -10z"/>
<path d="M5401 18822 c-33 -84 -31 -171 6 -221 15 -19 29 -26 54 -26 l34 0 0
87 c-1 69 -4 91 -19 107 -10 11 -15 25 -10 32 5 9 2 10 -9 6 -10 -4 -14 -2
-11 6 2 7 -4 17 -15 24 -17 10 -20 8 -30 -15z"/>
<path d="M9552 18402 c-58 -63 -127 -105 -163 -100 -22 3 -24 9 -27 61 -2 31
-7 57 -12 57 -12 0 -34 -77 -32 -110 1 -14 10 -31 19 -37 20 -15 93 -17 93 -3
0 5 6 7 14 4 8 -3 24 4 35 15 12 12 26 21 31 21 6 0 10 7 10 15 0 9 6 12 17 8
12 -5 15 -2 10 10 -4 10 -2 16 6 14 7 -1 11 6 9 16 -2 9 2 17 8 17 6 0 15 11
20 25 5 14 14 25 20 25 5 0 10 5 10 10 0 19 -15 8 -68 -48z"/>
<path d="M13757 18408 c-9 -69 34 -118 73 -83 25 23 17 72 -17 103 -36 33 -50
28 -56 -20z"/>
<path d="M8945 18370 c-3 -5 -14 -10 -23 -10 -18 -1 -82 -54 -82 -68 0 -5 -11
-20 -24 -33 -38 -39 -58 -112 -57 -214 1 -95 10 -139 40 -194 l19 -35 -49 -70
c-45 -65 -50 -79 -61 -159 -11 -84 -11 -88 11 -115 12 -15 24 -35 27 -44 8
-24 67 -41 120 -34 42 5 102 33 132 63 8 8 26 20 40 27 30 16 107 102 107 120
0 6 13 12 28 14 21 3 27 8 23 19 -5 13 -4 14 8 4 31 -26 111 46 90 81 -3 5
-17 7 -30 4 -38 -10 -49 24 -29 87 21 65 27 328 8 334 -7 3 -13 17 -13 31 0
15 -7 38 -15 52 -8 14 -19 34 -24 45 -19 37 -35 51 -94 78 -58 27 -140 37
-152 17z m196 -97 c5 -13 14 -23 21 -24 7 0 9 -2 3 -5 -5 -2 -9 -35 -9 -74 2
-94 -31 -269 -55 -293 -6 -6 -11 -21 -11 -33 0 -29 -21 -44 -51 -37 -36 9 -50
23 -44 44 8 24 -9 32 -86 38 -10 0 -24 18 -32 40 -29 72 13 193 95 273 16 14
28 31 28 37 0 6 6 11 13 12 6 0 28 11 47 24 43 28 69 28 81 -2z m49 -197 c0
-3 -4 -8 -10 -11 -5 -3 -10 -1 -10 4 0 6 5 11 10 11 6 0 10 -2 10 -4z m-234
-387 c19 -11 34 -24 34 -27 -1 -19 -113 -106 -147 -115 -31 -7 -46 14 -28 40
8 11 12 23 9 25 -6 7 78 98 90 98 5 0 24 -9 42 -21z"/>
<path d="M9986 18318 c-3 -7 -7 -35 -10 -63 -7 -53 -24 -75 -62 -75 -12 0 -24
-6 -27 -12 -3 -10 -7 -10 -20 1 -10 8 -24 10 -34 6 -10 -5 -38 -10 -63 -12
-41 -3 -59 -15 -60 -37 0 -8 137 2 153 11 21 12 136 11 162 -3 26 -13 30 -13
47 6 17 18 40 25 78 22 8 -1 29 4 45 11 21 8 110 12 292 12 191 0 264 3 267
12 5 13 -21 26 -35 17 -7 -4 -448 -8 -586 -5 -16 1 -25 9 -29 26 -3 14 -10 25
-15 25 -4 0 -25 16 -46 35 -41 38 -52 42 -57 23z"/>
<path d="M12047 18302 c-24 -26 -21 -77 5 -112 30 -41 54 -39 69 7 10 33 10
38 -8 52 -11 9 -18 22 -15 29 4 13 -15 42 -28 42 -4 0 -14 -8 -23 -18z"/>
<path d="M8570 18292 c0 -4 -15 -13 -34 -20 -20 -7 -37 -22 -41 -35 -4 -13 -8
-17 -11 -10 -4 8 -10 9 -17 3 -7 -5 -27 -22 -45 -36 -18 -15 -31 -29 -28 -31
3 -3 -1 -12 -9 -20 -20 -20 -19 -47 3 -66 22 -20 64 -11 111 22 27 19 31 20
65 6 39 -17 84 -19 105 -6 24 15 2 31 -43 31 -56 0 -68 15 -60 74 6 38 11 47
30 52 27 7 33 24 8 24 -8 0 -12 5 -9 10 3 6 -1 10 -9 10 -9 0 -16 -4 -16 -8z
m-60 -117 c0 -10 -48 -55 -59 -55 -17 0 -13 24 8 47 11 12 17 24 13 28 -4 4 3
2 16 -4 12 -6 22 -14 22 -16z m-70 -14 c0 -12 -20 -25 -27 -18 -7 7 6 27 18
27 5 0 9 -4 9 -9z"/>
<path d="M3761 18218 c-12 -12 -21 -29 -21 -39 0 -9 -7 -22 -15 -29 -8 -7 -15
-18 -15 -24 0 -9 -54 -165 -80 -231 -5 -11 -11 -38 -14 -60 -3 -22 -16 -67
-30 -100 -13 -33 -27 -85 -30 -115 -10 -102 -10 -229 2 -242 6 -7 12 -33 14
-57 3 -38 8 -47 36 -63 27 -15 36 -16 53 -5 19 11 21 18 15 86 -3 40 -3 91 0
112 6 34 13 43 48 60 22 11 59 31 81 44 51 31 135 59 145 48 5 -4 11 -50 14
-101 3 -61 11 -102 21 -118 8 -13 13 -24 9 -24 -3 0 1 -11 10 -25 9 -13 16
-29 16 -35 0 -21 35 -50 61 -50 20 0 28 6 33 25 4 14 2 33 -3 43 -13 26 -28
216 -37 486 -3 96 -29 218 -58 274 -8 15 -30 43 -49 63 -19 19 -40 45 -46 57
-7 13 -21 22 -36 22 -13 0 -26 4 -29 8 -2 4 -20 9 -40 10 -25 2 -40 -4 -55
-20z m135 -140 c4 -13 11 -26 16 -29 13 -9 28 -116 31 -230 2 -97 1 -104 -18
-106 -11 -2 -51 -8 -90 -13 -121 -18 -110 -22 -113 43 -2 31 1 57 6 57 5 0 19
28 31 63 12 34 30 80 41 102 10 22 25 61 35 88 18 52 48 64 61 25z"/>
<path d="M14962 18194 c-29 -8 -59 -20 -66 -27 -14 -13 -38 -55 -43 -72 -1 -5
-5 -20 -9 -32 -4 -16 -1 -25 10 -29 9 -3 16 -11 16 -18 1 -22 47 -55 86 -62
36 -5 104 -53 104 -72 0 -4 -37 -9 -82 -9 -115 -2 -206 -32 -279 -92 -51 -42
-57 -52 -72 -111 -14 -59 -14 -65 1 -77 26 -20 62 -27 91 -17 32 12 41 44 12
44 -36 0 -32 18 11 61 65 64 105 79 224 79 82 0 103 -3 108 -15 7 -19 35 -20
42 -1 3 9 12 12 21 9 11 -4 14 -2 9 5 -4 6 -1 22 5 34 24 45 19 70 -26 133
-23 33 -55 71 -69 84 -43 41 -35 52 38 49 101 -3 124 34 63 103 -28 32 -39 37
-87 42 -32 3 -78 -1 -108 -9z m-192 -428 c0 -2 -7 -7 -16 -10 -8 -3 -12 -2 -9
4 6 10 25 14 25 6z"/>
<path d="M17066 18153 c-58 -15 -206 -148 -206 -186 0 -6 -8 -19 -17 -29 -12
-14 -17 -38 -17 -93 l-1 -75 43 -38 c25 -22 65 -45 98 -55 60 -19 169 -23 159
-7 -3 6 5 10 19 10 14 0 29 8 35 17 5 10 13 15 17 11 4 -5 14 -2 22 4 8 7 26
12 40 13 20 0 28 6 30 23 3 17 -2 22 -17 22 -12 0 -21 -5 -21 -11 0 -14 -81
-3 -91 12 -3 5 -19 13 -34 17 -43 12 -40 24 12 52 68 35 123 88 123 115 0 13
6 30 14 37 17 18 31 78 18 78 -6 0 -8 10 -5 23 4 18 3 19 -6 7 -9 -13 -11 -13
-11 2 0 33 -53 58 -122 57 -34 -1 -72 -4 -82 -6z"/>
<path d="M14243 18140 c-36 -8 -72 -25 -108 -53 -23 -17 -86 -57 -92 -57 -3 0
-3 7 1 15 3 8 0 15 -7 15 -21 0 -36 -97 -25 -162 6 -32 14 -58 20 -58 5 0 7
-4 3 -9 -7 -13 33 -34 51 -27 8 3 14 16 14 29 0 22 28 92 50 127 6 8 14 24 19
35 5 11 23 30 40 43 17 12 31 29 31 38 0 8 5 12 10 9 6 -4 8 -10 5 -14 -2 -5
9 -11 26 -15 17 -3 28 -10 25 -15 -4 -5 -1 -11 5 -13 5 -2 17 -53 24 -113 22
-171 48 -230 96 -218 33 9 40 36 18 72 -15 24 -21 57 -24 129 -3 53 -7 108
-10 122 -5 25 -105 131 -122 129 -4 -1 -27 -5 -50 -9z m54 -46 c-3 -3 -12 -4
-19 -1 -8 3 -5 6 6 6 11 1 17 -2 13 -5z"/>
<path d="M12470 18099 c-19 -12 -36 -25 -38 -30 -2 -5 -9 -9 -16 -9 -13 0 -30
-47 -41 -116 -6 -36 -4 -42 14 -47 12 -3 21 -12 21 -20 0 -15 51 -33 79 -28 8
1 17 -2 20 -7 9 -14 55 -27 47 -13 -10 15 59 -26 75 -45 17 -21 -14 -52 -60
-60 -54 -9 -164 -47 -179 -61 -7 -7 -24 -13 -38 -13 -23 0 -100 -43 -116 -65
-4 -5 -6 -15 -3 -22 2 -7 -2 -10 -9 -7 -16 6 -66 -64 -66 -93 0 -23 17 -39 40
-37 19 1 53 15 60 24 3 4 38 24 78 45 39 20 74 41 77 45 3 4 18 7 35 6 18 -1
30 3 30 10 0 6 18 14 39 18 22 3 47 13 55 22 9 8 20 13 24 10 5 -3 15 6 22 19
8 15 22 25 36 25 13 0 31 12 43 28 12 15 25 33 31 39 13 16 2 63 -14 60 -6 -1
-11 5 -11 13 -1 26 -23 57 -45 63 -11 3 -20 0 -21 -6 0 -7 -4 -2 -9 11 -5 12
-23 30 -40 40 -16 9 -30 20 -30 25 0 4 -11 7 -24 7 -37 0 -43 20 -13 46 14 12
23 25 20 28 -4 3 2 6 13 6 10 0 28 7 38 15 16 12 17 18 8 27 -7 7 -12 20 -12
30 0 18 -35 38 -68 38 -9 0 -33 -10 -52 -21z m54 -14 c-4 -8 -8 -15 -10 -15
-2 0 -4 7 -4 15 0 8 4 15 10 15 5 0 7 -7 4 -15z m146 -280 c20 -24 4 -29 -19
-6 -14 14 -17 21 -7 21 7 0 19 -7 26 -15z"/>
<path d="M15670 18100 c-63 -13 -90 -29 -137 -80 -87 -95 -127 -192 -102 -253
18 -47 43 -67 91 -73 52 -6 134 17 131 37 -4 24 62 14 113 -16 39 -23 53 -26
102 -22 80 8 98 12 115 25 7 7 16 9 19 7 3 -3 17 -1 32 5 18 7 26 16 24 28 -3
14 -16 17 -88 17 -47 1 -94 6 -105 11 -11 6 -33 17 -50 25 -29 14 -30 17 -30
88 0 40 3 75 7 78 5 2 8 16 8 30 0 18 -13 38 -42 64 -24 21 -45 38 -48 38 -3
-1 -21 -5 -40 -9z m1 -199 c-11 -20 -71 -52 -83 -45 -15 10 -8 22 25 43 42 27
72 28 58 2z"/>
<path d="M13712 18087 c-26 -33 -44 -348 -20 -363 4 -3 8 -14 8 -25 0 -10 6
-19 14 -19 8 0 20 -2 28 -5 39 -14 54 58 60 290 1 61 -15 111 -33 100 -5 -4
-9 -2 -9 2 0 5 -9 14 -19 20 -15 9 -21 9 -29 0z"/>
<path d="M16325 18000 c-9 -10 -25 -15 -43 -12 -29 4 -27 8 -87 -148 -20 -51
-26 -115 -15 -144 13 -34 54 -54 75 -36 8 7 13 16 10 20 -3 4 2 10 10 14 8 3
15 14 15 25 0 11 5 23 11 27 8 4 7 9 -2 15 -11 6 -10 9 4 15 9 3 17 12 17 20
0 7 15 30 34 50 35 38 35 38 115 39 113 0 120 -8 98 -112 -22 -101 -22 -110 7
-128 32 -21 54 -10 78 42 36 78 21 219 -29 271 -46 49 -73 57 -180 57 -83 1
-106 -2 -118 -15z m108 -97 c-7 -2 -19 -2 -25 0 -7 3 -2 5 12 5 14 0 19 -2 13
-5z m-190 -230 c-7 -2 -19 -2 -25 0 -7 3 -2 5 12 5 14 0 19 -2 13 -5z"/>
<path d="M10670 17992 c-25 -9 -47 -19 -50 -22 -3 -3 -24 -20 -47 -38 -61 -48
-80 -85 -88 -174 -5 -55 -4 -78 4 -78 6 0 11 -7 11 -16 0 -24 65 -81 100 -89
16 -4 45 -3 63 0 42 9 120 45 129 59 4 6 8 7 8 3 0 -4 9 -3 20 3 11 6 18 15
15 19 -5 9 27 21 57 21 9 0 30 -12 45 -26 41 -38 79 -55 142 -64 63 -9 244 6
249 21 2 5 15 9 28 9 28 0 30 7 8 31 -15 17 -15 18 14 7 25 -10 33 -9 46 4 15
15 15 17 -2 21 -12 3 -11 5 6 6 29 1 24 25 -6 29 -15 2 -22 -2 -22 -12 0 -9
-8 -16 -20 -16 -11 0 -20 7 -20 15 0 8 -2 15 -5 15 -2 0 -30 7 -62 15 -32 9
-89 18 -128 21 -38 3 -95 9 -125 13 l-55 6 0 38 c0 22 -6 41 -15 47 -8 5 -11
12 -8 16 8 7 -34 44 -50 44 -19 0 -42 -31 -42 -58 -1 -58 -97 -119 -199 -126
-56 -4 -68 13 -33 46 55 53 102 78 133 71 38 -7 59 11 59 52 0 31 -25 65 -48
65 -6 0 -16 9 -22 20 -13 24 -30 24 -90 2z"/>
<path d="M9593 17945 c-29 -13 -53 -28 -53 -33 0 -5 -15 -24 -32 -41 -32 -31
-33 -34 -33 -119 0 -109 22 -161 75 -178 19 -7 37 -10 40 -7 2 2 7 40 11 84 4
44 13 86 19 94 10 12 10 15 0 15 -8 0 -10 3 -6 8 4 4 9 6 12 5 2 -2 14 8 28
22 13 13 55 33 92 45 54 16 72 26 82 47 6 15 12 33 12 40 0 27 -81 46 -96 22
-5 -8 -10 -6 -16 5 -13 23 -73 19 -135 -9z m39 -147 c-7 -7 -12 -8 -12 -2 0
14 12 26 19 19 2 -3 -1 -11 -7 -17z"/>
<path d="M12005 17948 c-12 -33 -21 -146 -14 -171 18 -62 88 -95 90 -43 4 142
-3 183 -41 213 -19 16 -30 16 -35 1z"/>
<path d="M10025 17938 c-9 -25 -22 -184 -19 -228 1 -25 9 -63 16 -85 11 -34
18 -40 52 -47 21 -5 42 -6 45 -3 3 4 5 70 5 147 0 139 -1 141 -26 163 -14 12
-31 32 -37 44 -13 23 -29 28 -36 9z"/>
<path d="M4405 17910 c-3 -5 -5 -36 -4 -68 1 -65 -9 -281 -17 -329 -2 -17 0
-34 6 -38 5 -3 10 -35 10 -69 0 -44 5 -67 15 -76 8 -7 15 -18 15 -26 0 -15 30
-34 54 -34 19 0 27 29 30 112 1 34 8 115 15 178 7 63 11 146 8 183 -7 83 -40
150 -77 155 -14 2 -30 8 -37 13 -7 7 -14 6 -18 -1z"/>
<path d="M5618 17893 c-10 -2 -18 -8 -18 -11 0 -7 -18 -10 -72 -13 -13 -1 -43
-7 -68 -14 -75 -22 -302 -43 -569 -54 -31 -1 -33 -3 -27 -27 4 -14 15 -35 25
-45 19 -21 34 -22 285 -34 54 -2 100 -6 102 -8 7 -6 -7 -37 -16 -37 -5 0 -16
7 -24 16 -15 14 -16 14 -16 0 0 -10 -9 -16 -25 -16 -17 0 -50 -24 -107 -79
-46 -43 -99 -91 -118 -107 -19 -16 -37 -31 -40 -35 -3 -3 -13 -8 -23 -12 -27
-10 -32 -36 -11 -52 25 -19 62 -19 99 1 17 9 47 22 68 30 31 11 37 11 37 -1 0
-7 16 -19 35 -25 30 -10 39 -9 64 9 16 12 34 21 39 21 6 0 10 -28 11 -62 0
-94 21 -251 34 -265 18 -18 51 -5 64 25 7 15 12 65 11 112 0 238 4 310 17 310
8 0 17 -5 20 -10 9 -14 90 -50 112 -50 11 0 24 -5 30 -11 17 -17 261 -18 272
-1 4 7 14 14 22 15 25 4 39 18 39 38 0 10 -7 19 -15 19 -23 0 -29 1 -49 12
-13 7 -26 6 -42 -3 -21 -11 -31 -9 -72 9 -26 11 -78 26 -117 33 -38 6 -74 15
-80 19 -5 3 -30 12 -55 19 -53 15 -69 27 -81 58 -13 36 -1 50 49 57 58 9 138
48 134 65 -2 9 3 11 13 7 9 -3 18 1 22 10 3 8 11 13 18 11 18 -7 75 42 75 64
0 19 -14 22 -52 12z m-358 -384 c0 -11 -27 -12 -34 0 -3 4 -3 11 0 14 8 8 34
-3 34 -14z"/>
<path d="M7510 17893 c-51 -20 -240 -205 -240 -235 0 -9 -4 -20 -10 -23 -5 -3
-10 -39 -10 -79 0 -73 0 -74 40 -110 47 -42 75 -51 137 -42 51 7 75 29 66 64
-6 26 12 29 41 7 16 -12 22 -12 45 3 14 9 29 21 33 26 6 9 54 -9 68 -25 10
-12 74 -29 108 -29 85 0 237 68 218 99 -3 5 1 14 9 21 28 23 17 33 -27 25 -24
-5 -58 -7 -77 -6 -18 0 -39 -3 -45 -7 -17 -14 -156 9 -156 25 0 7 -4 13 -10
13 -5 0 -10 15 -10 33 0 41 -8 51 -49 65 -52 18 -59 15 -81 -30 -11 -24 -26
-50 -33 -58 -17 -21 -85 -56 -124 -65 -45 -9 -44 15 1 60 19 19 37 43 41 55 4
12 16 25 28 31 12 5 37 18 55 29 18 11 51 22 75 24 68 6 95 26 81 59 -20 45
-128 88 -174 70z m430 -343 c0 -5 -4 -10 -10 -10 -5 0 -10 5 -10 10 0 6 5 10
10 10 6 0 10 -4 10 -10z"/>
<path d="M6598 17883 c-10 -2 -18 -10 -18 -18 0 -7 -6 -15 -13 -18 -8 -3 -24
-27 -36 -53 -13 -27 -42 -69 -65 -95 l-41 -47 -50 52 c-27 28 -50 60 -50 71 0
14 -8 21 -26 23 -22 3 -27 -1 -27 -20 0 -13 -3 -39 -7 -58 -6 -31 -2 -42 39
-98 45 -60 46 -63 33 -95 -8 -17 -28 -47 -46 -66 -17 -18 -31 -39 -31 -46 0
-7 -16 -23 -35 -36 -41 -28 -50 -46 -33 -66 10 -12 9 -14 -7 -12 -24 4 -65
-21 -65 -38 0 -17 22 -16 46 2 10 8 31 15 46 15 18 0 29 7 33 20 4 13 15 20
30 20 13 0 27 5 30 10 4 6 10 8 15 5 5 -3 22 8 38 25 17 16 33 30 37 30 3 0
16 12 28 26 18 21 28 24 50 18 16 -3 31 -13 34 -20 3 -8 10 -14 16 -14 5 0 25
-12 44 -26 49 -37 113 -57 146 -45 15 6 27 16 27 23 -1 17 -24 48 -36 48 -5 0
-27 16 -49 35 -22 19 -43 35 -48 35 -4 0 -21 13 -37 29 -30 28 -39 51 -20 51
6 0 10 7 10 15 0 8 9 23 20 32 11 10 20 21 20 26 0 4 20 38 45 75 42 62 60
112 34 97 -6 -4 -5 1 2 13 11 17 9 24 -12 50 -23 30 -36 34 -71 25z"/>
<path d="M17494 17803 c-32 -77 -35 -88 -29 -120 3 -19 12 -33 20 -33 8 0 15
-5 15 -11 0 -6 9 -8 23 -3 31 9 34 14 17 24 -13 8 -12 10 2 10 11 0 20 12 26
33 10 36 5 97 -8 97 -5 0 -12 9 -15 20 -10 31 -33 23 -51 -17z"/>
<path d="M8389 17795 c-1 -3 -2 -11 -3 -17 -1 -7 -9 -12 -18 -10 -21 3 -69
-20 -88 -43 -11 -14 -15 -14 -36 0 -13 8 -32 15 -44 15 -11 0 -29 9 -40 20
-29 29 -38 18 -30 -37 4 -26 11 -82 15 -124 5 -62 12 -83 32 -108 14 -17 32
-31 40 -31 17 0 49 31 88 85 46 63 59 76 80 86 11 6 31 16 45 24 23 14 27 13
48 -11 13 -15 22 -38 22 -58 0 -42 36 -65 75 -48 30 14 32 45 9 111 -25 74
-35 83 -131 130 -41 21 -62 26 -64 16z"/>
<path d="M5588 17380 c-15 -4 -46 -7 -70 -5 -54 3 -64 -3 -44 -24 9 -9 26 -29
40 -46 19 -24 32 -29 69 -31 25 -1 50 -4 55 -8 16 -10 41 4 48 27 3 12 13 30
22 40 14 15 13 19 -3 37 -19 21 -67 25 -117 10z"/>
<path d="M5570 17170 c-8 -5 -41 -7 -72 -5 -32 3 -58 1 -58 -3 0 -12 26 -81
32 -88 4 -3 25 -10 48 -15 58 -13 110 4 139 46 22 32 22 34 4 54 -19 22 -67
28 -93 11z"/>
</g>
</svg>
