<?xml version="1.0" standalone="no"?>
<!DOCTYPE svg PUBLIC "-//W3C//DTD SVG 20010904//EN"
 "http://www.w3.org/TR/2001/REC-SVG-20010904/DTD/svg10.dtd">
<svg version="1.0" xmlns="http://www.w3.org/2000/svg"
 width="1305.000000pt" height="734.000000pt" viewBox="0 0 1305.000000 734.000000"
 preserveAspectRatio="xMidYMid meet">
<metadata>
Created by potrace 1.16, written by Peter Selinger 2001-2019
</metadata>
<g transform="translate(0.000000,734.000000) scale(0.100000,-0.100000)"
fill="#000000" stroke="none">
<path d="M2019 7254 c-10 -13 -10 -21 0 -47 20 -51 18 -58 -21 -79 -21 -11
-38 -24 -38 -29 0 -15 44 -21 73 -10 15 6 33 8 40 5 18 -6 52 -53 61 -82 6
-17 15 -22 42 -22 46 0 45 22 -6 84 -22 26 -40 53 -40 60 0 14 46 55 83 75 26
14 38 51 16 51 -15 0 -50 -20 -82 -46 -39 -33 -50 -30 -76 16 -25 44 -32 48
-52 24z"/>
<path d="M1833 7110 c-12 -5 -34 -27 -49 -50 -25 -38 -26 -45 -21 -118 5 -70
9 -80 37 -104 56 -51 140 -28 179 49 14 29 14 33 -4 33 -8 0 -27 -13 -42 -30
-29 -33 -66 -39 -95 -16 -24 17 -23 46 0 46 24 0 47 25 67 73 20 49 19 90 -3
110 -20 19 -36 20 -69 7z"/>
<path d="M4372 7011 c-12 -21 -22 -51 -22 -67 l0 -27 -23 21 c-31 29 -35 28
-43 -12 -5 -32 14 -111 46 -181 4 -11 11 -33 15 -48 6 -28 30 -46 43 -33 3 4
7 70 9 146 1 77 4 144 8 150 9 14 25 3 25 -18 0 -9 7 -30 15 -46 8 -15 15 -41
15 -57 0 -18 7 -32 19 -38 16 -9 20 -6 29 17 6 15 13 44 17 65 7 45 26 48 52
7 18 -29 79 -80 95 -80 4 0 8 18 8 39 0 31 -4 41 -20 46 -11 3 -25 16 -31 28
-30 56 -71 97 -98 97 -15 0 -32 -5 -38 -11 -7 -7 -14 -6 -24 4 -17 16 -54 37
-67 37 -4 0 -18 -17 -30 -39z"/>
<path d="M1609 6926 c-11 -20 -23 -36 -26 -36 -3 0 -18 14 -34 31 -36 38 -60
35 -75 -11 -9 -26 -17 -35 -35 -36 -42 -1 -49 -4 -49 -18 0 -7 8 -24 19 -37
10 -13 21 -35 25 -49 22 -83 30 -100 46 -100 22 0 30 28 30 107 0 34 4 64 10
68 5 3 18 -12 30 -35 11 -22 24 -40 29 -40 17 0 42 32 48 61 8 42 20 44 38 9
16 -31 40 -40 48 -17 6 20 -10 79 -31 106 -29 39 -49 38 -73 -3z"/>
<path d="M269 6927 c-65 -67 -119 -136 -119 -153 0 -21 19 -17 51 11 26 21 33
23 57 12 14 -7 42 -27 60 -44 19 -18 38 -33 43 -33 5 0 9 -12 9 -27 -1 -27 -9
-35 -84 -87 -12 -8 -17 -19 -13 -29 8 -22 47 -8 103 39 23 19 47 34 53 34 6 0
11 3 11 8 0 4 18 26 40 50 33 35 40 50 40 83 0 37 -1 39 -21 28 -12 -6 -26
-23 -32 -39 -17 -45 -42 -54 -77 -28 -16 12 -32 29 -35 37 -3 9 -23 29 -46 45
-36 25 -39 30 -26 45 25 28 27 38 13 50 -11 9 -17 8 -27 -2z"/>
<path d="M6955 6897 c-39 -22 -82 -62 -101 -92 -10 -16 -26 -40 -37 -52 -14
-16 -18 -29 -13 -50 8 -31 53 -83 72 -83 24 0 33 32 18 61 -24 47 -9 88 54
145 40 36 54 55 49 67 -7 19 -14 20 -42 4z"/>
<path d="M1143 6845 c-33 -30 -66 -55 -71 -55 -5 0 -13 11 -16 25 -4 14 -13
25 -21 25 -19 0 -27 -32 -20 -73 4 -21 3 -37 -4 -41 -6 -4 -11 -16 -11 -27 0
-13 7 -19 24 -19 17 0 27 -9 36 -30 13 -30 63 -80 81 -80 24 0 18 34 -15 86
-25 41 -33 61 -26 73 16 29 87 101 98 101 16 0 35 38 28 56 -8 22 -17 18 -83
-41z"/>
<path d="M2791 6759 c-24 -42 -31 -49 -37 -36 -3 10 -19 24 -35 32 -26 14 -30
13 -57 -10 -17 -14 -35 -25 -41 -25 -6 0 -11 -4 -11 -10 0 -5 -20 -21 -45 -35
-41 -25 -45 -30 -43 -65 1 -22 -4 -45 -9 -52 -10 -12 -16 -52 -14 -90 1 -10
13 -24 29 -31 55 -28 128 30 152 122 12 44 7 91 -11 102 -13 8 0 41 15 36 10
-3 25 -29 60 -107 22 -47 41 -36 64 36 12 37 19 71 16 75 -3 5 4 18 14 29 17
18 25 20 61 11 48 -10 81 -4 98 18 21 27 14 37 -24 37 -21 0 -64 3 -95 8 l-56
8 -31 -53z"/>
<path d="M6611 6759 c-12 -22 -24 -61 -28 -85 -3 -24 -12 -49 -19 -55 -18 -15
-18 -49 0 -49 8 0 24 -12 36 -27 15 -19 38 -32 72 -39 50 -12 50 -12 89 26 38
36 49 63 29 75 -5 3 -21 -8 -36 -25 -30 -33 -64 -39 -89 -14 -14 15 -12 20 28
60 84 84 64 174 -38 174 -17 0 -29 -11 -44 -41z"/>
<path d="M3993 6768 c-26 -28 -53 -107 -53 -154 0 -33 22 -80 45 -96 5 -4 29
-8 52 -8 35 0 50 6 82 35 37 34 78 101 68 112 -9 8 -54 -27 -82 -63 -28 -36
-57 -43 -87 -20 -27 20 -24 97 7 152 14 25 25 49 25 54 0 18 -36 10 -57 -12z"/>
<path d="M12498 6762 c-31 -4 -81 -51 -98 -93 -7 -16 -18 -29 -25 -29 -7 0
-37 -13 -67 -29 -59 -32 -85 -29 -73 8 3 12 19 29 33 39 52 33 65 62 29 62
-51 0 -127 -77 -127 -129 0 -29 39 -61 73 -61 36 0 94 26 125 56 l23 22 24
-24 c13 -13 32 -24 42 -25 10 0 30 -3 45 -5 29 -5 93 28 102 53 12 29 -11 38
-46 19 -19 -10 -46 -16 -63 -14 l-30 4 25 11 c41 17 80 63 80 93 0 31 -29 48
-72 42z"/>
<path d="M11475 6740 c-3 -5 -29 -25 -58 -44 -62 -41 -97 -79 -97 -104 0 -10
14 -31 30 -47 44 -42 41 -63 -21 -187 -5 -10 -9 -27 -9 -38 0 -11 -4 -20 -10
-20 -5 0 -10 -9 -10 -19 0 -10 -7 -21 -15 -25 -8 -3 -15 -12 -15 -20 0 -8 -7
-19 -17 -24 -14 -9 -14 -11 6 -21 29 -16 48 -1 57 45 3 19 10 34 15 34 5 0 9
5 9 10 0 6 16 33 35 61 19 28 35 55 35 60 0 18 19 8 58 -30 31 -30 40 -49 45
-86 4 -28 14 -53 25 -61 51 -39 119 9 107 76 -8 44 -20 57 -38 42 -10 -8 -20
-7 -39 6 -43 28 -65 64 -83 131 -16 64 -15 74 21 106 6 6 17 31 24 56 10 40
10 51 -4 78 -16 31 -39 40 -51 21z"/>
<path d="M3659 6713 c0 -5 -2 -73 -4 -153 -2 -80 -8 -170 -15 -200 -19 -82
-18 -104 4 -108 32 -7 38 8 63 155 3 21 17 41 38 58 32 24 34 24 47 7 7 -10
26 -27 42 -37 28 -18 29 -18 42 0 19 25 18 28 -11 55 -30 28 -31 40 -5 63 11
9 20 21 20 26 0 14 -31 18 -62 10 -22 -6 -31 -3 -43 14 -8 12 -15 27 -15 34 0
6 -6 18 -13 25 -8 7 -19 23 -26 36 -11 21 -60 32 -62 15z"/>
<path d="M6287 6694 c-18 -18 2 -99 49 -202 9 -18 14 -38 12 -44 -2 -6 5 -21
16 -33 12 -13 28 -33 36 -45 22 -31 79 -41 103 -17 26 26 47 80 47 122 0 71
-78 107 -130 60 -9 -8 -21 -15 -27 -15 -9 0 -30 51 -59 145 -9 29 -33 43 -47
29z"/>
<path d="M11916 6660 c-24 -23 -31 -41 -37 -92 -9 -78 3 -101 61 -116 42 -11
109 0 121 20 4 5 17 15 29 21 13 7 22 17 22 22 -2 17 -40 17 -67 -1 -14 -9
-28 -14 -32 -10 -3 3 -12 1 -19 -5 -8 -6 -25 -8 -38 -5 -34 8 -43 55 -20 96
22 37 33 39 26 5 -6 -34 21 -33 53 1 25 27 30 49 19 78 -11 28 -84 20 -118
-14z"/>
<path d="M8432 6670 c-12 -5 -28 -7 -36 -4 -10 4 -20 -12 -35 -51 -33 -88 -26
-110 34 -117 25 -2 31 -9 39 -40 5 -21 13 -38 18 -38 4 0 8 -8 8 -19 0 -10 7
-24 15 -31 8 -7 21 -26 30 -43 28 -56 -21 -76 -92 -36 -35 20 -39 20 -70 5
-34 -16 -44 -43 -18 -51 8 -3 23 -8 33 -11 37 -14 134 -14 175 0 51 17 71 54
45 83 -21 23 -76 127 -92 174 -7 20 -12 63 -10 95 2 62 -3 94 -14 93 -4 0 -17
-4 -30 -9z"/>
<path d="M865 6633 c-28 -41 -35 -115 -12 -136 19 -19 65 -37 92 -37 13 0 26
-4 30 -9 9 -15 -14 -56 -38 -66 -28 -13 -29 -49 -2 -53 11 -1 33 8 48 21 25
19 29 30 30 76 2 61 -15 81 -69 81 -33 0 -64 21 -64 44 0 6 9 30 20 51 35 68
8 90 -35 28z"/>
<path d="M7855 6638 c-5 -12 -11 -60 -14 -100 -1 -11 -9 -18 -20 -18 -29 0
-51 -11 -51 -25 0 -19 30 -40 59 -40 22 0 29 -7 42 -45 26 -74 30 -80 54 -80
49 0 77 32 40 46 -8 4 -15 12 -15 19 0 7 -7 18 -15 25 -23 19 -18 49 10 62 25
11 34 42 15 53 -6 4 -18 1 -26 -6 -24 -20 -39 5 -39 64 0 41 -4 52 -18 55 -9
2 -19 -2 -22 -10z"/>
<path d="M2008 6598 c-3 -7 -1 -20 3 -28 4 -8 16 -33 26 -55 9 -22 36 -69 58
-105 23 -36 50 -84 61 -107 20 -44 40 -58 68 -47 23 9 20 22 -11 62 -16 19
-57 92 -93 161 -49 95 -71 127 -87 129 -11 2 -23 -3 -25 -10z"/>
<path d="M2270 6578 c-33 -55 -38 -116 -12 -156 6 -8 33 -14 75 -15 37 -1 67
-5 67 -9 0 -18 -14 -38 -26 -38 -17 0 -37 -37 -30 -56 7 -19 76 -19 76 0 0 7
8 24 19 37 10 13 21 41 25 61 9 48 -11 60 -101 56 -62 -3 -68 -1 -71 17 -1 11
8 41 21 66 22 44 22 47 5 58 -25 15 -26 15 -48 -21z"/>
<path d="M8200 6558 c-11 -18 -21 -37 -23 -43 -2 -6 -10 -5 -20 3 -27 23 -38
4 -34 -59 6 -100 42 -106 82 -14 14 30 27 55 29 55 3 0 15 -20 27 -45 27 -54
42 -61 83 -37 46 27 47 52 2 52 -32 0 -36 3 -42 35 -8 44 -39 85 -65 85 -11 0
-28 -14 -39 -32z"/>
<path d="M9484 6538 c-20 -38 -23 -150 -6 -171 10 -11 4 -26 -27 -72 -51 -75
-64 -82 -86 -49 -13 20 -19 23 -31 13 -8 -6 -14 -17 -14 -25 0 -7 -17 -32 -38
-55 -42 -45 -71 -47 -92 -8 -20 36 -44 22 -75 -43 -36 -76 -59 -83 -62 -19 -1
24 -7 47 -13 51 -22 13 -84 -8 -107 -36 -23 -29 -39 -109 -28 -143 10 -33 50
-27 81 13 26 33 28 33 54 18 38 -22 73 -5 100 48 23 45 20 44 54 29 32 -15
112 13 121 42 6 18 40 34 61 27 5 -1 19 3 30 10 25 13 36 4 49 -36 4 -14 13
-22 23 -20 10 2 26 -4 36 -14 21 -19 36 -15 36 9 0 11 6 14 21 10 12 -3 22 0
25 8 3 7 16 16 30 19 13 4 24 10 24 15 0 5 15 26 34 45 41 44 53 86 25 86 -11
0 -19 3 -20 8 -1 4 -2 23 -3 43 -4 57 -46 157 -81 195 -25 26 -40 34 -68 34
-31 0 -39 -5 -53 -32z m93 -30 c31 -34 55 -88 50 -109 -3 -10 1 -26 9 -36 21
-29 16 -93 -9 -93 -5 0 -25 11 -43 25 -18 14 -37 25 -43 25 -14 0 -22 30 -21
81 0 24 0 60 0 79 0 30 12 49 31 50 3 0 15 -10 26 -22z"/>
<path d="M718 6496 c-27 -10 -48 -43 -48 -77 0 -11 -4 -28 -9 -38 -20 -37 63
-121 91 -93 9 9 8 20 -5 47 -27 57 -22 100 13 125 54 39 28 61 -42 36z"/>
<path d="M7332 6448 c-15 -15 -16 -75 -2 -80 6 -2 11 -42 11 -92 1 -53 7 -99
15 -115 8 -14 14 -34 14 -44 0 -19 20 -58 35 -69 46 -34 105 53 105 154 0 49
-3 59 -26 77 -32 25 -47 26 -69 5 -9 -9 -19 -13 -23 -10 -4 4 -9 46 -12 94 -4
67 -8 87 -20 90 -9 1 -21 -3 -28 -10z"/>
<path d="M7614 6345 c-55 -63 -68 -89 -59 -122 9 -38 73 -25 87 17 2 7 14 5
34 -4 38 -19 73 -13 96 16 10 13 18 26 18 29 0 3 -21 10 -47 15 -48 9 -48 9
-53 53 -3 25 -10 46 -16 48 -6 2 -33 -22 -60 -52z"/>
<path d="M339 6369 c-28 -15 -43 -35 -68 -88 -34 -75 -38 -114 -16 -168 8 -19
15 -43 15 -53 0 -24 63 -70 105 -77 34 -5 35 -5 35 26 0 43 -30 99 -74 139
-54 49 -46 104 27 175 24 23 37 43 33 52 -7 19 -13 18 -57 -6z"/>
<path d="M1657 6353 c-3 -5 -8 -29 -12 -54 -5 -35 -3 -48 9 -58 17 -14 21 -9
28 34 2 11 11 21 20 23 41 8 55 -179 20 -258 -21 -50 -45 -75 -62 -65 -6 3
-28 30 -49 58 -36 49 -56 97 -81 195 -6 24 -17 42 -25 42 -24 0 -33 -29 -22
-70 11 -40 -4 -363 -18 -407 -9 -29 20 -43 42 -20 13 12 17 45 21 146 l5 130
21 -27 c42 -54 52 -63 84 -84 28 -17 37 -18 62 -8 17 7 33 24 40 43 7 18 16
41 22 52 11 25 24 117 22 165 -4 91 -48 168 -96 169 -15 1 -29 -2 -31 -6z"/>
<path d="M6095 6337 c-8 -13 -20 -38 -26 -57 -17 -48 -35 -74 -44 -61 -10 17
-49 13 -72 -8 -13 -13 -29 -17 -46 -14 -24 5 -27 2 -27 -23 0 -16 13 -51 28
-79 41 -75 82 -72 82 6 0 45 8 54 32 33 17 -16 19 -15 40 12 26 32 58 99 58
120 0 22 11 17 51 -22 l36 -36 22 30 c31 45 27 70 -13 63 -20 -4 -44 11 -54
34 -15 31 -47 32 -67 2z"/>
<path d="M10818 6317 c-48 -48 -64 -82 -48 -102 7 -8 27 -15 44 -15 17 0 38
-5 46 -10 11 -7 11 -10 2 -10 -17 0 -32 -42 -21 -56 12 -15 70 -10 83 8 6 8
19 17 29 21 10 4 17 17 17 32 0 29 -27 43 -102 52 -27 3 -48 8 -48 11 0 3 11
17 24 31 58 63 34 98 -26 38z"/>
<path d="M3078 6317 c-36 -16 -98 -74 -98 -92 0 -25 20 -27 57 -4 41 26 42 22
10 -52 -25 -57 -7 -73 89 -79 44 -3 79 -10 81 -16 6 -19 -47 -74 -71 -74 -12
0 -31 -6 -42 -14 -26 -20 -8 -50 33 -54 25 -2 39 5 76 42 93 93 69 166 -55
166 -42 0 -48 3 -48 20 0 12 9 39 21 61 40 79 14 126 -53 96z"/>
<path d="M1840 6244 c-7 -17 -7 -31 -1 -38 5 -6 10 -15 10 -21 5 -49 51 -102
96 -111 49 -9 108 27 128 77 14 37 14 41 0 46 -10 4 -22 -1 -30 -13 -53 -72
-81 -81 -119 -36 -28 32 -30 41 -9 48 21 9 19 27 -8 52 -31 29 -55 28 -67 -4z"/>
<path d="M6764 6195 c-11 -17 -16 -46 -16 -90 0 -59 17 -110 59 -186 2 -3 -10
-23 -26 -43 -47 -58 -54 -152 -15 -191 41 -41 126 7 140 80 3 19 10 35 15 35
5 0 9 9 9 21 0 12 8 23 19 26 29 7 35 33 12 50 -17 12 -20 25 -20 88 1 86 -13
135 -50 185 -34 46 -40 50 -78 50 -24 0 -37 -7 -49 -25z m126 -121 c34 -102
13 -199 -31 -145 -10 13 -19 29 -19 37 0 8 -4 14 -10 14 -22 0 -38 123 -24
177 l6 23 28 -20 c20 -14 35 -41 50 -86z"/>
<path d="M10255 6180 c-8 -13 24 -191 37 -207 22 -27 53 -14 82 34 27 45 29
46 42 28 8 -11 17 -30 20 -42 7 -28 70 -49 91 -31 20 16 12 53 -11 53 -11 0
-27 16 -40 40 -55 102 -69 107 -105 40 -13 -25 -29 -45 -36 -45 -11 0 -35 81
-35 121 0 20 -34 27 -45 9z"/>
<path d="M7065 6128 c-29 -27 -37 -43 -41 -83 -5 -41 -2 -55 14 -75 30 -37 78
-49 131 -33 46 14 61 26 61 54 0 15 -4 14 -40 -3 -37 -19 -80 -18 -80 2 0 5
11 17 23 27 13 10 36 38 51 62 26 41 27 44 10 62 -28 32 -87 25 -129 -13z"/>
<path d="M2762 6130 c-49 -30 -82 -111 -82 -200 0 -71 0 -71 33 -85 27 -12 35
-12 52 1 48 34 57 29 100 -57 15 -30 34 -62 43 -71 30 -35 88 -13 80 29 -2 12
-11 17 -24 15 -24 -3 -44 23 -64 81 -7 22 -18 51 -26 65 -8 15 -14 50 -14 78
0 27 -6 59 -14 69 -19 27 -46 13 -46 -25 0 -18 -6 -33 -15 -36 -12 -5 -13 -10
-4 -20 16 -20 -7 -74 -32 -74 -16 0 -19 8 -19 48 1 62 31 128 70 150 31 17 37
45 10 49 -8 2 -30 -6 -48 -17z"/>
<path d="M4526 6135 c-9 -9 -19 -28 -22 -43 -27 -118 -31 -127 -51 -125 -34 4
-43 -17 -31 -65 9 -37 14 -42 39 -42 35 0 44 15 64 116 20 100 24 114 35 114
4 0 32 -25 61 -55 29 -30 61 -55 70 -55 32 0 69 23 69 42 0 17 -5 19 -30 13
-28 -6 -36 -1 -83 48 -58 62 -95 78 -121 52z"/>
<path d="M5637 6053 c-16 -15 -5 -43 25 -67 31 -24 32 -26 15 -38 -27 -20 -34
-93 -12 -118 24 -27 39 -25 60 6 20 31 27 26 40 -29 8 -32 15 -42 30 -42 17 0
20 8 23 48 3 48 18 61 41 33 28 -34 140 -43 191 -16 10 6 26 10 35 10 9 0 41
15 71 33 47 28 53 36 54 65 0 43 -18 41 -64 -8 -27 -29 -45 -40 -66 -40 -16 0
-32 -4 -35 -10 -9 -14 -111 -12 -137 3 -31 17 -129 88 -152 109 -11 10 -24 18
-29 18 -5 0 -22 11 -39 25 -31 26 -40 29 -51 18z"/>
<path d="M2449 5957 c-31 -25 -57 -97 -66 -179 -7 -71 1 -104 32 -124 33 -22
74 -6 100 39 l19 32 16 -50 c8 -28 21 -57 28 -65 7 -8 21 -30 30 -49 23 -47
44 -59 76 -41 34 18 33 33 -3 47 -31 11 -48 41 -77 133 -9 30 -21 64 -25 75
-4 11 -10 37 -14 58 -4 27 -11 37 -24 37 -14 0 -20 -11 -25 -46 -7 -55 -41
-114 -64 -114 -25 0 -28 88 -6 137 26 58 43 74 70 67 37 -9 32 31 -6 51 -36
18 -30 19 -61 -8z"/>
<path d="M821 5911 c-12 -16 -21 -40 -21 -54 0 -39 23 -131 35 -142 31 -28 66
-99 64 -128 -5 -50 11 -138 32 -179 11 -21 32 -44 48 -53 27 -13 31 -13 55 6
55 43 59 178 10 338 -27 89 -40 113 -107 194 -48 58 -84 63 -116 18z m110 -56
c38 -47 79 -137 97 -215 6 -25 9 -46 8 -47 -1 -1 -18 5 -38 14 -23 10 -39 26
-43 40 -3 13 -16 28 -30 33 -47 18 -91 151 -66 199 17 31 32 26 72 -24z"/>
<path d="M8336 5915 c-5 -18 -13 -25 -30 -25 -16 0 -27 -8 -34 -27 -22 -56
-23 -73 -8 -102 28 -52 76 -50 97 6 5 13 17 23 28 23 11 0 32 14 48 30 33 36
44 37 69 9 16 -18 27 -20 71 -17 59 5 60 5 65 33 3 18 -2 20 -47 17 -49 -3
-52 -1 -83 37 -37 46 -51 50 -77 21 -10 -11 -24 -20 -30 -20 -7 0 -15 9 -18
20 -8 29 -43 26 -51 -5z"/>
<path d="M9940 5931 c-26 -7 -67 -59 -77 -99 -9 -38 27 -78 68 -74 19 1 39 9
45 17 6 8 32 24 57 35 48 21 76 55 60 71 -9 9 -44 -7 -130 -57 -17 -10 -35
-15 -40 -11 -11 12 11 42 36 45 17 3 21 10 21 37 0 39 -6 44 -40 36z"/>
<path d="M9767 5854 c-4 -4 -7 -29 -7 -55 0 -26 -4 -51 -10 -54 -5 -3 -10 -15
-10 -26 0 -26 -28 -36 -48 -16 -8 9 -18 36 -21 59 -9 63 -35 59 -39 -6 -3 -38
2 -56 23 -87 25 -38 39 -44 80 -33 42 11 89 124 77 183 -7 34 -29 51 -45 35z"/>
<path d="M8080 5820 c-40 -10 -74 -46 -64 -69 3 -9 10 -33 14 -54 10 -48 36
-77 71 -77 33 0 81 38 102 82 14 30 14 35 -1 62 -15 25 -68 68 -82 65 -3 -1
-21 -5 -40 -9z"/>
<path d="M5257 5803 c-21 -5 -47 -64 -47 -107 0 -17 -4 -38 -10 -46 -7 -12
-12 -12 -29 4 -19 18 -41 15 -41 -6 0 -5 19 -50 43 -98 27 -57 48 -89 58 -89
24 -1 26 11 23 141 -2 74 1 120 8 124 13 8 23 -7 44 -75 9 -31 22 -59 28 -63
23 -16 35 -7 41 30 10 55 25 102 35 102 4 0 13 -6 19 -13 6 -8 29 -22 51 -32
40 -18 40 -18 65 5 30 28 35 76 8 65 -37 -15 -60 -16 -74 -3 -51 48 -102 60
-119 28 -14 -27 -25 -25 -58 9 -16 17 -34 26 -45 24z"/>
<path d="M2207 5752 c-15 -16 -14 -23 22 -97 48 -100 74 -181 68 -205 -5 -19
10 -30 43 -30 30 0 33 18 12 63 -11 23 -36 91 -56 151 -47 140 -57 154 -89
118z"/>
<path d="M9456 5713 c-43 -11 -76 -73 -83 -154 -5 -51 -3 -58 17 -69 30 -16
64 -6 80 25 14 26 34 33 45 15 17 -27 84 0 106 42 11 20 10 21 -33 15 -57 -8
-77 11 -70 68 4 29 0 42 -14 52 -10 7 -20 12 -23 12 -3 -1 -15 -4 -25 -6z"/>
<path d="M7801 5658 c-40 -40 -49 -61 -49 -121 0 -52 19 -76 66 -83 25 -4 36
1 63 31 64 70 76 135 33 179 -36 36 -72 34 -113 -6z"/>
<path d="M6114 5645 c-32 -83 130 -352 171 -284 10 15 -3 59 -18 59 -24 1 -93
132 -111 213 -7 29 -33 37 -42 12z"/>
<path d="M663 5642 c-25 -16 -66 -118 -73 -181 -15 -147 43 -226 150 -205 38
8 117 91 102 106 -8 8 -23 0 -52 -25 -67 -61 -136 -43 -147 39 -5 40 -4 42 29
53 25 8 40 22 52 49 24 49 33 137 16 157 -13 16 -57 20 -77 7z"/>
<path d="M6362 5643 c-17 -3 -22 -9 -17 -21 4 -9 9 -22 12 -29 2 -6 -7 -19
-21 -29 -20 -12 -25 -22 -20 -37 9 -30 46 -58 68 -53 25 6 109 -75 104 -100
-2 -11 -16 -25 -31 -32 -31 -15 -36 -51 -11 -77 51 -51 117 -53 158 -4 33 39
25 65 -45 140 -32 35 -59 67 -59 71 0 7 -19 33 -45 62 -6 6 -20 33 -32 61 -23
53 -25 55 -61 48z"/>
<path d="M392 5580 c-29 -33 -59 -60 -65 -60 -7 0 -18 9 -25 20 -14 23 -52 27
-52 6 0 -8 8 -28 18 -45 l17 -31 -52 -51 c-29 -29 -53 -56 -53 -60 0 -5 9 -13
19 -19 21 -11 39 2 87 63 l20 27 21 -28 c11 -15 28 -45 38 -67 10 -22 24 -47
30 -55 7 -8 15 -27 19 -42 8 -37 50 -65 71 -48 13 11 13 15 0 41 -8 15 -21 32
-28 36 -7 4 -34 52 -61 105 l-48 98 25 32 c36 47 64 76 92 94 31 20 32 44 2
44 -15 0 -40 -20 -75 -60z"/>
<path d="M9215 5611 c-3 -6 -19 -11 -35 -11 -23 0 -35 -8 -54 -37 -31 -47 -43
-108 -26 -128 17 -20 59 -19 82 2 10 9 19 14 21 12 2 -3 43 -87 55 -111 2 -5
-6 -8 -17 -8 -28 0 -61 -30 -61 -55 0 -25 31 -54 84 -77 47 -22 85 -23 114 -2
35 24 27 54 -33 122 -78 90 -87 111 -89 211 -1 71 -4 86 -18 89 -9 2 -19 -2
-23 -7z"/>
<path d="M7554 5585 c-8 -13 -23 -53 -34 -90 -22 -77 -26 -83 -42 -67 -16 16
-45 15 -51 -2 -3 -7 3 -28 14 -45 10 -17 19 -40 19 -51 0 -10 5 -22 10 -25 6
-3 10 -15 10 -26 0 -25 36 -26 49 -1 5 10 14 59 20 109 5 50 17 107 25 127
l15 37 31 -16 c29 -15 30 -15 30 8 0 27 -37 65 -63 64 -10 0 -25 -10 -33 -22z"/>
<path d="M3605 5554 c-42 -22 -61 -41 -75 -75 -15 -34 -5 -99 14 -99 8 0 16
-6 19 -14 8 -21 66 -35 112 -27 30 5 43 14 58 39 l20 34 -34 -4 c-38 -3 -40 8
-14 59 20 38 19 89 -1 97 -27 10 -68 6 -99 -10z"/>
<path d="M4755 5408 c-15 -18 -33 -46 -40 -61 -14 -34 -4 -112 17 -134 24 -24
101 -29 140 -9 54 27 123 82 126 99 5 27 -19 20 -82 -23 -40 -27 -70 -40 -92
-40 -42 0 -44 15 -8 72 31 48 45 91 35 107 -4 6 -21 13 -37 17 -26 5 -35 1
-59 -28z"/>
<path d="M3418 5403 c-27 -31 -35 -56 -42 -123 -6 -58 -5 -69 14 -93 27 -35
76 -36 113 -4 47 40 28 85 -19 48 -35 -27 -39 -27 -54 9 -14 33 -8 80 15 124
8 15 15 35 15 42 0 19 -24 17 -42 -3z"/>
<path d="M5953 5352 c-18 -15 -37 -40 -43 -56 -13 -36 -4 -90 21 -112 17 -15
17 -19 3 -46 -19 -37 -70 -61 -96 -44 -24 15 -23 21 12 78 35 57 35 58 13 58
-51 -1 -92 -62 -93 -136 0 -36 33 -64 75 -64 33 0 97 41 125 79 16 23 29 31
52 31 52 0 108 22 129 51 25 36 9 45 -33 19 -35 -21 -78 -27 -78 -10 0 6 5 10
10 10 6 0 10 5 10 11 0 6 9 22 20 36 23 30 26 85 6 102 -8 7 -34 14 -58 17
-36 3 -48 -1 -75 -24z"/>
<path d="M8740 5363 c-27 -7 -70 -84 -70 -123 0 -70 46 -92 116 -54 38 21 44
41 13 46 -19 3 -19 5 10 43 34 44 40 80 15 89 -17 6 -59 6 -84 -1z"/>
<path d="M7040 5291 c-33 -32 -49 -106 -31 -140 13 -24 0 -28 -19 -6 -15 18
-49 20 -54 3 -3 -7 -12 -39 -22 -70 -9 -32 -20 -58 -23 -58 -3 0 -16 27 -29
59 -31 80 -42 88 -77 55 l-28 -26 -21 25 c-27 31 -51 40 -66 22 -8 -10 -4 -23
20 -57 34 -48 33 -67 -6 -93 -13 -8 -24 -23 -24 -32 0 -13 8 -15 44 -10 l44 6
15 -42 c8 -23 18 -54 21 -68 6 -29 38 -43 55 -26 15 15 14 42 -3 56 -21 17
-60 141 -48 153 6 6 20 -8 38 -41 40 -71 80 -79 104 -23 34 81 44 93 65 86 40
-14 85 -8 108 14 13 12 29 22 37 22 7 0 38 14 69 31 49 28 75 46 128 89 7 6
21 10 32 10 14 0 19 5 15 15 -10 24 -35 18 -112 -30 -90 -56 -112 -58 -112
-11 0 46 -29 93 -63 106 -25 8 -33 6 -57 -19z"/>
<path d="M4542 5269 c-10 -15 -12 -39 -7 -83 l7 -61 -21 27 c-14 18 -27 24
-41 21 -27 -7 -25 -18 14 -77 52 -78 81 -101 124 -97 16 1 15 46 -3 98 -8 23
-18 60 -21 82 -6 37 -4 41 20 51 34 13 33 25 -6 44 -41 21 -51 20 -66 -5z"/>
<path d="M1698 5240 c-29 -29 -30 -34 -26 -97 3 -46 9 -69 21 -78 24 -17 21
-25 -10 -25 -17 0 -46 14 -71 35 -36 28 -47 32 -62 23 -17 -11 -50 -93 -50
-124 0 -7 -4 -15 -9 -18 -8 -5 -32 27 -69 94 -37 68 -81 80 -110 30 -19 -33
-33 -37 -52 -15 -9 11 -17 12 -31 4 -24 -13 -24 -34 1 -59 11 -11 20 -27 20
-35 0 -8 -25 -39 -55 -69 -46 -45 -53 -56 -40 -66 12 -10 21 -8 50 10 19 12
35 25 35 29 0 4 8 17 18 29 l19 21 22 -39 c12 -22 20 -44 17 -49 -3 -5 4 -21
16 -36 19 -25 23 -26 34 -11 9 13 8 29 -8 79 -10 34 -23 66 -29 72 -5 5 -9 17
-9 26 0 18 31 79 40 79 3 0 18 -27 35 -61 16 -33 44 -77 61 -97 l32 -37 20 25
c12 14 28 53 38 88 9 34 18 62 20 62 2 0 24 -11 51 -25 52 -28 92 -27 128 5
11 10 45 25 75 35 30 9 60 23 65 29 6 6 25 22 43 35 24 17 30 27 23 34 -8 8
-24 5 -56 -11 -25 -12 -55 -22 -66 -22 -17 0 -18 3 -9 20 20 37 -1 43 -31 9
-38 -42 -59 -34 -59 24 0 33 6 49 25 67 13 12 22 27 19 31 -11 18 -47 8 -76
-21z"/>
<path d="M8347 5213 c-4 -3 -7 -16 -7 -28 0 -30 47 -177 64 -201 14 -19 15
-19 38 3 13 12 29 43 36 68 11 42 32 62 32 31 0 -38 85 -61 110 -31 16 19 2
37 -31 39 -12 0 -27 10 -33 21 -28 50 -49 75 -62 75 -9 0 -26 -25 -41 -57
l-26 -58 -18 40 c-10 22 -19 48 -19 57 0 39 -24 61 -43 41z"/>
<path d="M3105 5110 c-24 -38 -45 -52 -45 -30 0 6 -4 10 -10 10 -15 0 -12 -53
6 -95 38 -93 84 -82 84 19 0 51 12 58 35 22 21 -32 52 -39 86 -19 32 19 41 36
33 58 -7 18 -26 19 -42 3 -9 -9 -21 -3 -51 30 -22 23 -46 42 -55 42 -9 0 -27
-18 -41 -40z"/>
<path d="M5635 5108 c-29 -15 -45 -39 -45 -65 0 -13 -4 -23 -10 -23 -14 0 -12
-48 3 -67 31 -39 66 -73 76 -73 20 0 24 50 6 70 -9 10 -19 36 -22 58 -5 34 -2
41 16 47 24 7 45 40 36 55 -8 13 -35 12 -60 -2z"/>
<path d="M2919 5072 c-40 -20 -55 -48 -64 -119 -8 -67 20 -119 80 -151 38 -20
130 55 110 89 -10 15 -25 10 -58 -17 l-31 -26 -18 22 c-24 30 -23 40 7 40 31
0 45 26 52 94 5 47 3 54 -19 68 -24 16 -28 16 -59 0z"/>
<path d="M5385 4985 c-53 -29 -70 -55 -69 -107 0 -39 6 -54 30 -79 25 -27 34
-30 69 -26 57 6 151 74 131 94 -3 3 -28 -6 -55 -21 -61 -31 -87 -33 -101 -6
-15 29 -9 81 12 94 26 16 30 3 13 -39 -18 -42 -15 -50 17 -41 37 9 62 88 40
123 -13 20 -56 24 -87 8z"/>
<path d="M2760 4943 c-18 -23 -21 -39 -19 -95 2 -56 -1 -71 -16 -81 -16 -13
-16 -16 -1 -45 18 -36 52 -50 71 -31 10 11 10 32 2 93 l-10 80 28 22 c23 18
25 24 16 42 -6 12 -20 26 -31 32 -15 8 -23 5 -40 -17z"/>
<path d="M3961 4951 c-8 -13 -6 -36 5 -77 l15 -59 -31 -25 c-16 -14 -30 -31
-30 -37 0 -16 52 -17 68 -1 9 9 13 7 18 -8 25 -67 87 -104 140 -84 48 19 84
60 84 97 0 18 -3 33 -7 33 -4 0 -24 -18 -44 -40 -44 -48 -69 -50 -103 -9 -33
39 -33 48 4 82 17 17 30 39 30 53 0 29 -9 30 -43 4 -14 -11 -30 -20 -35 -20
-13 0 -22 25 -22 59 0 26 -16 51 -32 51 -4 0 -12 -8 -17 -19z"/>
<path d="M2560 4852 c-41 -41 -64 -104 -58 -159 2 -18 0 -34 -5 -36 -35 -11
84 -87 139 -87 27 0 74 20 74 31 0 4 3 14 6 23 4 11 0 16 -14 16 -12 0 -24 -4
-27 -10 -14 -22 -85 0 -85 27 0 5 10 23 23 41 13 17 32 56 42 86 16 48 17 58
5 81 -20 37 -55 33 -100 -13z"/>
<path d="M673 4815 c3 -31 15 -74 26 -95 21 -41 21 -42 -24 -65 -11 -6 -21
-19 -23 -29 -3 -16 1 -18 30 -14 18 3 40 8 48 12 11 4 23 -8 42 -43 31 -55 52
-76 68 -66 17 10 11 39 -15 75 -30 41 -32 75 -5 92 41 26 14 51 -30 28 -17 -9
-22 -5 -40 31 -12 22 -25 60 -28 82 -6 34 -12 43 -31 45 -23 4 -24 2 -18 -53z"/>
<path d="M6433 4824 c-3 -8 -16 -20 -29 -25 -13 -4 -24 -15 -24 -24 0 -8 -8
-15 -18 -15 -10 0 -41 -11 -68 -25 -27 -14 -56 -25 -64 -25 -15 0 -40 42 -40
66 0 19 -19 27 -35 14 -19 -15 -16 -151 3 -158 8 -2 33 -24 58 -48 48 -49 69
-55 79 -23 5 16 0 28 -19 46 -35 32 -33 44 14 71 50 29 77 28 106 -3 28 -31
76 -33 103 -6 27 27 45 92 37 135 -7 35 -8 36 -52 36 -31 0 -46 -5 -51 -16z"/>
<path d="M7672 4815 c-41 -34 -51 -99 -22 -131 12 -12 36 -25 54 -28 41 -8
132 19 140 41 8 20 -12 35 -33 24 -9 -5 -29 -11 -45 -15 l-28 -7 31 38 c17 21
31 44 31 53 -1 53 -77 68 -128 25z"/>
<path d="M2325 4822 c-50 -12 -68 -82 -49 -191 7 -42 11 -84 8 -94 -7 -22 12
-47 35 -47 9 0 25 -14 35 -30 9 -17 27 -37 39 -45 42 -27 94 8 64 44 -17 21
-47 88 -47 106 0 8 6 18 14 22 8 4 16 19 18 33 3 23 0 25 -34 25 -20 0 -40 3
-44 8 -4 4 -16 7 -26 7 -15 0 -18 8 -18 44 0 45 12 59 54 60 23 1 45 32 31 44
-14 13 -56 20 -80 14z"/>
<path d="M4944 4780 c-58 -23 -89 -104 -80 -207 6 -71 5 -74 -19 -85 -47 -21
-37 -54 16 -50 22 2 29 -5 45 -40 23 -52 61 -98 80 -98 17 0 39 51 26 59 -12
8 -31 68 -34 109 -2 27 4 38 37 65 55 44 75 65 75 77 0 15 -37 12 -54 -5 -8
-8 -19 -15 -25 -15 -6 0 -11 -3 -11 -8 0 -4 -9 -13 -21 -20 -29 -18 -64 6 -73
49 -8 43 32 114 71 124 33 8 65 34 57 46 -7 11 -62 11 -90 -1z"/>
<path d="M7490 4702 c-19 -16 -48 -33 -65 -39 -37 -12 -58 -52 -57 -111 1 -50
23 -82 57 -82 25 0 79 53 94 93 l11 29 31 -27 c25 -21 40 -25 73 -23 38 3 41
5 41 33 0 27 -4 30 -34 33 -37 4 -66 31 -76 72 -7 26 -23 50 -34 50 -4 0 -22
-13 -41 -28z"/>
<path d="M7182 4673 c-30 -12 -41 -57 -32 -138 13 -121 24 -161 56 -194 34
-37 52 -39 63 -9 6 17 2 31 -15 54 -29 38 -31 64 -4 71 11 3 20 9 20 13 0 4
14 21 31 39 35 37 34 55 -3 59 -18 2 -30 -4 -42 -22 -24 -38 -42 -32 -50 15
-7 45 5 69 35 69 21 0 51 28 44 41 -6 9 -81 11 -103 2z"/>
<path d="M3759 4548 c-16 -60 -18 -62 -44 -33 -26 27 -53 33 -61 12 -8 -21 47
-97 75 -104 24 -6 29 -2 65 51 12 20 24 18 58 -6 28 -20 67 1 94 52 24 45 24
45 3 48 -11 2 -29 -4 -38 -12 -26 -23 -50 -20 -61 9 -8 20 -16 25 -44 25 -33
0 -36 -3 -47 -42z"/>
<path d="M441 4531 c-12 -16 -21 -37 -21 -47 0 -20 -16 -73 -36 -121 -12 -29
-11 -35 9 -65 16 -24 31 -34 54 -36 28 -3 36 2 59 37 25 39 27 40 53 27 42
-21 72 -6 115 58 27 40 35 61 28 68 -14 14 -41 3 -49 -19 -19 -56 -67 -70 -83
-25 -16 45 -26 57 -46 57 -16 0 -20 -10 -25 -55 -9 -75 -17 -92 -43 -88 -33 5
-33 64 -1 133 15 31 33 59 41 62 8 3 14 14 14 24 0 31 -45 24 -69 -10z"/>
<path d="M5980 4545 c-7 -9 -15 -39 -17 -68 -7 -87 -45 -132 -59 -69 -10 47
-13 52 -29 52 -24 0 -29 -27 -14 -73 19 -59 50 -91 77 -83 26 9 41 34 57 95
13 52 31 64 41 26 4 -17 11 -24 21 -21 8 3 25 6 39 6 17 0 25 7 30 26 8 31 -7
48 -44 49 -21 0 -31 8 -47 37 -22 41 -35 47 -55 23z"/>
<path d="M2092 4442 c-11 -15 -28 -53 -37 -85 -17 -58 -29 -71 -39 -39 -3 9
-17 30 -30 45 -28 33 -39 30 -81 -20 -20 -25 -35 -33 -60 -33 -19 0 -37 -5
-40 -10 -4 -6 -15 -8 -26 -5 -27 9 -42 -35 -37 -107 5 -68 20 -88 63 -88 27 0
39 7 63 41 17 23 34 60 37 83 7 38 29 76 45 76 4 0 22 -27 39 -60 22 -40 38
-60 51 -60 20 0 30 23 55 135 9 38 19 74 22 79 4 5 20 -19 37 -55 25 -52 36
-65 57 -67 19 -2 31 4 43 23 16 24 16 26 -6 35 -41 17 -56 35 -68 80 -18 68
-54 80 -88 32z"/>
<path d="M3410 4406 c-6 -19 -12 -68 -13 -109 -2 -78 9 -107 43 -107 28 0 68
38 75 70 7 30 36 42 50 20 13 -21 48 -9 81 27 19 20 34 41 34 45 0 12 -48 10
-55 -2 -11 -17 -60 -11 -83 11 -27 24 -38 19 -48 -24 -3 -17 -13 -41 -20 -51
-12 -18 -14 -18 -20 -3 -3 9 -1 45 5 78 12 68 9 79 -19 79 -12 0 -22 -12 -30
-34z"/>
<path d="M6952 4370 c-47 -44 -66 -137 -39 -190 10 -20 20 -25 55 -26 28 -1
47 5 58 17 19 21 11 39 -17 39 -19 0 -18 4 10 56 31 55 36 79 25 108 -9 23
-66 20 -92 -4z"/>
<path d="M3161 4303 c-17 -20 -34 -53 -37 -73 -3 -19 -10 -50 -14 -69 -10 -38
3 -73 39 -106 41 -36 126 -16 175 42 25 30 28 53 6 53 -5 0 -25 -13 -43 -30
-63 -55 -127 -31 -127 47 0 49 27 106 60 128 35 23 34 39 -2 43 -19 2 -33 -6
-57 -35z"/>
<path d="M6588 4243 c-14 -4 -18 -15 -18 -59 0 -30 4 -54 10 -54 15 0 36 -49
49 -110 14 -69 47 -112 85 -112 58 0 104 61 105 143 2 84 -117 124 -142 49 -6
-19 -27 31 -27 66 0 27 -26 85 -38 83 -4 -1 -15 -3 -24 -6z"/>
<path d="M4299 4229 c-7 -4 -22 -10 -31 -13 -10 -3 -27 -20 -38 -38 -31 -48
-23 -123 16 -156 24 -21 35 -24 77 -18 68 8 121 56 62 56 -25 0 -25 1 -11 29
27 50 30 104 9 122 -22 20 -64 28 -84 18z"/>
<path d="M1527 4178 c-69 -86 -55 -249 24 -277 57 -20 79 -14 126 34 24 25 41
50 38 54 -8 14 -41 1 -66 -25 -28 -30 -69 -31 -95 -3 -37 41 -15 179 34 215
14 10 13 13 -6 23 -27 15 -24 16 -55 -21z"/>
<path d="M2648 4191 c-7 -10 -37 -31 -66 -47 -81 -44 -239 -222 -211 -239 17
-11 57 4 64 24 14 45 31 43 57 -6 50 -94 63 -118 74 -128 27 -25 55 -77 52
-97 -2 -13 -21 -34 -45 -51 -45 -30 -48 -34 -34 -56 7 -11 15 -10 46 4 20 10
42 26 48 37 7 10 17 18 23 18 6 0 35 30 64 68 30 37 62 75 72 85 29 29 23 44
-18 39 -31 -4 -39 -10 -53 -43 -9 -21 -27 -44 -40 -51 -27 -15 -38 -4 -74 72
-11 25 -23 47 -27 50 -14 12 -43 65 -56 102 -10 30 -11 45 -3 61 22 40 60 78
132 130 20 16 37 32 37 38 0 16 -28 10 -42 -10z"/>
<path d="M5123 4148 c-38 -49 -41 -132 -8 -212 19 -46 23 -70 19 -112 -4 -45
-1 -60 16 -84 30 -42 78 -42 114 1 14 17 26 34 26 38 0 4 14 15 30 24 34 21
39 46 11 54 -15 4 -21 18 -26 66 -8 65 -58 180 -95 217 -22 22 -72 27 -87 8z
m67 -51 c28 -22 69 -131 71 -185 1 -29 0 -55 -4 -58 -10 -10 -47 16 -47 35 0
10 -10 23 -23 28 -17 8 -26 25 -35 63 -25 108 -10 155 38 117z"/>
<path d="M5350 4103 c-39 -44 -42 -51 -37 -92 4 -34 12 -51 34 -68 36 -30 69
-38 96 -25 12 6 37 14 55 17 17 4 32 10 32 15 0 5 12 11 28 15 40 9 88 53 73
68 -9 9 -16 9 -29 0 -40 -28 -110 -56 -144 -57 -40 -1 -50 13 -22 29 62 36 79
79 48 123 -11 16 -25 22 -53 22 -33 0 -44 -7 -81 -47z"/>
<path d="M4064 4006 c-16 -13 -19 -26 -18 -106 1 -85 3 -93 27 -118 25 -25 28
-25 44 -10 15 15 15 24 3 88 -11 60 -11 73 0 80 7 4 14 20 16 35 2 20 -3 28
-22 35 -31 12 -27 13 -50 -4z"/>
<path d="M1095 3954 c-16 -9 -34 -22 -40 -28 -5 -7 -22 -19 -36 -27 -41 -22
-160 -161 -157 -183 5 -36 26 -27 73 31 26 32 51 59 55 61 4 2 25 -32 46 -75
40 -82 57 -102 87 -103 25 0 21 19 -16 81 -17 30 -41 73 -51 97 -17 37 -18 46
-5 68 7 14 25 32 39 39 34 18 68 55 49 55 -8 -1 -27 -8 -44 -16z"/>
<path d="M3832 3862 c-22 -14 -31 -66 -19 -111 8 -31 19 -44 44 -56 48 -23
103 -4 117 43 6 18 4 22 -14 22 -12 0 -30 -5 -41 -10 -17 -10 -19 -7 -19 35 0
72 -27 103 -68 77z"/>
<path d="M6138 3833 c-37 -40 -45 -86 -19 -112 12 -12 31 -21 44 -21 43 0 48
-13 21 -54 -14 -20 -23 -44 -20 -52 23 -59 102 13 108 98 3 49 -7 58 -63 58
-55 0 -53 -2 -37 52 16 53 0 67 -34 31z"/>
<path d="M690 3823 c0 -11 4 -23 9 -28 10 -11 41 -103 41 -121 0 -6 -16 -19
-35 -28 -19 -9 -37 -21 -41 -27 -7 -13 -84 -69 -94 -69 -6 0 -18 24 -44 86 -1
1 -11 4 -22 8 -31 10 -38 -19 -15 -63 11 -20 31 -61 45 -92 13 -31 31 -63 40
-72 9 -8 22 -33 29 -54 10 -30 17 -38 37 -38 34 0 37 28 6 62 -15 15 -34 48
-43 72 -14 37 -15 44 -2 51 8 5 34 27 58 50 40 38 78 60 100 60 5 0 18 -25 30
-56 18 -49 52 -93 72 -94 4 0 9 10 12 22 6 21 -26 88 -45 96 -4 2 -8 11 -8 20
0 10 -20 64 -43 122 -35 83 -48 106 -65 108 -16 2 -22 -2 -22 -15z"/>
<path d="M4942 3787 c-13 -15 -27 -67 -24 -88 2 -13 -6 -15 -52 -11 -31 2 -63
1 -73 -3 -10 -5 -20 -9 -23 -9 -31 -7 -41 -48 -28 -112 6 -25 8 -48 5 -51 -3
-3 -28 13 -55 36 -26 23 -52 41 -56 41 -5 0 -22 -11 -38 -25 -16 -14 -34 -23
-39 -19 -5 3 -14 26 -20 50 -12 46 -32 65 -50 47 -7 -7 -4 -33 7 -76 13 -54
14 -70 4 -82 -16 -19 -5 -49 15 -41 11 4 20 -4 28 -22 16 -37 54 -72 78 -72
33 0 33 28 0 65 -37 43 -39 64 -8 93 18 17 26 19 35 10 7 -7 12 -17 12 -24 0
-13 114 -84 136 -84 8 0 15 8 16 18 5 61 5 78 -3 88 -13 16 -16 108 -4 109 31
3 75 18 75 26 0 23 38 6 51 -23 8 -17 26 -41 41 -52 24 -17 31 -18 52 -7 33
18 70 100 62 138 -11 50 -57 93 -98 93 -20 0 -40 -6 -46 -13z"/>
<path d="M3670 3775 c0 -8 9 -15 19 -15 25 0 61 -62 61 -105 0 -48 -14 -78
-44 -94 -25 -14 -28 -13 -59 17 -50 48 -61 43 -53 -25 6 -59 -6 -102 -31 -110
-7 -3 -23 14 -38 36 -16 26 -33 41 -45 41 -26 0 -25 -19 1 -70 27 -51 63 -80
90 -73 24 7 55 53 65 96 5 24 10 27 34 23 16 -2 34 -7 39 -11 6 -3 11 -2 11 3
0 4 16 27 36 50 31 37 36 51 39 100 3 61 -15 119 -42 140 -24 18 -83 16 -83
-3z"/>
<path d="M5945 3630 c-3 -5 -19 -10 -35 -10 -36 0 -38 -4 -45 -77 -5 -54 -3
-63 19 -86 32 -34 38 -34 74 3 17 17 41 30 54 30 40 0 124 89 98 105 -11 7
-41 -8 -60 -29 -20 -25 -37 -19 -44 16 -10 49 -44 76 -61 48z"/>
<path d="M5756 3494 c-9 -24 -7 -34 7 -34 27 0 37 -35 24 -87 -16 -64 -42 -69
-91 -16 -44 48 -55 39 -66 -54 -6 -61 -23 -113 -35 -113 -11 0 -35 62 -41 108
-7 57 -28 70 -44 27 -12 -32 -2 -111 16 -126 8 -6 14 -17 14 -24 0 -18 34 -45
56 -45 23 0 74 79 74 115 0 28 17 42 33 26 41 -41 113 19 147 123 13 41 3 76
-30 103 -21 17 -57 16 -64 -3z"/>
<path d="M4353 3417 c-18 -12 -38 -37 -44 -56 -11 -31 -10 -36 11 -53 15 -12
39 -18 71 -18 33 0 49 -4 49 -12 0 -26 -39 -77 -62 -80 -26 -3 -37 -36 -16
-49 18 -12 58 -11 58 0 0 5 8 12 18 15 16 5 22 17 52 94 20 51 2 82 -47 82
-60 0 -70 12 -44 53 11 19 21 37 21 41 0 13 -36 3 -67 -17z"/>
<path d="M1761 3369 c-74 -70 -88 -127 -44 -179 23 -28 31 -32 64 -27 34 4 93
38 111 62 4 6 8 18 8 27 0 20 -21 15 -59 -14 -26 -20 -61 -24 -61 -8 0 14 20
49 48 83 37 48 25 86 -29 87 -3 0 -20 -14 -38 -31z"/>
<path d="M1494 3355 c-3 -8 7 -36 23 -62 16 -27 32 -55 36 -63 4 -8 19 -37 35
-65 23 -43 32 -50 57 -50 24 0 29 4 27 19 -2 10 -10 26 -18 34 -8 8 -26 35
-39 61 -52 96 -84 141 -101 141 -8 0 -17 -7 -20 -15z"/>
<path d="M3083 3329 c-58 -16 -86 -89 -63 -160 11 -32 20 -41 51 -50 31 -10
42 -9 70 6 19 10 50 26 71 36 40 20 81 66 72 80 -3 5 -31 -8 -62 -30 -68 -47
-91 -55 -124 -42 -24 9 -46 51 -27 51 5 0 9 -5 9 -11 0 -6 10 -9 22 -7 14 2
27 17 39 44 17 40 17 42 -5 66 -18 22 -25 25 -53 17z"/>
<path d="M1420 3200 c-29 -27 -59 -50 -66 -50 -7 0 -27 20 -44 45 -35 50 -57
57 -66 20 -5 -19 1 -33 25 -61 34 -39 36 -57 5 -63 -10 -2 -40 -21 -65 -42
-55 -46 -74 -48 -93 -11 -8 15 -23 36 -35 46 -17 15 -23 16 -36 6 -21 -18 -20
-24 21 -81 l36 -52 -28 -23 c-16 -13 -35 -23 -41 -24 -7 0 -13 -11 -13 -25 0
-32 34 -34 66 -4 32 30 51 19 80 -47 18 -40 29 -55 42 -52 29 5 26 45 -7 95
-31 46 -40 83 -21 83 6 0 10 7 10 15 0 8 11 17 24 21 14 3 27 12 30 20 3 8 16
14 29 14 14 0 30 7 37 15 19 23 45 2 75 -60 22 -44 32 -55 51 -55 20 0 24 5
24 30 0 17 -4 30 -10 30 -14 0 -60 71 -60 93 0 10 25 43 55 74 52 54 70 93 42
93 -8 0 -38 -22 -67 -50z"/>
<path d="M2873 3213 c-20 -7 -15 -23 17 -60 35 -39 40 -94 14 -148 -21 -45
-36 -48 -85 -20 -57 32 -69 25 -69 -41 0 -52 -15 -104 -31 -104 -14 0 -31 40
-38 88 -3 25 -11 47 -17 49 -18 6 -34 -52 -24 -84 17 -57 40 -101 55 -107 41
-15 56 -6 80 49 14 30 22 60 20 67 -3 7 -1 19 4 27 8 12 12 12 26 -2 38 -38
93 -9 130 70 25 51 16 145 -17 180 -28 30 -49 42 -65 36z"/>
<path d="M5085 2979 c-35 -10 -69 -51 -79 -95 -9 -39 15 -106 43 -120 29 -15
94 -1 132 29 36 29 36 40 -1 35 -35 -5 -37 5 -10 49 23 39 16 71 -24 96 -14 9
-27 17 -28 16 -2 0 -17 -5 -33 -10z"/>
<path d="M3778 2850 c-16 -38 -25 -49 -40 -47 -11 1 -25 -5 -31 -14 -8 -13 -3
-25 23 -58 51 -63 73 -53 83 38 8 69 23 79 56 36 31 -41 64 -57 97 -49 30 8
32 40 3 49 -12 4 -41 27 -66 51 -32 33 -51 44 -74 44 -27 0 -32 -6 -51 -50z"/>
<path d="M4740 2874 c0 -8 -5 -12 -10 -9 -15 9 -4 -33 31 -125 16 -41 29 -83
29 -92 0 -35 42 -108 62 -108 14 0 48 63 48 88 0 13 5 32 11 43 10 19 11 19
40 -6 38 -32 82 -33 103 -3 9 12 16 28 16 35 0 15 -36 18 -45 3 -7 -12 -55 9
-55 24 0 15 -57 39 -75 32 -8 -3 -17 -22 -20 -43 -4 -21 -10 -47 -14 -58 -7
-18 -10 -15 -26 20 -9 22 -21 54 -26 70 -38 134 -42 145 -60 145 -5 0 -9 -7
-9 -16z"/>
<path d="M872 2808 c-24 -31 -54 -110 -55 -151 -4 -99 58 -130 120 -60 18 20
33 40 33 44 0 4 11 10 24 13 35 9 48 61 16 61 -5 0 -15 9 -23 19 -16 22 -47
16 -47 -10 0 -27 -42 -104 -57 -104 -12 0 -17 22 -14 65 1 11 13 42 26 69 13
28 22 53 19 58 -8 12 -30 10 -42 -4z"/>
<path d="M423 2743 c-16 -27 -42 -79 -58 -118 -16 -38 -32 -75 -37 -81 -18
-24 36 -54 121 -66 87 -12 111 -29 76 -54 -22 -16 -59 -9 -97 19 -31 23 -48
16 -48 -19 0 -20 9 -29 43 -44 55 -25 92 -25 133 1 31 19 34 25 34 67 0 42 -3
48 -27 59 -16 6 -53 14 -83 18 -84 10 -90 13 -90 45 0 16 4 31 9 35 5 3 15 22
21 43 7 20 17 42 24 47 23 21 53 70 49 83 -10 27 -42 11 -70 -35z"/>
<path d="M658 2722 c-9 -4 -27 -20 -40 -37 -20 -25 -23 -41 -23 -107 1 -67 4
-81 24 -102 13 -14 39 -30 58 -37 28 -9 37 -8 52 5 10 9 22 16 28 16 15 0 73
68 73 85 0 24 -19 18 -63 -20 -52 -45 -90 -47 -112 -5 -26 50 -13 136 23 148
15 5 16 -30 2 -44 -15 -15 -1 -44 21 -44 30 0 51 42 43 85 -10 57 -39 76 -86
57z"/>
<path d="M3541 2658 c-59 -73 -58 -69 -51 -115 15 -94 104 -92 176 2 37 49 30
78 -23 89 -24 6 -43 16 -43 23 0 17 -46 17 -59 1z"/>
<path d="M1896 2635 c-9 -9 -16 -33 -16 -54 0 -21 -6 -54 -13 -72 -22 -57 -14
-91 37 -157 31 -41 51 -59 61 -56 21 8 19 53 -5 99 -26 50 -25 53 6 86 31 33
43 113 22 140 -21 25 -72 33 -92 14z"/>
<path d="M3342 2590 c-16 -21 -22 -43 -22 -81 0 -56 16 -78 56 -79 29 0 35 -9
22 -33 -11 -21 -14 -75 -4 -84 3 -3 20 9 37 28 34 36 62 101 53 123 -7 17 -58
28 -91 20 -25 -7 -25 -6 -20 37 3 24 8 56 12 72 10 37 -14 36 -43 -3z"/>
<path d="M3140 2540 c0 -104 90 -290 129 -265 19 11 12 51 -13 76 -13 13 -30
44 -37 69 -7 25 -16 50 -19 55 -4 6 -10 27 -14 48 -5 28 -12 37 -26 37 -13 0
-20 -7 -20 -20z"/>
<path d="M1352 2467 c-8 -9 -6 -26 5 -61 l16 -48 -29 -24 c-23 -21 -26 -27
-14 -34 16 -10 28 -13 47 -11 14 2 43 -38 43 -59 0 -9 13 -29 28 -44 25 -23
31 -25 41 -12 14 17 8 44 -20 90 -24 39 -24 39 7 76 32 37 26 46 -17 31 -36
-12 -45 -6 -55 39 -14 65 -31 83 -52 57z"/>
<path d="M1613 2453 c-9 -23 13 -120 31 -138 8 -9 28 -18 44 -21 24 -5 33 -1
51 24 28 39 28 101 1 130 -27 28 -117 32 -127 5z"/>
<path d="M4379 2424 c-19 -23 -20 -74 -3 -101 20 -32 18 -49 -11 -77 -41 -41
-64 -50 -91 -35 -13 7 -26 20 -30 31 -3 10 -15 23 -26 29 -27 14 -49 -7 -54
-52 -7 -59 -22 -57 -50 7 -33 76 -41 95 -48 117 -6 19 -31 23 -41 7 -10 -16
24 -120 62 -187 44 -80 69 -84 101 -18 23 47 35 55 50 30 5 -10 24 -17 48 -17
41 -2 73 20 108 74 15 22 23 26 50 21 27 -4 38 0 60 23 39 42 44 86 15 129
-22 32 -28 35 -75 35 -36 0 -56 -5 -65 -16z"/>
<path d="M2949 2331 c-32 -26 -39 -143 -10 -188 17 -26 27 -33 53 -33 42 0
129 64 139 103 10 38 -6 35 -63 -14 -62 -52 -92 -51 -96 5 -3 38 16 75 25 49
8 -21 33 -15 33 8 0 25 -29 76 -46 83 -7 3 -23 -3 -35 -13z"/>
<path d="M2772 2270 c1 -20 10 -38 25 -49 12 -11 23 -24 23 -30 0 -6 5 -11 10
-11 31 0 -6 -151 -47 -192 -21 -20 -21 -20 -47 -2 -31 23 -56 73 -68 134 -9
48 -32 81 -46 65 -5 -6 -14 -59 -21 -120 -7 -60 -17 -114 -22 -120 -5 -5 -9
-16 -9 -25 0 -9 -9 -33 -20 -55 -22 -43 -25 -61 -10 -70 32 -19 80 63 86 148
1 26 6 52 9 57 9 15 25 12 25 -5 0 -25 81 -77 110 -70 34 8 77 57 89 102 41
150 11 273 -66 273 -18 0 -22 -5 -21 -30z"/>
<path d="M3898 2199 c-22 -12 -24 -48 -3 -55 8 -4 26 -7 40 -8 39 -2 60 -50
46 -103 -19 -71 -60 -93 -96 -53 -10 11 -22 20 -26 20 -8 0 -40 -53 -39 -65 1
-39 -12 -32 -32 15 -18 44 -41 51 -59 19 -9 -18 -7 -30 11 -68 13 -25 30 -52
38 -58 37 -30 102 -3 102 42 0 14 6 16 29 12 39 -8 68 15 97 77 29 62 32 144
7 183 -9 14 -32 32 -50 39 -38 16 -42 17 -65 3z"/>
<path d="M861 2083 c-44 -45 -65 -102 -56 -149 3 -19 3 -39 0 -44 -6 -9 -66
26 -73 43 -2 4 -17 7 -32 7 -32 0 -50 -23 -50 -64 0 -42 -15 -30 -40 31 -21
51 -43 83 -89 130 -21 21 -36 10 -36 -28 0 -37 -40 -102 -59 -96 -6 2 -12 12
-14 23 -2 11 -13 33 -25 48 -18 22 -28 27 -45 22 -22 -7 -30 -40 -12 -51 9 -6
31 -50 44 -87 3 -11 -6 -30 -24 -50 -22 -24 -27 -35 -18 -45 15 -18 45 -16 52
4 10 24 21 7 41 -62 29 -98 38 -115 62 -115 28 0 50 35 29 47 -8 4 -28 50 -45
100 l-30 93 32 49 c18 28 35 50 39 50 10 1 55 -69 88 -134 22 -43 29 -50 55
-50 28 0 30 3 36 43 8 59 23 72 52 44 29 -28 61 -28 78 -1 13 18 17 19 41 9
16 -8 37 -10 55 -5 15 5 34 9 41 11 42 8 21 34 -27 34 -40 0 -71 23 -71 53 0
12 7 15 33 10 39 -6 75 24 95 81 12 32 11 40 -2 61 -26 40 -78 34 -125 -12z"/>
<path d="M1936 1997 c-20 -30 -28 -95 -14 -121 6 -12 24 -38 41 -59 25 -33 28
-42 21 -75 -22 -103 31 -164 110 -127 34 16 46 36 72 111 13 40 13 46 -16 121
-21 55 -44 93 -75 126 -38 41 -49 47 -84 47 -31 0 -44 -5 -55 -23z m91 -39
c55 -57 67 -74 79 -113 7 -24 10 -46 7 -49 -14 -14 -44 -4 -59 18 -8 14 -25
26 -37 28 -31 4 -56 76 -39 112 14 32 21 32 49 4z"/>
<path d="M1762 1770 c-11 -12 -28 -38 -38 -58 -11 -20 -22 -38 -26 -40 -5 -2
-8 -21 -8 -42 0 -47 37 -96 80 -105 39 -9 169 51 170 78 0 24 -34 22 -69 -4
-35 -26 -89 -30 -104 -8 -8 13 -5 23 14 46 30 36 63 118 55 138 -8 22 -52 18
-74 -5z"/>
<path d="M3224 1776 c-15 -12 -17 -18 -8 -33 6 -10 21 -19 32 -21 29 -4 62
-48 62 -82 0 -15 -10 -36 -23 -48 -23 -22 -47 -29 -47 -14 0 4 -7 15 -14 25
-20 26 -58 6 -51 -26 6 -27 -36 -112 -56 -112 -8 0 -15 12 -17 28 -4 37 -39
38 -48 1 -19 -73 51 -114 102 -59 13 14 24 32 24 39 0 16 22 27 64 33 86 13
141 117 104 200 -15 33 -57 69 -75 65 -7 -2 -13 2 -13 8 0 14 -13 13 -36 -4z"/>
<path d="M1540 1746 c-20 -6 -53 -21 -75 -34 -69 -40 -76 -43 -95 -37 -13 4
-22 -1 -31 -17 -6 -13 -21 -30 -32 -39 -32 -26 -16 -53 29 -46 l35 6 34 -74
c30 -65 64 -105 87 -105 17 0 6 45 -26 103 -41 76 -49 109 -33 129 14 17 108
75 143 89 13 4 24 15 24 24 0 17 -11 18 -60 1z"/>
<path d="M2882 1484 c-46 -32 -62 -92 -41 -153 8 -22 17 -31 34 -31 37 0 85
12 85 21 0 4 11 19 25 33 50 50 19 146 -49 146 -17 0 -42 -7 -54 -16z"/>
<path d="M834 1379 c-28 -17 -34 -18 -47 -5 -22 23 -53 14 -49 -15 2 -13 9
-30 14 -36 10 -12 4 -17 -15 -14 -4 1 -10 -6 -14 -15 -3 -8 -16 -19 -28 -24
-16 -6 -25 -20 -30 -46 -9 -51 -42 -114 -60 -114 -17 0 -45 38 -45 62 0 21
-23 24 -37 6 -5 -7 -8 -30 -7 -51 4 -110 149 -74 184 46 9 30 23 50 45 64 l32
21 26 -30 c15 -16 32 -28 39 -25 14 5 12 56 -3 72 -15 15 -11 29 21 63 51 56
36 79 -26 41z"/>
<path d="M2350 1339 c-7 -11 -13 -37 -15 -57 -1 -21 -10 -50 -18 -66 l-16 -29
-12 26 c-13 30 -36 35 -46 12 -3 -9 4 -41 15 -73 11 -31 26 -76 32 -100 9 -36
15 -43 33 -40 17 2 24 13 31 43 14 68 14 67 35 55 33 -17 89 -12 101 9 22 42
14 48 -55 45 l-65 -4 0 36 c0 19 10 57 21 84 12 27 19 56 15 65 -8 22 -43 18
-56 -6z"/>
<path d="M2637 1326 c-9 -9 -21 -32 -28 -51 -15 -42 -23 -43 -45 -10 -40 62
-56 -2 -18 -73 30 -56 50 -70 71 -49 15 15 16 16 28 85 8 46 13 49 53 28 33
-17 62 -13 79 11 19 25 12 35 -26 38 -19 2 -36 7 -40 13 -12 20 -57 24 -74 8z"/>
<path d="M245 1240 c-8 -16 -15 -35 -15 -42 0 -7 -7 -26 -15 -42 -14 -26 -13
-36 6 -110 42 -168 44 -171 67 -174 21 -3 29 12 22 43 -22 101 -34 195 -31
254 1 29 13 21 15 -10 2 -31 34 -50 47 -26 22 37 55 9 50 -43 -2 -14 -7 -29
-12 -35 -5 -5 -9 -19 -9 -32 0 -19 5 -23 30 -23 25 0 32 6 50 46 24 56 25 76
5 119 -16 33 -50 55 -86 55 -11 0 -24 11 -31 25 -9 19 -19 25 -44 25 -27 0
-37 -6 -49 -30z"/>
<path d="M1694 1003 c-19 -20 -34 -40 -34 -44 0 -22 40 -50 83 -58 26 -5 51
-11 54 -15 4 -3 -4 -17 -17 -31 -29 -30 -20 -55 19 -55 22 0 34 8 50 33 36 59
1 116 -71 117 -31 0 -47 32 -28 55 12 15 6 35 -12 35 -6 0 -26 -17 -44 -37z"/>
<path d="M1516 944 c-6 -15 6 -39 26 -54 30 -24 -13 -183 -54 -196 -33 -10
-58 26 -58 83 0 90 -37 83 -46 -8 -5 -49 -3 -58 27 -97 29 -39 35 -43 62 -38
41 8 52 19 83 81 36 75 54 166 40 210 -9 30 -15 35 -42 35 -20 0 -34 -6 -38
-16z"/>
<path d="M886 593 c-22 -12 -30 -12 -36 -3 -15 25 -45 6 -48 -30 -2 -19 -13
-45 -24 -57 -25 -27 -15 -47 22 -40 22 5 31 0 49 -24 14 -18 31 -29 47 -29 36
0 41 27 10 59 -34 35 -33 51 4 76 32 21 44 41 34 56 -7 12 -23 10 -58 -8z"/>
<path d="M553 456 c-14 -16 -35 -88 -39 -135 -4 -50 28 -81 83 -81 35 0 48 6
78 35 34 34 47 75 24 75 -6 0 -29 -14 -50 -31 -31 -24 -40 -28 -45 -16 -3 8 4
30 15 48 23 38 27 89 9 107 -16 16 -60 15 -75 -2z"/>
<path d="M346 422 c-4 -10 5 -54 20 -98 14 -43 27 -93 28 -110 4 -43 47 -88
75 -79 25 8 29 46 6 65 -8 7 -15 19 -15 26 0 8 -4 14 -9 14 -5 0 -24 45 -41
100 -32 97 -52 122 -64 82z"/>
</g>
</svg>
