<?xml version="1.0" standalone="no"?>
<!DOCTYPE svg PUBLIC "-//W3C//DTD SVG 20010904//EN"
 "http://www.w3.org/TR/2001/REC-SVG-20010904/DTD/svg10.dtd">
<svg version="1.0" xmlns="http://www.w3.org/2000/svg"
 width="2615.000000pt" height="3376.000000pt" viewBox="0 0 2615.000000 3376.000000"
 preserveAspectRatio="xMidYMid meet">

<g transform="translate(0.000000,3376.000000) scale(0.100000,-0.100000)"
fill="#000000" stroke="none">
<path d="M24488 32806 c-21 -15 -38 -58 -38 -92 0 -45 25 -20 31 30 3 26 11
51 19 56 8 5 12 11 10 14 -3 2 -13 -1 -22 -8z"/>
<path d="M24277 32693 c-26 -25 32 -66 85 -61 46 4 43 20 -7 46 -46 23 -67 27
-78 15z"/>
<path d="M24425 32657 c-30 -23 -2 -97 31 -82 11 4 29 7 42 6 18 -2 22 3 22
23 0 15 -6 26 -13 26 -8 0 -22 9 -32 20 -21 24 -25 24 -50 7z"/>
<path d="M24432 32513 c2 -14 9 -28 16 -31 18 -6 15 45 -4 52 -12 5 -15 0 -12
-21z"/>
<path d="M24124 32473 c0 -11 8 -27 18 -36 9 -9 18 -22 20 -28 2 -6 20 -9 42
-7 l38 3 -34 37 c-39 44 -86 61 -84 31z"/>
<path d="M24267 32454 c-14 -14 -6 -22 30 -27 20 -4 42 -2 49 4 16 14 37 2 30
-17 -7 -17 6 -18 22 -2 9 9 12 9 12 0 0 -19 37 -14 45 6 7 16 8 15 16 -3 8
-18 8 -18 6 4 -3 31 -34 52 -46 32 -8 -13 -47 -12 -131 5 -14 2 -29 2 -33 -2z"/>
<path d="M24210 32376 c0 -9 -3 -16 -7 -17 -110 -9 -124 -9 -145 5 -35 22 -68
5 -68 -34 0 -25 4 -30 18 -27 50 14 95 17 135 7 63 -14 138 16 110 44 -5 4 -8
13 -8 19 0 7 -8 13 -17 15 -11 2 -18 -3 -18 -12z m-45 -46 c3 -5 1 -10 -4 -10
-6 0 -11 5 -11 10 0 6 2 10 4 10 3 0 8 -4 11 -10z"/>
<path d="M23931 32216 c-9 -10 -9 -20 -3 -33 15 -27 59 -66 69 -60 4 3 8 -8 8
-24 0 -22 -8 -34 -32 -49 -18 -11 -33 -24 -33 -30 0 -15 51 -25 60 -10 4 6 18
10 30 8 13 -2 25 3 28 11 3 10 0 12 -12 8 -12 -5 -16 -3 -13 5 2 7 10 12 16
11 13 -4 15 14 1 19 -16 5 -23 77 -9 94 10 12 8 17 -7 29 -10 8 -25 12 -32 10
-7 -3 -11 -1 -8 4 3 5 -4 11 -17 15 -31 8 -33 8 -46 -8z"/>
<path d="M25030 32135 c0 -14 5 -24 12 -22 7 1 12 -5 13 -13 1 -31 39 -100 54
-97 11 1 18 -11 25 -40 6 -28 14 -43 24 -43 13 0 13 3 4 12 -13 13 -16 48 -4
48 4 0 13 -5 19 -11 13 -13 33 -4 33 16 0 8 -15 17 -34 21 -33 6 -35 9 -38 48
-2 34 -7 42 -25 44 -13 2 -23 9 -23 17 0 11 -41 45 -55 45 -3 0 -5 -11 -5 -25z"/>
<path d="M25023 31935 c-14 -10 -19 -22 -16 -35 7 -25 8 -25 33 0 34 34 20 61
-17 35z"/>
<path d="M23720 31904 c-19 -48 -4 -78 25 -54 18 15 20 34 3 24 -8 -5 -9 2 -5
24 8 39 -9 43 -23 6z"/>
<path d="M23782 31922 c-9 -3 -7 -11 7 -31 29 -41 31 -66 4 -65 -13 0 -23 -5
-23 -13 0 -8 -4 -11 -10 -8 -6 3 -7 -1 -4 -9 7 -19 30 -21 37 -3 4 8 8 9 14 1
17 -22 43 -23 63 -2 26 29 25 54 -5 93 -23 31 -57 46 -83 37z"/>
<path d="M24885 31896 c-15 -11 -12 -46 4 -46 4 0 29 -20 56 -45 28 -25 56
-45 63 -45 13 0 61 48 62 62 0 4 -7 13 -15 21 -13 13 -13 16 1 21 8 3 24 1 34
-4 24 -13 30 -13 30 1 0 5 -16 17 -35 25 -43 18 -45 17 -45 -1 0 -8 -4 -15
-10 -15 -5 0 -10 -9 -10 -19 0 -44 -39 -36 -66 14 -20 38 -45 49 -69 31z"/>
<path d="M25160 31886 c0 -9 7 -16 16 -16 9 0 14 5 12 12 -6 18 -28 21 -28 4z"/>
<path d="M24812 31791 c-11 -6 -10 -11 3 -25 14 -14 15 -19 4 -32 -12 -14 -14
-14 -20 3 -7 16 -8 15 -8 -4 -1 -19 -7 -23 -34 -23 -36 0 -77 -28 -77 -52 0
-23 9 -27 38 -16 30 11 88 -5 77 -21 -9 -16 16 -25 27 -10 7 11 11 11 15 2 5
-14 29 -17 36 -5 2 4 2 2 1 -5 -4 -16 27 -26 40 -13 7 7 5 10 -8 10 -9 0 -14
5 -11 10 4 6 11 8 16 5 14 -9 11 19 -6 51 -8 16 -15 25 -15 20 0 -22 -29 31
-30 54 -1 22 -20 60 -31 60 -2 0 -10 -4 -17 -9z"/>
<path d="M25045 31760 c3 -5 10 -10 16 -10 5 0 9 5 9 10 0 6 -7 10 -16 10 -8
0 -12 -4 -9 -10z"/>
<path d="M23561 31639 c-25 -24 -27 -60 -5 -94 14 -22 15 -25 1 -25 -8 0 -17
-5 -19 -11 -2 -6 -14 -12 -27 -13 -21 -1 -31 -14 -63 -78 -11 -24 -10 -75 2
-83 6 -3 10 -22 10 -41 0 -27 4 -34 19 -34 10 0 22 -8 25 -17 4 -11 10 -13 17
-6 6 6 5 21 -5 44 -19 46 -25 174 -8 191 9 9 12 9 12 0 0 -7 13 -12 28 -12 15
0 33 -5 40 -12 9 -9 15 -8 26 8 8 10 10 21 5 22 -5 2 -9 12 -9 23 0 10 -6 17
-12 15 -7 -1 -10 -1 -5 1 4 3 7 22 7 44 0 21 4 39 9 39 16 0 8 41 -10 50 -11
7 -23 3 -38 -11z"/>
<path d="M23630 31615 c0 -8 7 -15 15 -15 8 0 15 7 15 15 0 8 -7 15 -15 15 -8
0 -15 -7 -15 -15z"/>
<path d="M24596 31595 c6 -3 9 -17 6 -30 -4 -23 -3 -23 32 -13 41 13 46 24 14
33 -35 10 -64 15 -52 10z"/>
<path d="M24640 31539 c0 -5 -8 -9 -17 -10 -11 0 -13 -3 -5 -6 6 -2 12 -8 12
-13 0 -5 5 -21 12 -37 17 -44 18 -54 2 -85 -13 -25 -13 -29 0 -34 8 -3 25 4
37 15 13 12 27 21 32 21 14 0 0 77 -19 105 -12 18 -12 24 -2 27 7 3 -2 10 -20
16 -19 6 -32 7 -32 1z"/>
<path d="M24430 31329 c-8 -14 -8 -24 -1 -33 6 -7 8 -16 4 -19 -3 -4 1 -7 10
-7 10 0 17 5 17 10 0 6 5 10 10 10 14 0 12 -38 -2 -42 -9 -3 -6 -22 11 -66 12
-34 21 -75 20 -90 -1 -15 -1 -46 -1 -70 2 -39 4 -43 25 -40 20 3 22 9 25 71 2
46 6 65 14 61 7 -5 9 0 6 14 -4 15 -2 19 8 15 22 -8 17 4 -26 58 -22 28 -40
56 -40 63 0 20 -34 53 -49 48 -9 -3 -11 1 -6 17 8 27 -11 28 -25 0z"/>
<path d="M25427 31249 c-9 -6 -17 -18 -17 -28 0 -13 13 -19 61 -27 33 -6 62
-7 65 -2 3 4 11 8 17 8 7 0 6 -4 -3 -10 -9 -6 -10 -10 -3 -10 19 0 26 21 12
35 -8 7 -31 15 -52 18 -20 3 -43 9 -50 15 -8 7 -18 7 -30 1z"/>
<path d="M23544 31235 c-3 -8 -3 -22 0 -31 6 -15 12 -15 84 -4 1 0 2 7 2 15 0
8 -9 15 -21 15 -11 0 -29 5 -40 10 -15 9 -21 7 -25 -5z"/>
<path d="M23275 31149 c-4 -11 -4 -23 0 -27 13 -13 128 -50 141 -45 26 10 14
33 -23 49 -21 9 -51 22 -66 30 -38 19 -44 18 -52 -7z"/>
<path d="M25356 31155 c-11 -29 -7 -35 22 -35 15 0 33 -5 39 -11 8 -8 17 -6
34 10 l22 20 -24 9 c-56 21 -86 24 -93 7z"/>
<path d="M24381 31136 c-9 -11 -9 -15 1 -20 7 -3 3 -3 -9 0 -32 8 -55 -40 -38
-80 l12 -29 17 24 c9 13 16 31 16 40 0 9 9 24 19 33 11 10 17 24 14 32 -7 18
-17 18 -32 0z"/>
<path d="M25467 31113 c-14 -13 -6 -33 13 -33 11 0 20 4 20 9 0 13 -26 32 -33
24z"/>
<path d="M25022 31048 c-9 -11 -8 -20 5 -39 24 -34 55 -58 76 -59 23 0 22 7
-7 38 -14 15 -33 38 -43 51 -16 19 -21 21 -31 9z"/>
<path d="M25257 31053 c-4 -3 -7 -21 -7 -39 0 -18 -5 -36 -10 -39 -6 -4 -8
-10 -5 -14 8 -15 -45 -32 -65 -21 -30 16 -48 12 -25 -6 11 -8 19 -20 18 -25
-2 -5 5 -14 15 -20 15 -9 17 -19 12 -53 -3 -22 -12 -51 -18 -63 -15 -27 -16
-53 -2 -53 6 0 13 14 17 30 3 17 14 35 25 41 11 6 17 13 14 16 -2 3 4 22 15
41 10 20 19 49 19 64 0 15 4 29 10 33 5 3 7 12 3 20 -3 9 -1 21 5 28 6 6 8 24
5 40 -5 27 -13 33 -26 20z"/>
<path d="M23483 31033 c-7 -2 -13 -11 -13 -19 0 -10 12 -14 38 -14 45 0 56 8
41 27 -11 13 -42 16 -66 6z"/>
<path d="M23213 30963 c-27 -10 -7 -92 28 -123 10 -8 21 -27 24 -42 6 -24 3
-29 -21 -38 -16 -6 -39 -8 -52 -5 -28 7 -51 -17 -52 -52 0 -32 21 -28 45 7 22
33 32 36 69 19 22 -10 28 -9 45 12 22 27 19 41 -7 33 -14 -5 -14 -4 -3 4 12 9
13 17 2 51 -7 24 -9 57 -5 78 5 28 4 34 -6 28 -10 -6 -12 -4 -7 8 8 22 -27 34
-60 20z"/>
<path d="M24861 30876 c-9 -10 -9 -20 0 -40 10 -20 17 -24 36 -20 14 4 23 2
23 -5 0 -6 -9 -11 -20 -11 -24 0 -26 -9 -4 -25 23 -16 10 -52 -21 -57 -14 -3
-30 1 -36 8 -6 8 -21 14 -32 14 -11 0 -28 7 -38 16 -16 15 -20 15 -34 1 -8 -9
-15 -20 -15 -26 0 -16 -42 -51 -62 -51 -10 0 -18 -4 -18 -9 0 -5 -16 -32 -35
-61 -35 -52 -46 -95 -22 -88 6 2 23 25 36 51 13 26 31 47 39 47 9 0 23 6 31
14 9 8 36 17 61 21 42 6 47 5 59 -19 8 -15 12 -39 8 -60 -4 -24 -1 -39 9 -47
22 -18 27 -6 30 68 3 69 10 80 59 93 11 3 21 15 23 27 2 12 9 27 17 33 16 13
65 3 72 -16 3 -8 10 -14 15 -14 5 0 23 -9 39 -21 38 -27 85 -33 93 -12 8 20 2
26 -26 28 -41 3 -88 17 -88 27 0 5 -21 19 -47 30 -27 12 -43 23 -36 25 19 7
-33 50 -75 64 -32 11 -34 13 -17 20 15 6 16 8 4 8 -9 1 -22 -5 -28 -13z m-11
-246 c0 -5 -4 -10 -10 -10 -5 0 -10 5 -10 10 0 6 5 10 10 10 6 0 10 -4 10 -10z"/>
<path d="M24230 30855 c0 -15 12 -37 30 -55 36 -35 46 -37 60 -10 8 16 5 25
-17 49 -16 16 -38 32 -50 36 -20 5 -23 3 -23 -20z"/>
<path d="M22780 30770 c-17 -5 -19 -8 -7 -9 9 -1 17 -5 17 -9 0 -13 60 -44 75
-38 8 3 11 13 8 26 -7 27 -21 34 -38 20 -12 -10 -15 -9 -15 4 0 17 -3 18 -40
6z"/>
<path d="M24187 30773 c-11 -10 -8 -53 3 -53 6 0 10 -7 10 -15 0 -8 3 -15 8
-16 4 0 17 -2 30 -5 31 -6 39 20 19 62 -12 24 -23 34 -40 34 -13 0 -27 -3 -30
-7z"/>
<path d="M22702 30738 c-14 -14 -15 -48 -2 -68 7 -11 10 -7 10 17 0 24 4 31
14 27 22 -8 29 14 8 25 -13 7 -22 7 -30 -1z"/>
<path d="M22721 30674 c0 -11 3 -14 6 -6 3 7 2 16 -1 19 -3 4 -6 -2 -5 -13z"/>
<path d="M22725 30640 c-3 -5 1 -10 9 -10 9 0 16 5 16 10 0 6 -4 10 -9 10 -6
0 -13 -4 -16 -10z"/>
<path d="M22797 30594 c-13 -13 7 -34 33 -34 16 0 35 -7 44 -15 13 -14 16 -13
26 5 9 17 8 20 -12 20 -13 1 -34 7 -48 15 -28 16 -34 17 -43 9z"/>
<path d="M23060 30555 c-6 -14 -10 -31 -10 -37 0 -6 -11 -3 -25 6 -13 9 -31
16 -40 16 -8 0 -24 5 -35 12 -10 7 -22 9 -26 6 -13 -13 4 -34 42 -52 55 -26
92 -45 142 -72 39 -21 44 -21 48 -6 3 9 10 27 16 38 8 17 5 31 -14 65 -20 36
-31 45 -56 47 -27 3 -34 -1 -42 -23z m67 -47 c-3 -8 -6 -5 -6 6 -1 11 2 17 5
13 3 -3 4 -12 1 -19z"/>
<path d="M24800 30514 c0 -8 5 -12 10 -9 6 3 10 10 10 16 0 5 -4 9 -10 9 -5 0
-10 -7 -10 -16z"/>
<path d="M23588 30500 c-24 -22 -22 -29 10 -65 42 -46 87 -75 116 -75 34 0 33
12 -4 43 -16 14 -30 29 -30 32 0 13 -41 65 -58 74 -12 6 -23 3 -34 -9z"/>
<path d="M24372 30265 c-30 -38 -34 -125 -6 -156 8 -8 14 -23 14 -32 0 -9 5
-19 10 -22 15 -9 12 -32 -6 -39 -28 -11 -62 4 -57 24 6 22 -32 36 -66 25 -25
-8 -26 -21 -6 -69 19 -44 13 -56 -24 -56 -36 0 -60 -27 -55 -64 4 -39 12 -44
29 -18 12 16 28 22 68 24 41 2 53 7 55 22 3 13 0 16 -10 10 -10 -6 -10 -4 1
10 12 15 12 17 0 14 -19 -4 -18 22 2 35 11 7 25 5 47 -6 35 -17 46 -10 36 27
-5 21 -2 25 27 31 18 4 41 15 51 24 20 20 37 111 20 111 -6 0 -13 -6 -15 -12
-3 -7 -7 3 -8 22 -1 19 -3 42 -5 50 -1 8 -2 23 -3 33 -1 13 -10 17 -35 17 -19
0 -36 5 -38 12 -2 6 -14 -1 -26 -17z m67 -34 c16 -10 27 -131 12 -131 -5 0
-16 -3 -25 -6 -10 -4 -17 2 -21 19 -4 14 -13 28 -21 31 -8 3 -14 15 -14 26 0
22 15 27 24 8 3 -7 5 4 3 25 -3 38 11 48 42 28z"/>
<path d="M23507 30263 c-15 -17 -15 -22 -2 -39 8 -10 15 -27 15 -37 0 -10 5
-28 11 -40 l12 -21 8 22 c6 15 13 20 25 15 9 -3 20 0 25 8 5 8 9 9 9 3 0 -6
11 -11 25 -11 14 0 25 2 25 6 -1 14 -27 39 -48 45 -12 4 -22 12 -22 17 0 5 -7
9 -16 9 -9 0 -23 9 -33 21 -16 20 -17 20 -34 2z"/>
<path d="M23854 30225 c-8 -21 4 -35 32 -35 19 0 24 5 24 25 0 20 -5 25 -25
25 -14 0 -28 -7 -31 -15z"/>
<path d="M23583 30153 c-14 -3 -20 -9 -16 -19 3 -8 0 -21 -7 -29 -6 -8 -9 -18
-6 -24 3 -5 -1 -11 -9 -15 -17 -6 -20 -51 -5 -61 6 -3 10 -1 10 4 0 6 6 11 13
11 32 1 42 20 42 80 0 33 0 59 0 59 0 -1 -10 -4 -22 -6z"/>
<path d="M23405 30080 c-19 -21 -19 -21 10 -45 17 -13 40 -24 52 -25 12 0 28
-3 37 -6 12 -5 16 1 16 24 0 26 -6 32 -42 48 -24 10 -46 20 -49 21 -3 2 -14
-6 -24 -17z"/>
<path d="M22553 30055 c1 -21 8 -31 22 -34 11 -2 38 -21 59 -42 22 -22 45 -39
51 -39 5 0 16 -13 23 -30 12 -25 11 -33 -2 -52 -9 -12 -16 -31 -16 -41 0 -14
5 -17 22 -11 13 4 28 14 35 23 17 24 35 1 37 -46 1 -33 -2 -38 -19 -35 -11 2
-24 5 -30 5 -5 1 -15 11 -22 22 -12 19 -12 19 -13 -6 0 -31 57 -80 70 -59 4 7
13 9 20 5 6 -4 22 3 36 16 18 17 21 25 12 31 -8 4 -8 8 -2 8 20 0 1 65 -32
109 -37 47 -43 71 -19 71 26 0 16 19 -12 26 -16 4 -32 9 -38 13 -5 3 -16 6
-23 7 -22 4 -100 43 -107 54 -3 5 -15 10 -25 10 -10 0 -21 6 -24 13 -3 6 -4
-1 -3 -18z"/>
<path d="M24928 29911 c-32 -19 -98 -143 -98 -185 0 -27 1 -28 38 -21 45 8 59
20 45 37 -6 7 -14 34 -18 61 -7 43 -6 47 14 47 12 0 21 6 21 15 0 9 12 20 27
26 15 6 23 13 18 17 -6 4 -12 10 -15 13 -3 3 -17 -1 -32 -10z"/>
<path d="M23435 29880 c-4 -6 -2 -17 4 -24 9 -11 3 -14 -31 -14 -28 -1 -46 5
-54 16 -11 16 -14 15 -33 -2 -25 -22 -14 -52 24 -66 21 -8 24 -14 18 -42 -3
-18 -10 -41 -14 -50 -5 -9 -9 -26 -9 -38 0 -30 31 -22 48 13 7 15 16 27 20 28
4 0 22 2 40 3 22 3 32 -1 32 -10 0 -16 16 -19 25 -4 4 6 11 8 16 5 5 -4 9 -3
9 2 0 4 -19 21 -41 37 -39 27 -40 30 -37 75 2 25 7 51 11 57 7 12 0 24 -14 24
-4 0 -11 -5 -14 -10z"/>
<path d="M23834 29758 c1 -7 1 -10 -1 -5 -6 9 -45 9 -59 -1 -6 -4 -14 -18 -18
-32 -6 -19 -5 -21 3 -10 9 13 11 13 11 -2 0 -24 18 -23 39 3 25 32 90 19 113
-21 19 -33 33 -38 42 -14 13 35 -32 79 -91 88 -32 4 -42 3 -39 -6z"/>
<path d="M22540 29745 c0 -9 -7 -18 -15 -21 -10 -4 -15 -21 -15 -53 0 -64 -8
-87 -34 -101 -30 -16 -60 -141 -43 -180 11 -24 11 -24 15 13 2 20 7 37 13 37
5 0 9 13 9 30 0 18 7 34 19 41 11 7 16 19 13 31 -6 24 2 23 31 -4 13 -13 22
-30 20 -38 -4 -12 -3 -13 5 -1 12 16 32 6 32 -15 0 -9 7 -14 18 -12 20 4 18
39 -4 51 -8 4 -14 13 -14 20 0 7 -9 23 -20 37 -11 14 -20 41 -20 63 0 22 -5
37 -12 37 -6 0 -3 6 8 14 10 8 29 12 42 9 25 -6 29 12 8 40 -16 21 -56 23 -56
2z"/>
<path d="M24093 29715 c-13 -9 -23 -31 -28 -61 -6 -45 -23 -74 -43 -74 -14 0
-53 -46 -45 -53 3 -4 3 -7 0 -7 -3 0 -23 17 -44 38 -20 20 -44 36 -51 34 -8
-2 -11 1 -7 7 8 15 -8 14 -23 -1 -12 -12 -17 -5 -24 37 -3 13 -10 19 -22 17
-14 -3 -17 1 -13 12 5 11 0 16 -13 16 -13 0 -20 -7 -20 -20 0 -11 5 -20 11
-20 7 0 35 -20 63 -45 28 -25 64 -57 79 -70 15 -14 34 -25 41 -25 8 0 16 -9
19 -20 8 -30 47 -27 47 4 0 14 5 28 10 31 6 3 10 15 10 26 0 20 15 26 25 9 14
-23 27 -9 21 24 -4 21 -1 43 8 62 12 22 13 30 3 36 -7 4 3 8 24 8 22 0 50 -10
73 -25 42 -28 46 -30 46 -13 0 19 -82 88 -105 88 -11 0 -30 -7 -42 -15z"/>
<path d="M25129 29697 c-12 -26 -7 -57 10 -57 12 0 21 63 10 74 -4 5 -13 -2
-20 -17z"/>
<path d="M22620 29679 c0 -12 8 -23 20 -26 22 -6 26 -18 10 -28 -6 -4 -3 -17
10 -35 11 -15 20 -38 20 -51 0 -38 13 -12 16 32 2 34 -3 51 -28 86 -35 47 -48
54 -48 22z"/>
<path d="M24940 29666 c0 -8 12 -24 28 -35 15 -12 32 -25 39 -30 6 -6 23 -13
38 -17 44 -11 27 25 -25 54 -25 14 -46 29 -48 33 -6 15 -32 10 -32 -5z"/>
<path d="M24250 29630 c0 -5 5 -10 11 -10 5 0 7 5 4 10 -3 6 -8 10 -11 10 -2
0 -4 -4 -4 -10z"/>
<path d="M25111 29618 c1 -13 -2 -31 -6 -40 -4 -10 -3 -18 3 -18 20 0 31 64
12 75 -6 3 -9 -4 -9 -17z"/>
<path d="M23184 29608 c-40 -19 -60 -147 -20 -132 8 3 16 -4 19 -17 4 -13 9
-20 13 -16 4 4 12 3 18 -2 23 -18 73 0 91 33 15 28 16 38 6 69 -7 20 -18 37
-24 37 -7 0 -23 9 -37 20 -28 22 -36 23 -66 8z m41 -8 c3 -5 2 -10 -4 -10 -5
0 -13 5 -16 10 -3 6 -2 10 4 10 5 0 13 -4 16 -10z m13 -83 c-2 -12 -11 -23
-20 -25 -15 -3 -18 4 -18 33 0 33 2 35 21 25 13 -7 19 -19 17 -33z"/>
<path d="M25076 29518 c-27 -41 -57 -118 -51 -129 11 -18 34 10 40 50 12 70
16 81 30 81 8 0 15 5 15 10 0 18 -19 11 -34 -12z"/>
<path d="M22190 29380 c0 -5 5 -10 10 -10 6 0 10 5 10 10 0 6 -4 10 -10 10 -5
0 -10 -4 -10 -10z"/>
<path d="M22231 29367 c-20 -20 -12 -30 19 -23 22 4 30 2 30 -9 0 -8 5 -15 10
-15 6 0 22 -10 36 -22 13 -13 33 -31 44 -40 10 -9 33 -24 49 -33 17 -8 38 -27
47 -41 22 -33 40 -17 26 23 -6 15 -11 22 -11 15 -1 -7 -5 -11 -10 -8 -5 3 -7
14 -4 25 5 20 -23 55 -38 45 -5 -3 -12 2 -15 10 -3 9 -23 23 -43 32 -20 8 -49
21 -66 29 -50 22 -62 24 -74 12z"/>
<path d="M22440 29350 c0 -5 5 -10 10 -10 6 0 10 5 10 10 0 6 -4 10 -10 10 -5
0 -10 -4 -10 -10z"/>
<path d="M22425 29310 c-3 -5 3 -10 14 -10 12 0 21 5 21 10 0 6 -6 10 -14 10
-8 0 -18 -4 -21 -10z"/>
<path d="M22342 29188 c-7 -7 -12 -29 -12 -49 0 -35 4 -39 56 -69 31 -17 58
-29 60 -27 9 9 -8 35 -31 47 -22 12 -39 50 -40 89 0 19 -18 24 -33 9z"/>
<path d="M22915 29148 c7 -32 7 -33 -12 -15 -19 17 -21 16 -47 -8 -19 -18 -25
-31 -21 -45 8 -24 -11 -60 -31 -60 -20 0 -75 -30 -91 -50 -7 -8 -13 -25 -13
-37 0 -30 32 -30 45 -1 6 13 19 24 30 26 11 2 27 13 36 24 12 15 22 19 35 14
18 -7 18 -8 1 -21 -17 -12 -16 -14 12 -20 27 -6 31 -11 31 -41 0 -37 -5 -36
74 -19 24 5 28 10 24 35 -2 16 -1 27 4 24 16 -10 8 16 -11 35 -20 20 -20 20
-26 1 -4 -11 -4 -24 -1 -28 6 -11 -21 -52 -35 -52 -5 0 -9 20 -9 44 0 25 -4
56 -9 70 -13 32 10 56 34 36 8 -7 15 -19 15 -26 0 -8 8 -14 18 -14 14 0 19 8
20 35 1 26 -3 35 -14 35 -12 0 -15 6 -10 25 4 17 3 24 -6 23 -7 -2 -14 7 -16
20 -2 12 -10 22 -18 22 -12 0 -14 -7 -9 -32z m-45 -84 c0 -8 -5 -12 -10 -9 -6
4 -8 11 -5 16 9 14 15 11 15 -7z m10 -44 c0 -5 -5 -10 -11 -10 -5 0 -7 5 -4
10 3 6 8 10 11 10 2 0 4 -4 4 -10z"/>
<path d="M24524 29158 c-6 -21 -37 -58 -48 -58 -3 0 -22 16 -43 35 -42 38 -56
40 -61 7 -2 -15 2 -22 12 -22 9 0 16 -6 16 -14 0 -8 13 -17 29 -21 50 -11 59
-31 33 -78 -15 -26 -19 -44 -13 -50 14 -14 41 10 41 36 0 23 26 46 53 47 16 0
16 2 1 25 -16 24 -16 59 -1 53 13 -5 28 28 21 46 -9 23 -32 20 -40 -6z"/>
<path d="M22501 29141 c0 -7 -9 -21 -19 -30 -30 -26 -35 -51 -11 -51 15 0 19
5 14 19 -3 10 1 24 10 31 13 10 15 9 15 -9 0 -11 5 -21 10 -21 6 0 10 12 10
26 0 14 -4 23 -9 19 -5 -3 -12 3 -14 12 -3 11 -5 12 -6 4z"/>
<path d="M23550 29103 c-26 -25 -31 -38 -42 -121 -10 -80 -10 -95 3 -103 8 -5
16 -9 19 -9 3 0 6 37 6 81 2 76 4 83 31 108 41 38 75 31 97 -19 10 -22 15 -44
11 -50 -8 -13 -35 -13 -35 0 0 6 -4 10 -10 10 -15 0 -12 -22 6 -59 11 -21 21
-30 31 -27 8 3 16 6 18 6 2 0 1 8 -2 19 -2 10 3 25 11 34 20 19 20 25 0 44
-11 11 -12 19 -5 26 15 15 14 37 -3 37 -7 0 -19 7 -26 15 -7 8 -24 15 -39 15
-20 0 -23 2 -11 10 12 8 11 10 -7 10 -13 0 -36 -12 -53 -27z m20 -23 c0 -5 -5
-10 -11 -10 -5 0 -7 5 -4 10 3 6 8 10 11 10 2 0 4 -4 4 -10z"/>
<path d="M24569 29056 c6 -7 7 -16 3 -21 -4 -4 -1 -6 7 -3 23 7 24 25 1 31
-16 4 -19 2 -11 -7z"/>
<path d="M22150 28975 c-18 -22 -24 -88 -8 -83 7 3 13 12 13 21 0 9 10 25 23
37 12 11 22 25 22 30 0 16 -36 12 -50 -5z"/>
<path d="M22286 28965 c-3 -8 -1 -15 4 -15 6 0 8 -10 6 -22 -2 -14 -9 -22 -19
-20 -9 1 -21 -6 -26 -17 -10 -18 -9 -18 18 -8 16 6 36 23 45 39 10 15 22 28
28 28 15 0 -23 29 -38 30 -7 0 -14 -7 -18 -15z"/>
<path d="M24268 28969 c-8 -23 3 -55 27 -83 13 -15 27 -28 32 -29 12 -3 4 -48
-13 -75 -8 -12 -12 -27 -9 -33 7 -10 55 -7 74 6 16 10 13 45 -4 45 -8 0 -15 5
-15 10 0 6 7 10 17 10 15 0 15 1 0 18 -10 10 -17 23 -17 29 0 6 -10 17 -22 26
-13 8 -19 19 -15 23 4 5 11 3 15 -3 7 -11 62 -6 62 6 -1 13 -30 44 -30 32 0
-11 -3 -11 -16 0 -13 10 -17 10 -25 -2 -7 -11 -9 -11 -9 3 0 12 -5 15 -16 11
-9 -3 -20 0 -24 7 -6 10 -8 10 -12 -1z"/>
<path d="M25170 28890 c-8 -5 -25 -7 -38 -3 -25 6 -76 -24 -106 -64 -16 -22
-17 -33 -10 -72 6 -33 14 -47 28 -49 24 -5 37 17 24 41 -5 11 -7 32 -4 48 3
16 1 29 -4 29 -6 0 -10 -8 -11 -17 0 -10 -3 -13 -5 -6 -8 18 13 50 37 56 16 4
19 3 10 -6 -22 -22 -11 -26 20 -8 25 15 43 18 84 14 54 -6 70 3 59 31 -7 18
-59 22 -84 6z m-121 -165 c0 -5 -4 -3 -9 5 -5 8 -9 22 -9 30 0 16 17 -16 18
-35z"/>
<path d="M22258 28862 c-10 -2 -18 -8 -18 -13 0 -13 27 -11 35 2 9 13 4 16
-17 11z"/>
<path d="M22374 28854 c3 -9 6 -26 6 -38 0 -13 6 -23 15 -23 18 0 19 14 3 50
-14 28 -34 38 -24 11z"/>
<path d="M23413 28860 c-44 -18 -38 -146 11 -220 25 -38 46 -52 46 -30 0 6 -7
10 -15 10 -25 0 -37 86 -21 163 5 25 4 37 -3 33 -5 -4 -12 -2 -16 4 -4 6 6 8
27 6 18 -3 36 -5 41 -5 4 -1 7 -23 7 -50 0 -32 6 -55 16 -65 10 -10 15 -30 13
-54 -2 -21 0 -43 5 -50 4 -8 1 -12 -11 -13 -10 0 -13 -3 -6 -5 7 -3 22 0 34 6
15 9 18 15 10 23 -17 17 -13 26 9 20 19 -5 20 -2 15 38 -10 70 -29 131 -42
136 -7 3 -13 14 -13 24 0 10 -3 19 -7 20 -28 3 -50 7 -63 12 -8 3 -25 2 -37
-3z m-6 -112 c-3 -8 -6 -5 -6 6 -1 11 2 17 5 13 3 -3 4 -12 1 -19z"/>
<path d="M22266 28805 c-3 -8 -1 -15 4 -15 6 0 10 7 10 15 0 8 -2 15 -4 15 -2
0 -6 -7 -10 -15z"/>
<path d="M22290 28755 c0 -10 10 -15 28 -15 26 1 26 1 8 15 -25 19 -36 19 -36
0z"/>
<path d="M22075 28738 c-9 -24 0 -34 35 -41 21 -5 28 -11 24 -22 -4 -8 0 -17
9 -21 8 -3 21 -19 27 -35 10 -24 10 -40 -4 -90 -10 -33 -15 -63 -13 -66 9 -8
65 51 68 72 1 11 -1 46 -5 79 -6 45 -12 59 -27 63 -10 3 -19 14 -19 24 0 16
-5 18 -26 13 -21 -5 -31 -2 -45 17 -16 21 -19 22 -24 7z m135 -140 c0 -5 -4
-8 -10 -8 -5 0 -10 10 -10 23 0 18 2 19 10 7 5 -8 10 -18 10 -22z"/>
<path d="M25166 28743 c-13 -13 -5 -23 17 -23 17 0 19 -2 8 -9 -10 -7 -4 -9
20 -8 32 2 34 0 37 -35 3 -39 22 -54 22 -17 0 11 7 27 15 35 18 19 20 43 3 48
-26 8 -116 15 -122 9z"/>
<path d="M25090 28715 c0 -10 10 -15 33 -15 l32 0 -29 15 c-35 18 -36 18 -36
0z"/>
<path d="M24121 28671 c-37 -37 -69 -106 -72 -153 -2 -26 1 -48 6 -48 6 0 11
21 11 47 1 30 8 51 18 59 9 6 14 18 10 27 -4 12 1 16 27 15 18 -1 35 4 37 10
2 7 8 12 12 12 5 0 1 -13 -8 -30 -16 -28 -16 -30 2 -47 10 -10 16 -13 12 -6
-3 6 -2 14 4 18 5 3 10 16 10 28 0 16 9 26 29 34 33 12 46 7 31 -12 -7 -9 -7
-21 0 -39 18 -47 7 -159 -15 -156 -5 1 -11 -3 -13 -8 -2 -6 5 -9 15 -7 10 2
21 4 26 4 4 1 7 8 7 16 0 8 7 15 15 15 8 0 15 7 15 15 0 9 -6 12 -17 8 -17 -6
-17 -5 0 14 43 49 4 172 -54 173 -9 0 -19 7 -23 15 -8 21 -62 19 -85 -4z"/>
<path d="M22603 28619 c-6 -6 -23 -11 -36 -11 -35 0 -46 -56 -20 -93 18 -24
33 -32 33 -17 0 4 -6 14 -12 20 -10 10 -10 15 2 22 8 5 11 10 5 10 -5 0 1 7
13 16 18 12 26 13 37 4 19 -16 19 -56 0 -64 -8 -3 -12 -12 -9 -20 4 -12 15
-14 42 -10 40 6 41 6 90 3 27 -2 31 -5 27 -21 -4 -10 -2 -18 3 -18 16 0 23 31
11 46 -9 12 -15 12 -27 2 -11 -9 -13 -9 -9 -1 8 14 -12 64 -30 76 -7 4 -23 19
-36 32 -27 29 -68 40 -84 24z m-40 -54 c-3 -9 -8 -14 -10 -11 -3 3 -2 9 2 15
9 16 15 13 8 -4z"/>
<path d="M25207 28587 c-19 -21 -24 -34 -17 -41 7 -7 10 -6 10 2 0 7 9 12 20
12 13 0 17 5 14 14 -3 8 2 16 12 18 14 2 15 5 3 14 -11 10 -20 6 -42 -19z"/>
<path d="M23182 28553 c2 -10 9 -17 15 -16 6 1 28 -13 49 -32 20 -19 42 -36
48 -38 8 -3 7 -12 -2 -29 -21 -38 -12 -82 16 -86 16 -2 22 -8 18 -18 -3 -8 1
-14 9 -14 8 0 18 -6 22 -14 4 -7 24 -16 44 -20 29 -5 38 -3 43 10 9 23 7 31
-3 15 -13 -20 -32 -3 -25 22 3 13 -2 36 -11 52 -8 17 -18 46 -21 65 -9 53 -26
69 -101 95 -83 30 -106 31 -101 8z"/>
<path d="M24948 28475 c-2 -33 -1 -64 4 -69 5 -6 8 -5 8 2 0 7 7 12 15 12 19
0 19 5 -1 35 -15 23 -14 23 8 18 13 -3 29 -10 36 -16 7 -5 16 -7 19 -3 4 4 1
12 -7 17 -11 8 -9 9 10 4 24 -6 24 -5 -5 20 -20 17 -37 24 -52 20 -12 -3 -23
0 -26 8 -2 6 -6 -15 -9 -48z"/>
<path d="M24157 28503 c-13 -12 -7 -40 11 -56 23 -21 32 -21 32 -2 0 8 -5 15
-10 15 -6 0 -10 6 -9 13 4 33 -7 47 -24 30z"/>
<path d="M24805 28471 c-9 -16 3 -31 24 -31 10 0 23 -6 29 -13 13 -16 64 -16
69 -1 5 15 -35 25 -44 11 -4 -7 -9 -2 -13 13 -4 18 -14 26 -32 28 -14 2 -29
-2 -33 -7z"/>
<path d="M22800 28450 c0 -5 5 -10 11 -10 5 0 7 5 4 10 -3 6 -8 10 -11 10 -2
0 -4 -4 -4 -10z"/>
<path d="M24012 28452 c-7 -5 -13 -26 -14 -48 0 -21 -5 -44 -10 -51 -5 -7 -7
-16 -4 -21 9 -15 -35 -22 -57 -10 -16 8 -23 7 -34 -8 -7 -10 -13 -26 -13 -36
0 -22 28 -24 36 -3 4 8 15 15 25 15 10 0 19 5 19 10 0 25 18 7 24 -24 7 -35
25 -50 51 -40 19 8 19 19 0 38 -8 8 -12 22 -9 30 4 9 1 16 -6 16 -9 0 -7 7 5
20 11 13 25 18 37 14 12 -3 18 0 18 10 0 9 -8 16 -19 16 -28 0 -37 20 -12 27
12 3 21 13 21 24 0 12 -5 16 -15 13 -8 -4 -15 -1 -15 5 0 13 -10 14 -28 3z"/>
<path d="M21913 28438 c-21 -26 -23 -67 -6 -103 18 -38 38 -46 47 -17 9 27 10
108 2 120 -9 16 -31 15 -43 0z"/>
<path d="M25105 28440 c3 -5 18 -10 32 -10 32 0 28 5 -10 14 -19 4 -26 3 -22
-4z"/>
<path d="M22459 28367 c-25 -19 -40 -54 -40 -95 0 -20 -1 -55 -2 -77 -2 -31 2
-40 16 -43 16 -3 17 -1 8 16 -17 32 -14 73 4 66 11 -5 13 -2 9 10 -3 9 -1 16
5 16 6 0 11 13 11 29 0 20 9 36 27 51 22 17 25 23 13 30 -20 13 -32 12 -51 -3z
m7 -43 c-19 -18 -21 -11 -4 19 7 14 13 17 15 10 3 -7 -3 -20 -11 -29z"/>
<path d="M24085 28350 c-4 -6 1 -18 11 -26 17 -14 17 -15 2 -10 -23 7 -24 -19
-2 -28 25 -9 25 -8 22 31 -3 37 -20 54 -33 33z"/>
<path d="M22065 28313 c-3 -9 0 -20 7 -25 20 -12 28 -9 28 11 0 24 -26 35 -35
14z"/>
<path d="M22514 28241 c3 -75 2 -80 -20 -90 -13 -6 -24 -15 -24 -21 0 -13 56
-13 80 0 23 12 42 74 33 109 -5 22 -55 81 -68 81 -3 0 -3 -36 -1 -79z"/>
<path d="M23190 28310 c0 -5 -6 -10 -14 -10 -17 0 -41 -82 -31 -107 6 -16 8
-15 20 6 9 19 10 29 2 43 -9 14 -8 20 8 32 18 13 20 13 23 0 3 -13 6 -12 17 3
9 13 10 22 3 30 -13 16 -28 17 -28 3z"/>
<path d="M22917 28282 c-10 -10 -14 -22 -10 -25 3 -4 13 2 21 14 8 11 12 22
10 25 -3 2 -12 -4 -21 -14z"/>
<path d="M22990 28271 c-47 -8 -84 -35 -77 -55 8 -20 27 -21 27 -2 0 9 15 17
40 21 32 5 47 2 76 -15 28 -18 38 -20 47 -10 9 9 4 18 -23 41 -19 16 -39 28
-45 28 -5 -1 -26 -5 -45 -8z"/>
<path d="M23240 28260 c0 -5 7 -10 15 -10 8 0 15 5 15 10 0 6 -7 10 -15 10 -8
0 -15 -4 -15 -10z"/>
<path d="M24713 28233 c-36 -35 -65 -93 -45 -93 14 0 32 23 32 42 0 10 6 18
14 18 8 0 21 8 28 18 25 35 37 34 59 -3 17 -28 26 -34 41 -29 15 4 27 -2 43
-22 20 -25 21 -30 7 -40 -19 -14 -8 -34 19 -34 15 0 19 7 19 35 0 24 -5 35
-15 35 -8 0 -12 6 -9 13 2 7 -2 26 -10 41 -7 15 -16 22 -18 15 -2 -7 -12 -9
-27 -4 -18 6 -21 9 -10 16 10 6 2 9 -23 9 -21 0 -38 5 -38 10 0 20 -28 9 -67
-27z"/>
<path d="M22980 28200 c0 -5 5 -10 11 -10 5 0 7 5 4 10 -3 6 -8 10 -11 10 -2
0 -4 -4 -4 -10z"/>
<path d="M23005 28170 c-16 -7 -16 -9 -4 -9 9 -1 19 -8 23 -16 8 -23 28 -18
24 7 -4 25 -15 30 -43 18z"/>
<path d="M24777 28153 c-9 -17 -1 -68 11 -66 6 2 9 -3 6 -11 -4 -11 24 -33 31
-24 1 2 -1 28 -5 58 -4 30 -8 45 -9 33 0 -12 -6 -25 -12 -29 -7 -4 -9 0 -5 14
7 19 -8 41 -17 25z"/>
<path d="M23129 28135 c-14 -14 -20 -15 -37 -4 -28 17 -36 8 -21 -25 8 -17 20
-26 35 -26 19 0 23 -5 21 -22 -3 -33 29 -36 37 -3 4 15 3 32 -3 38 -5 7 -11
22 -13 35 -3 21 -4 22 -19 7z"/>
<path d="M22285 28113 c-10 -36 -6 -84 8 -101 7 -10 5 -17 -11 -28 -28 -19
-30 -58 -3 -49 31 10 48 -5 55 -46 7 -44 39 -88 51 -70 3 6 11 9 16 6 5 -3 6
1 3 9 -3 9 -10 13 -15 10 -5 -3 -9 1 -9 10 0 8 6 17 13 20 10 5 10 7 0 12 -18
8 -16 45 2 71 14 20 14 23 -2 32 -10 5 -22 10 -28 10 -5 1 -10 9 -10 19 -1 9
-5 23 -9 31 -5 8 -8 31 -8 53 2 34 -1 38 -22 38 -17 0 -26 -7 -31 -27z m79
-239 c3 -8 2 -12 -4 -9 -6 3 -10 10 -10 16 0 14 7 11 14 -7z"/>
<path d="M23810 28115 c-10 -12 -7 -20 20 -45 24 -22 31 -36 27 -53 -3 -12
-10 -38 -15 -58 -5 -21 -7 -42 -3 -47 12 -19 32 4 33 37 1 18 4 27 8 20 5 -8
11 -6 18 7 6 10 19 19 29 19 14 0 19 9 21 43 2 23 7 42 11 42 5 0 6 11 3 25
-5 30 -18 32 -34 5 -7 -11 -22 -20 -34 -20 -11 0 -29 9 -39 20 -22 24 -29 25
-45 5z"/>
<path d="M24880 28074 c0 -3 7 -12 15 -20 13 -14 15 -13 15 5 0 12 -6 21 -15
21 -8 0 -15 -3 -15 -6z"/>
<path d="M23160 28010 c0 -5 5 -10 10 -10 6 0 10 5 10 10 0 6 -4 10 -10 10 -5
0 -10 -4 -10 -10z"/>
<path d="M22435 27980 c-3 -5 -1 -10 4 -10 6 0 11 5 11 10 0 6 -2 10 -4 10 -3
0 -8 -4 -11 -10z"/>
<path d="M24000 27976 c0 -9 5 -16 10 -16 6 0 10 4 10 9 0 6 -4 13 -10 16 -5
3 -10 -1 -10 -9z"/>
<path d="M23643 27911 c-18 -15 -20 -20 -8 -24 8 -4 23 -4 35 -2 14 3 22 -3
26 -21 7 -26 30 -31 58 -11 21 16 12 47 -15 47 -10 0 -19 7 -19 15 0 21 -50
19 -77 -4z"/>
<path d="M22030 27871 c0 -17 5 -33 11 -37 6 -3 18 -23 26 -43 9 -20 18 -30
20 -23 6 16 -19 102 -29 102 -4 0 -8 7 -8 15 0 8 -4 15 -10 15 -5 0 -10 -13
-10 -29z"/>
<path d="M23760 27830 c0 -5 5 -10 10 -10 6 0 10 5 10 10 0 6 -4 10 -10 10 -5
0 -10 -4 -10 -10z"/>
<path d="M23575 27769 c-8 -56 -2 -70 20 -48 10 10 12 27 8 57 -8 57 -20 53
-28 -9z"/>
<path d="M23756 27763 c-11 -11 -6 -21 9 -19 22 3 28 13 11 19 -8 3 -17 3 -20
0z"/>
<path d="M25261 27736 c-6 -8 -9 -25 -6 -38 6 -26 -1 -38 -30 -54 -21 -12 -45
2 -45 26 0 5 -4 10 -9 10 -5 0 -11 8 -13 18 -3 9 -17 23 -32 31 -23 13 -28 13
-43 -1 -15 -15 -12 -20 28 -62 24 -25 47 -46 51 -46 4 0 18 -11 32 -25 23 -23
25 -30 19 -90 -4 -43 -2 -65 5 -65 6 0 17 -2 24 -5 9 -4 17 8 26 39 8 32 16
44 29 42 26 -2 28 35 4 63 -16 19 -18 27 -9 49 23 59 -1 144 -31 108z"/>
<path d="M22826 27698 c-8 -12 -13 -25 -10 -30 3 -5 0 -16 -7 -24 -8 -10 -9
-18 -2 -25 14 -14 43 0 36 18 -3 8 -1 18 5 22 6 3 14 19 17 34 9 34 -16 38
-39 5z"/>
<path d="M24391 27704 c0 -11 3 -14 6 -6 3 7 2 16 -1 19 -3 4 -6 -2 -5 -13z"/>
<path d="M22910 27708 c-2 -5 -3 -11 -4 -15 -1 -5 -5 -13 -9 -19 -4 -7 -4 -33
0 -59 6 -47 39 -85 63 -70 17 10 11 67 -9 89 -10 12 -23 35 -29 51 -6 17 -11
27 -12 23z"/>
<path d="M23494 27654 c-15 -32 -16 -42 -4 -83 21 -74 23 -100 10 -116 -15
-18 -6 -32 12 -18 7 5 28 9 46 7 22 -1 35 4 42 16 11 20 4 31 -16 23 -8 -3
-25 2 -39 11 -20 13 -24 22 -19 49 4 22 3 28 -4 18 -20 -28 -21 52 -1 87 23
40 23 42 4 42 -8 0 -22 -16 -31 -36z"/>
<path d="M23561 27660 c0 -29 20 -60 40 -60 10 1 9 5 -4 14 -10 8 -22 27 -27
43 -8 27 -8 27 -9 3z"/>
<path d="M24391 27664 c0 -13 -10 -24 -22 -27 -14 -4 -20 -11 -16 -21 5 -13 3
-14 -14 -3 -16 10 -21 9 -29 -3 -16 -25 6 -34 52 -21 54 15 94 44 83 60 -5 9
-10 10 -18 2 -17 -17 -25 -13 -30 12 -4 21 -4 21 -6 1z"/>
<path d="M21686 27640 c-14 -68 -14 -109 1 -114 8 -3 12 -10 9 -15 -9 -14 45
-52 68 -49 32 5 33 45 2 60 -14 6 -26 19 -26 30 0 21 -11 23 -28 6 -6 -6 -15
-8 -19 -4 -4 4 -2 10 4 14 20 12 25 56 9 77 -14 20 -14 19 -20 -5z"/>
<path d="M24471 27644 c0 -11 3 -14 6 -6 3 7 2 16 -1 19 -3 4 -6 -2 -5 -13z"/>
<path d="M21788 27606 c-11 -8 -14 -17 -7 -27 7 -12 9 -11 9 3 0 9 6 18 13 21
6 2 10 7 7 10 -3 3 -13 0 -22 -7z"/>
<path d="M23510 27615 c0 -5 5 -17 10 -25 5 -8 10 -10 10 -5 0 6 -5 17 -10 25
-5 8 -10 11 -10 5z"/>
<path d="M22818 27588 c-4 -9 -3 -29 1 -45 6 -24 8 -25 12 -8 3 11 3 31 -1 45
-5 20 -7 22 -12 8z"/>
<path d="M24310 27531 c0 -5 7 -11 15 -15 8 -3 15 -13 15 -23 0 -10 14 -31 30
-46 17 -16 30 -33 30 -39 0 -8 37 -2 49 8 2 2 -16 25 -40 51 -54 60 -99 89
-99 64z"/>
<path d="M21625 27513 c-20 -19 -45 -74 -45 -98 0 -8 7 -15 15 -15 10 0 15 10
15 28 0 15 9 42 21 61 23 38 20 51 -6 24z"/>
<path d="M25012 27478 c-15 -15 -15 -34 2 -83 12 -32 19 -39 37 -37 31 3 35
10 21 32 -16 25 -15 30 3 30 9 0 12 -6 9 -15 -4 -9 0 -15 9 -15 9 0 18 8 20
18 3 10 5 6 6 -10 1 -27 3 -28 52 -28 41 0 50 -3 45 -15 -3 -9 0 -15 10 -15
10 0 14 6 10 15 -3 8 -1 15 4 15 6 0 10 6 10 14 0 15 -37 29 -45 17 -6 -10
-65 -1 -65 10 0 8 -83 69 -94 69 -3 0 -6 -11 -6 -24 0 -27 -16 -43 -23 -24 -2
7 0 23 4 36 10 25 8 27 -9 10z"/>
<path d="M22950 27469 c0 -5 5 -7 10 -4 6 3 10 8 10 11 0 2 -4 4 -10 4 -5 0
-10 -5 -10 -11z"/>
<path d="M23644 27459 c-6 -11 31 -48 49 -49 13 0 7 18 -8 24 -8 3 -12 12 -9
21 7 18 -21 21 -32 4z"/>
<path d="M24196 27433 c-3 -4 -6 -17 -6 -30 0 -12 -5 -23 -12 -23 -6 0 -8 -3
-5 -7 4 -3 -1 -12 -11 -20 -9 -8 -11 -11 -3 -7 7 3 17 1 21 -5 12 -21 60 8 60
36 0 24 -34 66 -44 56z"/>
<path d="M23595 27421 c-3 -5 -1 -12 5 -16 5 -3 10 1 10 9 0 18 -6 21 -15 7z"/>
<path d="M24250 27401 c0 -12 5 -21 10 -21 6 0 10 6 10 14 0 8 -4 18 -10 21
-5 3 -10 -3 -10 -14z"/>
<path d="M23720 27396 c0 -8 4 -17 9 -20 10 -7 23 19 14 28 -11 11 -23 6 -23
-8z"/>
<path d="M22670 27371 c-14 -27 -13 -36 4 -22 11 9 15 8 20 -6 6 -14 9 -15 15
-4 5 7 14 10 20 7 14 -9 15 -36 1 -36 -5 0 -10 -7 -10 -15 0 -8 7 -15 15 -15
30 0 26 -30 -14 -109 -22 -44 -37 -82 -32 -85 12 -8 44 30 39 46 -5 14 14 38
30 38 15 0 22 28 9 34 -7 2 -5 5 4 5 9 1 24 13 34 27 l17 26 19 -31 c24 -40
63 -44 53 -6 -4 15 -2 25 4 25 6 0 10 9 9 19 -1 15 -7 19 -27 17 -14 -2 -19
-1 -12 1 20 7 14 25 -7 18 -11 -3 -22 -1 -26 5 -3 5 -19 10 -35 10 -17 0 -34
8 -42 19 -7 10 -27 25 -45 35 -31 15 -33 15 -43 -3z"/>
<path d="M24096 27349 c-19 -16 -38 -39 -42 -51 -4 -14 -9 -17 -17 -9 -6 6
-14 11 -18 11 -7 0 -47 -106 -48 -130 -1 -8 -3 -33 -6 -55 -2 -28 2 -47 14
-64 18 -23 18 -23 14 42 -4 70 -6 65 57 135 17 18 30 37 30 42 0 5 13 23 30
41 21 24 26 35 17 41 -8 5 -7 8 5 8 9 0 20 5 23 10 14 22 -26 8 -59 -21z"/>
<path d="M24266 27335 c-3 -9 -11 -15 -18 -14 -28 3 -38 -2 -38 -18 0 -14 10
-19 50 -21 l50 -3 -12 28 c-17 40 -24 47 -32 28z"/>
<path d="M24901 27326 c-6 -7 -9 -20 -6 -28 7 -17 68 -38 111 -38 16 0 40 -7
53 -16 17 -13 25 -14 34 -5 9 9 8 11 -5 6 -15 -6 -18 -2 -16 18 2 20 5 23 15
15 10 -8 13 -6 13 10 0 30 -26 48 -47 31 -9 -8 -18 -13 -19 -12 -2 1 -11 0
-20 -4 -8 -3 -28 4 -44 16 -34 24 -53 27 -69 7z m149 -46 c8 -5 11 -10 5 -10
-5 0 -17 5 -25 10 -8 5 -10 10 -5 10 6 0 17 -5 25 -10z"/>
<path d="M21490 27311 c0 -17 18 -21 24 -6 3 9 0 15 -9 15 -8 0 -15 -4 -15 -9z"/>
<path d="M21518 27286 c-19 -14 -13 -27 26 -56 17 -14 18 -13 12 7 -5 17 -2
23 16 29 13 4 29 7 37 5 7 -1 10 2 6 8 -3 6 -17 8 -32 5 -18 -5 -24 -3 -19 5
10 15 -25 14 -46 -3z"/>
<path d="M21630 27240 c0 -5 5 -10 10 -10 6 0 10 5 10 10 0 6 -4 10 -10 10 -5
0 -10 -4 -10 -10z"/>
<path d="M21571 27191 c-7 -5 -10 -14 -7 -20 11 -17 22 -13 22 9 0 11 0 20 -1
20 0 0 -6 -4 -14 -9z"/>
<path d="M22874 27174 c3 -9 6 -18 6 -20 0 -2 7 -4 16 -4 13 0 14 3 5 13 -6 8
-8 17 -4 20 3 4 -2 7 -11 7 -12 0 -16 -5 -12 -16z"/>
<path d="M24900 27151 c0 -7 -6 -11 -15 -8 -8 4 -17 2 -20 -3 -4 -6 0 -10 7
-10 7 0 3 -7 -9 -15 -11 -8 -30 -30 -41 -50 l-21 -35 22 -15 c15 -10 23 -12
26 -4 2 6 -3 15 -10 20 -11 6 -9 9 7 9 15 0 24 8 28 26 5 20 12 25 26 21 15
-4 20 0 20 15 0 17 3 18 15 8 25 -21 17 5 -10 30 -15 14 -25 18 -25 11z"/>
<path d="M21594 27126 c3 -16 8 -31 11 -35 3 -3 4 7 1 23 -3 16 -8 31 -11 35
-3 3 -4 -7 -1 -23z"/>
<path d="M24776 27135 c-24 -18 -56 -65 -56 -82 0 -27 31 -12 37 17 3 17 12
30 19 30 8 0 14 8 14 18 1 16 1 16 11 0 5 -10 14 -18 19 -18 16 0 11 37 -6 44
-19 7 -15 8 -38 -9z"/>
<path d="M22890 27114 c0 -9 -9 -18 -20 -21 -26 -7 -26 -29 1 -36 36 -10 66 9
71 42 4 28 2 31 -24 31 -19 0 -28 -5 -28 -16z"/>
<path d="M24065 27079 c-4 -6 -5 -12 -2 -15 7 -7 37 7 37 17 0 13 -27 11 -35
-2z"/>
<path d="M21612 27068 c-11 -15 -42 -75 -42 -83 0 -12 21 -3 42 18 13 13 24
35 24 50 2 29 -7 35 -24 15z"/>
<path d="M24010 27070 c0 -5 5 -10 10 -10 6 0 10 5 10 10 0 6 -4 10 -10 10 -5
0 -10 -4 -10 -10z"/>
<path d="M24952 27068 c-7 -7 -12 -23 -12 -37 0 -19 -3 -22 -9 -12 -5 8 -7 21
-3 29 3 10 1 13 -6 8 -7 -4 -12 -27 -12 -51 0 -24 -4 -47 -10 -50 -5 -3 -10
-1 -10 6 0 7 -3 9 -7 6 -3 -4 -11 0 -17 8 -9 12 -14 12 -30 0 -20 -15 -12 -39
11 -31 8 3 24 0 35 -8 24 -17 43 -4 45 32 1 12 9 29 17 38 16 16 32 61 24 69
-2 3 -10 -1 -16 -7z"/>
<path d="M24116 27052 c-3 -6 1 -13 10 -16 23 -9 28 -2 10 13 -8 7 -17 8 -20
3z"/>
<path d="M21431 26981 c-10 -6 -4 -26 23 -84 39 -82 42 -97 24 -115 -19 -19 7
-14 29 6 16 14 19 27 15 75 -2 38 -8 57 -17 57 -7 0 -16 11 -19 25 -7 28 -36
47 -55 36z m74 -101 c3 -5 -1 -10 -10 -10 -9 0 -13 5 -10 10 3 6 8 10 10 10 2
0 7 -4 10 -10z"/>
<path d="M21341 26925 c-14 -54 -14 -65 -1 -65 6 0 10 9 10 20 0 12 5 17 14
14 8 -3 17 -1 20 4 3 6 0 12 -8 15 -9 4 -12 14 -9 25 2 11 0 22 -5 26 -5 3
-15 -14 -21 -39z"/>
<path d="M21420 26899 c0 -5 5 -7 10 -4 6 3 10 8 10 11 0 2 -4 4 -10 4 -5 0
-10 -5 -10 -11z"/>
<path d="M22550 26870 c-6 -11 -7 -20 -2 -20 6 0 12 9 15 20 3 11 3 20 1 20
-2 0 -8 -9 -14 -20z"/>
<path d="M22353 26873 c-15 -5 -18 -53 -4 -53 5 0 17 -3 27 -7 15 -5 16 -2 10
23 -9 34 -17 43 -33 37z"/>
<path d="M25333 26868 c-5 -7 -7 -24 -3 -38 9 -32 -16 -84 -36 -76 -37 14 -94
-55 -94 -113 0 -49 23 -121 38 -121 11 0 12 3 3 13 -15 19 -6 138 13 176 14
26 19 29 45 21 15 -4 38 -13 49 -19 26 -14 29 -9 27 62 -1 44 -5 61 -18 68
-22 13 -22 26 1 32 14 4 14 5 1 6 -9 0 -21 -5 -26 -11z"/>
<path d="M25426 26814 c9 -13 21 -24 28 -23 8 0 8 2 0 5 -7 3 -10 13 -7 22 3
12 -2 18 -16 19 -20 2 -20 0 -5 -23z"/>
<path d="M23124 26795 c-6 -26 20 -70 36 -60 12 8 41 -6 34 -16 -3 -5 0 -9 5
-9 15 0 14 12 -5 38 -8 12 -22 22 -30 22 -8 0 -14 5 -14 10 0 6 4 10 10 10 5
0 7 7 4 15 -9 24 -33 17 -40 -10z"/>
<path d="M22510 26800 c0 -5 5 -10 10 -10 6 0 10 -4 10 -10 0 -5 -7 -10 -15
-10 -8 0 -15 -7 -15 -15 0 -8 -4 -15 -8 -15 -5 0 -16 -16 -25 -36 -13 -26 -15
-40 -7 -49 9 -11 16 -9 35 10 14 12 25 32 25 44 0 11 4 21 9 21 15 0 23 63 9
72 -18 11 -28 10 -28 -2z"/>
<path d="M24480 26793 c0 -7 7 -10 17 -6 13 5 15 2 10 -12 -4 -10 -2 -31 5
-46 13 -28 28 -39 28 -19 0 18 30 11 30 -7 1 -17 2 -17 13 -2 8 10 23 16 40
14 53 -6 19 24 -56 49 -11 3 -21 14 -24 25 -5 21 -63 25 -63 4z"/>
<path d="M23285 26760 c3 -5 8 -10 11 -10 2 0 4 5 4 10 0 6 -5 10 -11 10 -5 0
-7 -4 -4 -10z"/>
<path d="M25470 26755 c0 -7 6 -18 13 -22 7 -4 18 -21 25 -36 12 -28 32 -29
32 -2 0 16 -48 75 -61 75 -5 0 -9 -7 -9 -15z"/>
<path d="M23601 26701 c-15 -16 -32 -45 -38 -65 -10 -33 -9 -36 8 -36 14 0 19
7 19 28 0 41 14 55 54 56 39 1 45 12 19 32 -25 19 -32 17 -62 -15z"/>
<path d="M22535 26710 c3 -5 8 -10 11 -10 2 0 4 5 4 10 0 6 -5 10 -11 10 -5 0
-7 -4 -4 -10z"/>
<path d="M23240 26698 c-1 -25 -36 -70 -63 -81 -20 -7 -23 -27 -4 -27 16 0 58
48 75 84 15 33 15 46 2 46 -5 0 -10 -10 -10 -22z"/>
<path d="M21257 26696 c-4 -10 -5 -21 -2 -24 9 -9 17 6 13 25 -3 17 -4 17 -11
-1z"/>
<path d="M21305 26691 c-3 -5 -1 -12 4 -15 5 -3 11 1 15 9 6 16 -9 21 -19 6z"/>
<path d="M23690 26690 c0 -5 5 -10 11 -10 5 0 7 5 4 10 -3 6 -8 10 -11 10 -2
0 -4 -4 -4 -10z"/>
<path d="M21356 26673 c-6 -14 -5 -15 5 -6 7 7 10 15 7 18 -3 3 -9 -2 -12 -12z"/>
<path d="M22980 26666 c0 -8 -3 -23 -6 -33 -3 -10 2 -7 10 7 18 30 20 40 6 40
-5 0 -10 -6 -10 -14z"/>
<path d="M24540 26656 c0 -8 4 -17 9 -20 5 -4 7 3 4 14 -6 23 -13 26 -13 6z"/>
<path d="M22290 26647 c0 -9 5 -19 10 -22 6 -3 7 -18 4 -32 -5 -18 -3 -24 5
-19 6 4 11 16 11 27 0 10 7 19 15 19 8 0 15 5 15 11 0 6 -6 9 -12 6 -7 -2 -21
2 -30 11 -16 14 -18 13 -18 -1z"/>
<path d="M23030 26650 c-12 -8 -9 -10 13 -10 15 0 27 5 27 10 0 13 -20 13 -40
0z"/>
<path d="M22265 26610 c-3 -5 -1 -10 4 -10 6 0 11 5 11 10 0 6 -2 10 -4 10 -3
0 -8 -4 -11 -10z"/>
<path d="M22430 26605 c0 -9 6 -12 15 -9 8 4 15 7 15 9 0 2 -7 5 -15 9 -9 3
-15 0 -15 -9z"/>
<path d="M24440 26606 c0 -11 12 -15 42 -14 31 0 37 3 25 10 -10 5 -22 6 -27
3 -6 -3 -10 -1 -10 4 0 6 -7 11 -15 11 -8 0 -15 -6 -15 -14z"/>
<path d="M21230 26606 c0 -2 9 -6 20 -9 11 -3 18 -1 14 4 -5 9 -34 13 -34 5z"/>
<path d="M22982 26601 c-11 -6 -10 -10 4 -15 20 -8 32 0 18 14 -5 5 -15 5 -22
1z"/>
<path d="M23315 26594 l-50 -14 45 6 c25 3 49 9 55 15 5 5 7 8 5 8 -3 -1 -27
-8 -55 -15z"/>
<path d="M23675 26600 c-3 -5 -1 -10 4 -10 6 0 11 5 11 10 0 6 -2 10 -4 10 -3
0 -8 -4 -11 -10z"/>
<path d="M22330 26590 c0 -5 6 -10 14 -10 8 0 18 5 21 10 3 6 -3 10 -14 10
-12 0 -21 -4 -21 -10z"/>
<path d="M23085 26580 c27 -12 35 -12 35 0 0 6 -12 10 -27 9 -25 0 -26 -1 -8
-9z"/>
<path d="M23570 26575 c-18 -22 -2 -37 19 -17 17 17 18 32 2 32 -5 0 -14 -7
-21 -15z"/>
<path d="M23190 26570 c-13 -8 -13 -10 2 -10 9 0 20 5 23 10 8 13 -5 13 -25 0z"/>
<path d="M23340 26576 c0 -2 7 -7 16 -10 8 -3 12 -2 9 4 -6 10 -25 14 -25 6z"/>
<path d="M24447 26568 c-19 -10 -23 -73 -7 -98 6 -10 10 -11 10 -2 0 6 6 12
14 12 9 0 12 -7 9 -20 -3 -11 0 -20 6 -20 5 0 8 6 5 14 -3 8 0 17 5 21 6 3 9
11 6 16 -4 5 17 9 49 9 58 0 83 15 42 26 -16 4 -23 11 -19 20 3 9 0 12 -9 9
-8 -3 -32 1 -54 9 -27 9 -46 11 -57 4z m63 -30 c0 -13 -32 -6 -37 9 -3 7 3 9
16 6 12 -3 21 -10 21 -15z"/>
<path d="M25246 26565 c-3 -8 -1 -15 4 -15 6 0 10 7 10 15 0 8 -2 15 -4 15 -2
0 -6 -7 -10 -15z"/>
<path d="M22976 26551 c-9 -10 -13 -21 -9 -25 5 -4 -1 -14 -11 -22 -19 -14
-19 -14 2 -14 12 0 22 5 22 11 0 6 9 9 20 6 23 -6 27 11 5 19 -14 6 -14 8 1
19 15 10 15 12 1 18 -8 3 -22 -2 -31 -12z"/>
<path d="M22375 26550 c-7 -12 2 -30 16 -30 12 0 12 27 0 35 -5 3 -12 1 -16
-5z"/>
<path d="M22270 26530 c0 -19 3 -21 12 -12 9 9 9 15 0 24 -9 9 -12 7 -12 -12z"/>
<path d="M23617 26533 c-34 -5 -26 -23 11 -23 37 0 60 15 37 24 -9 3 -17 5
-18 5 -1 -1 -14 -4 -30 -6z"/>
<path d="M23733 26524 c-6 -16 19 -44 39 -44 15 0 8 28 -8 34 -8 3 -12 10 -9
16 3 5 1 10 -5 10 -6 0 -13 -7 -17 -16z"/>
<path d="M22300 26510 c0 -19 3 -21 12 -12 9 9 9 15 0 24 -9 9 -12 7 -12 -12z"/>
<path d="M22873 26514 c-36 -18 -50 -42 -27 -51 20 -8 59 27 42 39 -8 4 5 8
31 8 48 0 51 4 11 13 -14 3 -39 -1 -57 -9z"/>
<path d="M25240 26498 c0 -8 7 -23 15 -34 14 -18 15 -18 12 10 -4 30 -27 50
-27 24z"/>
<path d="M22242 26474 c-12 -8 -20 -20 -17 -25 4 -5 13 -2 22 6 9 9 23 13 34
10 23 -8 26 10 3 19 -20 8 -16 9 -42 -10z"/>
<path d="M22160 26466 c0 -8 -6 -16 -13 -19 -7 -3 -19 -23 -25 -46 -7 -22 -18
-46 -25 -53 -28 -29 -78 -118 -74 -130 4 -9 6 -7 6 4 1 9 16 25 35 36 20 12
36 30 38 44 2 17 9 22 26 21 16 -2 22 2 22 17 0 10 5 22 11 26 6 4 8 19 5 37
-3 17 -3 28 0 24 4 -4 13 -2 20 4 10 8 11 15 1 30 -14 22 -27 25 -27 5z m-3
-72 c-3 -3 -12 -4 -19 -1 -8 3 -5 6 6 6 11 1 17 -2 13 -5z"/>
<path d="M21250 26460 c0 -5 7 -10 16 -10 8 0 12 5 9 10 -3 6 -10 10 -16 10
-5 0 -9 -4 -9 -10z"/>
<path d="M25280 26438 c0 -16 5 -28 10 -28 13 0 13 20 0 40 -8 12 -10 9 -10
-12z"/>
<path d="M21194 26414 c-5 -21 -2 -31 17 -45 20 -15 25 -16 27 -4 2 8 8 15 13
15 5 0 9 5 9 11 0 6 -7 8 -15 5 -11 -4 -19 3 -25 19 -12 32 -18 31 -26 -1z"/>
<path d="M21281 26418 c-1 -21 4 -28 17 -28 11 0 13 3 6 8 -7 4 -14 16 -17 27
-4 15 -5 14 -6 -7z"/>
<path d="M24332 26428 c-29 -29 -5 -62 37 -51 20 5 30 23 12 23 -5 0 -11 9
-14 20 -6 23 -18 25 -35 8z"/>
<path d="M22758 26371 c-20 -14 -44 -38 -52 -53 -18 -29 -21 -78 -6 -78 6 0
10 7 10 15 0 24 60 85 84 85 15 0 21 7 22 24 2 35 -16 38 -58 7z"/>
<path d="M23725 26390 c3 -5 10 -10 16 -10 5 0 9 5 9 10 0 6 -7 10 -16 10 -8
0 -12 -4 -9 -10z"/>
<path d="M25360 26386 c-35 -13 -35 -13 -11 -25 18 -10 29 -10 52 -1 32 14 37
25 13 34 -9 3 -16 6 -17 5 -1 0 -18 -6 -37 -13z"/>
<path d="M24486 26371 c-4 -7 -5 -15 -2 -18 9 -9 19 4 14 18 -4 11 -6 11 -12
0z"/>
<path d="M21272 26350 c0 -14 2 -19 5 -12 2 6 2 18 0 25 -3 6 -5 1 -5 -13z"/>
<path d="M24425 26360 c3 -5 15 -10 26 -10 11 0 17 5 14 10 -3 6 -15 10 -26
10 -11 0 -17 -4 -14 -10z"/>
<path d="M22185 26350 c3 -5 11 -10 16 -10 6 0 7 5 4 10 -3 6 -11 10 -16 10
-6 0 -7 -4 -4 -10z"/>
<path d="M23520 26345 c0 -8 5 -15 10 -15 6 0 10 7 10 15 0 8 -4 15 -10 15 -5
0 -10 -7 -10 -15z"/>
<path d="M23480 26295 c0 -55 15 -75 24 -32 9 42 3 87 -11 87 -9 0 -13 -16
-13 -55z"/>
<path d="M24283 26332 c-7 -4 -16 -23 -19 -41 -7 -32 -6 -32 15 -20 11 8 21
18 22 24 0 5 2 18 4 28 4 18 -3 21 -22 9z"/>
<path d="M22845 26320 c4 -6 11 -8 16 -5 14 9 11 15 -7 15 -8 0 -12 -5 -9 -10z"/>
<path d="M21248 26313 c7 -3 16 -2 19 1 4 3 -2 6 -13 5 -11 0 -14 -3 -6 -6z"/>
<path d="M22133 26310 c-31 -12 -29 -30 2 -30 14 0 25 2 25 4 0 2 3 11 6 20 7
18 0 19 -33 6z"/>
<path d="M22212 26275 c-1 -32 3 -45 13 -45 22 0 27 18 15 55 -16 48 -27 44
-28 -10z"/>
<path d="M24325 26310 c3 -5 8 -10 11 -10 2 0 4 5 4 10 0 6 -5 10 -11 10 -5 0
-7 -4 -4 -10z"/>
<path d="M25155 26295 c9 -39 11 -41 31 -20 19 19 57 14 81 -11 20 -20 28 -11
14 15 -13 23 -52 37 -76 27 -9 -3 -13 -2 -10 4 3 6 1 10 -4 10 -6 0 -11 -8
-11 -17 0 -15 -2 -14 -16 3 -15 18 -15 18 -9 -11z"/>
<path d="M25200 26256 c0 -8 -5 -16 -12 -18 -8 -3 -9 -6 -1 -11 5 -3 15 5 21
18 7 15 8 25 2 25 -6 0 -10 -6 -10 -14z"/>
<path d="M22150 26250 c0 -6 7 -10 15 -10 8 0 15 2 15 4 0 2 -7 6 -15 10 -8 3
-15 1 -15 -4z"/>
<path d="M23630 26247 c0 -3 12 -12 26 -22 15 -9 23 -12 20 -6 -7 11 -46 35
-46 28z"/>
<path d="M21210 26222 c0 -23 19 -42 43 -42 13 0 17 5 13 16 -3 9 -6 22 -6 30
0 8 -10 14 -25 14 -17 0 -25 -5 -25 -18z"/>
<path d="M24362 26220 c11 -18 9 -23 -16 -45 -41 -35 -73 -33 -90 8 -8 17 -15
25 -15 16 -1 -9 -10 -19 -21 -22 -30 -8 -64 -117 -36 -117 20 0 28 30 14 48
-11 13 -10 15 4 9 11 -4 23 1 32 15 13 18 19 19 46 10 25 -9 37 -8 65 6 30 15
35 22 35 55 0 26 -4 37 -15 37 -13 0 -13 -3 -3 -20z"/>
<path d="M21145 26210 c-17 -19 -19 -30 -5 -30 6 0 10 7 10 15 0 9 9 15 25 15
14 0 25 4 25 9 0 15 -39 8 -55 -9z"/>
<path d="M23353 26223 c-14 -5 -18 -29 -5 -36 4 -3 22 -8 41 -12 l34 -7 -19
25 c-21 29 -33 36 -51 30z"/>
<path d="M21995 26190 c-4 -12 -5 -24 -2 -27 3 -2 8 5 12 17 4 12 5 24 2 27
-3 2 -8 -5 -12 -17z"/>
<path d="M24276 26185 c-9 -23 -8 -25 9 -25 17 0 19 9 6 28 -7 11 -10 10 -15
-3z"/>
<path d="M23433 26166 c-9 -11 -7 -13 13 -13 20 0 22 2 13 13 -13 16 -11 16
-26 0z"/>
<path d="M25047 26143 c-13 -21 -26 -43 -30 -49 -4 -7 5 -11 24 -12 30 -1 31
1 25 30 -6 29 -5 30 24 25 33 -7 35 -5 20 24 -16 29 -37 23 -63 -18z"/>
<path d="M21120 26134 c0 -8 5 -12 10 -9 6 4 8 11 5 16 -9 14 -15 11 -15 -7z"/>
<path d="M21971 26141 c-7 -5 -10 -14 -6 -20 5 -9 10 -9 21 0 26 22 14 38 -15
20z"/>
<path d="M25130 26140 c0 -5 4 -10 9 -10 6 0 13 5 16 10 3 6 -1 10 -9 10 -9 0
-16 -4 -16 -10z"/>
<path d="M21947 26071 c-9 -17 -12 -31 -8 -31 11 0 36 49 29 56 -3 3 -13 -9
-21 -25z"/>
<path d="M23226 26035 c-33 -30 -26 -46 17 -41 22 3 39 -2 55 -17 27 -25 28
-47 2 -80 -27 -34 -25 -43 5 -23 14 9 25 12 25 6 0 -21 20 -9 36 21 24 47 12
89 -36 127 -47 39 -69 40 -104 7z"/>
<path d="M24972 26028 c-5 -19 -5 -34 0 -37 13 -5 17 1 24 37 9 43 -13 42 -24
0z"/>
<path d="M21015 26017 c-4 -13 1 -51 9 -84 9 -34 16 -70 16 -81 0 -19 6 -21
59 -20 l59 1 -10 28 c-5 16 -14 30 -19 30 -5 1 -13 3 -19 4 -5 1 -14 3 -20 4
-5 0 -10 11 -10 24 0 12 -9 36 -20 52 -11 17 -20 38 -20 48 0 25 -19 21 -25
-6z"/>
<path d="M25151 26010 c0 -8 6 -26 15 -40 l15 -25 -7 25 c-3 14 -10 32 -15 40
-7 13 -8 13 -8 0z"/>
<path d="M23192 25941 c1 -17 7 -31 13 -31 15 0 13 52 -3 58 -9 3 -12 -6 -10
-27z"/>
<path d="M25061 25923 c0 -16 3 -22 6 -13 3 8 10 21 16 28 7 8 5 12 -7 12 -11
0 -16 -8 -15 -27z"/>
<path d="M25183 25924 c-7 -7 -13 -20 -13 -28 0 -8 -4 -18 -10 -21 -16 -10
-12 -25 5 -19 8 4 15 14 15 23 0 9 5 22 11 28 6 6 10 16 8 21 -2 6 -9 4 -16
-4z"/>
<path d="M24053 25881 c-11 -17 -8 -23 22 -45 18 -14 38 -26 43 -26 14 0 42
-35 42 -53 0 -20 26 -23 33 -4 4 9 8 8 16 -3 8 -12 13 -12 23 -2 9 9 9 12 0
12 -13 0 -16 28 -6 54 3 9 10 13 15 10 5 -3 9 -1 9 4 0 17 -44 23 -56 7 -13
-17 -34 -20 -34 -4 0 6 -9 8 -20 4 -14 -4 -18 -2 -15 7 6 17 -4 32 -32 47 -28
14 -26 14 -40 -8z"/>
<path d="M22383 25852 c0 -10 6 -19 13 -19 6 0 9 9 6 19 -2 10 -8 18 -13 18
-4 0 -7 -8 -6 -18z"/>
<path d="M22342 25848 c-7 -7 -12 -29 -12 -49 0 -32 -6 -43 -35 -65 -19 -14
-35 -32 -35 -39 0 -7 -6 -15 -12 -18 -7 -2 -10 -7 -7 -11 4 -4 19 7 35 24 29
30 52 41 38 18 -4 -7 2 -5 13 5 11 9 25 17 31 17 6 0 13 -8 15 -17 3 -11 5 -7
6 10 1 22 -3 27 -22 27 -21 0 -22 4 -18 42 2 24 11 48 20 55 9 7 11 13 6 13
-6 0 -16 -5 -23 -12z"/>
<path d="M24950 25835 c-11 -21 -11 -29 1 -52 l14 -26 3 42 c3 38 5 41 25 35
22 -6 22 -6 2 10 -27 21 -29 20 -45 -9z"/>
<path d="M21613 25843 c-7 -3 -13 -17 -13 -33 0 -15 -7 -33 -15 -40 -8 -7 -15
-19 -15 -27 0 -8 -7 -27 -15 -43 -8 -16 -11 -31 -6 -34 5 -3 16 12 25 33 9 23
24 42 37 46 15 5 18 9 9 15 -10 6 -9 15 4 41 16 33 12 50 -11 42z"/>
<path d="M21105 25820 c3 -5 8 -10 11 -10 2 0 4 5 4 10 0 6 -5 10 -11 10 -5 0
-7 -4 -4 -10z"/>
<path d="M22450 25822 c0 -4 9 -13 21 -20 19 -12 19 -11 9 8 -10 19 -30 28
-30 12z"/>
<path d="M21241 25806 c-16 -19 -6 -36 20 -36 10 0 19 -4 19 -10 0 -5 7 -10
15 -10 17 0 55 -69 56 -102 0 -13 3 -17 6 -10 2 6 11 12 19 12 8 0 14 5 14 10
0 6 -7 10 -16 10 -8 0 -12 5 -9 10 12 19 -20 71 -51 86 -18 9 -31 22 -30 32 1
21 -27 27 -43 8z m116 -118 c-3 -8 -6 -5 -6 6 -1 11 2 17 5 13 3 -3 4 -12 1
-19z"/>
<path d="M21640 25790 c0 -19 5 -30 14 -30 8 0 24 -8 36 -18 21 -17 22 -21 11
-55 -7 -20 -17 -37 -22 -37 -5 0 -9 -7 -9 -16 0 -13 -8 -15 -40 -12 -28 2 -40
0 -40 -9 0 -15 11 -16 62 -4 24 6 40 5 47 -2 8 -8 11 -5 11 11 0 12 5 22 10
22 6 0 10 -5 10 -11 0 -8 5 -8 15 1 8 7 15 9 15 4 0 -4 6 1 14 11 12 17 14 17
37 2 29 -21 39 -21 39 -1 0 8 -4 13 -9 10 -5 -3 -12 6 -16 22 -11 46 -130 142
-176 142 -5 0 -9 -13 -9 -30z"/>
<path d="M21120 25788 c0 -18 18 -34 28 -24 3 4 -2 14 -11 23 -16 16 -17 16
-17 1z"/>
<path d="M22350 25781 c0 -12 5 -21 10 -21 6 0 10 6 10 14 0 8 -4 18 -10 21
-5 3 -10 -3 -10 -14z"/>
<path d="M23087 25774 c-8 -8 1 -24 12 -24 4 0 8 7 8 15 0 16 -9 20 -20 9z"/>
<path d="M24120 25745 c0 -8 4 -15 9 -15 5 0 11 7 15 15 3 9 0 15 -9 15 -8 0
-15 -7 -15 -15z"/>
<path d="M24990 25722 c0 -30 4 -42 14 -42 12 0 12 7 4 38 -14 51 -18 52 -18
4z"/>
<path d="M24235 25720 c-9 -29 8 -46 25 -25 11 13 11 19 -2 32 -14 14 -17 13
-23 -7z"/>
<path d="M24092 25687 c-7 -18 -12 -39 -12 -46 0 -7 -14 -24 -30 -38 -35 -29
-34 -37 4 -27 20 5 28 16 37 48 6 22 15 49 21 60 5 10 6 22 1 27 -5 5 -14 -5
-21 -24z"/>
<path d="M24882 25708 c-13 -13 -16 -58 -4 -58 10 0 62 53 62 63 0 12 -45 8
-58 -5z"/>
<path d="M21210 25686 c0 -7 11 -21 25 -30 23 -15 25 -15 25 -1 0 9 -4 14 -9
10 -5 -3 -12 4 -16 15 -7 23 -25 27 -25 6z"/>
<path d="M24130 25690 c0 -5 5 -10 11 -10 5 0 7 5 4 10 -3 6 -8 10 -11 10 -2
0 -4 -4 -4 -10z"/>
<path d="M24275 25682 c-13 -9 -17 -82 -4 -82 5 0 9 7 9 15 0 9 6 15 14 13 17
-3 19 3 10 37 -6 26 -12 30 -29 17z"/>
<path d="M20880 25662 c0 -20 29 -52 47 -52 6 0 13 7 17 15 3 9 0 15 -9 15 -7
0 -17 9 -20 20 -8 25 -35 26 -35 2z"/>
<path d="M23042 25634 c2 -27 7 -48 13 -47 15 4 12 85 -3 91 -10 3 -12 -8 -10
-44z"/>
<path d="M22226 25628 c-3 -13 -5 -39 -5 -58 l1 -35 8 35 c5 19 11 45 15 58 4
13 3 22 -3 22 -5 0 -12 -10 -16 -22z"/>
<path d="M23186 25614 c-4 -9 -4 -19 -2 -21 8 -8 26 8 26 23 0 19 -16 18 -24
-2z"/>
<path d="M23888 25598 c-20 -16 -29 -56 -16 -65 6 -3 16 0 22 8 6 8 17 15 25
17 20 4 61 -26 61 -44 0 -10 6 -14 14 -11 8 3 16 -2 19 -14 9 -34 27 -20 27
21 0 34 -3 40 -21 40 -14 0 -19 5 -16 14 6 15 -12 26 -44 26 -10 0 -19 5 -19
10 0 14 -33 12 -52 -2z"/>
<path d="M21732 25565 c0 -16 2 -22 5 -12 2 9 2 23 0 30 -3 6 -5 -1 -5 -18z"/>
<path d="M22380 25534 c0 -25 4 -43 9 -40 5 4 12 0 15 -6 3 -7 3 -2 0 11 -4
15 -2 21 4 17 17 -10 23 10 12 38 -16 44 -40 33 -40 -20z"/>
<path d="M21877 25550 c3 -11 9 -20 14 -20 4 0 7 9 6 20 -1 11 -7 20 -13 20
-7 0 -10 -8 -7 -20z"/>
<path d="M21483 25543 c-7 -2 -13 -12 -13 -20 0 -19 40 -63 58 -63 6 0 12 -4
12 -10 0 -5 7 -10 16 -10 13 0 14 3 5 13 -6 8 -8 16 -5 20 6 6 -24 57 -41 69
-11 9 -15 9 -32 1z"/>
<path d="M21752 25515 c-1 -16 3 -25 13 -25 8 0 15 5 15 10 0 6 -4 10 -10 10
-5 0 -7 7 -4 15 4 8 2 15 -3 15 -5 0 -10 -11 -11 -25z"/>
<path d="M22231 25504 c0 -11 3 -14 6 -6 3 7 2 16 -1 19 -3 4 -6 -2 -5 -13z"/>
<path d="M23936 25504 c-8 -21 -1 -28 19 -20 9 3 15 11 13 18 -7 19 -25 20
-32 2z"/>
<path d="M22956 25475 c8 -33 21 -46 40 -38 7 2 15 -4 18 -15 8 -25 36 -37 36
-17 0 8 -5 15 -11 15 -5 0 -7 5 -4 10 3 6 -1 10 -11 10 -11 0 -15 6 -11 20 4
17 1 19 -18 14 -16 -4 -26 0 -34 13 -9 15 -10 13 -5 -12z"/>
<path d="M21826 25461 c-3 -5 1 -12 10 -15 24 -9 31 -7 38 9 4 11 -1 15 -19
15 -13 0 -26 -4 -29 -9z"/>
<path d="M23926 25453 c-3 -3 -6 -16 -6 -29 0 -12 -7 -24 -15 -28 -16 -6 -20
-32 -7 -40 14 -9 50 5 57 21 3 9 -2 25 -12 35 -14 15 -15 21 -4 27 8 5 9 11 3
14 -5 4 -12 4 -16 0z"/>
<path d="M22096 25425 c-29 -27 -36 -58 -10 -48 8 3 13 12 10 19 -6 15 12 18
38 8 9 -3 13 -10 10 -15 -3 -5 2 -12 10 -15 20 -8 21 -38 1 -54 -8 -7 -15 -18
-15 -25 0 -24 28 -24 54 0 13 12 30 25 37 27 12 4 1 34 -22 62 -5 6 -18 23
-30 39 -25 33 -48 34 -83 2z"/>
<path d="M21580 25420 c0 -5 7 -10 16 -10 8 0 12 5 9 10 -3 6 -10 10 -16 10
-5 0 -9 -4 -9 -10z"/>
<path d="M22985 25410 c-3 -5 1 -10 10 -10 9 0 13 5 10 10 -3 6 -8 10 -10 10
-2 0 -7 -4 -10 -10z"/>
<path d="M23839 25386 c-7 -14 -16 -26 -21 -26 -6 0 -8 -5 -6 -11 2 -6 7 -10
12 -9 5 1 12 -4 17 -11 5 -8 7 -1 7 19 -1 18 2 35 5 39 4 3 7 -1 7 -10 0 -9 5
-17 10 -17 15 0 12 26 -5 40 -12 10 -17 7 -26 -14z"/>
<path d="M23784 25375 c-6 -23 0 -45 10 -34 10 12 15 59 6 59 -5 0 -12 -11
-16 -25z"/>
<path d="M21378 25371 c-16 -9 -28 -20 -28 -24 0 -4 -11 -25 -25 -45 -31 -45
-32 -69 -3 -93 23 -21 28 -22 44 -11 13 9 14 82 0 82 -5 0 -6 3 -3 6 3 4 2 15
-3 25 -11 19 -7 25 35 54 29 20 15 25 -17 6z"/>
<path d="M21431 25354 c0 -11 3 -14 6 -6 3 7 2 16 -1 19 -3 4 -6 -2 -5 -13z"/>
<path d="M23047 25350 c-3 -11 -1 -20 4 -20 5 0 9 6 9 14 0 8 6 17 13 19 7 4
6 6 -4 6 -9 1 -19 -8 -22 -19z"/>
<path d="M22070 25329 c0 -18 2 -19 15 -9 15 12 12 30 -6 30 -5 0 -9 -10 -9
-21z"/>
<path d="M22915 25320 c-3 -5 1 -10 9 -10 8 0 18 5 21 10 3 6 -1 10 -9 10 -8
0 -18 -4 -21 -10z"/>
<path d="M22862 25269 c-30 -40 -33 -59 -11 -59 5 0 12 8 16 18 3 9 13 25 21
35 13 14 13 17 1 17 -12 0 -11 2 1 10 8 5 12 12 8 15 -3 3 -19 -13 -36 -36z"/>
<path d="M23810 25295 c0 -8 5 -15 10 -15 6 0 10 7 10 15 0 8 -4 15 -10 15 -5
0 -10 -7 -10 -15z"/>
<path d="M23838 25286 c-9 -12 -20 -39 -23 -59 -9 -45 9 -50 42 -10 13 14 23
21 23 15 0 -7 5 -12 10 -12 6 0 10 9 10 20 0 13 -9 22 -26 26 -18 5 -22 10
-15 17 6 6 11 15 11 19 0 15 -15 8 -32 -16z"/>
<path d="M24716 25294 c-4 -9 0 -24 9 -34 8 -9 15 -22 15 -28 0 -7 5 -12 10
-12 6 0 10 4 10 10 0 5 7 7 15 4 11 -5 13 -2 9 10 -3 9 -13 16 -21 16 -9 0
-13 6 -10 14 5 13 -10 36 -24 36 -4 0 -10 -7 -13 -16z"/>
<path d="M23035 25245 c-4 -11 -13 -34 -21 -52 -29 -65 -4 -100 37 -50 22 26
24 76 5 103 -14 19 -15 19 -21 -1z"/>
<path d="M21947 25203 c-11 -10 -8 -53 3 -53 6 0 15 -11 20 -25 6 -15 17 -25
30 -25 11 0 20 -7 20 -15 0 -8 -5 -15 -11 -15 -16 0 -2 -17 20 -23 15 -3 17 0
13 17 -8 33 -33 66 -44 60 -7 -4 -8 5 -3 25 4 20 3 31 -4 31 -6 0 -11 -4 -11
-10 0 -5 -5 -10 -11 -10 -7 0 -9 10 -5 25 6 24 -3 33 -17 18z"/>
<path d="M24770 25166 c0 -20 11 -46 19 -46 4 0 6 14 3 30 -4 30 -22 43 -22
16z"/>
<path d="M24656 25151 c-8 -12 6 -141 14 -136 4 3 5 26 2 52 -5 43 -4 47 11
35 31 -26 37 -7 8 26 -17 17 -32 28 -35 23z"/>
<path d="M22674 25122 c-18 -16 -35 -42 -39 -62 -7 -35 -7 -35 12 -15 11 11
19 25 17 30 -5 15 17 40 51 58 24 13 26 16 10 16 -11 1 -34 -12 -51 -27z"/>
<path d="M22830 25115 c7 -8 16 -12 21 -9 13 8 1 24 -18 24 -13 0 -13 -3 -3
-15z"/>
<path d="M21165 25109 c-9 -13 -6 -15 30 -22 17 -4 24 -4 18 -1 -7 3 -13 12
-13 20 0 16 -26 19 -35 3z"/>
<path d="M23653 25099 c-29 -10 -30 -45 -3 -54 11 -4 34 -18 50 -31 32 -27 70
-26 70 2 0 18 -48 64 -66 64 -7 0 -17 6 -21 14 -6 9 -15 11 -30 5z"/>
<path d="M21237 25093 c-8 -7 11 -33 23 -33 5 0 6 9 3 20 -5 20 -15 25 -26 13z"/>
<path d="M22800 25071 c0 -18 26 -31 38 -19 19 19 14 28 -13 28 -14 0 -25 -4
-25 -9z"/>
<path d="M21130 25056 c0 -8 6 -16 14 -19 10 -4 12 0 9 14 -6 22 -23 26 -23 5z"/>
<path d="M21120 25020 c0 -5 5 -10 10 -10 6 0 10 5 10 10 0 6 -4 10 -10 10 -5
0 -10 -4 -10 -10z"/>
<path d="M22042 24970 c-1 -32 -9 -65 -18 -79 -15 -21 -15 -24 -1 -38 20 -21
45 -10 58 24 13 35 4 74 -15 67 -11 -4 -16 5 -19 38 -3 40 -4 39 -5 -12z"/>
<path d="M21112 24968 c2 -15 11 -24 26 -26 27 -4 28 1 5 28 -23 26 -35 25
-31 -2z"/>
<path d="M24573 24975 c-16 -13 -16 -16 -3 -25 8 -5 22 -10 31 -10 9 0 28 -9
43 -21 16 -13 36 -19 53 -17 l28 4 -25 11 c-24 11 -24 12 -2 12 31 1 28 19 -5
27 -16 3 -37 9 -48 14 -42 17 -54 18 -72 5z"/>
<path d="M21801 24926 c-6 -7 -8 -15 -5 -18 7 -8 44 2 44 12 0 15 -28 19 -39
6z"/>
<path d="M22590 24934 c0 -10 28 -34 39 -34 16 0 13 11 -6 26 -19 14 -33 18
-33 8z"/>
<path d="M22760 24921 c0 -6 5 -13 10 -16 6 -3 10 1 10 9 0 9 -4 16 -10 16 -5
0 -10 -4 -10 -9z"/>
<path d="M22542 24908 c-7 -7 -12 -31 -12 -55 0 -23 -7 -61 -16 -83 -9 -23
-13 -44 -9 -48 4 -4 10 -1 12 6 7 19 19 14 31 -13 6 -14 16 -25 22 -25 13 0
13 37 0 45 -8 5 -7 11 1 21 12 15 6 29 -14 29 -16 0 -21 93 -6 111 15 18 7 28
-9 12z"/>
<path d="M22792 24900 c0 -14 2 -19 5 -12 2 6 2 18 0 25 -3 6 -5 1 -5 -13z"/>
<path d="M23795 24893 c-16 -16 -16 -18 1 -30 22 -16 63 -28 70 -20 9 8 -15
46 -36 57 -14 7 -23 6 -35 -7z"/>
<path d="M21810 24887 c0 -7 -13 -26 -30 -42 -16 -16 -30 -33 -30 -39 0 -5 3
-6 6 -3 4 3 16 1 27 -5 17 -9 19 -8 14 6 -12 30 15 28 44 -5 16 -18 29 -27 29
-21 0 6 9 20 20 30 19 17 19 20 4 33 -9 7 -20 23 -25 36 -9 25 -59 33 -59 10z"/>
<path d="M23553 24876 c-6 -7 -13 -24 -15 -37 -2 -19 -11 -25 -46 -32 -32 -6
-46 -15 -58 -38 -17 -33 -16 -80 3 -86 14 -5 36 58 27 80 -7 19 20 24 31 7 11
-18 27 -11 20 9 -4 14 0 20 18 23 20 4 23 1 19 -19 -2 -13 0 -23 6 -23 13 0
36 29 29 37 -4 3 0 11 8 17 17 12 10 56 -9 56 -6 0 -4 5 4 10 12 8 12 10 -5 9
-11 0 -25 -6 -32 -13z m37 -36 c0 -5 -5 -10 -11 -10 -5 0 -7 5 -4 10 3 6 8 10
11 10 2 0 4 -4 4 -10z"/>
<path d="M22562 24855 c0 -16 2 -22 5 -12 2 9 2 23 0 30 -3 6 -5 -1 -5 -18z"/>
<path d="M24274 24852 c-19 -13 -25 -42 -9 -42 8 0 15 9 15 19 0 11 6 22 13
24 6 3 8 6 2 6 -5 0 -15 -3 -21 -7z"/>
<path d="M24320 24846 c0 -8 -6 -17 -12 -19 -7 -3 -8 -6 -3 -6 6 0 21 8 35 19
l25 20 -22 0 c-13 0 -23 -6 -23 -14z"/>
<path d="M22637 24830 c-14 -14 -15 -19 -5 -23 7 -3 3 -6 -9 -6 -13 -1 -23 -5
-23 -10 0 -11 106 -25 120 -16 15 9 12 25 -5 25 -9 0 -15 9 -15 21 0 18 -2 19
-15 9 -12 -10 -15 -10 -15 4 0 21 -10 20 -33 -4z"/>
<path d="M24403 24844 c-7 -3 -9 -12 -6 -20 3 -7 9 -11 14 -8 5 3 14 -7 20
-23 l10 -28 19 24 c30 40 -7 75 -57 55z"/>
<path d="M21003 24818 c-4 -7 -8 -25 -9 -40 -1 -20 4 -27 22 -31 18 -3 24 1
29 21 3 13 4 27 0 30 -3 3 -5 -2 -5 -11 0 -9 -7 -17 -15 -17 -21 0 -19 30 3
46 16 12 16 13 0 14 -9 0 -20 -6 -25 -12z"/>
<path d="M23637 24813 c-12 -12 -7 -22 8 -17 8 4 15 10 15 15 0 11 -14 12 -23
2z"/>
<path d="M21710 24748 c-21 -48 -21 -86 0 -73 5 3 10 11 10 17 0 5 8 22 18 36
28 40 33 68 11 69 -12 1 -24 -14 -39 -49z"/>
<path d="M24544 24778 c1 -13 10 -24 19 -26 20 -4 21 7 3 31 -18 23 -27 21
-22 -5z"/>
<path d="M22790 24740 c-13 -9 -12 -13 8 -27 12 -8 22 -24 22 -34 0 -11 5 -19
10 -19 6 0 10 -9 10 -20 0 -13 7 -20 18 -20 29 0 34 12 12 27 -11 8 -20 22
-20 31 0 9 -10 29 -23 44 -17 22 -25 26 -37 18z"/>
<path d="M23578 24728 c-7 -19 15 -101 28 -105 6 -2 14 4 18 13 4 12 2 15 -9
10 -10 -3 -15 1 -15 13 0 10 7 21 15 25 20 7 19 24 -2 29 -10 3 2 5 27 6 33 1
41 4 30 11 -22 14 -87 12 -92 -2z"/>
<path d="M24335 24730 c-3 -5 -1 -10 4 -10 6 0 11 5 11 10 0 6 -2 10 -4 10 -3
0 -8 -4 -11 -10z"/>
<path d="M21840 24698 c0 -14 -3 -33 -6 -41 -5 -15 20 -47 38 -47 6 0 8 9 5
20 -3 11 -1 20 4 20 5 0 9 17 9 38 0 33 -3 37 -25 37 -20 0 -25 -5 -25 -27z"/>
<path d="M24481 24714 c0 -11 3 -14 6 -6 3 7 2 16 -1 19 -3 4 -6 -2 -5 -13z"/>
<path d="M20928 24651 c-16 -27 -28 -57 -27 -67 0 -18 1 -18 12 0 7 10 22 28
33 38 13 12 20 27 17 39 -3 11 0 19 6 19 7 0 9 5 6 10 -11 18 -20 11 -47 -39z"/>
<path d="M24470 24661 c0 -17 -4 -19 -32 -10 -17 5 -33 7 -35 5 -6 -5 68 -76
79 -76 6 0 8 12 5 29 -4 19 -2 31 6 34 8 2 6 9 -6 21 -16 17 -17 16 -17 -3z"/>
<path d="M21028 24644 c-4 -5 0 -18 8 -28 12 -18 14 -18 20 -2 4 9 4 20 0 23
-3 4 -6 0 -7 -8 0 -8 -3 -6 -8 5 -4 11 -10 15 -13 10z"/>
<path d="M21578 24626 c-22 -30 -23 -72 -3 -120 19 -44 23 -45 18 -3 -4 25 -2
29 7 17 9 -12 10 -11 5 8 -9 32 4 82 22 82 22 0 11 35 -12 37 -12 2 -27 -7
-37 -21z"/>
<path d="M21034 24528 c-1 -64 10 -86 33 -66 19 16 17 108 -2 108 -8 0 -15 5
-15 10 0 6 -3 10 -8 10 -4 0 -8 -28 -8 -62z"/>
<path d="M23410 24549 c-14 -24 -6 -49 14 -49 8 0 23 -11 34 -25 22 -28 48
-34 38 -9 -4 12 -2 15 9 10 11 -4 8 4 -7 26 -55 76 -69 84 -88 47z"/>
<path d="M21680 24544 c0 -8 5 -12 10 -9 6 4 8 11 5 16 -9 14 -15 11 -15 -7z"/>
<path d="M21728 24553 c7 -3 16 -2 19 1 4 3 -2 6 -13 5 -11 0 -14 -3 -6 -6z"/>
<path d="M24480 24543 c0 -13 3 -14 12 -5 20 20 31 14 24 -14 -7 -25 -6 -25 9
-10 14 13 15 19 5 31 -17 21 -50 19 -50 -2z"/>
<path d="M21730 24520 c0 -5 7 -10 16 -10 8 0 12 5 9 10 -3 6 -10 10 -16 10
-5 0 -9 -4 -9 -10z"/>
<path d="M23244 24498 c-28 -34 -44 -65 -44 -89 0 -16 4 -19 20 -14 15 5 20 2
21 -12 1 -10 6 -2 13 17 6 20 21 50 34 67 12 17 22 36 22 42 0 20 -46 12 -66
-11z"/>
<path d="M22308 24442 c-9 -10 -18 -28 -21 -42 -2 -14 -2 -19 0 -12 3 8 13 12
24 9 10 -3 17 -2 14 3 -3 4 5 10 17 13 12 4 19 9 15 13 -4 4 -2 13 4 21 18 20
-32 16 -53 -5z"/>
<path d="M23520 24425 c0 -33 22 -48 54 -35 14 5 26 12 26 16 0 3 -7 4 -15 0
-8 -3 -14 -2 -14 2 3 21 -3 30 -26 34 -21 4 -25 1 -25 -17z"/>
<path d="M23196 24365 c-12 -32 -6 -44 29 -61 52 -24 87 -4 48 27 -13 11 -17
11 -20 2 -9 -25 -34 -14 -31 13 3 30 -16 44 -26 19z"/>
<path d="M23330 24349 c0 -5 5 -7 10 -4 6 3 10 8 10 11 0 2 -4 4 -10 4 -5 0
-10 -5 -10 -11z"/>
<path d="M23570 24350 c0 -5 5 -10 10 -10 6 0 10 5 10 10 0 6 -4 10 -10 10 -5
0 -10 -4 -10 -10z"/>
<path d="M22231 24329 c-49 -26 -70 -49 -77 -88 -7 -31 -6 -32 14 -20 11 7 19
16 17 20 -3 3 3 13 13 21 20 17 68 22 77 8 10 -16 55 -12 55 4 0 28 -12 46
-31 46 -10 0 -19 7 -19 15 0 18 -6 18 -49 -6z"/>
<path d="M23361 24336 c-13 -7 -20 -16 -15 -19 16 -9 64 5 64 19 0 17 -18 17
-49 0z"/>
<path d="M23600 24330 c-12 -8 -12 -10 3 -16 21 -8 35 2 21 16 -5 5 -15 6 -24
0z"/>
<path d="M23645 24290 c3 -5 8 -10 11 -10 2 0 4 5 4 10 0 6 -5 10 -11 10 -5 0
-7 -4 -4 -10z"/>
<path d="M21457 24271 c-18 -19 -36 -91 -22 -91 11 0 45 41 45 54 0 6 3 21 6
34 7 26 -4 28 -29 3z"/>
<path d="M23396 24231 c-4 -6 -1 -18 8 -26 19 -20 29 -3 12 20 -9 13 -15 15
-20 6z"/>
<path d="M24261 24117 c-9 -12 -10 -21 -1 -36 6 -12 15 -21 20 -21 4 0 15 -3
23 -6 17 -6 29 19 20 41 -3 9 -11 14 -17 12 -6 -2 -16 3 -22 11 -9 12 -12 12
-23 -1z"/>
<path d="M22072 24097 c-7 -8 -7 -19 2 -36 8 -14 16 -19 20 -13 11 18 37 2 31
-19 -7 -21 19 -54 34 -44 16 10 24 -15 9 -33 -30 -39 -40 -64 -28 -76 8 -8 15
-7 24 6 19 25 64 34 72 14 5 -12 10 -14 19 -6 6 5 15 7 18 3 4 -3 7 -1 7 6 0
6 -8 11 -17 9 -10 -2 -18 2 -18 7 0 6 -10 27 -22 48 -20 33 -38 43 -67 38 -5
-1 -6 5 -3 14 4 8 2 15 -3 15 -6 0 -10 7 -10 15 0 8 -4 15 -10 15 -5 0 -12 11
-16 25 -7 27 -25 33 -42 12z"/>
<path d="M22237 24067 c-11 -29 -9 -53 4 -40 6 6 9 21 7 34 -3 21 -4 22 -11 6z"/>
<path d="M24310 24033 c0 -5 5 -15 10 -23 8 -12 10 -11 10 8 0 12 -4 22 -10
22 -5 0 -10 -3 -10 -7z"/>
<path d="M21172 23958 c-17 -17 -15 -55 4 -62 30 -12 44 17 28 58 -7 19 -16
20 -32 4z"/>
<path d="M21353 23953 c-7 -2 -13 -8 -13 -13 0 -10 38 -1 46 11 6 10 -13 11
-33 2z"/>
<path d="M24051 23936 c-10 -12 -8 -13 8 -9 12 3 21 9 21 14 0 14 -16 11 -29
-5z"/>
<path d="M24391 23924 c0 -11 3 -14 6 -6 3 7 2 16 -1 19 -3 4 -6 -2 -5 -13z"/>
<path d="M24011 23896 c-8 -10 -9 -16 -1 -21 5 -3 13 1 16 10 9 22 -1 29 -15
11z"/>
<path d="M24114 23902 c-9 -5 -5 -29 14 -87 14 -44 28 -73 30 -65 3 8 11 21
19 28 20 20 16 48 -13 92 -28 42 -32 44 -50 32z"/>
<path d="M24435 23870 c3 -5 10 -10 16 -10 5 0 9 5 9 10 0 6 -7 10 -16 10 -8
0 -12 -4 -9 -10z"/>
<path d="M21300 23863 c-36 -7 -60 -32 -59 -62 1 -17 3 -20 6 -8 6 21 33 23
33 1 0 -8 5 -12 10 -9 6 4 8 11 5 16 -4 5 2 9 13 9 14 0 19 7 19 30 0 17 -1
29 -1 29 -1 -1 -12 -4 -26 -6z"/>
<path d="M22111 23851 c-15 -27 -14 -31 9 -31 13 0 20 7 20 19 0 28 -17 35
-29 12z"/>
<path d="M24018 23843 c7 -3 16 -2 19 1 4 3 -2 6 -13 5 -11 0 -14 -3 -6 -6z"/>
<path d="M21325 23780 c3 -5 10 -10 16 -10 5 0 9 5 9 10 0 6 -7 10 -16 10 -8
0 -12 -4 -9 -10z"/>
<path d="M21206 23738 c-22 -31 -20 -38 9 -25 14 7 25 20 25 30 0 24 -16 21
-34 -5z"/>
<path d="M22979 23711 c-22 -26 -89 -55 -75 -32 9 13 -9 22 -28 15 -21 -8 -20
-20 4 -55 l21 -28 -21 -40 c-15 -31 -18 -46 -10 -65 13 -34 40 -34 40 0 0 14
12 38 27 54 21 23 31 27 50 19 18 -6 23 -5 23 6 0 8 -7 15 -16 15 -13 0 -13 5
5 33 11 19 18 37 14 40 -3 4 -1 7 7 7 10 0 10 3 0 15 -11 13 -8 14 19 9 24 -5
31 -3 31 9 0 22 -20 32 -31 16 -6 -10 -9 -11 -9 -1 0 21 -27 13 -51 -17z"/>
<path d="M21026 23685 c-11 -8 -15 -15 -9 -15 7 0 14 4 17 9 8 12 44 2 43 -12
-1 -39 5 -59 25 -77 12 -11 16 -20 9 -20 -6 0 -17 -13 -22 -30 -6 -16 -15 -30
-20 -30 -5 0 -9 -4 -9 -10 0 -35 85 30 96 74 6 26 5 28 -17 21 -20 -6 -22 -5
-11 6 6 7 12 19 12 26 0 14 -46 63 -60 63 -4 0 -14 2 -22 5 -7 2 -22 -2 -32
-10z"/>
<path d="M23827 23684 c-10 -10 -9 -104 2 -104 5 0 11 14 13 32 6 37 -4 83
-15 72z"/>
<path d="M21003 23652 c-26 -16 -45 -112 -23 -112 6 0 10 9 10 19 0 11 5 23
11 27 6 3 8 17 5 29 -4 14 -1 25 7 28 6 2 10 7 7 10 -3 3 -11 3 -17 -1z"/>
<path d="M23058 23548 c9 -9 15 -9 24 0 9 9 7 12 -12 12 -19 0 -21 -3 -12 -12z"/>
<path d="M23850 23540 c0 -20 -2 -22 -10 -10 -16 25 -11 -1 12 -70 22 -61 33
-79 51 -80 11 0 9 38 -3 45 -6 4 -8 10 -6 14 7 11 -13 82 -30 106 -14 19 -14
19 -14 -5z"/>
<path d="M23225 23466 c-43 -62 -44 -94 -2 -52 15 15 27 33 27 41 0 8 4 15 9
15 5 0 11 11 13 25 8 39 -6 30 -47 -29z"/>
<path d="M21760 23466 c0 -22 3 -27 11 -19 8 8 8 16 0 30 -9 16 -10 14 -11
-11z"/>
<path d="M20752 23458 c-16 -21 -44 -147 -37 -168 8 -25 25 -26 26 -2 1 17 0
23 -8 54 -3 11 2 17 18 20 17 2 26 13 34 41 6 21 15 34 19 30 5 -4 6 0 3 10
-4 10 -7 21 -7 23 0 10 -38 3 -48 -8z"/>
<path d="M21795 23450 c-3 -5 0 -12 6 -15 5 -4 8 -13 5 -21 -3 -8 1 -14 9 -14
20 0 20 46 0 53 -8 4 -17 2 -20 -3z"/>
<path d="M21768 23403 c7 -3 16 -2 19 1 4 3 -2 6 -13 5 -11 0 -14 -3 -6 -6z"/>
<path d="M23646 23378 c-8 -13 -18 -35 -21 -50 -6 -22 -4 -28 9 -28 15 0 38
38 40 65 1 5 12 12 26 15 l25 6 -25 7 c-36 10 -38 9 -54 -15z"/>
<path d="M21666 23365 c-30 -31 -8 -59 24 -30 12 11 20 13 25 5 5 -8 11 -8 22
1 12 11 14 10 11 -2 -3 -15 2 -19 28 -19 11 0 15 6 11 20 -3 10 0 21 6 23 6 2
-7 3 -29 3 -21 -1 -49 3 -60 7 -15 5 -27 3 -38 -8z"/>
<path d="M23136 23327 c-35 -55 -58 -127 -41 -127 10 0 65 61 65 71 0 4 -6 10
-12 13 -7 3 -2 3 11 0 20 -5 23 -3 18 11 -4 9 -3 24 2 33 5 9 5 26 1 37 -6 17
-12 12 -44 -38z"/>
<path d="M21920 23356 c0 -2 7 -6 15 -10 8 -3 15 -1 15 4 0 6 -7 10 -15 10 -8
0 -15 -2 -15 -4z"/>
<path d="M20865 23290 c-7 -11 22 -26 32 -16 4 3 0 6 -8 6 -11 0 -11 2 1 10
13 8 13 10 -2 10 -9 0 -20 -5 -23 -10z"/>
<path d="M20770 23266 c0 -8 6 -16 13 -18 20 -8 36 2 30 18 -7 18 -43 18 -43
0z"/>
<path d="M21527 23182 c-24 -26 -23 -50 1 -29 22 20 32 21 32 4 0 -8 11 -19
24 -26 20 -11 22 -17 16 -47 -14 -62 42 -73 64 -12 10 28 -18 98 -39 98 -7 0
-18 7 -25 15 -17 20 -53 19 -73 -3z"/>
<path d="M20539 23158 c-16 -21 -19 -33 -11 -36 7 -2 12 -10 12 -18 0 -21 19
-7 30 22 5 13 16 24 24 24 9 0 12 7 9 20 -8 30 -39 24 -64 -12z"/>
<path d="M22277 23153 c-11 -10 -8 -43 4 -43 5 0 8 4 5 9 -3 5 1 12 10 15 8 3
12 10 9 16 -7 12 -19 13 -28 3z"/>
<path d="M22450 23122 c0 -10 -5 -23 -11 -29 -19 -19 9 -25 36 -7 20 13 23 19
13 25 -11 7 -11 9 0 9 7 0 10 5 7 10 -11 17 -45 11 -45 -8z"/>
<path d="M21490 23110 c-8 -5 -11 -12 -7 -16 3 -4 13 -1 22 6 12 10 15 10 15
-4 0 -9 -10 -21 -22 -26 -23 -9 -23 -9 -2 -9 21 -1 34 16 34 45 0 16 -18 18
-40 4z"/>
<path d="M20506 23078 c-8 -31 -8 -63 1 -55 7 8 16 77 9 77 -2 0 -6 -10 -10
-22z"/>
<path d="M22570 23070 c-6 -11 -8 -20 -5 -20 3 0 -2 -11 -11 -25 -18 -28 -10
-53 11 -32 18 18 45 84 37 91 -10 11 -21 6 -32 -14z"/>
<path d="M20653 23070 c-26 -11 -30 -25 -9 -33 9 -3 21 4 30 19 18 26 14 28
-21 14z"/>
<path d="M20696 23044 c-9 -24 -7 -27 9 -10 17 17 19 26 6 26 -5 0 -12 -7 -15
-16z"/>
<path d="M21550 23040 c0 -11 7 -20 15 -20 8 0 15 6 15 14 0 8 -7 16 -15 20
-10 4 -15 -1 -15 -14z"/>
<path d="M20595 23020 c-3 -5 -2 -10 4 -10 5 0 13 5 16 10 3 6 2 10 -4 10 -5
0 -13 -4 -16 -10z"/>
<path d="M23395 23003 c-16 -39 -15 -76 3 -89 23 -17 14 -24 -47 -31 -33 -4
-51 -10 -51 -19 0 -16 16 -19 25 -4 3 6 13 10 21 10 8 0 14 -4 14 -10 0 -5 -6
-10 -14 -10 -8 0 -17 -7 -20 -16 -5 -13 -2 -15 11 -9 32 14 73 18 73 7 0 -6
-4 -13 -10 -17 -6 -3 -5 -15 2 -30 12 -27 24 -32 31 -12 4 9 6 8 6 -2 1 -11 6
-10 21 4 22 20 28 60 7 52 -27 -10 -50 21 -49 65 2 43 15 60 39 51 7 -3 13 0
13 6 0 6 -7 11 -15 11 -8 0 -15 5 -15 12 0 6 -9 3 -20 -7 -19 -18 -20 -17 -20
5 0 19 4 22 28 17 15 -3 34 -2 42 3 11 7 8 11 -13 19 -40 15 -54 14 -62 -6z"/>
<path d="M22390 22995 c7 -9 15 -13 17 -11 7 7 -7 26 -19 26 -6 0 -6 -6 2 -15z"/>
<path d="M20525 22990 c-3 -5 3 -10 14 -10 12 0 21 5 21 10 0 6 -6 10 -14 10
-8 0 -18 -4 -21 -10z"/>
<path d="M22435 22980 c3 -5 11 -10 16 -10 6 0 7 5 4 10 -3 6 -11 10 -16 10
-6 0 -7 -4 -4 -10z"/>
<path d="M22580 22971 c0 -5 7 -14 15 -21 16 -14 18 -10 9 14 -6 17 -24 22
-24 7z"/>
<path d="M20652 22931 c-14 -38 -11 -49 7 -27 7 8 11 25 9 38 -3 20 -5 19 -16
-11z"/>
<path d="M22492 22932 c9 -10 9 -15 -1 -22 -10 -6 -8 -10 8 -15 11 -3 21 -11
21 -16 0 -5 9 0 21 12 25 25 13 45 -31 51 -24 4 -28 2 -18 -10z"/>
<path d="M21420 22900 c0 -5 5 -10 10 -10 6 0 10 5 10 10 0 6 -4 10 -10 10 -5
0 -10 -4 -10 -10z"/>
<path d="M21352 22864 c-1 -15 2 -22 8 -19 12 7 13 32 2 39 -4 2 -9 -7 -10
-20z"/>
<path d="M21450 22880 c0 -5 5 -10 10 -10 6 0 10 5 10 10 0 6 -4 10 -10 10 -5
0 -10 -4 -10 -10z"/>
<path d="M20316 22864 c-8 -21 22 -45 46 -38 13 4 16 1 12 -10 -7 -19 14 -49
28 -40 5 3 1 13 -9 21 -16 13 -16 14 -1 9 23 -7 13 18 -19 50 -28 28 -48 31
-57 8z"/>
<path d="M22558 22874 c-4 -3 -4 -13 -1 -21 5 -13 2 -13 -15 -4 -22 12 -36 3
-24 -15 16 -25 50 -22 71 7 17 22 18 27 5 22 -9 -3 -19 -1 -23 6 -4 6 -10 9
-13 5z"/>
<path d="M21480 22845 c0 -8 5 -15 10 -15 6 0 10 7 10 15 0 8 -4 15 -10 15 -5
0 -10 -7 -10 -15z"/>
<path d="M21351 22806 c-9 -10 -9 -16 -1 -21 17 -10 37 12 24 25 -8 8 -15 6
-23 -4z"/>
<path d="M21385 22770 c-4 -6 -13 -9 -21 -6 -8 3 -14 -1 -14 -9 0 -20 36 -19
44 1 8 20 1 30 -9 14z"/>
<path d="M23297 22763 c-4 -3 -7 -11 -7 -17 0 -6 5 -5 12 2 6 6 9 14 7 17 -3
3 -9 2 -12 -2z"/>
<path d="M20400 22750 c0 -5 5 -10 10 -10 6 0 10 5 10 10 0 6 -4 10 -10 10 -5
0 -10 -4 -10 -10z"/>
<path d="M21261 22743 c-9 -10 -10 -18 -3 -25 7 -7 12 -3 17 12 9 27 4 32 -14
13z"/>
<path d="M23245 22710 c4 -6 11 -8 16 -5 14 9 11 15 -7 15 -8 0 -12 -5 -9 -10z"/>
<path d="M23280 22713 c0 -5 5 -15 10 -23 8 -12 10 -11 10 8 0 12 -4 22 -10
22 -5 0 -10 -3 -10 -7z"/>
<path d="M23180 22695 c0 -8 5 -15 10 -15 6 0 10 7 10 15 0 8 -4 15 -10 15 -5
0 -10 -7 -10 -15z"/>
<path d="M20473 22679 c-18 -12 -33 -27 -33 -35 0 -22 15 -17 60 21 30 25 37
35 23 35 -10 0 -33 -10 -50 -21z"/>
<path d="M22258 22653 c-16 -8 -28 -18 -28 -24 0 -13 9 -11 26 6 9 8 26 15 40
15 13 0 24 5 24 10 0 14 -30 11 -62 -7z"/>
<path d="M23172 22585 c-2 -61 0 -75 12 -75 12 0 14 13 11 66 -5 94 -21 99
-23 9z"/>
<path d="M20213 22628 c-12 -16 -4 -100 8 -92 5 3 9 13 9 23 0 11 10 21 23 25
21 6 21 7 5 20 -10 7 -18 18 -18 25 0 15 -15 14 -27 -1z"/>
<path d="M21230 22630 c0 -5 7 -10 15 -10 8 0 15 5 15 10 0 6 -7 10 -15 10 -8
0 -15 -4 -15 -10z"/>
<path d="M21301 22596 c-8 -10 -8 -16 1 -23 18 -15 67 -22 74 -11 3 4 10 6 15
3 5 -4 9 3 9 13 0 14 -9 21 -31 26 -45 9 -55 8 -68 -8z"/>
<path d="M22143 22603 c-7 -2 -13 -14 -13 -25 0 -15 4 -18 23 -12 21 7 37 21
37 37 0 8 -28 8 -47 0z"/>
<path d="M22203 22584 c-4 -10 0 -20 10 -26 9 -4 14 -15 11 -23 -4 -8 -1 -15
5 -15 6 0 11 11 11 25 0 14 4 25 10 25 5 0 7 -7 4 -15 -4 -8 -1 -15 5 -15 6 0
11 11 11 24 0 16 -7 26 -22 30 -34 9 -38 8 -45 -10z"/>
<path d="M20240 22545 c0 -8 5 -15 10 -15 6 0 10 7 10 15 0 8 -4 15 -10 15 -5
0 -10 -7 -10 -15z"/>
<path d="M20280 22553 c0 -5 5 -15 10 -23 8 -12 10 -11 10 8 0 12 -4 22 -10
22 -5 0 -10 -3 -10 -7z"/>
<path d="M22330 22548 c0 -7 4 -19 9 -27 11 -17 23 1 15 23 -7 19 -24 21 -24
4z"/>
<path d="M20221 22488 c-1 -30 13 -38 23 -12 3 8 2 12 -3 9 -5 -3 -12 3 -14
12 -3 11 -5 8 -6 -9z"/>
<path d="M19834 22471 c-28 -17 -64 -69 -64 -93 0 -16 36 -8 53 13 14 15 21
18 31 10 20 -17 53 36 38 60 -8 13 -8 19 1 22 7 3 3 6 -8 6 -11 1 -34 -8 -51
-18z"/>
<path d="M20104 22470 c-34 -13 -59 -100 -29 -100 11 0 13 8 9 30 -6 28 -5 30
24 30 16 0 35 7 42 15 9 10 9 15 1 15 -6 0 -11 -4 -11 -10 0 -5 -4 -10 -10
-10 -14 0 -12 27 3 33 6 3 8 5 2 6 -5 0 -20 -4 -31 -9z"/>
<path d="M22908 22434 c-9 -39 5 -189 19 -202 7 -7 13 -22 13 -33 0 -10 5 -19
11 -19 5 0 7 5 4 11 -11 17 26 50 48 43 13 -4 17 -2 13 5 -4 6 -17 11 -30 11
-50 0 -78 71 -54 137 10 28 10 36 -4 49 -15 15 -16 15 -20 -2z"/>
<path d="M22040 22424 c0 -8 5 -12 10 -9 6 3 10 10 10 16 0 5 -4 9 -10 9 -5 0
-10 -7 -10 -16z"/>
<path d="M20180 22416 c0 -8 -6 -17 -12 -19 -7 -3 -3 -6 9 -6 16 -1 20 3 16
19 -6 23 -13 26 -13 6z"/>
<path d="M22000 22390 c0 -5 5 -10 10 -10 6 0 10 5 10 10 0 6 -4 10 -10 10 -5
0 -10 -4 -10 -10z"/>
<path d="M23020 22380 c0 -5 5 -10 11 -10 5 0 7 5 4 10 -3 6 -8 10 -11 10 -2
0 -4 -4 -4 -10z"/>
<path d="M19753 22344 c-7 -19 -3 -23 27 -26 32 -4 35 15 4 29 -21 10 -26 9
-31 -3z"/>
<path d="M22000 22320 c0 -5 4 -10 9 -10 6 0 13 5 16 10 3 6 -1 10 -9 10 -9 0
-16 -4 -16 -10z"/>
<path d="M23026 22315 c4 -8 7 -15 9 -15 1 0 8 7 15 15 10 13 9 15 -8 15 -15
0 -20 -5 -16 -15z"/>
<path d="M20563 22294 c-3 -8 -1 -20 6 -27 17 -17 13 -49 -9 -77 -21 -27 -26
-50 -11 -50 5 0 12 6 14 13 4 9 6 9 6 0 1 -16 31 -5 31 12 0 21 42 26 62 8 20
-18 23 -17 32 15 6 18 3 22 -13 22 -16 0 -20 8 -23 38 -2 27 -7 36 -19 34 -9
-1 -22 5 -29 13 -16 19 -39 19 -47 -1z"/>
<path d="M19967 22273 c-16 -30 -16 -32 2 -38 25 -8 71 11 71 30 0 8 -4 15
-10 15 -5 0 -10 -7 -10 -15 0 -22 -28 -6 -32 18 -3 20 -5 19 -21 -10z"/>
<path d="M22025 22268 c-8 -21 1 -38 21 -38 18 0 18 11 0 36 -13 17 -15 18
-21 2z"/>
<path d="M19833 22246 c2 -6 18 -11 36 -12 23 -1 30 1 22 9 -14 14 -62 16 -58
3z"/>
<path d="M20946 22210 c-29 -35 -34 -60 -12 -60 20 0 61 69 49 81 -7 7 -19 -1
-37 -21z"/>
<path d="M21040 22216 c0 -9 5 -16 10 -16 6 0 10 4 10 9 0 6 -4 13 -10 16 -5
3 -10 -1 -10 -9z"/>
<path d="M19911 22196 c-18 -46 25 -115 53 -86 8 8 6 14 -7 21 -9 6 -15 14
-12 19 3 5 1 12 -5 15 -6 4 -8 15 -5 25 9 28 -14 34 -24 6z"/>
<path d="M23040 22209 c0 -5 5 -7 10 -4 6 3 10 8 10 11 0 2 -4 4 -10 4 -5 0
-10 -5 -10 -11z"/>
<path d="M21854 22202 c-6 -4 -19 -25 -29 -47 -10 -22 -20 -43 -22 -47 -8 -16
28 -7 45 10 11 11 35 18 65 20 43 1 60 -9 37 -23 -6 -3 -5 -15 2 -31 7 -15 15
-21 21 -15 5 5 6 15 2 22 -5 7 -9 26 -11 42 -2 28 -44 85 -44 59 0 -6 -7 -12
-15 -12 -8 0 -15 7 -15 15 0 16 -18 20 -36 7z"/>
<path d="M19961 22186 c-8 -9 -11 -19 -7 -23 9 -9 29 13 24 27 -2 8 -8 7 -17
-4z"/>
<path d="M21080 22185 c7 -9 15 -13 17 -11 7 7 -7 26 -19 26 -6 0 -6 -6 2 -15z"/>
<path d="M20677 22123 c-41 -82 -60 -114 -68 -119 -16 -9 -10 -24 11 -24 10 0
23 8 29 17 5 10 13 15 17 11 3 -4 15 3 25 16 19 24 21 49 6 74 -5 7 -5 21 -2
32 9 29 -1 24 -18 -7z"/>
<path d="M21072 22141 c4 -13 18 -16 19 -4 0 4 -5 9 -11 12 -7 2 -11 -2 -8 -8z"/>
<path d="M23130 22109 c0 -5 -4 -7 -10 -4 -15 9 -12 -7 5 -29 8 -11 18 -16 22
-12 4 4 2 11 -5 15 -7 4 -10 15 -6 24 3 9 3 17 0 17 -3 0 -6 -5 -6 -11z"/>
<path d="M23010 22094 c0 -8 5 -12 10 -9 6 3 10 10 10 16 0 5 -4 9 -10 9 -5 0
-10 -7 -10 -16z"/>
<path d="M21051 22057 c-26 -42 -27 -57 -3 -57 15 0 15 -2 2 -11 -13 -9 -13
-10 0 -6 8 2 15 13 15 24 1 11 9 28 18 38 10 9 16 22 14 28 -7 23 -26 16 -46
-16z"/>
<path d="M20306 22064 c-3 -7 8 -11 32 -10 19 1 37 6 39 13 5 15 -65 13 -71
-3z"/>
<path d="M21901 22063 c7 -10 14 -19 15 -21 1 -2 4 4 8 13 3 9 2 13 -4 10 -6
-3 -10 -1 -10 4 0 6 -5 11 -11 11 -8 0 -7 -6 2 -17z"/>
<path d="M23095 22050 c-3 -5 -2 -10 4 -10 5 0 13 5 16 10 3 6 2 10 -4 10 -5
0 -13 -4 -16 -10z"/>
<path d="M20253 21984 c-40 -45 -61 -90 -48 -103 10 -9 46 39 39 51 -4 5 10
25 30 44 34 32 46 54 28 54 -4 0 -26 -21 -49 -46z"/>
<path d="M20380 22020 c0 -5 5 -10 10 -10 6 0 10 5 10 10 0 6 -4 10 -10 10 -5
0 -10 -4 -10 -10z"/>
<path d="M20762 21982 c-22 -20 -48 -43 -57 -50 -21 -18 -14 -37 13 -37 12 0
27 -9 35 -19 14 -19 16 -19 31 -3 11 10 15 25 11 36 -6 21 17 77 35 83 6 2 2
8 -9 15 -16 10 -24 6 -59 -25z"/>
<path d="M20980 21999 c-12 -9 -12 -10 4 -5 11 4 23 1 27 -6 4 -7 11 -9 16 -5
4 5 1 12 -7 17 -19 12 -22 12 -40 -1z"/>
<path d="M20880 21975 c0 -2 9 -9 20 -15 16 -9 20 -8 20 5 0 8 -9 15 -20 15
-11 0 -20 -2 -20 -5z"/>
<path d="M20288 21943 c7 -3 16 -2 19 1 4 3 -2 6 -13 5 -11 0 -14 -3 -6 -6z"/>
<path d="M22602 21868 c-23 -18 -41 -38 -41 -44 -1 -6 -8 -17 -17 -25 -43 -35
-52 -109 -13 -109 18 0 23 15 22 58 -1 7 11 12 27 12 26 0 28 3 35 55 3 30 10
55 15 55 4 0 10 7 14 15 8 21 4 19 -42 -17z"/>
<path d="M20117 21870 c-3 -11 -2 -20 2 -20 5 0 16 9 26 20 18 19 17 20 -2 20
-12 0 -23 -8 -26 -20z"/>
<path d="M20891 21874 c0 -11 3 -14 6 -6 3 7 2 16 -1 19 -3 4 -6 -2 -5 -13z"/>
<path d="M20915 21870 c3 -5 8 -10 11 -10 2 0 4 5 4 10 0 6 -5 10 -11 10 -5 0
-7 -4 -4 -10z"/>
<path d="M20096 21815 c-9 -9 -16 -20 -16 -23 0 -4 -10 -12 -22 -17 -34 -15
-32 -59 2 -60 14 -1 33 -5 43 -10 25 -11 31 0 32 55 0 58 -15 79 -39 55z m-26
-75 c0 -5 -4 -10 -10 -10 -5 0 -10 5 -10 10 0 6 5 10 10 10 6 0 10 -4 10 -10z"/>
<path d="M20838 21793 c7 -3 16 -2 19 1 4 3 -2 6 -13 5 -11 0 -14 -3 -6 -6z"/>
<path d="M21452 21768 c-14 -14 -16 -48 -4 -48 5 0 15 -11 22 -25 7 -13 17
-22 21 -19 20 12 -7 -32 -32 -53 -28 -24 -43 -59 -29 -68 5 -3 21 6 37 20 15
13 22 25 15 25 -8 0 1 12 18 26 17 15 34 24 37 20 4 -3 1 -6 -5 -6 -7 0 -12
-4 -12 -10 0 -5 7 -10 15 -10 8 0 15 -4 15 -10 0 -5 5 -10 12 -10 9 0 9 3 1
11 -6 6 -9 28 -6 51 5 35 4 39 -13 36 -13 -2 -18 2 -16 14 1 9 -6 19 -17 23
-10 3 -21 15 -24 25 -6 23 -18 25 -35 8z"/>
<path d="M20553 21709 c-6 -6 -8 -21 -5 -35 l4 -24 19 21 c11 12 19 25 19 29
0 13 -27 19 -37 9z"/>
<path d="M20610 21702 c0 -10 41 -35 47 -28 9 8 -17 36 -33 36 -8 0 -14 -3
-14 -8z"/>
<path d="M22690 21686 c0 -16 5 -26 15 -26 8 0 15 -7 15 -15 0 -9 10 -15 26
-15 20 0 25 4 20 16 -3 9 -6 18 -6 20 0 3 -4 3 -9 0 -5 -3 -20 6 -35 21 l-26
26 0 -27z"/>
<path d="M20593 21673 c4 -3 0 -14 -9 -24 -10 -12 -12 -19 -4 -24 14 -9 42 14
34 27 -4 6 0 14 7 19 10 6 7 9 -10 9 -13 0 -21 -3 -18 -7z"/>
<path d="M19910 21651 c-8 -16 -5 -23 16 -40 30 -24 94 -29 94 -8 0 18 -41 53
-73 61 -20 5 -29 2 -37 -13z m55 -11 c3 -5 -1 -10 -9 -10 -9 0 -16 5 -16 10 0
6 4 10 9 10 6 0 13 -4 16 -10z"/>
<path d="M20591 21601 c-10 -6 -11 -22 -6 -62 9 -66 13 -73 31 -58 11 9 14 9
14 0 0 -7 5 -9 11 -5 13 7 5 69 -13 109 -12 27 -16 29 -37 16z"/>
<path d="M21260 21570 c0 -5 6 -10 13 -11 6 0 1 -5 -12 -10 -22 -9 -23 -13
-17 -56 3 -26 14 -54 23 -63 14 -13 15 -13 10 2 -4 10 1 40 10 67 8 27 13 57
10 65 -7 17 -37 22 -37 6z m11 -73 c-8 -8 -11 -7 -11 4 0 9 3 19 7 23 4 4 9 2
11 -4 3 -7 -1 -17 -7 -23z"/>
<path d="M22804 21566 c-10 -8 -16 -18 -11 -22 4 -4 7 -2 7 4 0 7 6 12 14 12
8 0 18 5 21 10 9 15 -8 12 -31 -4z"/>
<path d="M21320 21545 c-10 -13 -10 -19 4 -33 9 -10 16 -26 16 -35 0 -9 5 -19
11 -23 8 -5 6 -10 -5 -16 -22 -12 -20 -28 4 -28 11 0 20 7 20 15 0 8 5 15 10
15 15 0 12 57 -5 90 -17 33 -36 38 -55 15z"/>
<path d="M22050 21542 c0 -12 19 -26 26 -19 2 2 -2 10 -11 17 -9 8 -15 8 -15
2z"/>
<path d="M20097 21512 c-20 -22 -13 -32 19 -32 29 0 39 16 24 35 -16 19 -23
19 -43 -3z"/>
<path d="M20372 21501 c7 -11 15 -18 20 -15 11 7 -3 34 -18 34 -12 0 -12 -4
-2 -19z"/>
<path d="M22080 21505 c0 -1 16 -19 35 -39 19 -21 35 -43 35 -51 0 -7 9 -15
19 -18 11 -2 21 -15 23 -28 4 -32 24 -35 32 -4 11 45 -3 73 -50 95 -24 12 -44
25 -44 30 0 4 -11 10 -25 12 -14 3 -25 4 -25 3z"/>
<path d="M20325 21490 c-4 -7 -1 -16 6 -21 17 -10 26 8 11 23 -6 6 -12 6 -17
-2z"/>
<path d="M22708 21476 c-41 -23 -50 -46 -18 -46 22 0 70 41 70 60 0 14 -9 12
-52 -14z"/>
<path d="M20260 21443 c-36 -13 -110 -113 -110 -148 0 -29 18 -15 40 31 15 29
27 43 36 40 8 -3 14 -1 14 4 0 6 15 10 33 10 33 1 67 19 67 37 0 6 -7 16 -15
23 -10 9 -15 9 -15 1 0 -6 -10 -11 -22 -10 -22 0 -22 1 -3 9 22 10 0 12 -25 3z"/>
<path d="M20425 21408 c-6 -16 14 -48 29 -48 11 0 6 26 -8 46 -13 18 -15 18
-21 2z"/>
<path d="M20377 21342 c-15 -3 -17 -9 -12 -30 9 -37 9 -37 40 -7 16 14 25 28
21 32 -4 4 -11 1 -16 -6 -7 -12 -9 -12 -11 0 -2 8 -12 13 -22 11z"/>
<path d="M22141 21298 c-6 -16 -4 -28 6 -39 13 -16 16 -15 40 7 14 13 32 24
39 24 27 0 14 18 -17 24 -50 10 -59 7 -68 -16z"/>
<path d="M20545 21212 c-51 -47 -71 -82 -53 -94 18 -11 30 -10 23 2 -3 5 0 7
8 5 7 -3 30 12 50 35 21 22 34 40 30 40 -4 0 -2 4 6 9 16 10 8 41 -11 41 -7 0
-31 -17 -53 -38z"/>
<path d="M22128 21234 c-7 -6 18 -64 27 -64 3 0 5 8 5 18 0 23 -23 56 -32 46z"/>
<path d="M21924 21203 c-30 -34 -64 -94 -59 -104 3 -5 -1 -6 -10 -3 -23 9 -95
-72 -79 -89 10 -10 44 17 44 33 0 9 10 16 22 17 12 1 34 11 50 23 17 12 28 16
28 9 0 -7 2 -10 5 -7 12 11 -7 37 -23 30 -14 -5 -15 -4 -2 10 8 9 18 14 23 11
4 -2 7 12 7 32 0 32 3 36 20 30 15 -5 18 -3 14 9 -8 21 -20 20 -40 -1z"/>
<path d="M21985 21210 c-3 -5 1 -13 10 -16 22 -9 29 1 11 15 -10 8 -16 9 -21
1z"/>
<path d="M22231 21193 c-16 -17 -11 -25 8 -14 7 5 12 13 10 19 -2 6 -10 4 -18
-5z"/>
<path d="M22174 21178 c3 -13 6 -27 7 -33 0 -5 4 -1 8 10 9 23 4 45 -11 45 -6
0 -8 -10 -4 -22z"/>
<path d="M22442 21175 c-7 -14 -12 -28 -12 -30 0 -12 44 -43 54 -39 7 3 18 -7
24 -21 13 -29 5 -49 -36 -91 -27 -28 -21 -44 14 -44 18 0 27 8 35 27 11 30 49
71 49 53 0 -16 37 -12 43 5 8 19 -13 31 -24 14 -6 -9 -6 -1 -2 21 3 19 10 38
15 41 6 3 3 9 -6 12 -16 6 -23 0 -51 -38 -11 -16 -14 -17 -15 -4 0 8 -11 26
-25 39 -15 14 -25 35 -25 52 0 35 -23 37 -38 3z"/>
<path d="M22023 21117 c-1 -26 0 -28 7 -12 11 26 12 45 3 45 -5 0 -9 -15 -10
-33z"/>
<path d="M21017 21088 c3 -18 10 -34 15 -36 4 -2 6 -13 4 -25 -1 -12 -1 -16 1
-9 3 6 8 12 13 12 13 0 20 43 9 57 -6 6 -8 17 -4 23 4 6 -4 10 -19 10 -23 0
-25 -3 -19 -32z"/>
<path d="M20866 21093 c-4 -9 -4 -18 -2 -21 8 -7 36 6 36 17 0 16 -28 20 -34
4z"/>
<path d="M21985 21060 c-18 -19 -17 -20 3 -20 15 0 22 6 22 20 0 11 -2 20 -3
20 -2 0 -12 -9 -22 -20z"/>
<path d="M19866 21054 c-10 -25 -8 -31 23 -65 40 -44 81 -27 51 21 -5 8 -14
16 -20 16 -5 1 -14 2 -20 3 -5 0 -9 4 -9 9 5 32 -14 44 -25 16z"/>
<path d="M20875 21035 c-6 -18 -8 -18 -12 -2 -6 24 -23 11 -23 -19 0 -31 15
-30 51 3 34 33 36 39 10 39 -11 0 -23 -9 -26 -21z"/>
<path d="M21906 21051 c-4 -5 -2 -12 3 -15 5 -4 12 -2 15 3 4 5 2 12 -3 15 -5
4 -12 2 -15 -3z"/>
<path d="M21608 21009 c-10 -5 -17 -20 -17 -32 1 -18 2 -18 6 -4 3 13 11 16
26 12 16 -5 18 -4 8 3 -7 5 -10 15 -7 21 9 13 6 13 -16 0z"/>
<path d="M22292 21004 c-9 -17 -8 -25 3 -40 11 -15 15 -16 15 -4 1 9 5 6 10
-7 12 -29 26 -29 33 -1 8 27 1 38 -23 38 -10 0 -20 8 -22 18 -3 15 -5 15 -16
-4z"/>
<path d="M21710 20994 c0 -8 5 -12 10 -9 6 3 10 10 10 16 0 5 -4 9 -10 9 -5 0
-10 -7 -10 -16z"/>
<path d="M20950 20986 c0 -8 5 -18 10 -21 6 -3 10 3 10 14 0 12 -4 21 -10 21
-5 0 -10 -6 -10 -14z"/>
<path d="M19736 20965 c-9 -9 -16 -19 -16 -23 0 -19 48 -57 74 -59 26 -2 27
-1 13 15 -8 9 -24 32 -35 50 -18 31 -21 32 -36 17z"/>
<path d="M20830 20918 c0 -32 3 -39 10 -28 13 20 13 70 0 70 -5 0 -10 -19 -10
-42z"/>
<path d="M21005 20950 c3 -5 10 -10 16 -10 5 0 9 5 9 10 0 6 -7 10 -16 10 -8
0 -12 -4 -9 -10z"/>
<path d="M20970 20943 c1 -18 18 -35 24 -24 4 6 4 16 1 21 -7 12 -25 13 -25 3z"/>
<path d="M21558 20923 c-9 -16 -19 -46 -22 -68 -3 -22 -3 -32 0 -23 3 10 16
38 30 63 26 50 28 55 16 55 -4 0 -15 -12 -24 -27z"/>
<path d="M20702 20928 c-11 -14 -5 -68 8 -68 12 0 66 -53 73 -72 3 -10 16 -18
27 -18 14 0 21 6 19 18 -1 9 0 26 1 37 l1 20 9 -20 c6 -15 9 -16 9 -4 1 24 -8
29 -35 18 -18 -6 -24 -6 -22 4 3 17 -34 77 -44 71 -4 -3 -8 2 -8 10 0 19 -23
21 -38 4z"/>
<path d="M21710 20902 c0 -6 -3 -19 -7 -29 -3 -10 -3 -15 2 -11 4 4 14 3 20
-2 22 -18 26 16 4 36 -10 9 -19 12 -19 6z"/>
<path d="M22308 20890 c-1 -14 -14 -30 -27 -36 -23 -12 -41 -31 -41 -46 0 -16
50 -7 62 11 6 10 17 17 24 14 6 -2 15 0 19 6 3 7 0 8 -9 5 -18 -7 -21 7 -6 22
7 7 5 16 -4 29 -14 19 -14 19 -18 -5z"/>
<path d="M20555 20854 c-26 -28 -32 -44 -16 -44 5 0 13 9 16 20 5 16 16 20 48
21 23 1 33 4 23 6 -15 4 -16 7 -5 14 10 6 6 9 -14 9 -18 0 -37 -10 -52 -26z"/>
<path d="M20162 20803 c-39 -46 -54 -83 -32 -83 5 0 16 15 24 33 8 17 15 26
15 20 2 -22 25 -14 38 12 7 16 8 25 1 25 -6 0 -8 9 -5 20 3 11 4 20 2 20 -1 0
-21 -21 -43 -47z"/>
<path d="M19663 20808 c-25 -12 -31 -28 -10 -28 15 0 46 19 32 21 -5 0 -1 4
10 9 13 5 14 9 5 9 -8 0 -25 -5 -37 -11z"/>
<path d="M20456 20753 c-60 -71 -70 -94 -62 -129 10 -39 29 -16 36 44 4 38 9
46 23 44 9 -2 17 2 17 7 0 6 6 8 14 5 8 -3 17 -1 20 5 4 6 13 8 21 4 9 -3 15
1 15 11 0 9 -6 16 -14 16 -8 0 -16 12 -18 26 -3 24 -6 22 -52 -33z"/>
<path d="M19741 20744 c0 -11 3 -14 6 -6 3 7 2 16 -1 19 -3 4 -6 -2 -5 -13z"/>
<path d="M19943 20738 l-33 -8 21 -21 c26 -26 65 -22 61 6 -5 29 -13 33 -49
23z"/>
<path d="M19605 20730 c-3 -5 -18 -10 -32 -10 -43 0 -99 -79 -73 -104 9 -8 20
-2 45 27 18 21 36 34 39 28 4 -6 13 -8 20 -5 17 7 58 -36 52 -53 -7 -17 5 -22
29 -12 18 7 18 8 1 8 -12 1 -16 6 -12 16 3 9 0 15 -9 15 -9 0 -15 10 -15 25 0
28 -19 75 -31 75 -4 0 -11 -4 -14 -10z m21 -37 c-10 -11 -36 -12 -36 -2 0 5
10 9 22 9 12 0 18 -3 14 -7z"/>
<path d="M19720 20702 c0 -13 -7 -33 -16 -46 -10 -16 -11 -26 -5 -30 6 -4 13
4 17 18 3 14 9 25 13 24 12 -2 41 14 41 24 0 5 -5 6 -12 2 -6 -4 -17 1 -25 11
-12 18 -13 18 -13 -3z"/>
<path d="M21452 20669 c-7 -11 -10 -24 -7 -29 3 -5 1 -11 -5 -15 -5 -3 -10 -1
-10 4 0 14 -60 14 -80 1 -13 -9 -13 -11 0 -20 11 -7 17 -5 21 7 5 15 7 15 15
2 5 -9 28 -20 51 -26 35 -9 44 -8 56 6 17 19 12 41 -10 41 -10 0 -12 6 -8 19
8 27 -8 34 -23 10z"/>
<path d="M20580 20648 c1 -15 24 -48 34 -48 3 0 6 9 6 20 0 13 -5 18 -15 14
-11 -5 -13 -2 -9 10 3 9 1 16 -5 16 -6 0 -11 -6 -11 -12z"/>
<path d="M20717 20644 c-4 -4 -7 -14 -7 -23 0 -11 3 -12 11 -4 6 6 10 16 7 23
-2 6 -7 8 -11 4z"/>
<path d="M21530 20620 c0 -5 5 -10 11 -10 5 0 7 5 4 10 -3 6 -8 10 -11 10 -2
0 -4 -4 -4 -10z"/>
<path d="M21274 20576 c-10 -40 6 -52 27 -19 24 36 24 43 -1 43 -12 0 -22 -9
-26 -24z"/>
<path d="M21528 20583 c7 -3 16 -2 19 1 4 3 -2 6 -13 5 -11 0 -14 -3 -6 -6z"/>
<path d="M19438 20553 c7 -3 16 -2 19 1 4 3 -2 6 -13 5 -11 0 -14 -3 -6 -6z"/>
<path d="M20640 20538 c0 -9 -20 -36 -45 -61 -50 -52 -53 -57 -26 -57 12 0 25
13 35 35 9 19 21 35 25 35 10 0 24 50 16 58 -3 3 -5 -2 -5 -10z"/>
<path d="M21446 20528 c-9 -12 -16 -28 -16 -35 0 -7 -4 -13 -10 -13 -5 0 -14
-9 -20 -21 -22 -41 29 -62 64 -26 10 9 15 21 12 26 -4 5 -2 21 4 35 10 27 4
56 -11 56 -4 0 -15 -10 -23 -22z"/>
<path d="M20277 20518 c-7 -27 14 -54 49 -61 32 -6 31 16 -2 31 -14 7 -23 16
-20 21 3 5 0 14 -8 20 -11 9 -15 7 -19 -11z"/>
<path d="M21085 20520 c-3 -5 3 -10 14 -10 12 0 21 5 21 10 0 6 -6 10 -14 10
-8 0 -18 -4 -21 -10z"/>
<path d="M21146 20505 c-4 -11 2 -15 20 -15 23 0 24 2 10 15 -8 8 -17 15 -19
15 -3 0 -7 -7 -11 -15z"/>
<path d="M19431 20495 c-1 -36 13 -48 33 -26 21 23 13 49 -9 31 -10 -8 -14 -7
-18 2 -3 7 -6 4 -6 -7z"/>
<path d="M21048 20483 c-36 -42 -51 -97 -23 -87 8 3 19 21 25 40 7 19 18 41
27 49 12 13 12 15 0 15 -8 0 -21 -8 -29 -17z"/>
<path d="M21194 20446 c-18 -17 -34 -43 -37 -58 -5 -32 0 -35 18 -12 9 13 16
14 33 5 26 -14 38 1 33 44 -5 51 -14 55 -47 21z"/>
<path d="M20508 20443 c7 -3 16 -2 19 1 4 3 -2 6 -13 5 -11 0 -14 -3 -6 -6z"/>
<path d="M19433 20396 c-9 -19 -26 -40 -39 -46 -33 -18 -39 -40 -9 -40 37 0
83 31 87 60 9 64 -13 79 -39 26z"/>
<path d="M20495 20410 c-3 -5 -1 -10 4 -10 6 0 11 5 11 10 0 6 -2 10 -4 10 -3
0 -8 -4 -11 -10z"/>
<path d="M18853 20387 c-13 -6 -23 -14 -23 -18 0 -4 10 -15 23 -24 12 -8 22
-21 22 -28 0 -20 29 -19 42 2 26 42 -18 89 -64 68z"/>
<path d="M20034 20366 c-7 -28 25 -101 45 -101 8 0 16 -6 19 -12 2 -7 0 -13
-6 -13 -5 0 -14 -11 -20 -24 -6 -13 -19 -27 -30 -30 -11 -4 -24 -21 -30 -39
-5 -18 -10 -24 -11 -14 -1 10 -5 15 -11 12 -5 -3 -10 -1 -10 4 0 6 -4 11 -10
11 -5 0 -10 -6 -10 -14 0 -8 -6 -16 -12 -19 -17 -5 8 -37 29 -37 7 0 17 -10
22 -22 7 -18 10 -15 21 28 7 27 12 53 11 58 -1 5 5 6 14 3 8 -4 15 -2 15 4 0
6 4 7 10 4 6 -4 7 1 3 12 -6 16 -5 16 10 4 15 -12 20 -10 42 12 l25 25 -25 23
c-16 16 -25 35 -25 57 0 68 -52 122 -66 68z"/>
<path d="M20380 20380 c0 -4 6 -10 13 -13 7 -3 2 -12 -15 -26 -16 -13 -28 -32
-28 -44 0 -19 2 -18 23 9 12 16 29 29 37 27 8 -1 24 4 35 13 l20 15 -20 12
c-25 14 -65 19 -65 7z"/>
<path d="M20836 20344 c-7 -19 1 -34 17 -33 8 0 8 2 -1 6 -10 4 -9 9 4 24 15
16 15 19 2 19 -9 0 -19 -7 -22 -16z"/>
<path d="M18767 20321 c-26 -31 -38 -79 -17 -66 6 3 10 13 10 21 0 8 9 23 21
35 11 11 19 25 17 31 -2 6 -16 -4 -31 -21z"/>
<path d="M21190 20308 c0 -5 -10 -8 -22 -6 -15 2 -24 -3 -26 -14 -4 -20 22
-25 33 -7 4 6 13 8 20 5 7 -2 15 3 18 13 2 11 -1 18 -9 18 -8 0 -14 -4 -14 -9z"/>
<path d="M21094 20295 c-3 -8 -4 -20 -2 -27 3 -7 7 -1 10 15 6 29 1 36 -8 12z"/>
<path d="M19899 20287 c-22 -16 -33 -54 -18 -62 6 -4 15 -1 20 6 5 8 9 10 9 4
1 -14 29 37 30 53 0 15 -20 15 -41 -1z"/>
<path d="M20805 20281 c-11 -35 -3 -150 11 -162 11 -9 14 -6 14 15 0 23 4 26
34 26 20 0 36 6 39 14 6 15 -11 36 -30 36 -16 0 -33 32 -33 64 0 31 -26 36
-35 7z"/>
<path d="M19167 20273 c-14 -14 -6 -42 18 -61 14 -11 25 -25 25 -30 0 -6 5
-14 10 -17 15 -9 6 81 -10 100 -13 16 -32 20 -43 8z"/>
<path d="M20294 20262 c-21 -14 -35 -50 -23 -58 12 -7 29 11 50 49 10 18 -5
24 -27 9z"/>
<path d="M18770 20251 c0 -5 -10 -12 -22 -14 -20 -4 -19 -4 5 -6 18 -1 27 4
27 14 0 8 -2 15 -5 15 -3 0 -5 -4 -5 -9z"/>
<path d="M18794 20198 c-4 -7 -4 -10 1 -6 4 4 16 3 26 -3 11 -5 19 -7 19 -5 0
3 -9 10 -19 16 -15 7 -22 7 -27 -2z"/>
<path d="M19009 20178 c-5 -17 -4 -50 3 -54 4 -3 8 1 8 10 0 8 5 16 12 18 13
5 2 28 -13 28 -5 0 -9 -1 -10 -2z"/>
<path d="M19917 20159 c7 -7 15 -10 18 -7 3 3 -2 9 -12 12 -14 6 -15 5 -6 -5z"/>
<path d="M18975 20150 c-3 -5 1 -10 9 -10 9 0 16 5 16 10 0 6 -4 10 -9 10 -6
0 -13 -4 -16 -10z"/>
<path d="M18900 20121 c0 -15 10 -39 23 -53 12 -14 30 -40 40 -59 26 -47 41
-19 21 40 -8 23 -11 47 -8 53 4 6 1 9 -7 6 -8 -3 -22 6 -32 19 -25 31 -37 29
-37 -6z"/>
<path d="M20940 20135 c0 -8 5 -15 10 -15 6 0 10 7 10 15 0 8 -4 15 -10 15 -5
0 -10 -7 -10 -15z"/>
<path d="M19262 20129 c2 -6 8 -10 13 -10 5 0 11 4 13 10 2 6 -4 11 -13 11 -9
0 -15 -5 -13 -11z"/>
<path d="M20968 20103 c7 -3 16 -2 19 1 4 3 -2 6 -13 5 -11 0 -14 -3 -6 -6z"/>
<path d="M19070 20090 c0 -5 5 -10 10 -10 6 0 10 5 10 10 0 6 -4 10 -10 10 -5
0 -10 -4 -10 -10z"/>
<path d="M19290 20081 c0 -5 5 -13 10 -16 6 -3 10 -2 10 4 0 5 -4 13 -10 16
-5 3 -10 2 -10 -4z"/>
<path d="M20975 20070 c3 -5 8 -10 11 -10 2 0 4 5 4 10 0 6 -5 10 -11 10 -5 0
-7 -4 -4 -10z"/>
<path d="M19425 20050 c-3 -5 -1 -10 4 -10 6 0 11 5 11 10 0 6 -2 10 -4 10 -3
0 -8 -4 -11 -10z"/>
<path d="M19746 20027 c-15 -19 -26 -38 -26 -42 0 -5 -10 -19 -22 -32 -24 -26
-18 -43 8 -22 14 12 18 12 22 1 3 -9 16 3 33 30 16 23 27 49 24 55 -2 7 0 12
4 10 5 -1 9 1 10 6 5 39 -21 36 -53 -6z"/>
<path d="M19372 20000 c-12 -11 -23 -20 -26 -20 -12 0 -65 -63 -70 -83 -3 -12
-3 -16 0 -9 3 6 14 12 25 12 14 0 19 7 19 25 0 16 6 25 15 25 9 0 18 7 21 15
4 8 17 15 29 15 18 0 23 5 22 20 -1 11 -4 20 -7 20 -4 0 -16 -9 -28 -20z"/>
<path d="M21000 19964 c0 -8 5 -12 10 -9 6 4 8 11 5 16 -9 14 -15 11 -15 -7z"/>
<path d="M19596 19830 c-36 -39 -66 -75 -66 -80 0 -18 29 -10 35 10 4 11 15
20 26 20 15 0 19 6 17 22 -2 15 5 26 22 35 36 18 66 63 41 63 -4 0 -38 -32
-75 -70z"/>
<path d="M20366 19843 c-30 -8 -45 -28 -61 -80 -17 -54 -20 -163 -5 -163 12 0
22 38 19 71 -1 13 -1 40 0 59 2 25 4 30 9 17 7 -16 10 -14 30 13 15 20 18 30
10 31 -7 1 -2 4 12 8 19 6 30 3 45 -13 11 -11 19 -24 18 -28 -5 -13 16 -58 26
-58 16 0 22 36 12 64 -7 16 -18 26 -31 26 -11 0 -20 5 -20 10 0 6 8 10 17 10
14 0 13 3 -5 16 -13 9 -30 13 -38 10 -9 -3 -12 -1 -9 4 6 10 2 11 -29 3z"/>
<path d="M19220 19830 c0 -5 5 -10 11 -10 5 0 7 5 4 10 -3 6 -8 10 -11 10 -2
0 -4 -4 -4 -10z"/>
<path d="M19175 19797 c-21 -30 -20 -81 1 -73 9 3 17 6 20 6 2 0 1 6 -2 14 -3
7 2 20 10 29 20 20 20 33 1 41 -8 3 -21 -4 -30 -17z"/>
<path d="M19497 19722 c-11 -11 -13 -22 -7 -32 11 -17 15 -13 24 23 8 32 5 33
-17 9z"/>
<path d="M20066 19692 c-3 -5 -3 -32 1 -61 5 -48 7 -51 34 -51 33 0 35 8 15
64 -13 39 -40 64 -50 48z"/>
<path d="M19417 19651 c-27 -30 -23 -51 6 -28 13 10 34 57 25 57 -2 0 -16 -13
-31 -29z"/>
<path d="M19260 19590 l-25 -8 25 0 c14 -1 43 3 65 7 l40 9 -40 0 c-22 0 -51
-4 -65 -8z"/>
<path d="M19267 19544 c-9 -10 2 -24 19 -24 8 0 14 7 14 15 0 15 -21 21 -33 9z"/>
<path d="M20100 19512 c0 -11 -5 -22 -12 -24 -8 -3 -5 -15 10 -40 22 -35 23
-51 7 -130 -8 -41 -2 -47 22 -23 9 9 13 26 11 40 -3 13 -1 26 4 27 15 5 21 88
11 128 -7 25 -16 36 -31 38 -16 3 -22 -2 -22 -16z"/>
<path d="M18888 19501 c-22 -21 -24 -38 -3 -21 16 13 75 5 75 -11 0 -5 7 -9
15 -9 8 0 15 6 15 14 0 15 -29 29 -51 24 -8 -2 -13 3 -11 10 3 18 -20 14 -40
-7z"/>
<path d="M18824 19415 c-4 -9 -20 -15 -38 -16 -30 -1 -30 -1 -6 -9 22 -7 19
-8 -16 -9 -37 -1 -74 -23 -74 -44 0 -16 30 -6 40 13 11 21 54 28 65 10 3 -5
14 -10 24 -10 16 0 31 34 31 71 0 15 -20 10 -26 -6z"/>
<path d="M19987 19413 c-4 -3 -7 -11 -7 -17 0 -6 5 -5 12 2 6 6 9 14 7 17 -3
3 -9 2 -12 -2z"/>
<path d="M18919 19370 c-13 -10 -19 -19 -13 -20 6 0 19 9 29 20 23 26 14 26
-16 0z"/>
<path d="M19975 19360 c-4 -12 -2 -27 3 -32 7 -7 12 -3 17 12 4 12 2 27 -3 32
-7 7 -12 3 -17 -12z"/>
<path d="M18811 19321 c-12 -8 -12 -12 -2 -25 16 -19 31 -12 31 15 0 21 -7 23
-29 10z"/>
<path d="M18881 19314 c0 -11 3 -14 6 -6 3 7 2 16 -1 19 -3 4 -6 -2 -5 -13z"/>
<path d="M19435 19309 c-4 -6 -1 -15 6 -20 21 -13 31 -11 27 8 -4 20 -24 28
-33 12z"/>
<path d="M19275 19279 c-20 -19 -25 -29 -15 -29 15 1 70 44 70 55 0 14 -28 1
-55 -26z"/>
<path d="M19980 19296 c0 -8 4 -17 9 -20 5 -4 7 3 4 14 -6 23 -13 26 -13 6z"/>
<path d="M18536 19245 c-20 -41 -20 -45 -1 -45 8 0 15 5 15 10 0 6 9 10 20 10
25 0 26 21 1 42 -18 16 -20 15 -35 -17z"/>
<path d="M19580 19257 c0 -9 -6 -20 -14 -24 -22 -13 -46 -69 -45 -105 1 -32 1
-32 13 10 6 24 19 48 28 53 17 9 35 66 24 76 -3 4 -6 -1 -6 -10z"/>
<path d="M18412 19210 c-12 -12 -22 -26 -21 -33 0 -9 2 -9 6 1 2 7 22 12 44
12 38 0 49 14 24 32 -16 12 -30 9 -53 -12z"/>
<path d="M19385 19220 c-8 -13 4 -70 14 -70 11 0 12 68 1 75 -5 3 -12 1 -15
-5z"/>
<path d="M18180 19181 c-9 -9 -26 -33 -38 -53 -17 -28 -30 -37 -60 -42 -21 -3
-48 -14 -60 -25 l-22 -19 47 -7 c93 -15 103 -15 104 -2 9 127 11 131 46 122
21 -5 24 -3 21 16 -4 28 -19 32 -38 10z"/>
<path d="M18999 19175 c-3 -34 -2 -70 0 -97 l2 -23 18 22 c10 12 21 19 25 16
3 -4 6 10 6 30 0 21 -4 37 -9 37 -5 0 -11 9 -14 20 -7 28 -27 25 -28 -5z"/>
<path d="M19384 19129 c-10 -17 27 -51 42 -39 8 8 13 7 16 -2 3 -8 7 -6 11 5
4 11 1 17 -8 17 -8 0 -15 6 -15 13 0 15 -37 20 -46 6z"/>
<path d="M19488 19113 c7 -3 16 -2 19 1 4 3 -2 6 -13 5 -11 0 -14 -3 -6 -6z"/>
<path d="M19468 19083 c7 -3 16 -2 19 1 4 3 -2 6 -13 5 -11 0 -14 -3 -6 -6z"/>
<path d="M18220 19065 c-7 -9 -21 -13 -31 -10 -16 5 -18 2 -15 -17 3 -13 5
-25 5 -28 2 -9 62 -32 68 -26 4 3 2 6 -4 6 -6 0 -18 11 -27 25 -12 18 -13 23
-2 19 8 -3 16 4 19 17 8 29 3 34 -13 14z"/>
<path d="M19015 19019 c-4 -6 -5 -13 -2 -16 7 -7 27 6 27 18 0 12 -17 12 -25
-2z"/>
<path d="M18110 18973 c0 -38 12 -36 24 3 4 15 2 24 -9 28 -12 4 -15 -2 -15
-31z"/>
<path d="M18777 19003 c-4 -3 -7 -26 -7 -50 0 -39 2 -43 24 -43 17 0 26 7 30
24 11 43 -24 93 -47 69z"/>
<path d="M19006 18964 c-9 -23 -7 -34 4 -34 6 0 10 8 10 18 0 14 2 15 10 2 5
-8 10 -10 10 -4 0 6 -6 17 -14 23 -11 9 -15 8 -20 -5z"/>
<path d="M18220 18930 c0 -5 5 -10 10 -10 6 0 10 5 10 10 0 6 -4 10 -10 10 -5
0 -10 -4 -10 -10z"/>
<path d="M18207 18889 c-10 -11 -16 -23 -13 -26 8 -8 38 25 34 37 -2 6 -11 1
-21 -11z"/>
<path d="M19030 18890 c-9 -16 -8 -20 5 -20 8 0 15 9 15 20 0 11 -2 20 -5 20
-2 0 -9 -9 -15 -20z"/>
<path d="M18404 18812 c-17 -11 -19 -172 -2 -172 10 0 10 -2 1 -8 -8 -5 -9
-13 -3 -22 7 -11 2 -18 -18 -27 -25 -12 -24 -12 21 -8 29 4 47 2 47 -5 0 -5 5
-10 12 -10 9 0 9 3 1 11 -10 10 -8 29 7 74 1 2 4 14 7 25 3 12 14 20 26 20 11
0 17 3 13 7 -11 12 -36 12 -36 1 0 -6 -8 -4 -18 5 -10 10 -26 17 -35 17 -10 0
-14 6 -11 14 3 8 0 17 -6 21 -8 5 -7 12 4 24 16 18 8 45 -10 33z m46 -126 c0
-17 -14 -29 -23 -20 -8 8 3 34 14 34 5 0 9 -6 9 -14z"/>
<path d="M18202 18688 c-17 -17 -15 -48 4 -48 14 0 14 -3 4 -15 -7 -9 -10 -19
-6 -23 4 -4 12 1 17 11 6 9 14 15 20 12 5 -4 9 1 9 10 0 9 -4 14 -8 11 -4 -2
-8 7 -7 21 0 30 -15 39 -33 21z"/>
<path d="M18005 18643 c-24 -7 -50 -41 -50 -68 0 -14 -8 -21 -28 -23 -15 -2
-27 1 -27 7 0 6 -7 11 -15 11 -13 0 -14 -4 -5 -20 9 -17 7 -20 -14 -26 -21 -5
-66 -45 -66 -59 0 -3 10 -5 22 -5 12 0 29 -7 39 -16 17 -15 19 -15 30 10 7 14
20 28 30 31 19 6 61 79 52 89 -4 3 3 15 14 26 15 13 23 16 26 7 3 -9 8 -9 18
2 11 10 11 15 1 18 -6 3 -10 9 -6 14 3 5 4 8 2 8 -2 -1 -12 -4 -23 -6z m-122
-160 c-7 -2 -21 -2 -30 0 -10 3 -4 5 12 5 17 0 24 -2 18 -5z"/>
<path d="M17738 18623 c7 -3 16 -2 19 1 4 3 -2 6 -13 5 -11 0 -14 -3 -6 -6z"/>
<path d="M17780 18610 c0 -10 32 -30 48 -30 6 0 8 9 5 20 -5 20 -53 30 -53 10z"/>
<path d="M17700 18602 c-8 -3 -26 -16 -40 -29 l-25 -24 25 4 c33 5 77 23 84
35 7 12 -23 21 -44 14z"/>
<path d="M18100 18586 c0 -14 5 -26 10 -26 6 0 10 9 10 19 0 11 -4 23 -10 26
-6 4 -10 -5 -10 -19z"/>
<path d="M17860 18590 c0 -5 4 -10 9 -10 6 0 13 5 16 10 3 6 -1 10 -9 10 -9 0
-16 -4 -16 -10z"/>
<path d="M18316 18564 c-8 -22 -9 -22 18 -17 16 3 23 10 19 19 -7 19 -29 18
-37 -2z"/>
<path d="M18140 18560 c-13 -9 -13 -11 0 -20 10 -6 16 -6 18 0 7 20 -3 30 -18
20z"/>
<path d="M17778 18425 c-3 -14 -1 -25 3 -25 5 0 9 11 9 25 0 14 -2 25 -4 25
-2 0 -6 -11 -8 -25z"/>
<path d="M17834 18389 c-4 -8 -3 -9 4 -5 7 4 12 2 12 -3 0 -6 5 -11 11 -11 13
0 7 22 -8 27 -6 2 -15 -1 -19 -8z"/>
</g>
</svg>
