<?xml version="1.0" standalone="no"?>
<!DOCTYPE svg PUBLIC "-//W3C//DTD SVG 20010904//EN"
 "http://www.w3.org/TR/2001/REC-SVG-20010904/DTD/svg10.dtd">
<svg version="1.0" xmlns="http://www.w3.org/2000/svg"
 width="1371.000000pt" height="1288.000000pt" viewBox="0 0 1371.000000 1288.000000"
 preserveAspectRatio="xMidYMid meet">
<metadata>
Created by potrace 1.16, written by Peter Selinger 2001-2019
</metadata>
<g transform="translate(0.000000,1288.000000) scale(0.100000,-0.100000)"
fill="#000000" stroke="none">
<path d="M13314 12615 c-49 -56 -85 -60 -124 -14 l-26 32 -44 -23 c-25 -13
-52 -32 -60 -44 -19 -26 -49 -114 -50 -143 0 -27 45 -63 79 -63 35 1 51 16 81
75 23 46 28 50 61 51 55 3 107 32 139 80 33 46 36 64 18 82 -20 20 -34 14 -74
-33z"/>
<path d="M12746 12200 c-43 -47 -69 -50 -111 -15 -16 14 -38 25 -50 23 -23 -3
-74 -90 -75 -126 0 -33 -27 -38 -55 -12 -32 30 -39 22 -25 -31 18 -70 31 -99
52 -110 42 -23 78 18 78 89 0 20 7 56 16 80 17 42 17 42 38 25 32 -27 63 -43
85 -43 18 0 61 43 61 60 0 5 16 24 36 44 19 19 33 40 29 46 -13 20 -43 9 -79
-30z"/>
<path d="M11140 12120 c-11 -11 -20 -24 -20 -30 0 -5 -15 -26 -34 -46 -19 -20
-40 -51 -47 -68 -17 -41 -30 -48 -52 -29 -12 12 -21 13 -28 6 -8 -8 -2 -24 21
-58 24 -35 29 -49 21 -59 -6 -8 -9 -20 -5 -29 7 -19 59 -41 74 -32 6 4 27 -1
46 -10 52 -24 78 -17 82 23 3 27 -1 34 -22 42 -32 12 -33 25 -1 66 28 37 31
56 11 73 -17 15 -53 -4 -62 -31 -8 -28 -24 -21 -24 10 1 18 14 41 40 67 22 22
45 52 51 67 22 53 -12 77 -51 38z"/>
<path d="M12335 12020 c-3 -5 -23 -10 -44 -10 -33 0 -41 -4 -53 -30 -8 -17
-16 -63 -17 -101 -2 -84 11 -112 64 -129 31 -10 39 -10 55 5 43 39 46 118 5
149 -20 16 -21 47 -2 83 9 18 17 34 17 38 0 9 -18 6 -25 -5z"/>
<path d="M10729 11731 c-44 -34 -62 -181 -26 -209 27 -21 75 -22 100 -2 33 26
67 101 67 149 0 32 -5 43 -29 60 -36 26 -81 27 -112 2z"/>
<path d="M11735 11549 c-18 -23 -25 -41 -23 -63 3 -31 24 -42 93 -50 38 -4 34
-27 -10 -68 -44 -39 -46 -81 -4 -86 19 -2 36 8 68 40 47 46 61 74 61 116 -1
42 -24 64 -74 69 -48 6 -54 11 -35 30 18 18 3 43 -25 43 -15 0 -34 -12 -51
-31z"/>
<path d="M11442 11525 c-18 -40 -14 -146 8 -219 19 -60 19 -68 5 -95 -21 -41
-40 -159 -31 -202 9 -49 55 -92 89 -84 39 10 89 123 103 230 5 37 15 59 38 85
30 33 56 79 56 100 0 18 -45 10 -58 -10 -22 -36 -37 -22 -54 51 -10 39 -31 93
-49 120 -27 42 -36 49 -63 49 -25 0 -35 -6 -44 -25z"/>
<path d="M10273 11508 c-38 -59 -49 -110 -33 -149 10 -23 19 -29 43 -29 17 0
39 8 49 17 17 16 22 13 82 -49 35 -36 82 -76 105 -89 50 -28 50 -48 -1 -67
-48 -19 -68 -11 -68 28 0 37 -25 40 -56 7 -60 -63 -22 -112 85 -108 48 1 98
22 149 59 45 34 43 64 -7 94 -68 40 -161 108 -161 118 0 5 -8 17 -19 27 -10
10 -25 36 -32 58 -8 22 -20 44 -26 48 -7 4 -13 17 -13 27 0 17 -7 20 -44 20
-25 0 -48 -6 -53 -12z"/>
<path d="M11131 11326 c-10 -11 -6 -26 18 -68 17 -30 31 -62 31 -70 0 -20 56
-68 79 -68 39 0 59 67 23 77 -10 2 -35 36 -56 74 -30 55 -42 69 -60 69 -13 0
-29 -6 -35 -14z"/>
<path d="M10220 11295 c-15 -28 -34 -31 -70 -10 -39 22 -54 18 -74 -20 -17
-32 -46 -48 -46 -26 0 5 -8 11 -17 15 -10 3 -23 8 -29 11 -24 12 -23 -30 2
-85 24 -55 52 -80 89 -80 18 0 31 24 40 73 4 20 9 37 12 37 2 0 18 -7 35 -16
40 -21 67 -7 97 48 25 48 26 64 5 72 -25 10 -30 8 -44 -19z"/>
<path d="M9710 11001 c-78 -7 -85 -11 -100 -57 -10 -29 -9 -39 4 -59 22 -33
21 -59 -1 -50 -35 14 -48 15 -63 5 -13 -9 -9 -15 20 -40 19 -16 46 -35 60 -42
14 -7 33 -20 43 -30 22 -22 75 -24 84 -2 6 17 -6 46 -38 85 -26 32 -41 93 -26
108 6 6 24 11 39 11 46 0 90 27 86 53 -3 25 -14 27 -108 18z"/>
<path d="M11129 10909 c-27 -10 -59 -72 -59 -113 0 -11 -5 -16 -13 -13 -8 3
-20 1 -27 -3 -19 -12 15 -97 53 -133 36 -33 66 -32 86 4 13 23 13 30 -2 62
-25 51 -22 107 8 147 19 25 22 37 14 47 -13 15 -23 15 -60 2z"/>
<path d="M9362 10860 c-15 -25 -15 -45 0 -87 11 -29 10 -35 -10 -56 -27 -29
-28 -53 -3 -66 13 -7 24 -6 37 4 27 20 32 19 49 -15 19 -36 79 -70 96 -53 15
15 0 61 -22 68 -10 4 -19 14 -19 24 0 10 -7 24 -15 31 -11 9 -13 23 -9 51 6
35 4 40 -19 48 -14 6 -29 23 -35 40 -13 36 -32 40 -50 11z"/>
<path d="M8117 10863 c-15 -14 -3 -52 38 -123 13 -23 12 -27 -11 -52 -33 -33
-23 -52 22 -45 27 5 36 2 44 -13 13 -25 47 -35 65 -20 20 17 19 36 -4 57 -30
30 -41 58 -34 97 5 31 3 36 -15 36 -11 0 -31 15 -46 35 -26 34 -45 43 -59 28z"/>
<path d="M10836 10689 c-23 -34 -11 -157 19 -188 28 -29 76 -32 104 -7 29 27
40 140 16 166 -10 11 -27 20 -37 20 -10 0 -21 7 -24 15 -9 23 -60 19 -78 -6z"/>
<path d="M8006 10585 c-3 -9 -3 -42 1 -75 l6 -60 -49 -21 c-27 -12 -60 -24
-74 -28 -17 -5 -25 -14 -25 -31 0 -37 27 -47 72 -27 21 10 52 19 68 20 29 2
30 1 32 -43 2 -62 19 -102 41 -98 14 3 17 16 20 78 3 104 7 116 42 128 32 12
36 22 19 54 -9 16 -17 19 -44 14 -31 -6 -33 -5 -40 30 -3 20 -12 45 -18 55
-14 23 -43 25 -51 4z"/>
<path d="M9163 10577 c-36 -26 -61 -72 -69 -131 -7 -49 12 -72 66 -78 33 -4
35 -6 32 -37 -5 -42 12 -61 55 -61 30 0 36 5 53 43 37 81 20 110 -72 117 -54
4 -63 8 -63 25 0 11 14 28 32 40 41 25 52 59 28 85 -22 24 -22 24 -62 -3z"/>
<path d="M10588 10533 c-10 -2 -21 -16 -24 -30 -8 -30 15 -53 51 -53 31 0 65
-36 65 -69 0 -45 -19 -53 -68 -28 -36 18 -46 19 -62 9 -17 -11 -20 -10 -20 8
0 12 -10 25 -26 32 -39 18 -58 -11 -49 -77 12 -95 83 -147 130 -95 11 13 31
20 53 20 101 0 147 111 85 204 -56 85 -74 95 -135 79z"/>
<path d="M7414 10495 c-5 -20 -12 -25 -39 -25 -44 0 -59 -19 -39 -48 8 -12 21
-41 27 -63 15 -51 58 -82 81 -59 8 8 18 31 21 50 8 43 9 44 35 30 32 -17 70 2
70 34 0 17 -11 31 -37 47 -21 13 -44 31 -51 41 -20 27 -60 23 -68 -7z"/>
<path d="M7114 10347 c-24 -21 -47 -49 -50 -61 -8 -34 24 -133 49 -151 51 -36
123 -9 142 53 3 12 10 22 16 22 11 0 39 65 39 91 0 37 -22 66 -59 78 -57 17
-90 10 -137 -32z"/>
<path d="M7710 10355 c-23 -24 -25 -34 -23 -103 2 -71 5 -79 32 -104 39 -35
93 -45 146 -27 32 11 44 23 62 59 12 25 22 61 23 81 0 69 -60 79 -65 12 -4
-44 -41 -93 -71 -93 -28 0 -29 6 -8 81 14 49 14 61 2 85 -19 41 -65 44 -98 9z"/>
<path d="M7380 10237 c0 -8 10 -19 23 -26 12 -7 32 -31 44 -55 21 -42 21 -42
2 -96 -24 -68 -24 -64 8 -79 23 -11 29 -10 40 5 7 10 13 26 13 36 0 28 18 21
36 -14 28 -55 65 -98 84 -98 48 0 67 33 35 60 -8 7 -15 18 -15 25 0 6 -11 17
-24 23 -14 6 -31 28 -41 56 -17 43 -17 48 -1 64 35 40 10 78 -39 58 -26 -11
-32 -10 -53 11 -12 13 -31 23 -42 23 -10 0 -22 5 -25 10 -9 15 -45 12 -45 -3z"/>
<path d="M7013 10134 c-69 -90 -85 -105 -99 -93 -8 6 -14 19 -14 28 0 10 -7 5
-20 -14 -30 -45 -25 -62 22 -84 39 -18 44 -18 67 -2 55 34 89 82 95 133 11 78
-7 89 -51 32z"/>
<path d="M8773 10162 c-5 -4 -22 -27 -37 -51 -21 -32 -28 -58 -30 -105 -4 -76
5 -101 44 -121 29 -15 34 -15 56 -1 13 9 30 29 38 45 13 24 23 29 67 35 43 6
58 14 85 43 36 39 52 89 36 105 -13 13 -43 -5 -82 -46 -30 -31 -40 -32 -74 -5
-39 31 -56 21 -75 -41 -15 -49 -18 -53 -28 -35 -13 23 -12 113 0 132 4 7 14
10 22 6 10 -3 15 1 15 15 0 21 -20 34 -37 24z"/>
<path d="M9990 10073 c0 -5 -16 -19 -36 -33 -38 -26 -74 -92 -74 -137 0 -14
-9 -36 -20 -50 -26 -33 -25 -59 1 -66 11 -3 19 -11 18 -19 -4 -29 3 -36 49
-52 26 -10 59 -24 73 -31 61 -33 92 17 44 69 -30 33 -31 38 -5 61 26 24 33 50
20 75 -12 23 -46 19 -66 -8 -6 -8 -19 -12 -30 -10 -16 3 -19 12 -18 51 0 41 5
52 30 72 16 13 34 24 41 25 20 0 34 35 21 48 -13 13 -48 16 -48 5z"/>
<path d="M7162 9832 c-6 -4 -23 -34 -38 -66 -24 -52 -29 -57 -51 -51 -35 8
-63 -3 -63 -26 0 -10 4 -19 9 -19 13 0 20 -25 14 -50 -4 -15 -11 -20 -24 -17
-12 3 -19 0 -19 -8 0 -10 7 -11 34 -3 27 9 43 7 75 -6 55 -21 71 -20 71 5 0
13 -11 25 -35 35 -19 8 -35 17 -35 21 0 20 26 73 35 73 12 0 55 78 55 98 0 15
-14 22 -28 14z"/>
<path d="M9646 9665 c-15 -7 -22 -22 -24 -50 -2 -22 -10 -48 -19 -57 -13 -14
-14 -31 -9 -89 10 -95 19 -116 61 -136 48 -23 80 -8 95 46 6 22 15 43 20 46
17 11 12 153 -6 180 -9 14 -14 35 -11 47 6 21 3 23 -40 23 -26 0 -56 -5 -67
-10z"/>
<path d="M8442 9658 c-5 -7 -17 -29 -27 -48 -25 -48 -62 -75 -107 -76 -45 0
-39 4 -71 -64 l-25 -55 -19 43 c-15 36 -22 42 -43 40 -27 -3 -27 -3 -51 -143
-18 -109 -41 -137 -53 -67 -12 67 -16 72 -47 72 -18 0 -29 -5 -29 -14 0 -8
-11 -17 -25 -20 -35 -9 -49 -68 -41 -181 5 -90 5 -90 -24 -119 -16 -16 -32
-38 -36 -48 -5 -17 -12 -19 -42 -13 -21 3 -48 13 -61 22 -22 14 -25 13 -44 -5
-13 -13 -22 -38 -25 -71 -2 -28 -6 -51 -8 -51 -2 0 -19 14 -36 30 -18 17 -46
38 -64 46 -29 14 -35 14 -57 -1 -14 -9 -30 -30 -36 -47 l-11 -32 -28 27 c-16
15 -37 27 -49 27 -37 0 -35 -29 3 -73 26 -31 34 -49 31 -67 -3 -14 -8 -41 -12
-61 -9 -44 14 -59 53 -33 21 14 26 14 33 2 4 -8 26 -27 48 -42 33 -23 43 -26
60 -16 34 18 21 67 -21 83 -9 3 -29 25 -44 48 -23 37 -25 47 -18 83 14 62 41
56 81 -18 33 -64 59 -81 97 -66 26 9 31 20 41 85 10 65 17 71 59 51 20 -9 42
-14 49 -10 35 20 59 53 73 101 14 48 18 53 44 53 33 0 38 7 60 70 14 38 21 46
46 48 39 5 51 16 59 59 4 20 13 46 21 57 8 11 14 30 14 42 0 30 10 35 34 19
46 -33 80 -7 90 69 8 63 19 76 70 76 48 0 74 23 112 97 27 54 30 73 12 91 -15
15 -23 15 -36 0z"/>
<path d="M6802 9477 c-15 -18 -10 -154 7 -185 14 -26 45 -36 71 -22 24 13 70
100 70 134 0 33 -29 63 -67 70 -42 7 -52 -10 -11 -18 17 -3 28 -9 25 -13 -4
-3 -2 -12 4 -20 13 -15 6 -78 -12 -99 -16 -19 -47 -18 -53 4 -3 9 -5 37 -5 62
0 25 -4 58 -9 74 -7 24 -10 26 -20 13z"/>
<path d="M9208 9327 c-37 -28 -31 -152 9 -192 22 -23 59 -18 81 10 11 14 23
25 26 25 3 0 17 -17 30 -37 14 -21 50 -65 81 -98 57 -62 65 -88 33 -109 -21
-13 -29 -6 -37 36 -4 19 -14 34 -24 36 -15 3 -16 -3 -11 -50 6 -61 22 -78 75
-78 38 0 81 26 99 61 14 25 1 49 -59 114 -70 74 -175 219 -192 262 -5 13 -13
23 -18 23 -17 0 -41 -43 -41 -73 0 -15 -4 -26 -9 -23 -6 4 -5 20 0 42 8 25 7
39 -2 50 -14 17 -19 17 -41 1z"/>
<path d="M9154 9062 c-6 -9 -23 -23 -38 -31 -24 -14 -28 -13 -55 13 -37 36
-71 32 -84 -9 -6 -16 -19 -36 -29 -43 -10 -8 -17 -21 -14 -30 2 -10 7 -34 11
-55 5 -30 13 -41 40 -54 46 -22 65 -6 65 53 0 32 4 44 14 44 8 0 17 -4 20 -9
4 -5 14 -8 24 -6 9 2 20 4 24 4 17 2 58 78 58 108 0 36 -18 44 -36 15z"/>
<path d="M8007 8896 c-3 -8 -1 -41 5 -73 14 -76 15 -95 17 -212 1 -88 4 -103
24 -126 20 -23 27 -25 69 -19 39 6 51 13 73 43 17 25 25 50 25 78 0 54 -17 67
-75 59 l-45 -7 0 50 c0 27 -5 62 -10 77 -8 20 -7 41 1 76 7 26 11 49 8 52 -2
2 -23 7 -45 11 -32 5 -43 3 -47 -9z"/>
<path d="M6289 8788 c0 -2 -1 -39 -2 -84 -2 -63 -6 -84 -20 -98 -10 -10 -19
-17 -20 -15 -2 2 -10 20 -19 40 -20 45 -73 76 -96 57 -23 -20 -10 -205 17
-231 27 -28 47 -16 72 42 14 34 27 51 39 51 24 0 37 18 60 81 13 39 24 54 37
54 10 0 19 8 21 18 2 12 -3 17 -17 17 -14 0 -27 11 -38 35 -14 29 -30 44 -34
33z"/>
<path d="M8606 8623 c-14 -15 -28 -41 -32 -58 -3 -16 -16 -38 -27 -47 l-22
-17 45 -41 c65 -58 110 -65 110 -18 0 21 -29 80 -42 86 -16 7 -7 35 22 63 17
17 27 36 23 44 -9 24 -50 17 -77 -12z"/>
<path d="M8293 8513 c-19 -7 -16 -43 7 -87 17 -30 18 -41 9 -52 -17 -21 17
-57 48 -49 15 3 28 -2 42 -16 12 -13 37 -23 65 -26 44 -5 46 -4 46 20 0 28
-23 57 -45 57 -35 0 -63 78 -35 95 15 9 12 65 -2 65 -7 0 -22 -14 -33 -30 -25
-38 -39 -38 -55 0 -12 29 -22 34 -47 23z"/>
<path d="M5916 8449 c-19 -15 -26 -28 -22 -42 2 -11 -2 -30 -11 -43 -19 -30
-12 -90 14 -110 26 -20 71 -17 109 6 46 29 129 191 97 190 -7 0 -63 -80 -107
-152 -9 -16 -25 -28 -35 -28 -21 0 -36 26 -20 36 15 9 49 91 49 116 0 18 -25
47 -41 48 -4 0 -19 -10 -33 -21z"/>
<path d="M4885 8340 c-3 -5 2 -32 11 -60 12 -36 14 -57 7 -73 -9 -21 -11 -20
-37 21 -26 41 -48 53 -62 31 -10 -17 17 -88 47 -120 23 -24 33 -28 56 -23 33
8 54 30 46 50 -3 8 0 14 5 14 6 0 13 -9 17 -19 3 -11 30 -45 60 -76 30 -31 55
-63 55 -70 0 -8 -13 -24 -30 -37 -36 -26 -39 -60 -6 -81 27 -18 108 -33 154
-29 45 4 59 39 34 85 -22 41 -91 117 -107 117 -7 0 -34 28 -61 63 -26 34 -55
67 -64 73 -8 7 -28 42 -45 78 -24 52 -35 66 -52 66 -12 0 -24 -4 -28 -10z"/>
<path d="M8142 8329 c-32 -12 -78 -117 -73 -165 1 -14 42 -31 93 -40 33 -5 37
-9 32 -29 -6 -23 10 -64 30 -77 42 -28 96 11 96 71 0 48 -29 73 -105 90 -38 9
-70 21 -72 27 -2 6 12 34 32 63 32 46 34 52 18 58 -10 3 -20 7 -23 8 -3 2 -15
-1 -28 -6z"/>
<path d="M6972 8244 c-19 -13 -23 -24 -20 -58 3 -36 0 -41 -20 -44 -51 -7 -50
-82 1 -139 42 -47 128 -41 181 12 32 32 136 204 136 225 0 26 -41 6 -69 -32
-62 -86 -76 -104 -114 -140 -44 -44 -55 -46 -87 -16 l-24 23 27 9 c30 11 44
47 49 126 3 39 0 45 -17 48 -11 1 -30 -5 -43 -14z"/>
<path d="M5800 8194 c-35 -28 -65 -44 -82 -44 -28 0 -33 -9 -29 -55 1 -11 11
-33 22 -48 22 -30 21 -48 -1 -22 -15 18 -36 20 -46 4 -11 -19 50 -63 114 -83
19 -6 22 -4 22 18 0 14 -8 31 -17 38 -49 36 -56 114 -13 135 27 13 90 79 90
94 0 12 2 13 -60 -37z"/>
<path d="M4704 8116 c-14 -10 -25 -36 -34 -78 -7 -35 -15 -65 -17 -67 -2 -3
-16 8 -33 24 -24 23 -32 26 -45 15 -8 -7 -15 -22 -15 -34 0 -40 -12 -65 -32
-68 -42 -6 -43 -31 -3 -89 62 -91 109 -89 98 4 -6 52 -6 52 15 34 11 -10 31
-17 44 -15 20 3 24 10 31 68 4 36 7 77 8 93 0 35 5 34 24 -3 8 -16 27 -37 40
-46 24 -16 27 -15 45 1 25 23 27 96 4 120 -15 15 -18 15 -36 -2 -20 -17 -21
-17 -32 1 -31 52 -40 58 -62 42z"/>
<path d="M5432 8075 c-21 -46 47 -182 108 -215 21 -11 22 -16 16 -98 -7 -98
-19 -159 -35 -175 -12 -12 -20 5 -19 38 3 46 -3 95 -10 95 -14 0 -32 -73 -32
-127 0 -99 63 -97 114 4 16 32 40 199 30 214 -3 5 6 20 20 34 28 27 46 57 46
74 0 19 -29 12 -40 -9 -14 -26 -27 -25 -35 3 -26 98 -42 131 -76 158 -45 36
-72 37 -87 4z"/>
<path d="M6805 8003 c-13 -12 -16 -28 -12 -59 4 -38 3 -41 -13 -32 -10 6 -25
8 -34 5 -18 -7 -22 -42 -6 -52 6 -3 10 -17 10 -30 0 -16 11 -29 36 -44 62 -37
91 -23 75 36 -13 48 -2 121 20 128 25 8 45 44 27 49 -49 16 -87 15 -103 -1z"/>
<path d="M6536 7781 c-14 -15 -19 -38 -20 -81 -1 -33 2 -60 6 -60 11 0 10 -47
-1 -54 -4 -3 -14 -27 -21 -53 -23 -87 -42 -143 -51 -149 -5 -2 -19 11 -31 30
-23 35 -85 65 -107 52 -6 -4 -11 -22 -11 -40 0 -18 -6 -41 -14 -51 -13 -18
-15 -18 -50 13 -66 58 -86 40 -86 -77 l0 -84 -24 22 c-29 27 -60 24 -64 -7 -2
-12 13 -54 32 -93 20 -40 36 -78 36 -85 0 -8 5 -14 10 -14 6 0 10 -7 10 -15 0
-27 71 -48 85 -25 4 6 2 34 -4 63 -6 28 -13 93 -16 142 -5 88 -4 89 13 65 30
-44 51 -60 77 -60 32 0 45 26 45 94 0 55 14 75 27 39 9 -28 45 -63 63 -63 32
0 58 29 64 75 4 24 11 47 15 50 5 2 11 28 15 57 9 68 12 71 42 41 19 -19 31
-23 52 -18 48 11 56 28 56 118 1 96 -4 107 -75 142 -26 14 -49 29 -51 35 -2 7
-11 3 -22 -9z"/>
<path d="M7664 7767 c-12 -7 -34 -27 -50 -46 -27 -32 -28 -39 -32 -155 -3
-108 -1 -124 17 -153 19 -31 40 -39 81 -33 21 3 44 39 55 90 11 45 11 45 51
43 52 -4 105 38 123 96 14 48 9 61 -24 61 -18 0 -28 -9 -40 -35 -10 -19 -26
-37 -36 -40 -23 -8 -69 19 -69 39 0 18 -47 26 -60 10 -7 -7 -9 -40 -7 -81 3
-39 0 -77 -6 -88 -10 -18 -12 -17 -20 15 -10 41 -11 93 -2 135 3 17 8 40 11
52 2 14 16 25 38 33 38 12 52 35 35 56 -14 17 -37 17 -65 1z"/>
<path d="M4268 7583 c-12 -3 -20 -18 -24 -45 -7 -39 -7 -40 -42 -33 -35 6 -35
6 -28 -25 9 -47 36 -99 57 -110 11 -7 27 -6 45 0 26 10 27 12 21 70 -3 33 -1
63 4 66 5 3 21 -4 35 -15 48 -38 105 -18 118 42 9 37 -20 49 -45 19 -22 -28
-35 -28 -73 1 -42 31 -48 34 -68 30z"/>
<path d="M7050 7108 c-23 -39 -24 -45 -5 -78 22 -38 18 -48 -17 -52 -83 -8
-11 -98 80 -101 l47 -2 3 37 c2 28 -1 39 -17 47 -31 17 -38 74 -12 109 11 16
17 32 13 36 -4 4 -7 13 -7 19 0 7 -15 13 -32 15 -28 3 -36 -2 -53 -30z"/>
<path d="M2956 7063 c-31 -13 -47 -14 -79 -6 -52 14 -77 -8 -77 -69 l0 -43
-23 28 c-60 77 -64 80 -82 73 -19 -7 -19 -11 2 -176 6 -51 5 -54 -10 -41 -10
7 -27 31 -39 52 -12 22 -25 39 -29 39 -3 0 -12 -14 -19 -30 -11 -27 -10 -33 7
-53 11 -12 29 -33 39 -46 35 -43 45 -51 68 -51 34 0 46 19 46 75 l1 50 28 -34
c24 -30 30 -32 50 -22 20 11 22 18 19 99 l-3 87 68 5 c58 4 71 9 87 30 35 45
11 60 -54 33z"/>
<path d="M4610 7007 c0 -13 9 -33 20 -45 11 -12 20 -26 20 -32 0 -5 3 -10 8
-10 4 0 22 -27 41 -60 39 -72 66 -100 97 -100 35 0 46 23 42 89 -4 70 4 83 27
47 31 -46 85 -29 85 27 0 25 -3 29 -22 24 -24 -7 -54 7 -78 34 -8 9 -25 20
-37 24 -29 8 -38 -24 -28 -100 5 -46 4 -54 -8 -49 -9 3 -18 15 -21 27 -3 12
-21 39 -38 59 -18 20 -41 49 -51 63 -23 32 -57 34 -57 2z"/>
<path d="M3762 6981 c-14 -8 -31 -107 -32 -178 0 -44 -17 -93 -32 -93 -4 0 -8
9 -8 19 0 31 -39 114 -68 144 -27 28 -69 36 -78 14 -17 -45 -3 -131 30 -179
13 -20 27 -45 31 -57 6 -21 5 -20 -31 4 -20 14 -42 25 -48 25 -22 0 -36 -24
-36 -59 -1 -30 -2 -33 -11 -18 -12 20 -56 40 -69 32 -11 -7 27 -101 59 -143
20 -27 30 -32 55 -30 28 3 31 6 29 33 -1 17 -4 42 -8 58 -6 22 -4 27 12 27 10
0 23 -4 28 -9 29 -27 97 -12 114 25 6 14 15 23 20 19 18 -10 61 48 61 82 0 55
6 60 59 55 43 -4 50 -1 69 23 12 15 22 36 22 46 0 20 -127 169 -144 169 -6 0
-17 -4 -24 -9z"/>
<path d="M6816 6961 c-16 -18 -16 -25 -4 -94 10 -49 11 -81 5 -95 -13 -28 4
-48 46 -55 18 -3 44 -9 59 -12 23 -6 34 -1 68 32 32 32 40 47 40 76 0 30 -4
37 -20 37 -11 0 -29 -13 -42 -30 -12 -16 -25 -30 -29 -30 -4 0 -8 33 -8 73 0
65 -2 74 -26 95 -32 27 -66 28 -89 3z"/>
<path d="M5430 6835 c-9 -11 -5 -26 26 -77 20 -35 45 -75 55 -90 19 -27 39
-153 39 -240 0 -37 -5 -51 -20 -60 -11 -7 -20 -18 -20 -25 0 -7 -4 -13 -10
-13 -15 0 -28 62 -17 86 13 30 -8 66 -36 62 -20 -3 -22 -9 -22 -74 0 -111 46
-176 104 -145 26 14 44 47 47 86 2 17 7 48 13 70 6 22 11 61 11 88 0 26 2 47
4 47 3 0 21 -9 41 -21 68 -40 105 -4 81 80 -9 29 -7 36 14 53 13 10 30 16 38
13 18 -7 62 21 62 39 0 11 -17 14 -68 14 -75 0 -83 -6 -96 -66 -4 -17 -12 -35
-17 -38 -15 -9 -46 23 -87 86 -35 55 -110 140 -123 140 -3 0 -12 -7 -19 -15z"/>
<path d="M6584 6746 c-3 -15 4 -42 20 -75 l26 -51 -20 -37 c-25 -48 -12 -68
40 -59 32 5 39 2 50 -19 14 -26 45 -39 77 -33 31 6 26 37 -11 78 -20 22 -37
46 -37 53 -3 29 4 55 27 96 20 36 22 47 12 57 -15 15 -25 10 -56 -30 l-22 -29
-33 37 c-39 42 -64 46 -73 12z"/>
<path d="M2486 6749 c-22 -5 -46 -15 -54 -21 -36 -31 -44 -124 -16 -181 36
-70 63 -81 119 -48 25 15 32 27 43 82 11 57 11 68 -5 104 -10 22 -18 46 -18
55 0 18 -19 21 -69 9z"/>
<path d="M1280 6653 c-36 -13 -60 -47 -60 -85 0 -21 5 -38 10 -38 6 0 23 -20
39 -45 16 -25 41 -55 56 -67 23 -18 25 -23 13 -32 -8 -6 -25 -30 -38 -53 -13
-24 -27 -43 -31 -43 -4 0 -13 -16 -19 -35 -13 -39 -50 -51 -50 -16 0 24 -16
36 -62 49 -54 15 -62 0 -54 -100 4 -44 11 -88 16 -98 21 -40 90 -29 105 16 6
17 24 45 42 63 18 17 42 49 54 71 21 36 23 38 43 24 11 -7 37 -14 58 -14 29 0
41 6 57 29 12 16 21 34 21 40 0 6 15 11 34 11 39 0 55 24 26 40 -10 5 -26 10
-34 10 -13 0 -16 12 -16 59 0 53 -4 64 -42 115 -24 32 -61 67 -86 81 -45 25
-55 28 -82 18z"/>
<path d="M2273 6565 c-36 -37 -43 -79 -22 -131 9 -24 7 -31 -13 -46 -20 -15
-21 -19 -8 -28 8 -5 24 -10 36 -10 11 0 29 -9 39 -20 23 -26 59 -22 63 6 2 11
-13 45 -33 74 -32 48 -35 59 -33 111 3 54 8 64 31 60 4 0 7 4 7 9 0 21 -36 7
-67 -25z"/>
<path d="M1993 6478 c-30 -38 -34 -136 -8 -193 10 -22 19 -49 20 -60 1 -11 2
-34 3 -51 2 -35 41 -61 61 -41 8 8 17 5 33 -10 13 -11 40 -27 61 -34 36 -13
40 -12 53 6 22 30 20 34 -48 89 -27 21 -48 43 -48 49 0 6 12 28 26 48 21 31
24 41 14 59 -7 13 -17 19 -27 16 -8 -3 -19 -6 -24 -6 -4 0 -16 -14 -25 -31
-14 -29 -17 -30 -32 -16 -19 19 -30 127 -13 127 6 0 11 -4 11 -10 0 -13 27
-13 35 0 3 6 -3 24 -15 40 -23 32 -60 40 -77 18z"/>
<path d="M3007 6483 c-12 -11 -8 -32 14 -81 52 -113 58 -135 63 -219 4 -64 2
-103 -10 -143 -27 -92 -32 -102 -57 -98 -19 3 -24 12 -32 62 -11 62 -23 77
-45 51 -8 -10 -11 -34 -8 -72 5 -56 -9 -114 -31 -127 -5 -4 -18 6 -29 21 -17
23 -22 25 -36 14 -8 -7 -21 -40 -27 -72 -13 -67 -21 -76 -43 -53 -19 19 -20
70 -2 103 12 21 12 27 0 39 -20 20 -47 11 -55 -18 -11 -40 -10 -109 2 -151 13
-40 50 -64 79 -48 8 4 23 10 33 13 9 3 25 21 34 41 9 19 23 35 31 35 18 0 50
37 64 73 8 23 16 27 42 26 63 -5 85 1 97 24 18 33 38 135 39 194 0 62 15 75
44 39 18 -23 26 -26 50 -20 27 6 28 9 21 50 -7 49 -5 51 35 28 34 -21 57 -13
66 22 9 35 -7 59 -39 59 -15 1 -36 11 -48 24 -27 29 -50 24 -63 -16 -12 -36
-21 -34 -51 12 -19 28 -30 48 -85 153 -21 39 -38 51 -53 35z"/>
<path d="M4262 6438 c-7 -7 -12 -36 -12 -65 0 -50 -1 -53 -26 -53 -23 0 -25
-3 -20 -25 19 -75 51 -104 89 -81 16 10 18 20 13 81 -8 90 1 105 46 81 46 -25
123 -19 123 9 0 14 -7 20 -25 21 -51 1 -109 16 -121 30 -14 17 -51 18 -67 2z"/>
<path d="M6414 6365 c-14 -22 -16 -41 -10 -117 7 -105 20 -139 59 -152 23 -9
31 -6 53 16 14 14 29 41 33 59 7 33 8 34 54 31 43 -3 48 -1 65 28 24 38 35
115 22 141 -15 27 -23 24 -44 -22 -11 -22 -24 -43 -29 -46 -5 -3 -24 11 -41
32 -27 32 -37 37 -62 33 -18 -2 -36 2 -43 9 -18 20 -39 16 -57 -12z"/>
<path d="M6136 6259 c-18 -45 -11 -65 26 -71 23 -3 44 -36 72 -113 50 -136
107 -181 142 -113 l17 32 -40 36 c-25 22 -44 50 -52 77 -11 39 -49 118 -82
171 -9 14 -24 22 -40 22 -22 0 -30 -7 -43 -41z"/>
<path d="M5287 6238 c-2 -7 0 -26 5 -43 7 -27 4 -71 -9 -117 -6 -26 -30 -22
-49 7 -19 29 -49 33 -63 8 -7 -13 -3 -30 14 -64 35 -69 73 -78 124 -29 24 23
34 45 42 87 14 72 4 140 -21 153 -25 13 -37 13 -43 -2z"/>
<path d="M870 6155 c-8 -9 -11 -30 -7 -55 3 -22 2 -40 -3 -40 -4 0 -30 20 -58
45 -51 46 -85 57 -96 30 -3 -8 3 -20 12 -27 9 -7 37 -35 61 -63 89 -101 103
-115 120 -115 10 0 23 11 31 24 12 24 11 39 -5 79 -5 12 -2 17 9 17 9 0 16 -4
16 -10 0 -15 39 -32 60 -25 10 3 22 15 25 26 8 23 -12 52 -31 45 -7 -3 -35 15
-61 39 -54 50 -56 51 -73 30z"/>
<path d="M1495 6007 c-8 -32 6 -60 60 -117 l43 -45 -7 -90 c-9 -107 -46 -205
-80 -205 -36 0 -35 22 3 56 30 27 36 40 36 73 0 38 -25 81 -47 81 -45 -1 -63
-28 -78 -113 -3 -21 -13 -41 -21 -44 -19 -7 -18 -33 2 -33 9 0 29 -14 45 -31
25 -27 32 -30 71 -24 54 8 63 16 84 71 13 34 21 43 33 38 9 -3 32 -8 51 -11
31 -4 37 -1 53 26 10 18 18 46 17 64 -4 70 -1 76 42 97 23 11 47 20 54 20 14
0 27 28 18 41 -7 11 -37 12 -49 0 -16 -14 -71 -29 -82 -22 -6 3 -22 24 -36 46
-50 79 -117 136 -168 142 -34 5 -39 3 -44 -20z"/>
<path d="M344 5978 c-22 -25 -83 -121 -123 -195 -26 -47 -22 -74 13 -81 12 -3
16 4 16 26 0 29 28 72 47 72 13 0 83 -103 83 -123 0 -8 9 -19 20 -22 27 -9 25
-37 -5 -65 -24 -23 -26 -23 -39 -5 -15 20 -21 14 -30 -31 -5 -24 -3 -33 9 -38
24 -9 95 32 135 78 19 22 48 54 65 71 56 56 85 98 85 121 0 13 -5 24 -11 24
-7 0 -41 -29 -76 -64 -35 -36 -70 -63 -76 -60 -7 2 -20 17 -31 32 -10 15 -38
43 -62 62 -24 19 -44 42 -44 50 1 31 46 95 78 110 23 11 31 21 30 35 -4 31
-58 32 -84 3z"/>
<path d="M5021 5986 c-8 -9 -10 -32 -5 -65 7 -58 -7 -73 -52 -52 -41 18 -64
-1 -64 -54 0 -38 -3 -44 -22 -47 -32 -4 -35 -42 -6 -86 13 -20 30 -50 38 -66
16 -32 51 -52 74 -43 24 9 30 53 13 90 -9 18 -19 53 -23 77 l-7 45 32 -28 c18
-15 37 -27 42 -27 22 0 59 50 59 80 0 28 2 30 26 24 66 -17 103 53 42 80 -18
8 -48 30 -67 50 -36 38 -61 45 -80 22z"/>
<path d="M3750 5815 c0 -8 -10 -23 -21 -34 -19 -17 -21 -27 -15 -66 3 -26 13
-62 22 -80 13 -28 13 -40 3 -77 -7 -23 -19 -51 -27 -60 -13 -16 -16 -16 -41 0
-14 9 -39 27 -56 40 l-29 24 -18 -22 c-11 -14 -18 -39 -18 -66 0 -51 -17 -64
-56 -44 -38 21 -52 0 -28 -41 22 -37 58 -66 96 -74 37 -9 49 17 39 86 -10 76
-6 83 32 55 41 -31 66 -36 98 -20 38 19 47 34 53 88 4 33 12 54 26 63 12 9 20
25 20 44 0 16 3 29 8 29 11 0 55 -32 69 -49 6 -9 43 -38 81 -66 38 -27 80 -65
92 -82 21 -31 21 -34 7 -57 -20 -29 -78 -42 -118 -25 -27 10 -29 15 -27 60 1
26 -1 51 -5 56 -15 14 -42 -14 -56 -57 -12 -38 -12 -47 0 -69 29 -52 141 -80
195 -48 65 38 78 56 78 110 1 50 -1 55 -43 92 -24 22 -70 57 -102 78 -71 46
-158 130 -193 185 -26 42 -66 58 -66 27z"/>
<path d="M7071 5814 c-54 -23 -83 -62 -76 -104 5 -31 2 -38 -25 -58 -25 -19
-29 -26 -19 -38 6 -8 18 -14 27 -14 8 0 33 -18 54 -40 22 -22 48 -40 59 -40
24 0 36 44 20 73 -7 12 -19 35 -27 50 -25 45 -10 104 32 129 39 23 42 33 15
48 -24 12 -18 13 -60 -6z"/>
<path d="M2459 5784 c-5 -16 -7 -58 -3 -100 7 -79 2 -87 -34 -54 -12 11 -24
20 -28 20 -4 0 -18 9 -30 21 -18 17 -26 19 -43 10 -25 -14 -26 -25 -6 -82 20
-56 13 -77 -15 -49 -26 26 -44 22 -48 -12 -2 -18 4 -30 22 -42 14 -9 44 -50
66 -90 23 -41 48 -80 56 -87 23 -19 50 -21 64 -4 10 12 3 34 -39 117 -28 57
-54 119 -57 138 l-6 35 20 -20 c12 -11 43 -51 69 -90 50 -73 79 -89 103 -60
12 14 11 25 -2 68 -19 62 -48 188 -48 211 0 35 30 12 65 -49 41 -75 66 -93
100 -75 22 12 41 63 29 81 -3 5 -16 6 -29 3 -20 -5 -28 0 -46 31 -25 42 -103
105 -131 105 -11 0 -23 -11 -29 -26z"/>
<path d="M5735 5719 c-16 -10 -37 -16 -46 -14 -24 8 -41 -19 -38 -58 2 -22 -3
-40 -14 -51 -24 -25 -21 -42 16 -88 72 -91 168 -127 175 -66 3 21 -8 42 -43
84 -53 66 -59 109 -16 131 14 6 31 23 38 37 13 25 12 27 -12 36 -15 6 -27 10
-28 9 -1 0 -15 -9 -32 -20z"/>
<path d="M6757 5638 c-15 -6 -29 -19 -31 -31 -16 -78 -15 -109 4 -159 11 -29
20 -58 20 -64 0 -24 -33 -24 -62 1 -16 14 -33 25 -37 25 -21 0 -42 -30 -47
-65 -14 -103 -23 -109 -50 -35 -20 55 -56 96 -74 85 -7 -4 -23 -32 -36 -61
-22 -50 -25 -53 -44 -42 -12 8 -23 28 -26 49 -8 49 -18 63 -39 55 -15 -5 -16
-14 -11 -58 4 -28 16 -69 28 -91 l20 -40 -31 -29 c-35 -33 -37 -40 -16 -58 13
-11 22 -10 53 4 40 20 39 20 74 -44 15 -27 23 -31 50 -28 38 4 48 27 22 53
-28 28 -74 99 -74 115 0 8 9 26 19 39 l18 23 28 -48 c37 -66 64 -94 89 -94 31
0 49 37 51 103 1 31 4 59 6 62 3 2 22 0 43 -6 42 -12 89 -5 106 17 7 7 30 19
51 24 47 13 71 45 100 133 21 64 21 97 0 97 -13 0 -61 -70 -61 -88 0 -12 -23
-42 -32 -42 -2 0 -4 22 -4 48 0 52 -32 130 -61 148 -12 7 -27 8 -46 2z"/>
<path d="M1136 5611 c-3 -4 8 -34 24 -66 17 -32 30 -65 30 -72 0 -16 122 -134
134 -130 5 2 14 11 20 20 8 12 3 25 -21 55 -26 32 -29 41 -19 53 24 26 64 104
59 117 -10 27 -43 12 -64 -30 -33 -65 -51 -73 -73 -30 -13 26 -71 92 -80 92
-3 0 -7 -4 -10 -9z"/>
<path d="M5410 5412 c-29 -44 -39 -95 -21 -106 4 -3 11 -23 15 -45 3 -22 18
-53 32 -70 21 -25 33 -31 65 -31 48 0 74 23 90 82 31 116 -11 201 -103 211
-47 4 -48 4 -78 -41z"/>
<path d="M4607 5435 c-12 -6 -28 -21 -35 -35 -12 -22 -12 -33 3 -84 9 -32 26
-67 36 -77 29 -29 73 -24 103 12 27 32 29 38 26 109 -2 74 -65 109 -133 75z"/>
<path d="M994 5354 c-12 -17 -16 -43 -15 -82 2 -79 17 -120 51 -137 38 -20 56
-19 72 3 7 11 23 24 35 30 27 15 39 82 24 138 -13 48 -52 74 -110 74 -32 0
-44 -5 -57 -26z"/>
<path d="M4339 5298 c-36 -40 -49 -81 -56 -174 -5 -70 -5 -72 22 -90 26 -17
30 -17 72 -2 40 15 43 14 39 -1 -7 -19 2 -34 28 -48 28 -16 53 -5 77 34 24 38
22 109 -3 124 -25 16 -79 9 -118 -16 -22 -14 -44 -25 -49 -25 -15 0 -23 19
-14 33 4 6 9 17 10 22 1 6 7 31 14 58 6 26 16 47 23 47 20 0 49 38 43 55 -11
26 -56 18 -88 -17z"/>
<path d="M792 5163 c-14 -26 3 -63 28 -63 17 0 20 -6 20 -44 0 -27 -7 -52 -18
-66 -16 -20 -21 -21 -39 -9 -12 7 -26 24 -32 37 -12 26 -34 25 -39 -1 -5 -23
33 -74 69 -92 25 -13 33 -13 61 -2 51 21 60 39 59 112 -1 89 -25 139 -68 143
-23 2 -34 -2 -41 -15z"/>
<path d="M3184 5144 c4 -22 10 -61 13 -88 l5 -49 -27 21 c-32 25 -48 27 -63 9
-24 -29 45 -89 126 -107 26 -7 35 -4 46 12 17 23 5 86 -18 104 -9 6 -16 23
-16 37 0 22 6 27 34 33 37 6 52 26 33 42 -7 5 -41 13 -76 17 l-63 7 6 -38z"/>
<path d="M1944 5147 c-3 -9 4 -41 15 -72 36 -95 24 -139 -19 -70 -27 43 -57
46 -66 8 -14 -58 -47 -75 -98 -52 -37 17 -56 -3 -56 -56 0 -58 -8 -79 -26 -64
-16 13 -34 4 -34 -19 0 -9 12 -35 25 -57 24 -39 35 -118 17 -129 -8 -5 -72 49
-72 61 -1 5 -11 21 -24 37 -23 28 -46 29 -46 2 0 -9 -9 -12 -25 -9 -20 4 -28
-1 -45 -29 -31 -53 -92 -98 -133 -98 -30 0 -37 -4 -46 -30 -5 -17 -8 -37 -5
-44 3 -8 -2 -26 -12 -41 -17 -25 -17 -28 1 -57 52 -89 -34 -216 -90 -132 -15
23 -15 28 -3 41 19 18 8 95 -17 123 -23 25 -75 41 -92 27 -22 -16 -16 -60 21
-162 6 -16 29 -49 52 -72 36 -38 46 -43 86 -43 36 0 50 6 72 29 15 15 30 41
35 57 6 25 13 29 48 32 32 2 42 8 47 25 3 12 -1 31 -9 42 -79 107 -82 128 -23
173 50 38 65 40 79 8 6 -13 26 -32 43 -41 39 -21 72 -9 82 30 7 29 3 29 47 10
26 -11 43 -12 62 -5 22 8 25 15 25 61 l0 51 29 -7 c24 -5 32 -2 41 15 9 17 5
31 -21 80 -17 32 -32 76 -33 97 -1 34 2 38 24 41 14 1 44 9 66 18 39 14 44 14
78 -6 59 -32 84 -27 105 22 l17 42 21 -21 c12 -12 31 -27 43 -33 24 -13 24
-13 -4 -112 -19 -70 -11 -97 39 -128 29 -18 46 -21 82 -17 47 5 73 26 93 74
15 37 -40 140 -83 156 -11 4 -21 16 -24 27 -3 11 -13 20 -22 20 -15 1 -51 22
-51 32 0 2 -36 41 -80 86 -81 83 -124 108 -136 79z"/>
<path d="M410 5091 c0 -6 -17 -11 -37 -13 -31 -3 -38 -8 -45 -33 -21 -72 16
-200 70 -242 18 -14 59 -7 84 14 20 17 19 18 81 -58 29 -36 48 -49 83 -58 57
-15 80 -8 99 29 52 100 -85 220 -148 130 -14 -20 -15 -20 -49 27 -20 28 -42
78 -53 118 -11 39 -25 76 -31 83 -15 14 -54 16 -54 3z"/>
<path d="M6176 5023 c-20 -41 -29 -92 -18 -106 5 -7 12 -52 15 -101 6 -100 16
-116 73 -116 26 0 39 8 59 34 14 19 25 40 24 48 -1 7 1 34 5 60 14 80 -22 151
-95 188 -48 25 -46 25 -63 -7z"/>
<path d="M2956 4914 c-3 -8 -14 -14 -24 -12 -34 6 -52 -21 -52 -74 0 -61 21
-114 50 -123 30 -9 70 19 70 50 0 28 21 33 40 10 7 -8 27 -15 45 -15 44 0 74
36 67 79 -5 36 -23 40 -52 11 -26 -26 -27 -25 -44 8 -20 37 -64 82 -80 82 -8
0 -17 -7 -20 -16z"/>
<path d="M3919 4834 c-18 -35 -18 -143 1 -178 17 -33 58 -56 98 -56 39 0 125
64 152 112 41 73 -8 74 -78 2 -30 -32 -50 -44 -70 -43 -25 0 -25 1 -6 9 54 22
50 136 -6 165 -44 23 -74 19 -91 -11z"/>
<path d="M5022 4822 c-26 -27 -63 -142 -62 -193 0 -18 44 -34 61 -23 15 9 39
69 39 96 0 13 9 39 19 59 16 29 17 40 8 59 -18 35 -34 35 -65 2z"/>
<path d="M2714 4685 c-9 -14 -17 -46 -18 -70 0 -25 -4 -45 -8 -45 -4 0 -28 29
-55 65 -49 67 -77 81 -88 44 -5 -14 4 -36 29 -72 20 -29 36 -56 36 -60 0 -10
52 -90 65 -99 17 -13 52 -9 66 8 8 10 12 39 11 85 -3 83 10 90 50 24 31 -51
59 -58 89 -23 11 11 19 25 19 29 0 19 -13 39 -26 39 -8 0 -36 20 -62 44 -62
58 -86 65 -108 31z"/>
<path d="M3613 4615 c-11 -30 7 -88 60 -199 69 -141 80 -152 160 -148 22 2 31
10 43 38 16 39 17 128 2 179 -5 17 -10 39 -11 50 -2 14 -13 23 -40 29 -45 11
-66 2 -85 -37 -18 -36 -39 -24 -47 26 -4 23 -11 50 -17 60 -11 21 -56 23 -65
2z"/>
<path d="M2412 4506 c-39 -54 -44 -119 -12 -154 18 -19 28 -21 63 -16 23 4 50
11 59 15 29 15 38 10 38 -22 0 -30 -2 -31 -32 -27 -47 7 -58 1 -58 -37 0 -62
85 -70 136 -14 44 49 52 149 13 169 -26 14 -74 12 -116 -5 -19 -8 -40 -15 -45
-15 -13 0 -2 80 13 95 20 20 4 55 -25 55 -1 0 -17 -20 -34 -44z"/>
<path d="M5951 4528 c-14 -10 -30 -27 -35 -37 -6 -10 -29 -41 -51 -70 -39 -50
-65 -65 -65 -36 0 70 -109 123 -139 67 -13 -25 -6 -105 13 -142 9 -18 13 -36
10 -41 -8 -14 -42 -11 -76 7 -41 21 -49 10 -63 -78 -6 -39 -16 -73 -22 -75 -6
-2 -19 12 -29 32 -19 41 -71 85 -101 85 -19 0 -37 -30 -57 -93 -5 -16 -9 -15
-31 11 -14 17 -25 35 -25 40 0 17 -37 24 -60 12 -11 -6 -20 -13 -20 -16 0 -3
20 -34 45 -70 25 -35 45 -67 45 -72 0 -4 -9 -15 -20 -25 -23 -19 -26 -52 -7
-64 19 -12 40 -13 52 -3 8 7 20 -4 38 -31 15 -22 27 -44 27 -47 0 -4 16 -18
35 -31 29 -19 38 -21 50 -11 25 21 18 46 -35 123 -55 81 -58 95 -33 138 17 29
33 38 33 19 0 -12 12 -28 52 -71 21 -23 35 -29 66 -29 l39 0 17 58 c9 32 16
68 16 81 0 20 3 21 35 15 45 -8 66 4 160 94 65 62 89 93 133 168 41 68 50 98
34 107 -4 3 -18 -4 -31 -15z"/>
<path d="M4731 4508 c-25 -26 -51 -112 -50 -165 0 -21 8 -58 18 -83 16 -40 23
-46 56 -51 56 -9 87 7 118 62 30 54 35 100 12 119 -19 16 -31 7 -54 -44 -21
-49 -49 -75 -37 -35 49 161 49 200 2 213 -35 9 -44 7 -65 -16z"/>
<path d="M760 4459 c0 -6 17 -46 37 -87 26 -53 33 -77 24 -80 -7 -2 -16 -15
-21 -28 -9 -24 -10 -24 -45 -7 -31 15 -37 15 -45 3 -15 -23 -12 -51 6 -71 15
-17 19 -17 46 -3 28 15 29 14 68 -26 28 -30 46 -40 69 -40 17 0 31 -4 31 -10
0 -5 16 -20 34 -32 19 -13 37 -31 40 -41 6 -23 64 -20 79 4 9 14 -1 29 -46 80
-31 34 -57 69 -57 76 0 8 7 30 15 50 27 63 11 84 -33 43 -12 -11 -25 -20 -30
-20 -10 0 -107 147 -116 178 -5 15 -15 22 -32 22 -13 0 -24 -5 -24 -11z"/>
<path d="M343 4253 c-7 -19 -8 -34 -3 -166 2 -60 -1 -85 -16 -112 -17 -33 -17
-35 0 -54 15 -16 23 -18 44 -10 37 14 42 25 42 104 l1 70 29 -60 c16 -33 41
-87 56 -120 l26 -59 -26 -19 c-19 -14 -26 -28 -26 -53 0 -42 22 -99 43 -110 9
-5 32 -31 52 -57 32 -42 41 -48 68 -45 27 2 33 8 35 32 2 15 -1 40 -6 55 -6
14 -13 39 -16 54 l-7 28 33 -17 c18 -9 35 -21 38 -25 4 -5 20 -11 37 -15 25
-5 33 -2 43 15 9 19 7 26 -19 51 -16 17 -40 30 -53 30 -13 1 -45 14 -73 29
-37 22 -53 37 -60 62 -5 19 -18 45 -27 59 -20 31 -47 90 -89 199 -46 119 -107
183 -126 134z"/>
<path d="M4427 4252 c-10 -10 -17 -22 -17 -27 0 -5 -10 -19 -22 -32 -23 -25
-27 -60 -16 -146 6 -46 -15 -113 -60 -195 -18 -32 -53 -25 -65 13 -5 17 -14
36 -20 43 -10 13 -95 16 -114 4 -48 -30 -40 -222 10 -257 49 -34 118 -8 133
49 3 15 19 31 40 41 42 20 77 78 100 168 18 65 19 67 51 67 26 0 36 6 48 30 8
16 15 35 15 43 0 8 6 20 13 26 15 12 38 -9 68 -59 14 -22 14 -30 -1 -69 -19
-48 -13 -117 11 -132 20 -12 100 -11 140 2 52 17 97 38 104 49 13 20 -7 49
-53 79 -70 45 -112 84 -112 104 0 10 -14 24 -33 33 -35 17 -59 48 -102 132
-25 49 -29 52 -64 52 -24 0 -44 -7 -54 -18z"/>
<path d="M3096 4151 c-35 -38 -5 -146 58 -211 35 -36 45 -55 51 -95 12 -83 37
-114 91 -115 40 0 70 32 83 89 7 31 21 56 48 80 36 34 73 83 73 96 0 3 -10 10
-22 14 -19 7 -29 3 -55 -21 -31 -30 -53 -31 -53 -2 0 8 -8 27 -17 42 -63 99
-214 171 -257 123z"/>
<path d="M3825 3935 c-16 -19 -42 -40 -58 -46 -32 -13 -47 -37 -47 -73 0 -14
-4 -26 -10 -26 -5 0 -12 -11 -16 -25 -14 -55 84 -146 122 -114 12 10 14 23 9
58 -4 25 -11 54 -16 64 -11 20 5 57 24 57 15 1 77 84 77 104 0 15 -29 36 -48
36 -5 0 -22 -16 -37 -35z"/>
<path d="M2935 3829 c-10 -16 4 -59 36 -112 16 -26 29 -51 29 -56 0 -15 79
-91 95 -91 32 0 65 31 65 61 0 30 -30 55 -55 45 -15 -5 -40 19 -49 50 -4 12
-15 29 -26 39 -11 10 -20 24 -20 31 0 14 -38 44 -57 44 -6 0 -15 -5 -18 -11z"/>
<path d="M1678 3778 c-19 -15 -31 -77 -19 -97 13 -19 98 -33 139 -21 19 5 39
7 44 4 10 -7 11 -34 0 -34 -13 0 -52 -40 -52 -53 0 -22 37 -38 64 -27 39 14
76 61 76 95 0 69 -55 96 -151 76 -28 -6 -54 -9 -57 -6 -3 2 -5 19 -6 37 -1 35
-14 44 -38 26z"/>
<path d="M3890 3710 c-11 -7 -15 -29 -15 -85 0 -65 -2 -74 -16 -70 -17 6 -49
-18 -49 -36 0 -6 11 -25 24 -42 12 -18 46 -73 75 -123 54 -96 89 -127 119
-108 26 17 25 46 -1 105 -79 174 -75 159 -47 159 12 0 30 9 42 20 18 17 20 27
16 90 -4 54 -10 74 -24 85 -22 16 -101 20 -124 5z"/>
<path d="M5013 3592 c-20 -13 -53 -95 -53 -132 0 -19 4 -50 9 -67 9 -30 6 -35
-40 -80 -27 -26 -52 -57 -55 -68 -10 -32 -65 -96 -76 -89 -5 4 -8 25 -6 48 6
60 -8 105 -37 112 -43 11 -62 -3 -75 -55 -17 -72 0 -124 50 -156 22 -14 49
-25 60 -25 32 0 78 27 85 50 3 11 10 20 14 20 8 0 44 77 59 125 l9 30 16 -32
c19 -36 68 -53 92 -33 20 17 19 35 -4 79 -40 76 -45 177 -11 240 5 11 10 24
10 30 0 13 -29 14 -47 3z"/>
<path d="M2894 3523 c26 -110 11 -160 -23 -80 -36 84 -61 67 -52 -37 5 -55 11
-72 30 -87 63 -51 115 -4 127 116 8 76 -12 114 -60 115 -26 0 -28 -2 -22 -27z"/>
<path d="M1280 3404 c-13 -34 -13 -47 4 -69 11 -16 25 -19 71 -17 61 3 62 2
41 -49 -19 -44 80 -68 122 -29 32 30 44 86 26 121 -8 16 -23 33 -35 39 -22 12
-95 4 -105 -11 -3 -5 -16 -9 -30 -9 -17 0 -27 8 -34 25 -13 34 -47 33 -60 -1z"/>
<path d="M1088 3350 c-15 -9 -16 -22 -11 -94 6 -83 6 -84 -18 -88 -30 -4 -38
-37 -13 -55 10 -7 32 -13 48 -13 17 0 40 -7 50 -15 11 -8 32 -15 47 -15 22 0
33 10 58 50 17 27 33 61 37 75 6 25 5 26 -27 23 -28 -3 -34 -8 -41 -36 -9 -35
-35 -40 -30 -6 13 91 -14 177 -58 181 -14 2 -33 -2 -42 -7z"/>
<path d="M2624 3324 c-67 -23 -74 -49 -53 -187 12 -81 29 -107 70 -107 41 0
64 31 77 104 30 163 1 223 -94 190z"/>
<path d="M2274 3212 c-57 -50 -66 -89 -50 -224 9 -79 36 -126 86 -150 66 -31
113 -7 203 105 32 41 34 57 8 88 -18 22 -19 22 -45 6 -14 -10 -26 -25 -26 -35
0 -31 -40 -83 -75 -98 -43 -18 -58 -12 -78 32 -18 37 -21 85 -10 172 5 45 10
55 30 63 19 7 24 15 21 36 -4 37 -26 39 -64 5z"/>
<path d="M823 3108 c-6 -7 -14 -25 -19 -41 l-9 -27 -37 20 c-21 11 -44 20 -52
20 -8 0 -16 5 -18 10 -2 7 -13 6 -30 -2 -25 -12 -33 -25 -53 -83 -6 -19 -8
-19 -28 7 -12 15 -29 36 -37 47 -19 26 -73 33 -78 10 -1 -9 6 -27 17 -40 82
-96 95 -125 66 -149 -9 -7 -15 -23 -13 -34 3 -21 29 -26 67 -15 8 2 20 -7 27
-20 27 -53 98 -89 110 -57 6 16 -4 37 -52 110 l-32 47 16 49 c9 28 22 50 29
50 7 0 43 -31 80 -70 52 -54 73 -70 95 -70 32 0 44 29 35 86 -7 40 -4 41 38
10 29 -23 52 -30 83 -27 18 1 42 63 35 89 -4 16 -13 22 -34 22 -15 0 -31 -5
-35 -11 -4 -7 -16 -2 -33 14 -30 29 -96 67 -115 67 -7 0 -18 -6 -23 -12z"/>
<path d="M3601 3038 c-57 -108 -94 -133 -126 -84 -18 27 -53 40 -71 25 -7 -6
-10 -26 -6 -54 3 -30 1 -45 -7 -45 -6 0 -11 6 -12 13 0 6 -1 27 -2 46 -3 61
-62 69 -77 10 -11 -42 16 -172 41 -191 45 -37 88 -15 114 59 12 34 17 38 46
35 46 -4 92 36 129 112 61 122 33 191 -29 74z"/>
<path d="M4440 3090 c0 -14 22 -62 43 -93 17 -25 18 -32 6 -53 -15 -29 -3 -57
27 -62 10 -2 34 -10 52 -18 53 -25 78 10 51 70 -10 21 -8 38 10 91 11 36 21
68 21 70 0 3 -12 5 -28 5 -26 0 -44 -17 -64 -60 -5 -12 -8 -10 -14 7 -10 34
-104 73 -104 43z"/>
<path d="M4316 3034 c-46 -45 -80 -110 -84 -159 -4 -44 -1 -55 22 -82 l27 -32
-22 -22 c-17 -17 -20 -28 -15 -60 6 -38 -12 -111 -44 -181 -16 -35 -44 -36
-66 -3 -9 14 -27 28 -40 31 -13 3 -28 12 -35 20 -30 37 -73 -4 -100 -94 -10
-33 -10 -56 0 -111 15 -86 38 -113 89 -109 46 4 76 46 86 117 6 48 9 51 35 51
16 0 36 10 48 23 28 29 73 129 73 160 0 64 45 140 64 108 11 -17 92 -39 109
-29 31 17 19 47 -34 85 -53 37 -53 38 -28 99 7 17 9 38 6 48 -10 25 -54 20
-73 -9 -23 -36 -34 -31 -34 14 0 56 8 71 40 71 35 0 54 22 46 55 -7 29 -45 34
-70 9z"/>
<path d="M1493 2929 c-14 -14 0 -81 31 -149 31 -65 32 -79 9 -119 -17 -29 -17
-30 5 -54 12 -13 22 -33 22 -45 0 -33 -32 -92 -50 -92 -18 0 -43 25 -53 52 -3
9 -24 26 -46 38 -48 24 -51 24 -51 5 0 -8 -9 -29 -20 -47 -23 -37 -27 -125 -9
-176 8 -25 18 -33 45 -38 45 -8 64 0 77 36 10 25 19 32 52 37 53 8 100 55 109
108 10 61 21 73 44 52 23 -21 55 -22 71 -3 9 11 6 20 -12 42 -38 46 -59 94
-54 123 3 14 10 45 15 67 14 65 -11 93 -50 58 -17 -16 -19 -15 -33 19 -8 20
-15 40 -15 45 0 4 -9 18 -20 30 -22 24 -50 28 -67 11z"/>
<path d="M3127 2602 c-10 -10 -17 -26 -17 -35 0 -26 -20 -30 -43 -9 -31 28
-105 39 -113 18 -5 -13 -14 -15 -39 -10 -55 10 -88 -4 -148 -61 -31 -30 -61
-55 -66 -55 -5 0 -23 -16 -40 -35 -32 -37 -42 -94 -22 -133 5 -9 16 -34 24
-54 30 -69 105 -88 140 -35 36 55 38 132 7 199 -12 25 -10 32 14 68 14 22 33
40 41 40 22 0 57 -44 75 -93 14 -38 19 -42 52 -45 31 -3 36 0 42 23 4 15 4 35
1 46 -7 22 14 26 33 7 20 -20 78 19 96 67 23 58 21 115 -2 115 -11 0 -26 -8
-35 -18z"/>
<path d="M1230 2364 c-11 -26 -20 -51 -20 -56 0 -12 -31 -58 -39 -58 -4 0 -21
13 -39 30 -36 32 -66 44 -103 38 -20 -2 -24 -9 -24 -41 0 -20 -2 -37 -5 -37
-3 0 -14 14 -25 31 -24 36 -51 49 -108 49 -36 0 -48 -6 -81 -40 -44 -46 -48
-45 -97 27 -32 47 -65 56 -90 27 -12 -15 -9 -21 27 -53 22 -20 48 -48 57 -63
16 -26 16 -30 -2 -76 -10 -26 -33 -63 -51 -81 -33 -36 -36 -67 -9 -84 25 -16
49 -1 67 43 9 22 22 40 28 40 6 0 17 -20 24 -44 15 -56 77 -119 111 -114 38 5
37 47 -1 83 -35 34 -70 104 -70 142 0 14 16 50 36 80 34 51 38 54 67 47 35 -7
45 -19 77 -80 23 -47 35 -59 67 -66 27 -7 50 17 59 60 7 36 15 39 35 15 34
-40 117 -50 120 -14 1 9 3 27 4 41 14 153 17 200 12 200 -3 0 -15 -21 -27 -46z"/>
<path d="M3512 2150 c-47 -20 -63 -146 -24 -199 20 -28 29 -61 16 -61 -3 0
-25 14 -49 30 -67 46 -105 39 -120 -23 -8 -30 -19 -33 -55 -12 -14 8 -46 14
-71 15 -37 0 -52 -5 -74 -27 -48 -49 -58 -80 -52 -158 10 -126 48 -177 115
-154 50 17 68 121 35 211 -9 26 -14 51 -10 54 16 16 53 -27 72 -82 17 -51 24
-59 48 -62 31 -4 34 2 42 78 9 85 11 94 24 98 6 2 21 -8 32 -23 18 -22 28 -26
67 -23 42 3 48 7 68 41 12 21 43 53 70 71 68 46 118 150 83 172 -7 4 -30 -12
-55 -40 -24 -25 -48 -46 -54 -46 -5 0 -10 18 -10 40 0 46 -21 95 -45 104 -20
7 -24 7 -53 -4z"/>
<path d="M1764 2075 c-14 -22 -15 -32 -4 -78 7 -28 15 -104 19 -168 7 -137 20
-162 80 -157 32 3 39 8 60 54 15 31 35 55 50 62 24 11 52 50 90 125 11 22 19
27 35 23 12 -3 33 -6 49 -6 17 0 27 -5 27 -15 0 -8 -12 -17 -27 -21 -52 -11
-55 -13 -47 -36 21 -68 96 -45 161 47 19 28 20 33 8 63 -8 18 -22 33 -32 33
-10 1 -38 2 -63 3 -42 1 -45 3 -48 31 -2 17 -11 38 -19 48 -15 16 -17 16 -35
1 -12 -12 -18 -31 -18 -63 0 -35 -5 -49 -19 -58 -11 -7 -32 -33 -47 -58 -14
-25 -31 -44 -38 -42 -6 2 -14 24 -17 48 -8 53 -42 129 -74 163 -31 34 -69 34
-91 1z"/>
<path d="M1563 1789 c-7 -7 -18 -39 -24 -70 -11 -56 -12 -58 -39 -53 -37 8
-50 -14 -22 -37 12 -9 22 -25 22 -34 0 -28 39 -94 66 -112 25 -16 27 -16 40 2
15 21 16 45 5 153 -4 44 -3 76 3 82 6 6 27 10 48 10 28 0 40 5 48 21 14 25 9
31 -27 35 -16 2 -46 6 -68 9 -27 5 -44 2 -52 -6z"/>
<path d="M1287 1622 c-25 -26 -27 -34 -27 -113 0 -72 3 -88 23 -112 31 -39 76
-40 111 -2 14 15 26 38 26 51 0 12 5 26 10 29 13 8 13 74 0 111 -11 32 -59 64
-94 64 -12 0 -34 -13 -49 -28z"/>
<path d="M956 1481 c-23 -26 -12 -46 41 -71 44 -21 45 -22 40 -57 -10 -61 -41
-65 -67 -10 -10 21 -24 33 -39 35 -31 5 -54 -23 -41 -49 12 -21 16 -132 6
-148 -16 -25 -38 -9 -62 44 -13 31 -24 66 -24 78 0 32 -12 45 -44 49 -62 7
-58 -71 8 -175 70 -109 138 -137 176 -74 11 17 23 48 26 68 6 33 10 37 44 43
73 11 114 112 86 208 -13 46 -20 55 -49 66 -47 17 -81 15 -101 -7z"/>
<path d="M2388 1163 c-8 -10 -18 -26 -22 -37 -6 -17 -8 -17 -24 -3 -10 9 -35
23 -56 32 -58 25 -69 9 -72 -107 -4 -118 -12 -160 -27 -155 -9 3 -11 32 -8
101 3 104 -4 126 -44 126 -37 0 -50 -26 -51 -106 0 -43 -5 -79 -13 -88 -17
-20 -10 -48 14 -61 11 -6 36 -21 55 -33 47 -29 75 -28 98 6 27 40 46 110 33
126 -12 15 -1 98 14 102 6 2 22 -15 38 -37 31 -44 72 -66 93 -48 7 6 16 31 20
55 3 24 9 44 13 44 4 0 20 -16 35 -35 35 -43 72 -48 82 -9 10 40 -10 69 -74
108 -67 41 -83 43 -104 19z"/>
<path d="M1818 903 c-22 -5 -51 -67 -58 -123 -5 -40 -8 -45 -29 -42 -13 1 -29
-3 -36 -8 -9 -7 -15 -7 -19 -1 -4 5 -35 7 -74 5 -80 -6 -95 -19 -90 -84 3 -44
2 -45 -29 -48 -45 -4 -42 -30 7 -65 22 -16 40 -35 40 -43 0 -8 11 -20 25 -26
21 -9 29 -9 42 5 15 15 16 24 4 92 -14 84 -7 105 33 105 12 0 30 6 40 13 16
12 25 10 66 -12 25 -14 59 -34 73 -45 15 -10 47 -21 71 -23 43 -5 45 -4 70 35
14 22 30 43 36 47 16 10 13 92 -5 99 -15 5 -19 0 -57 -69 -11 -19 -26 -31 -42
-33 -30 -4 -31 -1 -14 97 10 57 9 75 -1 95 -15 27 -27 34 -53 29z"/>
<path d="M1253 568 c-4 -7 -18 -44 -30 -82 -16 -52 -19 -75 -12 -95 14 -36 58
-70 91 -71 51 0 127 110 131 189 2 31 -1 36 -31 44 -18 6 -35 7 -39 3 -3 -3
-10 -31 -14 -63 -8 -61 -36 -100 -63 -90 -19 8 -12 57 15 105 28 50 25 72 -10
72 -17 0 -33 -6 -38 -12z"/>
<path d="M904 518 c-72 -75 -82 -122 -37 -173 24 -27 32 -30 84 -28 49 1 59
-1 64 -18 14 -43 -25 -101 -81 -119 -34 -12 -42 -31 -25 -59 6 -10 27 -15 60
-15 42 0 56 5 80 28 63 60 67 222 7 261 -19 13 -32 13 -74 4 -68 -14 -66 -15
-67 28 0 36 2 37 45 48 43 10 45 13 45 45 0 32 -3 35 -30 38 -24 2 -38 -5 -71
-40z"/>
</g>
</svg>
