<?xml version="1.0" standalone="no"?>
<!DOCTYPE svg PUBLIC "-//W3C//DTD SVG 20010904//EN"
 "http://www.w3.org/TR/2001/REC-SVG-20010904/DTD/svg10.dtd">
<svg version="1.0" xmlns="http://www.w3.org/2000/svg"
 width="1189.000000pt" height="779.000000pt" viewBox="0 0 1189.000000 779.000000"
 preserveAspectRatio="xMidYMid meet">
<metadata>
Created by potrace 1.16, written by Peter Selinger 2001-2019
</metadata>
<g transform="translate(0.000000,779.000000) scale(0.100000,-0.100000)"
fill="#000000" stroke="none">
<path d="M9854 7525 c-7 -17 40 -163 72 -223 13 -24 26 -60 30 -79 8 -45 38
-64 84 -55 49 11 54 50 10 88 -35 32 -54 66 -82 148 -11 32 -26 65 -34 73 -8
8 -14 20 -14 27 0 7 -11 18 -25 24 -33 15 -34 15 -41 -3z"/>
<path d="M11584 7299 c-50 -39 -67 -70 -55 -101 15 -41 36 -51 96 -46 31 3 58
1 60 -3 6 -9 -52 -59 -69 -59 -17 0 -66 -38 -66 -51 0 -5 16 -9 35 -9 111 0
235 122 180 177 -12 12 -33 14 -92 12 -89 -5 -97 4 -53 51 28 30 34 60 12 60
-5 0 -27 -14 -48 -31z"/>
<path d="M9733 7083 c-64 -62 -83 -86 -88 -115 -4 -21 -11 -38 -15 -38 -19 0
-19 -36 -1 -74 21 -43 78 -83 104 -73 26 10 26 45 0 84 -20 30 -24 46 -20 80
5 48 50 108 105 138 26 15 32 24 30 44 -2 14 -10 27 -18 29 -9 1 -52 -32 -97
-75z"/>
<path d="M11297 7109 c-9 -5 -24 -26 -32 -45 -14 -33 -35 -39 -35 -9 0 18 -25
26 -39 12 -13 -13 -15 -110 -2 -135 5 -9 15 -39 22 -65 13 -52 43 -97 64 -97
21 0 44 39 38 64 -12 47 -15 86 -7 86 5 0 18 -7 28 -15 31 -23 42 -19 99 38
65 63 107 120 107 143 0 20 -4 17 -106 -68 -37 -32 -70 -58 -73 -58 -4 1 -16
9 -29 20 l-23 19 20 47 c16 36 18 50 10 60 -13 16 -18 17 -42 3z"/>
<path d="M7940 7005 c-11 -19 -26 -61 -32 -95 -10 -52 -9 -72 7 -135 18 -72
18 -75 0 -95 -27 -30 -61 -25 -102 15 -20 19 -42 35 -49 35 -7 0 -24 -15 -37
-34 -12 -19 -27 -32 -32 -28 -6 4 -21 28 -34 55 -13 26 -30 47 -37 47 -7 0
-49 -45 -95 -99 -45 -55 -88 -102 -96 -105 -11 -5 -45 36 -56 67 -1 5 -10 5
-20 2 -21 -9 -22 -37 -3 -98 13 -44 13 -46 -13 -70 -14 -14 -42 -33 -61 -42
-41 -21 -50 -32 -50 -62 0 -46 62 -36 122 21 15 14 31 26 36 26 11 0 30 -44
34 -80 3 -23 7 -25 48 -25 42 0 45 2 48 28 2 16 -3 36 -11 45 -18 22 -47 86
-47 105 0 15 133 179 150 185 5 2 12 -14 15 -35 10 -55 25 -105 41 -130 29
-47 94 -16 94 44 0 45 20 57 64 39 59 -25 136 8 162 69 11 27 20 34 53 40 26
4 51 18 71 38 24 24 30 27 30 13 0 -12 22 4 69 51 70 69 86 97 75 127 -10 26
-31 19 -71 -25 -64 -70 -65 -71 -73 -60 -4 7 -17 0 -35 -19 -16 -16 -35 -30
-42 -30 -16 0 -17 40 -1 75 13 29 -2 111 -28 153 -23 36 -68 30 -94 -13z"/>
<path d="M9368 6943 c-15 -16 -38 -55 -53 -87 -22 -49 -26 -70 -23 -115 3 -30
10 -57 16 -59 7 -2 12 -9 12 -15 0 -7 14 -27 32 -46 28 -30 35 -33 71 -28 50
7 79 34 133 127 41 69 57 130 35 130 -5 0 -25 -26 -45 -57 -46 -77 -97 -126
-127 -121 -32 4 -33 19 -5 59 49 67 79 138 72 172 -14 69 -72 89 -118 40z"/>
<path d="M6481 6919 c-39 -15 -97 -111 -101 -164 -6 -79 15 -103 98 -111 l61
-7 53 55 c78 81 178 192 178 198 0 3 -4 11 -9 19 -7 12 -22 4 -70 -38 -34 -29
-61 -57 -61 -61 0 -9 -93 -80 -104 -80 -16 0 -3 36 24 67 67 76 21 158 -69
122z"/>
<path d="M8942 6903 c-7 -3 -22 -23 -33 -46 -30 -58 -36 -175 -14 -265 16 -66
16 -76 1 -142 -22 -96 -10 -145 40 -166 20 -8 44 -12 53 -9 18 5 83 101 95
140 3 11 25 41 49 66 53 58 74 96 60 110 -7 7 -20 2 -41 -15 -44 -38 -56 -34
-49 14 3 23 0 57 -6 78 -6 20 -10 44 -8 53 3 24 -66 156 -91 174 -23 15 -34
17 -56 8z m57 -81 c47 -67 85 -218 62 -246 -7 -8 -11 -18 -10 -22 8 -47 -31
-45 -64 4 -32 46 -50 111 -51 182 -1 106 23 138 63 82z"/>
<path d="M10957 6796 c-39 -36 -57 -80 -64 -154 -7 -75 -18 -94 -94 -159 -83
-70 -120 -52 -54 27 44 53 48 99 9 125 -23 15 -30 15 -51 4 -28 -15 -55 -63
-72 -127 -9 -31 -17 -42 -31 -42 -23 0 -36 -36 -20 -55 7 -8 27 -15 44 -15 18
0 36 -4 41 -9 6 -5 26 -12 45 -15 32 -6 40 -2 100 56 36 35 76 77 88 94 12 18
34 34 50 37 20 4 33 15 42 37 14 33 16 33 77 9 29 -12 34 -10 66 14 34 26 55
62 43 74 -3 3 -22 -4 -42 -16 -32 -19 -41 -21 -60 -10 -23 12 -34 36 -34 76 0
34 -21 73 -40 73 -9 0 -29 -11 -43 -24z"/>
<path d="M6047 6757 c-6 -15 1 -62 12 -92 16 -39 31 -117 26 -126 -4 -5 1 -12
9 -15 9 -3 16 -13 16 -21 0 -28 40 -73 65 -73 29 0 45 26 45 74 0 43 10 50 55
37 45 -12 70 -5 84 25 25 55 6 101 -28 70 -24 -22 -37 -20 -76 9 l-33 26 -20
-28 c-11 -15 -21 -37 -23 -48 -3 -11 -9 -19 -14 -17 -10 3 -38 80 -49 135 -3
16 -11 36 -17 44 -15 17 -45 17 -52 0z"/>
<path d="M10449 6403 c-15 -2 -33 -12 -41 -21 -20 -25 -40 -89 -34 -110 3 -10
10 -52 16 -95 13 -106 46 -166 92 -167 32 0 30 48 -8 203 -5 21 -3 27 9 27 27
0 60 57 53 93 -6 29 -42 79 -55 76 -3 -1 -18 -4 -32 -6z"/>
<path d="M8724 6359 c-4 -7 -22 -9 -45 -6 -49 6 -63 -10 -60 -69 2 -38 -1 -44
-19 -44 -11 0 -20 -5 -20 -11 0 -6 7 -9 15 -5 11 4 15 -2 15 -20 0 -36 46
-121 70 -129 27 -9 53 13 47 39 -3 12 -14 46 -26 76 -27 71 -27 97 2 105 59
17 106 45 101 60 -7 18 -69 21 -80 4z"/>
<path d="M10132 6224 c-39 -48 -95 -161 -88 -179 9 -23 53 -29 90 -11 38 18
92 21 101 6 10 -16 -15 -80 -31 -80 -8 0 -14 3 -14 8 0 4 -5 14 -10 22 -8 13
-11 12 -24 -5 -36 -47 -8 -115 47 -115 30 0 54 29 91 114 24 55 25 59 9 84 -9
15 -23 33 -32 40 -18 14 -80 16 -115 2 -34 -13 -35 8 -1 58 24 36 34 92 16 92
-5 0 -23 -16 -39 -36z"/>
<path d="M5469 6153 c-47 -48 -59 -66 -59 -91 0 -39 24 -47 114 -37 58 6 65 5
70 -13 8 -24 -12 -72 -30 -72 -27 0 -32 -55 -6 -69 46 -25 90 21 102 107 8 63
4 69 -60 98 -23 10 -50 14 -78 10 l-42 -6 15 31 c9 16 25 39 36 50 21 21 24
35 8 44 -5 4 -37 -20 -70 -52z"/>
<path d="M8385 6104 c-12 -9 -30 -12 -45 -9 -41 9 -59 -20 -71 -118 -14 -101
-6 -151 26 -183 44 -44 138 -24 165 35 75 159 78 241 9 277 -35 18 -59 17 -84
-2z m78 -63 c16 -16 -3 -86 -40 -143 -37 -57 -63 -74 -82 -55 -15 15 -14 80 1
95 8 8 8 15 -2 27 -10 12 -10 21 0 45 7 17 20 35 29 40 18 12 79 6 94 -9z"/>
<path d="M6807 6068 c-58 -37 -87 -89 -87 -154 0 -39 5 -51 32 -76 42 -39 68
-48 115 -42 65 10 105 34 190 118 81 79 98 106 69 106 -12 0 -103 -66 -156
-113 -21 -19 -99 -51 -106 -44 -3 3 5 21 19 39 56 74 68 145 31 182 -23 24
-54 19 -107 -16z"/>
<path d="M5311 6014 c-26 -19 -81 -127 -81 -161 0 -55 61 -68 131 -29 24 14
46 23 50 20 15 -9 -3 -40 -32 -57 -25 -14 -30 -22 -27 -49 2 -27 8 -34 29 -36
20 -2 33 5 54 30 66 78 74 149 20 178 -21 11 -31 9 -81 -14 -73 -35 -85 -24
-44 43 43 70 33 111 -19 75z"/>
<path d="M6507 6006 c-5 -13 12 -102 28 -138 4 -11 -2 -24 -19 -39 -47 -40
-27 -87 30 -73 22 6 24 3 24 -29 0 -67 -66 -189 -113 -208 -34 -14 -55 2 -73
54 -6 18 -18 33 -26 35 -23 5 -88 -58 -88 -85 0 -39 -105 -123 -154 -123 -35
0 -58 -27 -52 -59 7 -29 -1 -44 -25 -53 -24 -9 -29 -53 -9 -85 36 -59 78 -95
107 -91 34 4 40 27 20 71 -35 74 -46 109 -40 125 10 28 45 62 65 62 11 0 27 4
37 10 15 7 25 3 50 -20 55 -53 111 -35 111 37 0 41 14 57 41 50 16 -4 38 3 70
23 51 33 98 112 104 174 6 58 14 62 51 22 34 -38 52 -43 85 -26 29 16 23 44
-20 88 -22 22 -47 52 -56 66 -16 24 -15 27 9 76 14 29 26 56 26 61 0 15 -32
10 -51 -7 -26 -23 -44 -12 -71 43 -25 49 -51 66 -61 39z"/>
<path d="M9620 5805 c-7 -9 -10 -27 -7 -43 4 -19 -2 -46 -18 -81 -21 -43 -29
-52 -47 -49 -20 3 -24 11 -29 54 -11 85 -31 99 -50 34 -10 -31 -10 -52 0 -92
15 -67 25 -78 73 -78 33 0 41 4 56 31 44 80 42 81 108 -16 85 -125 86 -127
117 -159 42 -44 33 -92 -23 -121 -30 -15 -70 -20 -70 -8 0 4 10 35 21 70 35
102 1 96 -52 -9 -38 -75 -38 -103 1 -123 32 -16 86 -20 94 -6 3 4 19 11 36 14
39 8 90 85 90 136 0 30 -11 49 -66 111 -86 99 -153 212 -184 313 -12 39 -29
47 -50 22z"/>
<path d="M9266 5753 c-4 -32 0 -74 13 -126 13 -56 16 -89 10 -116 -9 -42 -45
-131 -53 -131 -3 0 -20 14 -38 30 -18 17 -41 30 -51 30 -19 0 -47 -53 -47 -90
0 -26 -6 -25 -42 5 -16 14 -37 25 -47 25 -23 0 -144 -97 -154 -124 -11 -27 2
-197 15 -213 11 -14 56 -17 74 -5 17 11 32 45 44 97 8 38 8 53 -5 77 -19 40
-19 63 2 83 16 16 18 16 35 -5 10 -12 18 -28 18 -36 0 -14 57 -74 71 -74 19 0
39 35 39 68 0 20 4 43 9 51 8 12 12 12 26 -2 19 -20 69 -22 82 -4 5 6 15 34
22 62 6 27 16 52 21 55 5 3 12 17 15 33 4 15 11 25 15 22 22 -14 58 16 73 58
18 53 10 75 -22 58 -25 -14 -21 -22 -54 114 -20 83 -27 101 -44 103 -17 3 -21
-4 -27 -45z"/>
<path d="M5056 5764 c-20 -20 -43 -102 -51 -185 -6 -55 -4 -68 10 -83 27 -26
66 -16 93 24 15 21 30 34 40 32 10 -2 36 -6 58 -9 37 -4 43 -2 64 27 12 17 25
49 28 72 4 36 3 41 -12 35 -10 -4 -20 -7 -22 -7 -2 0 -4 -6 -4 -13 0 -8 -11
-24 -25 -37 -31 -29 -43 -20 -69 53 -10 27 -27 53 -37 60 -10 6 -19 17 -19 23
0 7 -7 15 -16 18 -21 8 -20 8 -38 -10z"/>
<path d="M10673 5707 c-4 -8 -16 -16 -25 -20 -10 -3 -18 -16 -18 -27 0 -19 4
-21 44 -15 84 13 176 -32 289 -143 48 -46 61 -111 33 -161 -27 -48 5 -98 52
-80 49 18 70 149 35 212 -45 79 -185 195 -277 229 -59 21 -122 24 -133 5z"/>
<path d="M4796 5685 c-11 -29 -6 -89 9 -118 8 -16 21 -50 29 -75 32 -105 71
-146 118 -125 16 7 25 24 34 62 6 28 8 54 4 56 -4 3 -20 -5 -34 -16 -26 -21
-28 -21 -41 -3 -7 11 -16 32 -19 47 -3 16 -12 43 -20 60 -8 18 -19 52 -23 77
-7 35 -13 46 -30 48 -12 2 -23 -4 -27 -13z"/>
<path d="M4701 5470 c-41 -5 -47 -9 -74 -55 -34 -58 -48 -141 -35 -196 8 -28
18 -41 40 -50 41 -17 75 2 107 60 l24 43 20 -33 c12 -18 36 -48 55 -68 72 -77
82 -144 25 -170 -37 -17 -63 -5 -63 28 0 15 4 31 9 37 5 5 13 26 17 47 6 35 4
39 -12 35 -43 -7 -92 -174 -61 -205 16 -16 65 -19 118 -8 34 8 88 54 108 93
16 31 -1 82 -41 125 -45 49 -118 144 -118 155 0 5 -7 23 -15 38 -8 16 -15 45
-15 64 0 58 -17 69 -89 60z"/>
<path d="M7784 5367 c-183 -174 -200 -185 -188 -122 3 19 3 55 0 80 -6 35 -15
51 -42 71 -33 26 -35 26 -54 9 -24 -22 -50 -97 -50 -146 0 -21 7 -59 15 -84
17 -49 10 -76 -25 -95 -30 -16 -56 -12 -87 14 -59 49 -104 40 -118 -26 l-7
-30 -24 23 c-13 12 -24 28 -24 35 0 7 -8 19 -18 26 -9 7 -25 26 -35 41 -10 16
-23 27 -29 25 -12 -4 -88 -124 -88 -139 0 -5 -4 -9 -10 -9 -13 0 -36 46 -45
90 -9 43 -22 60 -45 60 -19 0 -30 -19 -30 -51 0 -25 46 -157 61 -175 9 -10 5
-21 -16 -46 -15 -18 -36 -39 -46 -46 -23 -16 -25 -60 -3 -69 9 -3 31 7 54 26
21 17 41 31 44 31 2 0 12 -24 21 -52 31 -96 86 -143 122 -107 11 11 6 23 -65
155 -8 14 -16 48 -19 77 -4 43 -1 56 15 73 12 12 28 38 36 59 9 20 20 34 24
31 5 -3 17 -27 26 -53 10 -26 21 -57 26 -68 4 -11 10 -27 13 -35 6 -20 52 -44
71 -37 18 7 46 59 51 95 1 15 3 30 4 35 2 14 30 7 44 -13 7 -10 34 -25 60 -31
42 -12 48 -11 68 7 12 10 30 38 40 62 13 29 24 42 38 42 11 0 32 6 47 12 27
12 125 109 180 178 16 19 36 41 46 47 29 22 62 83 50 95 -7 7 -35 -14 -88 -65z"/>
<path d="M10470 5272 c-28 -33 -40 -56 -40 -78 0 -39 12 -49 73 -65 54 -13 60
-34 17 -56 -20 -10 -27 -9 -41 3 -21 19 -53 15 -57 -8 -8 -40 109 -63 168 -33
32 17 60 51 60 75 0 29 -37 57 -86 65 -86 12 -89 17 -44 68 35 40 38 63 10 70
-15 4 -30 -7 -60 -41z"/>
<path d="M5743 5223 c-25 -5 -30 -15 -50 -98 -34 -142 -31 -162 30 -193 24
-12 48 -22 53 -22 29 0 99 52 167 123 73 78 85 96 71 110 -9 8 -64 -21 -64
-33 0 -6 -5 -10 -11 -10 -6 0 -22 -13 -36 -30 -33 -40 -43 -38 -43 7 0 53 -30
118 -61 137 -15 9 -29 15 -31 15 -1 -1 -13 -4 -25 -6z"/>
<path d="M10195 5086 c-19 -29 -42 -77 -51 -106 -18 -61 -27 -55 -45 29 -6 30
-17 61 -24 68 -19 19 -43 16 -50 -6 -7 -22 17 -121 39 -166 8 -17 22 -64 31
-105 17 -76 42 -114 69 -104 10 4 13 33 12 119 -1 79 3 118 12 126 6 7 12 21
12 30 0 10 9 38 20 64 14 33 25 45 35 41 18 -6 37 26 29 48 -13 34 -52 18 -89
-38z"/>
<path d="M5332 5108 c-16 -16 -14 -94 3 -143 8 -22 15 -46 15 -53 0 -29 73
-179 103 -215 47 -54 98 -65 149 -32 49 33 66 59 79 128 11 54 10 59 -15 97
-59 90 -146 48 -176 -84 l-7 -31 -12 30 c-7 17 -19 43 -27 59 -8 16 -14 33
-14 38 0 5 -9 28 -20 50 -11 24 -20 62 -20 88 0 33 -6 52 -18 63 -22 20 -25
20 -40 5z"/>
<path d="M8042 5029 c-52 -19 -69 -144 -31 -225 14 -29 37 -55 68 -76 25 -17
48 -33 50 -35 3 -2 -3 -19 -12 -39 -24 -49 -33 -146 -17 -183 15 -37 40 -49
40 -19 0 20 1 20 18 5 26 -24 58 -21 77 6 25 35 75 174 69 190 -6 17 36 51
101 83 38 18 74 51 75 67 0 13 -39 8 -101 -13 -66 -23 -79 -20 -79 14 0 38
-58 142 -108 192 -44 45 -47 47 -50 25 -3 -20 -5 -21 -20 -8 -23 20 -53 26
-80 16z m80 -83 l17 -21 1 29 0 28 31 -33 c38 -41 79 -120 79 -154 0 -21 -5
-25 -30 -25 -17 0 -42 7 -55 16 -23 15 -25 15 -25 0 0 -26 -14 -19 -55 26 -42
47 -57 108 -36 147 14 26 45 21 73 -13z"/>
<path d="M10367 4975 c-40 -43 -116 -79 -135 -63 -23 19 -36 -6 -20 -39 12
-25 19 -28 61 -27 42 0 52 5 93 45 25 24 53 58 64 76 16 27 16 32 3 37 -26 10
-33 7 -66 -29z"/>
<path d="M4132 4847 c-28 -29 -32 -39 -32 -90 0 -36 -4 -57 -11 -57 -7 0 -18
-8 -25 -17 -11 -15 -9 -23 12 -50 13 -17 21 -38 18 -46 -7 -20 -94 -92 -120
-101 -11 -3 -28 0 -37 6 -16 12 -15 18 18 80 55 103 47 168 -20 168 -27 0 -77
-90 -94 -169 -11 -51 -10 -56 11 -80 60 -70 101 -86 151 -59 29 15 83 72 113
120 14 21 29 36 35 33 13 -9 39 14 39 34 0 9 -11 38 -25 65 -31 62 -31 99 0
154 29 51 13 56 -33 9z"/>
<path d="M9913 4776 c-24 -6 -49 -18 -57 -26 -17 -19 -36 -75 -36 -111 0 -57
-18 -73 -51 -43 -23 21 -49 11 -49 -17 0 -27 68 -96 103 -104 54 -14 59 -4 53
95 -3 50 -3 97 0 105 7 17 59 45 85 45 21 0 43 35 35 56 -6 16 -24 16 -83 0z"/>
<path d="M4782 4647 c-8 -10 -8 -29 -1 -68 6 -30 13 -72 16 -94 3 -22 9 -42
14 -45 4 -3 13 -35 18 -70 18 -106 25 -124 54 -134 32 -11 62 11 83 61 8 17
27 41 43 52 27 19 31 20 65 6 52 -22 64 -19 83 20 15 32 15 36 0 53 -14 15
-28 18 -75 15 -93 -5 -118 -12 -146 -38 -15 -14 -31 -23 -35 -21 -4 3 -13 38
-20 78 -14 81 -39 166 -54 186 -12 16 -32 15 -45 -1z"/>
<path d="M3520 4609 c-7 -11 -14 -44 -17 -73 -5 -44 -1 -62 20 -104 37 -74 81
-118 133 -133 49 -15 48 -13 33 -92 -11 -56 -42 -103 -59 -92 -6 3 -9 32 -8
63 1 32 -3 66 -9 76 -17 30 -43 -6 -43 -61 0 -30 -7 -55 -22 -76 -25 -36 -89
-97 -102 -97 -4 0 -30 16 -56 35 -26 19 -50 35 -54 35 -13 0 -35 -73 -29 -100
3 -19 1 -30 -5 -30 -6 0 -14 17 -18 38 -15 86 -70 89 -59 3 7 -53 33 -140 47
-157 12 -16 53 -23 72 -12 12 7 16 25 16 73 0 35 4 67 10 70 5 3 22 0 37 -8
15 -7 37 -11 48 -9 28 6 83 50 90 72 7 23 35 34 49 20 17 -17 71 -12 90 9 32
35 54 90 60 153 5 46 15 76 37 107 32 49 26 76 -15 65 -19 -4 -24 1 -34 34
-15 48 -72 146 -109 184 -34 35 -87 39 -103 7z m103 -81 c43 -66 83 -178 63
-178 -19 0 -74 45 -88 72 -46 89 -58 142 -35 151 22 9 25 7 60 -45z"/>
<path d="M7832 4595 c-16 -13 -40 -49 -53 -80 -13 -30 -32 -58 -42 -61 -17 -5
-17 -8 -3 -30 9 -13 16 -34 16 -46 0 -52 58 -96 103 -79 45 18 157 139 157
171 0 19 -15 10 -85 -55 -38 -36 -75 -65 -80 -65 -11 0 -45 35 -45 47 0 4 8
16 19 27 40 45 91 129 91 152 0 13 -9 28 -19 34 -26 13 -25 14 -59 -15z"/>
<path d="M9497 4505 c-20 -28 -37 -107 -37 -176 0 -40 4 -51 24 -64 30 -20 52
-10 81 34 13 21 28 31 45 31 14 0 36 6 50 13 26 13 70 71 70 93 0 23 -42 16
-71 -12 -29 -28 -49 -25 -49 7 0 17 -74 99 -89 99 -3 0 -14 -12 -24 -25z"/>
<path d="M7515 4509 c-4 -6 -4 -25 -1 -42 6 -33 -8 -51 -116 -152 -10 -9 -18
-22 -18 -29 0 -21 26 -37 46 -30 21 7 82 69 100 100 9 16 14 17 27 6 14 -12
42 -111 49 -172 4 -35 51 -41 68 -9 10 18 9 33 -5 78 -41 129 -45 146 -45 176
0 17 5 36 12 43 9 9 8 12 -3 15 -8 2 -30 9 -50 16 -44 14 -56 14 -64 0z"/>
<path d="M6463 4340 c-38 -35 -73 -95 -73 -127 0 -16 -6 -23 -19 -23 -11 0
-29 -12 -41 -27 -20 -27 -21 -27 -33 -9 -7 10 -21 29 -31 43 -18 24 -20 25
-33 7 -17 -24 -16 -49 3 -79 22 -33 10 -61 -37 -91 -42 -26 -46 -33 -27 -52
19 -19 63 -14 83 8 23 26 29 25 43 -4 14 -32 54 -58 76 -50 22 9 20 63 -4 94
-28 35 -26 74 5 94 24 16 25 15 39 -12 13 -26 66 -52 106 -52 35 0 102 47 131
91 16 26 37 53 45 60 26 22 75 101 72 117 -2 11 -12 6 -38 -21 -19 -20 -40
-37 -47 -37 -7 0 -13 -6 -13 -13 0 -20 -69 -82 -118 -107 -24 -12 -45 -20 -47
-18 -2 2 17 26 42 53 70 77 79 115 38 159 -33 36 -80 35 -122 -4z"/>
<path d="M5663 4328 c-6 -7 -13 -31 -16 -53 -8 -63 -25 -101 -39 -87 -17 17
-55 15 -62 -4 -17 -44 20 -94 69 -94 24 0 65 38 65 62 0 9 7 21 16 28 13 11
20 8 45 -19 l29 -33 -25 -30 c-32 -37 -32 -61 0 -78 28 -15 112 -8 145 12 23
14 36 49 26 73 -3 8 -27 30 -53 47 -63 44 -120 102 -144 149 -20 40 -39 49
-56 27z"/>
<path d="M9221 4286 c-13 -14 -33 -45 -45 -70 l-22 -45 -46 30 c-56 37 -79 33
-97 -17 -7 -19 -26 -50 -42 -69 l-30 -34 16 -55 c9 -30 18 -68 21 -83 4 -27
36 -63 55 -63 5 0 17 16 26 35 14 29 15 42 5 86 -28 121 -4 161 47 78 25 -40
36 -49 60 -49 25 0 30 5 40 45 6 25 16 65 22 90 7 25 17 44 23 42 6 -1 20 -22
31 -45 21 -45 35 -55 68 -47 19 5 47 44 47 66 0 14 -88 97 -118 113 -39 20
-34 21 -61 -8z"/>
<path d="M5367 4062 c-10 -10 -17 -28 -17 -40 0 -17 -6 -22 -25 -22 -32 0 -48
-30 -35 -65 12 -32 44 -60 83 -74 23 -9 31 -7 48 10 15 15 19 27 14 42 -5 12
-8 50 -9 85 -1 43 -6 66 -16 72 -21 13 -25 13 -43 -8z"/>
<path d="M3092 3928 c-18 -18 -15 -39 10 -65 21 -22 21 -27 11 -90 -8 -41 -19
-74 -32 -86 -20 -20 -21 -20 -40 -2 -12 10 -23 33 -27 51 -13 68 -64 73 -64 6
0 -42 45 -124 77 -140 26 -13 80 4 97 31 28 42 47 119 49 193 2 69 0 77 -22
95 -27 22 -42 24 -59 7z"/>
<path d="M6224 3833 c-19 -58 -32 -81 -59 -106 -16 -15 -34 -26 -39 -24 -5 2
-19 31 -29 65 -20 63 -44 81 -54 42 -6 -22 -18 -26 -28 -10 -10 17 -51 11 -70
-10 -22 -24 -55 -141 -55 -196 0 -46 18 -68 63 -79 23 -6 34 -2 58 21 16 15
29 32 29 37 0 5 9 25 21 44 14 22 25 31 33 25 20 -16 58 -21 81 -10 38 17 93
196 66 213 -6 3 -14 -2 -17 -12z"/>
<path d="M4012 3803 c-43 -56 -54 -81 -47 -112 7 -33 58 -61 110 -61 18 0 37
-4 40 -10 10 -17 -13 -47 -46 -59 -24 -8 -30 -15 -27 -33 2 -18 10 -24 39 -26
33 -3 41 2 85 53 83 98 64 138 -64 136 -70 -1 -86 13 -58 52 54 74 52 68 31
83 -27 20 -30 18 -63 -23z"/>
<path d="M5025 3790 c-18 -36 -19 -119 -1 -142 22 -30 64 -23 86 15 17 28 25
33 48 29 53 -7 84 50 37 68 -14 5 -38 21 -53 35 -19 17 -38 25 -64 25 -31 0
-40 -5 -53 -30z"/>
<path d="M6884 3752 c-17 -11 -34 -48 -50 -108 -39 -150 6 -275 93 -261 36 6
103 53 103 72 0 6 9 20 20 30 24 21 26 55 5 55 -16 0 -56 -37 -82 -77 -19 -29
-68 -31 -82 -4 -12 21 -4 84 15 121 7 14 19 50 27 81 12 48 12 57 -1 77 -15
23 -29 27 -48 14z"/>
<path d="M3795 3734 c-82 -20 -97 -39 -89 -118 5 -50 3 -64 -10 -75 -31 -26
-15 -61 68 -148 53 -55 95 -79 121 -69 25 9 17 40 -20 76 -47 46 -45 102 7
138 10 7 18 22 18 33 0 30 -42 24 -75 -11 -16 -16 -32 -30 -36 -30 -9 0 -29
57 -29 85 0 41 24 59 87 65 54 5 58 7 61 33 2 15 -1 27 -7 27 -5 0 -15 2 -23
4 -7 2 -40 -3 -73 -10z"/>
<path d="M4911 3713 c-35 -14 -61 -48 -61 -79 0 -19 -6 -34 -15 -38 -20 -7
-19 -39 1 -79 20 -38 31 -47 62 -47 31 0 37 22 22 88 -12 55 -12 57 13 77 13
11 30 30 36 42 9 19 8 24 -8 33 -21 11 -29 11 -50 3z"/>
<path d="M5597 3559 c-9 -5 -24 -23 -32 -40 -9 -16 -27 -34 -40 -39 -31 -12
-31 -20 -2 -62 57 -83 88 -103 127 -78 12 8 12 15 -3 57 -25 69 -22 98 11 121
18 14 24 24 17 31 -16 16 -59 22 -78 10z"/>
<path d="M6633 3498 c-10 -14 -33 -88 -33 -106 0 -6 16 -27 35 -46 l35 -35
-21 -20 c-32 -29 -21 -57 21 -53 37 3 74 31 95 72 18 35 3 58 -43 66 -20 4
-43 11 -49 17 -16 12 -17 42 -1 66 21 35 -14 71 -39 39z"/>
<path d="M8434 3479 c-28 -17 -38 -18 -79 -9 -65 15 -106 0 -139 -50 -29 -44
-29 -44 -57 -30 -15 8 -19 7 -19 -4 0 -12 -5 -14 -26 -6 -54 21 -108 9 -171
-38 -61 -45 -82 -164 -37 -213 19 -21 72 -34 103 -24 32 10 51 53 39 87 -6 15
-13 28 -16 28 -4 0 -20 11 -37 24 -28 23 -28 24 -13 48 18 28 57 39 101 31 21
-4 29 -13 34 -34 9 -46 23 -45 23 1 0 25 4 39 10 35 6 -3 10 -16 10 -29 0 -41
44 -62 69 -32 7 8 15 36 20 63 11 68 29 93 68 93 17 0 35 -4 38 -10 3 -5 23
-10 44 -10 29 0 44 7 69 33 56 58 33 88 -34 46z"/>
<path d="M3398 3480 c-38 -23 -40 -161 -2 -229 23 -42 24 -46 13 -137 -15
-126 -7 -180 29 -192 65 -22 113 37 141 173 12 59 36 118 56 139 29 30 75 110
71 122 -8 22 -18 17 -66 -30 l-45 -44 -12 31 c-6 18 -12 42 -12 55 -1 12 -5
22 -9 22 -4 0 -16 14 -26 31 -32 54 -97 82 -138 59z m87 -77 c25 -27 44 -78
51 -135 3 -25 0 -28 -24 -28 -49 0 -83 41 -88 106 -4 44 8 84 26 84 5 0 21
-12 35 -27z"/>
<path d="M5117 3341 c-17 -21 -26 -46 -30 -90 -12 -115 40 -176 133 -156 33 7
143 130 138 154 -5 26 -23 22 -66 -15 -50 -42 -63 -38 -39 11 22 46 21 61 -4
96 -17 24 -27 29 -64 29 -35 0 -48 -5 -68 -29z"/>
<path d="M4591 3323 c-14 -50 -14 -49 10 -129 52 -174 94 -251 149 -274 60
-25 124 28 150 121 19 75 -8 129 -65 129 -34 0 -54 -17 -91 -77 l-22 -37 -20
44 c-29 64 -54 158 -56 210 -1 38 -4 45 -23 48 -18 3 -24 -4 -32 -35z"/>
<path d="M6479 3315 c-13 -13 -28 -25 -34 -25 -15 0 -54 -62 -61 -97 -4 -22
-13 -33 -30 -37 -31 -8 -30 -17 6 -49 17 -15 30 -31 30 -35 0 -5 11 -14 25
-20 21 -10 28 -9 45 8 26 26 25 40 -5 72 -14 15 -25 33 -25 41 0 15 62 92 97
120 13 10 23 25 23 33 0 23 -46 16 -71 -11z"/>
<path d="M2489 3253 c-27 -60 -26 -83 3 -107 18 -14 33 -17 70 -13 35 5 48 3
48 -7 0 -14 -37 -49 -63 -59 -27 -10 -33 -38 -12 -53 10 -8 22 -14 25 -14 8 0
64 54 117 113 39 43 42 48 31 73 -11 24 -15 25 -62 20 -120 -12 -111 -13 -109
14 1 14 3 36 5 50 2 17 -2 25 -15 28 -12 3 -23 -10 -38 -45z"/>
<path d="M2213 3164 c-3 -9 -1 -25 6 -36 20 -32 49 -92 56 -115 4 -16 2 -23
-8 -23 -27 0 -41 -28 -28 -56 9 -21 16 -24 44 -19 30 6 33 4 45 -28 12 -32 33
-46 70 -47 19 0 14 38 -13 96 -21 45 -23 57 -13 78 6 15 15 26 20 26 4 0 8 5
8 12 0 6 12 26 26 45 23 30 24 34 8 40 -13 5 -28 -5 -56 -37 -21 -24 -41 -40
-45 -36 -4 4 -23 30 -43 59 -38 55 -66 70 -77 41z"/>
<path d="M3153 3093 c-14 -22 -18 -46 -16 -122 1 -90 3 -96 37 -146 20 -28 36
-56 36 -61 0 -5 16 -25 35 -44 19 -19 35 -38 35 -42 0 -4 18 -17 39 -28 41
-20 50 -17 64 22 5 15 -43 91 -78 123 -36 33 -88 111 -99 150 -8 25 -11 45 -8
45 4 0 1 4 -7 9 -11 7 -10 15 9 40 40 57 84 22 60 -48 -14 -45 -4 -71 30 -71
59 0 73 118 21 171 -26 25 -37 29 -85 29 -49 0 -57 -3 -73 -27z"/>
<path d="M6302 3108 c-7 -7 -12 -26 -12 -42 0 -17 -11 -53 -24 -81 -42 -91
-73 -95 -105 -12 -26 71 -47 69 -43 -3 5 -74 20 -101 65 -119 35 -13 40 -13
64 5 14 10 38 43 55 72 23 42 29 65 29 114 1 64 -9 86 -29 66z"/>
<path d="M7276 3101 c-10 -15 11 -101 28 -120 9 -10 16 -22 16 -28 0 -6 7 -16
15 -23 25 -20 17 -46 -22 -79 -32 -25 -35 -32 -23 -41 21 -13 67 -13 76 2 5 7
15 -5 28 -33 24 -50 58 -64 75 -30 9 15 5 30 -17 70 l-27 51 58 56 c31 30 55
60 51 65 -9 16 -55 1 -81 -27 -12 -13 -28 -24 -36 -24 -13 0 -36 43 -71 133
-12 29 -20 37 -40 37 -14 0 -27 -4 -30 -9z"/>
<path d="M5947 2902 c-15 -15 -27 -34 -27 -41 0 -8 -10 -11 -27 -9 -24 3 -28
-1 -31 -25 -2 -16 2 -35 8 -42 15 -18 6 -45 -15 -45 -8 0 -20 -12 -25 -26 -19
-49 -84 -124 -105 -121 -18 2 -20 11 -23 74 -3 64 0 74 21 95 13 13 27 31 30
40 6 18 -16 48 -36 48 -67 -1 -111 -227 -58 -300 14 -19 28 -26 63 -28 44 -3
47 -1 81 45 19 26 47 73 62 103 26 52 29 54 38 32 11 -25 45 -37 77 -27 29 9
52 48 70 120 14 57 14 64 -2 91 -16 27 -38 42 -64 43 -5 1 -22 -12 -37 -27z"/>
<path d="M4395 2829 c-9 -14 11 -61 58 -136 40 -64 62 -79 97 -68 30 9 24 38
-16 87 -20 23 -45 62 -55 86 -16 36 -23 42 -48 42 -16 0 -33 -5 -36 -11z"/>
<path d="M6797 2756 l-38 -21 6 -60 c11 -104 36 -141 84 -123 22 8 23 12 17
63 -6 53 -5 55 17 55 13 0 28 -5 34 -11 6 -6 23 -9 39 -7 22 2 30 9 32 26 4
30 -22 60 -73 83 -50 23 -70 22 -118 -5z"/>
<path d="M2057 2763 c-3 -5 -8 -29 -12 -55 -8 -50 -13 -56 -32 -37 -6 6 -16 8
-22 5 -19 -12 -12 -53 20 -116 24 -48 35 -60 54 -60 25 0 51 32 40 50 -12 20
-16 140 -5 140 7 0 14 -9 17 -20 3 -11 9 -20 13 -20 4 0 13 -13 20 -29 14 -35
27 -41 58 -30 15 6 22 17 22 36 0 15 3 45 6 66 5 29 3 37 -8 37 -9 0 -21 -7
-28 -15 -17 -21 -22 -19 -63 20 -34 33 -70 45 -80 28z"/>
<path d="M7066 2681 c-35 -38 -63 -180 -45 -227 8 -24 45 -35 77 -23 12 5 31
27 43 51 34 67 37 70 70 53 30 -16 74 -11 95 9 17 17 34 53 34 70 0 21 -34 21
-50 1 -24 -28 -53 -14 -64 30 -5 22 -13 43 -18 46 -5 3 -36 7 -68 7 -44 1 -62
-4 -74 -17z"/>
<path d="M3932 2678 c-17 -17 -15 -32 8 -53 11 -10 22 -27 26 -39 3 -11 16
-43 29 -71 12 -27 26 -66 30 -85 10 -48 32 -88 54 -100 42 -22 57 -12 110 74
54 89 63 96 117 96 28 0 35 4 40 26 8 33 -4 44 -52 50 -53 7 -129 -43 -159
-103 l-21 -43 -42 91 c-23 49 -42 95 -42 100 0 6 -9 24 -21 40 -21 30 -56 38
-77 17z"/>
<path d="M2668 2654 c-9 -19 -9 -36 -1 -67 12 -45 6 -67 -28 -100 -23 -21 -24
-40 -4 -57 20 -17 62 -5 70 20 9 29 23 25 47 -16 31 -52 88 -71 108 -34 9 16
5 24 -25 52 -20 17 -45 47 -57 66 -18 30 -19 36 -7 59 8 14 24 32 36 41 24 15
32 62 11 62 -6 0 -26 -11 -44 -25 -39 -30 -44 -31 -44 -6 0 17 -18 31 -41 31
-5 0 -15 -12 -21 -26z"/>
<path d="M1819 2607 c-25 -19 -36 -48 -44 -110 -11 -83 7 -139 54 -171 58 -41
102 -30 127 29 31 74 6 101 -40 43 -14 -18 -28 -29 -32 -25 -5 4 -3 34 4 65
18 87 15 117 -14 151 -29 34 -32 36 -55 18z"/>
<path d="M5186 2547 c-31 -25 -38 -64 -22 -118 5 -19 3 -31 -8 -42 -20 -20
-20 -30 0 -69 15 -29 15 -31 -10 -57 -14 -15 -26 -38 -26 -50 0 -22 3 -23 45
-18 25 4 45 3 45 -1 0 -4 13 -23 29 -42 27 -33 30 -34 55 -21 25 14 37 51 16
51 -10 0 -40 63 -40 84 0 6 16 29 35 51 43 49 46 70 8 60 -16 -3 -35 -13 -44
-21 -21 -19 -39 -18 -39 4 0 9 -7 25 -14 35 -9 12 -11 29 -6 57 10 52 26 73
50 60 12 -7 21 -6 28 3 13 15 5 30 -25 46 -31 16 -44 14 -77 -12z"/>
<path d="M6172 2508 c-18 -18 -15 -51 7 -75 11 -11 31 -43 45 -71 39 -77 85
-102 120 -63 22 24 13 47 -35 92 -31 29 -39 44 -39 71 0 28 -5 37 -25 46 -33
15 -58 15 -73 0z"/>
<path d="M6730 2451 c-5 -11 -10 -28 -10 -38 0 -11 -6 -27 -12 -36 -12 -15
-17 -15 -67 2 -56 20 -91 13 -91 -16 0 -23 -26 -14 -38 13 -10 21 -18 25 -50
22 -52 -4 -55 -35 -7 -91 20 -23 39 -53 41 -67 12 -58 82 -133 136 -145 40
-10 45 23 13 91 -15 31 -29 71 -32 90 -8 48 14 44 66 -11 69 -74 105 -55 94
50 -4 33 -2 56 3 53 96 -46 103 -48 126 -37 64 29 71 100 7 76 -23 -9 -34 -9
-51 2 -37 23 -107 61 -112 61 -3 0 -10 -9 -16 -19z"/>
<path d="M1586 2229 l-17 -42 -32 32 c-18 17 -40 31 -50 31 -20 0 -37 -30 -37
-67 0 -15 -3 -38 -6 -50 -5 -18 -10 -20 -34 -13 -26 7 -31 5 -49 -26 -11 -19
-27 -34 -34 -34 -8 0 -20 -7 -27 -15 -10 -12 -9 -20 4 -40 22 -34 20 -107 -5
-160 -12 -25 -25 -45 -29 -45 -15 0 -29 27 -24 47 7 26 -19 37 -46 20 -30 -18
-27 -77 6 -108 36 -34 98 -33 129 3 30 34 49 147 40 227 -4 37 -3 61 4 65 12
8 31 -24 31 -52 0 -11 11 -24 27 -31 37 -17 57 5 59 65 2 62 14 72 53 43 44
-32 65 -18 69 47 4 63 16 74 36 35 29 -56 96 -50 96 8 0 36 -10 47 -48 56 -18
4 -38 15 -45 26 -21 34 -53 24 -71 -22z"/>
<path d="M2457 2209 c-28 -16 -47 -70 -42 -120 9 -84 14 -95 58 -117 l42 -21
23 22 c13 12 31 34 39 48 9 15 25 27 37 27 55 0 138 85 123 126 -10 26 -48 15
-67 -19 -21 -38 -54 -44 -71 -13 -32 64 -96 93 -142 67z"/>
<path d="M4913 2164 c-25 -39 -31 -178 -8 -220 21 -39 65 -51 101 -28 31 21
64 95 66 151 2 46 -18 72 -56 73 -10 0 -29 11 -42 25 -29 32 -39 31 -61 -1z"/>
<path d="M5991 2126 c-15 -17 -7 -50 31 -134 15 -35 28 -70 28 -77 0 -7 3 -15
8 -17 4 -1 20 -28 36 -58 35 -69 58 -89 90 -83 34 7 49 28 42 58 -5 18 -13 25
-30 25 -31 0 -38 10 -75 105 -33 85 -89 186 -107 192 -6 2 -16 -3 -23 -11z"/>
<path d="M6240 2098 c-16 -26 -20 -51 -20 -113 0 -69 3 -84 24 -109 21 -27 26
-29 57 -20 26 7 39 19 56 54 15 33 26 44 40 42 28 -4 93 26 93 43 0 8 0 18 0
23 0 4 -19 7 -42 7 -41 0 -43 1 -48 35 -4 20 -10 41 -14 48 -9 15 -46 16 -46
1 0 -5 -10 -3 -22 5 -34 24 -56 19 -78 -16z"/>
<path d="M3311 2106 c-9 -10 -8 -16 4 -26 8 -7 15 -17 15 -23 0 -11 98 -177
110 -187 3 -3 12 -19 19 -37 22 -54 60 -51 61 4 0 27 -45 103 -117 197 -29 37
-53 72 -53 77 0 14 -26 11 -39 -5z"/>
<path d="M3221 1875 c-17 -30 -35 -55 -40 -55 -4 0 -27 23 -50 51 -31 36 -49
49 -65 47 -34 -5 -32 -42 3 -74 17 -15 38 -46 47 -69 15 -42 15 -44 -6 -73
-13 -17 -33 -33 -45 -36 -29 -7 -35 -24 -42 -115 l-6 -73 -31 5 c-17 3 -46 9
-63 13 -43 9 -54 -16 -25 -55 l20 -28 -28 -49 c-35 -61 -97 -124 -122 -124
-15 0 -18 5 -12 23 3 12 10 27 14 32 15 19 32 98 26 121 -8 32 -66 50 -107 34
-48 -20 -67 -58 -78 -155 -6 -48 -8 -92 -5 -96 3 -5 21 -9 41 -9 20 0 53 -5
73 -11 21 -7 54 -9 75 -5 56 11 138 100 164 179 16 47 37 65 56 46 11 -11 11
-25 3 -67 -13 -65 -1 -102 36 -102 28 0 36 21 36 95 0 67 7 76 63 74 33 -2 53
3 67 16 43 39 12 70 -69 70 l-56 0 -3 46 c-4 55 13 103 32 96 8 -3 20 1 26 9
22 25 48 16 60 -21 6 -19 20 -37 31 -40 40 -13 66 38 33 66 -18 14 -54 82 -54
101 0 6 17 44 37 83 36 71 39 105 9 105 -8 0 -28 -25 -45 -55z"/>
<path d="M5846 1835 c-8 -9 -18 -32 -22 -53 -4 -20 -11 -42 -15 -48 -5 -6 -12
-31 -15 -56 -5 -39 -3 -48 17 -67 20 -19 32 -22 65 -17 68 9 92 26 136 95 23
36 48 72 55 80 22 22 12 56 -16 56 -19 0 -30 -10 -48 -46 -26 -54 -94 -119
-123 -119 -18 0 -20 5 -14 43 3 23 12 62 21 86 13 36 13 45 2 52 -19 12 -25
11 -43 -6z"/>
<path d="M1760 1825 c-37 -44 -17 -166 37 -226 33 -36 33 -37 19 -78 -13 -36
-13 -49 0 -112 8 -39 13 -72 12 -73 -46 -19 -79 -44 -88 -66 -17 -40 -48 -70
-65 -64 -13 5 -12 9 5 24 23 20 50 80 50 111 0 62 -80 115 -127 84 -23 -15
-27 -28 -36 -96 -18 -136 75 -232 164 -168 30 21 92 109 103 145 6 20 9 21 44
8 30 -10 41 -10 57 0 28 17 66 97 71 148 9 81 25 116 65 144 39 26 51 58 27
67 -7 2 -23 -5 -35 -16 -29 -26 -47 -17 -61 31 -17 55 -44 86 -106 121 -58 34
-116 40 -136 16z m146 -82 c47 -50 58 -73 52 -119 -3 -25 -7 -29 -33 -28 -46
1 -91 29 -106 66 -37 95 -34 128 12 128 22 0 41 -12 75 -47z"/>
<path d="M1070 1735 c-7 -8 -14 -33 -15 -54 -4 -49 -33 -101 -57 -101 -24 0
-30 14 -33 82 -4 67 -16 88 -38 69 -20 -16 -31 -114 -17 -155 14 -43 36 -62
80 -69 29 -5 41 -1 69 22 56 46 86 210 39 219 -8 2 -21 -4 -28 -13z"/>
<path d="M4515 1731 c-72 -23 -134 -78 -135 -118 0 -16 -6 -23 -20 -23 -26 0
-41 -37 -27 -67 14 -31 98 -74 120 -62 19 11 23 54 6 64 -5 4 -14 17 -19 30
-12 32 11 78 58 113 42 31 52 42 52 60 0 13 -4 13 -35 3z"/>
<path d="M3845 1530 c-79 -121 -95 -220 -38 -228 30 -4 47 28 32 61 -9 20 -5
35 25 96 23 45 46 76 61 83 16 7 25 19 25 35 0 19 -5 23 -30 23 -27 0 -36 -9
-75 -70z"/>
<path d="M736 1529 c-15 -11 -34 -22 -44 -23 -42 -6 -67 -119 -38 -174 29 -55
109 -68 156 -24 17 16 70 147 70 174 0 5 -15 22 -32 39 -38 34 -75 37 -112 8z"/>
<path d="M4182 1520 c-12 -5 -32 -25 -43 -45 -16 -26 -26 -34 -40 -30 -74 24
-103 -143 -36 -206 33 -30 89 -25 126 11 38 38 91 145 98 198 9 65 -39 98
-105 72z"/>
<path d="M5366 1512 c-9 -16 -34 -97 -40 -134 -7 -39 -5 -38 -83 -54 -44 -9
-22 -49 30 -56 34 -4 40 -22 9 -26 -12 -2 -30 -16 -39 -30 -22 -34 -105 -121
-116 -122 -5 0 -20 -9 -34 -20 -36 -28 -97 -27 -117 2 -16 22 -22 102 -10 132
3 9 15 16 25 16 24 0 26 -46 3 -78 -18 -26 -12 -40 23 -53 19 -7 32 -6 49 6
20 13 24 24 24 64 0 65 -15 104 -48 123 -57 34 -118 -10 -143 -103 -34 -127
73 -229 197 -189 37 12 93 62 156 140 25 30 28 32 43 16 19 -19 51 -21 61 -4
4 6 8 32 8 57 2 58 10 71 47 71 78 0 161 42 143 72 -4 5 -43 8 -88 6 l-81 -3
-3 38 c-2 24 4 53 16 75 10 20 17 43 15 50 -5 13 -39 17 -47 4z"/>
<path d="M315 1407 c-89 -27 -144 -72 -165 -136 -13 -40 -13 -44 5 -57 25 -19
45 -17 75 5 20 16 22 23 14 43 -15 32 -8 46 38 69 78 40 176 -1 198 -82 12
-44 1 -83 -29 -99 -18 -9 -27 -4 -69 40 -44 45 -53 50 -78 44 -59 -14 -58 -23
3 -79 40 -37 47 -49 45 -78 -3 -43 12 -56 77 -66 61 -10 71 -4 81 45 5 22 18
65 29 97 29 84 17 148 -40 199 -49 43 -136 69 -184 55z"/>
<path d="M3918 1346 c-21 -19 -38 -40 -38 -45 0 -6 -12 -11 -27 -11 -16 0 -35
-4 -43 -9 -23 -15 -14 -72 22 -133 34 -60 67 -80 97 -61 17 11 28 53 13 53
-18 0 -31 47 -22 85 8 35 13 42 48 63 6 4 13 25 15 47 3 52 -17 55 -65 11z"/>
<path d="M3579 1273 c-27 -55 -28 -99 -6 -203 27 -124 37 -150 74 -190 57 -63
148 -63 193 0 21 29 27 75 11 84 -18 11 -67 -6 -76 -27 -17 -36 -41 -44 -71
-22 -35 26 -60 94 -75 198 -10 74 -10 92 5 137 18 55 15 70 -14 70 -12 0 -26
-16 -41 -47z"/>
<path d="M2530 1285 c-14 -7 -34 -29 -44 -49 -25 -47 -47 -46 -68 4 -17 42
-37 50 -58 25 -9 -11 -9 -22 0 -52 7 -21 16 -42 21 -47 17 -19 9 -48 -23 -77
-27 -24 -31 -32 -22 -47 15 -24 52 -27 76 -5 19 17 21 17 50 -20 22 -27 37
-37 59 -37 38 0 48 24 21 53 -11 12 -27 37 -36 54 -16 31 -15 35 4 73 12 23
36 58 55 79 19 21 35 44 35 50 0 15 -39 13 -70 -4z"/>
<path d="M1266 1274 c-7 -18 30 -104 44 -104 12 0 96 -157 105 -195 14 -62 93
-111 109 -69 11 29 6 49 -25 94 -17 25 -62 100 -101 168 -64 109 -74 122 -98
122 -17 0 -30 -7 -34 -16z"/>
<path d="M1084 1028 c-5 -18 1 -29 30 -54 22 -19 33 -35 27 -39 -22 -13 -11
-67 20 -106 26 -34 36 -39 70 -39 32 0 41 4 48 23 11 29 -1 59 -27 73 -43 22
-89 84 -62 84 20 0 10 31 -17 55 -36 32 -79 33 -89 3z"/>
<path d="M869 804 c-15 -18 -25 -148 -15 -187 6 -24 43 -47 76 -47 10 0 31 11
47 24 20 17 34 22 44 15 27 -17 87 -10 103 12 22 32 10 49 -36 49 -35 0 -40 3
-53 35 -17 38 -51 63 -67 47 -6 -6 -13 -25 -17 -43 -4 -18 -12 -34 -19 -37
-18 -6 -15 63 4 83 26 25 10 65 -25 65 -16 0 -35 -7 -42 -16z"/>
<path d="M4404 760 c-26 -10 -34 -29 -43 -100 l-7 -55 -20 33 c-36 61 -80 54
-70 -12 10 -65 38 -123 67 -140 55 -33 77 -12 85 77 13 153 15 156 80 109 43
-31 89 -44 123 -35 31 8 25 47 -8 51 -13 2 -40 14 -60 26 -20 13 -46 26 -58
30 -13 4 -23 12 -23 17 0 11 -37 11 -66 -1z"/>
<path d="M456 665 c-8 -8 -19 -15 -25 -15 -5 0 -13 -10 -17 -22 l-7 -22 -18
23 c-23 29 -63 25 -67 -6 -2 -12 4 -35 12 -51 14 -27 14 -33 0 -61 -19 -39 -4
-65 33 -58 13 2 23 0 23 -4 0 -13 62 -36 83 -31 22 6 22 14 -3 63 -17 33 -19
46 -10 78 5 21 19 50 31 65 33 42 3 79 -35 41z"/>
<path d="M596 598 c-11 -15 -16 -45 -16 -91 0 -51 -4 -69 -15 -73 -17 -7 -21
-44 -5 -44 5 0 24 -25 41 -55 21 -38 39 -57 57 -62 52 -13 66 55 22 115 -24
33 -38 135 -21 156 6 7 29 16 51 20 34 5 60 27 60 50 0 3 -36 6 -79 6 -71 0
-82 -2 -95 -22z"/>
<path d="M4133 542 c-25 -16 58 -185 98 -197 28 -9 52 13 45 41 -8 29 -86 154
-96 154 -5 0 -14 2 -22 5 -7 3 -18 1 -25 -3z"/>
</g>
</svg>
