<?xml version="1.0" standalone="no"?>
<!DOCTYPE svg PUBLIC "-//W3C//DTD SVG 20010904//EN"
 "http://www.w3.org/TR/2001/REC-SVG-20010904/DTD/svg10.dtd">
<svg version="1.0" xmlns="http://www.w3.org/2000/svg"
 width="2615.000000pt" height="3376.000000pt" viewBox="0 0 2615.000000 3376.000000"
 preserveAspectRatio="xMidYMid meet">

<g transform="translate(0.000000,3376.000000) scale(0.100000,-0.100000)"
fill="#000000" stroke="none">
<path d="M6070 33365 c0 -16 3 -24 8 -19 4 5 11 11 15 15 4 3 1 12 -8 19 -13
11 -15 9 -15 -15z"/>
<path d="M6020 33366 c0 -17 14 -29 23 -20 8 8 -3 34 -14 34 -5 0 -9 -6 -9
-14z"/>
<path d="M6050 33311 c0 -12 5 -21 10 -21 6 0 10 6 10 14 0 8 -4 18 -10 21 -5
3 -10 -3 -10 -14z"/>
<path d="M4855 33300 c3 -5 8 -10 11 -10 2 0 4 5 4 10 0 6 -5 10 -11 10 -5 0
-7 -4 -4 -10z"/>
<path d="M6441 33301 c-10 -7 -8 -14 10 -35 26 -29 37 -32 63 -13 42 31 -27
77 -73 48z"/>
<path d="M4827 33287 c-10 -27 -9 -67 3 -67 6 0 10 -7 10 -15 0 -8 -4 -15 -10
-15 -5 0 -10 -11 -10 -25 0 -30 36 -36 43 -7 3 11 5 9 6 -8 3 -48 15 -53 49
-21 39 35 39 41 7 41 -14 0 -28 7 -32 16 -5 13 -7 13 -14 2 -6 -9 -9 -2 -9 19
0 18 -6 36 -14 40 -8 4 -16 19 -18 33 -3 22 -4 22 -11 7z"/>
<path d="M6081 33284 c0 -11 3 -14 6 -6 3 7 2 16 -1 19 -3 4 -6 -2 -5 -13z"/>
<path d="M6200 33291 c0 -5 7 -11 14 -14 10 -4 13 -1 9 9 -6 15 -23 19 -23 5z"/>
<path d="M6110 33257 c0 -7 16 -21 36 -30 24 -12 34 -23 30 -32 -8 -21 9 -28
24 -10 10 13 9 19 -6 36 -17 19 -65 49 -79 49 -3 0 -5 -6 -5 -13z"/>
<path d="M6240 33217 c1 -47 35 -97 67 -97 14 0 15 2 4 9 -9 6 -11 16 -7 27 6
16 9 16 17 4 9 -13 10 -13 7 0 -3 8 -13 17 -24 20 -10 3 -19 10 -20 15 -3 26
-17 54 -30 59 -11 4 -14 -5 -14 -37z"/>
<path d="M6357 33223 c-16 -31 -12 -53 8 -53 27 0 42 69 18 77 -6 2 -18 -8
-26 -24z"/>
<path d="M5015 33180 c-6 -9 11 -50 20 -50 3 0 5 14 5 30 0 29 -13 40 -25 20z"/>
<path d="M4668 33137 c-16 -13 -28 -31 -28 -40 0 -10 -11 -35 -25 -57 -14 -22
-25 -44 -25 -50 0 -20 20 -10 34 18 8 15 15 21 16 13 0 -8 3 -11 7 -8 8 9 43
-22 43 -39 0 -7 17 -25 38 -39 l37 -25 6 22 c4 14 1 27 -8 35 -8 6 -14 20 -13
30 4 39 1 46 -15 33 -12 -10 -15 -9 -15 5 0 14 -3 15 -14 6 -13 -11 -14 -5
-10 36 3 33 1 43 -5 33 -6 -8 -14 -11 -18 -6 -4 5 -2 11 5 13 7 3 20 12 29 21
16 16 16 16 10 0 -4 -12 -2 -18 9 -18 8 0 20 -11 26 -25 6 -14 15 -25 19 -25
14 0 20 18 8 25 -5 4 -8 13 -5 21 3 9 -2 17 -12 20 -9 3 -25 10 -34 15 -24 13
-29 11 -60 -14z"/>
<path d="M6181 33134 c0 -11 3 -14 6 -6 3 7 2 16 -1 19 -3 4 -6 -2 -5 -13z"/>
<path d="M5016 33100 c-19 -48 -36 -104 -33 -107 13 -12 37 13 37 37 0 16 6
30 12 32 10 4 10 10 1 29 -8 18 -12 21 -17 9z"/>
<path d="M6156 33074 c-9 -23 -7 -54 3 -54 5 0 11 8 14 19 3 14 11 17 30 14
15 -3 25 -10 24 -16 -1 -6 6 -13 16 -15 25 -5 21 15 -8 34 -14 9 -22 20 -19
25 3 5 -8 9 -24 9 -18 0 -32 -6 -36 -16z"/>
<path d="M4870 33030 c0 -11 2 -20 4 -20 2 0 6 9 9 20 3 11 1 20 -4 20 -5 0
-9 -9 -9 -20z"/>
<path d="M6280 33020 c0 -5 5 -10 10 -10 6 0 10 5 10 10 0 6 -4 10 -10 10 -5
0 -10 -4 -10 -10z"/>
<path d="M6126 32976 c-4 -19 -13 -39 -21 -46 -21 -17 -19 -30 5 -30 16 0 20
7 20 35 0 19 5 35 10 35 6 0 10 9 10 20 0 33 -17 23 -24 -14z"/>
<path d="M5937 32970 c-15 -18 -26 -92 -10 -77 3 4 12 2 20 -4 15 -13 18 -49
3 -49 -5 0 -10 -9 -10 -20 0 -11 7 -20 15 -20 9 0 26 -7 39 -16 16 -10 26 -12
31 -5 3 6 3 11 -2 12 -4 0 1 5 12 10 15 7 11 8 -20 6 -38 -2 -40 -1 -41 28 -1
71 -4 85 -19 85 -24 0 -17 17 10 24 22 6 24 9 15 26 -13 25 -21 25 -43 0z"/>
<path d="M6025 32980 c3 -5 8 -10 11 -10 2 0 4 5 4 10 0 6 -5 10 -11 10 -5 0
-7 -4 -4 -10z"/>
<path d="M4611 32954 c0 -11 3 -14 6 -6 3 7 2 16 -1 19 -3 4 -6 -2 -5 -13z"/>
<path d="M4541 32925 c-22 -37 -45 -39 -54 -4 -5 18 -8 19 -29 8 -19 -11 -20
-14 -6 -17 24 -5 34 -65 18 -113 -10 -30 -11 -42 -2 -51 9 -9 12 -7 12 9 0 12
5 25 11 29 8 5 8 9 -1 14 -7 4 8 5 34 3 45 -6 46 -5 47 23 0 16 2 53 3 82 2
28 0 52 -5 52 -4 0 -16 -16 -28 -35z"/>
<path d="M6028 32919 c-2 -22 0 -43 4 -45 4 -3 8 -14 8 -25 0 -10 7 -19 15
-19 8 0 15 9 15 19 0 11 5 23 10 26 16 10 12 22 -19 54 l-29 30 -4 -40z m27 1
c3 -5 1 -10 -4 -10 -6 0 -11 5 -11 10 0 6 2 10 4 10 3 0 8 -4 11 -10z"/>
<path d="M4826 32929 c3 -6 0 -15 -7 -20 -12 -7 -11 -9 1 -9 8 0 21 9 28 20
11 18 10 20 -9 20 -12 0 -18 -4 -13 -11z"/>
<path d="M5770 32840 c13 -9 13 -11 0 -20 -21 -13 -40 -12 -40 2 0 26 -30 -18
-35 -52 -4 -28 -3 -31 5 -15 8 16 9 11 4 -21 -5 -42 13 -73 36 -59 16 10 12
28 -5 21 -10 -3 -15 1 -15 14 0 10 7 25 15 34 8 8 15 24 15 34 0 15 9 22 31
27 29 7 30 8 13 26 -9 10 -22 19 -28 19 -6 0 -4 -5 4 -10z"/>
<path d="M4595 32792 c-5 -4 -11 -19 -13 -34 -2 -22 1 -28 17 -28 11 0 27 -7
36 -16 22 -23 41 -4 26 25 -7 12 -16 21 -21 21 -5 0 -12 9 -15 20 -7 21 -14
24 -30 12z"/>
<path d="M4500 32775 c-11 -13 -10 -14 4 -9 9 3 16 10 16 15 0 13 -6 11 -20
-6z"/>
<path d="M5895 32698 c-9 -32 -11 -68 -3 -68 9 0 28 43 28 66 0 17 -19 19 -25
2z"/>
<path d="M5756 32634 c-10 -26 2 -33 33 -21 17 6 27 15 24 20 -3 4 -12 6 -20
3 -8 -3 -11 -1 -8 4 3 6 0 10 -8 10 -8 0 -18 -7 -21 -16z"/>
<path d="M4385 32590 c-20 -39 -19 -69 5 -130 25 -62 61 -96 103 -95 35 0 49
18 18 23 -10 2 -22 14 -25 26 -3 13 -22 47 -41 77 -20 29 -34 58 -31 65 3 7 0
15 -7 17 -9 3 -9 9 1 26 7 12 8 21 2 21 -5 0 -16 -13 -25 -30z"/>
<path d="M4510 32556 c0 -8 5 -18 10 -21 6 -3 10 3 10 14 0 12 -4 21 -10 21
-5 0 -10 -6 -10 -14z"/>
<path d="M4530 32498 c0 -18 18 -34 28 -24 3 4 -2 14 -11 23 -16 16 -17 16
-17 1z"/>
<path d="M5360 32500 c0 -5 7 -10 15 -10 8 0 15 5 15 10 0 6 -7 10 -15 10 -8
0 -15 -4 -15 -10z"/>
<path d="M5557 32493 c-24 -23 27 -56 74 -46 22 4 29 2 29 -10 0 -17 20 -27
68 -34 l33 -5 -16 31 c-12 24 -22 31 -44 31 -16 0 -34 7 -41 15 -15 19 -56 16
-52 -3 1 -8 -2 -11 -8 -7 -5 3 -10 13 -10 21 0 14 -21 19 -33 7z"/>
<path d="M5442 32466 c-1 -18 4 -25 23 -28 14 -3 33 1 42 8 16 12 16 13 1 14
-9 0 -18 4 -20 9 -1 4 -12 11 -23 15 -17 5 -21 1 -23 -18z"/>
<path d="M5530 32415 c0 -24 5 -35 15 -35 8 0 16 8 16 18 1 9 4 4 8 -12 4 -21
14 -32 34 -37 30 -8 38 10 12 31 -8 7 -12 16 -9 21 3 5 -6 13 -19 18 -14 6
-28 15 -32 20 -13 22 -25 10 -25 -24z"/>
<path d="M3324 32385 c-16 -12 -17 -14 -3 -15 9 0 19 7 23 15 7 19 5 19 -20 0z"/>
<path d="M4397 32346 c-4 -10 -7 -30 -7 -44 0 -26 0 -26 15 -5 10 14 12 29 7
44 -8 20 -9 20 -15 5z"/>
<path d="M3301 32284 c-1 -27 6 -50 18 -65 26 -32 37 -18 19 23 -8 18 -20 44
-26 58 -10 23 -11 22 -11 -16z"/>
<path d="M4214 32214 c-10 -38 5 -43 61 -23 36 12 45 19 33 24 -9 4 -25 2 -37
-4 -11 -6 -24 -11 -30 -11 -15 0 -14 27 2 33 7 3 5 6 -5 6 -11 1 -20 -9 -24
-25z"/>
<path d="M3154 32182 c-21 -14 -22 -39 -3 -56 16 -13 24 -14 41 -5 43 23 47
32 22 51 -24 19 -42 22 -60 10z"/>
<path d="M2327 32174 c-15 -15 -6 -26 17 -20 15 4 27 1 30 -7 3 -6 5 -3 3 8
-2 20 -36 33 -50 19z"/>
<path d="M3480 32149 c0 -5 5 -7 10 -4 6 3 10 8 10 11 0 2 -4 4 -10 4 -5 0
-10 -5 -10 -11z"/>
<path d="M4240 32140 c-12 -7 -12 -12 -2 -22 9 -9 12 -9 12 3 1 10 5 9 15 -5
12 -16 15 -17 15 -4 0 23 -23 39 -40 28z"/>
<path d="M2584 32105 c11 -8 16 -15 10 -15 -5 0 -3 -4 5 -9 11 -7 12 -13 4
-23 -15 -19 -21 -64 -12 -80 7 -10 9 -10 10 2 1 8 3 25 4 36 2 22 32 71 40 67
19 -10 16 1 -5 17 -14 11 -36 20 -50 19 -24 0 -24 0 -6 -14z"/>
<path d="M5302 32078 c-7 -34 -5 -46 7 -59 15 -15 17 -14 29 8 17 30 8 93 -13
93 -8 0 -17 -17 -23 -42z"/>
<path d="M4177 32093 c-11 -10 -8 -43 4 -43 6 0 19 5 30 10 15 9 21 7 25 -5 3
-8 12 -15 19 -15 18 0 27 30 14 46 -16 20 -32 17 -25 -3 6 -17 5 -17 -8 0 -13
17 -47 23 -59 10z"/>
<path d="M2701 31994 c-14 -31 -14 -37 -1 -29 16 10 31 43 21 49 -4 3 -13 -6
-20 -20z"/>
<path d="M5334 31992 c-6 -4 -15 -23 -19 -41 l-7 -35 26 17 c14 10 26 13 26 8
0 -6 -8 -15 -17 -21 -14 -8 -14 -10 -3 -9 29 3 41 -1 35 -11 -4 -6 -10 -8 -14
-5 -18 10 -40 -20 -34 -47 6 -33 24 -38 20 -5 -2 20 2 22 35 20 29 -2 36 1 31
12 -3 9 0 22 7 30 10 13 8 15 -14 15 -16 0 -26 6 -26 14 0 8 -7 22 -16 30 -8
9 -12 20 -9 26 7 12 -5 13 -21 2z"/>
<path d="M3030 31971 c0 -10 19 -25 25 -20 1 2 -3 10 -11 17 -8 7 -14 8 -14 3z"/>
<path d="M3080 31930 c-12 -8 -10 -10 8 -10 13 0 20 -4 17 -10 -4 -6 -12 -7
-18 -4 -7 4 -9 4 -5 -1 5 -5 22 -10 40 -12 l31 -3 -27 25 c-31 29 -27 27 -46
15z"/>
<path d="M3360 31916 c0 -14 -5 -28 -10 -31 -6 -4 -8 -11 -4 -16 8 -14 30 20
32 49 0 12 -3 22 -9 22 -5 0 -9 -11 -9 -24z"/>
<path d="M5168 31893 c6 -2 18 -2 25 0 6 3 1 5 -13 5 -14 0 -19 -2 -12 -5z"/>
<path d="M3138 31873 c-16 -2 -28 -11 -28 -18 0 -12 6 -12 27 -4 14 5 33 9 42
8 30 -3 42 1 36 11 -6 10 -26 11 -77 3z"/>
<path d="M5132 31851 c-17 -11 -29 -91 -13 -91 11 0 15 12 11 44 -1 10 4 22
10 26 7 4 11 13 9 19 -2 6 -10 7 -17 2z"/>
<path d="M2184 31829 c-3 -6 -2 -15 4 -21 6 -6 11 -2 15 11 5 22 -7 29 -19 10z"/>
<path d="M1497 31817 c-3 -8 2 -20 11 -28 23 -19 72 -19 72 -1 0 11 -8 13 -29
9 -22 -5 -28 -2 -27 10 1 20 -20 28 -27 10z"/>
<path d="M2242 31817 c-8 -10 -5 -13 14 -15 16 -1 24 3 22 10 -6 18 -24 20
-36 5z"/>
<path d="M3171 31796 c-2 -15 32 -86 41 -86 13 0 9 16 -11 41 -10 13 -21 31
-24 39 -3 8 -6 11 -6 6z"/>
<path d="M1305 31779 c-4 -6 -5 -13 -2 -16 7 -7 27 6 27 18 0 12 -17 12 -25
-2z"/>
<path d="M3971 31751 c-1 -7 -7 -11 -16 -7 -9 3 -15 0 -15 -8 0 -15 24 -38 32
-31 3 3 13 -7 23 -22 16 -25 17 -29 3 -54 -10 -18 -12 -31 -6 -43 6 -11 4 -21
-8 -33 -15 -16 -15 -18 2 -30 17 -12 17 -13 -1 -13 -15 0 -17 -2 -6 -12 24
-25 53 52 42 115 -1 4 3 17 9 27 12 22 56 24 64 3 3 -7 12 -13 20 -13 8 0 16
-5 18 -10 2 -6 20 -13 41 -17 50 -8 50 16 0 49 -44 28 -93 43 -93 28 0 -5 -5
-10 -12 -10 -6 0 -9 3 -5 6 9 9 -28 40 -56 48 -14 3 -28 14 -30 24 -3 9 -5 11
-6 3z"/>
<path d="M5120 31733 c0 -13 5 -23 10 -23 6 0 10 -8 11 -17 0 -10 3 -13 5 -6
3 6 -2 24 -10 40 -14 26 -15 27 -16 6z"/>
<path d="M5330 31690 c0 -5 5 -10 10 -10 6 0 10 5 10 10 0 6 -4 10 -10 10 -5
0 -10 -4 -10 -10z"/>
<path d="M2080 31676 c0 -7 7 -19 15 -26 9 -8 15 -8 15 -2 0 6 3 17 6 26 4 12
0 16 -15 16 -12 0 -21 -6 -21 -14z"/>
<path d="M3230 31669 c0 -5 5 -7 10 -4 6 3 10 8 10 11 0 2 -4 4 -10 4 -5 0
-10 -5 -10 -11z"/>
<path d="M5226 31670 c-37 -6 -47 -30 -12 -30 30 0 76 17 76 28 0 9 -22 10
-64 2z"/>
<path d="M2055 31600 c-3 -5 -2 -10 4 -10 5 0 13 5 16 10 3 6 2 10 -4 10 -5 0
-13 -4 -16 -10z"/>
<path d="M3895 31579 c17 -32 33 -34 20 -2 -5 10 -7 21 -7 26 1 4 -5 7 -13 7
-14 0 -14 -4 0 -31z"/>
<path d="M4116 31584 c-9 -8 -16 -19 -16 -24 0 -5 -3 -17 -6 -27 -4 -13 0 -11
15 7 31 36 44 60 32 60 -5 0 -17 -7 -25 -16z"/>
<path d="M4267 31584 c-8 -8 1 -24 14 -24 5 0 9 7 9 15 0 15 -12 20 -23 9z"/>
<path d="M1310 31560 c0 -5 7 -10 15 -10 8 0 15 5 15 10 0 6 -7 10 -15 10 -8
0 -15 -4 -15 -10z"/>
<path d="M2154 31559 c-3 -6 -2 -14 3 -18 6 -3 12 -13 15 -21 5 -13 7 -12 13
2 8 21 -20 55 -31 37z"/>
<path d="M5100 31510 c0 -5 4 -10 9 -10 6 0 13 5 16 10 3 6 -1 10 -9 10 -9 0
-16 -4 -16 -10z"/>
<path d="M4090 31491 c0 -6 5 -13 10 -16 6 -3 10 1 10 9 0 9 -4 16 -10 16 -5
0 -10 -4 -10 -9z"/>
<path d="M5140 31493 c1 -14 48 -43 80 -49 41 -9 41 20 0 41 -30 16 -80 20
-80 8z"/>
<path d="M4225 31470 c-3 -5 -1 -10 4 -10 6 0 11 5 11 10 0 6 -2 10 -4 10 -3
0 -8 -4 -11 -10z"/>
<path d="M2840 31390 c0 -5 7 -10 16 -10 8 0 12 5 9 10 -3 6 -10 10 -16 10 -5
0 -9 -4 -9 -10z"/>
<path d="M3806 31374 c-18 -17 -22 -54 -6 -54 6 0 10 9 10 20 0 25 7 25 34 1
64 -58 80 -71 84 -66 3 2 -1 11 -8 20 -7 8 -10 25 -6 39 5 19 1 26 -14 31 -11
3 -24 4 -29 1 -5 -3 -14 1 -21 9 -16 19 -25 19 -44 -1z"/>
<path d="M1193 31364 c-7 -18 16 -66 30 -61 13 4 18 37 6 37 -5 0 -8 3 -8 8 5
32 -17 45 -28 16z"/>
<path d="M2730 31360 c-13 -8 -12 -10 3 -10 9 0 17 5 17 10 0 12 -1 12 -20 0z"/>
<path d="M5130 31360 c8 -5 22 -9 30 -9 10 0 8 3 -5 9 -27 12 -43 12 -25 0z"/>
<path d="M1340 31330 c0 -5 5 -10 10 -10 6 0 10 5 10 10 0 6 -4 10 -10 10 -5
0 -10 -4 -10 -10z"/>
<path d="M2685 31330 c-3 -5 -2 -10 4 -10 5 0 13 5 16 10 3 6 2 10 -4 10 -5 0
-13 -4 -16 -10z"/>
<path d="M2629 31283 c-13 -17 -13 -17 6 -3 11 8 22 16 24 17 2 2 0 3 -6 3 -6
0 -17 -8 -24 -17z"/>
<path d="M3809 31287 c-10 -7 -18 -35 -22 -71 -3 -32 -11 -64 -16 -69 -8 -8
-11 -8 -11 -1 0 6 -14 10 -30 9 -35 -2 -61 -22 -44 -33 6 -4 14 -20 18 -37 3
-16 8 -37 10 -44 5 -23 23 -24 29 -2 3 11 -1 22 -8 25 -19 7 -7 43 16 49 14 4
19 0 19 -14 0 -10 7 -19 15 -19 9 0 18 -7 21 -15 4 -9 16 -21 28 -27 11 -6 18
-7 13 -3 -4 5 0 17 10 27 15 17 15 20 -10 46 -20 20 -24 31 -16 39 8 8 7 17
-1 33 -7 13 -10 44 -8 71 3 27 5 49 4 49 -1 0 -8 -6 -17 -13z m25 -183 c10
-25 7 -34 -9 -28 -8 4 -15 15 -15 25 0 23 16 25 24 3z"/>
<path d="M3040 31239 c0 -35 3 -39 25 -39 49 0 42 72 -7 76 -14 1 -18 -6 -18
-37z"/>
<path d="M1323 31243 c-3 -8 2 -22 11 -31 11 -11 16 -12 16 -4 0 7 5 10 10 7
6 -3 10 3 10 13 0 24 -39 37 -47 15z"/>
<path d="M4886 31124 c-8 -21 -6 -84 3 -109 8 -19 9 -19 16 5 l9 25 7 -30 c5
-23 7 -15 8 32 1 69 -5 93 -24 93 -7 0 -16 -7 -19 -16z"/>
<path d="M3030 31111 c-14 -26 -13 -29 10 -41 14 -8 26 -8 40 0 24 13 25 23 4
44 -21 21 -41 20 -54 -3z"/>
<path d="M5058 31038 c-3 -18 -7 -38 -9 -44 -7 -20 15 -18 26 2 5 11 14 22 18
25 14 10 3 43 -14 47 -12 2 -18 -6 -21 -30z"/>
<path d="M2926 31028 c4 -7 14 -21 23 -31 14 -17 14 -20 -2 -32 -12 -8 -14
-15 -8 -20 6 -3 11 -1 11 4 0 6 3 10 8 10 35 -6 49 2 44 26 -4 26 -34 50 -46
38 -3 -3 -6 -1 -6 5 0 7 -7 12 -16 12 -9 0 -12 -5 -8 -12z"/>
<path d="M3754 31006 c7 -28 -2 -34 -22 -14 -9 9 -13 7 -18 -5 -3 -9 -12 -17
-20 -17 -8 0 -14 -3 -13 -7 1 -14 129 -104 139 -98 15 9 12 61 -5 75 -8 7 -12
16 -9 21 3 5 0 9 -5 9 -6 0 -11 9 -11 20 0 10 -10 24 -21 31 -20 10 -21 9 -15
-15z"/>
<path d="M2070 30990 c-12 -8 -11 -10 8 -10 12 0 22 5 22 10 0 13 -11 13 -30
0z"/>
<path d="M4901 30959 c1 -40 16 -95 18 -65 1 16 3 17 18 5 15 -13 16 -11 10
19 -4 18 -16 42 -27 54 l-20 22 1 -35z"/>
<path d="M2887 30954 c-10 -10 12 -44 28 -44 20 0 19 16 -1 24 -8 3 -12 10 -9
16 7 11 -8 14 -18 4z"/>
<path d="M1165 30890 c-3 -5 -1 -10 4 -10 6 0 11 5 11 10 0 6 -2 10 -4 10 -3
0 -8 -4 -11 -10z"/>
<path d="M1935 30880 c-3 -5 1 -10 9 -10 8 0 18 5 21 10 3 6 -1 10 -9 10 -8 0
-18 -4 -21 -10z"/>
<path d="M4957 30883 c-11 -10 -8 -41 3 -48 6 -4 10 5 8 24 -3 34 -2 34 -11
24z"/>
<path d="M1970 30849 c0 -6 14 -16 30 -22 17 -6 30 -15 30 -19 0 -15 25 -8 37
11 10 16 9 20 -4 25 -9 4 -24 4 -34 1 -11 -4 -19 -3 -19 2 0 5 -9 9 -20 10
-11 1 -20 -3 -20 -8z"/>
<path d="M4427 30845 c-9 -8 -14 -22 -11 -30 10 -26 84 -16 84 11 0 17 -16 18
-24 2 -3 -7 -4 -4 -3 7 3 25 -25 31 -46 10z"/>
<path d="M1150 30820 c0 -16 5 -30 10 -30 6 0 10 14 10 30 0 17 -4 30 -10 30
-5 0 -10 -13 -10 -30z"/>
<path d="M1203 30816 c3 -8 -1 -23 -10 -31 -12 -12 -13 -19 -4 -28 6 -6 11 -8
11 -3 0 4 10 0 22 -8 28 -20 58 -20 58 -1 0 8 -4 15 -8 15 -5 0 -14 11 -20 24
-13 29 -59 59 -49 32z"/>
<path d="M1350 30760 c0 -11 5 -20 10 -20 6 0 10 9 10 20 0 11 -4 20 -10 20
-5 0 -10 -9 -10 -20z"/>
<path d="M4110 30765 c0 -8 5 -15 10 -15 6 0 10 7 10 15 0 8 -4 15 -10 15 -5
0 -10 -7 -10 -15z"/>
<path d="M4320 30739 c0 -5 5 -7 10 -4 6 3 10 8 10 11 0 2 -4 4 -10 4 -5 0
-10 -5 -10 -11z"/>
<path d="M4150 30732 c0 -7 4 -12 10 -12 5 0 7 -7 4 -15 -5 -11 1 -15 20 -15
16 0 24 -5 21 -12 -3 -8 15 -23 44 -37 36 -18 51 -31 54 -50 5 -24 9 -26 51
-23 27 2 46 9 46 16 0 6 13 27 30 46 45 53 40 69 -20 67 -29 -1 -52 -7 -55
-15 -8 -21 -145 8 -145 30 0 5 -8 8 -18 8 -10 0 -23 5 -30 12 -9 9 -12 9 -12
0z m228 -109 c5 -17 -26 -29 -40 -15 -6 6 -7 15 -3 22 9 14 37 9 43 -7z"/>
<path d="M2809 30671 c-31 -25 -21 -35 11 -11 14 10 22 21 19 25 -3 3 -17 -3
-30 -14z"/>
<path d="M3010 30671 c0 -11 5 -23 10 -26 6 -4 10 5 10 19 0 14 -4 26 -10 26
-5 0 -10 -9 -10 -19z"/>
<path d="M4805 30629 c-6 -37 -4 -45 14 -60 11 -9 21 -24 21 -32 0 -19 24 -39
41 -35 8 2 14 -5 14 -14 0 -9 4 -20 8 -24 11 -12 8 13 -9 72 -9 33 -21 54 -30
54 -15 0 -36 41 -31 62 1 6 -3 12 -10 15 -7 2 -14 -13 -18 -38z"/>
<path d="M2781 30595 c0 -35 1 -37 10 -17 6 15 5 30 -1 40 -7 13 -9 8 -9 -23z"/>
<path d="M2025 30578 c-4 -10 -4 -26 0 -35 8 -17 8 -17 12 0 3 9 3 25 0 35 -4
16 -4 16 -12 0z"/>
<path d="M4948 30585 c-3 -3 -3 -28 0 -55 3 -33 1 -50 -7 -50 -13 0 -15 -26
-3 -34 12 -7 52 5 52 16 0 5 -9 6 -20 3 -28 -9 -25 3 6 30 l26 23 -24 36 c-14
20 -27 34 -30 31z"/>
<path d="M3005 30531 c-3 -5 -1 -12 5 -16 5 -3 10 1 10 9 0 18 -6 21 -15 7z"/>
<path d="M1912 30511 c4 -13 18 -16 19 -4 0 4 -5 9 -11 12 -7 2 -11 -2 -8 -8z"/>
<path d="M2895 30500 c-8 -13 -1 -24 14 -19 6 3 7 10 2 18 -6 10 -10 10 -16 1z"/>
<path d="M2760 30487 c0 -19 33 -47 54 -47 16 0 16 2 -1 30 -18 30 -53 41 -53
17z"/>
<path d="M4060 30476 c0 -22 26 -38 56 -34 39 4 44 28 5 28 -16 0 -33 5 -36
10 -9 15 -25 12 -25 -4z"/>
<path d="M1950 30471 c0 -6 5 -13 10 -16 6 -3 10 1 10 9 0 9 -4 16 -10 16 -5
0 -10 -4 -10 -9z"/>
<path d="M3500 30435 c0 -16 -6 -25 -15 -25 -18 0 -19 12 -3 28 16 16 -3 15
-24 -2 -27 -20 -22 -36 11 -36 16 0 37 -8 47 -17 20 -21 67 -28 61 -10 -2 7
-10 12 -17 12 -7 0 -14 10 -15 21 -1 20 -26 54 -39 54 -3 0 -6 -11 -6 -25z"/>
<path d="M4796 30410 c-31 -34 -28 -54 4 -25 20 18 21 18 43 -3 17 -17 22 -37
25 -92 4 -62 2 -70 -13 -70 -22 0 -44 28 -45 56 0 11 -3 24 -7 28 -4 4 -8 15
-8 23 0 9 -7 18 -15 21 -11 3 -12 2 -3 -8 8 -9 6 -17 -8 -31 -25 -25 -24 -50
1 -56 11 -3 20 -12 20 -19 0 -8 4 -14 9 -14 5 0 7 -9 4 -20 -4 -14 0 -20 11
-20 10 0 14 5 10 11 -4 7 1 10 12 7 11 -2 23 -13 29 -26 10 -23 25 -30 25 -11
0 6 7 17 15 25 8 9 15 24 15 35 0 10 4 19 9 19 11 0 -10 95 -28 128 -18 34
-53 72 -65 72 -6 0 -24 -14 -40 -30z"/>
<path d="M2820 30420 c0 -5 5 -10 11 -10 5 0 7 5 4 10 -3 6 -8 10 -11 10 -2 0
-4 -4 -4 -10z"/>
<path d="M3673 30422 c-6 -4 -15 -28 -20 -54 -9 -39 -8 -48 5 -53 8 -3 17 -3
20 0 3 3 0 5 -6 5 -7 0 -12 10 -12 22 0 12 3 18 7 15 11 -12 33 14 33 39 0 26
-11 36 -27 26z"/>
<path d="M4225 30390 c3 -5 8 -10 11 -10 2 0 4 5 4 10 0 6 -5 10 -11 10 -5 0
-7 -4 -4 -10z"/>
<path d="M3431 30354 c-1 -17 6 -37 14 -44 8 -7 15 -19 15 -26 0 -8 11 -20 25
-26 14 -6 25 -15 25 -19 0 -5 6 -6 14 -3 9 3 17 -3 21 -15 7 -22 16 -25 53
-15 14 4 21 12 18 20 -3 9 1 14 12 14 9 0 23 10 31 21 11 18 11 23 -1 30 -19
12 -33 5 -33 -17 0 -24 -38 -21 -72 5 -20 17 -21 19 -5 34 15 16 15 17 0 17
-9 0 -19 -4 -22 -8 -3 -5 -20 -7 -37 -4 -28 4 -30 6 -16 17 9 7 17 20 17 29 0
24 -31 19 -38 -6 -6 -23 -6 -23 -13 2 -7 24 -7 23 -8 -6z m79 -59 c0 -17 -2
-18 -24 -9 -23 9 -20 24 4 24 11 0 20 -7 20 -15z"/>
<path d="M4293 30373 c-21 -8 -15 -29 12 -41 36 -17 72 -15 79 4 9 25 8 27
-18 20 -15 -4 -28 0 -36 9 -13 16 -17 17 -37 8z"/>
<path d="M1083 30313 c9 -2 23 -2 30 0 6 3 -1 5 -18 5 -16 0 -22 -2 -12 -5z"/>
<path d="M1248 30313 c-20 -5 -22 -12 -10 -30 11 -17 74 -21 79 -5 3 7 -4 12
-16 12 -31 0 -26 18 7 23 22 3 21 4 -8 4 -19 1 -43 -1 -52 -4z"/>
<path d="M2900 30294 c0 -14 4 -23 10 -19 6 3 10 15 10 26 0 10 -4 19 -10 19
-5 0 -10 -12 -10 -26z"/>
<path d="M1122 30288 c6 -18 28 -21 28 -4 0 9 -7 16 -16 16 -9 0 -14 -5 -12
-12z"/>
<path d="M4176 30262 c-3 -5 13 -28 35 -52 37 -39 39 -45 23 -51 -38 -13 19
-20 76 -9 29 5 55 10 58 10 3 0 1 5 -6 12 -8 8 -9 15 -1 25 9 11 0 12 -49 7
-52 -6 -62 -4 -81 15 -11 11 -26 21 -32 21 -5 0 -8 4 -4 9 3 5 1 12 -4 15 -5
4 -12 2 -15 -2z"/>
<path d="M1300 30230 c0 -11 2 -20 4 -20 2 0 6 9 9 20 3 11 1 20 -4 20 -5 0
-9 -9 -9 -20z"/>
<path d="M4135 30180 c-3 -5 -1 -10 4 -10 6 0 11 5 11 10 0 6 -2 10 -4 10 -3
0 -8 -4 -11 -10z"/>
<path d="M1664 30147 c-33 -36 -34 -42 -3 -44 23 -2 30 3 35 23 9 36 -7 47
-32 21z"/>
<path d="M4141 30140 c0 -14 4 -34 9 -45 7 -17 9 -16 9 10 0 17 -4 37 -9 45
-8 12 -10 10 -9 -10z"/>
<path d="M1351 30103 c-1 -26 24 -31 33 -7 4 11 2 15 -8 11 -8 -3 -17 -1 -20
6 -2 7 -5 2 -5 -10z"/>
<path d="M3442 30111 c-20 -12 -1 -74 26 -86 12 -5 22 -15 22 -22 0 -7 4 -13
10 -13 11 0 1 100 -13 118 -11 14 -26 15 -45 3z"/>
<path d="M1795 30066 c-5 -20 -4 -31 6 -37 19 -12 21 -6 11 32 l-9 34 -8 -29z"/>
<path d="M4212 30081 c2 -7 7 -12 11 -12 12 1 9 15 -3 20 -7 2 -11 -2 -8 -8z"/>
<path d="M2575 30070 c-3 -6 1 -7 9 -4 18 7 21 14 7 14 -6 0 -13 -4 -16 -10z"/>
<path d="M1620 30046 c0 -22 3 -27 11 -19 8 8 8 16 0 30 -9 16 -10 14 -11 -11z"/>
<path d="M2768 30023 c-47 -5 -49 -17 -5 -29 47 -13 89 -7 85 14 -3 18 -21 21
-80 15z"/>
<path d="M1790 29985 c0 -8 5 -15 10 -15 6 0 10 7 10 15 0 8 -4 15 -10 15 -5
0 -10 -7 -10 -15z"/>
<path d="M4675 29979 c-19 -19 -19 -21 -2 -33 9 -7 17 -18 17 -24 0 -6 10 -16
22 -23 18 -10 20 -9 15 6 -4 9 -7 21 -7 26 0 5 -7 9 -15 9 -20 0 -19 27 1 38
12 7 27 -1 58 -29 45 -42 63 -48 73 -22 8 20 -30 53 -63 53 -12 0 -26 5 -29
10 -10 16 -49 10 -70 -11z"/>
<path d="M3514 29968 c-15 -36 -7 -67 16 -61 15 4 19 12 15 37 -2 17 -4 34 -4
39 -2 15 -18 6 -27 -15z"/>
<path d="M1080 29946 c0 -9 5 -16 10 -16 6 0 10 4 10 9 0 6 -4 13 -10 16 -5 3
-10 -1 -10 -9z"/>
<path d="M1690 29952 c0 -4 7 -18 16 -30 12 -18 25 -22 64 -22 26 0 50 -5 52
-11 2 -6 12 -7 26 -2 21 8 21 10 6 31 -13 19 -18 21 -31 11 -12 -10 -16 -10
-23 1 -6 10 -12 11 -22 3 -14 -12 -51 -2 -63 16 -7 13 -25 15 -25 3z"/>
<path d="M2630 29945 c0 -8 9 -19 19 -25 16 -8 19 -7 16 8 -2 9 -4 20 -4 25
-2 14 -31 7 -31 -8z"/>
<path d="M3377 29954 c-3 -4 -2 -16 4 -26 13 -24 35 -9 26 16 -7 17 -19 21
-30 10z"/>
<path d="M3427 29943 c-3 -5 -1 -18 4 -30 6 -17 16 -23 36 -23 l28 1 -24 13
c-17 9 -20 15 -10 18 10 3 8 8 -8 16 -12 7 -24 9 -26 5z"/>
<path d="M1200 29920 c0 -5 5 -10 10 -10 6 0 10 5 10 10 0 6 -4 10 -10 10 -5
0 -10 -4 -10 -10z"/>
<path d="M1255 29920 c3 -5 10 -10 16 -10 5 0 9 5 9 10 0 6 -7 10 -16 10 -8 0
-12 -4 -9 -10z"/>
<path d="M4168 29923 c-10 -2 -18 -12 -18 -20 0 -14 3 -13 23 3 12 10 24 20
26 21 6 4 -10 2 -31 -4z"/>
<path d="M4620 29890 c-13 -8 -12 -10 3 -10 9 0 17 5 17 10 0 12 -1 12 -20 0z"/>
<path d="M3540 29880 c20 -13 43 -13 35 0 -3 6 -16 10 -28 10 -18 0 -19 -2 -7
-10z"/>
<path d="M4524 29865 c-7 -16 3 -35 18 -35 5 0 8 7 4 15 -3 8 -1 15 4 15 6 0
10 5 10 10 0 16 -30 12 -36 -5z"/>
<path d="M4700 29873 c8 -3 17 -9 20 -13 3 -4 16 -11 30 -15 23 -6 24 -6 10 9
-8 8 -29 17 -45 19 -17 3 -23 2 -15 0z"/>
<path d="M4645 29860 c-3 -5 1 -10 10 -10 9 0 13 5 10 10 -3 6 -8 10 -10 10
-2 0 -7 -4 -10 -10z"/>
<path d="M1145 29830 c3 -5 8 -10 11 -10 2 0 4 5 4 10 0 6 -5 10 -11 10 -5 0
-7 -4 -4 -10z"/>
<path d="M4025 29830 c3 -5 8 -10 11 -10 2 0 4 5 4 10 0 6 -5 10 -11 10 -5 0
-7 -4 -4 -10z"/>
<path d="M4710 29829 c0 -5 5 -7 10 -4 6 3 10 8 10 11 0 2 -4 4 -10 4 -5 0
-10 -5 -10 -11z"/>
<path d="M4080 29819 c0 -5 5 -7 10 -4 6 3 10 8 10 11 0 2 -4 4 -10 4 -5 0
-10 -5 -10 -11z"/>
<path d="M1170 29796 c0 -16 38 -51 47 -43 3 4 1 7 -5 7 -7 0 -12 7 -12 15 0
8 5 15 12 15 18 0 0 13 -22 17 -12 2 -20 -3 -20 -11z"/>
<path d="M2770 29786 c0 -9 5 -16 10 -16 6 0 10 4 10 9 0 6 -4 13 -10 16 -5 3
-10 -1 -10 -9z"/>
<path d="M4112 29778 c2 -15 11 -24 26 -26 25 -4 27 5 8 31 -19 24 -38 21 -34
-5z"/>
<path d="M2650 29770 c0 -5 5 -10 10 -10 6 0 10 5 10 10 0 6 -4 10 -10 10 -5
0 -10 -4 -10 -10z"/>
<path d="M4532 29768 c-14 -14 -16 -64 -3 -72 5 -3 14 1 21 9 9 11 10 18 1 29
-6 7 -9 21 -5 30 7 19 3 21 -14 4z"/>
<path d="M3485 29683 c-17 -41 -16 -64 2 -70 7 -3 15 8 19 24 4 15 11 33 16
39 9 13 1 44 -13 44 -5 0 -16 -17 -24 -37z"/>
<path d="M4687 29692 c-7 -9 28 -52 42 -52 6 0 10 -3 10 -7 -4 -26 2 -35 15
-24 11 9 15 9 19 -1 3 -7 6 -3 6 10 1 12 -3 22 -7 22 -4 0 -13 14 -19 30 -8
22 -18 30 -37 30 -13 0 -27 -3 -29 -8z"/>
<path d="M4530 29673 c0 -5 5 -15 10 -23 8 -12 10 -11 10 8 0 12 -4 22 -10 22
-5 0 -10 -3 -10 -7z"/>
<path d="M4560 29642 c0 -18 18 -42 31 -42 5 0 3 14 -2 30 -12 33 -29 40 -29
12z"/>
<path d="M4650 29645 c-10 -12 -10 -15 4 -15 9 0 16 7 16 15 0 8 -2 15 -4 15
-2 0 -9 -7 -16 -15z"/>
<path d="M3380 29645 c0 -3 5 -15 10 -26 14 -25 40 -25 40 1 0 11 -4 20 -9 20
-5 0 -16 3 -25 6 -9 3 -16 3 -16 -1z"/>
<path d="M3295 29624 c4 -11 10 -29 12 -42 9 -40 21 -33 20 10 -2 33 -6 44
-21 46 -15 3 -17 0 -11 -14z"/>
<path d="M1160 29616 c0 -9 -4 -16 -10 -16 -5 0 -10 -9 -10 -20 0 -11 7 -20
16 -20 8 0 12 5 9 10 -7 11 2 13 65 11 35 0 40 1 25 8 -11 5 -32 10 -47 10
-16 1 -27 6 -25 12 1 6 -4 14 -10 16 -7 3 -13 -2 -13 -11z"/>
<path d="M2588 29602 c-33 -38 -26 -92 7 -58 10 10 12 17 4 21 -7 5 -5 13 6
25 9 10 12 21 7 24 -5 3 -16 -2 -24 -12z"/>
<path d="M3450 29610 c0 -5 5 -10 10 -10 6 0 10 5 10 10 0 6 -4 10 -10 10 -5
0 -10 -4 -10 -10z"/>
<path d="M4610 29590 c-30 -23 -23 -32 18 -24 34 7 39 15 19 32 -9 8 -19 5
-37 -8z"/>
<path d="M1760 29560 c0 -37 17 -73 31 -65 5 4 9 0 9 -8 0 -7 7 -14 15 -14 17
0 20 13 5 22 -5 3 -10 18 -11 33 0 24 -1 25 -8 7 -7 -17 -9 -16 -15 12 -10 44
-26 52 -26 13z"/>
<path d="M3430 29555 c0 -29 28 -45 41 -24 12 19 11 42 0 34 -5 -3 -12 -1 -16
5 -11 18 -25 10 -25 -15z"/>
<path d="M4732 29530 c-5 -9 -7 -22 -2 -29 11 -19 45 -9 48 15 4 28 -31 38
-46 14z"/>
<path d="M2607 29511 c3 -12 10 -21 15 -21 13 0 6 32 -9 37 -7 3 -9 -3 -6 -16z"/>
<path d="M3358 29489 c4 -28 19 -30 49 -6 7 5 24 6 38 3 18 -5 25 -2 25 9 0
16 -1 16 -71 20 -44 2 -45 1 -41 -26z"/>
<path d="M4680 29501 c13 -26 43 -28 38 -3 -2 9 -14 18 -26 20 -21 3 -22 1
-12 -17z"/>
<path d="M2598 29469 c-24 -13 -23 -29 1 -29 21 0 45 23 34 33 -8 9 -15 8 -35
-4z"/>
<path d="M3240 29435 c-27 -32 -14 -150 15 -139 8 4 15 1 15 -5 0 -6 -5 -11
-12 -11 -7 0 2 -15 20 -33 18 -18 32 -38 32 -43 0 -6 29 -11 65 -12 36 -1 65
2 65 6 0 5 -14 8 -31 7 -20 -1 -35 5 -44 17 -13 19 -13 19 -20 -1 -9 -31 -22
-26 -28 12 -5 34 -52 112 -67 112 -5 0 -12 3 -16 8 -4 4 0 7 10 7 13 0 15 6
10 25 -4 15 -2 25 4 25 6 0 13 -8 15 -17 3 -10 5 -1 6 20 1 40 -16 50 -39 22z"/>
<path d="M1890 29414 c0 -8 5 -12 10 -9 6 3 10 10 10 16 0 5 -4 9 -10 9 -5 0
-10 -7 -10 -16z"/>
<path d="M3465 29397 c-8 -30 1 -77 14 -77 11 0 12 72 1 90 -7 11 -10 7 -15
-13z"/>
<path d="M3361 29394 c0 -11 3 -14 6 -6 3 7 2 16 -1 19 -3 4 -6 -2 -5 -13z"/>
<path d="M3374 29355 c-3 -14 -4 -39 -2 -55 3 -17 1 -30 -4 -30 -15 0 -8 -15
12 -28 17 -10 21 -10 27 4 4 10 -1 22 -12 30 -14 10 -17 23 -13 59 6 49 2 59
-8 20z"/>
<path d="M3346 29345 c4 -8 8 -15 10 -15 2 0 4 7 4 15 0 8 -4 15 -10 15 -5 0
-7 -7 -4 -15z"/>
<path d="M2656 29301 c-4 -5 -3 -16 0 -25 5 -14 8 -14 21 -1 8 8 11 19 8 25
-8 12 -22 13 -29 1z"/>
<path d="M3456 29283 c-4 -9 -3 -20 2 -25 6 -6 12 -1 15 11 6 25 -8 38 -17 14z"/>
<path d="M3911 29274 c0 -11 3 -14 6 -6 3 7 2 16 -1 19 -3 4 -6 -2 -5 -13z"/>
<path d="M3970 29269 c0 -5 5 -7 10 -4 6 3 10 8 10 11 0 2 -4 4 -10 4 -5 0
-10 -5 -10 -11z"/>
<path d="M3890 29210 c0 -22 5 -40 10 -40 6 0 10 18 10 40 0 22 -4 40 -10 40
-5 0 -10 -18 -10 -40z"/>
<path d="M4134 29196 c-3 -8 -4 -24 -2 -36 2 -17 5 -14 14 14 10 34 0 53 -12
22z"/>
<path d="M3950 29100 c0 -16 7 -20 35 -20 37 0 43 8 23 28 -20 20 -58 15 -58
-8z"/>
<path d="M4073 29113 c-7 -2 -13 -9 -13 -14 0 -15 36 -10 50 6 10 12 9 15 -6
14 -11 0 -25 -3 -31 -6z"/>
<path d="M1245 29100 c-3 -5 1 -10 9 -10 9 0 16 5 16 10 0 6 -4 10 -9 10 -6 0
-13 -4 -16 -10z"/>
<path d="M3384 29075 c-28 -23 -28 -24 -6 -25 13 0 22 -6 22 -16 0 -11 8 -9
35 12 19 14 35 32 35 39 0 21 -55 15 -86 -10z"/>
<path d="M856 29026 c-26 -30 -58 -57 -71 -60 -34 -9 -41 -36 -10 -36 28 0 32
-12 11 -30 -8 -6 -12 -18 -9 -26 4 -10 -3 -14 -22 -14 -38 0 -30 -33 10 -40
38 -7 57 14 44 49 -11 28 8 56 47 65 13 4 24 13 24 20 0 8 7 16 14 19 20 8 51
67 35 67 -8 0 -9 4 0 13 11 15 5 27 -13 27 -6 0 -33 -25 -60 -54z"/>
<path d="M2462 29059 c-5 -13 -7 -31 -4 -39 4 -9 9 -2 13 20 9 41 3 53 -9 19z"/>
<path d="M4488 29063 c7 -3 16 -2 19 1 4 3 -2 6 -13 5 -11 0 -14 -3 -6 -6z"/>
<path d="M1065 29039 c-4 -6 -5 -12 -2 -15 2 -3 7 2 10 11 7 17 1 20 -8 4z"/>
<path d="M3355 29028 c-10 -26 -2 -43 12 -26 7 8 8 19 3 28 -8 12 -10 12 -15
-2z"/>
<path d="M1897 29014 c-10 -10 -9 -42 2 -48 5 -3 11 0 14 7 6 16 -7 50 -16 41z"/>
<path d="M4440 28994 c0 -23 2 -26 11 -14 7 11 8 4 3 -23 -5 -31 -3 -42 15
-58 14 -14 20 -27 16 -40 -5 -14 -3 -17 9 -13 10 4 18 0 22 -10 9 -24 24 -19
24 8 0 13 6 27 13 30 8 4 7 5 -3 5 -38 -3 -43 0 -29 17 10 13 10 17 -2 25 -8
4 -22 6 -32 3 -15 -5 -17 -1 -11 20 4 18 0 33 -15 52 l-21 27 0 -29z"/>
<path d="M4520 29001 c0 -12 5 -21 10 -21 6 0 10 6 10 14 0 8 -4 18 -10 21 -5
3 -10 -3 -10 -14z"/>
<path d="M3136 28985 c-3 -8 3 -19 14 -25 27 -14 50 -12 50 4 0 8 3 16 8 19 4
2 2 2 -5 1 -7 -2 -15 1 -18 6 -9 15 -42 12 -49 -5z"/>
<path d="M2481 28980 c-17 -10 -7 -40 14 -40 8 0 15 9 15 19 0 24 -12 32 -29
21z"/>
<path d="M2533 28977 c-8 -14 14 -30 31 -24 24 9 20 36 -5 34 -11 -1 -23 -5
-26 -10z"/>
<path d="M1217 28954 c-16 -21 -16 -24 -2 -24 16 0 30 22 23 39 -1 5 -11 -2
-21 -15z"/>
<path d="M3285 28960 c-3 -5 -1 -10 4 -10 6 0 11 5 11 10 0 6 -2 10 -4 10 -3
0 -8 -4 -11 -10z"/>
<path d="M3245 28950 c3 -5 8 -10 11 -10 2 0 4 5 4 10 0 6 -5 10 -11 10 -5 0
-7 -4 -4 -10z"/>
<path d="M3370 28945 c-9 -11 -9 -21 1 -45 8 -16 19 -30 26 -30 16 0 25 33 17
64 -7 29 -25 34 -44 11z"/>
<path d="M2659 28928 c-10 -93 -8 -99 32 -77 11 6 17 15 12 22 -4 6 -7 23 -7
37 -1 26 -35 43 -37 18z"/>
<path d="M3326 28931 c-4 -5 -2 -12 3 -15 5 -4 12 -2 15 3 4 5 2 12 -3 15 -5
4 -12 2 -15 -3z"/>
<path d="M3933 28915 c-3 -9 -3 -19 1 -22 8 -9 37 18 30 28 -8 14 -24 11 -31
-6z"/>
<path d="M4007 28923 c-11 -11 -8 -30 6 -36 22 -8 57 11 51 28 -6 15 -45 21
-57 8z"/>
<path d="M4696 28918 c-3 -7 -7 -32 -10 -55 -5 -38 -4 -43 13 -43 25 0 32 22
25 71 -6 38 -21 52 -28 27z"/>
<path d="M3970 28875 c0 -8 5 -15 10 -15 6 0 10 7 10 15 0 8 -4 15 -10 15 -5
0 -10 -7 -10 -15z"/>
<path d="M1982 28872 c-17 -5 -15 -52 2 -52 7 0 19 7 26 15 9 11 9 17 -2 28
-7 7 -19 12 -26 9z"/>
<path d="M3935 28870 c3 -5 8 -10 11 -10 2 0 4 5 4 10 0 6 -5 10 -11 10 -5 0
-7 -4 -4 -10z"/>
<path d="M3825 28821 c-8 -15 86 -54 99 -41 7 7 4 10 -9 11 -13 0 -15 2 -6 6
8 3 -2 11 -25 19 -47 16 -51 17 -59 5z"/>
<path d="M795 28800 c-3 -5 -12 -7 -20 -3 -10 3 -15 -2 -15 -17 0 -11 -4 -18
-10 -15 -5 3 -10 0 -10 -8 0 -7 11 -20 24 -27 15 -7 26 -23 28 -39 2 -20 9
-27 32 -29 28 -4 29 -3 23 37 -4 31 -1 41 11 46 15 6 42 -18 42 -37 0 -4 14
-8 30 -8 24 0 30 -4 31 -22 1 -17 2 -19 6 -5 6 23 33 22 33 -2 0 -11 5 -23 10
-26 6 -3 10 -15 10 -25 0 -10 5 -22 11 -26 8 -5 10 1 7 20 -5 26 -5 26 14 10
13 -13 15 -20 6 -25 -15 -9 7 -39 28 -39 8 0 19 -9 26 -20 14 -23 28 -26 28
-7 0 7 -11 21 -25 31 -14 10 -25 22 -25 27 0 10 103 -1 110 -11 3 -4 24 -11
47 -15 36 -6 43 -4 52 14 13 23 -4 61 -27 61 -7 0 -15 7 -19 16 -3 8 -16 20
-29 25 -28 10 -31 26 -6 32 15 4 15 5 -2 6 -15 1 -16 3 -6 17 11 12 10 18 -3
31 -15 15 -17 14 -27 -11 -5 -15 -16 -34 -24 -42 -16 -16 -36 -19 -36 -5 0 5
-21 17 -47 27 -27 9 -52 21 -58 26 -5 4 -21 8 -35 8 -14 0 -36 8 -50 17 -25
17 -74 28 -65 13 7 -11 -22 -33 -35 -25 -5 3 -10 13 -10 21 0 16 -16 19 -25 4z"/>
<path d="M3985 28799 c-4 -6 -3 -15 3 -21 6 -6 11 -4 15 6 7 18 -9 31 -18 15z"/>
<path d="M4650 28796 c0 -2 7 -9 15 -16 13 -11 14 -10 9 4 -5 14 -24 23 -24
12z"/>
<path d="M4610 28776 c0 -2 9 -6 20 -9 11 -3 20 -1 20 4 0 5 -9 9 -20 9 -11 0
-20 -2 -20 -4z"/>
<path d="M855 28640 c3 -5 0 -7 -8 -4 -8 3 -18 1 -22 -5 -3 -6 1 -14 10 -17
10 -4 13 -13 10 -25 -5 -14 0 -21 16 -27 15 -6 18 -11 11 -16 -19 -11 -14 -29
16 -65 24 -29 30 -32 42 -20 8 8 33 19 55 24 30 8 40 15 40 30 0 14 -8 21 -26
23 -15 2 -35 12 -45 23 -9 10 -21 19 -26 19 -17 0 -38 28 -38 49 0 15 -6 21
-21 21 -11 0 -17 -4 -14 -10z"/>
<path d="M4523 28617 c-11 -12 -20 -35 -20 -52 0 -25 1 -27 12 -12 6 9 15 14
18 11 3 -3 3 3 1 14 -4 14 0 21 15 25 12 3 24 1 27 -4 8 -13 48 -11 63 4 10
10 11 9 5 -6 -5 -13 -2 -16 10 -11 27 10 18 29 -20 43 -28 10 -38 11 -44 1 -5
-9 -13 -9 -27 -2 -15 8 -23 6 -40 -11z"/>
<path d="M1816 28611 c-19 -20 -14 -41 8 -41 7 0 13 12 13 30 0 17 -1 30 -2
30 -1 0 -10 -9 -19 -19z"/>
<path d="M1845 28600 c-3 -5 1 -10 9 -10 8 0 18 5 21 10 3 6 -1 10 -9 10 -8 0
-18 -4 -21 -10z"/>
<path d="M3790 28574 c-11 -29 -6 -45 14 -38 14 5 18 64 4 64 -5 0 -13 -12
-18 -26z"/>
<path d="M2480 28560 c0 -13 5 -18 14 -14 8 3 12 12 9 20 -8 21 -23 17 -23 -6z"/>
<path d="M4010 28556 c0 -2 7 -9 15 -16 13 -11 14 -10 9 4 -5 14 -24 23 -24
12z"/>
<path d="M4547 28500 c3 -11 1 -20 -5 -20 -6 0 -13 8 -15 18 -4 13 -5 11 -6
-5 -1 -17 5 -23 19 -23 15 0 20 7 20 25 0 14 -4 25 -9 25 -5 0 -7 -9 -4 -20z"/>
<path d="M1106 28495 c4 -8 16 -14 28 -14 16 1 17 2 4 6 -10 2 -18 9 -18 14 0
5 -4 9 -10 9 -5 0 -7 -7 -4 -15z"/>
<path d="M3949 28494 c-12 -14 -11 -16 5 -13 11 2 21 10 24 17 5 17 -13 15
-29 -4z"/>
<path d="M2474 28473 c-4 -10 -8 -22 -8 -26 -1 -4 -7 -11 -14 -16 -10 -6 -7
-12 12 -24 23 -15 26 -15 47 2 l22 18 -22 32 c-26 36 -26 36 -37 14z"/>
<path d="M2340 28460 c0 -11 5 -20 10 -20 6 0 10 9 10 20 0 11 -4 20 -10 20
-5 0 -10 -9 -10 -20z"/>
<path d="M4395 28469 c-4 -6 -5 -13 -2 -16 8 -7 47 7 47 18 0 13 -37 11 -45
-2z"/>
<path d="M3900 28445 c-10 -13 -9 -15 8 -15 15 0 20 5 16 15 -4 8 -7 15 -9 15
-1 0 -8 -7 -15 -15z"/>
<path d="M2396 28442 c-3 -6 -1 -14 5 -17 15 -10 25 3 12 16 -7 7 -13 7 -17 1z"/>
<path d="M3817 28444 c-8 -8 1 -24 14 -24 5 0 9 7 9 15 0 15 -12 20 -23 9z"/>
<path d="M2565 28420 c-8 -13 37 -31 49 -20 4 5 5 13 2 19 -9 14 -43 14 -51 1z"/>
<path d="M4572 28415 c-11 -13 -9 -15 8 -15 11 0 20 7 20 15 0 19 -11 19 -28
0z"/>
<path d="M2471 28353 c-1 -12 2 -24 7 -27 12 -7 45 22 37 34 -5 8 -10 8 -20 0
-10 -8 -14 -7 -18 2 -3 7 -6 3 -6 -9z"/>
<path d="M3977 28354 c-12 -12 4 -24 34 -24 31 0 39 14 13 24 -20 8 -39 8 -47
0z"/>
<path d="M1950 28317 c0 -16 39 -36 58 -30 6 3 12 13 12 24 0 15 -7 19 -35 19
-23 0 -35 -5 -35 -13z"/>
<path d="M1745 28310 c3 -5 8 -10 11 -10 2 0 4 5 4 10 0 6 -5 10 -11 10 -5 0
-7 -4 -4 -10z"/>
<path d="M3342 28239 c-18 -16 -21 -24 -11 -35 16 -19 55 -18 63 3 4 10 -1 24
-12 35 -17 18 -19 18 -40 -3z"/>
<path d="M4447 28211 c-18 -31 -23 -106 -8 -115 33 -21 65 38 55 100 -7 51
-23 56 -47 15z m33 -22 c0 -11 -4 -17 -10 -14 -5 3 -10 1 -10 -6 0 -7 -3 -10
-6 -7 -5 5 16 48 23 48 2 0 3 -9 3 -21z m-10 -49 c0 -5 -2 -10 -4 -10 -3 0 -8
5 -11 10 -3 6 -1 10 4 10 6 0 11 -4 11 -10z"/>
<path d="M2520 28145 c0 -8 5 -15 10 -15 6 0 10 7 10 15 0 8 -4 15 -10 15 -5
0 -10 -7 -10 -15z"/>
<path d="M4580 28133 c-17 -16 -32 -37 -34 -48 -2 -11 -13 -22 -27 -25 -22 -5
-22 -7 -5 -13 12 -5 25 -2 36 8 9 8 21 15 27 15 6 0 13 9 16 20 3 11 6 24 7
28 1 4 6 15 11 25 14 24 4 21 -31 -10z"/>
<path d="M1196 28123 c-6 -14 -5 -15 5 -6 7 7 10 15 7 18 -3 3 -9 -2 -12 -12z"/>
<path d="M2020 28129 c0 -5 5 -7 10 -4 6 3 10 8 10 11 0 2 -4 4 -10 4 -5 0
-10 -5 -10 -11z"/>
<path d="M2577 28133 c-12 -12 23 -41 44 -36 23 6 23 10 5 29 -15 15 -38 18
-49 7z"/>
<path d="M3140 28121 c0 -11 26 -22 34 -14 3 3 3 10 0 14 -7 12 -34 11 -34 0z"/>
<path d="M2500 28109 c0 -5 5 -7 10 -4 6 3 10 8 10 11 0 2 -4 4 -10 4 -5 0
-10 -5 -10 -11z"/>
<path d="M3052 28100 c-18 -30 -14 -42 8 -23 20 17 27 43 12 43 -4 0 -13 -9
-20 -20z"/>
<path d="M1880 28090 c0 -5 4 -10 9 -10 6 0 13 5 16 10 3 6 -1 10 -9 10 -9 0
-16 -4 -16 -10z"/>
<path d="M1080 28080 c0 -5 4 -10 9 -10 6 0 13 5 16 10 3 6 -1 10 -9 10 -9 0
-16 -4 -16 -10z"/>
<path d="M4450 28065 c0 -8 7 -15 15 -15 8 0 15 4 15 9 0 5 -7 11 -15 15 -9 3
-15 0 -15 -9z"/>
<path d="M4692 28038 c3 -40 1 -43 -22 -45 -14 0 -31 -1 -37 -2 -7 -1 -13 -8
-13 -16 0 -11 11 -15 43 -15 53 0 68 13 56 49 -4 14 -7 35 -6 45 1 10 -4 21
-11 23 -9 4 -12 -7 -10 -39z"/>
<path d="M3392 28022 c-34 -29 -43 -62 -15 -62 9 0 25 -8 36 -17 19 -17 19
-17 13 4 -4 13 -4 28 1 35 11 19 15 56 6 61 -5 3 -23 -7 -41 -21z"/>
<path d="M4475 28030 c-3 -5 -1 -10 4 -10 6 0 11 5 11 10 0 6 -2 10 -4 10 -3
0 -8 -4 -11 -10z"/>
<path d="M1825 28020 c3 -5 8 -10 11 -10 2 0 4 5 4 10 0 6 -5 10 -11 10 -5 0
-7 -4 -4 -10z"/>
<path d="M3060 28013 c0 -19 21 -27 33 -13 9 10 9 11 -2 5 -8 -4 -17 -2 -22 6
-6 9 -9 10 -9 2z"/>
<path d="M3280 27943 c0 -15 28 -17 49 -4 9 6 4 10 -18 13 -21 3 -31 0 -31 -9z"/>
<path d="M657 27906 c-23 -18 -22 -36 4 -36 12 0 18 4 13 11 -3 6 -1 15 6 19
7 4 8 10 3 13 -4 3 -16 0 -26 -7z"/>
<path d="M3280 27905 c0 -8 5 -15 10 -15 6 0 10 -8 10 -18 0 -19 18 -42 32
-42 4 0 8 5 8 11 0 5 -4 8 -9 4 -6 -3 -13 10 -16 29 -7 34 -35 59 -35 31z"/>
<path d="M4103 27883 c-35 -23 -29 -44 10 -39 26 3 32 8 32 26 0 29 -14 33
-42 13z"/>
<path d="M2593 27883 c-7 -2 -13 -9 -13 -15 0 -6 -8 -17 -17 -24 -15 -10 -16
-15 -5 -25 10 -11 12 -10 12 4 0 9 6 17 13 17 18 0 49 34 40 43 -7 8 -12 8
-30 0z"/>
<path d="M2507 27845 c-8 -19 13 -31 23 -14 9 14 4 29 -10 29 -4 0 -10 -7 -13
-15z"/>
<path d="M3440 27850 c0 -5 5 -10 11 -10 5 0 7 5 4 10 -3 6 -8 10 -11 10 -2 0
-4 -4 -4 -10z"/>
<path d="M1991 27823 c-10 -11 -10 -18 -2 -26 8 -8 11 -8 11 1 0 7 7 12 15 12
18 0 20 16 2 23 -6 2 -18 -2 -26 -10z"/>
<path d="M1866 27783 c-4 -9 -1 -21 5 -27 9 -8 10 -8 5 2 -4 7 -2 19 4 27 7 9
8 15 2 15 -5 0 -13 -8 -16 -17z"/>
<path d="M689 27762 c-9 -12 -18 -19 -21 -17 -3 3 -8 -9 -12 -26 -8 -41 0 -49
20 -20 9 12 22 20 30 17 15 -6 16 4 5 44 l-7 24 -15 -22z"/>
<path d="M747 27733 c-13 -13 -7 -21 13 -16 11 3 20 9 20 14 0 10 -24 12 -33
2z"/>
<path d="M1080 27710 c0 -19 3 -21 12 -12 9 9 9 15 0 24 -9 9 -12 7 -12 -12z"/>
<path d="M2640 27722 c0 -6 -8 -8 -19 -5 -22 6 -33 -8 -21 -26 6 -11 13 -10
34 7 16 12 22 23 16 27 -5 3 -10 2 -10 -3z"/>
<path d="M765 27690 c-3 -5 1 -10 10 -10 9 0 13 5 10 10 -3 6 -8 10 -10 10 -2
0 -7 -4 -10 -10z"/>
<path d="M945 27690 c-3 -5 1 -10 9 -10 8 0 18 5 21 10 3 6 -1 10 -9 10 -8 0
-18 -4 -21 -10z"/>
<path d="M2406 27668 c8 -27 12 -33 19 -27 7 8 -7 49 -17 49 -5 0 -6 -10 -2
-22z"/>
<path d="M3243 27682 c-15 -10 -13 -53 4 -70 15 -16 27 1 18 28 -4 11 -2 20 4
20 6 0 11 7 11 15 0 16 -18 19 -37 7z"/>
<path d="M1180 27665 c0 -11 5 -15 16 -11 8 3 12 2 9 -4 -3 -6 3 -10 15 -10
33 0 21 34 -13 38 -20 2 -27 -1 -27 -13z"/>
<path d="M3441 27644 c0 -11 3 -14 6 -6 3 7 2 16 -1 19 -3 4 -6 -2 -5 -13z"/>
<path d="M807 27631 c-3 -12 -1 -19 4 -15 5 3 9 0 9 -5 0 -6 -7 -11 -16 -11
-11 0 -14 -5 -10 -16 3 -9 6 -24 6 -35 0 -17 3 -17 20 -7 15 9 18 21 16 51 -4
46 -21 68 -29 38z"/>
<path d="M3995 27631 c-3 -6 3 -18 13 -28 10 -10 22 -26 25 -35 8 -22 27 -24
27 -3 0 8 -5 15 -11 15 -5 0 -8 4 -4 10 3 5 12 7 20 3 8 -3 15 0 15 6 0 6 -12
11 -26 11 -19 0 -25 4 -20 15 6 17 -29 22 -39 6z"/>
<path d="M4120 27626 c0 -7 7 -20 16 -27 14 -11 18 -10 30 6 13 17 12 20 -3
27 -29 11 -43 9 -43 -6z"/>
<path d="M1090 27610 c0 -5 5 -10 11 -10 5 0 7 5 4 10 -3 6 -8 10 -11 10 -2 0
-4 -4 -4 -10z"/>
<path d="M3320 27609 c0 -8 7 -23 15 -33 15 -19 15 -19 15 1 0 11 -7 26 -15
33 -12 10 -15 10 -15 -1z"/>
<path d="M2426 27595 c-3 -8 -1 -15 4 -15 6 0 10 7 10 15 0 8 -2 15 -4 15 -2
0 -6 -7 -10 -15z"/>
<path d="M1878 27593 c7 -3 16 -2 19 1 4 3 -2 6 -13 5 -11 0 -14 -3 -6 -6z"/>
<path d="M2360 27590 c0 -5 7 -10 15 -10 8 0 15 5 15 10 0 6 -7 10 -15 10 -8
0 -15 -4 -15 -10z"/>
<path d="M2465 27590 c3 -5 8 -10 11 -10 2 0 4 5 4 10 0 6 -5 10 -11 10 -5 0
-7 -4 -4 -10z"/>
<path d="M3221 27584 c0 -11 3 -14 6 -6 3 7 2 16 -1 19 -3 4 -6 -2 -5 -13z"/>
<path d="M1835 27570 c-3 -5 -1 -10 4 -10 6 0 11 5 11 10 0 6 -2 10 -4 10 -3
0 -8 -4 -11 -10z"/>
<path d="M2566 27551 c-5 -8 14 -18 67 -35 11 -3 17 0 17 9 0 8 -7 15 -15 15
-8 0 -15 5 -15 10 0 12 -47 13 -54 1z"/>
<path d="M3240 27538 c0 -8 8 -23 19 -32 18 -16 19 -16 19 9 0 14 -3 23 -6 21
-3 -3 -11 -1 -19 5 -10 9 -13 8 -13 -3z"/>
<path d="M3440 27523 c0 -12 -2 -27 -3 -35 -2 -7 -2 -10 0 -5 3 4 9 5 14 1 12
-7 11 27 -1 46 -8 12 -10 11 -10 -7z"/>
<path d="M4061 27494 c-7 -17 -17 -22 -38 -21 -15 1 -31 6 -34 11 -10 12 -49
-3 -49 -20 0 -8 11 -19 24 -23 13 -5 26 -17 29 -25 8 -20 37 -21 37 -1 0 8 10
25 22 37 20 20 22 20 34 3 16 -21 20 -19 28 15 5 20 2 27 -18 36 -21 10 -25 8
-35 -12z"/>
<path d="M3390 27481 c0 -12 5 -21 10 -21 6 0 10 6 10 14 0 8 -4 18 -10 21 -5
3 -10 -3 -10 -14z"/>
<path d="M1950 27480 c0 -5 12 -10 28 -10 21 0 24 2 12 10 -20 13 -40 13 -40
0z"/>
<path d="M4057 27384 c-7 -7 2 -34 12 -34 4 0 7 9 8 20 2 19 -8 26 -20 14z"/>
<path d="M3986 27342 c-3 -3 -3 -9 0 -13 7 -12 54 -12 54 0 0 10 -47 21 -54
13z"/>
<path d="M4095 27320 c-3 -5 -1 -10 4 -10 6 0 11 5 11 10 0 6 -2 10 -4 10 -3
0 -8 -4 -11 -10z"/>
<path d="M1193 27276 c0 -11 1 -15 4 -7 5 11 7 11 14 0 7 -11 9 -11 9 2 0 26
-26 31 -27 5z"/>
<path d="M3410 27268 c-45 -12 -68 -34 -53 -49 6 -6 21 -8 33 -4 15 5 19 10
11 14 -6 4 7 7 30 7 26 -1 44 4 46 12 3 6 -2 12 -10 12 -9 0 -17 4 -19 8 -1 5
-19 5 -38 0z"/>
<path d="M3171 27256 c-9 -11 -7 -15 8 -19 21 -5 46 15 34 26 -11 11 -30 8
-42 -7z"/>
<path d="M1835 27250 c-3 -6 1 -7 9 -4 18 7 21 14 7 14 -6 0 -13 -4 -16 -10z"/>
<path d="M1090 27230 c0 -5 5 -10 10 -10 6 0 10 5 10 10 0 6 -4 10 -10 10 -5
0 -10 -4 -10 -10z"/>
<path d="M1221 27214 c0 -11 3 -14 6 -6 3 7 2 16 -1 19 -3 4 -6 -2 -5 -13z"/>
<path d="M1797 27210 c-3 -11 -1 -23 4 -26 5 -3 9 -1 9 5 0 5 3 16 6 25 3 9 2
16 -4 16 -5 0 -12 -9 -15 -20z"/>
<path d="M3957 27204 c-4 -4 -7 -17 -7 -28 1 -20 1 -20 15 -2 7 10 18 15 24
12 5 -4 12 -2 16 4 3 5 2 10 -4 10 -5 0 -16 2 -23 5 -8 3 -17 2 -21 -1z"/>
<path d="M1080 27191 c0 -6 5 -13 10 -16 6 -3 10 1 10 9 0 9 -4 16 -10 16 -5
0 -10 -4 -10 -9z"/>
<path d="M4096 27161 c-11 -17 4 -36 30 -37 20 -2 25 2 22 20 -3 22 -41 35
-52 17z"/>
<path d="M2025 27130 c-3 -5 -1 -10 4 -10 6 0 11 5 11 10 0 6 -2 10 -4 10 -3
0 -8 -4 -11 -10z"/>
<path d="M3308 27113 c-9 -10 -19 -32 -22 -50 -6 -26 -4 -32 13 -38 12 -3 21
-13 21 -20 0 -16 18 -30 27 -21 4 3 -2 15 -11 25 -11 12 -15 25 -10 33 10 15
12 88 3 88 -3 0 -13 -8 -21 -17z"/>
<path d="M3980 27120 c0 -5 5 -10 11 -10 5 0 7 5 4 10 -3 6 -8 10 -11 10 -2 0
-4 -4 -4 -10z"/>
<path d="M4720 27112 c-13 -11 -20 -24 -16 -30 10 -17 41 -15 56 4 11 12 11
18 -2 30 -13 13 -17 13 -38 -4z"/>
<path d="M1855 27090 c3 -5 10 -10 16 -10 5 0 9 5 9 10 0 6 -7 10 -16 10 -8 0
-12 -4 -9 -10z"/>
<path d="M4000 27092 c0 -7 5 -12 10 -12 6 0 10 -9 10 -20 0 -11 7 -20 15 -20
22 0 18 13 -10 40 -14 13 -25 18 -25 12z"/>
<path d="M4100 27050 c-12 -11 -26 -17 -31 -15 -4 3 -10 1 -13 -4 -3 -5 3 -11
14 -14 11 -3 23 -1 26 4 3 5 16 9 29 9 29 0 43 19 24 31 -20 12 -23 11 -49
-11z"/>
<path d="M1865 27032 c-9 -6 -35 -56 -35 -67 0 -3 6 -5 13 -5 6 0 17 17 24 37
13 41 12 45 -2 35z"/>
<path d="M4065 26990 c-3 -5 -1 -10 4 -10 6 0 11 5 11 10 0 6 -2 10 -4 10 -3
0 -8 -4 -11 -10z"/>
<path d="M3360 26930 c0 -5 7 -10 15 -10 8 0 15 5 15 10 0 6 -7 10 -15 10 -8
0 -15 -4 -15 -10z"/>
<path d="M4430 26906 c0 -9 5 -16 10 -16 6 0 10 4 10 9 0 6 -4 13 -10 16 -5 3
-10 -1 -10 -9z"/>
<path d="M4595 26910 c3 -5 8 -10 11 -10 2 0 4 5 4 10 0 6 -5 10 -11 10 -5 0
-7 -4 -4 -10z"/>
<path d="M4402 26870 c0 -14 2 -19 5 -12 2 6 2 18 0 25 -3 6 -5 1 -5 -13z"/>
<path d="M2567 26873 c-4 -3 -7 -13 -7 -21 0 -12 3 -12 15 -2 8 7 15 16 15 21
0 11 -14 12 -23 2z"/>
<path d="M4750 26870 c0 -7 -8 -9 -19 -5 -24 7 -27 2 -35 -60 -5 -43 -5 -47 6
-29 16 25 60 26 85 2 15 -16 15 -18 -8 -37 l-24 -20 27 1 c23 2 29 8 33 33 9
47 -16 119 -43 123 -12 2 -22 -2 -22 -8z"/>
<path d="M4172 26840 c-7 -12 -10 -25 -7 -30 4 -6 -2 -10 -12 -11 -10 0 -5 -5
12 -10 17 -5 36 -7 43 -4 15 6 16 47 0 63 -16 16 -21 15 -36 -8z"/>
<path d="M1970 26838 c-19 -4 -41 -5 -47 -3 -7 2 -13 -1 -13 -8 0 -14 68 -17
88 -4 7 5 24 6 38 3 13 -4 24 -2 24 3 0 13 -49 18 -90 9z"/>
<path d="M4480 26830 c0 -5 7 -10 16 -10 8 0 12 5 9 10 -3 6 -10 10 -16 10 -5
0 -9 -4 -9 -10z"/>
<path d="M3292 26818 c-18 -18 -15 -51 4 -44 9 3 18 6 20 6 2 0 4 5 4 11 0 6
-7 8 -16 5 -14 -5 -15 -4 -4 9 16 19 9 30 -8 13z"/>
<path d="M2773 26781 c-13 -49 -1 -75 21 -46 17 22 18 30 10 63 -9 33 -20 27
-31 -17z"/>
<path d="M4605 26810 c3 -5 12 -7 20 -3 21 7 19 13 -6 13 -11 0 -18 -4 -14
-10z"/>
<path d="M4027 26803 c-11 -10 -8 -43 3 -43 6 0 10 10 10 23 0 14 3 18 8 10 4
-7 17 -10 31 -6 17 4 19 8 9 14 -16 10 -52 12 -61 2z"/>
<path d="M4640 26791 c0 -5 7 -11 15 -15 9 -3 15 0 15 9 0 8 -7 15 -15 15 -8
0 -15 -4 -15 -9z"/>
<path d="M1285 26750 c-3 -5 1 -10 10 -10 9 0 13 5 10 10 -3 6 -8 10 -10 10
-2 0 -7 -4 -10 -10z"/>
<path d="M3290 26741 c0 -6 5 -13 10 -16 6 -3 10 1 10 9 0 9 -4 16 -10 16 -5
0 -10 -4 -10 -9z"/>
<path d="M3490 26735 c0 -28 16 -50 24 -36 4 6 0 21 -8 33 -15 21 -16 21 -16
3z"/>
<path d="M3320 26683 c0 -23 17 -49 26 -41 9 10 -4 58 -16 58 -6 0 -10 -8 -10
-17z"/>
<path d="M3510 26665 c-6 -31 -5 -75 1 -75 4 0 5 -16 2 -35 -3 -22 -2 -35 5
-35 14 0 20 38 10 74 -5 20 -4 33 5 38 9 6 9 8 0 8 -6 0 -14 8 -16 18 -3 9 -6
13 -7 7z"/>
<path d="M4145 26640 c-7 -12 2 -12 30 0 19 8 19 9 -2 9 -12 1 -25 -3 -28 -9z"/>
<path d="M3941 26618 c-27 -9 -28 -21 -1 -13 11 4 20 2 20 -4 0 -6 9 -11 20
-11 13 0 18 -5 14 -15 -4 -8 -10 -15 -16 -15 -5 0 -6 5 -3 10 7 12 -2 12 -30
0 -18 -8 -18 -9 -2 -9 10 -1 25 -8 33 -16 12 -12 19 -12 34 -2 14 8 16 13 7
17 -13 5 -16 28 -4 46 9 15 -42 23 -72 12z"/>
<path d="M4045 26620 c3 -5 18 -10 33 -9 24 0 25 1 7 9 -28 12 -47 12 -40 0z"/>
<path d="M2570 26610 c0 -5 5 -10 10 -10 6 0 10 5 10 10 0 6 -4 10 -10 10 -5
0 -10 -4 -10 -10z"/>
<path d="M2648 26613 c7 -3 16 -2 19 1 4 3 -2 6 -13 5 -11 0 -14 -3 -6 -6z"/>
<path d="M4160 26610 c0 -5 5 -10 10 -10 6 0 10 5 10 10 0 6 -4 10 -10 10 -5
0 -10 -4 -10 -10z"/>
<path d="M3350 26580 c0 -5 7 -10 16 -10 8 0 12 5 9 10 -3 6 -10 10 -16 10 -5
0 -9 -4 -9 -10z"/>
<path d="M4170 26575 c-7 -9 -10 -18 -7 -21 3 -3 10 4 17 15 13 25 8 27 -10 6z"/>
<path d="M4050 26570 c0 -5 15 -10 33 -9 27 0 29 2 12 9 -28 12 -45 12 -45 0z"/>
<path d="M2577 26563 c-13 -12 -7 -74 7 -89 8 -8 17 -10 20 -5 4 5 1 11 -4 13
-6 2 -12 22 -13 46 0 23 -2 42 -2 42 -1 0 -5 -3 -8 -7z"/>
<path d="M4516 26494 c-9 -25 0 -28 34 -14 38 16 38 25 1 28 -19 1 -31 -3 -35
-14z"/>
<path d="M4830 26493 c-8 -3 -26 -10 -39 -15 -23 -8 -23 -9 -6 -28 21 -23 37
-25 68 -7 33 18 39 31 20 45 -18 13 -20 13 -43 5z"/>
<path d="M2656 26451 c-4 -7 -5 -15 -2 -18 9 -9 19 4 14 18 -4 11 -6 11 -12 0z"/>
<path d="M2610 26430 c0 -5 5 -10 11 -10 5 0 7 5 4 10 -3 6 -8 10 -11 10 -2 0
-4 -4 -4 -10z"/>
<path d="M4012 26421 c-9 -5 -9 -15 0 -39 13 -34 43 -43 66 -20 15 15 16 32 2
23 -5 -3 -10 -3 -10 2 -1 15 -46 41 -58 34z"/>
<path d="M3946 26374 c-18 -18 -21 -34 -6 -34 6 0 10 7 10 15 0 8 6 15 14 15
8 0 18 5 21 10 10 16 -22 11 -39 -6z"/>
<path d="M4210 26350 c-8 -5 -11 -12 -8 -16 4 -3 14 1 23 10 18 17 9 21 -15 6z"/>
<path d="M2760 26284 c0 -8 5 -12 10 -9 6 3 10 10 10 16 0 5 -4 9 -10 9 -5 0
-10 -7 -10 -16z"/>
<path d="M4920 26252 c-20 -16 -20 -19 -7 -31 12 -9 21 -10 34 -2 10 6 14 11
8 11 -5 0 -4 4 4 9 13 9 7 31 -8 31 -5 0 -19 -8 -31 -18z"/>
<path d="M2750 26249 c0 -5 5 -7 10 -4 6 3 10 8 10 11 0 2 -4 4 -10 4 -5 0
-10 -5 -10 -11z"/>
<path d="M4871 26224 c0 -11 3 -14 6 -6 3 7 2 16 -1 19 -3 4 -6 -2 -5 -13z"/>
<path d="M4806 26221 c-9 -15 23 -36 36 -23 5 5 7 15 4 21 -9 13 -33 14 -40 2z"/>
<path d="M4730 26186 c0 -14 5 -28 10 -31 6 -4 10 7 10 24 0 17 -4 31 -10 31
-5 0 -10 -11 -10 -24z"/>
<path d="M4839 26175 c-1 -3 -2 -8 -3 -12 -1 -5 -5 -13 -9 -20 -12 -19 4 -43
29 -43 22 0 23 2 12 20 -10 16 -10 22 -1 28 9 6 7 11 -7 20 -11 7 -21 10 -21
7z"/>
<path d="M4767 26147 c3 -15 9 -27 14 -27 13 0 11 13 -5 35 -13 18 -14 18 -9
-8z"/>
<path d="M3246 26121 c-4 -7 -5 -15 -2 -18 9 -9 19 4 14 18 -4 11 -6 11 -12 0z"/>
<path d="M2770 26096 c0 -9 5 -16 10 -16 6 0 10 4 10 9 0 6 -4 13 -10 16 -5 3
-10 -1 -10 -9z"/>
<path d="M2633 26044 c-7 -18 6 -45 24 -51 11 -4 22 35 15 55 -6 18 -32 15
-39 -4z"/>
<path d="M3240 26033 c0 -25 1 -26 16 -11 9 9 13 21 10 27 -13 20 -26 11 -26
-16z"/>
<path d="M1930 26011 c0 -10 19 -25 25 -20 1 2 -3 10 -11 17 -8 7 -14 8 -14 3z"/>
<path d="M3515 25963 c8 -66 18 -83 44 -76 39 10 4 133 -38 133 -10 0 -12 -12
-6 -57z"/>
<path d="M1990 25984 c0 -9 11 -14 31 -14 35 0 31 15 -6 22 -17 4 -25 1 -25
-8z"/>
<path d="M4703 25953 c-17 -6 -16 -34 0 -57 11 -16 13 -13 13 23 -1 23 -1 41
-1 40 0 0 -6 -3 -12 -6z"/>
<path d="M1160 25940 c0 -5 5 -10 10 -10 6 0 10 5 10 10 0 6 -4 10 -10 10 -5
0 -10 -4 -10 -10z"/>
<path d="M3261 25934 c0 -11 3 -14 6 -6 3 7 2 16 -1 19 -3 4 -6 -2 -5 -13z"/>
<path d="M4862 25910 c-11 -31 3 -55 14 -26 3 9 12 16 19 16 7 0 16 6 18 13 4
9 8 8 16 -3 8 -11 11 -11 11 -2 0 11 -38 32 -60 32 -4 0 -13 -13 -18 -30z"/>
<path d="M3276 25915 c-3 -9 -6 -22 -5 -28 0 -7 5 -1 10 12 5 13 8 26 5 28 -2
2 -6 -3 -10 -12z"/>
<path d="M3440 25915 c-10 -12 -10 -19 -1 -28 14 -14 46 2 46 24 0 20 -30 23
-45 4z"/>
<path d="M2680 25910 c0 -5 4 -10 9 -10 6 0 13 5 16 10 3 6 -1 10 -9 10 -9 0
-16 -4 -16 -10z"/>
<path d="M2130 25871 c0 -5 7 -11 15 -15 9 -3 15 0 15 9 0 8 -7 15 -15 15 -8
0 -15 -4 -15 -9z"/>
<path d="M2707 25873 c-7 -11 10 -40 18 -31 4 4 3 14 -3 24 -5 9 -12 12 -15 7z"/>
<path d="M3310 25873 c0 -5 5 -15 10 -23 9 -13 11 -13 20 0 15 22 12 30 -10
30 -11 0 -20 -3 -20 -7z"/>
<path d="M4963 25862 c-7 -4 -9 -24 -6 -55 4 -36 10 -47 23 -47 27 0 40 41 24
78 -13 33 -21 37 -41 24z"/>
<path d="M3546 25833 c9 -36 13 -43 26 -43 7 0 6 5 -1 14 -7 8 -11 22 -9 32 2
9 -3 19 -10 21 -10 4 -11 -2 -6 -24z"/>
<path d="M4710 25846 c0 -18 10 -25 26 -19 20 7 17 20 -6 26 -12 3 -20 0 -20
-7z"/>
<path d="M3581 25824 c0 -11 3 -14 6 -6 3 7 2 16 -1 19 -3 4 -6 -2 -5 -13z"/>
<path d="M4876 25813 c-4 -5 -13 -8 -19 -8 -10 0 -12 -10 -8 -61 1 -8 6 -12
12 -8 6 3 8 17 5 30 -4 13 -2 24 3 24 5 0 11 7 15 15 6 16 3 19 -8 8z"/>
<path d="M4756 25803 c-11 -11 -6 -23 9 -23 8 0 15 4 15 9 0 13 -16 22 -24 14z"/>
<path d="M4260 25790 c0 -5 5 -10 10 -10 6 0 10 5 10 10 0 6 -4 10 -10 10 -5
0 -10 -4 -10 -10z"/>
<path d="M4296 25791 c-8 -13 18 -31 31 -23 9 6 6 11 -7 20 -10 6 -21 8 -24 3z"/>
<path d="M2680 25781 c0 -6 9 -15 21 -21 18 -10 20 -9 17 7 -3 19 -38 32 -38
14z"/>
<path d="M3567 25757 c-9 -11 -16 -30 -16 -42 1 -20 1 -20 6 0 3 11 12 28 21
38 8 9 13 19 11 21 -2 3 -12 -5 -22 -17z"/>
<path d="M2090 25731 c0 -5 5 -13 10 -16 6 -3 10 -2 10 4 0 5 -4 13 -10 16 -5
3 -10 2 -10 -4z"/>
<path d="M2716 25724 c-4 -9 -4 -19 -1 -22 2 -3 7 3 11 12 4 9 4 19 1 22 -2 3
-7 -3 -11 -12z"/>
<path d="M4364 25699 c4 -23 9 -46 12 -51 8 -13 37 -9 31 5 -3 6 -8 20 -12 30
-4 10 -3 17 4 17 20 0 11 17 -15 29 l-27 12 7 -42z"/>
<path d="M2840 25716 c0 -8 5 -18 10 -21 6 -3 10 3 10 14 0 12 -4 21 -10 21
-5 0 -10 -6 -10 -14z"/>
<path d="M4135 25720 c3 -5 10 -10 16 -10 5 0 9 5 9 10 0 6 -7 10 -16 10 -8 0
-12 -4 -9 -10z"/>
<path d="M4170 25680 c0 -21 34 -45 50 -35 18 11 10 26 -10 20 -16 -5 -20 -2
-20 14 0 12 -4 21 -10 21 -5 0 -10 -9 -10 -20z"/>
<path d="M1900 25660 c-13 -8 -12 -10 3 -10 9 0 17 5 17 10 0 12 -1 12 -20 0z"/>
<path d="M1308 25643 c7 -3 16 -2 19 1 4 3 -2 6 -13 5 -11 0 -14 -3 -6 -6z"/>
<path d="M4210 25538 c-1 -2 -2 -40 -4 -85 -3 -76 -2 -83 15 -83 11 0 19 -7
19 -17 0 -15 2 -14 15 3 20 27 19 34 -10 34 -14 0 -25 5 -25 11 0 7 11 8 30 4
31 -7 44 10 15 21 -8 4 -12 10 -9 15 3 5 -2 19 -10 31 -9 12 -16 30 -16 40 0
13 -19 38 -20 26z"/>
<path d="M2020 25481 c0 -5 6 -14 14 -20 16 -13 32 2 21 19 -8 12 -35 13 -35
1z"/>
<path d="M1935 25470 c-4 -6 8 -10 29 -10 20 0 36 5 36 10 0 6 -13 10 -29 10
-17 0 -33 -4 -36 -10z"/>
<path d="M1900 25460 c0 -5 5 -10 10 -10 6 0 10 5 10 10 0 6 -4 10 -10 10 -5
0 -10 -4 -10 -10z"/>
<path d="M2176 25462 c-2 -4 -1 -14 4 -22 7 -11 12 -12 21 -3 6 6 8 16 5 22
-8 13 -23 14 -30 3z"/>
<path d="M4975 25421 c-9 -31 4 -81 21 -81 9 0 12 5 9 10 -3 6 -1 10 5 10 15
0 4 49 -15 69 -11 11 -14 10 -20 -8z"/>
<path d="M4346 25411 c-10 -15 4 -39 26 -44 22 -6 48 1 48 13 0 20 -64 47 -74
31z"/>
<path d="M4100 25373 c0 -11 3 -14 8 -7 4 6 14 14 22 17 10 4 8 6 -7 6 -16 1
-23 -5 -23 -16z"/>
<path d="M4736 25364 c-9 -22 -8 -24 9 -24 8 0 15 6 15 14 0 22 -17 28 -24 10z"/>
<path d="M3356 25344 c-4 -9 -4 -19 -1 -22 3 -3 5 0 5 6 0 7 10 12 23 12 18 0
19 2 7 10 -21 14 -27 12 -34 -6z"/>
<path d="M3533 25345 c-11 -12 -7 -15 24 -21 24 -4 38 -3 41 4 2 6 10 8 19 5
10 -4 14 -2 11 7 -6 19 -80 23 -95 5z"/>
<path d="M3693 25350 c-25 -10 -26 -11 -17 -34 8 -20 48 -21 64 -1 10 12 10
18 0 30 -14 17 -16 17 -47 5z"/>
<path d="M5008 25311 c-25 -24 -22 -46 6 -65 19 -12 26 -12 30 -3 4 6 4 0 1
-15 -4 -21 -1 -28 10 -28 18 0 19 25 4 68 -7 20 -15 29 -25 25 -8 -3 -14 0
-14 6 0 6 5 11 10 11 6 0 10 5 10 10 0 15 -13 11 -32 -9z"/>
<path d="M4225 25311 c-3 -5 -1 -12 5 -16 5 -3 10 1 10 9 0 18 -6 21 -15 7z"/>
<path d="M4740 25289 c0 -19 5 -26 18 -25 11 1 20 -10 27 -31 5 -18 13 -33 18
-33 5 0 6 7 3 16 -3 9 -6 19 -6 22 0 4 -14 23 -30 42 l-30 35 0 -26z"/>
<path d="M4938 25263 c7 -3 16 -2 19 1 4 3 -2 6 -13 5 -11 0 -14 -3 -6 -6z"/>
<path d="M4369 25238 c0 -2 -2 -22 -4 -45 -3 -40 -2 -42 22 -41 35 3 53 27 25
35 -13 3 -22 13 -22 24 0 15 -18 38 -21 27z"/>
<path d="M2947 25214 c-4 -4 -7 -19 -6 -33 l0 -26 10 24 c10 26 8 47 -4 35z"/>
<path d="M4760 25188 c0 -7 4 -19 9 -27 11 -17 23 1 15 23 -7 19 -24 21 -24 4z"/>
<path d="M5040 25176 c0 -9 7 -16 16 -16 17 0 14 22 -4 28 -7 2 -12 -3 -12
-12z"/>
<path d="M4280 25141 c0 -5 5 -13 10 -16 6 -3 10 -2 10 4 0 5 -4 13 -10 16 -5
3 -10 2 -10 -4z"/>
<path d="M2931 25126 c-8 -10 -9 -16 -1 -21 5 -3 13 1 16 10 9 22 -1 29 -15
11z"/>
<path d="M4786 25131 c-3 -5 1 -11 9 -14 9 -4 12 -1 8 9 -6 16 -10 17 -17 5z"/>
<path d="M5056 25124 c-4 -9 -3 -20 0 -23 4 -3 9 0 11 7 4 10 8 10 20 0 13
-10 15 -9 12 7 -5 25 -34 31 -43 9z"/>
<path d="M4337 25091 c15 -16 32 -26 37 -23 10 6 -39 52 -55 52 -6 0 2 -13 18
-29z"/>
<path d="M2895 25080 c-3 -5 3 -10 14 -10 12 0 21 5 21 10 0 6 -6 10 -14 10
-8 0 -18 -4 -21 -10z"/>
<path d="M4795 25080 c3 -5 8 -10 11 -10 2 0 4 5 4 10 0 6 -5 10 -11 10 -5 0
-7 -4 -4 -10z"/>
<path d="M3713 25051 c2 -10 10 -29 19 -42 13 -19 17 -20 17 -7 1 25 -17 68
-29 68 -5 0 -9 -8 -7 -19z"/>
<path d="M5086 25052 c-3 -6 -1 -14 5 -17 14 -9 20 -2 10 14 -6 8 -11 9 -15 3z"/>
<path d="M4388 25043 c7 -3 16 -2 19 1 4 3 -2 6 -13 5 -11 0 -14 -3 -6 -6z"/>
<path d="M3515 25017 c-10 -38 -2 -52 17 -30 14 15 15 21 3 37 -13 18 -14 17
-20 -7z"/>
<path d="M4355 25010 c-3 -5 1 -10 9 -10 8 0 18 5 21 10 3 6 -1 10 -9 10 -8 0
-18 -4 -21 -10z"/>
<path d="M3560 24999 c0 -5 5 -7 10 -4 6 3 10 8 10 11 0 2 -4 4 -10 4 -5 0
-10 -5 -10 -11z"/>
<path d="M3752 24950 c0 -14 2 -19 5 -12 2 6 2 18 0 25 -3 6 -5 1 -5 -13z"/>
<path d="M3511 24934 c0 -11 3 -14 6 -6 3 7 2 16 -1 19 -3 4 -6 -2 -5 -13z"/>
<path d="M2850 24921 c0 -10 7 -21 15 -25 8 -3 15 -1 15 4 0 6 -5 10 -11 10
-6 0 -9 7 -5 15 3 8 1 15 -4 15 -6 0 -10 -9 -10 -19z"/>
<path d="M3550 24895 c0 -8 5 -15 10 -15 6 0 10 7 10 15 0 8 -4 15 -10 15 -5
0 -10 -7 -10 -15z"/>
<path d="M3596 24881 c-3 -5 1 -12 10 -15 20 -8 29 -1 19 13 -8 13 -22 14 -29
2z"/>
<path d="M3675 24863 c-10 -41 3 -83 27 -83 18 0 19 2 7 17 -12 15 -12 16 3
10 12 -4 21 0 28 12 8 15 6 20 -10 24 -11 3 -20 12 -20 20 0 27 -28 27 -35 0z"/>
<path d="M3760 24865 c0 -8 5 -15 10 -15 6 0 10 7 10 15 0 8 -4 15 -10 15 -5
0 -10 -7 -10 -15z"/>
<path d="M4501 24810 c-17 -15 -32 -18 -60 -14 -26 4 -41 2 -49 -9 -9 -10 -10
-17 -2 -22 5 -3 10 2 11 12 1 12 3 10 8 -7 4 -15 15 -26 29 -28 24 -4 29 -31
10 -50 -10 -10 -10 -15 2 -22 21 -14 30 -12 30 5 0 8 4 15 10 15 5 0 8 15 6
34 -1 23 2 32 10 29 12 -4 23 15 30 55 5 27 -4 27 -35 2z"/>
<path d="M3626 24811 c-3 -5 1 -12 10 -15 22 -8 25 -4 9 11 -8 7 -16 9 -19 4z"/>
<path d="M2956 24785 c-9 -26 -7 -32 5 -12 6 10 9 21 6 23 -2 3 -7 -2 -11 -11z"/>
<path d="M2260 24766 c-6 -8 -19 -12 -28 -9 -13 5 -14 3 -6 -7 15 -15 54 -4
54 16 0 18 -4 18 -20 0z"/>
<path d="M2802 24753 c5 -25 28 -28 28 -4 0 12 -6 21 -16 21 -9 0 -14 -7 -12
-17z"/>
<path d="M2850 24745 c-8 -9 -8 -15 -2 -15 12 0 26 19 19 26 -2 2 -10 -2 -17
-11z"/>
<path d="M4310 24745 c-8 -10 -9 -19 -1 -32 9 -16 10 -16 11 5 0 13 4 20 10
17 6 -3 10 -2 10 4 0 17 -17 21 -30 6z"/>
<path d="M3535 24731 c-9 -29 4 -49 37 -56 16 -4 32 -5 34 -2 8 8 -37 77 -51
77 -8 0 -16 -8 -20 -19z"/>
<path d="M3752 24715 c-7 -8 -26 -15 -42 -15 -16 0 -32 -4 -35 -10 -3 -5 -17
-10 -31 -10 -43 0 -26 -32 19 -37 34 -3 38 -2 33 15 -5 15 2 22 37 36 23 9 48
16 55 16 7 0 10 5 7 10 -9 14 -28 12 -43 -5z"/>
<path d="M4330 24700 c0 -5 9 -10 20 -10 11 0 20 5 20 10 0 6 -9 10 -20 10
-11 0 -20 -4 -20 -10z"/>
<path d="M2870 24650 c0 -5 7 -10 16 -10 8 0 12 5 9 10 -3 6 -10 10 -16 10 -5
0 -9 -4 -9 -10z"/>
<path d="M3025 24630 c-3 -5 -1 -10 4 -10 6 0 11 5 11 10 0 6 -2 10 -4 10 -3
0 -8 -4 -11 -10z"/>
<path d="M2758 24613 c7 -3 16 -2 19 1 4 3 -2 6 -13 5 -11 0 -14 -3 -6 -6z"/>
<path d="M3846 24601 c-4 -5 -3 -16 0 -24 3 -10 -3 -21 -15 -29 -28 -17 -27
-38 2 -38 27 0 38 8 59 41 11 17 13 30 6 42 -10 18 -43 23 -52 8z"/>
<path d="M5225 24601 c-3 -6 -3 -15 0 -21 3 -5 0 -10 -9 -10 -8 0 -16 6 -19
13 -2 6 -8 8 -13 4 -13 -13 17 -27 58 -27 35 0 37 2 29 23 -9 24 -35 34 -46
18z"/>
<path d="M2250 24590 c-12 -8 -10 -10 8 -10 13 0 20 4 17 10 -7 12 -6 12 -25
0z"/>
<path d="M5293 24580 c1 -11 5 -20 9 -20 11 0 10 28 -1 35 -6 3 -9 -4 -8 -15z"/>
<path d="M4344 24517 c-11 -18 -19 -38 -17 -44 5 -15 53 -18 53 -3 0 6 -5 10
-11 10 -6 0 -3 7 6 16 9 10 12 20 7 23 -5 3 -11 11 -13 18 -2 7 -13 -2 -25
-20z"/>
<path d="M1430 24480 c0 -5 5 -10 10 -10 6 0 10 5 10 10 0 6 -4 10 -10 10 -5
0 -10 -4 -10 -10z"/>
<path d="M3798 24453 c7 -3 16 -2 19 1 4 3 -2 6 -13 5 -11 0 -14 -3 -6 -6z"/>
<path d="M3753 24443 c-7 -3 -13 -12 -13 -21 0 -15 2 -15 17 1 18 18 16 27 -4
20z"/>
<path d="M2431 24386 c-8 -10 -9 -16 -1 -21 5 -3 13 1 16 10 9 22 -1 29 -15
11z"/>
<path d="M3740 24389 c0 -5 5 -7 10 -4 6 3 10 8 10 11 0 2 -4 4 -10 4 -5 0
-10 -5 -10 -11z"/>
<path d="M4462 24360 c-6 -11 -12 -22 -12 -25 0 -11 20 6 30 26 14 25 -2 25
-18 -1z"/>
<path d="M5160 24367 c0 -1 9 -20 20 -42 39 -77 18 -99 -85 -91 -76 5 -80 7
-102 49 l-16 32 -10 -28 c-6 -19 -6 -32 1 -39 14 -14 4 -38 -17 -38 -10 0 -21
-3 -24 -7 -9 -9 52 -35 64 -27 5 3 9 -2 9 -10 0 -26 21 -29 44 -7 18 17 35 21
88 21 51 0 69 4 82 19 9 10 16 22 15 27 -2 5 1 29 5 53 7 37 5 47 -9 57 -10 8
-23 11 -28 7 -6 -4 -8 0 -4 10 5 12 1 17 -13 17 -11 0 -20 -1 -20 -3z"/>
<path d="M3863 24334 c-26 -21 -35 -24 -53 -14 -18 10 -24 8 -41 -11 -24 -27
-15 -39 42 -55 81 -24 151 30 112 85 -18 26 -21 26 -60 -5z"/>
<path d="M3731 24304 c0 -11 3 -14 6 -6 3 7 2 16 -1 19 -3 4 -6 -2 -5 -13z"/>
<path d="M4531 24304 c0 -11 3 -14 6 -6 3 7 2 16 -1 19 -3 4 -6 -2 -5 -13z"/>
<path d="M2997 24283 c-3 -5 -1 -17 4 -28 7 -17 8 -17 8 8 1 27 -4 34 -12 20z"/>
<path d="M4580 24256 c0 -17 14 -29 23 -20 8 8 -3 34 -14 34 -5 0 -9 -6 -9
-14z"/>
<path d="M4415 24239 c-10 -15 3 -25 16 -12 7 7 7 13 1 17 -6 3 -14 1 -17 -5z"/>
<path d="M1606 24182 c-9 -26 -1 -41 13 -26 5 5 5 18 1 29 -7 19 -7 19 -14 -3z"/>
<path d="M3905 24190 c-3 -5 -1 -10 5 -10 6 0 9 -8 6 -18 -4 -12 -1 -18 12
-19 24 -2 26 34 2 47 -13 7 -21 7 -25 0z"/>
<path d="M4847 24163 c-12 -11 -8 -23 8 -23 8 0 15 7 15 15 0 16 -12 20 -23 8z"/>
<path d="M3015 24128 c2 -27 7 -33 25 -30 12 1 35 11 51 23 24 17 29 18 29 5
0 -19 7 -20 39 -2 18 10 21 15 10 21 -25 16 -60 14 -80 -6 -22 -22 -54 -26
-46 -5 5 11 -11 26 -28 26 -1 0 -1 -15 0 -32z"/>
<path d="M3821 24111 c-35 -33 -38 -41 -15 -41 8 0 13 4 10 9 -7 11 22 23 36
15 6 -4 5 -10 -3 -15 -11 -7 -10 -9 3 -9 21 0 36 22 19 28 -9 3 -8 9 5 23 16
18 16 19 -3 19 -12 0 -35 -13 -52 -29z"/>
<path d="M4990 24125 c0 -9 6 -12 15 -9 8 4 12 10 9 15 -8 14 -24 10 -24 -6z"/>
<path d="M2985 24120 c-3 -5 -1 -10 4 -10 6 0 11 5 11 10 0 6 -2 10 -4 10 -3
0 -8 -4 -11 -10z"/>
<path d="M2960 24090 c0 -5 5 -10 11 -10 5 0 7 5 4 10 -3 6 -8 10 -11 10 -2 0
-4 -4 -4 -10z"/>
<path d="M4980 24080 c0 -22 15 -27 23 -7 3 6 6 0 6 -15 1 -35 21 -37 21 -3 0
14 -8 29 -19 35 -27 14 -31 13 -31 -10z"/>
<path d="M3050 24086 c0 -2 7 -7 16 -10 8 -3 12 -2 9 4 -6 10 -25 14 -25 6z"/>
<path d="M2472 24040 c0 -14 2 -19 5 -12 2 6 2 18 0 25 -3 6 -5 1 -5 -13z"/>
<path d="M5332 24029 c-26 -17 -30 -24 -21 -35 15 -18 49 -17 73 1 11 8 15 15
9 15 -6 0 -9 9 -6 20 7 26 -13 26 -55 -1z"/>
<path d="M1770 24020 c0 -11 5 -20 10 -20 6 0 10 9 10 20 0 11 -4 20 -10 20
-5 0 -10 -9 -10 -20z"/>
<path d="M3939 23974 c22 -19 45 -33 51 -29 15 9 -30 50 -64 59 -24 6 -23 3
13 -30z"/>
<path d="M5022 23992 c-13 -2 -26 -10 -29 -18 -3 -8 -14 -14 -24 -14 -10 0
-19 -5 -19 -11 0 -14 98 -5 114 11 15 15 -14 37 -42 32z"/>
<path d="M5258 23993 c7 -3 16 -2 19 1 4 3 -2 6 -13 5 -11 0 -14 -3 -6 -6z"/>
<path d="M5176 23945 c-9 -13 -16 -27 -16 -31 0 -11 50 -54 63 -54 7 0 3 7 -8
16 -14 10 -19 26 -19 54 1 22 0 40 -1 40 -2 0 -10 -11 -19 -25z"/>
<path d="M3209 23951 c8 -5 10 -14 5 -22 -7 -12 -5 -12 9 0 19 15 14 31 -11
31 -14 0 -14 -2 -3 -9z"/>
<path d="M3031 23934 c0 -11 3 -14 6 -6 3 7 2 16 -1 19 -3 4 -6 -2 -5 -13z"/>
<path d="M2500 23930 c0 -5 5 -10 10 -10 6 0 10 5 10 10 0 6 -4 10 -10 10 -5
0 -10 -4 -10 -10z"/>
<path d="M3183 23928 c-22 -29 -24 -38 -8 -38 11 0 15 5 12 14 -3 8 -1 17 6
19 7 2 9 7 6 11 -3 4 -11 1 -16 -6z"/>
<path d="M4910 23930 c0 -5 5 -10 10 -10 6 0 10 5 10 10 0 6 -4 10 -10 10 -5
0 -10 -4 -10 -10z"/>
<path d="M2471 23901 c-8 -6 -9 -11 -3 -15 6 -3 14 -1 17 5 9 14 2 20 -14 10z"/>
<path d="M4918 23903 c7 -3 16 -2 19 1 4 3 -2 6 -13 5 -11 0 -14 -3 -6 -6z"/>
<path d="M3773 23880 c-1 -11 4 -20 12 -20 8 0 11 7 8 20 -3 11 -8 20 -12 20
-4 0 -7 -9 -8 -20z"/>
<path d="M3833 23894 c4 -4 -1 -13 -11 -21 -15 -12 -14 -13 8 -2 33 16 33 16
13 23 -9 4 -14 4 -10 0z"/>
<path d="M3282 23865 c-17 -36 -15 -44 8 -38 21 6 35 36 25 53 -10 17 -21 11
-33 -15z"/>
<path d="M3740 23870 c0 -5 5 -10 10 -10 6 0 10 5 10 10 0 6 -4 10 -10 10 -5
0 -10 -4 -10 -10z"/>
<path d="M3760 23829 c0 -11 5 -17 10 -14 6 3 10 13 10 21 0 8 -4 14 -10 14
-5 0 -10 -9 -10 -21z"/>
<path d="M5276 23831 c-14 -5 -16 -10 -8 -15 7 -4 12 -16 12 -26 0 -16 5 -18
38 -13 20 3 38 9 40 13 1 4 15 5 30 2 24 -5 26 -4 13 11 -7 10 -24 17 -37 17
-12 0 -26 5 -29 10 -7 12 -31 12 -59 1z"/>
<path d="M3795 23820 c-3 -5 -3 -15 0 -21 4 -5 -1 -19 -10 -29 -24 -26 -12
-39 32 -35 25 3 48 -3 69 -16 60 -37 61 -13 2 42 -24 21 -50 46 -59 54 -18 18
-26 19 -34 5z"/>
<path d="M4012 23788 c-7 -7 -12 -20 -12 -30 0 -15 8 -18 43 -18 54 1 80 18
62 43 -14 20 -75 23 -93 5z"/>
<path d="M4843 23778 c-24 -5 -43 -13 -43 -17 0 -5 -16 -12 -36 -16 -20 -3
-56 -16 -81 -28 -35 -17 -44 -26 -40 -42 3 -16 -2 -21 -17 -21 -14 1 -22 -6
-24 -21 -4 -25 15 -32 24 -8 3 8 14 17 25 20 10 4 19 13 19 21 0 8 5 14 10 14
6 0 10 -4 10 -10 0 -5 14 -10 30 -10 19 0 30 5 30 14 0 7 26 25 58 40 86 41
99 50 94 64 -2 6 -7 12 -10 11 -4 -1 -26 -5 -49 -11z"/>
<path d="M1884 23745 c-9 -22 1 -29 15 -11 8 10 9 16 1 21 -5 3 -13 -1 -16
-10z"/>
<path d="M3968 23753 c7 -3 16 -2 19 1 4 3 -2 6 -13 5 -11 0 -14 -3 -6 -6z"/>
<path d="M3336 23708 c-5 -16 -14 -28 -22 -28 -8 0 -14 -5 -14 -11 0 -5 -5 -7
-10 -4 -15 9 -25 -24 -11 -38 8 -8 11 -6 11 7 0 10 6 16 12 14 22 -8 50 28 46
58 l-4 29 -8 -27z"/>
<path d="M1759 23700 c0 -3 -2 -13 -4 -22 -2 -10 1 -18 5 -18 15 0 19 15 9 30
-5 8 -9 13 -10 10z"/>
<path d="M3940 23670 c0 -5 5 -10 10 -10 6 0 10 5 10 10 0 6 -4 10 -10 10 -5
0 -10 -4 -10 -10z"/>
<path d="M3202 23613 c2 -9 8 -18 14 -20 16 -5 13 25 -3 32 -10 3 -13 -1 -11
-12z"/>
<path d="M3310 23615 c0 -8 7 -15 16 -15 14 0 14 3 4 15 -7 8 -14 15 -16 15
-2 0 -4 -7 -4 -15z"/>
<path d="M4782 23563 c3 -25 -2 -28 -66 -50 -37 -14 -75 -30 -82 -36 -34 -28
-44 -39 -44 -48 0 -14 48 -11 73 5 12 8 50 20 85 27 35 6 70 18 78 26 11 11
31 14 79 10 50 -4 65 -2 65 8 0 8 -9 17 -20 20 -11 3 -20 11 -20 16 0 5 -4 9
-10 9 -5 0 -10 -7 -10 -15 0 -18 -26 -20 -33 -2 -4 10 -6 10 -6 0 -1 -18 -31
-16 -31 1 0 8 -7 16 -15 20 -8 3 -15 12 -15 21 0 8 -7 15 -15 15 -11 0 -15 -8
-13 -27z"/>
<path d="M5368 23583 c7 -3 16 -2 19 1 4 3 -2 6 -13 5 -11 0 -14 -3 -6 -6z"/>
<path d="M5485 23570 c-3 -5 3 -10 14 -10 12 0 21 5 21 10 0 6 -6 10 -14 10
-8 0 -18 -4 -21 -10z"/>
<path d="M5320 23503 c0 -15 6 -35 13 -44 22 -28 92 -61 123 -57 47 5 36 31
-21 49 -35 11 -54 24 -65 45 -23 40 -50 44 -50 7z"/>
<path d="M5565 23480 c3 -5 8 -10 11 -10 2 0 4 5 4 10 0 6 -5 10 -11 10 -5 0
-7 -4 -4 -10z"/>
<path d="M5585 23460 c-3 -5 -1 -10 4 -10 6 0 11 5 11 10 0 6 -2 10 -4 10 -3
0 -8 -4 -11 -10z"/>
<path d="M5555 23430 c-3 -5 -2 -10 4 -10 5 0 13 5 16 10 3 6 2 10 -4 10 -5 0
-13 -4 -16 -10z"/>
<path d="M2648 23318 c-9 -27 -13 -48 -7 -48 5 0 9 9 9 19 0 11 5 21 11 23 6
2 9 15 7 28 -3 21 -6 18 -20 -22z"/>
<path d="M1935 23330 c-3 -5 1 -10 9 -10 9 0 16 5 16 10 0 6 -4 10 -9 10 -6 0
-13 -4 -16 -10z"/>
<path d="M3178 23293 c7 -3 16 -2 19 1 4 3 -2 6 -13 5 -11 0 -14 -3 -6 -6z"/>
<path d="M2757 23263 c-4 -3 -7 -15 -7 -26 0 -13 5 -17 16 -13 9 3 19 6 24 6
4 0 6 9 3 20 -5 20 -23 26 -36 13z"/>
<path d="M1786 23251 c-4 -7 -5 -15 -2 -18 9 -9 19 4 14 18 -4 11 -6 11 -12 0z"/>
<path d="M4322 23235 c-16 -35 -15 -37 7 -23 23 14 35 48 17 48 -7 0 -18 -11
-24 -25z"/>
<path d="M4771 23225 c1 -65 25 -147 48 -165 17 -12 20 -19 11 -22 -10 -3 -11
-9 -3 -23 10 -18 11 -18 16 1 3 10 8 37 12 58 6 36 5 38 -9 27 -14 -11 -16
-11 -17 5 -1 11 -1 25 0 32 1 6 -5 12 -14 12 -10 0 -16 7 -14 18 3 32 -1 48
-16 68 -14 18 -14 18 -14 -11z"/>
<path d="M5667 23223 c-4 -3 -7 -29 -7 -57 l1 -51 19 39 c16 32 17 41 6 57 -7
10 -16 16 -19 12z"/>
<path d="M4949 23193 c0 -5 -2 -18 -3 -30 -2 -18 2 -23 21 -23 31 0 41 27 17
45 -21 16 -34 19 -35 8z"/>
<path d="M4435 23180 c-6 -10 33 -70 47 -70 23 0 19 34 -7 56 -32 27 -32 27
-40 14z"/>
<path d="M3320 23170 c0 -5 9 -10 20 -10 11 0 20 5 20 10 0 6 -9 10 -20 10
-11 0 -20 -4 -20 -10z"/>
<path d="M4301 23134 c0 -11 3 -14 6 -6 3 7 2 16 -1 19 -3 4 -6 -2 -5 -13z"/>
<path d="M5425 23130 c-3 -5 -1 -10 4 -10 6 0 11 5 11 10 0 6 -2 10 -4 10 -3
0 -8 -4 -11 -10z"/>
<path d="M5450 23130 c0 -5 9 -10 20 -10 11 0 20 5 20 10 0 6 -9 10 -20 10
-11 0 -20 -4 -20 -10z"/>
<path d="M5510 23132 c0 -10 36 -9 46 1 4 4 -5 7 -19 7 -15 0 -27 -4 -27 -8z"/>
<path d="M5620 23110 c0 -5 5 -10 10 -10 6 0 10 5 10 10 0 6 -4 10 -10 10 -5
0 -10 -4 -10 -10z"/>
<path d="M3404 23065 c-4 -8 -4 -22 0 -30 6 -17 36 -21 36 -5 0 6 8 10 18 8
11 -2 18 4 20 20 3 19 -1 22 -33 22 -22 0 -38 -6 -41 -15z"/>
<path d="M5559 23051 c-16 -16 -34 -31 -41 -33 -8 -3 -5 -9 8 -16 15 -8 32 -8
58 -1 21 6 45 8 53 5 22 -9 34 2 24 22 -5 9 -12 25 -15 35 -8 27 -53 21 -87
-12z"/>
<path d="M3330 23049 c0 -5 5 -7 10 -4 6 3 10 8 10 11 0 2 -4 4 -10 4 -5 0
-10 -5 -10 -11z"/>
<path d="M5746 23051 c-18 -7 -18 -8 -3 -14 9 -3 17 -13 17 -22 0 -17 16 -20
25 -5 3 6 0 13 -9 16 -8 3 -12 12 -9 20 6 16 6 16 -21 5z"/>
<path d="M4416 23024 c-4 -10 5 -26 25 -45 17 -16 33 -29 35 -29 1 0 -2 15 -8
33 -19 55 -40 72 -52 41z"/>
<path d="M5310 23020 c0 -12 28 -25 36 -17 3 3 -4 10 -15 17 -15 7 -21 7 -21
0z"/>
<path d="M2615 23011 c-3 -5 -1 -12 5 -16 5 -3 10 1 10 9 0 18 -6 21 -15 7z"/>
<path d="M2811 23013 c0 -5 4 -17 9 -28 8 -18 9 -17 9 8 1 15 -3 27 -9 27 -5
0 -10 -3 -9 -7z"/>
<path d="M5685 23000 c3 -5 10 -10 16 -10 5 0 9 5 9 10 0 6 -7 10 -16 10 -8 0
-12 -4 -9 -10z"/>
<path d="M5360 22990 c0 -5 5 -10 10 -10 6 0 10 5 10 10 0 6 -4 10 -10 10 -5
0 -10 -4 -10 -10z"/>
<path d="M5440 22986 c0 -12 6 -13 30 -5 17 6 30 13 30 15 0 2 -13 4 -30 4
-20 0 -30 -5 -30 -14z"/>
<path d="M5730 22990 c0 -5 7 -10 16 -10 8 0 12 5 9 10 -3 6 -10 10 -16 10 -5
0 -9 -4 -9 -10z"/>
<path d="M5658 22983 c7 -3 16 -2 19 1 4 3 -2 6 -13 5 -11 0 -14 -3 -6 -6z"/>
<path d="M1895 22929 c-4 -17 -4 -33 -1 -36 9 -9 12 -2 19 35 8 41 -9 42 -18
1z"/>
<path d="M5112 22939 c-12 -19 -10 -24 15 -50 15 -16 31 -29 34 -29 15 0 5 50
-15 74 l-21 27 -13 -22z"/>
<path d="M4465 22911 c-3 -5 -1 -12 5 -16 5 -3 10 1 10 9 0 18 -6 21 -15 7z"/>
<path d="M4858 22903 c-8 -31 31 -103 55 -103 20 0 19 2 -6 28 -15 15 -27 37
-27 48 0 10 -4 25 -9 32 -6 11 -9 9 -13 -5z"/>
<path d="M2787 22903 c-10 -10 -8 -43 2 -43 9 0 21 24 21 41 0 11 -14 12 -23
2z"/>
<path d="M5170 22816 c0 -9 5 -16 10 -16 6 0 10 4 10 9 0 6 -4 13 -10 16 -5 3
-10 -1 -10 -9z"/>
<path d="M5061 22801 c-8 -5 -9 -11 -3 -15 5 -3 15 1 22 9 14 16 3 20 -19 6z"/>
<path d="M4910 22784 c0 -5 9 -17 20 -27 11 -9 20 -25 20 -36 0 -22 20 -32 49
-24 14 4 21 13 21 30 0 19 -4 24 -15 19 -16 -6 -44 7 -77 33 -10 8 -18 10 -18
5z"/>
<path d="M2800 22695 c-7 -9 -10 -18 -7 -22 8 -7 37 15 37 28 0 14 -16 11 -30
-6z"/>
<path d="M2923 22693 c9 -14 47 -24 47 -12 0 5 -4 9 -9 9 -5 0 -17 3 -27 7
-11 4 -15 3 -11 -4z"/>
<path d="M4422 22680 c0 -14 2 -19 5 -12 2 6 2 18 0 25 -3 6 -5 1 -5 -13z"/>
<path d="M2740 22640 c0 -5 19 -10 43 -9 32 0 37 2 22 9 -28 12 -65 12 -65 0z"/>
<path d="M2830 22646 c0 -2 7 -6 15 -10 8 -3 15 -1 15 4 0 6 -7 10 -15 10 -8
0 -15 -2 -15 -4z"/>
<path d="M5229 22634 c-7 -9 -24 -20 -37 -25 -32 -12 -23 -20 26 -25 38 -4 40
-3 38 25 -2 38 -10 46 -27 25z"/>
<path d="M2850 22559 c0 -11 5 -17 10 -14 6 3 10 13 10 21 0 8 -4 14 -10 14
-5 0 -10 -9 -10 -21z"/>
<path d="M4345 22570 c-3 -5 -1 -10 4 -10 6 0 11 5 11 10 0 6 -2 10 -4 10 -3
0 -8 -4 -11 -10z"/>
<path d="M4466 22571 c-4 -6 -2 -11 3 -11 6 0 11 -13 11 -30 0 -43 28 -142 42
-152 7 -4 19 -8 26 -8 6 0 12 -4 12 -9 0 -5 -6 -11 -12 -14 -8 -3 -3 -12 15
-26 15 -13 27 -29 27 -36 0 -23 15 -24 17 -2 1 12 3 33 5 47 2 18 -2 25 -17
28 -37 7 -65 42 -58 73 5 24 3 28 -11 23 -12 -4 -16 0 -16 15 0 15 4 19 16 14
14 -5 15 -3 5 15 -7 12 -18 22 -26 22 -8 0 -15 8 -15 18 0 25 -16 47 -24 33z"/>
<path d="M5071 22566 c-19 -7 -30 -15 -25 -19 12 -7 6 -67 -7 -67 -5 0 -9 10
-9 23 -1 20 -1 21 -11 4 -7 -13 -8 -22 -1 -29 15 -15 46 -5 50 17 2 11 5 25 6
30 2 6 4 15 5 20 1 6 12 15 24 22 28 16 12 15 -32 -1z"/>
<path d="M3650 22543 c0 -4 4 -23 9 -41 8 -25 7 -34 -4 -38 -7 -3 -16 -12 -19
-21 -5 -12 -1 -14 19 -9 14 4 25 2 25 -4 0 -5 9 -10 21 -10 18 0 20 4 15 28
-4 15 -16 34 -26 44 -11 9 -20 23 -20 32 0 8 -4 18 -10 21 -5 3 -10 3 -10 -2z"/>
<path d="M4335 22510 c3 -5 8 -10 11 -10 2 0 4 5 4 10 0 6 -5 10 -11 10 -5 0
-7 -4 -4 -10z"/>
<path d="M3825 22501 c-8 -14 30 -32 50 -25 12 5 13 9 4 20 -13 16 -45 19 -54
5z"/>
<path d="M6254 22490 c-23 -9 -41 -30 -27 -30 4 0 22 9 38 20 31 21 26 25 -11
10z"/>
<path d="M6397 22473 c-4 -3 -7 -12 -7 -20 0 -7 -16 -33 -35 -59 -35 -45 -39
-69 -10 -57 8 3 15 9 15 13 0 5 9 11 19 15 20 6 53 54 66 94 5 17 2 21 -18 21
-13 0 -27 -3 -30 -7z"/>
<path d="M3550 22450 c0 -5 5 -10 10 -10 6 0 10 5 10 10 0 6 -4 10 -10 10 -5
0 -10 -4 -10 -10z"/>
<path d="M6146 22451 c-18 -7 -18 -8 0 -25 14 -15 19 -16 22 -5 3 8 9 20 15
27 11 14 -6 15 -37 3z"/>
<path d="M6047 22417 c-39 -10 -46 -14 -36 -24 7 -7 20 -13 29 -13 22 0 69
-51 53 -57 -18 -6 -16 -23 2 -23 8 0 15 -5 15 -12 0 -6 6 -3 14 7 12 16 11 21
-5 34 -18 16 -18 17 0 53 26 52 18 56 -72 35z"/>
<path d="M4466 22401 c-4 -7 -5 -15 -2 -18 9 -9 19 4 14 18 -4 11 -6 11 -12 0z"/>
<path d="M5304 22389 c-3 -6 0 -18 9 -26 11 -12 19 -13 36 -4 11 7 21 17 21
23 0 6 -3 9 -6 5 -3 -3 -17 -2 -30 3 -15 6 -26 6 -30 -1z"/>
<path d="M4763 22373 c-17 -6 -16 -40 1 -46 21 -8 48 16 40 36 -6 17 -18 20
-41 10z"/>
<path d="M2987 22326 c-15 -12 -16 -18 -7 -35 13 -25 52 -28 71 -5 11 14 9 19
-11 35 -30 22 -30 22 -53 5z"/>
<path d="M4417 22323 c-13 -12 -7 -33 8 -33 8 0 15 9 15 20 0 20 -11 26 -23
13z"/>
<path d="M5233 22313 c-18 -6 -16 -23 1 -23 17 0 30 16 19 23 -5 2 -14 2 -20
0z"/>
<path d="M6038 22293 c7 -3 16 -2 19 1 4 3 -2 6 -13 5 -11 0 -14 -3 -6 -6z"/>
<path d="M5180 22268 c-26 -21 -26 -21 18 -36 26 -9 33 -9 29 1 -2 6 -11 11
-20 11 -9 -1 -14 2 -11 7 3 5 14 9 25 9 24 0 25 16 1 22 -10 3 -29 -3 -42 -14z"/>
<path d="M5340 22229 c0 -8 -14 -10 -40 -6 -42 5 -50 -4 -26 -29 18 -17 122
-19 132 -2 4 6 -3 19 -16 30 -25 20 -50 24 -50 7z"/>
<path d="M5457 22233 c-3 -5 -1 -16 2 -26 6 -17 8 -17 20 -3 7 9 20 16 29 16
21 0 12 6 -20 14 -15 3 -29 3 -31 -1z"/>
<path d="M4058 22198 c-10 -10 -18 -22 -18 -28 0 -12 -27 -13 -34 -1 -3 5 -16
7 -29 4 -27 -7 -58 -33 -52 -44 3 -4 1 -10 -5 -14 -5 -3 -10 -14 -10 -23 1
-14 5 -12 21 7 17 21 25 23 69 18 38 -5 48 -3 44 7 -3 7 2 16 11 20 11 4 15
12 11 22 -4 9 -1 23 5 31 18 21 6 22 -13 1z"/>
<path d="M4602 22190 c1 -32 5 -35 26 -21 12 7 12 12 1 30 -19 29 -28 26 -27
-9z"/>
<path d="M6210 22195 c0 -15 18 -40 24 -34 3 3 -1 14 -9 25 -8 10 -14 15 -15
9z"/>
<path d="M3190 22168 c0 -7 5 -20 10 -28 12 -20 33 0 24 23 -7 20 -34 23 -34
5z"/>
<path d="M4890 22130 c0 -5 -9 -19 -20 -30 -11 -11 -16 -20 -12 -20 4 0 14 6
20 12 10 10 15 10 22 -2 7 -11 10 -11 10 -2 0 9 5 10 19 3 15 -9 20 -7 24 10
4 15 -1 23 -19 30 -32 12 -44 11 -44 -1z"/>
<path d="M3145 22120 c-3 -5 -1 -10 4 -10 6 0 11 5 11 10 0 6 -2 10 -4 10 -3
0 -8 -4 -11 -10z"/>
<path d="M6073 22098 c4 -10 2 -18 -3 -18 -12 0 -13 -37 -1 -44 4 -3 13 5 18
17 8 17 7 28 -4 42 -13 17 -15 17 -10 3z"/>
<path d="M3045 22080 c-3 -5 1 -10 9 -10 8 0 18 5 21 10 3 6 -1 10 -9 10 -8 0
-18 -4 -21 -10z"/>
<path d="M6267 22079 c7 -7 15 -10 18 -7 3 3 -2 9 -12 12 -14 6 -15 5 -6 -5z"/>
<path d="M4976 22061 c-4 -7 -5 -15 -2 -18 9 -9 19 4 14 18 -4 11 -6 11 -12 0z"/>
<path d="M3005 22050 c3 -5 12 -7 20 -3 8 3 15 0 15 -6 0 -6 -5 -11 -11 -11
-5 0 -7 -5 -4 -11 5 -7 14 -4 27 7 18 17 18 19 1 25 -27 11 -55 10 -48 -1z"/>
<path d="M4080 22044 c0 -8 5 -12 10 -9 6 4 8 11 5 16 -9 14 -15 11 -15 -7z"/>
<path d="M4765 22027 c-23 -20 -36 -38 -31 -45 5 -9 12 -9 26 0 14 9 16 15 7
21 -8 6 -5 7 8 4 26 -5 49 18 37 38 -7 13 -15 10 -47 -18z"/>
<path d="M6184 22043 c-4 -13 -10 -23 -15 -23 -5 0 -9 -7 -9 -15 0 -8 -5 -15
-11 -15 -5 0 -7 -5 -4 -10 4 -7 13 -7 26 0 11 6 17 16 13 21 -3 6 1 16 10 22
11 9 13 16 6 27 -8 13 -11 11 -16 -7z"/>
<path d="M6270 22040 c0 -24 25 -27 34 -4 9 23 8 24 -14 24 -13 0 -20 -7 -20
-20z"/>
<path d="M6241 22018 c-1 -11 -6 -15 -15 -12 -11 4 -13 0 -9 -15 5 -21 29 -35
37 -22 3 4 1 21 -4 37 -4 16 -9 21 -9 12z"/>
<path d="M6095 22000 c-3 -5 3 -10 14 -10 12 0 21 5 21 10 0 6 -6 10 -14 10
-8 0 -18 -4 -21 -10z"/>
<path d="M5070 21960 c0 -5 5 -10 10 -10 6 0 10 5 10 10 0 6 -4 10 -10 10 -5
0 -10 -4 -10 -10z"/>
<path d="M3270 21944 c-8 -1 -36 -5 -61 -9 -37 -5 -49 -11 -58 -32 -8 -18 -9
-29 -1 -37 7 -7 10 -5 10 6 0 11 7 15 23 12 12 -2 16 -2 10 2 -7 3 -13 13 -13
22 0 12 3 13 12 4 7 -7 24 -12 38 -12 14 0 31 5 38 12 9 9 12 9 12 -1 0 -10 3
-11 14 -2 7 6 21 8 31 5 16 -7 16 -5 -1 14 -18 22 -23 23 -54 16z"/>
<path d="M4956 21904 c-4 -14 -5 -28 -3 -31 3 -2 8 8 11 23 4 14 5 28 3 31 -3
2 -8 -8 -11 -23z"/>
<path d="M5112 21918 c5 -15 28 -23 28 -10 0 5 -7 13 -16 16 -10 4 -14 1 -12
-6z"/>
<path d="M4918 21913 c7 -3 16 -2 19 1 4 3 -2 6 -13 5 -11 0 -14 -3 -6 -6z"/>
<path d="M6368 21880 c-7 -12 -30 -30 -50 -41 -37 -19 -65 -54 -51 -62 5 -3
23 -8 42 -12 18 -4 49 -16 67 -27 19 -11 34 -16 34 -11 0 4 -14 16 -30 25 -32
18 -39 48 -16 68 8 6 12 19 9 28 -5 14 -3 15 8 5 21 -20 31 -15 27 14 -4 34
-23 40 -40 13z m-48 -90 c0 -5 -4 -10 -10 -10 -5 0 -10 5 -10 10 0 6 5 10 10
10 6 0 10 -4 10 -10z"/>
<path d="M5150 21880 c0 -5 5 -10 11 -10 5 0 7 5 4 10 -3 6 -8 10 -11 10 -2 0
-4 -4 -4 -10z"/>
<path d="M3967 21853 c-4 -3 -7 -11 -7 -17 0 -6 5 -5 12 2 6 6 9 14 7 17 -3 3
-9 2 -12 -2z"/>
<path d="M4865 21850 c3 -5 11 -10 16 -10 6 0 7 5 4 10 -3 6 -11 10 -16 10 -6
0 -7 -4 -4 -10z"/>
<path d="M2580 21840 c0 -5 5 -10 11 -10 5 0 7 5 4 10 -3 6 -8 10 -11 10 -2 0
-4 -4 -4 -10z"/>
<path d="M5204 21838 c-10 -15 23 -37 46 -31 14 4 20 0 20 -11 0 -9 7 -16 15
-16 12 0 14 7 9 28 -4 15 -12 30 -18 34 -17 12 -64 9 -72 -4z"/>
<path d="M4220 21745 c-7 -9 -11 -18 -8 -20 3 -3 11 1 18 10 7 9 11 18 8 20
-3 3 -11 -1 -18 -10z"/>
<path d="M5061 21712 c-11 -17 -21 -37 -21 -45 0 -9 -6 -18 -12 -20 -7 -3 -3
-6 10 -6 12 -1 22 2 23 7 3 31 10 48 25 59 13 9 15 16 7 24 -7 7 -17 2 -32
-19z"/>
<path d="M6437 21714 c-16 -17 -5 -31 23 -30 21 1 30 6 28 16 -3 16 -39 26
-51 14z"/>
<path d="M2575 21701 c-10 -17 13 -48 40 -53 21 -4 25 -1 25 17 0 13 -8 25
-17 29 -10 3 -23 8 -30 12 -6 3 -14 0 -18 -5z"/>
<path d="M3725 21680 c3 -6 -1 -7 -9 -4 -11 4 -16 0 -16 -10 0 -9 6 -16 14
-16 17 0 38 24 29 33 -10 11 -25 8 -18 -3z"/>
<path d="M4951 21666 c-8 -10 -9 -16 -1 -21 13 -8 30 3 30 21 0 18 -14 18 -29
0z"/>
<path d="M5804 21654 c-4 -17 -1 -31 9 -42 14 -14 20 -14 42 -2 30 16 32 30 5
53 -29 24 -49 21 -56 -9z"/>
<path d="M6438 21663 c7 -3 16 -2 19 1 4 3 -2 6 -13 5 -11 0 -14 -3 -6 -6z"/>
<path d="M3631 21628 c-33 -15 -40 -22 -30 -29 18 -11 42 -12 35 -1 -3 5 6 15
19 22 14 7 25 17 25 22 0 4 -1 8 -2 7 -2 0 -23 -10 -47 -21z"/>
<path d="M6283 21637 c-49 -10 -73 -27 -38 -27 18 0 20 -16 3 -23 -7 -3 4 -6
24 -6 30 -1 36 2 31 15 -5 13 0 15 23 12 20 -2 29 1 29 11 0 8 9 17 20 22 29
11 -26 9 -92 -4z"/>
<path d="M5091 21624 c-1 -12 6 -25 15 -28 15 -6 15 -8 -1 -26 -16 -18 -16
-19 15 -18 18 1 26 4 19 9 -6 4 -9 14 -6 23 4 10 1 16 -9 16 -8 0 -19 10 -24
23 -9 22 -9 22 -9 1z"/>
<path d="M3776 21583 c-19 -27 -23 -40 -14 -50 6 -7 14 -13 18 -13 12 0 33 57
25 69 -3 6 -1 11 4 11 6 0 11 5 11 10 0 21 -20 9 -44 -27z"/>
<path d="M4940 21595 c0 -17 2 -18 24 -9 23 9 20 24 -4 24 -11 0 -20 -7 -20
-15z"/>
<path d="M2796 21587 c3 -10 9 -15 12 -12 3 3 0 11 -7 18 -10 9 -11 8 -5 -6z"/>
<path d="M3545 21580 c-3 -5 -1 -10 4 -10 6 0 11 5 11 10 0 6 -2 10 -4 10 -3
0 -8 -4 -11 -10z"/>
<path d="M4970 21570 c-13 -9 -13 -10 0 -10 8 0 22 5 30 10 13 9 13 10 0 10
-8 0 -22 -5 -30 -10z"/>
<path d="M3436 21555 c-4 -12 4 -15 42 -17 61 -2 65 -2 81 -12 8 -5 16 -3 22
5 6 11 0 15 -26 17 -19 2 -35 7 -35 13 0 16 -77 11 -84 -6z"/>
<path d="M3398 21553 c7 -3 16 -2 19 1 4 3 -2 6 -13 5 -11 0 -14 -3 -6 -6z"/>
<path d="M6354 21546 c-7 -19 47 -73 82 -82 13 -3 24 -10 24 -15 0 -5 6 -9 13
-9 7 0 13 9 13 20 0 11 -4 20 -7 20 -4 0 -11 9 -14 21 -6 16 -14 20 -43 17
-31 -2 -37 0 -37 16 0 24 -23 33 -31 12z"/>
<path d="M6523 21533 c-20 -7 -15 -33 5 -33 24 0 32 8 25 26 -5 15 -10 16 -30
7z"/>
<path d="M5930 21514 c0 -9 9 -18 19 -21 11 -3 21 -13 24 -24 3 -10 10 -19 17
-19 14 0 4 38 -18 63 -19 21 -42 22 -42 1z"/>
<path d="M3635 21510 c4 -6 11 -8 16 -5 14 9 11 15 -7 15 -8 0 -12 -5 -9 -10z"/>
<path d="M6570 21510 c0 -5 5 -10 10 -10 6 0 10 5 10 10 0 6 -4 10 -10 10 -5
0 -10 -4 -10 -10z"/>
<path d="M2675 21490 c-3 -5 1 -10 9 -10 9 0 16 5 16 10 0 6 -4 10 -9 10 -6 0
-13 -4 -16 -10z"/>
<path d="M3681 21484 c0 -11 3 -14 6 -6 3 7 2 16 -1 19 -3 4 -6 -2 -5 -13z"/>
<path d="M3613 21443 c9 -2 25 -2 35 0 9 3 1 5 -18 5 -19 0 -27 -2 -17 -5z"/>
<path d="M4460 21435 c7 -9 15 -13 17 -11 7 7 -7 26 -19 26 -6 0 -6 -6 2 -15z"/>
<path d="M5765 21440 c-3 -5 -2 -10 4 -10 5 0 13 5 16 10 3 6 2 10 -4 10 -5 0
-13 -4 -16 -10z"/>
<path d="M4426 21431 c-4 -7 -5 -15 -2 -18 9 -9 19 4 14 18 -4 11 -6 11 -12 0z"/>
<path d="M5015 21432 c-16 -16 11 -61 38 -62 12 0 8 38 -5 43 -8 3 -7 6 4 6 9
1 19 4 21 9 6 8 -50 12 -58 4z"/>
<path d="M5988 21432 c7 -5 11 -15 9 -23 -2 -8 -2 -11 0 -6 3 4 11 7 18 7 7 0
15 7 19 15 4 11 -2 15 -27 15 -20 0 -27 -3 -19 -8z"/>
<path d="M4290 21415 c0 -8 7 -15 16 -15 14 0 14 3 4 15 -7 8 -14 15 -16 15
-2 0 -4 -7 -4 -15z"/>
<path d="M5726 21396 c-17 -38 -16 -66 3 -66 5 0 7 9 4 21 -3 12 0 24 6 29 7
4 11 18 9 31 -4 22 -6 21 -22 -15z"/>
<path d="M4510 21395 c6 -8 14 -35 17 -61 3 -28 13 -55 25 -68 13 -13 19 -15
16 -6 -3 8 -1 25 3 37 13 34 0 83 -21 83 -10 0 -20 7 -24 15 -3 8 -11 15 -17
15 -8 0 -8 -4 1 -15z"/>
<path d="M6502 21398 c5 -15 28 -23 28 -10 0 5 -7 13 -16 16 -10 4 -14 1 -12
-6z"/>
<path d="M6020 21392 c0 -5 -9 -12 -20 -15 -11 -3 -20 -12 -20 -21 0 -12 -10
-16 -42 -16 l-43 0 0 -43 0 -42 43 2 c52 3 77 22 54 39 -14 10 -14 13 1 28 9
10 17 13 17 7 0 -24 18 -9 24 19 8 44 8 44 -3 48 -6 2 -11 -1 -11 -6z m-50
-86 c0 -11 -19 -15 -25 -6 -3 5 1 10 9 10 9 0 16 -2 16 -4z"/>
<path d="M3810 21374 c0 -9 5 -14 12 -12 18 6 21 28 4 28 -9 0 -16 -7 -16 -16z"/>
<path d="M5271 21354 c0 -11 3 -14 6 -6 3 7 2 16 -1 19 -3 4 -6 -2 -5 -13z"/>
<path d="M5750 21353 c0 -12 5 -25 11 -28 16 -11 17 -2 2 25 -12 24 -13 24
-13 3z"/>
<path d="M3825 21350 c-16 -7 -17 -9 -3 -9 9 -1 20 4 23 9 7 11 7 11 -20 0z"/>
<path d="M6545 21330 c3 -5 8 -10 11 -10 2 0 4 5 4 10 0 6 -5 10 -11 10 -5 0
-7 -4 -4 -10z"/>
<path d="M3712 21282 c-18 -16 -32 -33 -32 -37 0 -5 5 -4 12 3 20 20 40 15 33
-8 -8 -25 3 -26 21 -2 18 23 17 33 -2 25 -12 -4 -15 -2 -12 8 3 8 12 13 21 13
9 -1 13 4 10 12 -7 20 -15 18 -51 -14z"/>
<path d="M5173 21285 c-20 -22 -16 -32 15 -38 33 -6 37 -3 27 20 -5 10 -7 21
-7 26 3 12 -22 7 -35 -8z"/>
<path d="M5245 21280 c3 -5 11 -10 16 -10 6 0 7 5 4 10 -3 6 -11 10 -16 10 -6
0 -7 -4 -4 -10z"/>
<path d="M5840 21280 c0 -6 -11 -8 -27 -5 -27 5 -27 5 -5 -5 26 -11 64 2 43
14 -6 4 -11 2 -11 -4z"/>
<path d="M2800 21261 c0 -6 5 -11 10 -11 6 0 10 -7 10 -15 0 -9 9 -15 21 -15
34 0 21 44 -13 48 -16 2 -28 -1 -28 -7z"/>
<path d="M6992 21194 c-26 -18 -20 -34 12 -34 27 0 51 24 41 40 -9 14 -27 13
-53 -6z"/>
<path d="M4396 21182 c-8 -13 4 -72 15 -72 17 0 22 51 6 67 -9 9 -17 11 -21 5z"/>
<path d="M5955 21170 c-3 -5 -1 -10 4 -10 8 0 7 -6 -1 -19 -9 -15 -9 -29 2
-63 18 -58 25 -64 54 -48 22 11 23 15 10 27 -8 8 -14 23 -14 34 0 37 -43 99
-55 79z"/>
<path d="M3795 21151 c-10 -17 11 -21 31 -6 18 14 18 14 -3 15 -12 0 -24 -4
-28 -9z"/>
<path d="M5125 21150 c-3 -5 1 -10 9 -10 9 0 16 5 16 10 0 6 -4 10 -9 10 -6 0
-13 -4 -16 -10z"/>
<path d="M4066 21102 c-8 -16 -22 -34 -30 -41 -12 -10 -13 -16 -3 -25 16 -18
87 40 87 72 0 33 -36 29 -54 -6z"/>
<path d="M3842 21068 c-13 -13 -16 -44 -4 -52 4 -2 15 2 25 9 15 11 16 17 7
34 -13 25 -12 25 -28 9z"/>
<path d="M6145 21050 c-3 -5 -1 -10 4 -10 6 0 11 5 11 10 0 6 -2 10 -4 10 -3
0 -8 -4 -11 -10z"/>
<path d="M6098 21043 c7 -3 16 -2 19 1 4 3 -2 6 -13 5 -11 0 -14 -3 -6 -6z"/>
<path d="M6163 21025 c-9 -25 2 -27 22 -5 17 18 17 20 1 20 -9 0 -19 -7 -23
-15z"/>
<path d="M4640 21020 c0 -8 -9 -10 -27 -6 -28 7 -28 7 -6 -8 12 -9 28 -13 37
-10 18 7 21 20 6 29 -5 3 -10 1 -10 -5z"/>
<path d="M3118 21003 c-10 -2 -18 -9 -18 -15 0 -5 7 -7 16 -4 12 4 15 2 10 -9
-4 -12 -2 -13 13 -6 10 6 23 17 31 25 11 14 9 16 -11 15 -13 -1 -32 -3 -41 -6z"/>
<path d="M6877 21003 c-10 -9 -9 -23 2 -23 5 0 11 7 15 15 5 15 -5 20 -17 8z"/>
<path d="M3810 20990 c0 -5 5 -10 10 -10 6 0 10 5 10 10 0 6 -4 10 -10 10 -5
0 -10 -4 -10 -10z"/>
<path d="M2875 20980 c-3 -5 1 -10 10 -10 9 0 13 5 10 10 -3 6 -8 10 -10 10
-2 0 -7 -4 -10 -10z"/>
<path d="M2736 20944 c-10 -25 -7 -34 9 -34 8 0 15 7 15 15 0 8 5 15 11 15 5
0 7 5 4 10 -9 15 -32 12 -39 -6z"/>
<path d="M4568 20943 c7 -3 16 -2 19 1 4 3 -2 6 -13 5 -11 0 -14 -3 -6 -6z"/>
<path d="M6835 20941 c-4 -8 4 -24 21 -42 26 -27 33 -29 103 -29 83 1 111 13
111 49 0 12 -4 19 -10 16 -5 -3 -10 -14 -10 -23 0 -20 -43 -23 -77 -4 -29 16
-50 15 -57 -3 -5 -15 -36 -21 -36 -7 0 4 -9 18 -19 31 -13 17 -20 20 -26 12z"/>
<path d="M4000 20929 c0 -6 11 -20 25 -31 29 -22 32 -44 10 -69 -15 -15 -14
-17 13 -21 34 -5 72 6 72 21 0 5 -4 21 -10 35 -7 20 -16 26 -40 26 -23 0 -30
5 -30 19 0 10 -7 22 -16 25 -21 8 -24 8 -24 -5z"/>
<path d="M4210 20922 c0 -7 -9 -12 -19 -12 -19 0 -25 -23 -7 -27 5 -1 13 -7
17 -15 12 -18 29 7 23 35 -4 23 -14 36 -14 19z"/>
<path d="M6337 20923 c-4 -3 -7 -9 -7 -13 0 -9 51 -32 58 -26 3 3 -3 8 -12 12
-9 3 -16 12 -16 20 0 15 -12 19 -23 7z"/>
<path d="M4642 20854 c-2 -24 2 -34 12 -34 20 0 26 12 20 38 -10 35 -30 33
-32 -4z"/>
<path d="M4126 20801 c-4 -7 -5 -15 -2 -18 9 -9 19 4 14 18 -4 11 -6 11 -12 0z"/>
<path d="M5701 20784 c0 -11 3 -14 6 -6 3 7 2 16 -1 19 -3 4 -6 -2 -5 -13z"/>
<path d="M6152 20770 c0 -19 2 -27 5 -17 2 9 2 25 0 35 -3 9 -5 1 -5 -18z"/>
<path d="M6409 20783 c0 -5 -2 -20 -4 -35 -2 -16 0 -28 5 -28 8 0 20 34 20 58
0 13 -20 17 -21 5z"/>
<path d="M7000 20750 c-11 -7 -2 -10 33 -10 30 0 46 4 42 10 -8 13 -55 13 -75
0z"/>
<path d="M4863 20733 c-20 -8 7 -41 29 -35 10 2 18 6 18 9 0 5 -27 33 -32 32
-2 0 -8 -3 -15 -6z"/>
<path d="M6314 20732 c4 -7 2 -19 -4 -27 -9 -11 -9 -17 1 -28 11 -12 15 -10
26 11 8 14 12 26 11 26 -2 1 -12 8 -22 16 -14 10 -17 11 -12 2z"/>
<path d="M4302 20704 c-25 -17 -29 -49 -7 -58 21 -8 55 24 55 51 0 27 -17 29
-48 7z"/>
<path d="M6182 20711 c-10 -6 -8 -10 10 -14 12 -4 32 -7 43 -7 20 1 20 1 1 15
-22 17 -35 18 -54 6z"/>
<path d="M6877 20713 c-10 -9 -8 -45 2 -62 7 -11 12 -11 31 2 12 8 30 13 39
10 13 -4 13 -3 -1 7 -10 6 -18 20 -18 30 0 14 -7 20 -23 20 -13 0 -27 -3 -30
-7z"/>
<path d="M6370 20700 c-8 -5 -10 -10 -5 -10 6 0 17 5 25 10 8 5 11 10 5 10 -5
0 -17 -5 -25 -10z"/>
<path d="M4088 20680 c-38 -22 -77 -120 -48 -120 6 0 9 3 8 8 -1 4 3 22 10 40
9 27 15 32 32 27 17 -5 20 -2 20 24 0 17 -1 31 -2 31 -2 0 -11 -5 -20 -10z"/>
<path d="M5501 20660 c-1 -24 13 -40 28 -31 9 6 10 11 2 15 -6 4 -11 4 -12 -1
0 -4 -4 1 -9 12 -6 13 -9 15 -9 5z"/>
<path d="M3570 20656 c0 -2 7 -6 15 -10 8 -3 15 -1 15 4 0 6 -7 10 -15 10 -8
0 -15 -2 -15 -4z"/>
<path d="M5732 20632 c-5 -16 -17 -36 -27 -46 -10 -9 -15 -20 -11 -23 11 -11
56 47 56 73 0 32 -6 30 -18 -4z"/>
<path d="M7250 20646 c0 -9 5 -16 10 -16 6 0 10 4 10 9 0 6 -4 13 -10 16 -5 3
-10 -1 -10 -9z"/>
<path d="M3528 20643 c7 -3 16 -2 19 1 4 3 -2 6 -13 5 -11 0 -14 -3 -6 -6z"/>
<path d="M6540 20626 c0 -8 -11 -28 -25 -44 -14 -17 -25 -32 -25 -36 0 -3 -13
-19 -30 -36 -30 -31 -45 -85 -17 -61 8 6 17 8 20 4 4 -3 7 7 7 23 0 22 3 26
10 14 8 -12 10 -9 10 11 0 21 6 28 26 33 45 12 60 36 56 89 -2 20 -32 23 -32
3z"/>
<path d="M3440 20609 c0 -5 5 -7 10 -4 6 3 10 8 10 11 0 2 -4 4 -10 4 -5 0
-10 -5 -10 -11z"/>
<path d="M7260 20586 c0 -13 -6 -26 -12 -29 -7 -2 -10 -8 -6 -12 4 -4 14 -2
23 5 17 14 21 60 5 60 -5 0 -10 -11 -10 -24z"/>
<path d="M3760 20591 c0 -15 28 -33 34 -22 4 6 13 8 21 4 8 -3 15 -1 15 5 0 5
-10 12 -22 16 -32 8 -48 7 -48 -3z"/>
<path d="M5735 20570 c-3 -5 -1 -10 4 -10 6 0 11 5 11 10 0 6 -2 10 -4 10 -3
0 -8 -4 -11 -10z"/>
<path d="M4900 20522 c0 -32 45 -72 79 -72 18 0 19 3 10 23 -6 12 -28 34 -50
49 l-39 28 0 -28z"/>
<path d="M7180 20510 c0 -5 4 -10 9 -10 6 0 13 5 16 10 3 6 -1 10 -9 10 -9 0
-16 -4 -16 -10z"/>
<path d="M5728 20488 c-23 -28 -25 -66 -3 -48 8 6 18 10 22 7 4 -3 8 10 9 29
1 40 -5 42 -28 12z"/>
<path d="M4303 20489 c-14 -14 -17 -55 -5 -63 4 -2 14 -1 22 4 10 6 11 16 4
40 -7 25 -11 29 -21 19z"/>
<path d="M7130 20475 c0 -17 -6 -25 -17 -25 -13 0 -14 3 -5 12 7 7 12 16 12
20 0 12 -73 -2 -82 -16 -13 -18 -9 -24 12 -19 20 5 80 -17 80 -29 0 -5 4 -8 8
-8 5 0 9 20 9 45 0 25 -4 45 -9 45 -4 0 -8 -11 -8 -25z"/>
<path d="M5778 20453 c7 -3 16 -2 19 1 4 3 -2 6 -13 5 -11 0 -14 -3 -6 -6z"/>
<path d="M3645 20440 c-3 -5 1 -10 9 -10 9 0 16 5 16 10 0 6 -4 10 -9 10 -6 0
-13 -4 -16 -10z"/>
<path d="M6540 20432 c0 -4 5 -13 12 -20 8 -8 8 -15 0 -25 -12 -14 -7 -27 9
-27 5 0 6 7 3 15 -4 11 1 15 17 16 23 0 23 1 4 9 -17 7 -17 9 -2 9 24 1 21 18
-5 25 -31 8 -38 7 -38 -2z"/>
<path d="M5830 20415 c7 -8 20 -15 29 -15 13 1 13 3 -3 15 -26 19 -42 19 -26
0z"/>
<path d="M7088 20403 c7 -3 16 -2 19 1 4 3 -2 6 -13 5 -11 0 -14 -3 -6 -6z"/>
<path d="M7179 20397 c6 -6 32 -16 57 -23 36 -9 44 -9 40 2 -3 7 3 15 12 17 9
3 -1 6 -23 7 -22 1 -53 4 -69 6 -22 2 -26 0 -17 -9z"/>
<path d="M4316 20385 c4 -8 10 -12 15 -9 14 8 10 24 -6 24 -9 0 -12 -6 -9 -15z"/>
<path d="M4521 20364 c0 -11 3 -14 6 -6 3 7 2 16 -1 19 -3 4 -6 -2 -5 -13z"/>
<path d="M6495 20371 c-67 -20 -114 -71 -64 -71 15 0 19 5 15 15 -4 12 0 14
17 10 26 -6 70 25 59 41 -4 6 -16 8 -27 5z"/>
<path d="M7320 20376 c0 -9 30 -14 35 -6 4 6 -3 10 -14 10 -12 0 -21 -2 -21
-4z"/>
<path d="M4400 20346 c0 -6 14 -11 32 -11 25 0 33 -5 39 -25 5 -18 7 -20 8 -6
1 12 6 16 16 12 17 -6 21 19 4 30 -20 12 -99 12 -99 0z"/>
<path d="M5024 20353 c-49 -9 -74 -78 -29 -78 11 0 19 6 18 13 -2 6 1 12 6 12
5 0 25 7 46 15 30 13 35 18 25 30 -12 15 -25 16 -66 8z"/>
<path d="M5780 20340 c0 -11 2 -20 4 -20 2 0 6 9 9 20 3 11 1 20 -4 20 -5 0
-9 -9 -9 -20z"/>
<path d="M3910 20294 c0 -7 -10 -14 -22 -17 -13 -4 -32 -13 -43 -21 -18 -13
-15 -13 29 -5 59 11 61 12 47 36 -6 10 -11 13 -11 7z"/>
<path d="M5899 20229 c-12 -24 -1 -73 23 -99 17 -18 27 -20 62 -15 22 4 43 9
45 11 7 6 -21 34 -34 34 -24 0 -39 29 -27 54 10 22 8 24 -24 28 -26 3 -38 0
-45 -13z"/>
<path d="M5171 20221 c-8 -6 -9 -11 -3 -15 6 -3 14 -1 17 5 9 14 2 20 -14 10z"/>
<path d="M3720 20196 c0 -22 17 -28 24 -10 9 22 8 24 -9 24 -8 0 -15 -6 -15
-14z"/>
<path d="M5190 20181 c0 -5 5 -13 10 -16 6 -3 10 -2 10 4 0 5 -4 13 -10 16 -5
3 -10 2 -10 -4z"/>
<path d="M3695 20170 c-3 -5 -1 -10 4 -10 6 0 11 5 11 10 0 6 -2 10 -4 10 -3
0 -8 -4 -11 -10z"/>
<path d="M4436 20128 c-36 -29 -37 -32 -20 -45 34 -25 84 -7 84 30 0 9 6 18
13 20 9 4 8 8 -3 16 -23 16 -32 14 -74 -21z"/>
<path d="M3930 20109 c-30 -3 -44 -6 -29 -7 14 -1 31 -8 37 -14 10 -10 17 -10
33 0 11 7 23 10 28 8 4 -3 16 0 26 8 16 11 15 13 -11 12 -16 -1 -54 -4 -84 -7z"/>
<path d="M3857 20075 c-20 -15 -35 -75 -18 -75 6 0 11 8 11 17 0 10 12 27 27
38 20 17 23 23 12 27 -8 3 -23 0 -32 -7z"/>
<path d="M5157 20083 c-12 -11 -8 -33 6 -33 8 0 24 9 37 20 l23 20 -30 0 c-16
0 -33 -3 -36 -7z"/>
<path d="M4603 20025 c-3 -9 -3 -18 0 -21 9 -9 27 6 27 22 0 19 -19 18 -27 -1z"/>
<path d="M4180 19986 c18 -23 -53 -34 -75 -12 -12 12 -21 13 -35 6 -10 -6 -30
-10 -43 -10 -14 0 -30 -7 -37 -15 -10 -13 -9 -15 10 -15 17 0 21 -4 17 -20 -3
-11 -1 -23 5 -26 16 -10 58 18 58 38 0 11 5 16 11 13 13 -8 88 2 108 15 12 7
12 11 2 24 -8 9 -18 16 -23 16 -6 0 -5 -6 2 -14z"/>
<path d="M4647 19873 c-8 -8 -9 -43 -1 -43 10 0 34 28 34 39 0 12 -23 15 -33
4z"/>
</g>
</svg>
