<?xml version="1.0" standalone="no"?>
<!DOCTYPE svg PUBLIC "-//W3C//DTD SVG 20010904//EN"
 "http://www.w3.org/TR/2001/REC-SVG-20010904/DTD/svg10.dtd">
<svg version="1.0" xmlns="http://www.w3.org/2000/svg"
 width="1370.000000pt" height="806.000000pt" viewBox="0 0 1370.000000 806.000000"
 preserveAspectRatio="xMidYMid meet">
<metadata>
Created by potrace 1.16, written by Peter Selinger 2001-2019
</metadata>
<g transform="translate(0.000000,806.000000) scale(0.100000,-0.100000)"
fill="#000000" stroke="none">
<path d="M8466 7715 c-11 -8 -27 -15 -36 -15 -23 0 -82 -30 -98 -49 -8 -11
-10 -31 -6 -60 4 -31 2 -46 -8 -52 -28 -18 -230 1 -266 25 -17 11 -51 -20 -37
-33 6 -4 44 -21 85 -36 109 -40 116 -44 180 -105 63 -60 98 -116 82 -132 -11
-11 -87 9 -102 27 -6 7 -11 29 -12 50 l-1 37 -18 -23 c-21 -28 -16 -61 13 -99
28 -35 57 -49 103 -49 51 0 75 18 75 57 0 37 -13 56 -97 138 -35 34 -63 64
-63 67 0 4 39 8 88 9 l87 3 3 37 c2 29 -3 43 -29 73 -36 41 -32 50 31 61 54 9
80 25 80 50 0 12 -7 25 -16 28 -19 7 -15 8 -38 -9z"/>
<path d="M10604 7536 l7 -34 -66 -7 c-36 -4 -83 -5 -104 -1 -30 4 -42 2 -55
-13 -28 -30 -3 -59 57 -67 26 -4 50 -11 54 -16 10 -17 -20 -29 -62 -23 -22 3
-46 1 -54 -4 -16 -10 -6 -32 12 -25 7 2 30 -2 50 -11 96 -40 170 4 121 73 -8
12 -12 22 -7 22 4 1 31 3 60 6 l52 6 53 -56 c68 -71 119 -91 185 -73 111 29
177 175 107 235 -32 28 -66 26 -169 -6 -33 -11 -83 -22 -112 -26 -48 -6 -54
-4 -86 24 -44 38 -51 38 -43 -4z"/>
<path d="M6886 7350 c-27 -21 -52 -44 -57 -51 -15 -24 -10 -65 11 -92 l20 -25
-22 -14 c-33 -22 -13 -38 47 -38 46 0 56 4 66 22 10 19 8 24 -12 40 -72 54
-79 89 -25 112 42 17 63 51 45 72 -15 19 -16 18 -73 -26z"/>
<path d="M11313 7358 c-11 -13 -30 -38 -42 -55 -12 -18 -26 -33 -31 -33 -5 0
-19 18 -30 40 -26 51 -45 53 -37 4 7 -41 31 -82 53 -91 24 -9 59 15 89 63 15
24 31 44 34 44 24 -1 73 -80 70 -114 -3 -38 1 -46 20 -46 57 0 31 137 -35 189
-35 27 -65 27 -91 -1z"/>
<path d="M10365 7301 c-3 -6 -2 -27 3 -48 14 -66 8 -73 -59 -73 -38 0 -69 6
-84 16 -30 20 -55 12 -55 -16 0 -28 67 -57 140 -62 53 -3 54 -4 55 -33 0 -44
39 -48 63 -6 13 24 26 32 59 37 24 3 54 4 67 0 29 -7 50 15 41 44 -6 18 -15
20 -85 20 l-78 0 -7 33 c-14 69 -44 113 -60 88z"/>
<path d="M7351 7258 c-31 -32 -34 -54 -16 -92 19 -39 40 -49 100 -50 l40 -1 1
-300 c1 -245 -2 -306 -14 -333 -10 -22 -11 -37 -5 -43 16 -16 39 0 62 44 18
38 20 53 15 147 -6 114 -7 243 -3 385 2 66 -3 110 -17 164 -18 66 -24 75 -53
87 -48 20 -87 17 -110 -8z"/>
<path d="M11196 7107 l-7 -43 -70 0 c-52 1 -72 -3 -79 -14 -18 -29 -10 -35 49
-37 83 -2 101 -14 101 -66 0 -90 39 -87 48 3 4 47 7 51 26 45 11 -4 40 -10 64
-12 38 -5 42 -3 42 16 0 23 -28 38 -88 48 -37 6 -44 14 -51 62 -9 50 -27 49
-35 -2z"/>
<path d="M8230 7085 c0 -8 6 -15 13 -15 20 0 86 -59 103 -92 20 -39 8 -48 -49
-37 -63 12 -77 11 -71 -6 4 -8 10 -15 16 -15 5 0 28 -9 50 -20 58 -28 92 -26
113 6 16 25 16 28 -12 82 -18 36 -43 66 -68 84 -44 30 -95 37 -95 13z"/>
<path d="M13238 7043 l-3 -58 -75 -3 c-41 -2 -78 -6 -83 -11 -18 -18 33 -43
98 -48 l65 -6 0 -53 c0 -58 9 -70 39 -54 15 8 21 23 23 63 3 52 3 52 34 49 33
-3 60 18 51 42 -3 7 -23 17 -44 21 -41 7 -52 18 -53 50 -1 19 -32 65 -44 65
-3 0 -6 -26 -8 -57z"/>
<path d="M9061 7020 c-2 -75 -18 -118 -52 -136 l-30 -15 6 33 c9 48 -48 142
-88 146 -32 4 -55 -12 -68 -46 -7 -19 -5 -33 11 -59 11 -19 20 -40 20 -46 0
-18 41 -61 71 -74 41 -18 103 -5 135 28 37 38 43 116 15 174 l-19 40 -1 -45z"/>
<path d="M6928 6862 c-1 -4 -2 -34 -2 -67 l-1 -60 -40 -5 c-53 -7 -57 -31 -10
-58 19 -12 40 -33 45 -47 15 -38 13 -85 -4 -85 -19 0 -64 37 -70 58 -3 9 -15
23 -26 30 -33 21 -37 -12 -6 -59 29 -44 79 -79 112 -79 51 0 69 72 38 150 -15
37 -15 42 0 65 18 28 21 79 5 123 -10 28 -37 51 -41 34z"/>
<path d="M8324 6809 c-4 -7 -29 -10 -66 -7 -38 3 -62 0 -69 -8 -14 -17 6 -63
48 -106 39 -40 39 -68 0 -68 -28 0 -47 -17 -47 -42 0 -24 44 -94 67 -107 17
-9 17 -11 -2 -25 -20 -16 -20 -16 -1 -31 30 -23 103 -48 121 -42 23 9 18 35
-12 60 -72 59 -125 129 -109 144 3 3 25 -2 49 -11 56 -21 84 -20 92 3 6 20 -3
51 -15 51 -12 0 -130 120 -130 131 0 11 64 2 91 -12 21 -11 43 13 35 38 -8 25
-43 46 -52 32z"/>
<path d="M9839 6778 c-1 -13 -2 -60 -3 -105 -1 -55 -6 -86 -15 -95 -11 -10
-14 -10 -18 0 -3 7 -10 18 -17 25 -6 6 -19 24 -29 39 -9 15 -28 35 -42 44 -23
15 -26 14 -55 -6 -37 -27 -46 -59 -26 -98 19 -37 92 -101 125 -109 32 -8 89
23 107 60 19 36 21 125 4 200 -14 61 -29 84 -31 45z"/>
<path d="M8853 6714 c-4 -10 15 -34 61 -76 37 -33 64 -63 61 -67 -3 -3 -23 -4
-43 -2 -38 3 -38 -4 -1 -23 39 -20 33 -27 -45 -61 -26 -12 -35 -20 -28 -27 11
-11 129 -13 162 -3 22 7 50 53 50 81 0 21 -176 194 -197 194 -7 0 -16 -7 -20
-16z"/>
<path d="M11354 6703 c25 -106 19 -153 -18 -153 -39 0 -89 42 -116 97 -39 81
-64 67 -39 -22 15 -52 41 -85 92 -112 57 -31 83 -29 122 10 30 30 33 38 28 77
-6 46 -48 130 -65 130 -6 0 -8 -11 -4 -27z"/>
<path d="M10580 6694 c-15 -9 -40 -13 -63 -10 -32 4 -40 1 -46 -17 -10 -26 14
-80 59 -131 48 -54 38 -78 -27 -68 -47 7 -44 -23 8 -73 74 -73 79 -79 79 -86
0 -20 -25 -18 -68 3 -51 26 -72 26 -72 1 0 -9 -8 -21 -17 -28 -14 -11 -15 -16
-3 -44 13 -33 74 -96 113 -118 68 -38 114 5 83 76 -18 38 -18 40 4 69 l22 30
-31 45 c-36 53 -38 63 -12 72 37 12 35 43 -6 103 -68 101 -80 137 -35 113 23
-12 62 -14 86 -5 27 11 19 52 -14 69 -16 8 -30 15 -32 14 -2 -1 -14 -7 -28
-15z"/>
<path d="M13252 6658 c-24 -24 -10 -72 34 -117 29 -29 30 -37 4 -44 -11 -3
-20 -12 -20 -21 0 -19 46 -28 115 -24 46 3 50 5 50 28 0 20 -7 27 -35 35 -37
11 -110 74 -110 95 0 9 10 11 38 5 72 -14 97 -12 100 11 2 17 -5 22 -48 32
-66 15 -113 15 -128 0z"/>
<path d="M9005 6411 c-3 -5 6 -22 20 -37 32 -34 32 -51 0 -66 -19 -8 -35 -8
-64 0 -53 16 -61 15 -61 -8 0 -11 -6 -29 -12 -41 -12 -18 -8 -24 31 -61 51
-46 86 -62 118 -53 27 6 39 45 24 73 -17 31 -13 52 8 52 37 0 42 64 9 102 -29
32 -65 51 -73 39z"/>
<path d="M9847 6373 c-4 -3 -7 -16 -7 -29 0 -14 -17 -37 -45 -62 -53 -47 -56
-70 -15 -112 17 -17 30 -34 30 -39 0 -4 -25 -13 -55 -20 -30 -7 -57 -17 -60
-22 -4 -5 -14 -9 -25 -9 -29 0 -41 -60 -19 -101 9 -17 5 -22 -25 -34 -20 -8
-47 -15 -61 -15 -14 0 -25 -4 -25 -9 0 -18 27 -29 87 -36 58 -6 62 -9 68 -36
5 -23 12 -29 32 -29 23 0 25 3 19 34 -7 38 5 46 81 46 54 0 73 8 73 31 0 21
-4 22 -107 19 -71 -2 -72 -1 -88 30 -9 17 -15 41 -13 53 3 19 9 21 74 21 56 1
77 5 93 20 30 28 26 59 -14 102 -19 20 -35 43 -35 50 0 7 15 21 33 30 40 21
47 31 47 70 0 39 -25 66 -43 47z"/>
<path d="M13080 6312 c-28 -16 -36 -26 -38 -54 -4 -50 38 -84 115 -93 47 -6
65 -14 93 -41 93 -88 230 -98 230 -16 0 21 -40 76 -72 100 -12 9 -18 27 -18
53 0 28 -4 39 -15 39 -8 0 -15 -3 -15 -7 0 -5 -4 -14 -8 -21 -6 -9 -22 -5 -68
18 -79 39 -157 48 -204 22z"/>
<path d="M11357 6313 c-4 -3 -4 -29 -1 -57 6 -63 -6 -87 -36 -68 -25 15 -57
16 -62 1 -2 -7 -19 -17 -37 -23 -48 -16 -57 -35 -42 -88 9 -29 30 -60 67 -95
65 -64 95 -69 124 -20 23 37 25 64 9 117 -10 33 -9 44 10 83 19 40 21 50 10
91 -11 45 -30 72 -42 59z"/>
<path d="M11009 6308 c-1 -1 -6 -36 -13 -77 -6 -41 -16 -76 -22 -78 -12 -4
-34 39 -34 66 0 25 -48 71 -75 71 -12 0 -32 -11 -44 -24 -21 -23 -22 -27 -10
-61 8 -20 42 -68 77 -106 71 -76 104 -87 142 -49 39 39 53 112 26 127 -10 5
-16 29 -18 67 -2 36 -8 61 -15 64 -7 2 -14 2 -14 0z"/>
<path d="M6858 6252 c-21 -21 -25 -31 -17 -44 15 -27 -12 -77 -74 -135 -31
-29 -59 -53 -64 -53 -4 0 -22 14 -38 32 -35 36 -128 98 -148 98 -31 0 -83 -30
-104 -59 -18 -24 -23 -43 -23 -96 0 -37 4 -65 10 -65 6 0 10 -9 10 -20 0 -11
13 -34 29 -52 27 -30 34 -33 86 -32 58 2 95 15 127 47 23 22 31 21 109 -4 77
-25 161 -71 211 -115 30 -26 42 -32 59 -25 24 8 41 42 31 57 -14 20 -149 113
-202 139 -30 15 -57 29 -59 31 -3 3 9 19 26 37 17 17 39 48 49 67 10 19 24 42
31 50 13 17 43 123 43 152 0 29 -59 23 -92 -10z m-287 -211 c55 -52 57 -65 18
-115 -25 -32 -66 -34 -97 -6 -38 36 -27 170 14 170 8 0 38 -22 65 -49z"/>
<path d="M7375 6271 c-4 -7 -15 -9 -26 -6 -12 4 -21 1 -25 -10 -9 -23 -4 -25
62 -31 33 -3 73 -9 89 -13 17 -4 55 -5 85 -2 50 5 55 8 55 30 0 24 -3 25 -70
26 -38 1 -91 5 -116 9 -32 5 -49 4 -54 -3z"/>
<path d="M8190 6085 c-12 -15 -5 -55 10 -55 5 0 13 8 19 18 9 16 11 16 27 1
19 -20 31 -103 16 -113 -5 -3 -24 10 -41 29 -36 42 -41 43 -41 9 0 -29 32 -79
60 -94 58 -31 103 76 64 152 -31 60 -86 86 -114 53z"/>
<path d="M7443 6052 c-33 -3 -59 -25 -49 -40 3 -5 25 -7 48 -5 36 4 47 1 72
-22 31 -29 57 -90 49 -113 -3 -7 -16 -18 -29 -23 -31 -11 -31 -37 1 -45 31 -8
51 8 70 53 12 28 12 39 -1 75 -29 82 -89 128 -161 120z"/>
<path d="M9017 6006 c-3 -8 -20 -14 -40 -14 -67 0 -117 -28 -117 -65 0 -17 -5
-18 -46 -14 -57 8 -113 -15 -114 -45 0 -5 24 -8 53 -8 58 0 94 -14 64 -26 -34
-13 -19 -34 26 -36 23 -1 63 -3 89 -4 53 -2 74 10 83 47 6 23 1 29 -41 50 -26
13 -46 29 -43 34 2 6 31 10 64 10 69 0 85 7 85 39 0 39 -50 65 -63 32z"/>
<path d="M10578 5974 c-4 -3 -32 -5 -63 -5 -83 0 -87 -36 -16 -127 42 -53 40
-62 -14 -62 -14 0 -29 -9 -36 -21 -9 -17 -6 -27 15 -57 23 -32 24 -38 11 -48
-22 -16 -19 -28 13 -46 39 -22 101 -32 118 -17 23 19 17 57 -13 76 -16 10 -39
29 -52 42 l-24 23 42 -7 c74 -12 93 27 39 80 -38 37 -90 106 -84 112 2 3 24
-2 48 -10 51 -18 78 -8 78 28 0 30 -44 58 -62 39z"/>
<path d="M13326 5766 c-15 -24 -16 -24 -62 -10 -56 17 -161 18 -201 3 -46 -17
-83 -59 -83 -94 0 -32 16 -53 58 -74 29 -15 164 -16 192 -1 18 10 27 6 63 -23
23 -18 61 -45 84 -58 40 -23 42 -23 77 -6 32 15 36 21 36 53 0 32 -8 45 -65
99 -57 55 -64 66 -57 87 18 48 -14 66 -42 24z m-98 -33 c55 -20 52 -38 -12
-80 -62 -42 -114 -44 -168 -7 -21 15 -38 31 -38 37 0 18 48 55 87 65 42 10 67
8 131 -15z"/>
<path d="M7456 5725 c-36 -39 -41 -72 -15 -109 42 -61 107 -89 144 -62 39 28
15 131 -41 175 -35 28 -60 26 -88 -4z"/>
<path d="M8236 5678 c-9 -12 -16 -28 -16 -35 0 -20 -22 -62 -36 -67 -7 -3 -24
5 -38 17 -19 17 -26 32 -26 60 0 38 -13 49 -24 20 -9 -24 14 -109 36 -133 36
-39 85 -22 113 39 26 60 45 54 45 -14 0 -42 4 -57 16 -62 25 -9 35 17 29 74
-11 107 -60 156 -99 101z"/>
<path d="M7350 5505 c-24 -29 10 -82 104 -163 52 -45 78 -51 114 -26 19 13 22
24 22 77 0 44 -5 70 -17 87 -18 25 -18 25 -23 -45 -4 -54 -9 -71 -21 -73 -21
-4 -149 108 -149 130 0 24 -16 30 -30 13z"/>
<path d="M12665 5478 c-18 -23 -20 -24 -69 -10 -92 24 -196 0 -211 -49 -4 -11
-4 -33 0 -49 9 -42 54 -63 132 -64 36 -1 63 -5 63 -11 0 -6 12 -25 28 -43 22
-26 37 -34 77 -38 73 -9 131 9 143 44 15 43 -7 81 -72 131 -43 32 -57 48 -53
62 3 10 -1 26 -7 35 -12 16 -14 15 -31 -8z"/>
<path d="M10477 5474 c-15 -16 -6 -30 29 -43 21 -8 39 -22 45 -38 16 -42 -8
-57 -42 -27 -22 20 -59 10 -59 -16 0 -20 49 -54 93 -65 70 -18 93 82 35 148
-32 36 -84 57 -101 41z"/>
<path d="M9891 5458 c-7 -7 -17 -21 -24 -31 -12 -18 -15 -17 -72 5 -43 16 -81
23 -135 23 -66 0 -80 -3 -107 -25 -40 -31 -41 -50 -5 -87 21 -23 44 -33 102
-46 41 -8 82 -15 90 -15 17 1 70 -30 70 -41 0 -4 20 -22 45 -39 76 -53 145
-37 145 34 0 31 -16 61 -58 106 -24 26 -24 28 -8 53 23 34 17 69 -11 73 -11 2
-26 -3 -32 -10z"/>
<path d="M9028 5431 c-13 -19 -20 -21 -36 -12 -28 15 -96 14 -158 -3 -58 -15
-119 -70 -129 -117 -19 -85 129 -132 241 -77 27 13 33 12 86 -19 63 -37 131
-45 142 -17 19 48 -17 123 -86 182 -16 13 -31 38 -36 55 l-8 31 -16 -23z m-53
-43 c30 -13 31 -25 5 -56 -16 -19 -23 -21 -39 -13 -11 6 -24 11 -30 11 -15 0
-14 -37 0 -46 16 -9 -28 -33 -62 -34 -37 0 -86 19 -93 36 -11 28 21 84 56 99
40 17 128 19 163 3z"/>
<path d="M11065 5400 c-11 -18 -8 -86 6 -111 29 -50 52 -69 85 -69 32 0 47 12
97 84 23 33 35 33 39 -1 4 -39 40 -43 56 -8 28 61 -1 111 -61 107 -33 -3 -48
-16 -93 -85 -24 -37 -26 -38 -44 -22 -11 10 -17 21 -15 25 4 7 -50 90 -59 90
-3 0 -8 -5 -11 -10z"/>
<path d="M6687 5290 c-31 -34 -53 -38 -62 -11 -5 17 -33 36 -41 28 -7 -7 19
-83 34 -99 23 -27 47 -22 76 17 34 44 53 44 64 3 8 -31 4 -67 -13 -130 -9 -35
7 -37 29 -3 43 65 45 167 4 205 -31 28 -60 25 -91 -10z"/>
<path d="M10560 5200 c-6 -12 -29 -25 -57 -33 -62 -16 -73 -44 -38 -103 l26
-44 -48 7 c-26 3 -56 10 -65 14 -27 14 -65 10 -72 -8 -4 -9 -3 -20 2 -25 11
-11 194 -58 227 -58 21 0 55 32 55 51 0 4 -20 28 -46 54 -25 26 -43 52 -41 58
2 7 19 13 37 14 51 2 80 54 46 82 -12 10 -17 8 -26 -9z"/>
<path d="M13166 5128 c-25 -31 -33 -72 -18 -94 12 -18 113 -84 129 -84 48 0
102 61 103 115 0 93 -33 119 -44 35 -4 -27 -11 -50 -16 -50 -6 0 -10 4 -10 8
0 15 -88 102 -103 102 -8 0 -26 -14 -41 -32z"/>
<path d="M8370 5065 c0 -122 -33 -177 -100 -167 -26 4 -30 8 -30 37 0 71 -47
143 -81 124 -24 -12 -26 -81 -4 -103 8 -8 15 -21 15 -29 0 -31 13 -48 51 -67
49 -25 85 -25 127 0 34 21 58 63 63 115 4 36 -20 163 -32 171 -5 3 -9 -34 -9
-81z"/>
<path d="M12675 5141 c-3 -5 -19 -12 -35 -16 -17 -4 -38 -18 -47 -31 -14 -23
-14 -26 1 -43 22 -25 20 -41 -6 -41 -13 0 -30 -5 -38 -10 -12 -7 -7 -12 23
-25 65 -27 95 -29 117 -10 30 27 26 60 -10 75 -35 15 -40 40 -7 40 29 0 47 18
47 47 0 16 -6 23 -19 23 -11 0 -22 -4 -26 -9z"/>
<path d="M11094 5085 c-8 -19 37 -111 77 -157 18 -21 29 -41 25 -45 -4 -5 -33
-8 -64 -8 -47 0 -57 -3 -60 -19 -7 -34 -4 -35 200 -52 65 -5 92 -3 103 6 26
21 18 49 -19 64 -43 18 -47 26 -35 69 13 47 -14 149 -37 140 -9 -3 -14 -20
-14 -53 0 -34 -5 -52 -20 -65 -11 -10 -22 -16 -23 -14 -47 57 -87 114 -92 129
-7 23 -33 27 -41 5z"/>
<path d="M6044 5067 c-26 -14 -32 -25 -45 -74 -6 -24 -13 -43 -16 -43 -2 0
-16 14 -30 30 -28 34 -63 40 -63 12 0 -11 9 -27 20 -37 11 -10 20 -23 20 -30
0 -17 33 -45 53 -45 18 0 57 50 57 73 0 8 8 25 19 38 l18 23 19 -29 c11 -17
19 -47 19 -70 0 -34 3 -40 22 -43 17 -3 26 4 34 25 17 44 4 92 -37 134 -41 42
-63 51 -90 36z"/>
<path d="M9737 5042 c-36 -40 -11 -109 59 -170 54 -46 93 -54 144 -27 32 16
60 61 60 95 0 34 -28 90 -44 90 -13 0 -16 -12 -16 -54 0 -79 -40 -105 -55 -35
-9 38 -84 119 -112 119 -11 0 -27 -8 -36 -18z"/>
<path d="M9088 5000 c4 -30 4 -31 -34 -26 -58 8 -156 20 -179 22 -26 2 -61
-21 -45 -31 64 -40 294 -62 307 -29 9 23 -8 64 -33 80 -19 13 -20 13 -16 -16z"/>
<path d="M7575 4967 c-2 -7 -9 -30 -16 -51 -17 -58 -67 -123 -119 -155 -59
-38 -149 -79 -187 -87 -28 -5 -30 -9 -29 -47 1 -37 4 -41 34 -49 63 -17 104
-118 72 -178 -14 -26 -30 -26 -30 0 0 28 -25 25 -50 -7 -48 -62 6 -114 72 -69
64 42 90 142 53 202 -26 41 -77 94 -91 94 -6 0 -17 7 -24 15 -11 13 -5 15 40
15 48 0 56 -4 92 -40 41 -40 78 -52 78 -25 0 8 -16 29 -35 46 -40 37 -44 49
-15 49 23 0 90 -30 90 -41 0 -13 33 -19 46 -8 19 15 18 34 -3 55 -17 17 -17
17 2 10 37 -16 60 -12 60 8 0 14 -10 22 -32 28 -43 11 -47 21 -22 62 20 34 22
35 65 29 36 -5 44 -3 44 10 0 9 -15 20 -36 27 -22 8 -34 17 -30 25 3 8 8 29
11 48 6 29 4 35 -15 40 -12 3 -23 0 -25 -6z"/>
<path d="M13102 4924 c-42 -29 -14 -94 41 -94 29 0 33 31 8 52 -22 17 -22 18
-3 18 11 0 27 -6 34 -12 7 -7 25 -19 40 -27 41 -21 98 -76 98 -95 0 -8 -14
-23 -31 -31 -26 -14 -29 -20 -24 -44 5 -26 3 -29 -26 -35 -17 -3 -46 -6 -64
-6 -39 0 -67 -26 -44 -41 19 -12 25 -11 39 6 11 13 15 13 41 0 37 -20 119 -19
147 1 25 17 28 42 8 69 -12 17 -12 23 0 47 8 15 14 34 14 42 0 49 -168 166
-239 166 -9 0 -27 -7 -39 -16z"/>
<path d="M12510 4805 c-5 -14 -16 -25 -24 -25 -7 0 -19 -7 -26 -15 -7 -8 -23
-15 -35 -15 -19 0 -35 -16 -35 -35 0 -18 84 -75 170 -116 58 -28 117 -57 132
-65 34 -18 48 -18 48 1 0 8 -6 15 -13 15 -24 0 -87 51 -87 70 0 10 -6 23 -13
27 -18 11 -47 54 -47 70 0 7 17 13 43 15 34 2 42 7 42 23 0 17 -8 21 -55 25
-48 4 -55 8 -58 28 -4 30 -30 28 -42 -3z"/>
<path d="M5893 4780 c-32 -19 -48 -52 -41 -86 9 -47 189 -128 233 -104 23 12
55 68 55 96 0 25 -29 73 -51 85 -34 18 -42 -2 -20 -51 20 -45 18 -70 -5 -70
-8 0 -14 10 -14 23 0 28 -85 127 -109 127 -9 0 -31 -9 -48 -20z"/>
<path d="M8937 4793 c-16 -15 -5 -23 31 -23 20 0 51 -9 69 -20 33 -20 73 -85
73 -118 0 -28 -34 -54 -66 -50 -48 5 -36 -25 14 -36 37 -8 45 -6 66 13 83 78
-21 241 -154 241 -15 0 -30 -3 -33 -7z"/>
<path d="M10075 4749 c-118 -38 -147 -43 -270 -44 l-130 -2 -3 -26 c-2 -18 3
-29 17 -37 14 -7 21 -21 21 -39 0 -38 23 -62 92 -100 64 -35 76 -37 102 -18
29 21 22 59 -17 102 -20 21 -34 42 -32 45 3 4 33 10 67 13 35 3 103 18 152 33
78 23 90 25 103 11 19 -18 3 -47 -39 -71 -15 -10 -28 -21 -28 -26 0 -5 -16 -4
-36 1 -60 17 -87 -29 -42 -71 36 -34 64 -35 106 -6 42 28 63 60 86 126 32 91
15 120 -67 119 -29 0 -65 -5 -82 -10z"/>
<path d="M8347 4744 c-4 -4 -39 -8 -78 -9 -67 -1 -88 -10 -89 -38 0 -5 24 -31
52 -57 45 -41 50 -50 35 -56 -10 -3 -36 -4 -57 -1 -51 7 -58 -6 -21 -32 41
-29 113 -29 141 1 11 12 20 26 20 32 0 5 -23 32 -51 58 -29 27 -49 51 -46 54
3 3 22 1 42 -5 47 -13 87 3 83 33 -3 20 -20 31 -31 20z"/>
<path d="M6773 4723 c-85 -6 -92 -40 -25 -115 21 -23 31 -43 26 -48 -5 -5 -53
-10 -106 -11 -68 -1 -101 -6 -109 -15 -19 -23 32 -34 152 -34 109 0 149 9 149
33 0 7 -25 38 -56 70 -72 75 -67 91 23 72 23 -5 56 20 50 39 -4 12 -28 14
-104 9z"/>
<path d="M11183 4632 c-44 -21 -42 -47 7 -97 22 -22 40 -43 40 -47 0 -5 -16
-8 -36 -8 -43 0 -42 -15 4 -46 37 -26 156 -41 178 -23 25 21 16 49 -19 64 -19
8 -39 21 -47 29 -7 9 -17 16 -22 16 -17 0 -78 52 -78 66 0 18 14 17 70 -2 55
-19 150 -21 161 -2 21 31 5 43 -58 45 -34 1 -71 7 -82 12 -27 15 -79 12 -118
-7z"/>
<path d="M11963 4512 c-33 -58 -72 -102 -87 -96 -7 3 -24 27 -37 54 -32 65
-53 67 -43 3 7 -52 53 -113 86 -113 21 0 98 66 98 84 0 7 11 23 24 35 l24 23
17 -25 c10 -15 15 -40 13 -64 -3 -33 0 -38 19 -41 45 -6 47 90 5 148 -14 18
-30 26 -58 28 -36 2 -41 0 -61 -36z"/>
<path d="M9400 4417 c0 -65 4 -107 12 -115 8 -8 9 -18 0 -36 -13 -30 -2 -36
64 -36 60 0 106 24 102 53 -2 18 -12 23 -56 30 -63 10 -74 26 -78 115 -2 59
-15 92 -35 92 -5 0 -9 -46 -9 -103z"/>
<path d="M8935 4475 c-32 -32 -32 -58 2 -85 26 -20 27 -23 10 -35 -23 -17 -7
-29 60 -45 113 -26 180 41 121 121 -51 69 -147 91 -193 44z"/>
<path d="M8151 4461 c-17 -16 -31 -39 -31 -50 0 -34 28 -91 44 -91 8 0 21 -8
28 -18 23 -31 68 -53 111 -55 36 -2 43 1 55 26 19 39 8 78 -39 137 -40 51 -83
80 -117 80 -11 0 -34 -13 -51 -29z m103 -31 c50 -45 88 -140 55 -140 -24 0
-99 42 -99 55 0 8 -6 15 -14 15 -29 0 -37 25 -21 64 19 44 34 45 79 6z"/>
<path d="M6058 4458 c-2 -17 -13 -24 -43 -30 -68 -14 -72 -45 -15 -99 l40 -39
-27 -6 c-16 -4 -34 -11 -40 -17 -19 -14 -16 -54 7 -77 11 -11 17 -26 14 -34
-7 -18 20 -33 75 -42 32 -5 42 -3 47 10 7 18 -18 61 -50 88 -22 19 -22 19 39
21 51 2 61 33 18 59 -16 9 -43 31 -62 48 -35 34 -31 50 15 50 43 0 58 44 26
73 -25 23 -40 21 -44 -5z"/>
<path d="M10350 4430 c-13 -9 -12 -12 5 -26 11 -8 31 -17 45 -20 44 -10 49
-12 66 -39 34 -53 13 -99 -58 -127 -32 -12 -38 -44 -10 -53 21 -6 42 -45 42
-76 0 -17 -5 -18 -39 -13 -30 5 -39 3 -44 -10 -4 -9 -13 -16 -21 -16 -19 0
-38 -34 -30 -53 7 -20 81 -71 121 -85 27 -9 36 -8 48 4 18 18 20 67 3 93 -9
15 -9 25 0 46 16 34 15 54 -3 89 -18 34 -14 41 29 61 38 18 50 52 40 117 l-7
39 74 -6 c114 -10 219 -61 219 -106 0 -36 -12 -49 -45 -49 -42 0 -53 -25 -27
-60 39 -51 88 -33 117 45 14 35 15 49 5 86 -19 70 -42 94 -117 122 -56 20 -94
26 -218 32 -82 3 -157 8 -165 11 -8 2 -22 -1 -30 -6z"/>
<path d="M6390 4392 c0 -50 -6 -55 -39 -32 -43 30 -77 33 -99 9 -29 -30 -14
-67 40 -102 15 -9 36 -17 47 -17 21 0 43 -33 55 -82 6 -27 5 -27 -54 -34 -46
-5 -58 -9 -50 -19 6 -7 29 -16 53 -19 41 -7 87 -44 87 -70 0 -6 9 -26 21 -45
l20 -33 20 37 c11 20 19 46 17 58 -2 15 3 23 17 25 28 6 55 31 49 47 -3 7 -26
15 -52 18 -30 3 -50 11 -57 23 -5 9 -17 25 -25 33 -8 9 -21 29 -29 44 -13 25
-13 31 2 56 27 47 21 141 -9 141 -10 0 -14 -12 -14 -38z"/>
<path d="M9890 4386 c0 -32 -7 -36 -71 -38 -57 -2 -89 -12 -89 -29 0 -5 24
-35 54 -66 30 -31 52 -62 49 -68 -2 -7 -31 -16 -64 -19 -55 -6 -60 -9 -57 -29
3 -21 8 -22 86 -20 64 1 88 6 103 19 32 29 24 59 -31 105 -57 48 -63 64 -20
55 64 -12 116 37 92 89 -16 34 -52 34 -52 1z"/>
<path d="M9064 4235 c26 -159 15 -236 -32 -221 -32 10 -80 54 -98 87 -19 38
-44 38 -44 0 0 -34 61 -108 113 -136 99 -53 161 85 103 228 -31 77 -51 97 -42
42z"/>
<path d="M7403 4153 c-45 -4 -69 -24 -59 -49 8 -20 26 -9 26 17 0 24 8 24 62
0 102 -46 142 -121 93 -173 -14 -16 -30 -28 -35 -28 -24 0 -6 -31 33 -57 38
-26 58 -61 32 -56 -59 10 -135 14 -135 7 0 -20 18 -31 72 -48 80 -25 128 -8
128 44 0 21 -10 37 -36 59 l-37 30 27 31 c14 17 26 44 26 59 0 26 -54 121 -69
121 -4 0 -16 8 -27 19 -25 23 -47 28 -101 24z"/>
<path d="M8225 4139 c-6 -17 -12 -19 -38 -13 -18 3 -38 11 -45 17 -16 13 -113
3 -141 -15 -13 -8 -21 -23 -21 -39 0 -36 45 -54 132 -54 l67 0 23 -43 c23 -45
110 -131 134 -133 8 -1 22 -2 31 -3 11 -1 21 10 27 26 14 40 -17 101 -86 170
-40 40 -58 66 -58 83 0 30 -16 33 -25 4z"/>
<path d="M11170 4108 c-14 -8 -26 -24 -28 -37 -4 -26 38 -95 76 -127 l26 -21
-75 -5 c-48 -3 -89 -12 -116 -27 -40 -20 -43 -25 -43 -60 0 -22 6 -46 13 -53
7 -7 16 -23 19 -36 5 -18 1 -26 -18 -34 -39 -18 -24 -58 22 -58 17 0 32 -18
67 -82 36 -68 49 -83 68 -83 17 0 25 6 27 23 2 12 -2 22 -8 22 -16 0 -70 90
-70 117 0 23 2 23 104 23 107 0 126 8 105 41 -6 10 -39 15 -128 17 l-120 4
-16 49 c-27 81 -25 82 119 74 120 -7 124 -7 135 14 15 27 11 32 -66 104 -37
35 -63 68 -63 79 0 18 4 19 38 12 64 -14 114 -11 126 8 17 28 -3 38 -90 44
-56 4 -86 1 -104 -8z"/>
<path d="M9830 4015 c0 -9 7 -30 16 -46 8 -17 14 -42 12 -57 -4 -35 -33 -39
-94 -16 -54 21 -81 7 -44 -23 69 -55 89 -76 85 -83 -9 -15 -69 11 -95 42 -29
33 -60 30 -60 -6 0 -31 112 -99 164 -100 50 -1 66 20 48 66 -12 32 -11 34 23
61 44 36 44 58 3 121 -35 52 -58 69 -58 41z"/>
<path d="M6746 3933 c-10 -11 -6 -87 7 -109 15 -27 71 -74 87 -74 9 0 8 -6 -3
-18 -34 -37 -16 -58 34 -40 44 14 69 36 69 60 0 13 -7 18 -25 18 -14 0 -40 10
-59 22 -34 22 -86 97 -86 123 0 16 -14 27 -24 18z"/>
<path d="M6063 3843 c-9 -3 -11 -24 -6 -78 6 -81 10 -76 -68 -89 -26 -5 -39
-14 -48 -32 -13 -30 -5 -50 14 -34 8 6 38 14 69 17 54 6 54 5 58 -23 4 -42 33
-43 44 -2 9 32 11 33 74 38 51 4 66 9 68 23 4 20 -4 23 -81 32 -32 4 -60 12
-61 18 -18 67 -38 127 -44 130 -4 3 -13 2 -19 0z"/>
<path d="M10316 3789 c-43 -51 -33 -108 24 -134 64 -29 90 -4 50 48 -37 47
-24 74 24 46 55 -32 112 -122 99 -157 -9 -24 -34 -41 -60 -42 -12 0 -27 -9
-33 -20 -9 -16 -6 -23 11 -37 73 -60 69 -73 -23 -75 -40 -1 -87 -1 -105 1 -41
2 -51 -15 -23 -41 19 -18 36 -21 119 -22 121 -1 151 13 151 73 0 29 -6 42 -22
53 l-22 15 37 35 c61 58 44 123 -59 225 -56 56 -68 63 -103 63 -32 0 -44 -6
-65 -31z"/>
<path d="M5486 3683 c16 -97 6 -132 -47 -166 -39 -26 -43 -27 -60 -11 -23 21
-49 11 -49 -19 0 -31 30 -58 117 -101 74 -37 129 -46 151 -24 7 7 12 33 12 59
0 39 -5 52 -35 84 -19 21 -32 42 -29 46 2 5 5 38 6 74 1 70 -17 105 -54 105
-17 0 -18 -5 -12 -47z"/>
<path d="M9815 3640 c-13 -15 -31 -20 -66 -20 -91 0 -128 -35 -84 -80 14 -14
25 -30 25 -34 0 -5 -34 -6 -75 -2 -88 8 -145 0 -145 -20 0 -19 33 -30 91 -33
26 -1 62 -6 80 -11 19 -6 59 -10 90 -10 48 0 57 3 68 24 17 30 2 61 -33 70
-14 3 -30 15 -36 26 -10 19 -7 20 43 20 65 0 102 26 88 62 -11 30 -24 32 -46
8z"/>
<path d="M6887 3609 l6 -41 -64 4 c-59 3 -64 2 -61 -17 5 -26 20 -35 56 -35
35 0 106 -46 106 -67 0 -21 -39 -11 -117 29 -36 19 -66 42 -73 57 -14 31 -35
14 -27 -21 9 -34 35 -61 87 -90 75 -42 122 -53 156 -37 39 19 41 47 5 96 -24
33 -29 48 -24 76 3 23 0 43 -12 61 -27 40 -44 34 -38 -15z"/>
<path d="M9087 3538 c-10 -112 -54 -143 -161 -112 -61 17 -67 22 -76 53 -16
58 0 65 47 21 34 -32 43 -36 43 -19 0 10 -15 30 -61 87 -14 17 -36 15 -58 -7
-29 -29 -15 -83 34 -133 122 -124 265 -75 265 91 0 97 -24 111 -33 19z"/>
<path d="M4188 3458 c-25 -32 -27 -32 -60 -20 -52 18 -144 15 -219 -9 -55 -17
-69 -26 -81 -52 -14 -30 -14 -34 8 -69 30 -47 69 -56 178 -40 65 10 83 9 95
-2 19 -16 57 -26 124 -33 39 -4 51 -1 62 13 27 35 18 68 -29 112 -42 39 -43
43 -39 86 7 55 -5 59 -39 14z m-88 -57 l25 -7 -29 -27 c-42 -39 -177 -68 -218
-46 -40 22 -16 59 51 80 32 9 137 9 171 0z"/>
<path d="M8377 3416 c-4 -9 -4 -29 -1 -44 4 -19 -1 -36 -16 -55 -19 -24 -26
-27 -58 -21 -54 10 -112 50 -112 77 0 12 44 -3 53 -19 14 -25 47 -37 63 -24
11 10 5 19 -40 51 -75 54 -116 50 -116 -12 0 -59 87 -121 172 -122 40 -1 53 4
76 26 34 35 37 107 5 139 -18 17 -21 18 -26 4z"/>
<path d="M9710 3385 c0 -3 12 -24 28 -47 37 -57 39 -144 3 -182 -51 -54 -108
-22 -135 76 -10 35 -20 69 -22 76 -5 16 -21 15 -27 -1 -10 -27 9 -136 27 -156
21 -23 109 -71 130 -71 50 0 116 81 116 142 0 45 -30 111 -63 140 -29 25 -57
36 -57 23z"/>
<path d="M6737 3339 c-44 -25 0 -133 76 -184 40 -28 59 -30 105 -14 60 21 78
88 46 169 -23 58 -36 50 -28 -18 5 -48 3 -61 -13 -81 -27 -33 -46 -23 -84 44
-37 65 -76 98 -102 84z"/>
<path d="M8783 3340 c-29 -12 -29 -24 -1 -50 26 -24 68 -29 48 -5 -22 27 17
18 65 -15 54 -37 105 -98 105 -125 0 -24 -18 -45 -39 -45 -8 0 -23 -7 -32 -16
-23 -21 -11 -47 31 -69 32 -17 49 -60 31 -78 -9 -9 -126 -12 -163 -4 -6 1 -12
-3 -14 -9 -3 -5 16 -21 41 -33 48 -24 81 -24 152 1 62 22 65 91 6 143 -26 24
-27 26 -9 36 34 21 56 49 56 73 0 45 -119 157 -195 183 -16 6 -37 13 -45 16
-8 3 -25 2 -37 -3z"/>
<path d="M4661 3261 c-17 -11 -4 -38 50 -103 22 -26 39 -51 39 -57 0 -6 -22
-13 -50 -17 -53 -7 -60 -14 -35 -34 19 -16 255 -6 266 12 13 21 -1 33 -53 46
-69 16 -121 52 -164 112 -20 28 -37 50 -37 50 -1 0 -8 -4 -16 -9z"/>
<path d="M7453 3197 c3 -30 2 -58 -1 -64 -4 -6 -26 -14 -50 -18 -78 -13 -64
-60 14 -49 49 7 63 -7 71 -66 11 -81 58 -59 49 23 -4 33 -1 49 7 51 68 17 102
35 102 52 0 20 -16 22 -100 13 l-40 -4 -20 58 c-11 31 -24 57 -29 57 -5 0 -6
-24 -3 -53z"/>
<path d="M6337 3203 c-9 -10 -50 -29 -90 -43 -65 -23 -72 -28 -75 -54 -3 -23
5 -36 42 -71 25 -23 46 -47 46 -52 0 -6 -15 -16 -32 -23 -53 -19 -78 -33 -78
-41 0 -4 12 -17 26 -28 l27 -21 -31 0 c-37 0 -72 -33 -72 -67 0 -52 115 -125
170 -108 31 10 70 64 70 96 0 37 -23 83 -52 103 l-21 15 26 10 c40 15 52 47
31 79 -22 34 -40 52 -52 52 -12 0 -52 44 -52 57 0 6 17 14 37 18 72 13 123 49
123 86 0 15 -25 10 -43 -8z"/>
<path d="M9485 3178 c-2 -7 -9 -33 -16 -58 -13 -53 -29 -86 -57 -118 l-20 -22
-6 36 c-10 52 -26 82 -47 87 -31 8 -42 -17 -34 -78 5 -45 4 -55 -9 -55 -17 0
-46 -37 -46 -61 0 -8 22 -33 49 -55 26 -21 52 -48 57 -59 8 -17 20 -20 80 -23
54 -2 74 1 84 13 16 19 -3 45 -33 45 -19 0 -56 10 -119 32 -37 13 -70 51 -62
71 6 18 34 24 34 8 0 -32 94 -4 124 36 35 48 60 193 36 208 -6 3 -12 0 -15 -7z"/>
<path d="M5578 3085 c-15 -8 -30 -25 -34 -37 -3 -12 -12 -28 -19 -34 -7 -7
-15 -32 -19 -55 -7 -42 -20 -44 -28 -4 -2 11 -11 21 -21 23 -30 6 -31 -26 -2
-68 24 -35 26 -44 18 -77 -12 -49 -1 -90 37 -130 28 -30 29 -33 11 -33 -25 0
-27 -22 -5 -41 13 -11 31 -10 107 5 181 35 218 51 197 86 -8 13 -91 10 -146
-6 -19 -5 -22 0 -27 36 -7 50 -30 87 -69 108 -27 15 -29 21 -25 58 6 54 37
118 59 122 12 2 23 -8 35 -33 16 -34 16 -37 -1 -66 -23 -39 -15 -59 24 -59 44
0 57 33 41 103 -19 84 -79 131 -133 102z"/>
<path d="M6919 2979 c-26 -11 -52 -31 -59 -44 -11 -20 -9 -28 10 -55 27 -38
17 -49 -45 -50 -73 -2 -138 -17 -152 -36 -18 -25 -16 -38 5 -28 19 8 40 9 209
12 88 2 115 5 128 18 22 23 15 36 -31 59 -22 11 -51 28 -65 38 -24 18 -24 18
-4 33 11 8 31 18 45 21 32 7 50 22 50 39 0 20 -37 17 -91 -7z"/>
<path d="M8402 2919 c1 -39 -26 -66 -73 -72 -72 -9 -78 -33 -16 -62 46 -21 80
-55 67 -68 -7 -8 -101 26 -127 46 -7 5 -13 20 -13 33 0 27 -3 28 -29 14 -46
-24 19 -104 108 -135 67 -23 110 -20 120 8 10 26 -3 65 -30 90 -23 21 -25 43
-4 51 23 9 49 70 41 100 -10 39 -45 36 -44 -5z"/>
<path d="M4286 2885 c8 -31 -14 -54 -57 -59 -37 -4 -47 -19 -29 -42 18 -21 9
-25 -30 -11 -55 19 -62 27 -55 54 5 21 3 24 -17 21 -28 -4 -28 -39 0 -78 35
-49 142 -85 180 -61 7 4 12 23 10 44 -1 23 4 43 15 55 20 22 22 73 5 90 -19
19 -29 14 -22 -13z"/>
<path d="M4960 2887 c0 -27 -45 -37 -105 -24 -121 25 -128 -57 -9 -112 86 -41
141 -20 113 42 -9 21 -8 28 10 46 24 24 28 61 6 61 -8 0 -15 -6 -15 -13z"/>
<path d="M7670 2851 c0 -30 -14 -41 -55 -41 -13 0 -29 -8 -35 -17 -8 -13 -13
-14 -16 -5 -8 17 -41 15 -47 -2 -11 -29 87 -110 145 -121 31 -6 38 -4 48 14 9
18 7 28 -9 55 -19 31 -20 36 -7 68 17 39 11 78 -10 78 -9 0 -14 -11 -14 -29z"/>
<path d="M3352 2770 c-46 -11 -84 -48 -80 -79 4 -36 46 -61 114 -68 45 -5 67
-13 91 -34 70 -61 194 -65 208 -6 9 33 -7 65 -57 118 -64 68 -169 94 -276 69z"/>
<path d="M2756 2733 c-10 -11 -7 -71 6 -98 6 -14 23 -28 37 -32 35 -8 53 -23
47 -39 -3 -7 -1 -16 4 -19 6 -4 10 10 10 30 0 43 22 44 30 2 4 -20 9 -24 19
-18 8 5 20 7 28 4 20 -8 63 25 63 47 0 17 -7 20 -48 20 -26 0 -57 7 -69 15
-20 14 -22 14 -25 -6 -3 -21 -3 -21 -30 3 -15 13 -30 38 -34 55 -6 30 -25 48
-38 36z"/>
<path d="M4766 2634 c-4 -9 -4 -32 0 -50 10 -57 122 -134 193 -134 22 0 37 9
55 33 15 19 26 40 26 48 0 21 -43 98 -59 104 -14 5 -13 -7 5 -78 7 -31 -9 -57
-37 -57 -15 0 -19 6 -17 28 2 30 -7 52 -23 52 -5 0 -25 16 -45 35 -38 38 -87
48 -98 19z"/>
<path d="M6340 2588 c0 -6 6 -19 14 -27 7 -9 17 -26 21 -39 9 -29 -11 -36 -64
-22 -33 9 -45 19 -61 50 -23 46 -37 50 -50 16 -6 -18 -14 -22 -32 -19 -43 8
-53 -18 -39 -95 12 -67 40 -112 69 -112 15 0 14 15 -7 95 -18 71 14 73 50 4
18 -37 54 -63 72 -52 4 2 7 15 7 28 0 21 4 24 28 19 35 -7 82 35 82 73 0 38
-40 93 -67 93 -13 0 -23 -5 -23 -12z"/>
<path d="M7598 2539 c-32 -32 -58 -64 -58 -71 0 -8 11 -30 25 -50 25 -37 25
-37 5 -48 -11 -6 -20 -8 -20 -5 0 12 -81 -37 -87 -52 -4 -9 -1 -30 6 -47 26
-65 26 -66 -11 -66 -38 0 -58 -15 -58 -42 0 -25 45 -41 97 -34 40 5 43 4 70
-37 16 -23 32 -50 36 -59 8 -21 37 -24 37 -4 0 7 -9 34 -21 60 -11 25 -18 50
-14 55 3 5 23 12 45 16 46 8 72 29 63 51 -4 11 -14 14 -32 10 -106 -24 -130
-20 -156 27 -23 43 -15 67 22 67 52 0 99 19 111 44 9 21 7 29 -24 60 -41 42
-41 63 1 86 38 21 57 57 44 82 -5 10 -13 17 -17 16 -4 0 -33 -27 -64 -59z"/>
<path d="M5615 2568 c4 -13 8 -34 9 -48 1 -22 -3 -25 -28 -22 -42 5 -76 -6
-76 -24 0 -20 24 -44 45 -44 21 0 55 -18 55 -30 0 -12 -37 -4 -66 15 -33 21
-74 20 -74 -2 0 -30 13 -40 70 -58 30 -9 65 -21 78 -26 17 -7 27 -4 42 11 26
26 25 51 -1 79 -20 21 -20 23 -4 41 20 22 16 65 -11 105 -21 32 -49 34 -39 3z"/>
<path d="M8327 2558 c-68 -11 -121 -37 -125 -62 -2 -10 9 -31 24 -47 l28 -29
-76 0 c-115 0 -214 -51 -137 -71 13 -3 29 -2 36 3 30 23 235 18 329 -8 22 -6
58 20 51 39 -1 5 -32 17 -67 27 -143 37 -185 89 -78 95 89 6 131 26 112 56 -6
10 -17 10 -97 -3z"/>
<path d="M2946 2534 c-3 -9 -6 -26 -6 -39 0 -21 -32 -55 -52 -55 -4 0 -11 17
-15 38 l-8 37 -5 -45 c-6 -52 -21 -56 -33 -8 -10 40 -50 78 -82 78 -27 0 -39
-17 -49 -69 -5 -29 -2 -38 28 -66 19 -18 47 -35 62 -38 30 -5 115 17 150 39
30 20 47 66 39 103 -8 36 -20 47 -29 25z"/>
<path d="M3414 2542 c-18 -12 -34 -49 -34 -81 0 -35 37 -79 93 -110 113 -63
217 37 137 130 l-21 24 6 -43 c8 -47 -5 -72 -36 -72 -14 0 -19 7 -19 29 0 16
-7 34 -15 41 -8 7 -15 18 -15 26 0 13 -60 64 -76 64 -5 0 -14 -4 -20 -8z"/>
<path d="M4270 2521 c0 -16 4 -32 8 -35 13 -8 13 -78 1 -93 -9 -10 -17 -4 -38
28 -30 43 -76 79 -102 79 -21 0 -32 -23 -35 -75 -2 -33 3 -46 28 -72 59 -61
125 -67 173 -15 30 32 33 93 7 161 -21 54 -42 65 -42 22z"/>
<path d="M4842 2384 c-12 -8 -22 -24 -22 -35 0 -28 75 -99 105 -99 31 0 31 -5
-1 -44 -14 -17 -40 -53 -57 -81 -36 -56 -72 -69 -72 -25 0 14 -3 26 -8 28 -18
8 -29 -6 -34 -46 -5 -35 -3 -43 13 -48 11 -3 27 -10 36 -15 32 -16 44 -10 89
51 47 63 73 74 102 42 10 -10 17 -33 17 -50 0 -30 -7 -37 -37 -33 -17 2 -25
-16 -18 -39 15 -48 115 8 115 65 0 34 -23 78 -55 103 -14 11 -25 25 -25 30 0
10 71 29 130 34 19 2 26 10 28 31 l3 28 -80 -7 -81 -7 0 31 c0 31 -25 56 -89
90 -30 15 -32 15 -59 -4z"/>
<path d="M2744 2300 c6 -48 5 -51 -20 -60 -14 -6 -37 -11 -50 -12 -13 -1 -24
-6 -24 -10 0 -15 46 -38 76 -38 23 0 34 -6 42 -25 16 -35 41 -32 49 6 7 34 30
49 44 28 7 -11 9 -11 9 4 0 12 8 17 28 17 51 0 73 11 70 34 -3 18 -11 21 -55
24 -32 2 -53 -1 -53 -7 0 -6 -13 -11 -28 -11 -24 0 -32 7 -52 50 -30 64 -44
64 -36 0z"/>
<path d="M7030 2335 c-13 -15 -10 -92 5 -127 9 -23 -23 -35 -96 -39 -30 -1
-63 -5 -74 -9 -11 -4 -36 -10 -57 -14 -35 -6 -37 -5 -48 30 -7 20 -10 51 -7
70 7 40 -5 51 -28 27 -38 -37 3 -177 69 -236 33 -30 69 -32 74 -4 2 11 -3 17
-17 17 -17 0 -40 35 -29 45 4 4 89 15 171 22 l67 5 26 -56 c14 -31 31 -77 37
-103 13 -51 39 -75 58 -56 10 10 9 22 -1 55 -8 24 -17 48 -21 53 -14 21 -78
212 -84 250 -14 91 -20 100 -45 70z"/>
<path d="M3344 2276 c-10 -26 5 -104 32 -165 36 -82 80 -110 72 -46 l-4 35 84
0 c92 0 122 10 122 41 0 20 -3 21 -114 14 l-113 -7 -22 44 c-11 24 -21 51 -21
60 0 9 -7 21 -15 28 -12 10 -16 9 -21 -4z"/>
<path d="M4252 2188 c-31 -25 -55 -51 -58 -67 -10 -48 -13 -51 -46 -52 -36 -1
-91 -28 -89 -44 2 -14 220 -8 238 6 24 21 11 52 -25 61 -40 11 -38 25 9 56 39
27 53 47 45 68 -8 20 -15 18 -74 -28z"/>
<path d="M5660 2214 c-19 -7 -42 -13 -51 -13 -34 -2 -66 -89 -39 -106 6 -3 10
-13 10 -21 0 -10 -12 -14 -39 -14 -57 0 -102 -11 -108 -27 -3 -8 -3 -16 0 -19
3 -4 62 -8 130 -11 123 -5 125 -5 137 18 11 20 10 25 -11 40 -66 49 -79 62
-79 74 0 18 10 24 56 31 46 7 57 15 52 40 -4 23 -15 24 -58 8z"/>
<path d="M6267 2209 c-11 -6 -25 -26 -33 -44 -34 -82 21 -137 142 -143 67 -4
73 -2 88 20 18 28 10 70 -23 117 -37 52 -127 77 -174 50z"/>
<path d="M2940 2106 c0 -10 -11 -19 -31 -23 -17 -3 -33 -12 -36 -20 -5 -12 -7
-12 -14 -2 -6 10 -11 10 -23 0 -21 -18 -20 -44 4 -72 l19 -24 1 40 1 40 13
-31 c7 -16 37 -51 66 -76 l53 -47 -38 -22 c-37 -22 -37 -23 -14 -31 29 -11 93
-13 108 -4 24 15 12 63 -21 89 -68 51 -110 97 -104 113 3 8 10 12 16 9 6 -3
19 -3 31 0 26 9 22 43 -8 63 -21 13 -23 13 -23 -2z"/>
<path d="M6379 1974 c-1 -5 -1 -34 0 -64 2 -71 -8 -88 -44 -72 -14 7 -40 12
-57 12 -17 0 -54 7 -82 15 -28 8 -91 24 -140 35 -81 19 -91 20 -105 6 -12 -12
-12 -18 -3 -28 7 -7 12 -20 12 -30 0 -20 36 -38 75 -38 30 0 55 -25 55 -55 0
-41 45 -72 120 -83 42 -6 82 -20 106 -35 52 -34 129 -55 152 -41 29 19 26 62
-8 117 -29 47 -31 55 -25 108 8 65 -5 117 -35 144 -11 10 -21 14 -21 9z"/>
<path d="M2020 1890 c0 -5 -22 -21 -50 -35 -27 -14 -50 -30 -50 -35 0 -13 45
-23 74 -16 27 7 40 -6 50 -47 11 -46 40 -32 44 22 l3 44 70 -5 c77 -6 92 3 61
35 -17 16 -36 21 -88 23 -36 1 -71 7 -77 13 -14 14 -37 14 -37 1z"/>
<path d="M5536 1826 c-14 -24 -26 -54 -26 -65 0 -21 57 -80 88 -92 14 -6 12
-9 -10 -18 -18 -7 -28 -18 -28 -32 0 -19 4 -20 43 -14 23 4 62 15 87 24 67 25
66 70 -1 71 -14 0 -47 14 -73 32 -44 29 -47 34 -42 62 18 85 1 99 -38 32z"/>
<path d="M3611 1711 c-6 -11 -35 -32 -63 -48 -40 -21 -55 -36 -62 -61 -7 -26
-16 -34 -50 -43 -56 -15 -87 -31 -94 -47 -3 -8 5 -34 17 -58 32 -66 29 -82
-16 -86 -54 -4 -50 -29 7 -47 67 -20 75 -26 80 -56 3 -16 11 -30 17 -32 14 -5
32 34 30 62 -2 14 10 20 57 30 32 6 68 10 81 8 30 -6 40 29 14 53 -14 13 -28
15 -61 10 -130 -21 -122 -22 -137 20 -8 22 -18 42 -24 45 -21 14 2 39 35 39
18 0 53 6 78 14 44 13 45 14 45 56 0 34 5 46 25 59 39 25 61 53 58 75 -4 27
-25 31 -37 7z"/>
<path d="M2200 1633 c-32 -12 -59 -47 -65 -84 -8 -48 -26 -50 -65 -8 -27 31
-28 31 -35 9 -5 -15 -1 -27 14 -41 12 -11 21 -24 21 -29 0 -5 13 -16 28 -24
20 -11 33 -12 47 -4 28 15 26 12 45 70 9 28 21 53 27 55 17 6 76 -49 62 -57
-31 -20 28 -61 67 -46 37 14 -29 137 -81 150 -13 3 -29 8 -37 10 -7 3 -20 2
-28 -1z"/>
<path d="M5001 1618 c-63 -10 -114 -36 -119 -62 -5 -23 32 -62 81 -87 43 -22
41 -33 -9 -54 -19 -8 -34 -21 -34 -29 0 -15 79 -66 103 -66 8 0 20 -6 26 -14
10 -11 8 -17 -9 -29 -23 -16 -20 -21 22 -31 28 -6 58 13 58 38 0 13 -39 52
-80 79 -16 12 -19 17 -9 17 9 0 24 9 34 20 17 18 17 21 1 45 -9 14 -21 25 -26
25 -6 0 -33 17 -61 37 -47 34 -50 38 -33 50 10 7 29 13 43 13 41 0 69 11 76
28 9 24 -6 29 -64 20z"/>
<path d="M4330 1517 c0 -23 -7 -53 -16 -65 -17 -25 -19 -23 -66 39 -29 39 -78
65 -103 55 -8 -3 -20 -18 -25 -32 -17 -43 3 -85 57 -117 119 -72 208 -2 177
141 -8 38 -24 24 -24 -21z"/>
<path d="M2906 1531 c-10 -4 -24 -18 -32 -32 -11 -20 -13 -21 -14 -5 0 15 -3
16 -15 6 -25 -21 -29 -75 -8 -110 l18 -32 5 33 5 32 15 -29 c17 -35 49 -63 71
-64 16 0 38 -37 53 -87 4 -11 13 -27 21 -33 9 -7 15 -29 15 -51 0 -32 -4 -40
-23 -44 -13 -4 -43 2 -68 11 -43 17 -114 22 -127 9 -8 -7 10 -37 26 -43 7 -2
12 6 12 19 0 20 2 21 13 7 25 -30 84 -58 126 -58 104 0 120 108 32 209 -29 33
-28 61 3 61 14 0 32 7 40 16 33 32 12 90 -52 142 -33 26 -86 55 -95 51 -1 0
-10 -4 -21 -8z"/>
<path d="M5500 1479 c-19 -35 -7 -62 50 -105 52 -40 106 -64 144 -64 9 0 28
11 41 25 29 28 33 77 10 131 -20 50 -37 34 -29 -27 4 -27 4 -49 2 -49 -3 0
-22 16 -44 36 -39 37 -111 74 -144 74 -11 0 -24 -9 -30 -21z"/>
<path d="M4190 1297 c0 -12 56 -59 92 -78 21 -11 35 -25 33 -32 -3 -6 -31 -25
-63 -42 -31 -16 -59 -31 -61 -32 -9 -6 23 -33 40 -33 44 0 141 59 153 92 17
48 -19 74 -176 125 -10 3 -18 3 -18 0z"/>
<path d="M5539 1196 c-13 -6 -30 -23 -38 -37 -21 -39 -7 -75 42 -106 37 -23
58 -28 165 -36 134 -10 172 -3 172 32 0 15 -13 23 -55 36 -31 9 -60 13 -65 10
-20 -12 -60 7 -60 29 0 26 -8 37 -40 58 -35 21 -93 28 -121 14z"/>
<path d="M1760 1041 c-32 -18 -113 -41 -122 -35 -5 3 -17 -1 -26 -9 -18 -15
-185 -46 -236 -44 -46 3 -43 -21 6 -43 62 -28 113 -73 105 -93 -5 -13 -20 -17
-67 -17 -43 0 -60 -4 -60 -13 0 -27 25 -37 96 -37 74 0 90 8 94 45 4 33 1 41
-25 71 -32 37 -20 50 58 59 45 6 57 4 57 -6 0 -26 80 -109 105 -109 50 0 134
104 135 166 0 36 -37 74 -73 73 -18 0 -39 -4 -47 -8z"/>
<path d="M1963 983 c-19 -7 -16 -84 5 -114 23 -35 90 -93 130 -113 17 -9 32
-21 32 -27 0 -7 13 -9 37 -4 20 3 63 6 94 6 88 0 148 39 117 76 -9 11 -29 14
-82 11 l-70 -3 -8 44 c-15 87 -54 76 -43 -12 7 -59 -6 -67 -67 -38 -78 36
-122 89 -116 142 3 32 -6 42 -29 32z"/>
<path d="M3020 965 c-14 -8 -35 -14 -48 -15 -13 0 -36 -10 -52 -22 -23 -17
-30 -30 -30 -55 0 -28 7 -38 45 -65 25 -18 45 -35 45 -40 0 -4 -11 -15 -26
-24 -30 -21 -58 -70 -44 -79 6 -3 17 1 26 9 15 16 104 46 134 46 9 0 23 12 30
26 17 30 7 40 -50 50 -54 10 -112 51 -108 77 2 18 14 25 58 35 61 15 86 33 77
56 -8 20 -24 20 -57 1z"/>
<path d="M5130 947 c-14 -7 -52 -21 -85 -32 -133 -43 -178 -101 -120 -155 32
-30 32 -40 -2 -40 -37 0 -94 -17 -118 -34 -18 -13 -18 -14 4 -26 13 -7 26 -8
30 -3 3 4 55 9 115 11 60 1 112 5 117 8 5 3 9 16 9 30 0 23 -4 26 -40 28 -25
2 -80 39 -86 59 -11 34 24 54 158 92 58 16 79 39 56 62 -11 10 -18 10 -38 0z"/>
<path d="M3523 904 c-7 -3 -13 -12 -13 -19 0 -15 35 -30 49 -21 9 6 116 -26
128 -38 9 -9 -17 -35 -51 -53 -39 -19 -65 -52 -66 -80 0 -20 9 -29 80 -83 30
-22 23 -26 -72 -35 -48 -5 -68 -11 -68 -20 0 -23 18 -27 107 -26 66 0 90 4
104 17 28 25 23 49 -17 80 -93 75 -89 71 -75 88 7 9 21 16 30 16 21 0 80 50
82 70 4 38 -4 51 -41 75 -40 25 -147 43 -177 29z"/>
<path d="M425 890 c-3 -5 -17 -10 -29 -10 -31 0 -76 -37 -76 -62 0 -11 7 -26
17 -33 20 -15 9 -35 -21 -35 -31 0 -61 -24 -51 -40 6 -9 27 -11 82 -7 115 9
156 49 88 86 -41 22 -42 30 -3 51 39 20 51 60 19 60 -11 0 -23 -4 -26 -10z"/>
<path d="M4360 762 c0 -10 4 -22 9 -27 5 -6 12 -26 16 -45 l6 -36 -69 -23
c-82 -27 -123 -61 -101 -87 12 -14 14 -14 26 2 8 10 39 24 71 32 31 7 67 15
78 18 19 5 23 0 34 -44 6 -28 10 -65 8 -83 -3 -32 22 -62 39 -45 10 10 12 206
2 206 -4 0 -20 26 -35 58 -32 66 -52 92 -71 92 -7 0 -13 -8 -13 -18z"/>
<path d="M907 683 c-4 -3 -7 -28 -7 -55 0 -26 -1 -48 -3 -48 -2 0 -25 20 -50
45 -37 35 -55 45 -81 45 -27 0 -36 -5 -45 -28 -10 -25 -8 -38 15 -96 14 -36
35 -71 46 -77 11 -6 42 -9 70 -7 51 4 51 4 70 54 19 46 26 143 13 164 -7 12
-19 13 -28 3z"/>
<path d="M1503 659 c6 -22 -4 -28 -80 -48 -55 -15 -67 -45 -29 -77 32 -28 32
-34 4 -34 -11 0 -36 -11 -55 -26 -44 -33 -45 -72 -3 -107 23 -20 26 -26 14
-31 -19 -7 -10 -25 14 -25 9 0 55 -5 102 -11 97 -12 133 -7 128 18 -2 13 -19
19 -63 25 -98 14 -142 28 -166 53 -31 33 -18 43 67 55 95 13 104 17 104 44 0
18 -8 26 -42 37 -57 18 -59 34 -3 42 35 6 49 13 57 32 10 21 8 28 -12 49 -29
30 -44 32 -37 4z"/>
<path d="M3005 613 c4 -10 11 -35 15 -57 20 -101 -58 -187 -131 -143 -17 10
-23 10 -26 0 -7 -19 -17 -16 -45 12 -30 30 -41 75 -28 110 12 31 33 32 53 3
l16 -23 1 30 0 30 20 -25 c10 -14 20 -38 22 -54 4 -36 23 -44 38 -16 15 29 -2
79 -41 116 -22 21 -32 25 -38 16 -5 -8 -18 -11 -32 -8 -32 8 -66 -22 -84 -75
-14 -39 -14 -45 6 -86 26 -53 102 -110 111 -82 2 7 13 7 31 0 40 -16 101 1
139 38 24 23 32 41 36 79 6 67 -22 152 -50 152 -15 0 -18 -4 -13 -17z"/>
<path d="M95 413 c3 -16 13 -35 21 -44 8 -8 14 -25 14 -37 0 -12 28 -48 72
-91 55 -54 79 -71 100 -71 38 0 64 43 72 121 4 32 10 59 15 59 10 0 56 -50 70
-77 6 -12 11 -39 11 -61 0 -28 5 -42 17 -46 25 -10 36 8 35 58 -1 83 -61 161
-133 172 -31 5 -36 3 -47 -20 -7 -15 -12 -44 -12 -66 0 -43 -15 -90 -28 -90
-14 0 -126 117 -144 151 -35 65 -76 92 -63 42z"/>
<path d="M890 391 c0 -10 6 -24 14 -30 8 -7 19 -26 25 -42 8 -25 7 -31 -6 -36
-18 -7 -75 21 -111 55 -27 24 -62 30 -62 10 0 -17 65 -79 110 -107 101 -61
157 26 83 131 -28 41 -53 50 -53 19z"/>
</g>
</svg>
