<?xml version="1.0" standalone="no"?>
<!DOCTYPE svg PUBLIC "-//W3C//DTD SVG 20010904//EN"
 "http://www.w3.org/TR/2001/REC-SVG-20010904/DTD/svg10.dtd">
<svg version="1.0" xmlns="http://www.w3.org/2000/svg"
 width="2615.000000pt" height="3376.000000pt" viewBox="0 0 2615.000000 3376.000000"
 preserveAspectRatio="xMidYMid meet">

<g transform="translate(0.000000,3376.000000) scale(0.100000,-0.100000)"
fill="#000000" stroke="none">
<path d="M7511 17133 c-6 -21 -11 -48 -11 -60 0 -13 -4 -23 -10 -23 -12 0 -50
40 -50 53 0 5 -7 4 -15 -3 -13 -11 -13 -15 -2 -29 7 -9 24 -37 38 -63 13 -27
27 -48 30 -48 4 0 9 -17 13 -37 7 -47 15 -58 43 -67 29 -9 35 13 22 94 -6 36
-11 99 -12 140 -2 61 -5 75 -19 78 -12 2 -20 -7 -27 -35z"/>
<path d="M7895 17094 c-18 -19 -19 -33 0 -57 9 -13 20 -17 34 -12 12 3 19 10
16 15 -3 5 -1 11 5 15 13 8 -3 40 -24 48 -9 4 -22 -1 -31 -9z"/>
<path d="M7682 17015 c-19 -21 -51 -31 -84 -26 -18 3 -6 -17 16 -27 38 -17 93
-4 117 29 19 28 19 28 0 38 -26 14 -24 15 -49 -14z"/>
<path d="M7292 16980 c-12 -12 -25 -38 -28 -59 -10 -62 -81 -93 -118 -50 -15
18 -20 19 -27 8 -8 -13 -13 -5 -10 14 1 4 -13 14 -31 21 -31 13 -32 13 -50
-23 -32 -63 -32 -103 2 -150 25 -34 36 -41 63 -41 34 0 52 19 59 64 2 13 19
24 55 36 52 17 86 11 78 -13 -5 -15 13 -40 40 -54 15 -8 29 -8 52 2 49 21 74
86 64 165 -3 21 -31 -4 -41 -38 -31 -97 -46 -107 -75 -49 -22 44 -20 110 5
132 15 13 17 22 9 36 -12 24 -20 24 -47 -1z m-182 -135 c18 -22 -6 -107 -29
-103 -25 5 -36 51 -21 87 14 34 31 39 50 16z"/>
<path d="M6680 16829 c9 -32 37 -68 130 -170 62 -68 97 -91 128 -82 24 6 24 8
22 103 -2 87 -32 130 -89 130 -30 0 -42 -6 -55 -25 -23 -36 -42 -31 -73 18
-30 46 -42 57 -60 57 -8 0 -9 -9 -3 -31z m223 -141 c7 -50 -12 -66 -34 -28
-21 33 -16 60 11 60 12 0 19 -10 23 -32z"/>
<path d="M5165 16715 c-3 -14 -7 -36 -10 -50 -8 -37 -58 -35 -82 3 -36 55 -51
63 -73 37 -20 -24 -3 -62 46 -97 43 -30 45 -35 39 -68 -3 -19 -15 -47 -26 -62
-23 -32 -25 -57 -5 -64 22 -8 56 14 56 37 0 11 11 31 25 44 l24 25 36 -21 c38
-23 85 -20 85 6 0 8 -25 29 -55 46 -30 17 -55 37 -55 45 0 7 9 36 20 63 11 28
17 57 14 66 -9 24 -33 18 -39 -10z"/>
<path d="M6652 16530 c-6 -11 -12 -27 -12 -35 0 -8 -4 -15 -9 -15 -4 0 -12
-15 -17 -32 -13 -45 -42 -49 -57 -9 -6 17 -15 31 -19 31 -18 0 -16 -23 7 -66
23 -43 24 -49 10 -70 -18 -28 -20 -70 -2 -76 19 -8 37 2 37 21 0 43 46 53 98
21 27 -16 37 -18 48 -9 23 19 16 29 -40 55 -48 22 -81 54 -56 54 6 0 10 9 10
20 0 11 5 29 10 40 22 45 26 56 22 73 -5 22 -14 22 -30 -3z"/>
<path d="M5920 16478 c0 -12 9 -32 21 -44 l20 -21 -31 -32 c-25 -24 -31 -37
-26 -56 13 -53 26 -75 44 -75 10 0 23 -5 29 -11 18 -18 53 0 60 32 9 45 21 50
91 35 73 -15 77 -18 63 -45 -17 -32 -3 -100 25 -118 22 -14 26 -14 52 2 49 32
122 112 122 134 0 46 -27 58 -140 64 -124 6 -194 30 -225 80 -19 30 -78 77
-96 77 -5 0 -9 -10 -9 -22z m86 -152 c-8 -34 -34 -33 -47 1 -8 22 -7 30 7 40
26 19 49 -6 40 -41z m311 -59 c7 -11 -35 -46 -55 -47 -18 0 -42 25 -42 44 0
24 82 27 97 3z"/>
<path d="M4120 16381 c-35 -4 -40 -18 -24 -64 8 -22 14 -48 14 -59 0 -18 -2
-18 -22 -4 -23 17 -58 22 -58 9 0 -16 16 -31 63 -57 26 -15 47 -32 47 -36 0
-11 59 -40 82 -40 18 0 22 10 18 39 -1 8 -22 35 -46 60 -31 31 -44 52 -44 73
0 39 21 44 75 19 49 -23 85 -27 85 -10 0 5 5 7 10 4 15 -9 12 32 -2 42 -17 10
-166 29 -198 24z"/>
<path d="M4993 16267 c-36 -56 -36 -139 0 -220 22 -51 50 -67 85 -48 15 8 21
25 26 75 7 63 8 64 42 71 37 7 57 36 50 77 -4 33 -19 32 -40 -2 -21 -37 -45
-36 -64 3 -20 41 -83 70 -99 44z m76 -155 c1 -30 -4 -54 -10 -58 -14 -8 -41
24 -33 38 3 5 1 15 -5 22 -7 9 -7 24 0 51 11 39 11 39 28 18 11 -13 18 -41 20
-71z"/>
<path d="M3953 16183 c-18 -7 -17 -63 1 -63 8 0 16 7 20 15 3 8 14 15 25 15
26 0 51 -66 51 -136 0 -101 -21 -113 -119 -65 -33 16 -62 27 -64 24 -3 -2 -2
-16 2 -31 6 -21 16 -29 47 -36 21 -5 44 -15 49 -23 6 -8 29 -17 52 -20 36 -5
45 -2 65 20 19 20 23 35 22 83 -2 104 -4 111 -24 134 -11 12 -22 31 -25 41
-10 32 -69 56 -102 42z"/>
<path d="M6511 16133 c-23 -29 -21 -70 5 -128 44 -95 115 -125 149 -62 23 44
17 124 -13 162 -12 15 -22 24 -22 20 0 -5 -9 0 -20 10 -11 10 -20 14 -20 10 0
-5 -5 -4 -12 3 -19 19 -45 14 -67 -15z m100 -46 c27 -21 33 -71 12 -112 l-19
-36 -27 30 c-33 37 -41 69 -28 104 11 29 35 34 62 14z"/>
<path d="M5924 16135 c-7 -18 -47 -20 -76 -4 -19 10 -20 9 -14 -17 4 -16 11
-31 15 -34 13 -9 30 -64 33 -104 3 -43 -11 -56 -36 -31 -9 9 -16 14 -16 11 0
-2 -13 9 -29 25 -16 16 -34 29 -40 29 -15 0 -14 -26 3 -42 7 -8 16 -23 20 -34
8 -28 105 -75 127 -63 30 15 35 121 7 156 -11 14 4 46 30 65 24 17 24 58 0 58
-10 0 -21 -7 -24 -15z"/>
<path d="M4832 15968 c-15 -15 -15 -46 -1 -87 10 -27 9 -35 -5 -49 -14 -14
-18 -15 -25 -3 -7 11 -11 10 -19 -5 -7 -14 -6 -35 4 -73 14 -56 12 -71 -11
-71 -12 0 -32 -38 -23 -44 1 -1 23 -15 48 -30 25 -16 54 -40 65 -53 13 -16 29
-24 40 -21 33 6 28 63 -11 125 -41 62 -42 73 -9 73 39 0 48 30 25 82 -38 83
-18 113 42 63 36 -31 54 -32 69 -3 14 26 -5 43 -79 71 -26 10 -55 23 -64 28
-23 12 -32 11 -46 -3z"/>
<path d="M5650 15929 c0 -6 -7 -8 -16 -5 -22 8 -54 -11 -54 -33 0 -11 7 -21
15 -25 18 -7 66 10 77 27 13 20 9 47 -7 47 -8 0 -15 -5 -15 -11z"/>
<path d="M6343 15864 c3 -19 9 -40 16 -47 13 -13 15 -137 3 -137 -15 0 -34 46
-37 91 -1 24 -3 50 -4 57 -2 18 -38 15 -45 -4 -11 -29 -6 -67 20 -143 59 -171
143 -146 114 35 -6 36 -8 69 -5 72 4 5 17 -1 77 -33 15 -8 17 -21 16 -85 -4
-111 6 -146 44 -159 53 -19 93 -14 122 15 28 28 56 79 56 100 0 16 -50 64 -66
64 -18 0 -114 80 -114 96 0 17 -12 18 -28 2 -9 -9 -12 -9 -12 0 0 7 -6 12 -12
12 -7 0 -33 16 -57 35 -24 19 -48 35 -52 35 -5 0 -9 7 -9 15 0 8 -7 15 -15 15
-12 0 -15 -9 -12 -36z m243 -188 c3 -8 19 -19 35 -25 21 -7 29 -16 29 -33 0
-47 -38 -61 -77 -29 -28 23 -34 101 -8 101 9 0 18 -6 21 -14z"/>
<path d="M5735 15809 c-4 -6 -5 -13 -2 -16 7 -7 27 6 27 18 0 12 -17 12 -25
-2z"/>
<path d="M5759 15778 c-7 -12 -6 -18 1 -18 6 0 24 -10 40 -21 50 -38 104 -5
67 41 -18 22 -96 21 -108 -2z"/>
<path d="M3707 15703 c-15 -14 -6 -42 22 -65 33 -29 51 -59 51 -87 0 -10 6
-22 13 -24 6 -3 -2 -6 -20 -6 -19 -1 -42 8 -60 23 -49 40 -69 48 -84 30 -10
-13 -9 -16 9 -21 12 -3 22 -9 22 -15 0 -5 5 -14 10 -21 6 -7 16 -20 23 -30 7
-11 30 -21 54 -24 33 -4 45 -1 62 16 11 11 21 32 21 46 0 26 29 48 47 37 7 -4
13 -34 15 -66 3 -50 7 -62 29 -79 37 -27 110 -34 128 -13 7 9 20 16 28 16 24
0 63 51 63 82 0 20 -9 37 -31 56 -49 41 -60 46 -109 43 -61 -2 -157 29 -224
73 -59 39 -59 39 -69 29z m356 -175 c25 -25 15 -46 -30 -64 l-37 -16 -33 36
c-45 49 -36 68 31 65 35 -2 57 -8 69 -21z"/>
<path d="M5512 15697 c-9 -10 0 -25 38 -66 54 -58 59 -78 34 -117 -19 -27 -43
-25 -78 7 -25 24 -33 24 -41 -1 -8 -26 11 -60 35 -60 10 0 20 -6 23 -12 3 -10
9 -8 24 5 11 9 25 17 31 17 7 0 12 -8 12 -17 0 -26 38 33 50 79 l10 36 38 -18
c20 -10 67 -25 103 -34 72 -18 129 -42 129 -56 0 -23 -16 -43 -56 -70 -47 -33
-75 -37 -98 -15 -8 8 -22 15 -31 15 -13 0 -16 -8 -13 -37 3 -35 6 -39 41 -47
54 -14 134 15 183 65 31 32 36 44 36 80 -1 35 -6 47 -28 64 -29 20 -134 53
-189 59 -27 3 -72 22 -148 63 -16 8 -31 21 -34 29 -3 8 -10 14 -16 14 -6 0
-18 7 -27 15 -14 13 -19 13 -28 2z"/>
<path d="M3490 15401 c0 -12 29 -33 80 -60 25 -13 52 -31 61 -41 9 -10 32 -22
53 -25 36 -7 36 -7 36 27 0 28 -5 37 -25 46 -14 7 -34 12 -44 12 -9 0 -37 10
-62 22 -47 23 -99 33 -99 19z"/>
<path d="M6034 15372 c-6 -4 -17 -23 -24 -42 -12 -33 -10 -40 20 -98 34 -66
84 -113 125 -117 13 -2 28 -6 33 -9 16 -10 71 33 86 68 13 32 20 91 17 146 -1
22 -2 23 -17 8 -9 -9 -21 -40 -25 -70 -5 -29 -13 -54 -19 -56 -5 -2 -10 -10
-10 -17 0 -38 -62 -34 -102 6 -9 9 -22 19 -27 20 -6 2 -14 20 -17 39 -7 32 -6
34 9 21 10 -7 16 -21 15 -30 -2 -11 6 -17 26 -19 41 -5 54 13 29 40 -11 13
-25 37 -32 55 -7 18 -24 39 -37 48 -26 17 -34 18 -50 7z"/>
<path d="M4456 15336 c-44 -58 -49 -83 -29 -138 16 -47 16 -49 -3 -75 -11 -16
-39 -37 -62 -47 -35 -16 -42 -24 -42 -48 0 -33 16 -36 62 -12 41 21 54 7 69
-69 9 -52 8 -61 -11 -92 -12 -19 -26 -35 -31 -35 -11 0 -49 38 -66 66 -11 19
-11 19 -27 -1 -22 -28 -20 -39 12 -73 30 -32 91 -46 128 -30 28 13 44 62 44
132 0 60 -9 86 -43 124 -30 33 -11 45 65 43 82 -2 94 -13 72 -72 -9 -24 -17
-51 -18 -59 -1 -8 -5 -22 -8 -30 -24 -66 -109 -342 -114 -370 -5 -33 -16 -70
-34 -115 -33 -84 -72 -221 -77 -269 -7 -64 -19 -68 -45 -15 -10 19 -31 43 -48
54 -35 23 -119 164 -127 213 -6 32 -38 52 -61 38 -16 -10 14 -117 37 -136 8
-6 41 -58 41 -64 0 -10 -64 -36 -69 -27 -3 5 -31 12 -62 16 -65 8 -79 -3 -55
-39 14 -22 20 -23 111 -21 106 2 105 2 145 -63 14 -22 41 -49 60 -59 28 -15
35 -25 35 -48 0 -20 6 -31 18 -33 29 -6 46 16 52 66 10 83 61 318 74 337 5 9
14 39 51 185 6 25 16 53 21 63 6 10 7 32 4 48 -4 18 -3 28 3 27 6 -2 10 1 10
6 0 5 4 12 9 15 5 3 17 35 27 71 23 80 34 116 52 157 8 17 14 41 14 53 0 12
14 35 30 50 34 32 39 70 11 87 -16 10 -22 9 -32 -3 -16 -20 -68 -13 -100 13
-41 33 -70 67 -66 77 2 6 1 20 -3 31 -8 22 12 71 32 77 15 5 1 28 -16 28 -8 0
-25 -15 -40 -34z"/>
<path d="M5530 15321 c-5 -11 -10 -35 -10 -53 0 -69 -52 -102 -84 -53 -14 21
-24 25 -65 25 -64 0 -87 -24 -83 -87 2 -45 24 -83 63 -111 14 -10 24 -11 31
-4 6 6 16 8 22 6 7 -3 22 16 35 41 13 27 29 45 39 45 25 0 70 56 77 93 16 97
3 150 -25 98z m-135 -200 c-3 -14 -14 -32 -23 -39 -14 -10 -18 -8 -30 14 -18
35 -11 49 27 50 30 1 32 -1 26 -25z"/>
<path d="M3596 15242 c-3 -5 -15 -34 -26 -66 -15 -40 -26 -56 -36 -52 -8 3
-14 1 -14 -4 0 -18 -18 -10 -23 10 -6 24 -29 26 -47 5 -11 -13 -8 -16 19 -21
52 -11 70 -74 31 -109 -26 -24 -25 -39 3 -52 29 -14 53 -1 61 32 8 30 24 31
72 6 38 -21 59 -19 68 6 8 21 4 26 -49 52 -26 13 -49 30 -52 38 -3 8 2 41 10
73 16 56 15 90 -3 90 -5 0 -11 -4 -14 -8z"/>
<path d="M5989 15094 c-11 -14 -10 -18 6 -30 57 -40 66 -55 63 -108 -3 -50 -4
-51 -36 -54 -21 -2 -38 -12 -48 -28 -9 -13 -24 -24 -34 -24 -48 0 -46 -69 4
-99 17 -11 45 -22 62 -25 25 -5 33 -1 44 18 7 15 10 36 6 52 -6 23 -1 33 33
65 49 44 51 65 15 146 -41 93 -83 125 -115 87z"/>
<path d="M5120 15009 c-22 -40 -24 -126 -5 -169 17 -39 20 -40 57 -36 22 3 60
17 85 31 54 30 63 31 63 6 0 -12 -11 -21 -32 -27 -31 -9 -33 -13 -33 -54 0
-38 3 -45 21 -48 33 -5 77 40 97 99 21 62 20 124 -3 125 -8 0 -23 4 -33 9 -13
5 -26 0 -45 -17 -53 -48 -103 -80 -117 -74 -16 6 -14 44 5 102 10 30 9 38 -6
55 -22 25 -41 24 -54 -2z"/>
<path d="M3489 14869 c-6 -12 -8 -36 -4 -56 l6 -36 68 5 c88 7 101 -1 101 -57
0 -24 -3 -50 -6 -59 -9 -24 -42 -19 -68 9 l-23 24 6 -35 c8 -47 49 -74 84 -55
36 19 61 74 59 134 -1 44 -5 55 -29 75 -20 16 -39 22 -65 20 -37 -2 -83 25
-72 43 3 5 -6 9 -20 9 -15 0 -30 -8 -37 -21z"/>
<path d="M4210 14724 c-8 -3 -25 -19 -37 -37 -36 -53 -32 -142 10 -217 22 -42
41 -63 61 -70 45 -16 60 -12 90 19 37 38 48 122 27 196 -13 47 -39 85 -59 85
-5 0 -15 7 -22 15 -12 14 -38 17 -70 9z m105 -107 c22 -48 7 -162 -24 -182
-13 -7 -64 29 -54 39 3 3 1 6 -7 6 -10 0 -10 3 0 15 7 8 19 15 27 15 23 0 34
43 15 58 -9 7 -22 10 -29 8 -18 -7 -27 12 -13 29 6 8 9 18 6 24 -6 9 13 18 46
20 10 1 23 -12 33 -32z"/>
<path d="M3399 14580 c-18 -11 -59 -83 -59 -104 0 -7 9 -21 20 -31 11 -10 20
-24 20 -31 0 -7 15 -29 32 -49 38 -41 81 -47 119 -16 19 16 24 29 25 82 3 80
-11 122 -47 143 -30 18 -85 21 -110 6z m99 -52 c7 -7 12 -39 12 -74 0 -48 -4
-63 -16 -68 -23 -9 -41 9 -47 47 -3 18 -9 44 -12 58 -5 20 -2 27 17 36 30 15
32 15 46 1z"/>
<path d="M4608 14353 c-28 -7 -34 -83 -7 -83 5 0 9 -5 9 -10 0 -33 97 -118
165 -146 46 -19 51 -24 60 -65 10 -47 44 -99 64 -99 7 0 21 -9 33 -20 22 -20
55 -26 73 -12 17 12 35 61 35 94 0 17 -9 45 -20 64 -12 18 -24 52 -28 76 -6
37 -11 43 -34 46 -14 2 -40 16 -58 32 -33 30 -67 46 -76 37 -3 -3 13 -22 34
-43 22 -22 42 -48 44 -59 3 -17 -3 -20 -46 -23 -27 -2 -52 0 -55 5 -3 4 -36
24 -73 43 -38 19 -68 40 -68 46 0 5 -8 19 -18 30 -26 28 -33 62 -15 79 15 15
12 16 -19 8z m362 -284 c17 -39 17 -84 1 -102 -20 -24 -71 1 -89 43 -8 19 -19
38 -25 41 -16 11 0 37 25 42 61 12 75 8 88 -24z"/>
<path d="M5940 14324 c-14 -7 -33 -14 -43 -14 -10 0 -27 -5 -37 -10 -14 -8
-21 -6 -28 6 -8 15 -11 15 -36 -1 -29 -19 -35 -55 -9 -55 9 0 14 -3 10 -6 -3
-4 0 -22 9 -42 18 -43 12 -51 -17 -23 -28 26 -39 27 -39 2 0 -26 10 -51 21
-51 5 0 28 -12 50 -26 44 -28 76 -28 93 -2 8 13 2 28 -27 71 -20 29 -37 58
-37 64 0 6 28 16 63 23 72 14 87 24 87 56 0 27 -20 30 -60 8z"/>
<path d="M4735 14320 c27 -12 43 -12 25 0 -8 5 -22 9 -30 9 -10 0 -8 -3 5 -9z"/>
<path d="M4780 14290 c0 -5 5 -10 10 -10 6 0 10 5 10 10 0 6 -4 10 -10 10 -5
0 -10 -4 -10 -10z"/>
<path d="M5060 14286 c0 -16 35 -31 63 -27 9 1 17 -3 17 -8 0 -6 4 -11 10 -11
5 0 29 -18 51 -40 46 -44 56 -48 61 -22 8 38 -4 60 -45 80 -65 31 -88 36 -98
21 -7 -11 -9 -10 -9 4 0 11 -8 17 -25 17 -15 0 -25 -6 -25 -14z"/>
<path d="M3365 14236 c-11 -9 -34 -16 -51 -16 -53 0 -68 -19 -62 -79 5 -48 3
-53 -19 -62 -13 -5 -27 -8 -31 -8 -4 1 -18 -2 -30 -6 -23 -8 -23 -10 -17 -78
7 -63 12 -76 53 -128 25 -33 51 -59 58 -59 7 0 14 -5 16 -10 2 -7 11 -5 23 4
19 14 19 16 3 43 -10 15 -30 49 -45 75 -15 26 -34 48 -42 48 -8 0 -11 3 -8 6
3 4 2 15 -4 25 -14 28 9 33 55 14 61 -26 95 1 67 53 -5 9 -12 36 -16 60 l-7
42 45 0 c51 0 70 16 65 57 -4 32 -25 40 -53 19z m-155 -190 c0 -3 -4 -8 -10
-11 -5 -3 -10 -1 -10 4 0 6 5 11 10 11 6 0 10 -2 10 -4z"/>
<path d="M5855 14050 c-4 -6 -5 -41 -4 -78 3 -74 -11 -112 -41 -112 -14 0 -20
7 -20 23 -1 58 -77 167 -117 167 -25 0 -63 -41 -63 -67 0 -53 60 -136 122
-169 55 -29 117 -11 145 42 17 33 20 135 4 177 -11 29 -16 32 -26 17z m-133
-120 c5 -34 -6 -50 -31 -43 -12 3 -18 15 -19 39 -1 29 2 34 22 34 19 0 25 -6
28 -30z"/>
<path d="M4684 13917 c-20 -18 -28 -35 -31 -74 -5 -45 -2 -56 31 -104 20 -30
36 -49 36 -44 0 5 11 -3 25 -18 14 -15 29 -27 33 -28 4 0 21 -2 37 -4 84 -12
133 58 139 195 1 40 -17 57 -22 20 -7 -55 -45 -148 -66 -162 -17 -12 -61 -9
-74 4 -16 16 -15 28 2 28 24 0 40 80 25 128 -14 49 -33 67 -76 75 -25 5 -39 1
-59 -16z m81 -57 c4 -6 4 -28 0 -49 -4 -27 -13 -42 -31 -49 -21 -10 -25 -8
-39 18 -12 23 -13 34 -4 54 15 31 61 47 74 26z"/>
<path d="M3827 13823 c-21 -3 -32 -13 -43 -39 -13 -31 -13 -40 1 -81 23 -67
49 -98 92 -111 90 -27 148 29 154 150 2 40 0 53 -11 53 -9 0 -19 -23 -27 -65
-15 -69 -50 -115 -78 -104 -17 7 -20 24 -5 24 6 0 10 25 10 57 0 45 -5 63 -26
90 -14 18 -28 32 -32 32 -4 -1 -20 -4 -35 -6z"/>
<path d="M5725 13740 c-3 -6 -26 -15 -50 -21 -55 -14 -63 -35 -33 -85 l22 -37
-25 7 c-13 4 -42 11 -64 15 -22 5 -53 14 -68 21 -24 12 -30 11 -44 -3 -22 -21
-6 -40 34 -39 15 0 37 -7 48 -14 11 -8 27 -14 37 -14 16 0 49 -13 117 -44 19
-9 26 -7 41 11 10 12 20 19 24 16 3 -4 6 -1 6 6 0 7 -13 26 -30 41 -40 37 -38
56 10 80 22 11 40 26 40 33 0 30 -50 51 -65 27z"/>
<path d="M3787 13560 c-15 -15 -27 -31 -27 -35 0 -4 -13 -20 -30 -35 -35 -33
-39 -65 -9 -81 16 -8 20 -17 16 -37 -4 -20 3 -35 24 -60 30 -33 35 -62 13 -69
-6 -2 -30 12 -54 32 -23 19 -45 35 -49 35 -4 0 -26 -17 -49 -38 -35 -32 -42
-45 -42 -76 0 -43 16 -85 54 -140 33 -49 53 -63 91 -62 40 1 56 34 53 113 -2
58 0 64 29 90 17 15 41 47 53 70 18 36 20 48 11 75 -6 18 -27 46 -46 61 -38
30 -45 62 -21 100 18 29 28 74 18 81 -5 3 -20 -8 -35 -24z m-98 -353 c6 -8 14
-29 17 -48 4 -19 11 -42 15 -51 11 -20 2 -48 -15 -48 -7 0 -27 16 -45 36 -29
31 -32 39 -23 62 6 15 13 35 16 45 6 20 19 22 35 4z"/>
<path d="M4620 13572 c-32 -11 -39 -51 -18 -109 10 -27 10 -38 0 -53 -19 -31
-15 -38 30 -60 56 -27 98 -27 98 0 0 21 -47 100 -60 100 -4 0 -12 12 -19 27
-10 21 -9 28 1 35 12 8 24 7 96 -8 37 -7 67 15 58 44 -8 24 -54 41 -65 24 -5
-9 -46 -10 -46 -2 0 5 -62 6 -75 2z"/>
<path d="M5480 13515 c-17 -21 -5 -45 23 -45 81 0 130 -32 118 -77 -6 -23 -14
-29 -43 -31 -25 -2 -39 -10 -48 -28 -13 -22 -11 -26 18 -51 20 -16 32 -35 32
-50 0 -33 -29 -42 -51 -15 -22 27 -45 28 -59 2 -9 -17 -7 -20 15 -26 14 -3 25
-12 25 -19 0 -14 50 -35 81 -35 11 0 19 5 19 10 0 6 7 10 15 10 15 0 19 17 15
78 -1 20 9 50 24 77 61 103 9 193 -120 209 -39 5 -54 3 -64 -9z m117 -351 c-3
-3 -12 -4 -19 -1 -8 3 -5 6 6 6 11 1 17 -2 13 -5z"/>
<path d="M3105 13480 c-13 -14 -26 -19 -42 -15 -32 8 -61 -47 -43 -81 11 -19
16 -21 34 -11 11 7 23 15 26 18 3 3 16 8 29 12 23 6 24 5 18 -58 -3 -45 -1
-70 9 -82 21 -29 35 -4 51 87 13 76 13 84 -5 113 -22 39 -52 45 -77 17z"/>
<path d="M4640 13220 c-8 -16 -21 -20 -60 -20 -57 0 -62 -11 -33 -61 18 -30
14 -39 -21 -52 -15 -5 12 -60 40 -80 61 -45 110 7 74 77 -14 29 -15 38 -5 46
8 6 19 10 27 9 47 -6 66 17 46 54 -11 22 -37 46 -50 47 -4 0 -12 -9 -18 -20z"/>
<path d="M2880 13131 c0 -5 -9 -13 -20 -16 -24 -8 -27 -25 -4 -25 8 0 12 -5 9
-10 -4 -6 -10 -8 -15 -5 -17 11 -21 -17 -6 -40 9 -13 16 -31 16 -39 0 -8 12
-23 26 -33 22 -17 26 -27 26 -70 0 -85 -6 -95 -60 -93 -26 2 -53 2 -59 1 -15
-1 -17 -57 -3 -66 6 -3 10 -17 10 -31 0 -21 -3 -23 -19 -14 -27 14 -51 13 -51
-3 0 -8 15 -30 33 -49 65 -72 135 -48 107 36 -11 33 -10 38 12 56 12 11 29 19
37 20 20 0 40 31 41 60 0 14 -6 50 -14 80 -12 46 -12 58 -1 70 7 8 15 26 17
40 3 24 6 25 63 22 32 -2 77 -10 100 -18 22 -7 61 -14 87 -14 50 0 68 -13 46
-33 -8 -6 -31 -27 -50 -46 -33 -31 -38 -32 -52 -18 -9 9 -16 20 -16 26 0 6
-11 11 -25 11 -20 0 -25 -5 -25 -25 0 -32 42 -75 73 -75 35 0 127 69 153 115
30 55 17 85 -38 85 -16 0 -28 5 -28 11 0 7 -10 9 -26 5 -26 -7 -119 8 -159 24
-11 5 -35 12 -53 15 -18 4 -38 12 -45 18 -34 32 -87 48 -87 28z"/>
<path d="M5202 13058 c-18 -18 -14 -35 13 -56 14 -11 25 -24 25 -30 0 -6 5
-12 12 -14 9 -3 9 -22 0 -79 -22 -151 -23 -164 -9 -183 10 -13 20 -16 36 -11
22 7 23 9 16 95 -5 62 -4 90 5 95 22 13 60 -5 76 -38 28 -53 54 -58 54 -10 0
32 -38 86 -56 79 -8 -3 -14 -1 -14 4 0 21 -56 99 -72 100 -9 0 -21 6 -25 13
-4 6 -17 20 -29 29 -16 14 -23 15 -32 6z"/>
<path d="M4303 12993 c-26 -5 -47 -28 -38 -43 9 -14 88 -13 103 2 9 9 8 16 -5
30 -16 18 -20 19 -60 11z"/>
<path d="M4497 12895 c-27 -7 -51 -16 -54 -19 -20 -20 76 -54 115 -40 32 11
41 43 16 61 -10 7 -20 13 -23 12 -3 0 -28 -7 -54 -14z"/>
<path d="M4328 12719 c-27 -33 -48 -67 -48 -75 0 -8 10 -25 23 -37 12 -13 27
-36 32 -52 9 -25 18 -31 58 -39 56 -10 113 -1 121 19 3 8 1 15 -4 15 -6 0 -9
6 -7 13 1 7 -10 12 -28 13 -16 1 -42 2 -57 3 -15 0 -39 11 -54 24 -22 19 -25
28 -19 55 3 18 13 32 20 32 11 0 25 20 29 40 1 3 5 11 9 18 10 14 1 32 -16 32
-7 -1 -33 -28 -59 -61z"/>
<path d="M5065 12727 c3 -7 19 -18 35 -26 17 -7 48 -30 69 -50 22 -21 54 -44
71 -51 17 -7 37 -18 43 -24 37 -36 69 -54 87 -49 37 10 23 41 -30 68 -27 14
-50 29 -50 35 0 5 -16 14 -35 21 -19 7 -35 16 -35 19 0 4 -27 21 -60 38 -63
33 -103 41 -95 19z"/>
<path d="M3448 12535 c-12 -16 -18 -42 -18 -78 0 -48 5 -60 38 -101 35 -45 39
-47 79 -43 32 3 50 13 74 38 50 54 62 76 55 105 -7 25 -8 26 -26 9 -11 -10
-20 -23 -20 -29 -1 -18 -37 -56 -53 -56 -11 0 -18 14 -22 48 -10 73 -19 96
-43 107 -12 5 -22 13 -22 17 0 17 -26 6 -42 -17z m57 -108 c0 -15 -4 -28 -9
-29 -14 -5 -30 28 -23 46 10 26 32 14 32 -17z"/>
<path d="M2548 12519 c-23 -13 -22 -28 3 -58 l20 -24 27 20 c16 12 27 30 27
44 0 19 -6 24 -30 26 -17 2 -38 -2 -47 -8z"/>
<path d="M5021 12472 c-5 -10 -13 -42 -17 -71 -4 -34 -16 -63 -31 -82 -14 -16
-22 -30 -19 -30 3 -1 12 -2 19 -3 8 -1 13 -23 15 -65 3 -68 31 -121 63 -121
25 0 30 25 14 71 -8 23 -15 50 -15 61 0 22 25 34 43 20 6 -5 26 -12 42 -16 17
-4 52 -18 78 -32 49 -25 87 -25 87 0 0 21 -20 33 -95 56 -38 11 -78 25 -87 31
-10 5 -26 9 -37 9 -34 0 -44 27 -43 111 0 43 -1 79 -3 79 -3 0 -9 -8 -14 -18z"/>
<path d="M2683 12473 c-22 -8 -14 -27 24 -55 43 -33 73 -36 80 -8 3 11 10 20
16 20 6 0 0 11 -13 25 -23 24 -72 33 -107 18z"/>
<path d="M4186 12443 c-49 -13 -66 -54 -54 -128 10 -64 17 -78 70 -139 33 -38
36 -39 65 -27 31 13 43 34 43 82 0 14 6 33 13 43 12 16 18 17 58 5 24 -6 88
-11 142 -10 95 2 97 1 97 -22 0 -31 -61 -90 -84 -81 -9 3 -23 19 -32 35 -17
34 -29 36 -44 8 -9 -16 -7 -30 9 -65 20 -41 24 -44 59 -44 44 1 89 36 133 102
52 78 31 128 -54 128 -26 0 -47 -5 -47 -10 0 -13 -143 -3 -180 12 -56 23 -76
37 -95 66 -11 17 -33 36 -49 41 -16 6 -29 10 -30 10 -1 -1 -10 -4 -20 -6z m65
-93 c28 -15 28 -134 0 -149 -22 -12 -39 4 -66 67 l-18 43 24 24 c28 27 33 29
60 15z"/>
<path d="M2716 12275 c-3 -10 -19 -15 -44 -15 -46 0 -62 -15 -59 -55 2 -25 -2
-30 -33 -36 -26 -6 -37 -4 -43 7 -12 22 -25 17 -43 -18 -10 -20 -14 -43 -11
-66 8 -49 -2 -89 -24 -95 -11 -3 -19 -14 -19 -27 0 -17 4 -20 20 -15 21 7 21
5 24 -60 2 -60 40 -76 59 -25 19 50 60 29 80 -41 14 -49 35 -57 53 -20 17 33
3 66 -54 123 -72 72 -73 75 -79 133 -7 66 1 69 76 30 34 -18 57 -24 75 -19 26
6 27 7 20 68 -4 33 -4 58 0 55 4 -4 26 -1 49 6 54 16 57 43 7 67 -44 21 -47
21 -54 3z"/>
<path d="M3450 12236 c-6 -8 -26 -16 -43 -18 -44 -4 -52 -41 -19 -85 15 -21
21 -39 17 -52 -7 -24 9 -58 39 -82 18 -15 21 -27 18 -85 -2 -67 -13 -94 -38
-94 -14 0 -17 11 -29 83 -3 20 -10 37 -15 37 -6 0 -10 7 -10 15 0 8 -7 15 -15
15 -9 0 -18 7 -21 15 -14 36 -73 8 -88 -41 -7 -22 16 -88 34 -99 6 -4 8 -10 5
-15 -3 -4 1 -10 9 -13 8 -3 24 -26 37 -51 25 -52 53 -60 84 -26 10 11 23 20
29 20 6 0 22 17 35 37 20 31 22 44 17 89 -6 48 -4 54 22 76 43 37 39 67 -18
129 -27 30 -50 60 -50 67 0 8 9 25 20 39 11 14 20 32 20 39 0 18 -24 18 -40 0z
m-103 -370 c3 -32 1 -37 -12 -32 -9 3 -19 6 -21 6 -3 0 -2 5 1 10 4 6 1 17 -5
25 -14 17 -4 37 17 33 10 -2 17 -17 20 -42z"/>
<path d="M4861 12137 c-23 -61 -32 -114 -34 -209 l-2 -102 30 0 c33 0 34 9 19
96 -3 21 -4 45 0 53 8 21 47 3 113 -52 28 -24 55 -43 60 -43 4 -1 23 -14 42
-30 l34 -29 -7 -68 c-4 -37 -12 -70 -18 -74 -6 -4 -1 -13 15 -24 27 -17 51
-12 44 8 -2 7 2 24 9 38 7 14 23 110 34 214 19 156 20 189 9 196 -22 13 -37
-12 -43 -71 -5 -62 -25 -160 -32 -160 -13 0 -44 22 -83 59 -23 22 -51 43 -62
46 -10 4 -19 10 -19 14 0 4 -18 14 -41 21 -39 13 -67 48 -48 60 5 3 10 21 11
39 4 41 -18 53 -31 18z"/>
<path d="M3825 11936 c-15 -22 -15 -27 -1 -53 27 -49 80 -100 120 -117 22 -9
69 -19 104 -21 36 -3 68 -7 70 -10 3 -3 0 -5 -6 -5 -21 0 -13 -54 14 -93 39
-58 92 -69 134 -27 19 19 35 70 22 70 -5 0 -7 13 -4 29 3 22 -4 38 -32 69 -33
36 -36 44 -30 81 4 28 3 41 -5 41 -6 0 -11 -4 -11 -8 0 -5 -11 -15 -25 -22
-19 -10 -28 -10 -38 -1 -12 9 -16 8 -21 -5 -4 -10 1 -22 11 -30 17 -12 15 -14
-14 -26 -18 -7 -33 -18 -33 -25 0 -22 -75 -15 -115 10 -73 45 -120 84 -118 98
1 8 5 26 9 42 8 34 -10 36 -31 3z m374 -177 c26 -28 35 -82 19 -109 -7 -11
-16 -20 -19 -20 -12 0 -36 35 -37 55 -1 11 -3 27 -4 35 -3 31 2 60 12 60 5 0
18 -9 29 -21z"/>
<path d="M3964 11931 c5 -7 33 -24 64 -39 32 -14 60 -28 65 -30 4 -2 7 1 7 7
0 13 -76 57 -114 67 -21 5 -27 4 -22 -5z"/>
<path d="M4787 11689 c-7 -25 11 -89 25 -89 4 0 10 -16 14 -35 3 -19 11 -39
18 -43 6 -4 18 -16 26 -26 14 -19 13 -19 -30 -12 -25 4 -55 14 -67 22 -47 30
-79 9 -88 -62 -6 -46 -4 -53 22 -80 44 -45 173 -163 173 -158 0 3 8 0 18 -5
27 -14 46 2 38 33 -3 14 -11 26 -16 26 -6 0 -10 6 -10 13 0 6 -27 40 -60 75
-33 34 -60 69 -60 76 0 21 29 15 58 -13 16 -14 35 -27 43 -29 8 -2 16 -8 17
-13 7 -17 29 -9 42 16 10 20 11 28 2 37 -7 7 -12 18 -12 26 0 8 -14 38 -32 66
-57 93 -69 118 -64 133 6 15 50 9 76 -11 45 -36 114 -47 124 -20 9 23 7 67 -3
83 -7 11 -13 7 -25 -18 -20 -37 -25 -38 -76 -6 -22 14 -62 27 -93 31 -51 6
-54 5 -60 -17z"/>
<path d="M2430 11615 c0 -14 -6 -35 -12 -48 -7 -12 -14 -24 -15 -25 -5 -10
-43 11 -43 24 0 18 -14 18 -29 0 -9 -11 -4 -20 27 -44 l39 -31 -13 -61 c-14
-70 -9 -100 17 -100 24 0 33 16 39 75 4 43 8 50 28 53 15 2 32 -7 51 -27 37
-40 64 -41 59 -3 -2 22 -14 33 -61 57 -73 37 -82 52 -62 99 17 39 13 56 -11
56 -8 0 -14 -10 -14 -25z"/>
<path d="M3350 11600 c-17 -14 -41 -20 -76 -20 -35 0 -56 -5 -65 -16 -13 -15
-24 -15 -90 1 -30 8 -59 -15 -59 -46 0 -16 7 -19 44 -19 48 0 104 -20 150 -55
42 -31 82 -39 90 -19 10 27 7 52 -9 58 -20 7 -19 25 2 33 35 14 63 47 63 75 0
33 -15 35 -50 8z"/>
<path d="M4101 11509 c-11 -13 -21 -26 -21 -31 0 -4 -9 -8 -20 -8 -15 0 -20
-7 -20 -30 0 -17 7 -33 17 -39 29 -16 6 -64 -36 -72 -18 -4 -36 -11 -41 -15
-7 -8 18 -74 51 -136 13 -26 11 -54 -6 -68 -11 -9 -18 -8 -36 8 -37 35 -70 37
-97 6 -31 -35 -23 -87 25 -166 31 -52 38 -58 68 -58 41 0 46 7 49 70 2 35 9
58 25 76 36 41 40 72 20 134 -20 61 -17 86 11 95 21 7 34 50 31 108 0 21 4 59
9 84 13 57 1 74 -29 42z m-126 -504 c0 -43 -29 -40 -33 3 -3 28 0 33 15 30 13
-2 18 -12 18 -33z"/>
<path d="M3046 11324 c-33 -34 -36 -84 -5 -84 11 0 33 8 47 18 15 10 34 17 42
17 8 -1 24 -3 36 -3 40 -3 68 -148 43 -221 -12 -34 -46 -42 -72 -17 -12 13
-17 13 -36 0 -27 -20 -27 -42 2 -53 13 -5 28 -16 35 -24 12 -14 11 -71 -1 -84
-4 -3 -27 8 -52 26 -43 31 -44 31 -55 11 -16 -31 8 -63 64 -84 45 -17 47 -17
81 4 35 22 40 35 35 102 -1 18 5 30 19 38 12 6 28 27 37 48 37 86 -19 299 -79
302 -5 0 -15 7 -23 15 -25 25 -87 19 -118 -11z"/>
<path d="M2386 11136 c-20 -67 -20 -68 1 -105 12 -20 28 -32 50 -36 41 -7 68
7 88 45 13 25 13 38 4 75 -14 54 -39 75 -91 75 -36 0 -37 -1 -52 -54z m94 -36
c0 -37 -25 -50 -45 -24 -19 26 -18 42 3 47 36 10 42 7 42 -23z"/>
<path d="M2183 10963 c-64 -12 -42 -165 36 -253 24 -27 33 -32 40 -21 5 7 14
11 20 7 7 -4 13 8 17 34 8 50 29 63 75 48 19 -6 63 -12 98 -12 80 -1 92 -15
68 -77 -28 -71 -33 -76 -55 -55 -11 9 -23 37 -27 62 -5 35 -10 44 -26 44 -17
0 -19 -7 -19 -57 0 -77 16 -106 64 -118 37 -9 40 -8 72 30 46 55 69 133 54
180 -6 19 -20 40 -30 45 -10 5 -58 9 -106 8 -80 -1 -94 2 -142 28 -40 22 -55
36 -59 57 -5 24 -38 59 -53 56 -3 -1 -15 -4 -27 -6z m55 -128 c16 -34 15 -75
-1 -75 -13 0 -37 53 -37 83 0 26 25 20 38 -8z"/>
<path d="M4624 10940 c-43 -17 -72 -80 -108 -235 -9 -38 -21 -74 -26 -79 -5
-5 -22 1 -42 16 -18 13 -41 27 -50 31 -10 3 -18 11 -18 16 0 5 -9 12 -19 16
-11 3 -24 20 -30 36 -6 18 -16 29 -23 27 -16 -6 -23 -48 -9 -48 6 0 11 -7 11
-14 0 -13 34 -43 142 -126 22 -17 26 -25 18 -40 -16 -29 12 -46 50 -30 24 10
37 10 56 1 35 -16 64 -14 71 5 8 20 -21 44 -53 44 -39 0 -48 23 -36 96 14 84
24 97 60 78 41 -21 67 -17 101 15 26 24 31 37 31 74 0 66 -14 94 -56 112 -41
17 -41 17 -70 5z m76 -97 c-1 -31 -21 -63 -39 -63 -16 0 -41 25 -41 40 0 28
22 50 50 50 26 0 30 -4 30 -27z"/>
<path d="M1964 10536 c-8 -11 -14 -28 -14 -38 0 -21 -4 -22 -32 -7 -23 12 -40
1 -44 -28 -5 -32 13 -50 45 -45 29 4 29 3 43 -59 13 -59 16 -64 43 -67 19 -3
33 2 41 13 16 21 34 11 34 -20 0 -16 7 -25 23 -29 33 -8 95 12 107 34 6 11 8
20 5 20 -4 0 3 13 15 30 20 28 20 31 4 55 -9 14 -19 25 -23 25 -17 0 -40 -28
-51 -65 -11 -34 -14 -37 -21 -20 -4 11 -8 29 -8 39 -1 20 -28 45 -49 46 -7 0
-10 -4 -7 -10 3 -5 -1 -10 -9 -10 -9 0 -16 -6 -16 -14 0 -7 -6 -19 -14 -25
-11 -9 -15 -8 -20 5 -10 27 -7 49 14 98 19 42 20 47 5 70 -19 29 -51 30 -71 2z"/>
<path d="M2892 10395 c-7 -14 -12 -32 -12 -39 0 -14 -39 -138 -46 -145 -3 -3
-18 10 -35 28 -28 31 -32 33 -55 21 -33 -18 -27 -30 29 -59 26 -13 49 -31 51
-40 3 -9 2 -42 -3 -74 -10 -75 -4 -107 20 -107 25 0 40 31 35 72 -3 18 -2 44
1 56 5 20 10 23 35 18 16 -3 36 -13 45 -21 20 -20 83 -1 83 25 0 10 -70 43
-77 36 -3 -3 -19 2 -35 12 -30 18 -45 52 -32 74 9 14 25 90 27 132 3 38 -16
44 -31 11z"/>
<path d="M3792 10392 c-6 -15 -16 -54 -23 -87 -10 -52 -13 -57 -24 -41 -8 10
-16 35 -20 55 -5 31 -12 40 -39 49 -51 19 -73 15 -98 -18 -47 -65 -9 -190 67
-216 39 -13 75 -11 75 6 0 4 10 10 23 14 28 7 45 50 49 123 2 29 6 53 11 53
10 0 9 78 -2 84 -5 3 -13 -7 -19 -22z m-120 -104 c5 -14 -13 -83 -25 -94 -9
-10 -36 26 -37 49 0 41 51 78 62 45z"/>
<path d="M2288 10308 c-7 -19 2 -38 18 -38 8 0 14 -4 14 -8 0 -4 13 -13 30
-19 35 -13 52 1 44 34 -9 35 -96 60 -106 31z"/>
<path d="M4417 10160 c-16 -5 -34 -14 -42 -20 -9 -8 -20 -8 -32 -1 -23 12 -38
3 -47 -25 -14 -44 12 -61 64 -41 17 7 39 10 57 8 8 -1 13 -30 15 -93 3 -85 5
-93 23 -93 18 0 20 7 22 85 1 47 2 92 4 100 5 35 -2 59 -21 65 -11 4 -18 11
-15 16 4 5 5 9 3 8 -2 0 -16 -5 -31 -9z"/>
<path d="M3670 9995 c-7 -8 -23 -15 -36 -15 -13 0 -35 -5 -49 -12 -21 -9 -26
-17 -22 -37 9 -48 -19 -66 -62 -39 -22 13 -49 5 -58 -18 -3 -9 2 -32 12 -52
22 -44 28 -89 15 -97 -18 -11 -11 -36 18 -64 22 -22 34 -27 60 -23 29 4 32 7
32 41 -1 20 -7 47 -15 61 -8 14 -14 28 -15 33 0 10 38 9 60 -3 30 -16 44 12
36 70 -6 48 -6 50 18 50 24 0 66 41 66 65 0 6 -11 21 -23 34 -21 19 -25 20
-37 6z"/>
<path d="M1732 9938 c-7 -7 -12 -20 -12 -31 0 -15 5 -17 28 -12 22 4 33 0 51
-19 21 -22 22 -26 8 -53 -9 -16 -19 -47 -22 -68 -13 -69 -19 -74 -67 -63 -24
6 -48 15 -55 20 -15 12 -33 2 -33 -18 0 -11 4 -12 19 -5 15 8 20 7 23 -7 3
-10 23 -24 47 -32 28 -9 41 -19 41 -32 0 -10 5 -18 12 -18 6 0 35 -16 64 -36
29 -20 57 -33 63 -30 20 13 11 38 -24 72 -19 18 -35 43 -36 56 -3 83 4 145 17
158 13 13 20 9 63 -37 51 -55 68 -63 77 -39 6 16 -22 76 -35 76 -4 0 -17 8
-29 18 -11 9 -33 26 -48 37 -15 11 -32 25 -38 31 -6 6 -24 15 -41 21 -16 6
-37 14 -45 17 -9 4 -21 1 -28 -6z"/>
<path d="M4190 9923 c0 -5 -14 -16 -30 -25 -19 -11 -30 -25 -30 -39 0 -28 32
-133 42 -137 12 -5 10 -42 -2 -42 -5 0 -10 -10 -11 -22 0 -13 -6 -39 -13 -58
-11 -29 -17 -34 -37 -32 -13 2 -25 8 -27 13 -2 5 -12 9 -21 9 -10 0 -28 9 -41
20 -12 11 -27 17 -31 14 -13 -8 -11 -44 2 -44 6 0 31 -13 56 -30 24 -16 51
-30 59 -30 19 0 18 -19 -6 -67 -23 -49 -18 -71 16 -69 18 1 29 12 44 44 21 45
34 50 64 27 20 -15 46 -5 46 18 0 18 -31 46 -46 40 -19 -7 -34 36 -34 99 l0
50 38 -7 c65 -12 77 -10 110 23 43 41 60 71 55 93 -6 21 -33 26 -33 6 0 -15
-55 -77 -69 -77 -18 0 -25 24 -26 88 -1 47 -7 69 -23 92 -12 16 -22 34 -22 40
0 5 -7 10 -15 10 -8 0 -15 -3 -15 -7z"/>
<path d="M2737 9869 c-4 -15 1 -23 21 -31 58 -22 57 -21 57 -103 0 -54 -4 -80
-12 -82 -9 -3 -13 10 -13 48 0 62 -22 89 -52 62 -26 -23 -25 -123 1 -147 29
-26 82 -30 108 -7 29 25 47 100 32 138 -6 15 -10 29 -10 31 1 1 -2 14 -5 30
-16 64 -114 112 -127 61z"/>
<path d="M3212 9508 c-7 -7 -12 -18 -12 -26 0 -18 52 -82 67 -82 23 0 43 -30
34 -53 -18 -48 15 -63 56 -25 22 21 23 21 63 3 23 -10 44 -25 49 -32 6 -11 18
-13 44 -8 30 6 37 12 37 31 0 26 -26 44 -62 44 -12 0 -42 7 -65 16 l-43 17 6
47 c8 60 -10 75 -41 37 -11 -15 -24 -27 -28 -27 -4 0 -23 16 -41 35 -37 38
-46 41 -64 23z"/>
<path d="M1611 9453 c-5 -27 -13 -64 -17 -83 -4 -19 -18 -57 -32 -85 -13 -27
-26 -66 -28 -85 -10 -98 -10 -95 15 -98 15 -2 21 0 17 7 -4 6 0 11 8 11 11 0
16 9 16 28 0 45 13 56 58 50 48 -7 85 -32 101 -70 19 -42 61 -30 61 17 0 25
-83 86 -142 104 -42 14 -65 59 -47 92 15 29 24 159 11 159 -5 0 -15 -21 -21
-47z"/>
<path d="M2500 9478 c-11 -12 -20 -25 -20 -30 0 -4 -14 -21 -31 -39 -27 -28
-30 -35 -24 -73 9 -53 17 -60 62 -59 26 1 51 -8 78 -26 48 -32 89 -42 139 -34
30 5 40 12 52 42 13 30 13 42 3 73 -14 45 -51 72 -85 64 -21 -6 -36 7 -44 36
-1 4 -4 16 -7 27 -11 41 -90 54 -123 19z m86 -40 c4 -7 6 -35 5 -62 -3 -52
-16 -80 -29 -60 -4 6 -15 13 -24 17 -14 5 -18 18 -18 56 0 30 5 51 13 54 22
10 46 7 53 -5z"/>
<path d="M4058 9263 c-38 -6 -50 -25 -55 -93 l-5 -60 31 -6 c17 -4 31 -11 31
-16 0 -5 7 -16 15 -25 8 -8 13 -18 10 -23 -9 -15 56 -23 81 -10 30 17 49 71
35 99 -6 11 -11 29 -11 41 0 34 -27 77 -54 84 -13 3 -30 7 -38 9 -7 2 -25 2
-40 0z m69 -63 c17 -26 26 -92 14 -109 -15 -22 -66 15 -79 57 -6 20 -10 37 -9
37 1 1 13 9 27 18 31 21 33 21 47 -3z"/>
<path d="M3411 9132 l-21 -41 -37 15 c-29 13 -41 13 -59 4 -66 -36 -57 -165
15 -225 37 -30 53 -34 82 -19 31 16 42 48 33 102 -4 29 -1 47 15 73 24 39 27
87 7 114 -13 18 -15 16 -35 -23z m-51 -156 c0 -38 -24 -56 -39 -28 -11 22 4
62 24 62 10 0 15 -10 15 -34z"/>
<path d="M1486 9059 c-15 -44 -38 -189 -39 -250 -2 -60 1 -73 18 -85 29 -22
39 -12 48 47 4 32 14 59 24 67 25 18 99 5 146 -26 l38 -26 -5 -65 c-3 -36 -8
-76 -12 -88 -9 -31 21 -42 46 -17 14 14 22 52 34 154 9 74 21 155 27 179 8 37
7 45 -8 56 -25 19 -33 7 -44 -71 -5 -38 -14 -73 -19 -78 -5 -5 -29 -1 -61 12
-70 30 -144 28 -151 -4 -2 -8 -8 -10 -16 -5 -16 10 -22 104 -9 154 7 27 6 42
-1 49 -8 8 -13 8 -16 -3z"/>
<path d="M4058 8909 c-23 -26 -29 -28 -52 -18 -20 9 -29 9 -41 -1 -11 -9 -18
-10 -28 -1 -11 8 -18 6 -32 -10 -19 -21 -19 -22 10 -91 5 -14 2 -18 -14 -18
-12 0 -21 6 -21 15 0 19 -7 19 -26 1 -18 -19 -18 -46 1 -46 8 0 16 1 18 3 2 1
20 -10 40 -25 19 -16 40 -28 45 -28 5 0 15 -6 21 -14 16 -19 61 -30 73 -18 13
13 -3 43 -45 85 -42 42 -69 85 -62 97 8 13 64 13 103 -1 47 -16 75 3 67 44
-11 53 -26 60 -57 26z"/>
<path d="M2470 8629 c0 -17 83 -89 103 -89 23 0 33 26 17 45 -13 16 -90 55
-108 55 -7 0 -12 -5 -12 -11z"/>
<path d="M1468 8606 c-13 -23 -3 -102 16 -131 7 -11 17 -39 20 -61 l7 -42 -45
-6 c-58 -9 -70 -24 -64 -86 4 -34 1 -53 -8 -61 -24 -20 19 -76 86 -113 19 -11
37 -22 40 -26 12 -14 75 -38 78 -30 2 6 12 10 23 10 36 0 18 24 -57 77 -47 33
-114 126 -114 156 0 24 4 27 35 27 26 0 39 -6 50 -24 21 -32 74 -52 81 -31 7
17 -13 82 -27 91 -6 3 -14 17 -20 31 -5 13 -13 21 -19 18 -6 -3 -10 4 -10 17
0 13 -11 46 -24 75 -27 57 -28 86 -3 91 24 5 75 -25 82 -48 3 -11 11 -20 17
-20 5 0 22 -9 38 -20 58 -41 58 25 0 88 -15 16 -32 22 -64 22 -23 0 -46 3 -49
7 -15 15 -59 8 -69 -11z"/>
<path d="M2092 8600 c-20 -32 -15 -76 11 -97 13 -10 26 -26 30 -35 4 -11 18
-18 34 -19 17 -1 21 -3 11 -6 -10 -2 -18 -8 -18 -13 0 -12 37 -23 50 -15 5 3
10 0 10 -7 0 -7 10 -18 22 -23 18 -8 25 -22 31 -64 7 -40 14 -55 28 -58 10 -3
19 -9 19 -14 0 -16 47 -10 69 9 17 13 23 30 25 74 3 46 10 64 35 95 38 46 44
103 11 103 -11 0 -20 -6 -20 -12 0 -7 -9 -24 -19 -37 -17 -22 -19 -22 -32 -7
-65 78 -136 126 -185 126 -13 0 -26 5 -29 10 -11 18 -69 11 -83 -10z m118 -34
c14 -8 40 -22 58 -32 44 -22 86 -83 70 -101 -18 -22 -92 -16 -120 10 -14 12
-36 31 -50 42 -14 11 -31 30 -37 43 -11 20 -10 26 6 38 23 17 42 17 73 0z
m152 -208 c9 -25 -4 -59 -21 -56 -29 6 -27 68 3 68 8 0 16 -5 18 -12z"/>
<path d="M2867 8572 c-70 -77 14 -181 161 -200 47 -6 57 -11 58 -27 1 -11 2
-39 3 -63 1 -31 8 -50 26 -68 14 -14 25 -31 25 -38 0 -15 59 -30 81 -21 15 6
37 48 44 84 2 12 -5 37 -16 56 -11 19 -18 39 -14 44 3 6 -6 28 -20 50 -14 23
-25 44 -25 49 0 8 -93 82 -104 82 -16 0 -4 -29 19 -44 32 -21 23 -43 -25 -56
-40 -11 -130 -3 -130 12 0 4 -11 13 -25 20 -13 6 -27 22 -30 38 -7 33 10 80
29 80 8 0 18 5 21 10 11 18 -61 11 -78 -8z m323 -204 c16 -17 20 -35 20 -89 0
-38 -5 -71 -11 -75 -21 -12 -57 17 -64 52 -3 19 -10 34 -15 34 -6 0 -9 11 -8
25 1 14 6 25 10 25 4 0 8 8 8 18 0 38 29 43 60 10z"/>
<path d="M2960 8580 c0 -5 5 -10 10 -10 6 0 10 5 10 10 0 6 -4 10 -10 10 -5 0
-10 -4 -10 -10z"/>
<path d="M3040 8530 c0 -5 7 -10 16 -10 8 0 12 5 9 10 -3 6 -10 10 -16 10 -5
0 -9 -4 -9 -10z"/>
<path d="M3634 8327 c-3 -8 4 -30 15 -48 24 -39 28 -89 8 -89 -16 0 -41 27
-51 54 -6 18 -8 18 -23 4 -29 -30 -5 -76 68 -130 29 -22 32 -22 60 1 20 16 23
26 21 79 -3 72 4 76 101 54 l67 -16 0 -78 c0 -43 4 -78 9 -78 5 0 13 -9 16
-20 11 -34 54 -50 107 -39 37 8 54 20 87 59 33 39 41 56 41 88 0 35 -4 43 -35
62 -46 29 -165 58 -236 58 -31 0 -65 5 -75 11 -19 9 -92 29 -147 38 -18 3 -29
-1 -33 -10z m413 -108 c21 -7 35 -19 42 -39 9 -26 6 -33 -20 -60 -17 -16 -38
-30 -48 -30 -52 0 -104 103 -69 138 11 11 33 9 95 -9z"/>
<path d="M2071 8234 c-37 -31 -43 -74 -10 -74 29 0 59 37 59 72 0 35 -10 35
-49 2z"/>
<path d="M2297 8144 c-15 -8 -36 -12 -46 -9 -21 6 -46 -18 -38 -39 3 -7 26
-17 51 -20 54 -8 97 13 89 44 -9 32 -25 40 -56 24z"/>
<path d="M2946 8111 c-23 -24 -28 -39 -33 -105 -7 -89 4 -119 53 -142 28 -13
35 -13 73 2 35 14 41 20 36 38 -5 15 -4 17 3 7 8 -10 14 -3 29 30 22 48 49
176 40 185 -11 12 -25 -7 -32 -43 -4 -21 -13 -51 -20 -68 -7 -16 -18 -45 -25
-62 -7 -18 -18 -33 -26 -33 -17 0 -37 70 -24 86 14 16 2 44 -16 37 -8 -3 -14
0 -14 6 0 6 7 11 15 11 21 0 19 43 -3 63 -24 22 -24 22 -56 -12z m36 -146 c2
-40 -1 -56 -11 -60 -8 -3 -19 -1 -25 5 -7 7 -6 10 3 10 7 0 9 5 5 12 -16 26
-5 88 16 88 4 0 10 -25 12 -55z"/>
<path d="M3590 7980 c-9 -21 -22 -31 -48 -37 -46 -11 -52 -35 -23 -92 12 -22
21 -43 21 -46 0 -3 -16 -13 -35 -21 -38 -16 -44 -37 -21 -70 8 -10 12 -29 9
-42 -6 -26 12 -52 36 -52 9 0 28 -13 43 -30 28 -32 65 -40 75 -15 3 9 -2 24
-11 34 -9 10 -16 23 -16 29 0 7 -4 12 -10 12 -5 0 -16 13 -25 30 -14 28 -14
30 12 54 25 23 26 27 15 64 -17 57 -15 65 18 84 33 19 39 48 19 92 -17 37 -45
40 -59 6z"/>
<path d="M2240 7910 c-15 -22 -30 -30 -51 -30 -16 0 -29 5 -29 10 0 22 -33 8
-70 -29 -61 -61 -54 -110 20 -141 52 -21 84 -4 91 49 5 40 20 60 45 61 26 0
46 39 40 75 -8 43 -18 44 -46 5z m-93 -96 c8 -21 -13 -64 -32 -64 -20 0 -31
46 -15 65 16 19 39 19 47 -1z"/>
<path d="M2986 7762 c-3 -5 -10 -39 -16 -76 -13 -81 -36 -142 -57 -150 -9 -4
-17 -5 -17 -4 -40 76 -86 177 -86 191 0 9 -7 17 -15 17 -17 0 -21 -58 -6 -88
30 -59 59 -128 55 -132 -3 -2 -9 2 -13 9 -5 7 -14 10 -20 7 -7 -5 -11 1 -11
13 0 25 -9 26 -36 7 -17 -14 -18 -17 -4 -42 23 -42 128 -102 168 -96 36 5 37
21 8 76 -16 32 -13 46 10 46 8 0 14 5 14 11 0 7 7 17 17 24 10 7 16 27 17 51
0 21 4 42 9 45 13 9 13 91 0 96 -6 2 -14 0 -17 -5z"/>
<path d="M1324 7708 c-16 -30 -22 -71 -29 -188 -1 -30 -12 -74 -24 -97 -11
-23 -21 -47 -21 -53 0 -14 -43 -13 -57 1 -15 15 -73 -7 -73 -27 0 -15 60 -44
90 -44 20 0 30 -19 30 -60 0 -16 7 -30 16 -34 19 -7 44 10 44 30 0 8 10 14 24
14 60 0 80 43 27 61 -38 13 -55 48 -45 90 4 19 7 37 6 42 -3 12 33 8 53 -7 16
-12 24 -11 59 9 58 33 70 99 40 220 -17 68 -25 75 -91 75 -26 0 -36 -6 -49
-32z m106 -119 c0 -73 -6 -89 -36 -89 -41 0 -44 82 -7 154 15 28 16 29 29 11
8 -11 14 -43 14 -76z"/>
<path d="M1866 7654 c-28 -16 -28 -17 -21 -77 9 -83 37 -143 71 -151 36 -9 75
10 109 56 33 44 52 44 46 2 -2 -16 -5 -56 -5 -89 -1 -55 1 -60 22 -63 18 -3
29 8 20 21 -1 1 4 13 11 26 16 30 26 195 11 186 -5 -3 -10 -1 -10 4 0 6 -7 11
-15 11 -8 0 -15 4 -15 9 0 5 -7 8 -15 7 -21 -3 -75 -44 -75 -58 0 -16 -40 -48
-61 -48 -28 0 -35 59 -13 115 15 40 15 48 3 56 -19 12 -29 11 -63 -7z"/>
<path d="M2741 7281 c-33 -31 -37 -53 -20 -98 34 -91 127 -112 167 -36 15 28
15 63 1 63 -7 0 -9 9 -6 21 6 23 -2 34 -45 62 -38 24 -61 21 -97 -12z m90 -64
c8 -29 1 -67 -11 -67 -38 0 -52 39 -29 81 13 26 31 20 40 -14z"/>
<path d="M3586 7133 c-4 -5 -14 -23 -21 -40 -16 -37 -30 -41 -65 -16 -17 12
-51 18 -111 21 -77 4 -92 2 -122 -17 -36 -22 -67 -73 -67 -110 0 -57 118 -111
194 -90 40 12 76 1 86 -26 5 -12 27 -32 49 -43 40 -21 42 -21 73 -3 60 33 60
99 2 178 -26 35 -25 66 3 110 19 29 2 58 -21 36z m-156 -86 c19 -8 43 -17 53
-20 15 -6 16 -10 7 -27 -6 -12 -23 -25 -37 -31 -14 -5 -39 -19 -55 -30 -41
-30 -125 -32 -141 -4 -28 48 -27 63 9 92 41 33 111 41 164 20z m144 -93 c17
-24 25 -88 12 -101 -9 -10 -66 -11 -60 -2 3 5 -2 16 -10 25 -20 20 -20 53 0
82 20 28 35 27 58 -4z"/>
<path d="M2653 7047 c-38 -19 -49 -61 -28 -107 10 -22 24 -40 31 -40 8 0 26
-13 41 -28 17 -18 43 -31 65 -35 32 -5 40 -2 50 16 6 12 11 35 10 50 -4 56
-60 136 -95 137 -10 0 -15 5 -12 10 8 13 -34 11 -62 -3z m101 -100 c5 -20 6
-40 2 -44 -15 -15 -41 15 -44 51 -3 32 0 37 15 34 11 -2 21 -17 27 -41z"/>
<path d="M1787 7023 c-4 -8 -41 -145 -56 -208 -4 -19 -14 -31 -27 -33 -11 -2
-25 -12 -32 -23 -11 -17 -9 -21 12 -30 21 -10 26 -21 31 -75 8 -75 -4 -120
-31 -117 -40 5 -64 -7 -64 -32 0 -21 6 -26 40 -31 22 -4 44 -12 49 -18 6 -7
12 -55 13 -107 3 -93 3 -94 28 -91 31 3 40 18 40 70 0 35 3 42 20 42 22 0 26
10 9 27 -8 8 -7 13 1 18 7 4 15 3 19 -2 9 -15 46 -24 65 -17 35 13 4 92 -38
95 -44 3 -57 8 -75 30 -26 30 -26 45 -1 71 14 15 17 25 10 39 -14 26 -12 59 4
65 8 3 33 -7 55 -21 43 -29 71 -28 71 3 0 23 -50 60 -90 69 -48 9 -58 32 -48
110 5 38 13 81 18 97 14 42 -6 101 -23 69z"/>
<path d="M1117 6964 c-4 -4 -7 -19 -7 -33 0 -55 -32 -202 -44 -198 -6 2 -24
-1 -40 -8 l-29 -12 36 -27 c30 -23 35 -33 32 -57 -3 -16 -7 -42 -10 -59 -3
-23 0 -32 16 -41 27 -14 39 -2 45 42 10 75 11 76 56 77 51 2 64 13 49 41 -12
21 -21 25 -53 22 -29 -3 -35 21 -39 140 -1 37 1 71 4 75 7 13 -7 46 -16 38z"/>
<path d="M2480 6755 c-20 -22 -22 -27 -10 -55 11 -28 16 -30 62 -30 57 0 99
-19 126 -57 21 -30 93 -73 121 -73 9 0 25 6 34 13 17 11 17 15 2 45 -10 20
-27 34 -43 38 -33 8 -125 53 -132 65 -12 17 -105 79 -121 79 -8 0 -26 -11 -39
-25z"/>
<path d="M3296 6710 c-38 -45 -33 -108 11 -155 10 -11 22 -27 25 -37 9 -22 79
-33 121 -19 38 13 50 32 67 106 9 39 9 57 0 80 l-12 30 -13 -35 c-8 -19 -14
-46 -14 -58 -2 -56 -73 -119 -105 -93 -7 6 -16 8 -19 4 -4 -3 -7 1 -7 11 0 9
-7 19 -15 22 -8 4 -15 18 -15 33 1 60 64 86 65 26 0 -35 24 -44 50 -19 32 33
-2 105 -56 116 -13 3 -31 9 -40 12 -11 5 -25 -3 -43 -24z"/>
<path d="M1003 6445 c-29 -20 -38 -62 -18 -91 8 -13 15 -30 15 -39 0 -9 11
-27 24 -40 13 -13 21 -26 18 -30 -3 -3 11 -21 31 -40 39 -37 74 -45 83 -20 4
8 12 15 20 15 8 0 14 9 14 20 0 11 5 20 10 20 7 0 7 6 0 19 -5 11 -10 28 -10
39 0 11 -18 46 -40 79 -52 79 -100 101 -147 68z m117 -85 c0 -9 4 -20 9 -25 8
-9 16 -71 12 -102 -2 -19 -17 -16 -43 10 -18 17 -22 31 -20 60 2 28 -1 37 -12
37 -8 0 -18 -5 -21 -11 -5 -6 -13 -3 -22 11 -15 22 -14 27 27 70 14 15 17 14
43 -9 15 -14 27 -33 27 -41z"/>
<path d="M3143 6423 c-7 -18 29 -53 53 -53 16 0 130 -37 155 -50 9 -6 32 -5
53 1 30 8 37 14 34 32 -3 20 -9 22 -63 23 -54 0 -158 34 -182 58 -12 12 -44 6
-50 -11z"/>
<path d="M2760 6258 c-18 -66 -57 -126 -100 -153 -49 -31 -69 -31 -100 -2 -14
12 -29 22 -34 22 -5 0 -11 18 -13 41 -3 31 1 45 16 58 19 17 20 17 40 -3 12
-12 21 -29 21 -39 0 -14 8 -19 30 -20 25 -1 30 3 30 22 0 23 -28 56 -47 56 -6
0 -13 6 -16 14 -7 17 -72 40 -92 32 -23 -9 -34 -68 -22 -122 13 -55 46 -92 89
-101 16 -3 31 -10 34 -14 7 -12 44 -11 44 1 0 6 8 10 18 10 29 0 81 38 88 64
3 13 12 27 20 30 8 3 14 14 14 24 0 11 7 37 16 58 11 26 13 39 5 42 -6 2 -9 8
-5 13 3 5 -2 9 -10 9 -9 0 -19 -16 -26 -42z"/>
<path d="M3112 6240 c-28 -27 -28 -48 1 -59 28 -11 36 -4 39 38 4 41 -10 48
-40 21z"/>
<path d="M1840 6228 c1 -13 2 -38 1 -55 -1 -39 -22 -43 -61 -13 -14 11 -35 20
-47 20 -27 0 -29 -21 -11 -100 11 -48 10 -54 -7 -66 -23 -17 -28 -8 -39 75 -6
42 -4 55 9 65 13 10 12 14 -8 39 -28 35 -52 28 -68 -20 -18 -55 -6 -106 37
-158 45 -56 65 -68 100 -59 29 7 44 38 44 90 0 32 2 34 33 34 49 0 72 21 72
67 0 21 -7 53 -14 71 -15 37 -43 44 -41 10z"/>
<path d="M3251 6174 c-21 -18 -23 -24 -13 -37 30 -35 115 -26 128 15 15 48
-67 63 -115 22z"/>
<path d="M2288 6113 c-16 -19 -29 -123 -33 -270 -3 -96 8 -115 49 -88 22 14
24 22 20 63 -2 28 -11 52 -21 59 -19 15 -18 17 23 31 39 13 230 9 265 -5 36
-16 89 -79 89 -108 0 -41 -35 -67 -83 -63 -34 2 -42 0 -45 -16 -5 -23 33 -55
63 -56 21 0 49 17 91 57 64 59 -9 199 -125 240 -20 7 -78 15 -130 18 -51 2
-101 7 -111 10 -19 6 -20 31 -5 108 7 33 5 37 -12 37 -11 0 -27 -8 -35 -17z"/>
<path d="M904 6063 c-4 -16 -17 -41 -30 -56 -35 -42 -41 -92 -16 -135 24 -43
63 -57 101 -39 24 12 26 17 24 75 -1 56 1 62 18 62 11 0 33 -7 48 -15 33 -17
41 -47 33 -124 -6 -59 9 -81 53 -81 31 0 105 75 105 106 0 38 -27 83 -55 90
-13 3 -29 12 -36 20 -6 8 -22 14 -35 14 -13 0 -24 5 -24 10 0 6 -6 10 -13 10
-20 0 -75 29 -84 44 -11 17 -55 46 -70 46 -7 0 -16 -12 -19 -27z m32 -128 c11
-46 -17 -78 -31 -35 -7 23 2 60 15 60 6 0 12 -11 16 -25z m232 -63 c4 -24 -7
-29 -26 -10 -18 18 -15 40 6 36 9 -2 18 -13 20 -26z"/>
<path d="M3148 5978 c-33 -27 -61 -90 -51 -115 9 -23 28 -43 42 -43 6 0 11 -6
11 -14 0 -7 18 -26 40 -41 36 -25 43 -27 65 -15 29 15 38 48 29 106 -4 30 -3
44 5 44 18 0 51 39 51 60 0 27 -25 36 -55 20 -23 -12 -34 -10 -95 14 -8 3 -27
-4 -42 -16z m71 -95 c21 -75 6 -94 -40 -50 -24 22 -27 50 -7 75 19 22 37 13
47 -25z"/>
<path d="M1607 5873 c-15 -2 -31 -12 -37 -22 -12 -23 -2 -87 16 -102 21 -18
17 -39 -9 -39 -12 0 -37 4 -56 10 -54 15 -81 4 -81 -34 0 -18 6 -38 12 -44 10
-10 10 -17 0 -32 -15 -24 -16 -50 -2 -50 6 0 19 -9 30 -20 11 -11 31 -20 44
-20 13 0 35 -9 49 -20 14 -11 30 -20 36 -20 7 0 23 -7 36 -16 30 -20 55 -12
55 16 0 23 -22 50 -39 50 -6 0 -11 7 -11 15 0 8 -4 15 -8 15 -4 0 -25 16 -46
35 -21 19 -42 35 -47 35 -5 0 -9 5 -9 11 0 13 83 4 112 -12 23 -12 48 -1 48
22 0 10 -13 47 -30 81 -16 34 -30 67 -30 75 0 17 31 17 56 -2 29 -22 53 -18
66 11 11 23 10 28 -7 41 -11 8 -32 13 -47 10 -16 -2 -28 0 -28 5 0 8 -22 8
-73 1z"/>
<path d="M3040 5633 c-30 -15 -35 -24 -38 -57 -2 -21 1 -43 7 -49 21 -21 12
-48 -19 -59 -34 -11 -49 -50 -30 -73 7 -9 10 -26 6 -41 -5 -20 -3 -27 14 -31
11 -3 20 -9 20 -13 0 -11 59 -47 91 -55 25 -6 27 -4 25 24 -1 20 -14 43 -40
70 -42 43 -41 61 3 61 62 0 61 49 -1 108 -24 22 -23 49 3 62 15 9 30 7 64 -6
51 -19 95 -13 95 15 0 22 -32 38 -90 44 -25 3 -52 8 -60 11 -8 3 -31 -2 -50
-11z"/>
<path d="M2420 5567 c-8 -7 -23 -27 -34 -46 -16 -28 -16 -37 -5 -57 7 -13 16
-24 21 -24 5 0 7 -4 3 -9 -3 -6 5 -15 17 -22 13 -7 28 -18 33 -25 6 -7 22 -16
36 -19 29 -7 46 8 58 51 4 17 20 34 38 43 35 17 48 48 31 68 -12 15 -40 17
-53 4 -6 -5 -27 -13 -47 -16 -37 -7 -44 -2 -39 28 2 10 -25 37 -36 37 -4 0
-15 -6 -23 -13z"/>
<path d="M993 5321 c6 -23 -9 -90 -23 -105 -5 -5 -16 7 -26 28 -10 20 -23 36
-30 36 -6 0 -17 7 -24 15 -16 19 -49 19 -75 -1 -16 -12 -20 -27 -20 -79 0 -58
2 -65 29 -87 16 -12 37 -26 45 -29 13 -5 9 -12 -16 -35 -34 -31 -32 -56 4 -59
47 -4 59 -16 86 -85 39 -101 31 -123 -52 -132 -33 -4 -51 -35 -31 -51 17 -14
40 -61 40 -82 0 -19 -66 -21 -72 -3 -7 19 -38 -16 -38 -41 0 -21 8 -24 73 -34
65 -10 117 28 103 75 -18 58 -16 67 25 108 39 38 41 43 35 83 -4 23 -10 44
-14 47 -4 3 -13 23 -21 45 -7 22 -24 54 -37 72 -31 41 -30 65 4 90 34 25 64
105 66 180 1 49 -2 58 -18 61 -15 3 -18 0 -13 -17z m-108 -122 c-10 -15 -25
-10 -19 6 4 8 10 12 15 9 5 -3 7 -10 4 -15z"/>
<path d="M2158 5325 c-32 -18 -48 -44 -48 -79 0 -22 -5 -26 -29 -26 -33 0 -81
-43 -81 -72 0 -53 44 -98 155 -157 43 -24 93 -56 110 -72 81 -75 96 -83 114
-52 12 22 -13 73 -34 73 -9 0 -36 19 -61 42 -50 46 -56 81 -15 86 20 3 22 8
17 35 -4 17 -23 47 -44 67 -94 89 -78 115 45 75 64 -21 99 -39 132 -69 25 -23
48 -44 51 -48 3 -4 17 -9 30 -10 19 -2 26 2 28 18 2 14 -13 35 -50 68 -29 26
-71 64 -93 84 -36 34 -45 37 -100 38 -33 1 -69 4 -80 7 -11 4 -32 0 -47 -8z"/>
<path d="M1661 4881 c-21 -13 -2 -80 30 -109 16 -14 29 -31 29 -38 0 -15 63
-30 79 -19 12 7 15 45 4 45 -14 0 -78 64 -92 92 -16 30 -32 40 -50 29z"/>
<path d="M2990 4821 c-5 -11 -10 -32 -10 -48 0 -53 -26 -117 -53 -133 -33 -18
-41 -9 -39 41 2 33 -2 45 -28 70 -16 17 -30 35 -30 41 0 6 -7 7 -16 4 -8 -3
-12 -2 -9 4 13 21 -25 9 -39 -12 -19 -27 -20 -52 -4 -81 7 -12 13 -30 15 -40
3 -21 26 -47 41 -47 5 0 17 -9 28 -21 15 -16 25 -19 54 -14 19 4 40 11 45 15
6 5 14 8 19 7 14 -3 53 80 60 126 7 43 -2 107 -15 107 -4 0 -13 -9 -19 -19z"/>
<path d="M1541 4591 c-6 -11 -11 -26 -11 -35 0 -23 -31 -23 -80 0 -70 33 -112
44 -172 44 -67 0 -96 -20 -104 -70 -5 -30 -1 -40 29 -72 36 -38 106 -68 160
-68 30 0 34 -4 45 -42 14 -50 33 -74 87 -111 46 -31 80 -35 94 -9 5 9 13 15
18 12 4 -3 12 7 17 22 9 27 -6 100 -26 123 -4 5 -8 16 -8 25 0 8 -9 26 -19 39
-18 24 -18 26 1 70 10 24 18 54 16 65 -4 28 -34 32 -47 7z m-169 -20 c15 -3
38 -16 52 -28 15 -13 31 -23 36 -23 6 0 10 -11 10 -24 0 -19 -7 -26 -31 -31
-17 -4 -33 -13 -35 -20 -11 -27 -148 11 -170 47 -8 13 -7 65 2 79 6 10 95 10
136 0z m171 -171 c10 -19 21 -57 24 -85 4 -42 2 -53 -11 -58 -25 -10 -54 13
-76 59 -26 53 -25 88 3 107 29 21 37 17 60 -23z m-113 -10 c0 -5 -4 -10 -10
-10 -5 0 -10 5 -10 10 0 6 5 10 10 10 6 0 10 -4 10 -10z"/>
<path d="M2633 4602 c-11 -7 -16 -25 -14 -51 1 -11 13 -13 56 -8 49 5 59 3 84
-19 16 -13 36 -45 45 -71 15 -43 15 -47 -2 -59 -9 -8 -28 -16 -42 -20 -14 -3
-32 -9 -40 -13 -18 -9 -26 -51 -11 -51 6 0 11 -6 11 -13 0 -7 10 -17 22 -22
11 -6 28 -20 36 -32 21 -34 -5 -39 -61 -14 -25 12 -51 21 -56 21 -6 0 -32 13
-58 29 -26 17 -49 29 -50 27 -1 -1 0 -18 3 -38 6 -34 9 -36 78 -58 39 -13 76
-26 81 -31 6 -4 29 -14 53 -22 38 -13 46 -13 72 0 44 21 36 82 -16 130 l-26
24 29 21 c51 40 60 70 39 131 -31 92 -174 177 -233 139z"/>
<path d="M1895 4522 c-32 -7 -41 -19 -79 -98 -41 -85 -43 -95 -18 -111 24 -14
35 -7 52 37 19 48 50 91 60 85 5 -3 17 -23 27 -43 41 -89 86 -121 124 -86 27
24 24 43 -8 50 -35 8 -73 42 -73 64 0 23 -26 74 -47 92 -10 8 -27 13 -38 10z"/>
<path d="M2291 4294 c-29 -37 -28 -72 4 -80 51 -13 72 36 36 82 l-19 24 -21
-26z"/>
<path d="M871 4271 c-6 -11 -11 -26 -11 -34 0 -13 -77 -37 -120 -37 -10 0 -20
-10 -23 -22 -6 -23 14 -81 32 -92 18 -12 13 -44 -10 -60 -40 -28 -6 -39 84
-27 14 2 7 35 -20 88 -26 51 -27 55 -10 67 9 7 27 11 40 9 15 -3 32 4 50 21
23 21 28 33 25 63 -3 42 -22 54 -37 24z"/>
<path d="M1447 4183 c-3 -5 -8 -42 -12 -83 -7 -71 -32 -150 -47 -150 -18 0
-18 23 1 36 20 14 20 18 7 42 -8 15 -20 42 -26 60 -11 28 -17 32 -51 32 -29 0
-39 -5 -44 -21 -20 -63 39 -192 94 -204 68 -15 97 38 105 190 5 87 4 105 -8
105 -8 0 -17 -3 -19 -7z"/>
<path d="M622 3983 c-7 -3 -18 -17 -26 -31 -20 -41 7 -141 50 -184 92 -92 153
-122 168 -83 3 8 12 15 20 15 21 0 29 34 20 93 -4 29 -7 55 -6 60 1 4 -3 7 -8
7 -6 0 -10 9 -10 20 0 11 -7 20 -15 20 -17 0 -20 -36 -4 -46 7 -4 10 -27 7
-62 -4 -43 -10 -58 -29 -72 -16 -13 -29 -16 -40 -10 -9 5 -19 6 -23 3 -3 -3
-6 1 -6 10 0 8 -10 24 -22 34 -35 28 -53 73 -49 121 1 8 10 12 24 10 18 -2 23
-10 25 -45 3 -44 30 -72 53 -57 15 9 5 81 -15 103 -9 10 -16 25 -16 34 0 40
-58 76 -98 60z"/>
<path d="M2068 3983 c-47 -11 -62 -134 -18 -148 37 -12 87 6 126 46 42 43 58
48 73 22 12 -23 -3 -62 -40 -95 -32 -29 -37 -55 -14 -64 27 -11 63 24 96 91
l32 64 -18 40 c-23 51 -57 61 -114 32 -22 -12 -45 -30 -51 -41 -16 -30 -37
-25 -32 8 4 31 -13 51 -40 45z"/>
<path d="M1170 3815 c0 -23 6 -40 36 -112 8 -17 17 -45 20 -62 4 -17 13 -36
20 -42 8 -6 14 -15 14 -20 0 -16 -26 -9 -81 21 -35 19 -62 27 -76 23 -17 -4
-23 -1 -23 12 0 24 -34 14 -38 -12 -3 -18 3 -22 50 -28 73 -10 158 -75 158
-121 0 -17 7 -53 15 -80 20 -67 20 -134 -1 -134 -19 0 -56 19 -66 34 -4 6 -8
36 -8 67 0 33 -6 63 -15 75 -14 19 -15 18 -35 -6 -24 -30 -25 -52 -4 -92 14
-27 19 -96 15 -197 -1 -24 -9 -25 -53 -6 -12 5 -21 -2 -33 -25 -16 -32 -17
-32 -31 -11 -9 12 -12 26 -9 31 4 6 -8 10 -29 10 -34 0 -36 -2 -36 -35 0 -19
5 -35 10 -35 6 0 10 -7 10 -15 0 -8 9 -20 20 -27 11 -7 20 -18 20 -24 0 -17
51 -33 84 -27 17 4 26 11 25 22 -5 29 12 60 41 78 39 22 41 33 28 98 -12 62
-7 76 20 52 21 -19 49 -21 86 -7 24 9 26 14 26 70 0 43 -7 74 -24 109 -25 53
-21 63 25 55 13 -3 30 0 38 5 12 8 11 17 -10 56 -13 26 -33 56 -45 68 -29 31
-94 165 -94 196 -1 29 -21 61 -39 61 -6 0 -11 -11 -11 -25z m-100 -764 c0 -5
-7 -11 -15 -15 -9 -3 -15 0 -15 9 0 8 7 15 15 15 8 0 15 -4 15 -9z"/>
<path d="M1385 3740 c-14 -22 -25 -46 -25 -54 0 -8 -7 -16 -15 -20 -8 -3 -15
-15 -15 -26 0 -19 2 -20 15 -6 9 8 22 13 29 10 14 -5 57 44 70 80 9 25 -2 56
-20 56 -7 0 -25 -18 -39 -40z"/>
<path d="M1810 3745 c-22 -26 16 -84 65 -101 22 -7 41 -18 43 -24 2 -5 8 -10
14 -10 23 0 138 -57 153 -75 9 -11 16 -9 35 5 35 27 18 50 -51 71 -74 22 -168
76 -202 116 -32 37 -39 39 -57 18z"/>
<path d="M705 3578 c-57 -30 -68 -43 -60 -78 6 -26 4 -30 -15 -30 -11 0 -34 7
-51 15 -26 14 -31 14 -44 1 -8 -8 -20 -16 -26 -18 -7 -2 -9 -12 -5 -26 5 -16
15 -22 36 -22 15 0 63 -7 105 -16 70 -15 79 -15 93 0 14 14 14 19 -1 52 -18
36 -17 36 8 60 27 24 34 69 12 77 -7 2 -30 -4 -52 -15z"/>
<path d="M2667 3482 c-35 -39 -17 -72 39 -72 20 0 24 5 24 28 0 16 -8 36 -18
45 -23 21 -25 21 -45 -1z"/>
<path d="M1805 3323 c-15 -28 -24 -56 -21 -69 8 -31 85 -114 106 -114 49 0 81
43 58 80 -15 24 3 48 39 52 33 4 54 35 34 47 -8 5 -45 12 -82 16 -44 5 -69 12
-73 21 -10 27 -34 14 -61 -33z m93 -62 c5 -34 -6 -71 -22 -71 -20 0 -39 45
-32 75 9 34 49 32 54 -4z"/>
<path d="M2339 3299 c-16 -30 -4 -73 33 -125 29 -40 36 -45 68 -42 28 2 38 9
50 35 8 18 20 34 26 37 6 2 48 -3 93 -11 l83 -15 -6 -29 c-8 -39 8 -76 49
-116 28 -27 40 -32 67 -29 46 6 89 27 81 39 -4 6 -1 7 6 2 13 -7 33 15 59 64
16 31 15 83 -2 107 -13 18 -28 19 -198 20 -171 0 -186 2 -233 24 -27 13 -52
27 -55 30 -10 13 -35 17 -52 8 -13 -6 -18 -5 -18 7 0 23 -38 18 -51 -6z m91
-70 c0 -24 -23 -21 -28 4 -2 10 3 17 12 17 10 0 16 -9 16 -21z m460 -54 c13
-15 5 -55 -12 -55 -5 0 -21 -9 -35 -20 -36 -28 -49 -25 -88 17 -48 53 -32 66
86 71 22 1 42 -4 49 -13z"/>
<path d="M493 3253 c-19 -7 -16 -54 5 -69 9 -7 37 -14 62 -14 59 0 68 -8 79
-63 8 -46 8 -47 -17 -47 -13 0 -30 7 -36 14 -6 8 -23 18 -38 22 -42 9 -36 -17
13 -63 22 -21 47 -54 56 -73 69 -153 75 -174 59 -196 -17 -23 -49 -14 -112 34
-70 52 -109 68 -129 52 -29 -24 -16 -48 45 -89 109 -73 228 -85 250 -25 20 50
-30 184 -69 184 -11 0 -11 3 -2 14 10 12 8 19 -9 36 -17 17 -18 24 -9 41 6 12
19 24 29 26 13 3 19 17 22 44 2 21 0 39 -4 39 -5 0 -8 10 -8 23 0 12 -7 31
-15 41 -8 11 -15 16 -15 11 0 -5 -9 1 -20 13 -12 12 -33 22 -48 22 -15 0 -36
7 -46 15 -21 16 -24 16 -43 8z"/>
<path d="M993 3153 c9 -2 23 -2 30 0 6 3 -1 5 -18 5 -16 0 -22 -2 -12 -5z"/>
<path d="M1556 3038 c-19 -27 -9 -39 35 -41 25 -2 34 3 37 16 9 44 -46 63 -72
25z"/>
<path d="M2404 2995 l-14 -34 -77 2 c-77 2 -78 2 -75 -23 1 -13 11 -34 22 -45
21 -23 26 -45 10 -45 -19 0 -10 -47 13 -68 24 -22 43 -27 71 -16 20 8 21 60 1
94 -20 34 -19 40 9 40 49 0 86 21 95 53 6 22 5 35 -4 42 -6 6 -10 16 -8 23 3
6 -3 12 -12 12 -9 0 -22 -15 -31 -35z"/>
<path d="M1704 2989 c-17 -19 -17 -21 8 -44 26 -24 37 -28 75 -26 15 1 25 9
29 26 8 32 7 33 -49 50 -42 13 -47 12 -63 -6z"/>
<path d="M892 2909 c-42 -16 -72 -66 -72 -119 0 -16 -4 -32 -10 -35 -27 -17
-1 -58 63 -98 16 -10 36 -25 45 -33 37 -33 108 -74 130 -74 17 0 22 6 22 28 0
23 -9 33 -55 61 -81 49 -82 52 -35 106 22 25 40 55 40 65 0 63 -74 121 -128
99z m52 -62 c15 -11 17 -19 9 -42 -7 -23 -15 -29 -39 -30 -22 0 -30 5 -32 22
-4 27 14 63 31 63 7 0 21 -6 31 -13z"/>
<path d="M1555 2849 c-15 -16 -20 -38 -21 -103 l-2 -84 46 -7 c86 -13 132 -14
132 -1 0 11 -12 24 -74 81 -26 24 -28 30 -22 75 5 38 3 49 -10 54 -24 9 -29 8
-49 -15z"/>
<path d="M2061 2664 c-16 -20 -18 -30 -10 -40 6 -8 15 -12 19 -9 5 3 10 1 12
-5 7 -20 29 8 35 43 5 33 3 37 -15 37 -11 0 -30 -12 -41 -26z"/>
<path d="M2225 2650 c-5 -8 79 -71 94 -70 4 0 14 7 24 15 25 18 18 47 -13 56
-38 11 -98 10 -105 -1z"/>
<path d="M1277 2612 c-15 -15 -27 -34 -27 -42 0 -18 40 -100 49 -100 4 0 15
-14 25 -30 16 -29 68 -68 108 -83 28 -10 64 28 73 75 13 77 14 89 5 114 -10
25 -34 32 -46 13 -3 -6 -8 -36 -10 -66 -3 -64 -16 -83 -42 -66 -14 9 -16 23
-14 79 3 64 1 71 -26 102 -35 39 -60 41 -95 4z"/>
<path d="M2214 2449 c-50 -12 -69 -46 -58 -104 7 -37 6 -38 -17 -30 -13 4 -46
8 -74 9 l-50 1 0 -60 c0 -49 -3 -60 -17 -63 -10 -2 -18 1 -18 7 0 7 -11 17
-25 23 -13 6 -27 19 -30 28 -5 15 -10 16 -30 6 -34 -15 -31 -32 10 -52 19 -9
35 -20 35 -25 0 -5 14 -15 30 -24 36 -19 39 -50 9 -89 -27 -34 -19 -56 22 -56
25 0 33 6 42 30 16 42 35 45 67 10 31 -33 55 -38 64 -14 10 27 7 33 -26 48
-51 23 -63 37 -77 93 -19 79 -5 89 84 52 40 -16 56 -18 78 -10 34 13 34 27 -4
95 l-30 56 22 9 c13 4 34 4 49 -2 59 -22 85 29 30 58 -32 17 -29 17 -86 4z"/>
<path d="M1500 2200 c-24 -24 -25 -66 -4 -120 16 -40 17 -41 63 -38 50 3 46 9
50 -67 1 -11 6 -27 11 -35 9 -13 14 -11 34 12 20 22 23 34 18 75 -7 67 -20 92
-72 139 -58 53 -76 58 -100 34z"/>
<path d="M1884 1875 c-21 -21 -24 -31 -19 -56 6 -25 3 -34 -14 -45 -25 -18
-27 -37 -6 -61 9 -10 29 -35 46 -55 34 -41 54 -46 99 -23 36 19 44 48 37 126
-4 44 -12 67 -31 90 -14 17 -26 35 -26 40 0 20 -61 9 -86 -16z m86 -91 c0 -24
-4 -34 -12 -32 -24 8 -22 68 2 68 5 0 10 -16 10 -36z"/>
<path d="M1680 1510 c-8 -6 -31 -10 -50 -9 -63 2 -70 0 -70 -21 0 -11 6 -20
14 -20 7 0 25 -11 40 -25 15 -14 30 -25 33 -25 4 0 16 -8 27 -19 12 -10 34
-21 49 -25 l29 -7 -4 53 -3 53 30 -4 c16 -1 48 -11 70 -21 75 -34 102 -30 86
10 -17 44 -36 56 -91 57 -30 1 -75 4 -100 8 -26 3 -51 1 -60 -5z"/>
</g>
</svg>
