<?xml version="1.0" standalone="no"?>
<!DOCTYPE svg PUBLIC "-//W3C//DTD SVG 20010904//EN"
 "http://www.w3.org/TR/2001/REC-SVG-20010904/DTD/svg10.dtd">
<svg version="1.0" xmlns="http://www.w3.org/2000/svg"
 width="1967.000000pt" height="805.000000pt" viewBox="0 0 1967.000000 805.000000"
 preserveAspectRatio="xMidYMid meet">
<metadata>
Created by potrace 1.16, written by Peter Selinger 2001-2019
</metadata>
<g transform="translate(0.000000,805.000000) scale(0.100000,-0.100000)"
fill="#000000" stroke="none">
<path d="M6114 7934 c-4 -11 -9 -22 -11 -26 -8 -16 38 -48 70 -48 72 0 74 -3
73 -91 -1 -62 -5 -82 -17 -89 -26 -15 -102 -32 -136 -31 -53 2 -55 -37 -3 -59
40 -16 101 2 222 66 14 8 33 14 42 14 15 0 36 29 36 50 0 8 -18 10 -52 8 l-53
-3 -3 66 -3 67 57 1 c114 1 93 47 -26 57 -70 6 -114 13 -167 29 -17 6 -24 3
-29 -11z"/>
<path d="M19080 7760 c-31 -7 -39 -50 -14 -74 13 -13 27 -16 65 -11 32 4 63 1
96 -10 130 -44 161 -105 107 -206 -31 -56 -27 -82 13 -77 23 2 31 12 46 53 11
28 23 58 28 67 16 32 9 74 -17 114 -28 41 -82 93 -98 94 -5 0 -29 9 -53 21
-48 23 -135 38 -173 29z"/>
<path d="M5770 7321 c-23 -6 -24 -11 -26 -86 -1 -44 -5 -99 -9 -122 -7 -39 -6
-43 18 -54 36 -16 51 -8 76 45 22 49 76 105 100 106 11 0 12 -11 7 -50 -4 -28
-12 -62 -18 -76 -9 -20 -8 -28 5 -42 24 -23 50 -5 58 39 3 19 13 51 22 73 33
75 15 156 -34 156 -23 0 -89 -39 -115 -68 l-25 -27 3 44 c3 50 -19 73 -62 62z"/>
<path d="M6778 7286 c-32 -14 -84 -76 -109 -132 -19 -41 -17 -94 3 -119 4 -5
19 -24 32 -41 14 -17 43 -39 66 -49 39 -17 42 -17 58 -1 16 16 16 18 -8 36
-14 11 -30 20 -36 20 -6 0 -17 6 -23 14 -10 12 -7 17 16 28 58 28 114 149 93
202 -13 34 -60 55 -92 42z"/>
<path d="M6131 7253 c-12 -14 -24 -38 -28 -52 -3 -14 -15 -39 -25 -56 -23 -39
-24 -97 0 -118 23 -21 54 -22 93 -2 19 10 41 14 62 10 25 -5 37 -2 52 15 18
20 18 21 -4 36 l-22 16 20 31 c19 31 25 55 22 88 -1 21 -45 41 -59 27 -7 -7
-17 -4 -33 11 -30 28 -53 27 -78 -6z"/>
<path d="M6494 7205 c-8 -19 -22 -44 -31 -55 -17 -19 -17 -19 -44 13 -36 43
-63 30 -67 -33 -6 -80 17 -120 69 -120 22 0 35 9 58 40 15 21 34 54 42 72 7
18 21 39 31 46 33 24 16 72 -25 72 -11 0 -23 -13 -33 -35z"/>
<path d="M18480 7130 c-12 -22 9 -101 34 -130 7 -8 36 -63 65 -122 50 -103 63
-118 101 -118 32 0 31 29 -5 79 -19 27 -35 52 -35 57 0 5 -8 25 -19 44 -10 19
-28 66 -40 103 -32 94 -76 133 -101 87z"/>
<path d="M17476 6924 c-19 -25 -38 -59 -41 -77 -4 -18 -11 -37 -15 -42 -14
-17 10 -109 33 -127 33 -26 80 -32 113 -14 57 30 108 81 101 100 -5 12 -13 16
-25 11 -9 -4 -22 -9 -29 -12 -14 -6 -7 89 9 120 7 13 5 29 -7 53 -15 31 -20
34 -60 34 -41 0 -47 -4 -79 -46z"/>
<path d="M16234 6897 c-20 -17 -34 -42 -43 -75 -14 -55 -6 -82 45 -162 21 -33
22 -38 9 -85 -7 -27 -18 -63 -24 -79 -6 -16 -9 -37 -6 -47 8 -23 66 -69 87
-69 28 0 59 38 104 131 43 88 46 98 41 155 -6 61 -24 105 -82 194 -16 25 -30
46 -31 48 -1 2 -17 5 -36 8 -27 5 -40 1 -64 -19z m78 -64 c36 -42 78 -135 72
-159 -7 -27 -16 -30 -33 -10 -6 7 -24 16 -40 19 -32 7 -52 44 -54 101 -1 32
16 66 33 66 4 0 14 -8 22 -17z"/>
<path d="M5826 6868 c-2 -13 -9 -71 -15 -131 -6 -59 -15 -116 -21 -126 -5 -11
-13 -50 -16 -88 -6 -67 -6 -69 20 -83 34 -18 46 -4 44 56 0 22 2 49 6 60 3 10
13 57 21 104 22 118 23 120 36 169 14 49 5 61 -43 61 -21 0 -29 -6 -32 -22z"/>
<path d="M14620 6798 c-5 -13 -14 -77 -21 -143 -6 -66 -14 -141 -16 -166 -3
-33 0 -49 11 -58 28 -23 46 -6 46 44 0 49 17 133 31 151 5 5 11 47 15 92 l7
81 -27 11 c-36 13 -35 13 -46 -12z"/>
<path d="M5426 6755 c-20 -14 -41 -25 -46 -25 -6 0 -10 -4 -10 -9 0 -4 -13
-25 -29 -45 -53 -67 -48 -126 15 -154 36 -17 54 -15 113 14 43 20 62 24 94 19
28 -5 42 -3 48 6 12 19 11 25 -6 43 -16 15 -10 40 17 78 11 15 7 23 -31 58
-36 34 -49 40 -85 40 -30 0 -55 -8 -80 -25z"/>
<path d="M14393 6758 c-19 -24 -32 -82 -49 -229 -17 -139 -17 -148 -1 -173 15
-22 21 -25 38 -16 28 15 34 37 19 65 -10 19 -10 37 -1 92 7 37 16 77 21 88 5
11 13 43 20 70 6 28 13 57 15 65 9 31 -42 63 -62 38z"/>
<path d="M17211 6731 c-12 -16 -21 -34 -21 -39 0 -6 -6 -17 -14 -25 -21 -20
-46 -85 -46 -116 0 -14 9 -41 20 -58 25 -41 65 -44 108 -8 17 14 34 25 40 25
5 0 38 28 72 61 53 53 60 63 46 71 -18 10 -39 0 -85 -41 -13 -11 -30 -21 -36
-21 -7 0 -18 -7 -25 -15 -15 -18 -60 -20 -60 -2 1 18 35 90 51 107 24 25 49
64 49 77 0 8 -14 13 -39 13 -32 0 -43 -5 -60 -29z"/>
<path d="M18384 6731 c-18 -11 -35 -24 -38 -30 -12 -18 -46 -163 -41 -172 6
-9 -5 -19 -59 -55 -50 -33 -62 -21 -41 41 18 51 14 89 -10 99 -39 15 -70 -35
-81 -128 -6 -51 -4 -59 16 -81 18 -19 34 -25 65 -25 39 0 47 5 90 54 41 48 53
55 89 58 36 3 43 7 61 42 14 26 30 42 48 47 46 12 97 57 97 85 0 22 -3 24 -27
18 -16 -4 -33 -11 -40 -16 -16 -13 -33 -1 -33 22 0 20 -36 60 -54 60 -6 0 -25
-9 -42 -19z"/>
<path d="M6205 6669 c-4 -11 -4 -35 -1 -53 5 -28 1 -39 -27 -70 -39 -42 -72
-49 -63 -12 7 28 -15 51 -58 62 -16 4 -39 18 -51 32 -25 29 -60 24 -68 -11 -3
-12 -12 -44 -21 -70 l-15 -48 35 -35 c20 -19 39 -33 42 -31 4 2 19 9 33 16 24
12 30 11 58 -10 30 -22 31 -22 72 -4 52 24 103 83 123 145 19 58 20 82 4 98
-20 20 -56 14 -63 -9z"/>
<path d="M6377 6678 c-23 -18 -59 -106 -60 -150 -2 -43 20 -71 55 -73 13 -1
35 -7 51 -15 21 -10 32 -11 53 -1 24 10 25 15 19 49 -8 46 -31 83 -56 89 -18
5 -17 7 6 35 29 34 29 37 11 61 -15 20 -55 22 -79 5z"/>
<path d="M7693 6683 c-7 -2 -13 -12 -13 -21 0 -9 -7 -26 -15 -36 -8 -11 -15
-28 -15 -38 0 -9 -13 -51 -30 -93 -34 -87 -48 -172 -31 -203 34 -64 71 -67
136 -10 45 40 48 41 61 23 8 -10 14 -22 14 -27 0 -11 56 -38 81 -38 19 0 48
24 49 41 0 4 -12 10 -27 14 -27 7 -27 8 22 31 64 30 149 95 153 117 5 24 -42
67 -73 67 -24 0 -123 -46 -156 -72 -8 -7 -24 -25 -33 -40 -10 -16 -22 -28 -26
-28 -4 0 -12 18 -19 41 -10 34 -19 44 -52 57 -21 8 -39 20 -39 26 0 10 45 90
72 128 9 13 9 22 0 42 -11 25 -31 31 -59 19z"/>
<path d="M7035 6605 c-62 -37 -87 -71 -79 -109 3 -17 15 -40 25 -52 10 -11 19
-25 19 -31 0 -13 -45 -33 -75 -33 -18 0 -25 -5 -25 -20 0 -52 104 -52 169 0
51 40 54 70 9 112 -36 34 -32 51 18 78 32 19 42 44 24 65 -17 20 -38 17 -85
-10z"/>
<path d="M16968 6582 c-98 -108 -85 -273 21 -272 20 1 46 6 58 13 29 16 77 87
66 98 -5 5 -28 -1 -51 -12 -50 -25 -65 -19 -34 14 12 13 22 29 22 36 0 7 14
33 30 58 26 38 29 48 18 62 -41 55 -83 55 -130 3z"/>
<path d="M6600 6548 c-23 -39 -25 -66 -5 -92 12 -16 25 -19 66 -17 51 2 51 2
45 -26 -3 -15 -8 -48 -11 -73 -6 -41 -19 -76 -61 -165 -19 -40 -52 -62 -59
-40 -3 8 -7 22 -10 31 -8 26 -48 13 -56 -20 -11 -40 12 -71 63 -84 41 -11 41
-10 84 36 24 26 47 58 52 72 17 44 42 134 52 189 6 30 17 68 25 84 19 38 19
81 0 97 -14 11 -39 9 -78 -6 -11 -4 -16 2 -19 18 -2 18 -10 24 -35 26 -28 3
-36 -2 -53 -30z"/>
<path d="M15745 6558 c-40 -14 -65 -37 -65 -60 0 -10 -4 -18 -9 -18 -11 0 -31
-78 -31 -123 0 -43 17 -65 57 -73 27 -5 37 0 75 34 l43 39 30 -18 c17 -11 39
-19 51 -19 22 0 53 29 73 68 10 18 15 20 31 12 26 -14 49 -13 65 4 10 9 28 12
59 9 68 -8 104 31 52 55 -13 6 -27 20 -31 31 -8 26 -50 37 -79 21 -19 -9 -27
-9 -44 1 -19 12 -25 10 -52 -16 -16 -16 -30 -33 -30 -37 0 -12 -42 -68 -50
-68 -15 0 -30 54 -25 84 11 54 -57 97 -120 74z"/>
<path d="M14813 6508 c-6 -7 -24 -43 -41 -80 -17 -36 -36 -69 -42 -73 -15 -9
-12 -51 5 -65 22 -19 67 27 107 108 25 52 29 70 22 91 -11 29 -36 38 -51 19z"/>
<path d="M8201 6467 c-51 -26 -79 -68 -87 -130 -8 -56 22 -97 71 -97 37 0 54
15 36 33 -25 25 -12 39 75 80 60 28 65 106 8 127 -37 14 -54 12 -103 -13z"/>
<path d="M13991 6435 c-23 -25 -45 -45 -50 -45 -5 0 -14 14 -20 31 -14 42 -34
32 -46 -24 -5 -25 -13 -49 -17 -53 -5 -4 -8 -15 -8 -25 0 -20 -48 -61 -64 -56
-5 2 -18 17 -27 33 -14 25 -22 29 -57 28 -31 0 -43 4 -47 17 -9 28 -44 31 -61
4 -18 -28 -21 -110 -6 -147 13 -33 46 -37 93 -12 24 12 37 13 64 4 51 -17 85
-4 137 53 l46 51 7 -36 c11 -60 45 -83 121 -83 58 0 67 3 84 25 11 14 20 28
20 32 0 4 -28 5 -63 1 -50 -4 -65 -2 -76 11 -12 14 -10 16 18 16 38 0 59 29
76 105 12 48 11 56 -6 84 -28 47 -66 43 -118 -14z"/>
<path d="M12911 6406 c-18 -22 -32 -127 -22 -164 8 -25 6 -36 -11 -57 -30 -39
-59 -132 -55 -177 3 -25 13 -49 30 -65 38 -38 74 -23 108 46 28 58 42 71 76
71 33 0 37 17 9 44 -25 22 -26 29 -26 128 0 102 -12 165 -34 180 -18 13 -63 9
-75 -6z"/>
<path d="M8391 6401 c-21 -13 -32 -122 -14 -149 12 -19 62 -49 68 -40 32 50
49 68 60 68 22 0 45 -41 45 -82 0 -32 4 -39 26 -44 16 -4 29 -2 34 5 9 15 -15
153 -31 179 -13 20 -81 38 -100 26 -6 -3 -20 3 -32 13 -31 29 -41 33 -56 24z"/>
<path d="M16533 6275 c-12 -8 -35 -42 -52 -76 -29 -58 -30 -64 -25 -162 8
-151 30 -207 81 -207 35 0 42 32 32 144 -8 84 -7 101 6 116 9 10 23 45 31 80
16 60 16 63 -3 89 -25 32 -41 36 -70 16z"/>
<path d="M17740 6250 c-14 -14 -18 -28 -14 -44 4 -17 -1 -31 -16 -46 -25 -25
-21 -56 11 -102 26 -36 53 -50 83 -42 36 9 52 46 36 84 -15 36 -7 49 20 32 49
-30 107 2 94 52 -5 22 -12 26 -40 26 -19 0 -51 11 -72 24 -59 37 -78 40 -102
16z"/>
<path d="M4925 6212 c-31 -6 -44 -21 -43 -50 0 -15 -5 -54 -11 -87 -14 -79
-14 -107 3 -130 12 -17 18 -18 40 -7 20 9 26 19 26 44 1 18 7 51 15 73 8 22
15 46 15 54 0 8 7 23 17 33 14 15 14 22 3 42 -13 26 -33 34 -65 28z"/>
<path d="M14941 6180 c-48 -53 -80 -132 -70 -177 15 -73 104 -96 179 -47 49
33 54 64 10 64 -16 0 -30 2 -30 6 0 3 11 22 25 42 28 42 34 112 11 131 -8 7
-30 15 -50 18 -33 5 -39 2 -75 -37z"/>
<path d="M5750 6135 c-7 -9 -10 -25 -6 -41 9 -34 -9 -54 -48 -54 -38 0 -51 -8
-60 -36 -10 -31 15 -46 71 -43 l48 3 3 -44 c4 -52 25 -80 59 -80 23 0 24 2 20
75 -3 72 -2 76 19 81 13 3 28 3 33 -1 15 -8 51 13 51 30 0 9 -21 21 -55 30
-41 12 -55 21 -55 35 0 17 -43 60 -60 60 -4 0 -13 -7 -20 -15z"/>
<path d="M5178 6084 c-23 -20 -46 -41 -50 -47 -5 -8 -13 -6 -26 6 -41 38 -72
7 -72 -71 0 -31 5 -41 31 -56 l30 -18 59 63 c68 72 90 74 90 9 0 -31 7 -47 26
-67 40 -40 53 -18 45 82 -7 88 -21 118 -63 128 -21 6 -35 0 -70 -29z"/>
<path d="M17497 6102 c-12 -13 -15 -31 -10 -85 6 -77 -10 -92 -28 -24 -19 70
-28 87 -54 99 -27 12 -55 -2 -55 -28 0 -15 103 -218 121 -241 14 -16 71 -17
86 -2 6 6 8 37 5 80 -5 72 2 84 33 53 23 -23 73 -20 101 7 38 36 25 65 -24 52
-24 -6 -62 13 -62 31 0 17 -65 76 -84 76 -7 0 -20 -8 -29 -18z"/>
<path d="M13184 6093 c-20 -18 -44 -94 -44 -136 0 -29 18 -47 46 -47 29 0 36
12 46 75 4 27 10 59 13 71 4 13 0 27 -10 38 -21 20 -27 20 -51 -1z"/>
<path d="M7618 6047 c-40 -33 -60 -94 -47 -140 8 -28 5 -35 -29 -72 -54 -56
-72 -89 -72 -128 0 -35 37 -87 62 -87 18 0 75 36 112 71 27 26 37 29 74 26 53
-5 60 5 25 33 l-27 21 16 47 c45 131 19 214 -73 236 -14 3 -32 0 -41 -7z"/>
<path d="M14684 6026 c-30 -30 -34 -40 -34 -86 0 -41 -5 -58 -25 -82 -21 -25
-24 -36 -19 -71 10 -65 21 -86 48 -93 17 -4 30 0 45 15 24 24 26 38 16 142 -9
85 1 114 41 129 44 17 23 80 -26 80 -7 0 -27 -15 -46 -34z"/>
<path d="M10033 6020 c-17 -7 -23 -17 -23 -42 0 -18 -4 -48 -9 -66 -19 -66 59
-172 127 -172 29 0 118 43 150 72 50 48 9 65 -54 23 -41 -28 -94 -34 -94 -11
0 8 5 18 10 21 14 9 40 73 40 98 0 11 -11 35 -26 54 -21 27 -31 33 -62 32 -20
0 -47 -4 -59 -9z"/>
<path d="M12629 5988 c-15 -57 -14 -76 4 -120 18 -43 52 -51 81 -20 14 17 15
22 2 46 -9 18 -11 37 -7 54 9 32 4 53 -17 70 -31 24 -51 14 -63 -30z"/>
<path d="M6913 5988 c-4 -7 -20 -35 -34 -62 -37 -72 -70 -72 -37 -1 10 22 9
29 -9 47 -15 15 -28 19 -46 14 -30 -7 -37 -23 -44 -106 -5 -59 -3 -67 18 -87
40 -36 98 -30 118 13 6 13 15 24 21 24 5 0 10 4 10 10 0 5 11 26 25 46 27 40
32 83 13 102 -15 15 -25 15 -35 0z"/>
<path d="M6045 5983 c-11 -3 -30 -16 -42 -31 -19 -23 -23 -24 -29 -9 -8 21
-50 22 -58 1 -3 -9 -6 -44 -6 -78 0 -49 4 -67 20 -84 36 -39 86 -21 96 33 3
17 12 40 20 53 12 19 20 21 53 16 50 -8 60 14 25 56 -31 37 -52 48 -79 43z"/>
<path d="M15943 5962 c-48 -51 -53 -65 -43 -104 9 -31 18 -39 55 -54 l45 -17
-26 -44 c-45 -77 -5 -101 58 -35 50 52 71 97 58 122 -13 24 -41 40 -70 40 -28
0 -36 26 -15 50 22 24 16 50 -13 61 -19 7 -28 3 -49 -19z"/>
<path d="M7163 5968 c-20 -5 -50 -29 -79 -63 -36 -41 -55 -55 -75 -55 -41 0
-54 -22 -35 -59 9 -16 20 -33 26 -36 5 -3 10 -14 10 -24 0 -9 13 -35 30 -57
23 -33 39 -43 80 -52 65 -15 138 -1 171 34 34 37 15 47 -57 28 -50 -12 -66
-13 -99 -2 -43 14 -59 44 -28 54 44 15 81 36 118 69 101 89 116 112 92 148
-12 19 -24 23 -68 24 -30 0 -68 -4 -86 -9z"/>
<path d="M14408 5955 c-16 -9 -28 -19 -28 -24 0 -4 -12 -25 -26 -46 -14 -21
-28 -59 -31 -85 -5 -40 -2 -50 16 -67 44 -40 128 -37 185 8 32 25 33 36 2 50
-24 11 -24 11 -6 43 28 47 35 99 16 115 -25 21 -97 24 -128 6z"/>
<path d="M6549 5947 c-21 -16 -49 -71 -49 -96 0 -11 16 -32 35 -47 33 -25 35
-30 35 -85 0 -32 5 -90 12 -128 7 -39 10 -73 7 -76 -9 -8 -70 25 -76 41 -3 8
1 21 8 30 11 14 10 18 -5 30 -22 16 -65 9 -83 -13 -24 -31 57 -138 124 -164
40 -15 91 -11 102 9 11 22 6 67 -14 114 -10 24 -15 69 -15 128 0 79 3 95 25
130 14 22 25 48 25 59 0 11 -11 28 -25 39 -14 11 -25 25 -25 31 0 15 -61 13
-81 -2z"/>
<path d="M8366 5918 c-13 -39 -35 -131 -46 -189 l-13 -65 41 -42 c49 -50 75
-53 132 -17 42 27 51 56 30 96 -11 19 -82 59 -106 59 -18 0 -1 53 26 82 14 15
20 33 18 53 -3 27 -7 30 -41 33 -24 2 -39 -1 -41 -10z"/>
<path d="M13877 5923 c-12 -12 -7 -34 13 -60 13 -16 20 -41 20 -67 0 -23 4
-46 9 -51 5 -6 12 -31 15 -58 8 -49 1 -60 -67 -114 -33 -26 7 -78 51 -66 17 4
22 0 28 -21 16 -64 77 -50 168 39 68 67 65 98 -6 61 -25 -13 -28 -13 -28 0 0
8 7 25 16 39 28 43 -19 85 -80 69 -20 -5 -24 -1 -30 27 -3 17 -6 63 -6 101 0
90 -10 108 -59 108 -21 0 -41 -3 -44 -7z"/>
<path d="M12422 5890 c-12 -12 -31 -39 -43 -61 -17 -35 -19 -45 -9 -70 14 -32
32 -36 90 -19 22 6 38 6 44 0 16 -16 76 -12 76 4 0 8 -5 18 -11 22 -7 4 -9 21
-5 44 7 45 0 70 -20 70 -8 0 -17 7 -20 15 -9 23 -76 19 -102 -5z"/>
<path d="M12180 5876 c-60 -34 -172 -142 -168 -163 6 -29 59 -51 126 -52 69
-1 78 -12 38 -50 -18 -17 -33 -21 -67 -19 -35 2 -44 0 -47 -15 -6 -31 17 -47
67 -47 60 0 109 33 141 93 22 41 23 48 10 71 -16 31 -27 35 -103 37 -46 2 -57
6 -55 18 4 22 75 59 102 54 19 -4 25 1 34 26 18 52 -23 77 -78 47z"/>
<path d="M17244 5882 c-22 -15 -53 -89 -58 -141 -5 -49 -3 -55 24 -83 34 -34
58 -32 103 11 28 26 57 80 57 107 0 25 -31 15 -63 -21 -34 -39 -47 -44 -47
-17 0 24 24 90 38 104 9 9 8 16 -5 30 -17 19 -31 22 -49 10z"/>
<path d="M16990 5808 c-43 -25 -77 -76 -91 -136 -13 -60 -3 -101 34 -134 36
-32 62 -35 96 -9 28 22 23 48 -10 53 l-22 3 26 30 c14 17 33 54 42 83 15 44
15 57 5 82 -19 45 -39 52 -80 28z"/>
<path d="M16632 5778 c-15 -15 -16 -45 -1 -53 5 -4 22 -32 36 -63 l25 -56 -26
-23 c-15 -13 -33 -23 -41 -23 -8 0 -19 -9 -25 -19 -24 -46 31 -83 81 -54 15 9
31 15 33 12 3 -2 11 -27 18 -54 14 -55 22 -65 56 -65 26 0 30 30 8 72 -8 14
-17 45 -21 67 -6 36 -3 46 24 80 17 21 31 44 31 50 0 15 -53 14 -68 -1 -17
-17 -27 0 -43 67 -6 27 -16 56 -22 63 -12 15 -49 16 -65 0z"/>
<path d="M9805 5773 c-11 -3 -23 -8 -28 -12 -4 -4 -8 -54 -9 -110 -1 -101 0
-103 27 -127 16 -13 36 -24 47 -24 37 0 128 105 128 149 0 22 -40 10 -76 -24
-44 -42 -58 -44 -50 -7 18 83 18 117 0 138 -12 13 -27 19 -39 17z"/>
<path d="M8759 5713 c-31 -79 -41 -94 -65 -104 -34 -12 -38 -7 -39 43 0 86
-76 67 -77 -19 -1 -56 8 -78 38 -94 36 -19 84 -12 113 17 13 13 29 24 36 24
18 0 47 -78 40 -109 -5 -23 -10 -26 -46 -26 -57 0 -72 -23 -66 -96 8 -92 29
-121 104 -143 43 -13 55 38 58 252 2 143 -9 246 -27 270 -19 23 -58 14 -69
-15z"/>
<path d="M15066 5614 c-21 -20 -20 -37 4 -84 11 -22 20 -46 20 -54 0 -22 -40
-46 -77 -46 -35 0 -77 -32 -70 -53 2 -7 17 -20 34 -29 29 -18 31 -17 77 7 26
14 51 25 56 25 5 0 12 -26 15 -57 10 -90 12 -93 51 -93 42 0 52 18 31 63 -8
17 -18 53 -21 79 -6 42 -4 49 23 77 37 38 48 39 64 4 13 -29 58 -77 80 -86 24
-9 73 22 98 63 24 39 42 49 54 30 12 -19 61 -10 85 14 29 32 21 56 -19 56 -23
0 -34 7 -45 29 -25 47 -89 52 -101 8 -27 -96 -64 -124 -84 -65 -25 72 -72 87
-131 43 -19 -14 -38 -25 -42 -25 -4 0 -8 17 -8 38 0 62 -56 95 -94 56z"/>
<path d="M13237 5601 c-8 -9 -24 -38 -36 -65 -12 -27 -37 -69 -56 -92 -40 -49
-44 -75 -14 -105 19 -19 29 -21 78 -15 68 8 101 28 101 61 0 25 -11 30 -57 26
-15 -1 -23 4 -23 14 0 23 35 87 59 107 21 18 27 44 13 64 -13 20 -50 23 -65 5z"/>
<path d="M4245 5570 c-4 -13 -16 -20 -33 -21 -15 0 -51 -2 -80 -2 -54 -2 -72
-14 -72 -49 0 -30 34 -40 97 -28 31 5 58 10 60 10 10 0 0 -47 -27 -125 -34
-99 -37 -130 -15 -139 15 -5 44 45 50 89 2 11 15 57 30 103 l26 82 57 2 c103
2 112 4 124 16 10 10 9 15 -3 28 -11 11 -38 15 -97 16 -69 1 -81 4 -85 20 -7
24 -24 23 -32 -2z"/>
<path d="M4892 5567 c-21 -23 -62 -156 -62 -203 0 -13 -15 -38 -33 -56 -51
-52 -74 -90 -82 -135 -6 -37 -4 -45 20 -69 35 -35 84 -29 122 16 22 27 31 31
58 26 45 -9 66 16 39 45 -16 18 -16 24 -5 52 30 76 42 127 48 220 6 90 4 101
-12 113 -28 21 -69 17 -93 -9z"/>
<path d="M12770 5560 c-28 -28 -25 -68 9 -129 28 -53 31 -91 5 -91 -7 0 -16 5
-19 10 -11 18 -64 11 -75 -9 -21 -40 -12 -103 25 -164 19 -32 35 -68 35 -81 0
-36 22 -55 74 -65 33 -6 55 -17 70 -35 19 -23 90 -56 122 -56 32 0 44 30 44
113 0 63 5 91 20 120 11 20 20 51 20 67 0 56 -82 62 -111 8 -5 -10 -16 -18
-24 -18 -27 0 -38 39 -31 111 7 67 7 68 -18 75 -23 5 -26 12 -27 53 -1 25 -1
50 0 55 1 4 -5 19 -14 32 -20 31 -76 33 -105 4z"/>
<path d="M13358 5520 c-48 -29 3 -77 70 -66 48 7 54 -18 12 -53 -30 -25 -32
-29 -19 -49 21 -34 54 -27 100 20 33 35 40 47 37 76 -2 24 -11 41 -28 53 -30
22 -147 34 -172 19z"/>
<path d="M11640 5495 c-7 -8 -16 -15 -21 -15 -14 0 -97 -85 -164 -170 -36 -46
-77 -91 -90 -102 -16 -12 -22 -24 -18 -36 24 -62 123 -52 123 13 0 13 3 26 8
29 7 4 122 -94 122 -105 0 -15 -65 -72 -88 -78 -17 -5 -29 -17 -34 -37 -12
-43 -3 -54 41 -54 37 0 44 5 88 59 26 33 55 60 64 60 11 1 24 23 38 66 30 87
18 105 -40 64 l-29 -20 -35 38 c-31 33 -55 85 -55 118 0 6 31 43 69 84 64 69
79 101 46 101 -7 0 -18 -7 -25 -15z"/>
<path d="M9688 5484 c-32 -17 -32 -17 -16 -61 11 -30 10 -35 -10 -49 -41 -28
-24 -120 29 -162 28 -23 31 -23 54 -8 29 19 30 31 11 104 -16 58 -13 60 44 40
30 -10 35 -9 52 11 21 28 9 61 -23 61 -11 0 -38 18 -59 40 -43 45 -44 45 -82
24z"/>
<path d="M6297 5400 c-24 -19 -51 -66 -77 -136 -6 -18 -24 -45 -39 -60 -39
-42 -60 -78 -82 -141 -18 -52 -18 -57 -2 -83 9 -16 26 -31 37 -34 34 -9 76 -7
76 4 0 6 6 10 14 10 7 0 40 27 74 60 33 33 67 60 75 60 8 0 21 7 28 16 11 14
10 18 -6 30 -15 11 -16 18 -8 36 5 13 9 70 8 127 -1 88 -5 106 -20 117 -26 19
-48 17 -78 -6z"/>
<path d="M4481 5384 c-112 -79 -104 -192 16 -227 45 -13 98 -6 120 17 13 13
-29 36 -64 36 -18 0 -33 5 -33 10 0 6 8 10 19 10 10 0 38 18 61 41 32 31 40
46 36 62 -3 12 -6 27 -6 34 0 46 -93 57 -149 17z"/>
<path d="M5870 5305 c-13 -35 -13 -35 12 -57 19 -16 21 -22 9 -40 -7 -11 -14
-41 -16 -67 -2 -25 -7 -69 -11 -97 -7 -57 2 -70 41 -60 16 4 25 16 30 38 4 18
14 54 22 81 9 26 13 61 9 78 -3 16 -1 38 5 47 9 14 7 27 -7 57 -16 33 -25 41
-52 43 -27 3 -34 -1 -42 -23z"/>
<path d="M14492 5311 c-11 -6 -8 -14 14 -34 49 -46 26 -134 -50 -192 -39 -30
-53 -31 -86 -8 -31 22 -70 18 -91 -9 l-17 -21 -11 21 c-19 36 -49 28 -70 -20
-24 -58 -17 -108 20 -144 l29 -28 45 23 c26 13 52 35 60 52 12 21 23 29 43 29
63 0 170 89 207 172 23 51 25 63 15 92 -18 56 -73 90 -108 67z"/>
<path d="M9500 5290 c-11 -11 -22 -31 -26 -46 -11 -44 2 -147 25 -190 19 -37
27 -43 66 -48 49 -8 78 3 95 35 10 18 7 22 -20 32 l-32 12 7 63 c13 122 -53
204 -115 142z"/>
<path d="M5287 5283 c-39 -6 -56 -44 -34 -76 11 -17 32 -27 76 -37 37 -8 61
-18 61 -26 0 -14 -59 -34 -103 -34 -35 0 -46 -26 -21 -46 14 -11 33 -13 74 -8
71 8 100 22 123 61 24 42 11 68 -47 93 -37 16 -43 22 -39 43 4 19 0 26 -19 30
-12 4 -27 6 -33 5 -5 0 -23 -3 -38 -5z"/>
<path d="M16009 5275 c-42 -23 -63 -64 -64 -125 0 -92 52 -133 139 -109 36 10
70 45 60 61 -3 5 -20 6 -39 2 l-33 -6 19 58 c24 71 24 75 -2 108 -23 29 -42
32 -80 11z"/>
<path d="M10364 5274 c-7 -3 -22 -32 -35 -66 l-23 -61 30 -23 c20 -17 42 -24
71 -24 23 0 44 -4 48 -9 6 -10 -17 -37 -37 -43 -26 -9 1 -38 36 -38 30 0 39 7
70 50 30 42 34 53 26 75 -11 30 -46 45 -101 45 l-41 0 3 38 c4 54 -10 71 -47
56z"/>
<path d="M6848 5212 c-55 -74 -67 -162 -27 -194 11 -10 29 -18 39 -18 10 0 38
-11 62 -25 38 -21 52 -24 84 -17 49 10 55 33 13 53 -48 21 -56 40 -31 75 12
16 23 40 24 53 3 20 -3 26 -29 33 -30 8 -32 10 -21 33 17 37 4 55 -40 55 -34
0 -42 -5 -74 -48z"/>
<path d="M8210 5244 c-19 -7 -43 -13 -52 -13 -9 -1 -19 -9 -23 -20 -3 -10 -14
-26 -25 -36 -27 -24 -25 -68 3 -98 12 -14 48 -35 80 -48 62 -25 71 -43 32 -61
-19 -8 -31 -8 -52 1 -30 14 -46 4 -57 -36 -15 -49 81 -60 157 -18 65 37 83 60
71 92 -10 31 -65 72 -106 80 -15 3 -34 13 -43 23 -32 36 22 79 80 64 57 -14
75 44 21 70 -39 18 -39 18 -86 0z"/>
<path d="M6570 5200 c-22 -22 -46 -40 -54 -40 -19 0 -27 -25 -20 -58 14 -59
67 -92 147 -92 29 0 62 6 72 14 18 13 18 14 -3 25 -11 6 -28 11 -36 11 -9 0
-16 5 -16 10 0 6 4 10 9 10 19 0 62 69 63 101 1 41 -23 59 -79 59 -38 0 -49
-5 -83 -40z"/>
<path d="M7173 5210 c-17 -10 -36 -27 -41 -37 -15 -28 -3 -71 29 -97 15 -13
25 -26 22 -30 -3 -3 -28 -9 -55 -12 -42 -6 -48 -10 -48 -30 0 -13 9 -28 21
-35 25 -13 97 -4 144 18 50 24 73 86 37 97 -11 4 -30 18 -43 32 l-24 26 23 18
c12 10 22 29 22 44 0 22 -5 26 -27 26 -16 0 -42 -9 -60 -20z"/>
<path d="M15737 5122 c-9 -10 -17 -35 -17 -54 0 -20 -6 -51 -14 -69 -12 -28
-12 -44 -3 -85 14 -61 31 -84 63 -84 37 0 45 28 33 120 -11 88 -4 110 32 110
11 0 19 2 19 4 0 2 2 11 6 19 6 17 -28 42 -72 51 -23 5 -34 2 -47 -12z"/>
<path d="M8550 5082 c-37 -19 -94 -71 -110 -102 -6 -10 -10 -32 -10 -48 0 -24
7 -33 35 -46 29 -14 42 -15 77 -5 24 6 55 20 69 30 15 10 31 19 36 19 13 0 59
51 66 73 10 28 -10 57 -56 78 -51 23 -63 23 -107 1z"/>
<path d="M9920 5048 c-20 -22 -19 -51 1 -72 5 -6 9 -17 9 -26 0 -8 16 -39 35
-68 32 -46 33 -52 16 -52 -11 0 -26 -3 -35 -6 -25 -10 -20 -81 9 -137 14 -26
25 -53 24 -60 -4 -32 3 -48 27 -64 40 -26 84 -25 105 0 25 31 62 174 56 214
-4 19 0 45 9 63 21 42 15 66 -18 62 -20 -2 -29 4 -41 30 -28 59 -98 122 -145
131 -25 5 -36 2 -52 -15z"/>
<path d="M9349 5037 c-26 -21 -27 -25 -22 -99 6 -83 3 -87 -41 -67 -33 16
-106 -9 -124 -42 -18 -33 -8 -117 20 -170 42 -77 136 -85 194 -16 13 16 24 33
24 38 0 17 -32 23 -52 10 -27 -17 -32 -8 -19 30 6 18 11 46 11 62 l0 31 28
-27 c34 -33 75 -35 96 -6 13 19 13 26 1 49 -7 14 -21 33 -30 40 -10 8 -21 23
-25 35 -21 57 -21 63 4 90 49 52 -9 89 -65 42z"/>
<path d="M12427 5013 c-16 -8 -36 -31 -44 -51 -19 -45 -24 -205 -7 -222 6 -6
29 -16 50 -21 36 -8 41 -6 61 18 12 15 23 36 25 48 3 17 10 20 46 20 36 0 48
5 69 29 28 33 22 43 -27 48 -33 3 -35 5 -42 50 -7 49 -18 66 -55 86 -27 15
-40 14 -76 -5z"/>
<path d="M15495 4985 c-5 -2 -27 -6 -47 -9 -49 -9 -77 -63 -79 -159 -2 -58 1
-71 21 -92 13 -14 35 -25 48 -25 32 0 98 68 131 134 21 42 22 53 12 86 -6 21
-17 42 -24 48 -15 12 -49 21 -62 17z"/>
<path d="M13867 4952 c-36 -37 -35 -68 3 -90 20 -11 30 -25 30 -40 0 -40 18
-62 52 -62 91 0 171 129 122 198 -14 20 -24 22 -98 22 -77 0 -84 -2 -109 -28z"/>
<path d="M3555 4964 c-29 -8 -137 -82 -156 -107 -9 -12 -19 -39 -22 -60 -5
-33 -2 -43 19 -64 23 -23 31 -25 74 -19 44 6 48 5 53 -16 6 -24 54 -58 81 -58
8 0 20 9 26 21 10 17 7 24 -14 44 -14 13 -26 27 -26 30 0 3 11 27 25 54 21 43
22 51 10 67 -23 30 -18 36 25 29 40 -7 40 -6 40 24 0 25 -6 34 -27 42 -35 14
-82 19 -108 13z"/>
<path d="M3877 4955 c-9 -8 -19 -29 -22 -47 -4 -18 -14 -45 -21 -60 -14 -27
-17 -27 -72 -22 -47 5 -60 3 -72 -11 -12 -15 -12 -20 1 -43 8 -15 28 -31 44
-36 17 -6 32 -11 34 -12 1 -2 -4 -17 -13 -35 -24 -49 -21 -78 11 -90 35 -13
53 -5 53 25 0 13 9 45 20 70 17 40 23 46 49 46 62 0 83 30 36 52 -31 14 -31
25 2 92 14 29 23 61 20 70 -8 20 -51 21 -70 1z"/>
<path d="M13522 4938 c-7 -7 -12 -24 -12 -40 0 -40 21 -130 35 -153 7 -11 16
-42 20 -70 9 -64 38 -99 69 -83 28 15 45 39 46 63 0 11 4 26 9 34 8 12 12 12
25 2 24 -20 86 -6 86 19 0 11 -9 24 -20 30 -11 6 -20 17 -20 25 0 27 -50 75
-76 73 -34 -3 -59 -33 -56 -69 1 -16 -2 -29 -8 -29 -5 0 -10 6 -11 13 0 6 -2
23 -4 37 -2 14 -7 49 -11 78 -5 37 -13 57 -28 67 -25 18 -29 18 -44 3z"/>
<path d="M11556 4915 c-29 -30 -40 -94 -27 -168 15 -89 15 -89 -14 -131 -14
-21 -23 -42 -19 -47 7 -12 56 -2 65 13 4 6 21 0 45 -16 44 -29 104 -36 104
-11 0 8 -14 24 -31 34 -52 32 -62 62 -44 138 18 77 20 174 3 191 -17 17 -64
15 -82 -3z"/>
<path d="M15113 4848 c-6 -7 -13 -39 -16 -72 -6 -60 -16 -82 -25 -56 -11 32
-61 70 -91 70 -26 0 -33 -6 -46 -36 -11 -27 -13 -46 -6 -73 5 -20 12 -63 15
-95 6 -59 16 -76 47 -76 25 0 39 22 39 62 0 41 5 45 33 24 35 -27 87 10 87 61
0 29 16 30 30 3 15 -28 56 -43 81 -30 28 16 26 68 -3 72 -19 2 -26 16 -43 78
-20 74 -21 75 -56 78 -21 2 -40 -2 -46 -10z"/>
<path d="M12089 4814 c-45 -24 -62 -61 -60 -127 1 -33 6 -66 10 -76 5 -9 14
-28 20 -44 13 -34 69 -62 105 -53 27 7 106 76 106 93 0 22 -34 24 -63 3 l-28
-21 7 38 c3 21 13 53 20 72 20 48 17 74 -11 105 -27 29 -63 33 -106 10z"/>
<path d="M4376 4789 c-14 -11 -26 -28 -26 -38 0 -56 -46 -90 -104 -75 -23 5
-50 -2 -84 -22 -2 -2 6 -16 19 -33 20 -28 28 -31 75 -31 l53 0 3 -37 c3 -35 6
-38 33 -38 27 0 30 3 37 45 8 47 39 83 67 78 22 -4 26 -42 11 -105 -11 -45
-11 -55 4 -78 19 -28 60 -34 91 -11 17 12 22 10 51 -20 37 -40 87 -46 124 -16
29 24 21 38 -27 47 -41 7 -53 19 -53 51 0 12 -10 34 -22 49 -18 23 -26 26 -56
22 -33 -6 -34 -5 -27 21 4 15 9 46 12 70 5 41 4 43 -32 58 -20 8 -45 12 -56 9
-15 -5 -19 -1 -19 19 0 24 -23 56 -39 56 -5 0 -20 -9 -35 -21z"/>
<path d="M8964 4774 c-43 -21 -74 -51 -75 -72 0 -9 -4 -41 -8 -71 -10 -73 5
-150 33 -161 12 -4 42 -29 67 -55 39 -40 49 -45 73 -39 17 4 31 17 37 33 10
26 -2 44 -48 70 -12 6 -9 17 16 58 17 28 31 55 31 61 0 17 -26 21 -51 7 -45
-26 -49 -27 -64 -15 -38 31 4 130 55 130 31 0 27 44 -5 58 -31 14 -23 15 -61
-4z"/>
<path d="M10850 4704 c-11 -25 -20 -50 -20 -55 0 -17 -18 -9 -23 11 -6 22 -28
26 -59 9 -17 -9 -19 -17 -14 -49 6 -41 42 -110 57 -110 4 0 27 -31 49 -70 34
-55 49 -71 78 -81 31 -10 37 -9 49 7 14 19 13 52 -2 87 -6 13 -2 17 17 17 33
0 115 53 123 80 5 14 2 28 -7 37 -13 12 -21 11 -59 -9 -26 -14 -60 -24 -84
-24 -58 1 -66 31 -32 116 14 35 24 67 21 72 -3 4 -21 8 -40 8 -32 0 -36 -4
-54 -46z"/>
<path d="M4872 4668 c-39 -20 -53 -37 -84 -101 -11 -23 22 -88 59 -112 49 -33
173 -26 173 9 0 15 -11 20 -74 31 l-38 6 52 47 c41 38 52 53 52 80 1 41 -7 49
-57 57 -31 5 -50 1 -83 -17z"/>
<path d="M6644 4640 c-20 -22 -48 -57 -62 -77 -14 -21 -35 -49 -47 -63 -19
-21 -41 -57 -90 -139 -6 -10 -19 -26 -29 -36 -26 -27 -76 -142 -70 -160 8 -21
48 -29 73 -15 15 8 21 20 21 46 0 33 56 159 87 196 14 15 17 15 50 -8 20 -13
46 -24 58 -24 22 0 23 -3 18 -58 -5 -54 -4 -58 19 -69 39 -18 51 -2 55 73 2
38 7 76 10 84 3 8 7 42 9 75 1 33 6 85 9 117 6 49 4 59 -14 77 -31 31 -56 26
-97 -19z"/>
<path d="M5707 4553 c-8 -10 -17 -31 -19 -47 -2 -22 -12 -34 -40 -49 -47 -23
-53 -62 -13 -77 19 -7 25 -17 25 -39 0 -23 6 -31 31 -41 37 -16 44 -8 54 56 7
50 17 60 70 69 50 10 95 32 95 48 -1 34 -17 41 -70 29 -70 -16 -73 -16 -66 12
4 16 0 30 -10 40 -20 21 -37 20 -57 -1z"/>
<path d="M2942 4544 c-36 -15 -43 -45 -17 -71 14 -14 13 -17 -12 -30 -33 -17
-45 -33 -38 -52 3 -8 -6 -38 -21 -67 -27 -53 -27 -80 0 -90 17 -7 69 48 104
110 17 29 22 50 18 74 -4 25 -1 35 12 39 23 9 32 23 32 54 0 36 -35 51 -78 33z"/>
<path d="M9745 4518 c-27 -46 -34 -178 -11 -213 23 -35 56 -46 101 -34 63 18
127 109 76 109 -10 0 -24 -7 -31 -15 -30 -36 -39 -3 -19 66 15 47 -1 91 -37
108 -40 18 -58 13 -79 -21z"/>
<path d="M14059 4526 c-13 -28 -4 -85 32 -209 l23 -78 -26 -22 c-13 -12 -42
-50 -64 -84 -53 -85 -69 -83 -60 6 7 79 2 101 -24 101 -27 0 -37 -19 -49 -97
-17 -112 4 -163 67 -163 40 0 110 84 142 173 12 34 26 35 34 3 7 -28 33 -40
69 -31 22 6 28 17 46 93 12 48 21 95 21 104 0 33 21 29 65 -11 48 -44 83 -52
110 -25 18 19 5 44 -24 44 -9 0 -39 29 -66 65 -53 68 -59 72 -99 54 -28 -13
-42 -46 -53 -128 -5 -30 -13 -56 -19 -58 -19 -6 -56 131 -53 200 2 49 -1 62
-16 73 -27 20 -44 17 -56 -10z"/>
<path d="M13142 4528 c-12 -6 -32 -27 -44 -47 -12 -20 -33 -48 -47 -64 -19
-21 -22 -30 -13 -39 7 -7 12 -20 12 -29 0 -36 38 -105 64 -117 30 -13 95 -16
111 -4 6 4 21 22 34 40 30 44 15 64 -25 33 -49 -39 -119 -19 -95 28 6 11 17
24 24 28 20 12 87 117 87 136 0 20 -38 47 -65 46 -11 0 -30 -5 -43 -11z"/>
<path d="M10592 4498 c-18 -18 -15 -55 7 -86 38 -56 82 -125 101 -160 35 -66
45 -75 79 -67 35 7 41 29 13 44 -21 11 -72 104 -72 131 0 10 -6 23 -14 29 -8
7 -17 30 -21 51 -9 55 -63 88 -93 58z"/>
<path d="M11740 4502 c-88 -45 -117 -82 -140 -182 -6 -30 -16 -72 -21 -92 -6
-25 -6 -44 0 -57 6 -10 8 -21 4 -24 -3 -3 8 -20 25 -37 28 -28 35 -30 105 -30
86 0 118 18 137 75 22 66 -18 158 -59 135 -24 -12 -31 -32 -31 -82 0 -32 -3
-39 -17 -36 -21 4 -43 47 -50 97 -4 29 0 40 21 60 18 17 26 35 26 57 0 72 95
70 172 -5 38 -36 51 -43 81 -45 25 -1 33 3 35 20 4 27 -87 104 -158 135 -33
14 -111 21 -130 11z"/>
<path d="M9577 4457 c-18 -19 -44 -41 -59 -51 -20 -11 -28 -25 -28 -44 0 -18
-14 -42 -41 -72 -46 -50 -69 -81 -69 -92 0 -14 42 -30 66 -24 14 4 29 17 35
29 20 45 46 82 61 85 10 2 27 -23 53 -77 38 -80 56 -97 89 -85 23 9 20 27 -14
81 -16 26 -30 51 -30 56 0 6 -9 29 -21 52 l-21 42 21 48 c39 87 17 114 -42 52z"/>
<path d="M6083 4463 c-12 -3 -29 -15 -37 -29 -10 -14 -26 -24 -40 -24 -33 0
-46 -36 -37 -101 10 -74 25 -99 59 -99 39 1 66 24 59 52 -3 13 -2 43 1 67 7
44 8 45 57 56 60 13 75 21 75 41 0 23 -84 45 -137 37z"/>
<path d="M8616 4449 c-12 -18 -18 -21 -28 -11 -9 9 -15 8 -28 -3 -37 -33 3
-194 46 -187 11 2 33 18 49 37 32 37 45 43 45 22 0 -17 42 -40 65 -35 10 1 23
11 29 21 9 14 6 21 -16 40 -15 12 -31 31 -36 42 -18 45 -48 85 -64 85 -9 0
-23 3 -31 6 -9 3 -22 -4 -31 -17z"/>
<path d="M7210 4414 c-66 -38 -77 -51 -90 -105 -11 -45 -10 -51 12 -78 40 -52
93 -71 191 -71 71 0 87 3 87 15 0 8 -3 15 -7 16 -5 0 -17 3 -28 5 -11 2 -44 7
-72 11 -53 6 -80 23 -68 43 3 5 14 10 23 10 9 0 26 7 36 15 11 8 27 15 36 15
16 0 60 66 60 89 0 7 -11 23 -25 36 -33 34 -95 34 -155 -1z"/>
<path d="M6970 4420 c-8 -5 -24 -10 -35 -10 -31 0 -85 -94 -85 -147 0 -31 5
-44 23 -55 50 -33 112 -32 157 2 36 27 14 44 -50 41 -43 -2 -50 1 -50 16 0 26
26 61 60 78 33 17 47 50 30 70 -14 17 -29 19 -50 5z"/>
<path d="M8061 4398 c-50 -53 -81 -123 -81 -183 0 -67 14 -84 71 -85 28 0 44
8 72 35 35 34 48 65 27 65 -5 0 -25 -8 -45 -17 -52 -25 -62 -8 -35 55 12 28
25 51 29 50 21 -4 59 24 63 46 6 30 -7 43 -49 52 -24 5 -35 1 -52 -18z"/>
<path d="M8294 4410 c-12 -5 -27 -24 -32 -42 -14 -45 -9 -138 9 -166 18 -29
81 -49 117 -36 36 12 92 97 92 138 0 41 -41 86 -79 86 -16 0 -34 7 -41 15 -14
17 -34 18 -66 5z"/>
<path d="M12820 4332 c-59 -23 -89 -75 -97 -171 -5 -64 -4 -71 22 -106 28 -36
30 -36 79 -30 45 6 57 12 99 58 43 47 61 87 38 87 -5 0 -32 -18 -60 -40 -44
-35 -71 -49 -71 -36 0 9 61 133 79 161 27 42 25 58 -8 78 -16 9 -31 17 -33 16
-1 0 -23 -8 -48 -17z"/>
<path d="M3250 4293 c-8 -3 -29 -12 -47 -20 -28 -13 -34 -13 -56 2 -21 13 -29
14 -45 4 -45 -28 -74 -116 -47 -143 25 -25 55 -19 115 24 l55 40 3 -57 c4 -65
31 -106 67 -101 16 2 19 9 15 33 -4 33 -3 64 5 140 3 28 2 55 -2 61 -10 15
-44 24 -63 17z"/>
<path d="M11335 4287 c-11 -5 -27 -13 -35 -17 -23 -11 -24 -40 -3 -55 19 -13
33 -49 74 -193 12 -39 25 -75 30 -78 5 -3 9 -14 9 -25 0 -24 55 -59 92 -59 30
0 66 32 74 67 14 56 -49 136 -118 150 -40 8 -49 25 -55 95 -2 35 -6 73 -9 85
-6 30 -33 44 -59 30z"/>
<path d="M3758 4236 c-37 -9 -45 -14 -38 -25 7 -12 13 -13 35 -3 38 18 125 5
125 -17 0 -10 -24 -42 -53 -72 -29 -29 -76 -82 -105 -117 -56 -68 -60 -95 -23
-135 18 -18 80 -33 103 -25 7 3 18 7 23 9 6 1 37 12 69 24 105 38 79 69 -34
41 -37 -9 -77 -16 -89 -16 -30 0 -27 34 7 69 15 16 41 45 57 66 17 20 44 53
61 73 68 81 70 125 7 136 -50 8 -88 6 -145 -8z"/>
<path d="M10389 4143 c-6 -16 -15 -38 -20 -50 -5 -13 -13 -23 -19 -23 -5 0
-18 -8 -28 -17 -76 -73 -93 -75 -121 -17 -35 73 -92 98 -111 48 -12 -31 -4
-46 49 -99 47 -45 52 -70 16 -79 -59 -15 -54 -96 6 -96 18 0 40 7 50 16 17 15
20 14 52 -20 19 -20 43 -36 55 -36 26 0 35 34 13 54 -9 8 -25 31 -35 50 l-19
35 37 46 c21 25 41 45 46 45 5 0 18 -16 30 -35 27 -43 53 -45 90 -5 17 18 38
30 53 30 15 0 31 9 39 23 17 25 13 47 -8 47 -7 0 -20 11 -29 23 -8 13 -26 29
-40 35 -14 6 -25 18 -25 26 0 15 -21 26 -51 26 -12 0 -24 -11 -30 -27z"/>
<path d="M12565 4140 c-10 -11 -26 -22 -36 -25 -11 -4 -19 -10 -19 -15 0 -5
-14 -24 -30 -42 -61 -66 -50 -112 30 -123 51 -7 55 -12 43 -53 -4 -17 -11 -22
-25 -19 -25 7 -50 -20 -46 -51 4 -37 59 -53 89 -26 24 22 79 134 79 161 -1 23
-28 57 -57 72 -32 16 -29 28 17 72 22 21 40 45 40 54 0 23 -63 20 -85 -5z"/>
<path d="M2200 4072 c-36 -37 -78 -76 -93 -87 -78 -55 -102 -96 -68 -115 18
-9 27 -5 64 32 23 24 82 74 130 112 48 39 87 75 87 82 0 12 -38 45 -50 43 -3
0 -34 -31 -70 -67z"/>
<path d="M4125 4060 c-23 -9 -96 -85 -113 -117 -9 -16 -9 -30 1 -59 11 -31 21
-40 56 -52 37 -12 50 -12 85 -1 90 29 146 79 146 130 0 37 -24 85 -49 99 -23
12 -98 12 -126 0z"/>
<path d="M13767 4064 c-4 -4 -7 -22 -7 -40 0 -38 -39 -133 -63 -152 -13 -11
-17 -10 -27 7 -6 12 -8 21 -5 21 3 0 -1 14 -10 30 -16 30 -48 40 -61 19 -3 -6
-6 -37 -5 -68 0 -49 4 -59 31 -83 17 -16 41 -28 53 -28 23 0 87 56 87 77 0 5
9 21 19 34 10 14 26 49 35 78 13 44 14 58 3 80 -12 26 -37 38 -50 25z"/>
<path d="M4693 4033 c-7 -2 -13 -18 -13 -34 0 -15 -13 -48 -29 -71 -42 -61
-46 -83 -22 -107 15 -15 34 -21 64 -21 23 0 52 -3 64 -6 l22 -6 -20 -35 c-11
-19 -29 -47 -40 -62 -25 -34 -22 -65 7 -69 21 -3 70 63 131 179 15 29 37 63
48 74 33 32 65 94 58 111 -7 19 -41 33 -64 27 -9 -3 -27 -32 -40 -65 l-24 -61
-58 -2 c-31 -2 -57 0 -57 3 0 3 18 27 40 53 42 50 51 83 24 93 -18 7 -73 7
-91 -1z"/>
<path d="M4388 3974 c-50 -57 -61 -111 -28 -144 26 -26 85 -26 130 0 19 11 43
23 52 26 19 7 38 53 38 93 0 37 -34 55 -105 56 -55 0 -63 -3 -87 -31z"/>
<path d="M2315 3917 c-16 -5 -51 -27 -77 -48 -26 -22 -50 -39 -55 -39 -21 0
-63 -53 -63 -78 0 -46 21 -64 78 -70 52 -5 56 -8 52 -49 -2 -30 39 -69 89 -84
36 -11 44 -10 58 4 16 15 14 18 -20 32 -31 13 -57 40 -57 59 0 3 20 28 45 56
25 28 45 55 45 60 0 13 -41 40 -60 40 -9 0 -26 -11 -38 -25 -12 -14 -28 -25
-34 -26 -19 -2 -62 2 -66 6 -3 3 58 65 63 65 27 0 111 24 117 33 26 41 -23 82
-77 64z"/>
<path d="M9136 3908 c-10 -6 -42 -13 -70 -17 -50 -6 -51 -7 -54 -41 -3 -40 35
-136 64 -161 13 -11 30 -15 50 -12 26 4 37 14 58 52 36 67 44 126 20 152 -28
31 -47 39 -68 27z"/>
<path d="M5785 3883 c-27 -8 -82 -17 -121 -18 -39 -1 -76 -5 -83 -9 -17 -11
-13 -34 10 -57 17 -17 28 -19 73 -14 48 6 54 5 58 -13 8 -30 -23 -172 -37
-172 -7 0 -32 7 -55 15 -50 18 -60 13 -60 -24 0 -36 18 -51 69 -58 36 -5 131
15 172 37 9 5 32 11 50 15 46 9 84 38 76 59 -7 18 -47 22 -63 6 -5 -5 -31 -13
-58 -16 l-48 -7 6 49 c4 27 12 72 18 101 10 47 15 54 48 67 36 14 55 37 43 50
-10 10 -44 6 -98 -11z"/>
<path d="M8788 3863 c-30 -8 -31 -41 -4 -88 32 -53 32 -67 4 -80 -58 -27 -47
-78 18 -83 21 -2 44 -10 51 -18 9 -12 16 -13 32 -4 22 11 28 44 11 55 -11 7
-2 35 12 35 15 0 57 53 58 73 0 22 -11 22 -56 -5 -35 -21 -37 -21 -50 -3 -8
10 -17 35 -20 54 -8 41 -21 72 -32 70 -4 -1 -15 -3 -24 -6z"/>
<path d="M13368 3848 c-8 -7 -23 -34 -33 -60 -10 -27 -19 -48 -21 -48 -2 0
-15 12 -29 26 -42 42 -88 17 -100 -57 -7 -43 -14 -46 -50 -23 -55 36 -107 -17
-68 -70 10 -14 23 -26 30 -26 17 0 43 -40 43 -66 0 -24 29 -54 52 -54 26 0 48
35 48 77 0 63 6 72 45 66 27 -4 38 -1 58 21 13 14 28 40 33 58 12 40 27 45 42
14 12 -26 51 -42 77 -32 26 10 30 37 8 55 -11 9 -32 42 -47 74 -29 60 -53 72
-88 45z"/>
<path d="M7396 3784 c-10 -10 -16 -33 -16 -63 0 -49 -20 -81 -51 -81 -23 -1
-49 -26 -49 -48 0 -25 35 -38 80 -28 24 4 30 2 30 -12 0 -34 24 -56 54 -48 26
6 27 9 25 61 -2 41 2 60 16 75 17 19 17 21 1 39 -11 12 -16 32 -14 56 3 55
-41 84 -76 49z"/>
<path d="M1462 3778 c-6 -6 -12 -16 -12 -22 0 -5 -9 -20 -21 -32 -17 -18 -28
-21 -55 -17 -41 7 -69 -19 -53 -49 14 -27 11 -44 -16 -76 -59 -71 -3 -87 62
-19 l41 43 78 -8 c87 -9 105 -19 86 -46 -7 -9 -16 -27 -22 -40 -5 -12 -21 -27
-35 -34 -26 -12 -40 -42 -33 -75 3 -14 13 -18 46 -19 23 0 45 -3 48 -6 3 -4
-2 -20 -11 -38 -18 -34 -14 -60 8 -60 7 0 37 25 66 55 40 42 54 64 58 94 5 33
2 41 -17 51 -19 10 -21 18 -18 73 l3 62 -45 22 c-25 12 -56 22 -70 23 -14 0
-32 5 -40 10 -13 9 -11 14 13 35 16 15 29 37 30 53 2 25 -1 27 -38 30 -23 2
-46 -3 -53 -10z"/>
<path d="M6648 3779 c-22 -12 -23 -27 -3 -49 31 -35 -12 -156 -53 -148 -9 2
-20 22 -26 48 -11 44 -12 45 -51 45 -37 0 -40 -2 -55 -42 -17 -46 -48 -85 -61
-77 -5 3 -9 20 -10 37 -1 41 -22 100 -38 105 -9 3 -11 -17 -11 -75 2 -110 13
-139 57 -154 29 -9 37 -9 43 2 5 8 21 31 36 52 l28 37 13 -24 c14 -26 55 -44
90 -38 34 5 90 78 109 140 15 52 13 102 -4 128 -11 17 -45 24 -64 13z"/>
<path d="M2683 3752 c-18 -9 -35 -25 -39 -34 -6 -19 -39 -24 -49 -8 -10 16
-65 12 -71 -5 -11 -28 5 -64 31 -71 31 -8 31 -15 -1 -66 -25 -40 -26 -42 -8
-55 30 -22 51 -15 71 25 17 35 21 37 70 40 56 3 77 24 43 42 -30 16 -24 42 16
73 67 54 17 101 -63 59z"/>
<path d="M6793 3738 c-50 -53 -69 -160 -37 -207 22 -31 75 -52 105 -42 60 19
88 34 93 48 10 25 -1 28 -61 15 -49 -10 -59 -10 -74 4 -21 19 -15 76 10 111
23 31 29 28 33 -14 3 -33 7 -38 30 -41 31 -4 44 15 53 74 9 54 -19 84 -78 84
-36 0 -49 -6 -74 -32z"/>
<path d="M8185 3756 c-16 -7 -40 -25 -53 -38 -21 -23 -23 -35 -24 -139 -1 -98
2 -120 20 -155 23 -45 39 -56 71 -47 22 6 30 50 12 68 -8 9 -15 64 -12 105 1
11 13 15 44 15 36 0 48 5 75 35 41 45 43 95 6 139 -21 26 -33 31 -67 31 -23
-1 -55 -7 -72 -14z"/>
<path d="M7913 3742 c-26 -4 -27 -12 -13 -61 8 -28 6 -39 -11 -62 -28 -40 -37
-36 -41 19 -2 39 -7 48 -24 50 -38 5 -52 -21 -50 -93 1 -69 7 -79 55 -92 60
-16 125 52 140 147 12 74 -5 101 -56 92z"/>
<path d="M4955 3684 c-11 -21 -25 -42 -31 -48 -5 -6 -18 -26 -27 -45 -16 -32
-16 -36 -1 -53 24 -25 35 -23 65 15 33 42 92 147 86 153 -2 3 -20 7 -38 10
-31 5 -36 2 -54 -32z"/>
<path d="M7048 3693 c-19 -5 -20 -9 -36 -107 -12 -74 -7 -93 29 -111 41 -22
47 -19 71 30 25 51 33 55 42 22 3 -13 17 -29 32 -36 22 -10 30 -9 48 6 11 10
24 22 28 28 9 12 -10 35 -28 35 -7 0 -18 17 -23 38 -16 58 -33 76 -74 74 -20
-1 -40 5 -47 13 -7 8 -15 14 -19 14 -3 -1 -14 -3 -23 -6z"/>
<path d="M9764 3648 c-24 -11 -54 -68 -54 -101 1 -43 36 -70 108 -82 51 -8 59
-23 45 -77 -8 -31 -8 -42 4 -53 15 -15 43 -10 43 8 0 6 10 21 21 33 12 13 23
41 26 67 5 39 2 46 -22 65 -17 13 -42 22 -64 22 -56 0 -68 12 -53 52 22 62 -2
92 -54 66z"/>
<path d="M11790 3640 c-35 -8 -37 -47 -6 -84 39 -44 43 -67 15 -86 -69 -45
-75 -69 -24 -92 21 -10 31 -9 56 6 l29 17 19 -44 c11 -25 24 -48 30 -51 15
-10 59 4 65 20 5 12 -23 64 -54 101 -18 22 -9 48 38 106 12 16 22 33 22 39 0
15 -52 0 -76 -23 -25 -23 -29 -19 -39 33 -8 43 -39 67 -75 58z"/>
<path d="M2856 3581 c-4 -6 -23 -18 -43 -27 -49 -24 -91 -84 -85 -123 5 -37
23 -54 54 -49 19 2 23 8 20 36 -2 31 10 43 23 22 10 -16 111 -12 125 5 7 8 20
15 30 15 42 0 65 66 36 105 -11 15 -30 20 -84 23 -43 3 -72 0 -76 -7z"/>
<path d="M10745 3543 c-29 -37 -41 -90 -26 -113 8 -11 30 -15 88 -15 l78 0 -2
-39 c-2 -22 -10 -47 -18 -56 -18 -20 -10 -30 25 -30 20 0 34 10 53 38 35 52
40 76 23 110 -17 33 -40 42 -105 42 -47 0 -46 -3 -29 70 2 8 -10 16 -29 20
-29 7 -35 4 -58 -27z"/>
<path d="M9138 3528 c-19 -34 -16 -190 6 -253 10 -27 25 -59 35 -70 37 -42 45
-81 32 -156 -7 -38 -17 -71 -22 -75 -14 -8 -11 -61 4 -67 7 -3 27 1 44 8 34
14 43 42 43 130 0 55 8 65 50 65 10 0 27 12 38 27 l20 28 40 -23 c46 -25 87
-28 108 -8 21 22 17 35 -13 41 -35 8 -40 11 -98 59 -40 34 -50 38 -73 30 -15
-5 -33 -22 -40 -37 -7 -15 -17 -25 -21 -23 -5 3 -11 50 -15 105 -11 161 -36
221 -98 236 -21 5 -29 2 -40 -17z"/>
<path d="M3570 3504 c-8 -3 -24 -18 -35 -34 -11 -17 -25 -30 -31 -30 -6 0 -18
-8 -27 -18 -15 -16 -15 -21 -2 -39 13 -18 12 -26 -11 -73 -28 -57 -28 -77 -1
-94 15 -9 21 -6 37 14 11 14 20 35 20 47 0 12 11 35 24 50 21 24 32 28 78 29
97 1 100 2 96 26 -2 19 -11 24 -51 30 -27 4 -51 8 -53 10 -2 3 2 19 9 37 10
27 9 33 -3 41 -16 10 -24 11 -50 4z"/>
<path d="M3090 3478 c-18 -10 -26 -23 -28 -48 -2 -30 3 -41 38 -75 28 -27 40
-48 40 -67 0 -15 -1 -28 -2 -28 -2 -1 -31 -3 -64 -6 -50 -4 -62 -2 -67 10 -9
23 -54 20 -62 -3 -9 -28 3 -48 41 -66 44 -21 124 -12 180 19 35 19 39 26 42
66 2 37 -2 50 -23 72 -31 34 -31 45 0 70 25 20 32 42 17 52 -22 14 -89 16
-112 4z"/>
<path d="M808 3347 c-23 -24 -55 -59 -69 -78 -24 -30 -29 -33 -48 -21 -50 30
-75 8 -65 -57 5 -34 2 -42 -35 -85 -23 -26 -41 -51 -41 -56 0 -4 8 -18 18 -30
16 -19 21 -20 45 -9 15 7 27 15 27 18 0 3 18 26 40 50 l41 44 47 -11 c26 -6
57 -14 70 -18 18 -5 22 -2 22 15 0 11 -6 21 -13 21 -19 0 -87 49 -87 63 0 7
14 27 30 45 17 18 30 37 30 41 0 4 10 12 22 18 17 7 30 5 54 -9 30 -18 64 -16
64 4 0 15 -20 51 -43 76 -31 33 -60 28 -109 -21z"/>
<path d="M12563 3293 c-20 -46 -18 -94 3 -110 9 -6 33 -14 54 -18 58 -10 66
-26 30 -60 -36 -35 -38 -52 -5 -67 21 -9 29 -7 58 18 47 39 90 121 77 145 -15
27 -28 32 -84 33 l-51 1 0 35 c0 45 -10 60 -41 60 -19 0 -29 -8 -41 -37z"/>
<path d="M4343 3258 c-5 -7 -10 -32 -11 -55 0 -24 -9 -59 -18 -79 -35 -73 -15
-154 37 -154 19 0 88 84 132 161 15 25 36 54 47 64 27 25 25 49 -5 63 -38 18
-41 16 -65 -32 -23 -48 -46 -73 -57 -62 -4 4 -3 15 2 24 6 9 9 32 7 50 -3 28
-7 32 -31 32 -16 0 -33 -6 -38 -12z"/>
<path d="M11627 3243 c-2 -4 -8 -25 -11 -47 l-7 -38 -25 23 c-20 19 -29 21
-52 13 -65 -23 -24 -145 53 -160 47 -8 93 11 101 43 6 24 0 151 -7 157 -11 10
-48 16 -52 9z"/>
<path d="M2076 3214 c-94 -35 -101 -90 -18 -159 17 -15 32 -30 32 -34 0 -12
-48 -31 -79 -31 -15 0 -36 -6 -46 -14 -17 -12 -18 -16 -5 -31 20 -25 127 -16
168 14 17 11 35 21 41 21 27 0 7 43 -41 90 -59 58 -59 57 27 90 32 12 40 21
40 40 0 22 -5 25 -40 27 -22 1 -58 -5 -79 -13z"/>
<path d="M10434 3206 c-26 -12 -34 -23 -44 -65 l-12 -51 -33 20 c-18 11 -49
20 -68 20 -27 0 -39 6 -48 23 -16 31 -28 37 -71 37 -32 0 -39 -4 -44 -26 -5
-19 0 -32 21 -54 26 -27 27 -31 15 -62 -7 -18 -19 -40 -27 -49 -19 -23 -16
-46 9 -63 12 -9 26 -16 30 -16 17 0 48 42 48 65 0 39 16 30 50 -30 40 -70 55
-85 87 -85 23 0 25 3 21 35 -4 34 -3 35 29 35 47 0 65 31 52 88 -15 67 17 107
45 57 28 -51 80 -71 105 -41 13 15 -1 56 -18 56 -5 0 -15 14 -22 32 -13 33
-66 87 -84 87 -5 0 -24 -6 -41 -13z"/>
<path d="M4699 3178 c-68 -46 -110 -116 -116 -192 -4 -55 -2 -64 21 -88 31
-33 79 -43 132 -29 89 25 83 51 -11 51 -52 0 -66 4 -74 18 -13 24 -2 38 37 47
17 3 32 11 32 16 0 5 5 9 11 9 18 0 99 88 110 120 9 24 8 35 -5 55 -24 36 -77
33 -137 -7z"/>
<path d="M5353 3161 c-12 -11 -23 -38 -26 -65 -4 -26 -11 -56 -17 -66 -10 -19
-12 -19 -42 -4 -31 16 -32 16 -55 -11 -21 -24 -22 -30 -10 -48 7 -11 33 -28
56 -36 38 -14 42 -18 36 -41 -6 -27 -7 -33 -3 -82 3 -29 6 -33 33 -33 l30 0 1
62 c0 72 14 93 60 93 49 0 86 17 82 38 -2 13 -16 18 -58 22 l-55 5 3 40 c2 22
12 53 24 69 17 24 18 31 7 52 -15 29 -38 31 -66 5z"/>
<path d="M7545 3112 c-23 -4 -82 -64 -89 -90 -2 -9 -9 -40 -16 -68 -7 -31 -22
-61 -36 -75 -39 -37 -26 -83 29 -102 9 -4 17 -17 17 -30 0 -33 35 -67 69 -67
42 0 58 44 35 93 -17 36 -17 37 6 62 13 14 32 25 42 25 10 0 18 4 18 8 0 5 27
21 60 36 112 52 51 79 -68 31 -77 -31 -90 -31 -98 0 -9 38 11 76 61 114 52 39
60 70 18 68 -16 0 -37 -3 -48 -5z"/>
<path d="M12310 3085 c-21 -40 -17 -151 7 -183 28 -37 53 -38 98 -2 21 17 45
28 53 25 17 -6 75 50 70 68 -3 6 -15 14 -29 15 -13 2 -31 10 -39 17 -8 7 -31
16 -50 20 -30 5 -36 10 -35 33 0 23 -5 27 -31 30 -24 2 -33 -2 -44 -23z"/>
<path d="M8531 3047 c-29 -29 -61 -68 -72 -87 -28 -47 -26 -45 -54 -30 -33 18
-46 5 -52 -53 -6 -50 -18 -59 -95 -72 -50 -8 -49 7 2 69 46 56 48 67 18 101
-39 45 -115 24 -162 -43 -24 -36 -28 -49 -23 -88 3 -32 13 -54 33 -75 25 -26
34 -29 90 -29 35 0 65 4 69 10 3 5 22 14 41 19 31 9 41 7 73 -15 60 -39 73
-28 85 79 7 59 29 109 71 162 30 38 55 78 55 88 0 3 -6 7 -14 10 -9 4 -35 -15
-65 -46z"/>
<path d="M11136 3074 c-12 -30 -6 -50 25 -86 33 -37 59 -100 87 -205 21 -79
30 -87 80 -78 38 6 42 10 62 63 12 31 29 73 38 92 9 19 18 62 20 95 5 74 -8
90 -63 79 -33 -6 -40 -13 -63 -63 -31 -69 -29 -66 -45 -53 -14 12 -27 49 -47
130 -10 40 -12 42 -49 42 -26 0 -41 -5 -45 -16z"/>
<path d="M4892 3068 c-7 -7 -12 -21 -13 -32 0 -12 -8 -51 -18 -88 -14 -56 -15
-73 -5 -97 17 -40 29 -44 70 -25 l37 18 21 -27 c21 -27 55 -34 90 -21 21 8 20
19 -5 54 -18 23 -21 37 -16 73 5 38 3 47 -17 66 -25 24 -46 27 -65 9 -11 -11
-13 -8 -8 16 8 46 -41 84 -71 54z"/>
<path d="M7852 3007 c-6 -7 -12 -37 -14 -67 l-3 -55 -44 0 c-34 0 -47 -5 -58
-22 -18 -28 -12 -46 22 -69 24 -15 27 -15 44 0 25 23 50 20 61 -8 11 -29 45
-50 67 -42 11 5 14 16 11 42 -4 32 1 40 39 74 42 36 56 70 30 70 -6 0 -27 -4
-45 -9 -30 -9 -32 -8 -32 14 0 13 -4 27 -10 30 -5 3 -10 14 -10 25 0 28 -40
40 -58 17z"/>
<path d="M6046 2965 c-43 -32 -48 -34 -69 -21 -39 26 -128 15 -149 -18 -5 -7
-17 -1 -36 17 -15 15 -33 27 -40 27 -14 0 -32 -32 -32 -59 0 -34 -41 -70 -87
-77 l-43 -7 0 41 c0 41 -15 57 -44 46 -29 -11 -45 -85 -30 -141 10 -36 64 -39
132 -7 31 15 65 34 74 42 22 18 48 9 48 -17 0 -33 11 -51 41 -66 36 -19 36
-19 54 8 11 17 12 31 5 56 -5 18 -7 38 -4 46 8 21 46 43 88 50 31 6 36 5 36
-11 0 -25 36 -84 51 -84 7 0 26 -11 43 -24 66 -50 259 -51 240 -1 -4 10 -21
15 -54 15 -27 0 -60 4 -75 10 -25 10 -25 10 -9 42 53 102 27 168 -66 168 -17
0 -47 -14 -74 -35z"/>
<path d="M12167 2983 c-11 -10 -8 -51 3 -58 17 -11 11 -75 -10 -105 -19 -26
-21 -27 -61 -16 -33 9 -43 8 -46 -1 -3 -7 -11 -13 -20 -13 -12 0 -14 -9 -8
-50 9 -64 -9 -67 -36 -5 -11 24 -24 47 -30 51 -17 10 -53 -4 -67 -27 -11 -18
-11 -24 2 -38 9 -10 16 -21 16 -25 0 -8 15 -28 57 -73 26 -28 39 -34 65 -31
28 3 36 10 61 58 23 46 34 56 64 64 31 7 39 17 65 73 38 81 41 158 7 186 -22
17 -50 22 -62 10z"/>
<path d="M7145 2893 c-22 -10 -51 -27 -65 -40 -14 -13 -30 -23 -36 -23 -17 0
-52 -42 -69 -82 -18 -45 -20 -89 -3 -106 21 -21 85 -14 130 14 38 24 46 26 87
16 37 -8 51 -7 76 5 55 29 55 53 1 53 -32 0 -34 3 -38 38 -3 20 -1 48 4 60 10
28 -9 76 -32 79 -8 1 -33 -5 -55 -14z"/>
<path d="M1234 2863 c-22 -4 -36 -38 -49 -113 -3 -19 -16 -51 -29 -71 -22 -33
-138 -120 -236 -177 -48 -28 -55 -66 -15 -84 26 -12 55 2 55 26 0 11 21 31 99
92 14 11 55 35 91 53 36 18 76 43 90 55 14 12 51 38 83 56 31 19 57 37 57 41
0 4 -8 17 -18 29 -15 18 -21 20 -45 11 -42 -16 -45 -14 -43 29 1 44 -9 58 -40
53z"/>
<path d="M2613 2841 c-70 -83 -92 -114 -117 -165 -15 -31 -26 -68 -24 -83 3
-27 6 -28 61 -31 41 -2 66 2 83 13 22 14 27 14 70 -6 36 -16 57 -19 90 -14 24
3 46 10 49 15 3 5 23 17 43 27 20 10 61 40 90 68 40 40 52 58 52 82 0 62 -69
75 -81 15 -4 -18 -15 -42 -24 -52 -26 -29 -106 -78 -134 -82 -20 -2 -26 3 -35
36 -8 30 -18 42 -40 49 -26 9 -31 5 -70 -38 -27 -31 -47 -46 -60 -44 -16 4
-13 11 22 63 23 35 56 68 78 81 43 24 51 42 32 66 -23 30 -61 30 -85 0z"/>
<path d="M3125 2651 c-6 -5 -25 -13 -44 -18 -19 -5 -38 -15 -41 -23 -4 -8 -17
-34 -29 -56 -26 -51 -27 -76 -3 -96 20 -18 79 -28 104 -19 9 3 31 19 48 35 29
25 32 32 26 67 -4 24 -2 39 4 39 6 0 15 11 22 25 8 19 8 28 -2 40 -14 16 -70
20 -85 6z"/>
<path d="M1346 2625 c-34 -18 -67 -52 -103 -106 -27 -41 -26 -86 3 -109 15
-14 124 -5 124 10 0 4 12 11 28 15 46 11 62 33 62 85 0 30 -6 52 -15 60 -8 7
-15 17 -15 23 0 11 -30 36 -45 37 -5 0 -23 -7 -39 -15z"/>
<path d="M441 2596 c-29 -19 -66 -53 -83 -75 -16 -23 -30 -41 -31 -41 -1 0
-33 -11 -72 -25 -38 -13 -77 -25 -86 -25 -9 0 -51 -16 -93 -35 l-76 -36 0 -69
c0 -66 1 -70 23 -70 30 0 170 26 236 45 49 13 57 13 78 0 29 -19 45 -11 37 19
-5 20 1 26 38 41 23 9 45 20 48 24 3 3 28 24 57 45 28 21 61 52 74 69 26 35
35 100 20 140 -10 25 -15 27 -64 27 -43 0 -62 -6 -106 -34z m-161 -229 l0 -43
-67 -17 c-38 -9 -89 -20 -116 -23 -43 -6 -47 -5 -47 14 0 26 87 77 150 87 25
4 52 11 60 16 8 5 16 9 18 9 1 0 2 -19 2 -43z"/>
<path d="M9440 2596 c-11 -21 -11 -31 0 -57 13 -30 12 -33 -16 -56 -16 -13
-40 -26 -54 -30 -13 -3 -33 -14 -44 -24 -16 -16 -17 -21 -5 -35 7 -9 24 -20
38 -25 20 -8 29 -6 48 16 40 43 59 34 72 -35 12 -61 39 -94 67 -83 21 8 21 34
2 88 -34 94 -21 138 52 181 53 32 33 66 -21 38 -31 -15 -33 -15 -45 2 -26 37
-35 44 -58 44 -14 0 -28 -9 -36 -24z"/>
<path d="M10527 2518 c-14 -24 -27 -63 -29 -87 -3 -41 0 -46 29 -64 18 -10 47
-21 65 -24 45 -7 47 -11 15 -37 -49 -39 -10 -78 56 -57 33 11 57 51 57 95 0
45 -66 94 -117 87 -18 -3 -16 22 5 58 21 37 9 64 -31 69 -21 3 -30 -4 -50 -40z"/>
<path d="M3310 2529 c-24 -10 -84 -79 -109 -127 -15 -28 -3 -47 34 -56 19 -5
44 7 115 56 l90 62 31 -18 c24 -14 33 -15 44 -6 21 17 19 35 -9 67 -25 29 -30
29 -127 -3 -11 -4 -18 2 -22 15 -6 23 -10 24 -47 10z"/>
<path d="M4943 2513 c-10 -16 -26 -34 -35 -41 -27 -19 -23 -68 7 -96 14 -13
25 -30 25 -39 0 -23 -30 -48 -50 -42 -22 7 -41 -16 -51 -63 -9 -44 -37 -130
-49 -153 -5 -9 -12 -33 -15 -52 -6 -30 -3 -40 19 -61 28 -29 53 -32 111 -12
37 13 41 13 63 -9 35 -35 70 -37 123 -8 26 14 52 36 60 49 7 13 16 24 21 24 4
0 8 9 8 21 0 27 52 76 89 84 16 3 37 15 47 26 9 10 22 19 28 19 13 0 51 54 66
94 23 62 -18 78 -49 19 -32 -62 -166 -139 -189 -110 -5 7 -12 40 -16 75 -6 62
-19 101 -39 114 -6 3 15 19 46 34 38 19 57 34 55 44 -4 18 -35 15 -76 -6 -15
-7 -37 -14 -49 -14 -21 0 -23 5 -23 46 0 68 -12 84 -65 84 -38 0 -47 -4 -62
-27z m107 -208 c0 -7 -7 -18 -16 -23 -8 -4 -17 -25 -20 -46 -2 -20 -5 -40 -6
-44 -1 -4 1 -20 4 -37 5 -21 20 -38 52 -58 25 -16 46 -32 46 -37 0 -4 -14 -22
-32 -39 -24 -23 -35 -28 -45 -20 -7 6 -13 17 -13 25 0 25 -31 44 -73 44 -34 0
-44 -4 -52 -22 -13 -29 -45 -37 -45 -11 0 11 4 23 8 28 5 6 15 26 22 45 8 19
30 55 50 80 19 25 48 64 63 88 27 41 57 56 57 27z"/>
<path d="M3678 2500 c-16 -16 -28 -37 -28 -47 0 -10 -11 -36 -25 -58 -52 -85
-60 -105 -49 -123 22 -34 59 -26 135 30 14 10 21 7 41 -16 30 -36 105 -48 131
-21 21 20 22 45 3 45 -15 0 -76 47 -76 58 0 4 27 20 61 36 63 29 80 49 60 69
-21 21 -75 10 -131 -27 -32 -21 -56 -32 -59 -25 -2 6 2 16 8 22 15 15 14 60
-1 75 -19 19 -41 13 -70 -18z"/>
<path d="M6870 2493 c-19 -9 -49 -22 -67 -30 -36 -15 -51 -47 -33 -68 16 -19
59 -19 66 0 4 8 12 15 20 15 15 0 17 -24 5 -55 -11 -27 17 -75 44 -75 11 0 25
-4 32 -8 25 -16 24 -132 -2 -298 -7 -39 -6 -41 26 -54 31 -13 33 -13 59 18 28
33 50 42 50 19 0 -40 95 -83 118 -54 18 21 24 177 9 207 -16 30 -81 64 -129
65 -21 1 -41 4 -45 9 -4 4 0 29 10 55 9 27 17 58 17 68 0 29 -32 53 -68 53
-39 0 -40 6 -2 49 17 18 30 42 30 52 0 47 -71 63 -140 32z"/>
<path d="M11549 2453 c-21 -25 -24 -37 -24 -105 1 -83 -2 -89 -15 -36 -11 43
-35 106 -43 114 -3 4 -18 4 -32 0 -22 -6 -25 -12 -25 -46 0 -25 9 -55 23 -78
13 -20 32 -61 42 -91 19 -58 53 -101 80 -101 33 0 55 20 55 50 0 25 4 30 23
30 13 0 39 11 58 25 44 33 119 116 119 132 0 22 -41 14 -79 -16 -49 -38 -75
-51 -105 -51 -24 0 -26 4 -26 41 0 23 10 61 22 85 17 36 19 46 8 59 -19 23
-54 18 -81 -12z"/>
<path d="M1585 2454 c-11 -9 -28 -22 -38 -29 -49 -35 -11 -135 51 -135 96 0
198 97 147 140 -17 14 -40 1 -50 -29 -5 -16 -75 -47 -75 -33 0 3 5 20 12 38 9
26 9 36 -1 48 -16 20 -21 19 -46 0z"/>
<path d="M8851 2396 c-20 -24 -30 -75 -42 -208 -10 -123 -10 -130 10 -162 32
-52 81 -62 130 -27 29 21 55 88 45 114 -8 22 -45 44 -88 52 -33 7 -36 10 -36
40 0 37 14 87 37 128 12 23 13 31 1 45 -27 35 -40 39 -57 18z"/>
<path d="M4102 2386 c-72 -26 -78 -72 -16 -121 19 -15 34 -32 34 -39 0 -21
-64 -40 -139 -40 -76 -1 -96 -12 -66 -36 21 -18 199 -20 216 -2 7 6 21 12 30
12 9 0 23 14 32 32 14 28 14 35 1 60 -8 15 -18 28 -23 28 -5 0 -11 7 -15 15
-3 10 5 20 24 30 21 11 30 23 30 39 0 37 -42 46 -108 22z"/>
<path d="M2404 2361 c-58 -35 -124 -146 -124 -207 0 -16 -18 -30 -73 -58 -40
-20 -77 -36 -82 -36 -14 0 -63 -63 -75 -96 -8 -21 -7 -33 8 -58 17 -29 22 -31
81 -33 50 -2 66 1 83 17 12 11 29 20 38 20 8 0 32 11 52 25 34 23 38 24 65 10
15 -8 33 -15 39 -15 19 0 24 28 9 44 -21 20 -20 23 21 69 70 77 108 214 69
247 -22 18 -27 9 -37 -61 -9 -69 -36 -123 -79 -157 l-29 -24 0 31 c0 16 -7 36
-15 45 -8 8 -15 23 -15 33 1 30 44 106 71 122 14 9 39 25 57 36 36 23 40 40
13 55 -28 14 -42 13 -77 -9z"/>
<path d="M9242 2348 c-7 -7 -9 -27 -6 -52 5 -33 2 -46 -15 -66 l-21 -25 -23
25 c-34 39 -68 27 -86 -29 -16 -50 -8 -71 31 -85 42 -15 80 3 135 61 66 72 75
132 25 169 -21 17 -25 17 -40 2z"/>
<path d="M6340 2332 c-29 -9 -60 -46 -60 -71 0 -14 -7 -48 -16 -76 -16 -51
-28 -94 -44 -154 -10 -38 2 -71 24 -71 12 0 66 124 66 152 0 5 18 48 40 94 22
47 40 91 40 99 0 18 -30 34 -50 27z"/>
<path d="M6103 2298 c-22 -24 -53 -115 -53 -155 0 -13 -4 -23 -8 -23 -5 0 -14
-30 -21 -67 -7 -38 -14 -80 -17 -94 -6 -30 25 -63 52 -57 15 3 19 15 21 68 3
79 48 232 78 264 30 32 38 56 24 72 -17 21 -53 17 -76 -8z"/>
<path d="M552 2273 c-5 -10 -12 -29 -15 -43 -3 -14 -20 -33 -36 -43 -35 -21
-44 -41 -33 -82 13 -48 44 -57 132 -39 41 9 87 22 102 30 32 17 62 78 53 111
-9 38 -64 70 -132 78 -54 6 -63 4 -71 -12z"/>
<path d="M11226 2261 c-11 -17 4 -62 57 -173 56 -118 79 -141 122 -118 32 17
32 35 -1 56 -34 23 -54 63 -79 159 l-20 80 -37 3 c-20 2 -39 -1 -42 -7z"/>
<path d="M5568 2200 c-104 -70 -129 -117 -104 -198 9 -29 57 -45 135 -46 70 0
126 16 135 40 4 11 -11 14 -84 14 -49 0 -91 4 -94 9 -3 5 10 9 29 9 42 0 102
44 130 95 19 35 19 35 -5 70 -32 46 -79 48 -142 7z"/>
<path d="M8023 2199 c-74 -34 -134 -136 -103 -175 25 -29 77 -44 125 -35 48 9
70 23 87 54 10 19 8 20 -43 14 -51 -6 -52 -6 -28 10 78 52 97 95 59 133 -24
24 -42 24 -97 -1z"/>
<path d="M7372 2190 c-31 -7 -71 -35 -97 -69 -25 -30 -37 -97 -26 -139 14 -51
26 -60 94 -73 50 -10 60 -9 94 8 21 11 39 27 41 36 3 13 -8 15 -65 14 -64 -2
-68 -1 -81 26 -7 15 -11 33 -9 40 3 7 10 0 16 -15 21 -53 86 -33 142 45 40 55
38 86 -6 115 -37 23 -50 25 -103 12z"/>
<path d="M9822 2191 c-7 -4 -19 -20 -27 -34 -12 -23 -11 -28 7 -44 26 -23 48
-66 48 -93 0 -25 -42 -92 -80 -128 -45 -42 -47 -68 -9 -87 44 -23 75 -8 89 43
5 22 16 45 24 51 12 10 16 5 26 -24 6 -19 16 -35 21 -35 5 0 9 -24 9 -54 0
-46 3 -56 20 -61 48 -15 50 12 13 136 -20 66 -24 92 -15 101 15 15 62 -16 62
-42 0 -43 76 -81 96 -48 4 6 17 46 29 87 26 91 42 99 90 47 34 -37 53 -43 86
-26 27 15 24 47 -8 67 -16 10 -43 32 -61 50 -19 17 -47 35 -64 38 -40 9 -75
-25 -91 -89 l-12 -47 -40 27 c-30 21 -51 28 -83 27 -37 -1 -44 2 -52 23 -6 14
-9 38 -7 55 1 23 -4 33 -28 49 -18 11 -36 16 -43 11z"/>
<path d="M7678 2167 c-12 -10 -16 -29 -16 -82 1 -39 -2 -89 -6 -112 -7 -39 -6
-43 22 -57 28 -14 32 -14 51 2 15 11 23 33 27 67 7 58 39 106 83 125 32 13 43
47 19 54 -39 12 -164 14 -180 3z"/>
<path d="M2852 2123 c-33 -29 -62 -94 -62 -142 0 -41 -4 -48 -65 -107 -58 -57
-83 -104 -56 -104 5 0 11 -10 13 -22 2 -15 13 -25 36 -32 37 -10 66 1 120 46
18 16 37 28 42 28 6 0 22 26 37 58 20 43 28 80 32 149 3 51 5 97 3 103 -4 11
-55 40 -70 40 -6 0 -19 -8 -30 -17z"/>
<path d="M825 2095 c-55 -20 -77 -49 -73 -99 3 -36 7 -43 41 -59 32 -15 37
-21 32 -40 -7 -21 -6 -21 7 -3 12 15 22 17 49 13 19 -4 40 -3 48 2 20 13 6 41
-20 41 -12 0 -20 3 -16 6 3 3 34 6 69 5 72 -1 124 13 132 35 10 26 -17 68 -49
77 -17 5 -43 13 -60 17 -63 18 -120 20 -160 5z"/>
<path d="M8479 2073 c-49 -57 -83 -189 -56 -211 20 -17 49 13 68 71 7 23 22
54 33 70 35 48 -8 114 -45 70z"/>
<path d="M2552 1992 c-12 -10 -30 -40 -41 -66 -23 -51 -15 -90 21 -101 37 -12
58 4 58 44 0 22 6 44 15 51 19 16 19 40 -1 68 -18 27 -25 27 -52 4z"/>
<path d="M1080 1950 c-29 -29 -35 -66 -16 -95 23 -35 12 -47 -28 -30 -25 11
-36 11 -44 3 -18 -18 -14 -43 8 -63 26 -23 118 -27 143 -6 20 16 23 91 5 109
-8 8 -8 15 2 27 10 12 24 14 60 9 51 -7 90 7 90 31 0 25 -36 35 -119 35 -67 0
-84 -3 -101 -20z"/>
<path d="M10930 1894 c-6 -14 -13 -44 -16 -67 -7 -43 -16 -54 -92 -108 -42
-30 -44 -30 -63 -13 -10 9 -19 23 -19 31 0 8 -7 27 -15 43 -13 24 -22 30 -50
30 -24 0 -37 -6 -45 -21 -13 -23 -9 -30 47 -88 42 -44 42 -64 -2 -89 -42 -26
-57 -69 -30 -89 26 -18 41 -16 76 9 30 23 31 23 45 4 8 -11 14 -26 14 -33 0
-26 37 -55 59 -48 28 9 27 40 -4 94 -14 23 -25 51 -25 61 0 10 23 37 52 60 49
39 53 40 65 23 24 -36 34 -43 56 -43 24 0 77 43 77 63 1 28 16 38 43 28 41
-16 86 -3 102 30 8 15 12 35 9 43 -8 20 -8 20 -45 1 -35 -19 -42 -16 -60 27
-16 40 -26 48 -60 48 -15 0 -32 7 -39 15 -7 8 -26 15 -41 15 -22 0 -32 -6 -39
-26z"/>
<path d="M3550 1822 c-12 -9 -25 -33 -29 -52 l-7 -35 -77 3 c-74 3 -78 2 -89
-22 -18 -42 3 -56 83 -56 l69 0 0 -44 c0 -38 3 -44 24 -48 36 -7 44 2 50 52 2
25 5 48 5 52 2 11 57 19 84 13 15 -4 29 -16 33 -27 7 -23 -14 -98 -28 -98 -13
0 -10 -64 4 -78 19 -19 63 -14 83 8 26 28 41 25 51 -12 7 -25 16 -34 36 -36
23 -3 29 2 34 25 12 46 9 120 -6 138 -10 12 -26 16 -56 13 -41 -3 -41 -2 -52
37 -14 53 -48 95 -75 95 -45 0 -67 12 -67 35 0 19 -27 55 -42 55 -3 0 -16 -8
-28 -18z"/>
<path d="M1434 1787 c-16 -13 -40 -28 -52 -32 -13 -4 -33 -16 -43 -26 -10 -10
-30 -19 -44 -19 -29 0 -43 -36 -26 -68 12 -23 55 -34 85 -22 47 18 126 40 147
40 22 0 21 -2 -10 -34 -35 -36 -39 -71 -9 -89 22 -14 68 6 68 30 0 10 22 36
49 58 54 44 62 59 48 92 -13 29 -38 34 -99 18 -55 -15 -80 -11 -53 9 10 7 15
22 13 37 -4 33 -38 36 -74 6z"/>
<path d="M2051 1669 c-13 -5 -40 -22 -60 -38 -36 -29 -36 -29 -60 -10 -52 42
-105 8 -81 -52 7 -16 16 -29 21 -29 14 0 10 -34 -6 -56 -19 -25 -19 -69 1 -88
8 -9 19 -16 23 -16 18 0 41 39 41 67 0 34 18 53 64 68 17 5 36 20 42 33 6 12
21 33 32 45 27 29 38 73 20 79 -7 3 -24 1 -37 -3z"/>
<path d="M4232 1643 c-25 -5 -38 -24 -47 -73 -5 -31 -2 -39 29 -69 20 -19 36
-39 36 -44 0 -6 -16 -24 -36 -41 -70 -61 -3 -98 74 -40 64 49 80 114 33 138
-33 18 -46 42 -25 50 21 8 18 63 -5 76 -11 5 -23 9 -28 9 -4 -1 -18 -4 -31 -6z"/>
<path d="M8936 1604 c-22 -21 -20 -37 9 -80 32 -47 31 -56 -6 -87 l-31 -26 18
-26 c16 -22 25 -25 58 -21 42 5 57 -5 76 -52 8 -18 17 -23 37 -20 37 4 41 30
11 76 -43 65 -42 79 9 144 25 32 43 61 40 65 -4 3 -30 -10 -59 -30 -58 -41
-72 -38 -83 21 -10 53 -46 69 -79 36z"/>
<path d="M7553 1560 c-40 -24 -49 -53 -45 -152 1 -43 3 -102 4 -130 1 -29 0
-80 -2 -113 -6 -107 26 -155 105 -155 48 0 102 59 129 143 3 9 16 21 30 27 35
13 39 26 12 43 -19 13 -24 27 -29 84 -3 38 -11 82 -18 98 -23 53 -98 151 -124
163 -32 15 -24 16 -62 -8z m82 -73 c41 -41 85 -189 70 -236 -15 -48 -94 -7
-81 43 8 33 -2 56 -30 67 -20 7 -24 16 -24 52 0 42 21 87 41 87 6 0 16 -6 24
-13z"/>
<path d="M5161 1541 c-17 -11 -10 -143 13 -221 9 -30 14 -65 11 -76 -7 -31
-72 -122 -113 -159 -38 -35 -38 -66 -1 -86 25 -13 42 -1 60 44 19 48 117 176
232 301 47 51 50 62 25 91 -14 16 -29 24 -38 20 -8 -3 -35 -35 -59 -70 -24
-35 -48 -62 -54 -58 -6 4 -7 42 -3 103 6 102 1 120 -38 120 -12 0 -27 -4 -35
-9z"/>
<path d="M10001 1461 c-8 -14 -5 -29 9 -59 11 -23 20 -47 20 -54 0 -7 7 -22
15 -32 8 -11 15 -26 15 -33 0 -13 21 -66 53 -133 24 -50 51 -80 73 -80 34 0
39 18 15 51 -11 15 -21 33 -21 39 0 5 -4 10 -8 10 -17 0 -67 144 -82 234 -5
33 -15 63 -22 68 -23 14 -57 9 -67 -11z"/>
<path d="M7305 1442 c-3 -16 -2 -40 4 -53 5 -14 12 -70 16 -124 10 -146 30
-182 89 -159 20 8 20 23 0 45 -12 13 -17 48 -21 151 -4 117 -7 135 -25 151
-31 26 -55 22 -63 -11z"/>
<path d="M8327 1453 c-25 -29 -45 -100 -61 -218 -16 -127 -9 -155 42 -155 36
0 89 54 98 98 4 17 10 32 15 32 4 0 11 9 14 20 10 31 18 24 43 -32 13 -29 27
-61 32 -70 17 -30 11 -44 -30 -86 -22 -22 -40 -47 -40 -55 0 -22 70 -94 105
-107 53 -20 97 -22 117 -4 19 18 23 53 9 82 -41 84 -61 129 -61 139 0 7 -6 16
-14 20 -7 4 -30 41 -51 81 -31 60 -38 87 -42 153 -5 71 -9 82 -30 97 -20 12
-29 13 -44 4 -16 -10 -21 -10 -25 3 -8 21 -57 19 -77 -2z"/>
<path d="M8714 1383 c-21 -32 -29 -145 -12 -176 5 -11 22 -33 36 -49 24 -26
32 -29 69 -25 45 5 77 32 89 75 9 31 -2 39 -24 19 -21 -19 -92 -23 -92 -6 0 6
8 13 19 16 24 6 41 44 41 92 0 74 -87 112 -126 54z"/>
<path d="M4432 1377 c-12 -7 -38 -36 -57 -64 -19 -28 -39 -54 -45 -58 -15 -9
-12 -55 4 -61 28 -11 140 88 159 139 8 22 -8 57 -26 57 -7 -1 -22 -6 -35 -13z"/>
<path d="M5440 1371 c-5 -11 -10 -27 -10 -36 0 -9 -13 -22 -29 -28 -22 -8 -31
-19 -34 -41 -3 -17 -1 -35 3 -41 5 -5 5 -28 1 -50 -13 -73 14 -114 75 -115 29
0 102 65 119 107 20 46 20 45 -15 79 -33 32 -38 55 -15 74 25 21 18 47 -16 59
-46 16 -67 14 -79 -8z"/>
<path d="M6448 1327 c-23 -20 -51 -62 -74 -110 -35 -74 -36 -80 -24 -117 7
-22 23 -49 36 -61 20 -19 30 -21 71 -15 33 4 53 13 65 28 23 32 13 39 -41 32
-36 -5 -50 -2 -60 10 -7 9 -9 16 -3 16 5 0 12 23 14 51 6 64 34 102 79 110 63
10 76 32 39 69 -28 28 -59 25 -102 -13z"/>
<path d="M5874 1325 c10 -39 -4 -74 -35 -90 -39 -21 -39 -20 -33 29 5 37 3 46
-13 54 -33 18 -66 -7 -81 -62 -12 -43 -12 -53 1 -81 22 -47 63 -52 132 -18 71
34 110 88 101 138 -7 35 -29 55 -61 55 -13 0 -16 -6 -11 -25z"/>
<path d="M2574 1301 c-41 -24 -59 -28 -91 -24 -36 5 -42 2 -78 -36 -50 -53
-64 -78 -65 -118 0 -22 6 -36 20 -43 29 -15 67 -2 74 25 7 28 96 94 96 72 0
-8 -8 -25 -18 -38 -30 -38 -34 -60 -17 -85 19 -29 44 -30 95 -4 54 27 58 26
62 -21 2 -33 8 -44 25 -50 20 -7 24 -4 29 19 3 15 12 42 20 60 20 47 18 95 -5
109 -19 12 -43 8 -95 -13 -16 -6 -12 6 19 64 38 70 38 72 20 92 -24 26 -30 25
-91 -9z"/>
<path d="M6683 1296 c-27 -31 -63 -136 -61 -180 2 -47 34 -77 91 -83 32 -4 52
0 72 13 29 19 115 130 115 149 0 22 -56 63 -95 68 -22 4 -41 11 -43 17 -6 17
-32 40 -46 40 -7 0 -22 -11 -33 -24z"/>
<path d="M6955 1270 c-4 -6 -3 -45 0 -88 6 -65 12 -82 36 -112 24 -28 36 -35
68 -35 49 0 67 16 97 83 27 60 30 92 12 110 -16 16 -48 15 -52 0 -20 -73 -31
-98 -44 -103 -21 -8 -35 20 -38 72 -2 24 -8 52 -14 63 -11 21 -54 28 -65 10z"/>
<path d="M3667 1146 c-12 -13 -40 -52 -61 -87 -22 -35 -55 -88 -74 -116 -31
-46 -34 -56 -26 -85 12 -41 45 -48 84 -20 30 23 66 32 64 17 -1 -5 -5 -24 -9
-42 -5 -27 -2 -34 19 -48 14 -9 29 -14 34 -11 13 8 38 90 47 148 6 45 4 49
-19 59 -21 10 -34 9 -66 -4 -22 -8 -40 -11 -40 -6 0 12 35 62 73 103 38 41 50
72 37 97 -14 26 -36 24 -63 -5z"/>
<path d="M2936 1145 c-61 -17 -118 -62 -130 -103 -13 -47 15 -100 57 -106 18
-3 48 -7 67 -10 19 -3 78 -2 130 3 52 5 100 7 106 4 15 -6 36 -52 29 -64 -11
-17 -71 -10 -90 11 -10 11 -22 20 -26 20 -15 0 -40 -47 -33 -63 14 -37 124
-62 172 -39 9 5 31 15 47 23 40 19 43 51 11 90 -31 37 -32 46 -6 74 17 18 29
21 69 17 46 -4 48 -3 54 24 5 22 1 33 -16 47 -26 23 -98 16 -139 -14 -15 -10
-32 -19 -37 -19 -5 0 -12 -9 -16 -19 -9 -30 -59 -44 -161 -44 -99 0 -144 13
-144 43 0 28 10 29 35 4 18 -18 30 -22 57 -18 18 3 61 7 96 8 102 3 116 37 46
109 -32 33 -42 37 -83 36 -25 0 -68 -7 -95 -14z"/>
<path d="M9751 1054 c-20 -26 -25 -45 -35 -133 -4 -36 0 -47 19 -67 41 -41
109 -26 123 28 8 30 12 33 42 30 65 -5 150 51 150 99 0 18 -48 8 -73 -15 -27
-25 -67 -26 -67 -2 0 16 -55 68 -63 60 -3 -3 -16 1 -29 10 -31 22 -43 20 -67
-10z"/>
<path d="M9227 1063 c-4 -3 -7 -14 -7 -23 0 -22 56 -146 70 -155 5 -3 10 -17
10 -31 0 -24 -5 -26 -60 -28 -20 -1 -26 -7 -28 -32 -2 -19 3 -38 13 -48 19
-18 66 -21 82 -5 13 13 33 4 33 -16 0 -16 35 -29 51 -19 7 4 9 21 5 42 -5 31
-1 40 29 69 19 18 36 33 40 33 3 0 5 -14 5 -30 0 -35 53 -98 85 -101 83 -9
169 128 134 214 -20 51 -54 80 -84 73 -31 -8 -33 -34 -5 -69 23 -29 23 -30 9
-79 -12 -44 -43 -53 -53 -15 -9 37 -44 48 -121 35 -83 -12 -88 -8 -108 90 -9
40 -21 79 -27 87 -13 15 -61 20 -73 8z"/>
<path d="M4483 855 c-3 -9 0 -36 7 -60 16 -56 6 -139 -21 -173 -10 -14 -19
-30 -19 -37 0 -15 41 -53 60 -55 38 -6 60 1 60 18 1 23 26 67 32 56 3 -5 9
-31 13 -59 9 -66 21 -85 50 -85 52 0 74 32 40 60 -10 8 -15 30 -15 62 0 50 0
51 -72 113 -11 9 -26 14 -33 11 -12 -4 -13 7 -8 58 5 57 3 65 -18 84 -27 25
-67 29 -76 7z"/>
<path d="M9079 777 c-31 -23 -67 -119 -72 -190 -7 -91 -1 -106 46 -127 47 -21
74 -15 113 27 35 37 97 164 86 175 -16 16 -39 -3 -83 -67 -46 -68 -59 -78 -85
-68 -30 11 4 142 49 190 17 19 19 27 9 48 -12 27 -37 32 -63 12z"/>
<path d="M4947 680 c-36 -11 -99 -65 -114 -99 -7 -14 -12 -46 -13 -69 0 -37 6
-50 34 -78 35 -35 79 -45 89 -20 6 15 -11 36 -29 36 -12 0 -26 38 -19 51 3 4
16 10 31 13 14 4 50 23 80 43 47 31 54 40 54 69 0 53 -44 75 -113 54z"/>
<path d="M8710 599 c-13 -5 -28 -15 -32 -22 -19 -28 -48 -148 -48 -195 0 -42
4 -54 25 -70 22 -17 30 -19 57 -9 17 7 45 30 62 53 29 39 33 40 76 36 39 -3
49 0 73 23 35 36 34 45 -6 45 -36 0 -67 25 -67 53 0 9 -6 20 -14 24 -8 4 -16
22 -18 38 -3 27 -7 30 -43 32 -22 1 -51 -2 -65 -8z"/>
<path d="M5187 573 c-4 -3 -7 -21 -7 -39 0 -26 -6 -35 -28 -45 -52 -23 -63
-135 -16 -153 32 -12 83 43 84 91 1 29 25 53 53 53 31 0 41 13 33 44 -8 34
-98 71 -119 49z"/>
<path d="M6778 569 c-18 -7 -34 -26 -49 -57 -12 -26 -35 -75 -51 -109 -78
-164 -53 -297 52 -277 23 5 30 12 30 30 0 18 -5 24 -23 24 -36 0 -47 18 -41
69 14 117 82 259 117 245 8 -2 22 4 32 16 15 17 16 24 7 45 -12 26 -30 30 -74
14z"/>
<path d="M5480 530 c-19 -10 -43 -22 -53 -26 -23 -8 -43 -48 -52 -102 -10 -62
21 -121 79 -150 61 -31 106 -27 106 8 0 13 -11 19 -40 24 -27 4 -45 14 -56 31
-16 24 -13 62 4 51 16 -10 100 52 117 85 21 39 8 74 -31 89 -33 13 -33 13 -74
-10z"/>
<path d="M7220 506 c-44 -23 -77 -27 -94 -11 -23 24 -42 18 -60 -20 -21 -43
-24 -45 -78 -46 -43 -1 -88 -21 -88 -39 0 -16 41 -48 68 -53 16 -3 34 1 43 9
8 8 23 14 33 14 15 0 16 -12 10 -139 -7 -134 -6 -139 14 -150 26 -14 32 -4 31
45 -2 56 11 181 25 238 12 46 16 50 54 61 l40 12 16 -36 c14 -32 17 -70 16
-206 -1 -52 9 -73 38 -83 39 -13 55 -2 93 67 35 64 66 91 79 71 4 -7 11 -30
14 -50 4 -26 16 -47 37 -64 34 -29 40 -30 88 -16 28 8 38 6 59 -10 30 -24 57
-25 107 -5 43 19 105 72 105 92 0 21 -28 27 -48 11 -54 -44 -120 -50 -137 -10
-5 12 -13 22 -17 22 -13 0 -9 58 5 67 6 4 26 13 42 18 23 8 30 16 30 35 0 46
-115 81 -145 45 -15 -18 -21 -111 -9 -144 12 -29 3 -61 -17 -61 -8 0 -17 8
-20 18 -3 9 -9 26 -13 37 -21 55 -33 91 -34 103 -1 20 -41 36 -71 28 -19 -5
-38 -27 -68 -81 -24 -41 -47 -75 -52 -75 -4 0 -6 6 -4 13 3 6 2 67 -3 134 -7
105 -11 125 -30 147 -26 30 -26 30 -59 12z"/>
</g>
</svg>
