<?xml version="1.0" standalone="no"?>
<!DOCTYPE svg PUBLIC "-//W3C//DTD SVG 20010904//EN"
 "http://www.w3.org/TR/2001/REC-SVG-20010904/DTD/svg10.dtd">
<svg version="1.0" xmlns="http://www.w3.org/2000/svg"
 width="587.000000pt" height="694.000000pt" viewBox="0 0 587.000000 694.000000"
 preserveAspectRatio="xMidYMid meet">
<metadata>
Created by potrace 1.16, written by Peter Selinger 2001-2019
</metadata>
<g transform="translate(0.000000,694.000000) scale(0.100000,-0.100000)"
fill="#000000" stroke="none">
<path d="M226 6702 c-16 -24 -37 -47 -47 -49 -9 -3 -20 -15 -23 -28 -5 -20
-49 -65 -114 -117 -29 -24 -28 -48 2 -48 23 0 66 39 109 100 22 30 12 40 118
-122 39 -60 74 -108 78 -108 5 0 16 9 26 20 17 19 17 21 -21 63 -76 85 -96
112 -121 160 l-25 50 27 48 c35 65 28 89 -9 31z"/>
<path d="M377 6623 c-18 -17 -4 -43 36 -66 23 -14 53 -37 66 -51 33 -35 46
-33 86 12 36 38 46 68 20 59 -8 -4 -17 -2 -20 3 -10 16 -53 11 -64 -7 -8 -15
-14 -13 -50 20 -40 36 -60 44 -74 30z"/>
<path d="M1034 6505 c-4 -25 -2 -39 10 -50 26 -26 24 -30 -33 -73 -45 -34 -1
-56 54 -28 25 13 31 13 51 -2 13 -9 24 -22 24 -29 0 -18 45 -63 63 -63 15 0
27 20 27 47 0 8 -21 35 -46 60 l-46 44 7 55 c7 58 -5 72 -26 32 -6 -13 -13
-25 -15 -27 -8 -9 -44 33 -44 51 0 31 -19 20 -26 -17z"/>
<path d="M780 6326 c0 -7 11 -33 23 -57 13 -24 35 -73 48 -108 13 -35 38 -80
56 -98 27 -30 35 -33 52 -23 12 6 21 19 21 30 0 10 5 20 12 22 10 4 10 13 1
42 -11 37 -11 38 10 31 12 -4 36 -8 52 -9 27 -1 30 2 30 29 0 25 -5 31 -30 35
-21 4 -34 15 -49 42 -23 45 -46 57 -46 25 0 -35 -27 -67 -55 -65 -14 1 -25 8
-25 15 0 26 -22 59 -54 81 -37 26 -46 27 -46 8z"/>
<path d="M643 6218 c-16 -21 -32 -89 -39 -163 -5 -58 -4 -73 10 -84 26 -22 65
-5 82 34 8 19 18 35 22 35 4 0 20 -21 36 -47 26 -44 27 -49 15 -87 -7 -23 -16
-45 -21 -50 -14 -17 -9 -63 10 -85 24 -29 130 -46 155 -23 18 16 24 62 7 62
-5 0 -10 6 -10 13 0 15 -45 105 -64 126 -7 9 -22 32 -32 51 -10 19 -21 37 -24
40 -9 9 -29 45 -49 88 -42 89 -75 120 -98 90z"/>
<path d="M233 5868 c-5 -7 -13 -21 -16 -30 -4 -11 -15 -17 -29 -15 -30 3 -35
-26 -9 -62 12 -16 21 -34 21 -40 0 -7 9 -30 20 -51 22 -44 50 -52 81 -24 14
13 16 21 7 47 -6 18 -15 36 -19 42 -5 5 -9 22 -9 37 0 34 22 37 47 8 10 -11
25 -20 34 -20 9 0 28 -9 43 -21 41 -32 81 -2 41 31 -8 7 -15 20 -15 29 0 24
-20 41 -47 41 -13 0 -34 6 -46 14 -34 22 -91 30 -104 14z"/>
<path d="M1747 5623 c4 -51 1 -73 -10 -88 -14 -18 -15 -16 -22 37 -4 31 -4 65
-1 76 6 19 -9 40 -21 29 -12 -13 -19 -133 -10 -164 20 -65 79 -52 94 20 7 36
22 34 61 -7 18 -19 74 -70 125 -112 97 -81 128 -124 111 -152 -14 -22 -70 -40
-127 -41 -41 -1 -50 2 -54 19 -3 11 -12 20 -19 20 -18 0 -18 -44 0 -59 22 -19
147 -16 185 3 37 20 66 74 58 107 -7 27 -67 93 -112 124 -46 32 -73 56 -138
123 -34 34 -67 62 -72 62 -6 0 -17 16 -24 35 -20 55 -30 41 -24 -32z"/>
<path d="M1557 5473 c-4 -3 -7 -37 -7 -75 0 -37 -3 -68 -7 -68 -4 0 -17 10
-30 22 -13 12 -26 18 -29 15 -13 -13 22 -82 49 -97 26 -14 29 -14 43 4 8 11
14 30 14 43 0 13 5 23 10 23 6 0 10 -7 10 -15 0 -17 36 -20 59 -6 17 11 8 41
-12 41 -8 0 -22 21 -32 48 -22 56 -50 83 -68 65z"/>
<path d="M3414 5460 c-55 -22 -48 -134 12 -218 78 -107 76 -102 70 -169 -3
-37 -1 -63 4 -63 5 0 12 -11 16 -24 8 -35 65 -63 101 -50 15 6 27 16 26 22 -2
6 1 22 6 35 8 19 15 23 38 20 36 -6 58 17 49 52 -6 25 -29 34 -41 15 -3 -5
-12 -10 -19 -10 -9 0 -15 21 -20 63 -12 117 -60 207 -159 295 -51 45 -51 45
-83 32z m87 -71 c64 -65 95 -113 114 -174 15 -50 20 -115 9 -115 -15 0 -49 26
-78 58 -17 19 -36 41 -42 47 -7 6 -27 38 -45 71 -18 32 -36 61 -39 64 -9 7
-19 87 -12 94 16 17 50 1 93 -45z"/>
<path d="M712 5438 c-5 -7 -13 -39 -17 -70 -4 -32 -10 -58 -12 -58 -3 0 -14
11 -25 25 -24 31 -58 34 -58 5 0 -48 70 -108 110 -95 17 5 20 16 20 70 0 35 4
66 9 70 5 3 21 -6 35 -20 27 -27 50 -32 62 -14 8 13 -62 84 -92 93 -12 4 -26
1 -32 -6z"/>
<path d="M2162 5348 c-19 -19 -14 -25 16 -21 22 3 39 -7 91 -58 60 -59 122
-161 107 -176 -3 -4 -18 0 -33 8 -31 16 -133 115 -149 143 -12 23 -34 14 -34
-14 0 -10 29 -49 64 -86 60 -63 63 -68 54 -96 -6 -16 -8 -52 -6 -79 4 -38 12
-55 36 -79 18 -17 38 -30 46 -30 20 0 56 53 56 82 0 47 13 69 51 88 21 11 41
25 44 31 12 18 -4 23 -31 10 -42 -19 -61 -6 -78 52 -17 58 -78 143 -144 200
-45 38 -70 45 -90 25z"/>
<path d="M332 5324 c-12 -8 -22 -24 -22 -35 0 -22 54 -82 83 -92 10 -4 17 -17
17 -32 0 -16 6 -25 15 -25 8 0 15 -4 15 -9 0 -19 39 -22 65 -5 22 14 25 22 19
48 -27 123 -123 199 -192 150z"/>
<path d="M1240 5268 c-11 -12 -20 -25 -20 -29 0 -4 -24 1 -52 12 -29 10 -56
19 -60 19 -18 0 -6 -30 18 -49 29 -23 27 -54 -3 -49 -12 2 -23 -10 -36 -37
l-19 -39 -22 27 c-11 14 -31 40 -44 57 -13 16 -27 30 -32 30 -15 0 -19 -29 -6
-43 18 -17 56 -92 56 -109 0 -7 -21 -26 -46 -41 -42 -25 -45 -30 -32 -44 14
-13 20 -13 56 6 23 12 45 21 50 21 11 0 24 -35 26 -70 1 -18 7 -25 21 -25 26
0 32 44 11 87 -33 65 -9 148 43 148 16 0 36 3 44 6 8 3 27 -8 45 -25 17 -17
38 -31 46 -31 22 0 21 46 -2 62 -29 21 -34 36 -20 60 14 25 18 78 6 78 -4 0
-16 -10 -28 -22z"/>
<path d="M3344 5075 c11 -8 23 -15 28 -15 14 0 8 -44 -12 -87 -10 -24 -22 -43
-25 -43 -13 0 -32 67 -28 100 l4 35 -20 -24 c-24 -27 -28 -92 -8 -113 7 -7 16
-21 20 -30 9 -25 64 -50 95 -43 19 4 35 20 53 53 36 65 49 110 16 60 -35 -55
-58 -78 -79 -78 -22 0 -23 17 -4 56 7 16 16 46 19 67 5 30 2 41 -15 57 -12 11
-31 20 -42 20 -21 -1 -21 -1 -2 -15z"/>
<path d="M2084 5042 c-17 -12 -51 -75 -59 -109 -6 -28 -2 -37 23 -63 20 -20
41 -30 60 -30 34 0 92 36 108 68 6 12 19 31 29 42 10 11 16 23 12 26 -3 3 -22
-13 -42 -35 -21 -23 -45 -41 -55 -41 -15 0 -17 9 -16 65 1 48 -3 68 -14 75
-18 12 -31 12 -46 2z"/>
<path d="M1839 4990 c-29 -30 -63 -70 -78 -89 -14 -19 -49 -60 -78 -90 -35
-38 -48 -58 -40 -63 27 -17 29 -16 116 82 28 31 32 33 41 18 6 -9 16 -23 23
-30 7 -7 22 -28 32 -45 11 -18 23 -33 27 -33 4 0 8 -6 8 -13 0 -22 80 -81 92
-69 10 10 -16 58 -52 92 -8 8 -34 41 -58 73 -23 31 -47 57 -52 57 -6 0 -10 4
-10 9 0 16 60 100 83 116 17 12 19 17 9 27 -9 9 -23 0 -63 -42z"/>
<path d="M4272 4929 c-17 -16 -32 -35 -32 -43 0 -22 54 -56 90 -56 39 0 70
-16 70 -36 0 -20 -45 -75 -74 -91 -11 -7 -31 -12 -44 -13 -13 0 -20 -4 -17
-10 26 -42 168 41 180 106 9 46 -11 62 -89 73 -86 12 -95 20 -65 60 30 41 22
46 -19 10z"/>
<path d="M742 4920 c-23 -22 -28 -55 -13 -79 8 -12 12 -13 25 -2 12 11 14 17
5 27 -9 11 -8 18 1 29 34 41 71 -2 72 -82 2 -128 -83 -174 -99 -53 -7 49 -20
52 -29 6 -17 -94 48 -157 114 -110 33 23 43 57 43 147 0 73 -2 82 -27 108 -33
34 -62 37 -92 9z"/>
<path d="M5580 4929 c0 -6 -14 -29 -31 -51 -29 -36 -33 -38 -48 -23 -26 23
-31 19 -31 -23 0 -42 -17 -64 -64 -81 -23 -10 -26 -14 -16 -26 20 -24 54 -18
85 15 l28 29 28 -35 c16 -20 31 -51 35 -70 4 -24 12 -34 25 -34 32 0 23 53
-20 123 -39 63 -39 64 -20 88 22 28 49 78 49 91 0 4 -4 8 -10 8 -5 0 -10 -5
-10 -11z"/>
<path d="M3103 4878 c2 -24 6 -47 7 -53 7 -28 -2 -73 -19 -94 -25 -33 -58 -20
-81 31 -12 27 -19 35 -23 24 -6 -16 9 -72 26 -93 16 -21 -42 -127 -71 -131
-32 -5 -72 34 -72 69 0 31 -26 60 -35 38 -3 -8 -4 -34 -3 -59 4 -101 -5 -122
-34 -77 -24 36 -29 94 -11 112 17 18 13 28 -9 20 -8 -3 -20 -21 -27 -40 -7
-19 -17 -35 -23 -35 -10 0 -55 -33 -89 -65 -22 -21 -25 -20 -69 25 -29 29 -47
40 -70 40 -16 0 -30 -3 -30 -7 0 -5 23 -28 50 -51 40 -35 49 -47 40 -58 -13
-15 -5 -34 14 -34 8 0 31 -21 52 -47 22 -27 46 -56 54 -65 8 -10 23 -18 33
-18 34 0 29 28 -13 70 -63 63 -65 77 -14 128 23 24 47 41 52 38 5 -3 12 -19
15 -35 8 -38 48 -65 82 -57 21 5 25 12 25 46 0 45 5 47 49 23 30 -18 30 -18
65 16 24 23 37 47 43 80 8 42 11 46 36 43 38 -4 64 13 78 51 l12 34 103 -106
c97 -97 103 -106 90 -125 -22 -34 -98 -70 -131 -62 -26 7 -27 10 -22 47 l5 40
-19 -22 c-28 -33 -25 -83 6 -97 14 -7 37 -12 51 -12 35 0 106 36 139 70 50 52
41 69 -94 199 -121 116 -121 116 -131 176 -5 33 -10 61 -10 63 0 1 -7 2 -16 2
-14 0 -16 -8 -11 -42z"/>
<path d="M491 4891 c-10 -7 -11 -18 -5 -45 8 -33 29 -48 29 -21 1 24 21 15 37
-16 30 -56 17 -179 -19 -193 -25 -10 -62 21 -86 72 -12 26 -25 49 -28 52 -3 3
-16 26 -29 53 -39 78 -66 58 -50 -39 11 -67 15 -318 5 -355 -5 -20 -2 -28 11
-33 30 -11 47 13 39 59 -10 57 -23 259 -18 268 2 4 19 -14 37 -40 44 -65 91
-96 131 -87 16 4 33 12 38 18 40 60 28 214 -21 275 -31 38 -49 46 -71 32z"/>
<path d="M3756 4691 c-9 -13 7 -50 45 -107 19 -27 44 -78 56 -114 20 -59 25
-65 51 -68 22 -2 31 2 35 17 2 10 0 24 -5 29 -11 11 6 77 23 88 5 3 23 -6 40
-20 33 -28 49 -32 66 -15 23 23 -5 53 -67 73 l-60 19 -20 -23 c-11 -13 -20
-32 -20 -43 0 -16 -3 -17 -15 -7 -8 6 -17 21 -21 33 -9 28 -87 147 -96 147 -4
0 -9 -4 -12 -9z"/>
<path d="M1027 4373 c-9 -104 -13 -118 -28 -114 -8 3 -30 5 -49 5 -31 1 -35
-2 -38 -26 -4 -37 -21 -35 -35 2 -12 33 -41 40 -51 13 -4 -9 -1 -38 5 -63 11
-43 10 -51 -11 -88 -18 -32 -30 -42 -49 -42 -37 0 -48 10 -60 57 -16 60 -36
69 -27 12 10 -58 7 -148 -5 -172 -15 -27 -31 -17 -56 34 -17 34 -21 56 -18 97
3 28 3 52 0 52 -2 0 -12 -14 -21 -32 -21 -41 -15 -98 19 -172 25 -53 28 -56
54 -50 42 10 52 24 61 84 6 40 12 54 23 52 73 -18 78 -17 99 29 11 24 20 54
20 66 0 28 14 37 30 18 7 -8 20 -15 30 -15 16 0 26 16 44 73 5 14 10 16 25 7
11 -5 31 -10 45 -10 30 0 37 19 37 93 0 72 10 86 40 58 26 -24 46 -26 72 -7
22 17 22 48 -2 77 -19 23 -20 23 -34 5 -11 -15 -17 -17 -35 -7 -12 6 -22 16
-22 21 0 6 -13 10 -29 10 -28 0 -29 -1 -34 -67z"/>
<path d="M4978 4419 c-32 -24 -34 -38 -12 -81 9 -17 18 -42 20 -56 3 -15 10
-32 15 -38 14 -17 68 -25 89 -14 57 31 41 163 -25 194 -43 20 -54 20 -87 -5z"/>
<path d="M2425 4302 c-53 -22 -115 -61 -115 -72 0 -22 25 -19 68 9 26 16 61
31 77 33 30 3 30 2 33 -49 5 -93 -33 -122 -69 -53 l-19 35 0 -37 c0 -45 32
-80 69 -76 35 4 60 53 65 126 6 98 -23 120 -109 84z"/>
<path d="M4660 4255 c0 -14 -4 -25 -9 -25 -19 0 -42 -71 -39 -123 3 -49 4 -52
33 -55 37 -5 55 19 55 73 0 23 3 44 6 48 5 5 59 -59 151 -181 10 -13 23 -29
28 -35 65 -74 71 -102 22 -94 -43 7 -131 48 -120 56 10 8 53 68 53 76 0 11
-18 4 -41 -16 -13 -11 -35 -29 -49 -39 -21 -16 -23 -21 -13 -43 7 -14 22 -28
35 -32 13 -3 32 -10 43 -15 42 -18 89 -30 117 -30 29 0 78 25 78 41 0 5 -24
37 -53 71 -29 35 -77 95 -107 133 -30 39 -64 81 -77 95 -13 14 -30 38 -38 55
-22 45 -40 65 -59 65 -10 0 -16 -8 -16 -25z"/>
<path d="M3475 4263 c-32 -8 -56 -34 -49 -55 3 -10 1 -18 -5 -18 -5 0 -11 -6
-13 -14 -2 -7 -32 -38 -68 -69 l-64 -55 -33 25 c-42 32 -52 24 -30 -23 17 -34
17 -36 -3 -61 -32 -41 -12 -53 31 -17 13 12 20 8 49 -31 33 -44 70 -60 70 -31
0 8 -13 35 -30 59 -16 25 -30 49 -30 54 0 11 85 83 98 83 5 0 15 -12 22 -26 8
-14 27 -32 42 -40 27 -14 58 -10 58 7 0 5 6 9 13 9 19 0 67 99 67 136 0 22 -7
36 -23 47 -27 17 -74 27 -102 20z"/>
<path d="M1734 4162 c-17 -20 -56 -73 -87 -117 -31 -44 -76 -105 -101 -135
-26 -30 -46 -61 -46 -67 0 -19 24 -16 54 8 14 11 26 16 26 10 0 -6 5 -11 10
-11 6 0 10 7 10 15 0 8 -5 15 -11 15 -6 0 -4 7 4 15 9 8 17 20 20 27 3 9 11 5
22 -10 10 -13 43 -51 74 -84 31 -33 57 -64 59 -68 5 -12 -89 -90 -109 -90 -25
0 -25 -26 0 -39 35 -19 154 86 200 177 40 81 46 102 27 102 -9 0 -16 -5 -16
-10 0 -18 -52 -90 -66 -90 -12 0 -60 44 -134 124 -28 31 -32 40 -22 54 6 9 32
51 57 94 25 42 52 82 60 88 16 13 20 30 8 30 -5 0 -22 -17 -39 -38z"/>
<path d="M254 4096 c-3 -8 -1 -23 5 -35 6 -11 11 -30 11 -43 0 -13 7 -33 15
-44 14 -18 14 -18 15 6 l1 25 12 -25 c6 -14 17 -30 23 -37 6 -6 22 -38 35 -70
26 -64 52 -92 87 -93 28 0 28 21 1 46 -39 36 -65 133 -39 149 14 8 42 -14 37
-29 -4 -12 30 -83 44 -92 10 -6 49 13 49 25 0 4 -11 14 -25 21 -14 7 -25 18
-25 24 0 7 -15 26 -34 44 -36 34 -76 43 -76 17 0 -8 -3 -15 -7 -15 -9 0 -83
107 -83 119 0 8 -23 21 -36 21 -3 0 -7 -6 -10 -14z"/>
<path d="M4467 4013 c-3 -5 -8 -38 -12 -75 -8 -72 -15 -81 -39 -47 -21 30 -35
16 -26 -25 11 -48 18 -56 50 -56 35 0 45 14 41 56 -1 18 3 35 9 39 8 5 8 10 0
20 -6 8 -10 24 -8 37 3 21 6 19 31 -19 20 -33 34 -43 53 -43 20 0 25 4 20 16
-3 9 -6 18 -6 20 0 2 -7 4 -15 4 -8 0 -15 6 -15 14 0 15 -55 66 -70 66 -5 0
-11 -3 -13 -7z"/>
<path d="M2574 3881 c-53 -24 -146 -101 -289 -242 -66 -64 -133 -128 -150
-142 -16 -14 -61 -55 -100 -93 -118 -114 -32 -86 95 31 14 13 86 83 160 157
174 171 249 233 313 261 26 11 35 31 19 41 -4 2 -26 -3 -48 -13z"/>
<path d="M2678 3809 c-52 -38 -48 -111 9 -186 36 -47 36 -47 21 -87 -7 -23
-11 -57 -8 -76 4 -28 11 -37 43 -49 48 -18 84 -4 92 36 9 42 20 58 43 61 28 4
64 50 60 76 -4 29 -27 31 -37 3 -10 -24 -34 -41 -45 -30 -3 4 -6 18 -6 33 0
49 -29 125 -67 174 -47 61 -70 70 -105 45z m64 -36 c15 -15 28 -32 28 -39 0
-7 6 -19 13 -26 29 -29 50 -138 27 -138 -14 0 -87 75 -110 113 -22 36 -26 87
-8 105 16 16 18 16 50 -15z"/>
<path d="M926 3744 c-27 -15 -28 -18 -22 -66 4 -28 17 -64 29 -82 33 -47 90
-106 103 -106 21 0 39 -29 26 -42 -29 -29 -5 -126 37 -151 39 -23 57 -21 86 8
19 18 25 35 25 68 0 48 13 67 47 67 26 0 113 40 113 52 0 11 -37 10 -44 -1 -3
-4 -26 -14 -51 -21 -54 -15 -70 -6 -80 48 -8 44 -62 137 -102 173 -30 29 -104
69 -125 69 -7 -1 -26 -8 -42 -16z m109 -45 c30 -18 93 -87 112 -124 6 -11 16
-37 21 -59 l11 -38 -35 5 c-44 7 -127 68 -165 120 -28 38 -40 103 -22 120 9 9
40 0 78 -24z"/>
<path d="M2486 3450 c-47 -42 -62 -87 -42 -134 38 -90 139 -67 210 47 30 49 6
48 -43 -3 -47 -48 -91 -65 -106 -41 -3 6 10 40 30 76 19 37 33 71 29 76 -11
18 -44 9 -78 -21z"/>
<path d="M989 3326 c-24 -41 -58 -52 -99 -31 -54 28 -80 16 -80 -36 0 -10 -2
-19 -5 -19 -14 0 -65 45 -65 57 0 14 -47 29 -58 19 -3 -4 -5 -24 -4 -44 3 -41
-28 -102 -52 -102 -18 0 -40 21 -63 60 -20 35 -42 42 -65 22 -14 -12 -21 -12
-32 -3 -11 10 -21 9 -45 -3 -39 -21 -47 -74 -27 -170 24 -110 84 -156 134
-103 18 19 22 35 22 95 0 39 4 73 9 76 5 3 22 -1 39 -10 18 -9 41 -12 56 -8
30 7 66 48 66 75 0 26 22 24 50 -6 35 -38 73 -34 90 10 13 34 16 35 66 35 51
0 53 1 78 44 27 47 33 76 16 76 -6 0 -20 -15 -31 -34z m-491 -106 c24 20 26
-190 2 -214 -30 -30 -81 71 -84 166 -1 48 2 59 19 66 14 7 25 5 39 -7 10 -9
21 -14 24 -11z"/>
<path d="M3481 3286 c-26 -57 -27 -95 -2 -142 35 -65 86 -83 116 -41 16 22 16
22 31 2 71 -96 126 -192 122 -212 -5 -28 -76 -29 -121 -3 -55 33 -60 73 -11
105 13 9 24 25 24 38 0 18 -7 14 -45 -28 -60 -67 -64 -82 -29 -111 57 -48 102
-61 191 -55 45 2 71 62 39 93 -7 8 -21 29 -31 48 -18 35 -71 115 -93 141 -41
47 -52 63 -52 75 0 23 -33 84 -46 84 -18 0 -25 -27 -14 -56 13 -34 13 -81 -1
-90 -6 -3 -22 4 -35 17 -27 28 -35 100 -15 138 8 15 9 27 3 33 -6 6 -17 -7
-31 -36z"/>
<path d="M2301 3305 c-13 -7 -27 -19 -32 -26 -6 -11 -13 -9 -32 9 -43 40 -60
25 -31 -29 15 -30 15 -31 -22 -65 -21 -19 -42 -34 -46 -34 -4 0 -8 -7 -8 -16
0 -21 57 -9 88 19 28 26 42 15 49 -43 5 -32 11 -44 30 -51 63 -24 67 -5 18 88
-38 72 -41 83 -22 83 6 0 26 9 44 19 24 15 30 25 26 40 -6 24 -26 25 -62 6z"/>
<path d="M3104 3184 c-21 -7 -51 -28 -66 -46 -36 -42 -37 -92 -1 -164 l26 -54
-31 -33 c-37 -38 -40 -53 -11 -62 15 -5 25 -1 35 14 18 26 41 27 48 4 4 -10
21 -35 39 -56 23 -28 37 -36 50 -32 26 11 21 30 -28 96 -25 34 -45 66 -45 73
0 6 14 17 30 24 39 18 40 42 1 42 -16 0 -31 -6 -34 -12 -3 -9 -12 -7 -33 8
-53 39 -40 115 26 149 16 8 32 15 35 15 28 -1 35 3 35 19 0 25 -29 31 -76 15z"/>
<path d="M1686 2950 c-28 -31 -36 -48 -36 -79 0 -51 43 -109 102 -138 53 -27
92 -29 132 -8 15 8 34 15 41 15 20 0 75 71 75 96 0 33 -10 54 -26 54 -9 0 -14
-12 -14 -33 0 -38 -18 -59 -73 -82 -43 -18 -90 -19 -116 -3 -20 12 -18 21 25
115 29 64 14 103 -42 103 -24 0 -40 -9 -68 -40z"/>
<path d="M1414 2812 c-22 -15 -57 -49 -78 -77 l-37 -50 27 -23 c23 -20 36 -23
84 -20 36 2 63 -2 72 -10 9 -7 22 -10 30 -7 14 6 48 -18 48 -33 -1 -25 -78
-84 -101 -77 -25 8 -45 -28 -25 -45 12 -9 27 -6 69 15 45 21 59 34 76 70 33
70 24 105 -26 105 -14 0 -23 6 -23 15 0 8 -12 22 -26 31 -24 16 -28 16 -60 1
-39 -19 -84 -22 -84 -7 0 6 6 10 13 10 12 1 57 34 57 43 0 3 -8 7 -17 9 -16 3
-14 7 10 32 16 16 34 25 42 22 9 -3 15 1 15 9 0 21 -19 17 -66 -13z"/>
<path d="M1076 2534 c-17 -24 -17 -30 -4 -77 11 -39 23 -58 48 -74 44 -30 53
-29 95 12 24 25 35 45 35 65 0 49 -58 88 -115 78 -17 -4 -25 -1 -25 8 0 21
-13 16 -34 -12z"/>
<path d="M2340 2458 c-64 -14 -72 -26 -73 -100 0 -82 -35 -154 -89 -183 -31
-16 -38 -17 -52 -5 -10 7 -13 16 -8 19 5 3 12 24 15 46 8 54 -12 83 -49 69
-37 -13 -68 -57 -61 -86 11 -44 59 -89 106 -99 42 -9 46 -8 78 23 18 18 43 51
54 75 11 24 23 43 26 43 3 0 16 -9 30 -20 33 -26 50 -25 58 2 5 15 1 26 -14
38 -13 9 -27 35 -32 59 -12 54 7 81 56 81 17 0 35 3 38 7 7 7 -21 44 -32 42
-3 -1 -26 -6 -51 -11z"/>
<path d="M595 2421 c-21 -42 -22 -136 -1 -204 14 -50 22 -60 51 -73 75 -31
120 -10 163 79 18 36 29 72 26 81 -9 23 -24 20 -24 -5 0 -26 -68 -116 -94
-123 -25 -7 -62 9 -71 31 -34 77 -39 223 -8 223 8 0 11 5 8 10 -12 19 -34 10
-50 -19z"/>
<path d="M1765 2168 c18 -59 17 -66 -5 -73 -13 -4 -20 -13 -18 -23 3 -13 14
-17 46 -15 40 2 41 1 47 -35 3 -20 8 -47 11 -59 5 -24 38 -48 54 -38 11 7 14
58 4 68 -4 4 -15 30 -25 59 -15 45 -15 54 -3 73 8 12 12 30 8 39 -6 16 -8 16
-25 0 -18 -16 -20 -16 -42 4 -32 30 -62 30 -52 0z"/>
<path d="M1600 1923 c0 -10 14 -26 31 -36 26 -15 30 -21 24 -44 -3 -15 -14
-33 -23 -40 -24 -17 -71 -16 -78 2 -5 12 -10 13 -20 4 -22 -18 -17 -49 11 -59
65 -25 72 -23 119 20 64 59 61 90 -13 145 -41 30 -51 31 -51 8z"/>
<path d="M1352 1904 c-15 -10 -22 -25 -22 -47 0 -18 -4 -46 -9 -64 -5 -17 -5
-35 -1 -39 4 -5 11 -20 15 -34 5 -19 4 -21 -4 -10 -9 12 -11 10 -11 -12 0 -18
8 -33 23 -43 13 -8 33 -34 45 -57 28 -57 62 -95 90 -103 27 -8 41 19 24 44
-23 32 -52 95 -52 112 0 10 -5 21 -11 25 -7 4 1 18 21 39 56 58 51 152 -9 188
-36 21 -70 22 -99 1z"/>
<path d="M1117 1653 c-4 -3 -7 -22 -7 -42 l0 -36 -22 32 c-45 64 -88 34 -88
-63 0 -55 -21 -59 -45 -8 -15 33 -19 35 -32 21 -14 -14 -14 -19 2 -54 25 -55
44 -73 76 -73 23 0 29 6 39 35 7 20 9 42 6 50 -3 8 -3 22 1 30 5 14 7 14 18
-2 6 -10 15 -30 19 -45 5 -21 13 -28 30 -28 25 0 35 19 37 75 1 17 3 22 6 13
2 -10 8 -18 13 -18 4 0 10 -9 13 -20 4 -14 14 -20 35 -20 17 0 34 5 37 10 10
17 -4 47 -25 53 -11 3 -23 13 -27 24 -19 54 -64 89 -86 66z"/>
<path d="M686 1469 c-16 -23 -24 -45 -19 -52 4 -7 9 -27 10 -45 3 -45 19 -62
57 -62 37 1 54 13 89 65 52 76 32 123 -55 129 -56 5 -56 5 -82 -35z"/>
<path d="M428 1428 c-50 -91 -72 -185 -48 -213 7 -9 29 -15 54 -15 37 0 48 6
99 57 52 51 76 88 64 99 -2 2 -33 -23 -68 -56 -53 -50 -69 -60 -94 -58 -39 4
-44 39 -15 102 34 75 41 142 8 84z"/>
<path d="M1631 1194 c-12 -15 -21 -30 -21 -33 0 -22 37 -53 77 -64 26 -8 49
-19 51 -26 2 -6 -15 -30 -37 -52 -47 -47 -50 -59 -19 -59 28 0 128 106 128
136 0 17 -10 23 -51 32 -28 7 -59 12 -70 12 -22 0 -42 41 -33 65 9 23 -2 18
-25 -11z"/>
<path d="M1448 1108 c-55 -46 -65 -129 -20 -178 34 -39 98 -63 127 -47 39 20
75 75 75 113 0 26 -21 15 -35 -19 -17 -41 -56 -64 -86 -51 l-20 9 20 27 c12
14 21 31 21 37 0 6 5 11 10 11 6 0 10 16 10 36 0 59 -60 95 -102 62z"/>
<path d="M1070 863 c-47 -96 -50 -140 -14 -167 25 -18 26 -18 56 4 16 12 31
20 33 18 30 -30 65 -86 65 -104 0 -12 -14 -37 -31 -54 -42 -41 -41 -75 2 -109
51 -40 78 -51 139 -58 103 -10 103 32 3 160 -131 169 -170 238 -172 306 -1 19
-5 23 -26 19 -14 -3 -25 -1 -25 3 0 19 -17 8 -30 -18z"/>
<path d="M946 763 c-3 -3 -6 -24 -6 -45 0 -21 -5 -38 -10 -38 -6 0 -26 18 -46
40 -55 60 -84 52 -84 -25 0 -18 -6 -38 -14 -44 -11 -9 -21 -4 -48 29 -19 22
-39 40 -45 40 -6 0 -10 -32 -9 -79 1 -64 -2 -83 -18 -100 -41 -45 -76 -20 -76
55 0 55 -8 67 -52 78 -27 6 -47 -7 -28 -19 5 -3 10 -22 10 -42 0 -19 7 -47 16
-62 16 -26 15 -30 -10 -69 -69 -109 -147 -83 -131 43 4 27 13 60 20 71 19 30
6 39 -14 11 -28 -37 -41 -76 -41 -123 0 -110 84 -159 148 -85 12 14 28 33 36
41 7 8 15 22 19 31 4 13 15 16 49 12 34 -4 49 0 71 17 15 12 27 28 27 35 0 8
5 26 10 40 l10 26 26 -20 c38 -30 67 -15 76 38 10 60 17 65 41 34 27 -36 37
-43 63 -43 26 0 34 23 34 97 0 49 -9 71 -24 56z"/>
</g>
</svg>
