<?xml version="1.0" standalone="no"?>
<!DOCTYPE svg PUBLIC "-//W3C//DTD SVG 20010904//EN"
 "http://www.w3.org/TR/2001/REC-SVG-20010904/DTD/svg10.dtd">
<svg version="1.0" xmlns="http://www.w3.org/2000/svg"
 width="2615.000000pt" height="3376.000000pt" viewBox="0 0 2615.000000 3376.000000"
 preserveAspectRatio="xMidYMid meet">

<g transform="translate(0.000000,3376.000000) scale(0.100000,-0.100000)"
fill="#000000" stroke="none">
<path d="M17712 17718 c-29 -38 -24 -98 9 -98 10 0 19 -4 19 -10 0 -5 6 -10
13 -10 13 0 39 -55 29 -64 -3 -3 -18 -6 -34 -6 -44 0 -163 -81 -172 -115 -14
-57 35 -56 99 0 21 19 47 38 58 41 25 8 52 33 60 57 16 43 50 24 167 -93 52
-53 86 -60 83 -18 -1 18 -17 41 -49 70 -26 24 -52 49 -58 57 -10 13 -57 64
-157 169 -33 34 -51 40 -67 20z"/>
<path d="M17130 17590 c-8 -5 -34 -10 -56 -10 -43 0 -54 -11 -54 -50 0 -19 45
-40 88 -40 33 0 92 -37 92 -58 0 -9 -14 -25 -30 -34 -29 -17 -40 -50 -20 -63
5 -3 26 1 46 10 20 8 44 15 54 15 28 0 104 47 128 80 24 32 23 61 -6 95 -21
26 -42 35 -112 45 -30 5 -68 11 -85 15 -16 3 -37 1 -45 -5z m177 -56 c12 -2
27 -14 34 -25 9 -17 7 -25 -12 -45 -32 -34 -62 -31 -93 10 -29 38 -31 47 -15
63 9 9 30 9 86 -3z"/>
<path d="M18037 17345 c-9 -8 -19 -15 -22 -15 -4 0 -30 -20 -57 -45 -28 -25
-76 -59 -108 -76 -41 -22 -60 -38 -65 -56 -9 -37 8 -48 81 -50 36 -1 68 -3 70
-6 3 -2 -7 -26 -21 -52 -14 -26 -25 -55 -25 -64 0 -23 20 -41 46 -41 17 0 26
12 44 63 13 34 24 81 24 105 0 35 -4 47 -28 66 l-29 22 23 22 c12 11 38 28 56
37 18 8 36 20 39 25 4 6 11 8 16 5 5 -3 6 2 2 11 -5 12 -3 15 6 9 23 -13 8 27
-15 42 -19 12 -24 12 -37 -2z"/>
<path d="M17298 17283 c-10 -2 -18 -8 -18 -12 0 -3 -13 -14 -28 -23 -16 -9
-37 -33 -47 -52 -22 -41 -12 -61 36 -71 18 -4 29 -13 29 -24 0 -28 23 -53 43
-45 33 12 63 123 37 139 -5 3 -7 19 -3 35 5 28 -10 62 -26 59 -3 -1 -14 -3
-23 -6z"/>
<path d="M17647 17059 c-21 -5 -56 -24 -79 -41 -39 -33 -42 -33 -145 -33 -98
0 -106 -2 -124 -24 -28 -35 -25 -73 9 -93 38 -22 112 -48 140 -48 26 0 63 -17
74 -34 5 -8 17 -6 39 7 17 9 39 17 50 17 11 0 27 4 37 9 9 5 36 19 60 30 51
25 79 50 98 86 21 41 17 70 -15 104 -31 34 -66 38 -144 20z m86 -71 c43 -22
49 -35 33 -61 -9 -13 -33 -33 -55 -45 -45 -26 -154 -41 -165 -23 -11 18 12 77
44 111 23 25 36 30 75 30 25 0 56 -5 68 -12z m-258 -72 c14 -9 25 -25 25 -36
0 -25 -28 -26 -93 -4 -38 13 -47 20 -47 39 0 13 6 25 13 28 18 6 74 -9 102
-27z"/>
<path d="M16940 17045 c-14 -8 -38 -20 -53 -26 -28 -11 -64 -64 -49 -72 4 -3
22 -8 40 -12 28 -6 32 -11 32 -39 0 -31 35 -76 60 -76 6 0 10 -4 10 -8 0 -5
18 -15 41 -22 46 -15 55 -29 40 -58 -13 -24 6 -92 31 -110 26 -19 17 -28 -69
-68 -86 -41 -119 -40 -129 4 -18 84 -41 110 -70 80 -15 -15 -16 -26 -8 -75 7
-47 14 -60 34 -69 81 -38 81 -38 101 -26 11 7 24 10 30 7 9 -6 149 52 159 66
3 4 28 14 55 22 77 22 69 77 -11 77 -35 0 -44 13 -44 65 0 19 -4 37 -10 40
-14 9 -12 36 4 54 8 9 17 35 20 59 3 24 14 56 25 70 23 33 18 78 -12 93 -11 6
-37 11 -58 11 -21 0 -43 6 -50 14 -15 18 -87 18 -119 -1z m110 -100 c0 -8 8
-30 17 -50 13 -27 14 -38 5 -47 -29 -29 -103 53 -86 96 8 21 64 22 64 1z"/>
<path d="M18103 16977 c-50 -26 -63 -54 -52 -114 8 -43 35 -93 49 -93 4 0 27
-16 51 -35 24 -19 50 -35 57 -35 21 0 13 40 -10 49 -28 11 -73 59 -89 94 -15
32 -5 73 21 87 27 14 41 4 34 -24 -7 -30 28 -45 131 -56 64 -7 83 -6 95 6 18
18 14 83 -6 106 -38 41 -211 50 -281 15z"/>
<path d="M18412 16733 c-24 -9 -43 -62 -36 -98 5 -28 3 -35 -9 -35 -9 0 -22 9
-31 21 -20 29 -50 21 -54 -14 -6 -53 114 -132 162 -105 20 11 21 48 1 95 -41
97 0 111 83 28 65 -65 82 -69 82 -21 0 52 -38 90 -115 115 -35 12 -65 21 -67
20 -2 0 -9 -3 -16 -6z"/>
<path d="M17872 16548 c-23 -23 -14 -55 18 -67 40 -13 38 -28 -8 -47 -42 -19
-76 -58 -68 -80 9 -24 38 -16 93 26 70 53 92 58 122 26 30 -32 19 -47 -51 -78
-33 -14 -53 -30 -59 -46 -11 -29 -9 -32 51 -57 60 -25 63 -28 49 -57 -8 -19
-8 -31 0 -47 15 -28 24 -27 60 10 41 41 43 98 5 134 l-26 24 26 38 c28 41 32
72 15 105 -8 15 -8 26 1 43 10 19 10 29 -1 54 -17 37 -23 38 -59 7 -26 -22
-32 -22 -74 -12 -25 7 -51 17 -58 24 -15 15 -21 15 -36 0z"/>
<path d="M18539 16504 c-34 -39 -40 -62 -29 -102 12 -42 62 -102 85 -102 18 0
20 21 3 38 -25 25 9 37 108 36 l94 0 0 26 c0 60 -70 104 -183 116 -53 5 -64 3
-78 -12z m119 -34 c6 0 12 -5 12 -11 0 -6 -9 -9 -20 -6 -11 3 -30 -3 -44 -14
-28 -22 -46 -24 -46 -6 1 29 31 49 65 42 11 -3 26 -5 33 -5z"/>
<path d="M17605 16446 c-38 -38 -28 -101 18 -121 18 -8 22 -19 23 -58 3 -88
26 -117 107 -132 59 -11 137 40 137 89 0 22 -27 20 -63 -6 -34 -24 -95 -28
-108 -7 -4 8 -6 39 -3 69 6 53 5 56 -25 75 -32 21 -40 40 -18 48 18 6 -3 61
-25 65 -10 2 -29 -8 -43 -22z"/>
<path d="M17328 16278 c-27 -21 -59 -25 -114 -13 -24 5 -33 3 -38 -10 -4 -11
0 -22 11 -30 15 -11 12 -15 -25 -40 -41 -27 -59 -56 -47 -75 11 -18 42 -11 80
20 21 17 44 30 52 30 29 0 113 -43 113 -58 0 -8 -18 -32 -40 -52 -68 -63 -46
-106 70 -141 40 -12 49 -26 29 -46 -8 -8 -8 -21 -1 -45 6 -18 14 -55 18 -83 7
-53 45 -124 76 -144 35 -22 38 0 8 59 -17 33 -30 71 -30 85 0 24 2 25 71 25
65 0 73 2 100 29 35 35 36 50 8 80 -19 20 -28 22 -63 16 -86 -15 -101 -12
-102 16 -1 39 -8 44 -68 58 -32 7 -57 19 -60 28 -7 18 17 50 45 58 10 3 21 20
25 37 5 27 2 35 -22 55 -16 13 -33 23 -37 23 -4 0 -18 9 -30 21 -22 20 -22 21
-3 35 11 8 26 14 33 14 16 0 16 12 1 45 -13 30 -24 31 -60 3z"/>
<path d="M18233 16111 c-49 -23 -63 -45 -63 -100 0 -32 5 -44 25 -57 32 -21
59 -12 50 17 -10 31 8 38 94 32 71 -5 78 -4 98 19 12 13 24 35 25 48 6 55
-140 81 -229 41z"/>
<path d="M19163 15948 c-31 -7 -47 -17 -62 -42 -12 -18 -21 -40 -21 -48 0 -18
64 -70 95 -78 16 -5 20 -14 21 -45 0 -22 4 -47 10 -57 22 -39 77 -89 105 -95
27 -5 29 -8 23 -38 -5 -27 -2 -35 14 -44 32 -17 41 -13 59 24 17 35 29 44 74
51 28 5 41 -6 69 -59 19 -36 47 -44 42 -12 -15 84 -77 145 -148 145 -33 0 -47
-5 -62 -25 -11 -14 -24 -25 -28 -25 -20 1 -84 78 -90 107 -6 29 -3 34 20 43
15 5 38 10 52 10 19 0 28 8 35 30 6 16 19 32 30 35 24 8 24 24 2 69 -12 23
-29 39 -50 46 -45 16 -140 20 -190 8z m150 -61 c15 -9 27 -21 27 -26 0 -5 -23
-16 -51 -25 -51 -17 -101 -14 -126 6 -20 16 -15 48 7 56 37 13 115 8 143 -11z"/>
<path d="M18391 15890 c-74 -54 -66 -80 29 -100 33 -7 68 -18 77 -25 17 -12
17 -15 0 -49 -9 -20 -21 -36 -26 -36 -5 0 -15 -16 -21 -36 -10 -30 -10 -38 1
-45 23 -14 27 -11 66 49 51 79 51 129 0 178 -21 18 -37 40 -37 47 0 13 -30 47
-42 47 -3 0 -24 -14 -47 -30z"/>
<path d="M17207 15792 c-15 -16 -45 -38 -66 -50 l-38 -22 -36 25 c-33 22 -38
22 -52 9 -19 -20 -19 -33 2 -56 15 -17 15 -20 -5 -41 -12 -13 -22 -33 -22 -45
0 -37 28 -38 65 -2 29 28 36 30 55 20 15 -8 19 -17 15 -28 -34 -83 -27 -120
35 -175 28 -26 55 -38 110 -51 90 -20 105 -20 136 0 50 33 70 116 39 161 -21
30 -96 57 -138 49 -29 -5 -39 -2 -71 29 -21 19 -42 35 -47 35 -17 0 -10 57 9
64 28 11 88 45 78 46 -5 0 -3 6 3 14 16 19 3 46 -23 46 -12 0 -34 -13 -49 -28z
m51 -263 c37 -8 48 -7 63 7 11 10 21 15 23 13 15 -17 36 -73 36 -98 0 -24 -6
-31 -32 -40 -26 -9 -38 -8 -70 9 -21 11 -45 20 -52 20 -18 0 -43 30 -51 62 -8
33 2 51 23 43 8 -3 35 -10 60 -16z"/>
<path d="M17939 15550 c-6 -16 -14 -30 -18 -30 -4 0 -15 -16 -25 -36 -28 -61
0 -125 62 -139 38 -8 42 5 12 42 -22 29 -26 68 -8 79 16 10 79 6 150 -11 51
-12 58 -11 72 4 22 24 20 54 -3 75 -15 14 -37 18 -94 18 -45 -1 -85 5 -102 14
-36 18 -34 19 -46 -16z"/>
<path d="M18886 15445 c-8 -8 -19 -15 -24 -15 -14 0 -68 -52 -81 -77 -6 -13
-9 -34 -5 -48 6 -25 36 -38 104 -47 22 -3 25 -8 26 -46 1 -23 4 -48 7 -56 9
-23 86 -56 147 -63 57 -6 60 -5 89 28 33 36 40 69 17 88 -18 15 -51 0 -79 -36
-22 -27 -48 -29 -82 -7 -31 20 -31 25 0 58 14 15 25 33 25 40 0 19 -72 46
-119 46 -83 0 -72 57 14 79 51 13 56 18 44 49 -10 26 -59 31 -83 7z"/>
<path d="M19669 15386 c-23 -16 -40 -38 -48 -64 -12 -35 -11 -44 8 -87 24 -53
72 -105 98 -105 13 0 14 3 5 12 -7 7 -12 18 -12 26 0 8 -9 27 -21 43 -31 44
-35 89 -9 117 11 12 27 22 35 22 25 0 28 -21 5 -45 -28 -30 -20 -65 15 -65 44
0 74 18 80 47 4 15 11 36 16 46 8 15 4 24 -20 48 -40 38 -100 40 -152 5z"/>
<path d="M18160 15292 c0 -4 -15 -16 -32 -26 -37 -21 -67 -54 -68 -74 0 -37
66 -54 124 -32 21 8 24 7 19 -8 -4 -9 -13 -22 -21 -27 -7 -6 -16 -29 -19 -51
-4 -34 -2 -42 13 -48 20 -8 54 24 54 51 0 8 16 33 35 56 42 49 46 82 10 91
-14 4 -31 18 -37 31 -6 14 -15 25 -20 25 -5 0 -6 5 -3 10 4 6 -7 10 -24 10
-17 0 -31 -4 -31 -8z"/>
<path d="M17580 15102 c-141 -94 -134 -138 18 -106 36 8 68 12 70 9 3 -3 -2
-13 -10 -22 -44 -51 -29 -98 34 -107 65 -10 73 -18 55 -52 -29 -56 -26 -111 8
-126 35 -16 48 -1 33 39 -10 27 -9 35 5 51 9 10 17 24 17 30 0 6 7 15 17 20 9
6 14 16 10 25 -3 9 -1 18 6 20 14 5 2 11 -60 27 -23 6 -49 17 -57 26 -14 14
-14 19 -1 51 21 51 19 63 -16 75 -26 9 -30 15 -26 37 2 14 1 35 -2 46 -6 19
-14 16 -101 -43z"/>
<path d="M18363 15093 c-26 -10 -11 -43 38 -86 l52 -44 -47 -48 c-50 -50 -56
-78 -18 -83 15 -2 30 5 43 22 52 66 61 68 109 26 51 -46 73 -14 25 38 -31 33
-31 47 -1 67 16 11 22 22 19 36 -8 30 -19 32 -61 5 -39 -24 -72 -21 -72 7 0
13 -57 68 -69 66 -3 0 -12 -3 -18 -6z"/>
<path d="M19193 15012 c-17 -8 -36 -26 -42 -39 -16 -34 -14 -88 4 -103 8 -7
15 -18 15 -25 0 -19 56 -75 75 -75 14 0 16 6 10 27 -3 15 -14 33 -23 40 -16
12 -16 14 2 28 10 8 44 19 75 25 97 19 132 31 126 40 -4 6 -1 10 4 10 28 0 8
38 -31 60 -51 29 -165 35 -215 12z"/>
<path d="M17147 14952 c-17 -19 -7 -52 17 -52 8 0 19 -6 25 -14 9 -10 8 -16
-4 -26 -18 -15 -19 -40 -2 -63 11 -15 16 -14 57 13 42 27 48 28 90 18 25 -6
49 -14 54 -19 12 -11 -36 -73 -72 -95 -47 -27 -54 -48 -36 -93 16 -42 46 -56
105 -53 l27 2 -24 -57 -23 -58 29 -29 c26 -27 30 -28 45 -13 9 9 15 25 13 34
-1 10 5 35 15 56 10 21 17 51 15 68 -3 26 -9 33 -43 45 -22 7 -52 14 -66 14
-14 0 -28 3 -31 6 -10 9 4 44 17 44 22 0 105 89 105 113 -1 24 -22 57 -36 57
-5 0 -28 21 -51 47 -41 45 -43 46 -62 29 -12 -11 -21 -14 -26 -7 -3 6 -17 11
-31 11 -13 0 -33 9 -44 20 -25 25 -42 25 -63 2z"/>
<path d="M18718 14943 c-28 -7 -21 -46 13 -76 35 -30 49 -34 49 -13 0 8 5 16
11 18 18 6 -54 76 -73 71z"/>
<path d="M18578 14823 c-40 -46 -50 -101 -22 -124 26 -21 48 2 57 61 7 40 6
56 -5 67 -12 12 -16 11 -30 -4z"/>
<path d="M20137 14780 c-66 -12 -128 -50 -155 -98 -34 -62 -27 -92 24 -92 15
0 61 29 102 64 l23 20 22 -26 c26 -31 77 -58 110 -58 55 0 58 -48 5 -108 -32
-37 -32 -49 -2 -69 18 -11 24 -11 43 6 38 34 143 38 163 7 14 -21 8 -51 -12
-64 -11 -6 -29 -30 -40 -52 -19 -36 -19 -43 -6 -72 15 -35 65 -91 129 -145 40
-35 57 -41 57 -20 0 16 -41 57 -57 57 -6 0 -13 8 -17 18 -3 9 -11 25 -18 34
-22 30 1 38 62 22 98 -26 113 -20 113 47 0 45 -22 74 -61 84 -55 14 -90 44
-107 93 -24 73 -37 84 -102 91 l-58 6 -3 39 c-2 21 1 43 7 49 6 6 11 32 11 57
0 61 -34 96 -109 110 -59 11 -56 11 -124 0z m185 -62 c16 -46 -29 -86 -75 -69
-35 14 -38 57 -4 71 32 13 75 12 79 -2z m239 -408 c10 -6 19 -17 19 -25 0 -18
-31 -20 -48 -3 -9 9 -13 7 -18 -5 -3 -9 -12 -17 -19 -17 -7 0 -16 -6 -18 -12
-3 -7 -6 1 -6 19 -1 46 43 67 90 43z"/>
<path d="M17859 14724 c-19 -6 -49 -77 -49 -116 0 -44 96 -156 116 -135 2 1
-13 27 -32 57 -19 30 -34 60 -34 67 0 19 30 16 77 -7 61 -29 111 -30 134 -1
11 13 19 28 19 35 0 22 -29 53 -62 67 -18 7 -36 17 -39 21 -7 10 -106 19 -130
12z m120 -45 c34 -12 33 -11 25 -33 -8 -22 -29 -20 -59 6 -43 37 -28 49 34 27z"/>
<path d="M18760 14629 c-14 -4 -46 -7 -71 -8 -46 -1 -59 -11 -59 -46 0 -19 56
-38 95 -32 40 7 44 -4 15 -33 -28 -28 -37 -101 -16 -122 9 -9 16 -21 16 -27 0
-31 48 -91 66 -84 19 7 18 37 -2 54 -30 25 -46 69 -39 110 6 34 13 42 48 59
49 24 80 25 97 5 18 -21 5 -30 -43 -30 -32 0 -43 -4 -45 -17 -3 -16 5 -18 71
-18 60 0 77 4 91 19 14 16 15 23 6 41 -6 12 -17 19 -25 17 -8 -4 -11 1 -8 13
3 13 -2 20 -19 26 -12 4 -36 21 -53 39 -32 34 -81 48 -125 34z"/>
<path d="M17572 14386 c-44 -16 -78 -49 -85 -83 -8 -42 18 -93 53 -106 16 -6
30 -17 30 -24 0 -7 7 -13 15 -13 9 0 12 6 8 17 -5 12 -3 14 7 8 10 -6 12 -4 7
9 -4 10 -7 20 -7 22 0 2 -5 4 -11 4 -22 0 -50 42 -43 64 10 32 23 35 73 19 62
-21 121 -27 133 -15 5 5 12 26 15 45 3 28 0 38 -19 51 -27 19 -126 21 -176 2z"/>
<path d="M19718 14365 c-92 -68 -98 -105 -21 -134 l41 -14 -5 -52 c-5 -51 -5
-52 30 -68 62 -30 149 -14 203 36 23 21 30 34 26 53 -2 13 -7 24 -11 24 -3 0
-30 -16 -59 -36 -84 -56 -142 -34 -91 35 22 30 22 31 4 50 -9 11 -25 20 -34
19 -93 -7 -75 38 27 67 17 5 22 13 20 28 -2 18 -11 22 -43 25 -32 2 -49 -5
-87 -33z"/>
<path d="M18365 14222 c-47 -4 -61 -14 -68 -48 -6 -32 23 -64 57 -64 45 0 56
-10 56 -49 0 -43 23 -81 50 -81 10 0 22 -4 25 -10 3 -5 19 -10 36 -10 32 0 37
-16 18 -52 -20 -37 -4 -64 45 -77 25 -6 47 -15 50 -20 3 -5 -2 -30 -10 -56
-14 -40 -14 -49 -3 -56 8 -5 17 -9 21 -9 12 0 38 31 38 46 0 8 9 24 20 36 35
38 26 63 -30 87 -27 12 -50 26 -50 31 0 5 11 21 25 36 28 30 20 54 -19 54 -34
0 -118 29 -138 47 -27 24 -22 37 20 66 35 22 38 29 34 59 -2 18 -9 38 -13 44
-17 21 -87 32 -164 26z m84 -51 c14 -25 -9 -34 -45 -21 -22 9 -24 13 -14 25
17 21 47 19 59 -4z"/>
<path d="M17792 14159 c-18 -17 -33 -42 -33 -55 -3 -46 -4 -49 -25 -52 -21 -3
-54 -49 -54 -75 0 -19 37 -47 62 -47 23 0 48 39 59 92 14 62 30 98 44 98 7 0
24 -9 38 -20 21 -17 26 -18 37 -5 10 12 8 21 -9 49 -35 56 -72 61 -119 15z"/>
<path d="M19975 14069 c-60 -17 -82 -104 -33 -130 11 -6 17 -13 14 -16 -3 -3
23 -24 58 -47 59 -39 63 -43 50 -61 -21 -29 -17 -49 14 -62 20 -9 38 -10 62
-3 30 9 37 7 50 -9 8 -11 24 -21 34 -23 17 -3 19 4 20 59 1 35 -1 63 -4 64 -3
0 -34 1 -70 2 -56 2 -69 6 -94 30 -26 24 -28 30 -15 42 8 8 32 21 54 28 64 22
59 52 -19 109 -40 29 -68 33 -121 17z m85 -64 c16 -19 14 -21 -37 -29 -44 -6
-57 2 -47 28 8 21 67 21 84 1z"/>
<path d="M20688 14048 c-8 -7 -25 -27 -36 -44 -20 -30 -21 -34 -7 -67 24 -59
142 -163 162 -143 5 4 -42 67 -88 119 -24 26 -31 70 -14 83 34 26 103 -3 141
-61 21 -32 41 -32 55 -1 16 35 -7 74 -61 102 -49 27 -126 32 -152 12z"/>
<path d="M19394 13949 c-15 -16 -18 -33 -16 -73 8 -111 8 -110 -10 -114 -12
-2 -18 3 -18 15 0 11 -6 28 -14 39 -14 18 -16 18 -32 2 -22 -21 -27 -83 -8
-99 23 -19 92 -28 110 -14 21 15 30 106 16 158 -9 33 -8 38 9 48 11 5 27 7 37
4 23 -8 72 -52 72 -65 0 -5 4 -10 8 -10 12 0 32 -46 32 -71 0 -11 11 -24 25
-31 29 -13 30 -12 38 27 7 39 -26 101 -68 123 -16 10 -32 20 -35 23 -5 7 -114
59 -122 59 -3 0 -13 -9 -24 -21z"/>
<path d="M17864 13898 c-36 -20 -54 -52 -54 -100 0 -26 4 -49 9 -52 4 -3 11
-18 14 -33 3 -16 22 -44 41 -63 19 -19 36 -40 36 -46 0 -12 42 -54 54 -54 13
0 -5 44 -29 70 -13 14 -26 36 -30 50 -4 14 -14 34 -21 45 -19 27 -18 85 0 85
8 0 30 -8 48 -19 18 -10 57 -27 86 -37 48 -17 54 -17 68 -2 15 14 15 21 3 59
-12 38 -21 47 -69 70 -62 31 -127 42 -156 27z"/>
<path d="M21015 13870 c-20 -39 -20 -99 1 -107 32 -12 67 62 51 110 -12 35
-33 34 -52 -3z"/>
<path d="M20883 13810 c-15 -6 -21 -15 -17 -25 4 -10 0 -15 -12 -15 -23 0 -87
-91 -82 -116 2 -11 11 -20 19 -22 19 -4 52 25 44 39 -4 5 -2 9 4 9 5 0 18 14
28 30 10 17 27 33 39 36 27 7 47 47 31 63 -13 13 -24 13 -54 1z"/>
<path d="M19658 13685 c-32 -29 -37 -30 -52 -10 -12 17 -50 27 -71 18 -18 -6
-20 -34 -3 -51 15 -15 -7 -42 -33 -42 -23 0 -59 -34 -59 -55 0 -10 10 -15 30
-15 17 0 30 4 30 9 0 5 19 19 41 30 38 20 43 21 64 7 13 -9 26 -25 30 -36 3
-11 11 -20 16 -20 21 0 7 -26 -22 -39 -58 -25 -65 -102 -11 -122 65 -23 73
-31 66 -65 -7 -40 21 -94 49 -94 20 0 20 20 3 61 -6 13 3 21 33 35 46 21 66
61 38 78 -14 9 -14 11 0 21 27 20 -4 68 -49 79 -30 7 -40 17 -52 46 -8 20 -21
42 -30 49 -25 21 -20 60 9 67 33 8 48 29 40 54 -9 27 -34 25 -67 -5z m78 -265
c7 0 14 -9 17 -20 6 -23 -20 -27 -54 -10 -28 15 -25 44 4 36 12 -3 27 -6 33
-6z"/>
<path d="M18970 13669 c0 -5 -4 -8 -9 -4 -6 3 -32 -8 -59 -25 -42 -26 -53 -28
-83 -20 -65 19 -105 13 -133 -21 -40 -47 -33 -73 29 -115 30 -21 56 -31 110
-40 16 -3 34 -13 41 -22 10 -14 12 -13 18 6 4 12 14 22 21 22 22 0 96 41 102
56 3 8 12 14 21 14 8 0 13 2 10 6 -3 3 2 22 12 42 21 42 15 61 -24 82 -14 7
-26 17 -26 22 0 4 -7 8 -15 8 -8 0 -15 -5 -15 -11z m48 -51 c20 -20 14 -37
-28 -78 -38 -37 -84 -59 -96 -47 -11 11 28 107 49 122 26 18 59 19 75 3z
m-198 -48 c14 -8 18 -18 15 -41 -2 -17 -6 -33 -9 -36 -3 -3 -27 5 -53 18 -33
17 -49 31 -51 47 -3 20 1 22 38 22 23 0 50 -5 60 -10z"/>
<path d="M21034 13669 c-3 -5 -30 -25 -60 -44 -69 -45 -84 -74 -60 -119 20
-37 63 -66 99 -66 36 0 95 37 112 71 19 35 19 99 2 123 -16 22 -85 48 -93 35z
m32 -122 c9 -9 -19 -45 -39 -51 -26 -6 -66 13 -61 30 2 8 6 20 8 28 3 10 14
12 46 6 22 -4 43 -10 46 -13z"/>
<path d="M20303 13632 c-34 -11 -63 -56 -63 -96 0 -48 46 -133 103 -190 26
-25 49 -46 52 -46 12 0 4 28 -13 43 -19 17 -55 84 -67 125 -6 21 -5 22 12 14
29 -16 197 17 179 35 -3 3 -1 12 5 19 18 22 -16 72 -59 84 -51 15 -123 21
-149 12z m116 -42 c11 0 31 -47 24 -54 -10 -10 -73 -7 -73 4 0 6 -7 10 -16 10
-8 0 -13 -4 -10 -9 6 -10 -30 -22 -38 -13 -6 5 -9 42 -3 42 1 0 20 7 42 15 22
8 46 12 53 10 8 -3 17 -5 21 -5z"/>
<path d="M21175 13386 c-17 -7 -36 -21 -44 -30 -15 -18 -17 -86 -3 -95 5 -3
11 -14 15 -23 3 -10 13 -18 21 -18 8 0 16 -5 18 -11 2 -5 23 -12 48 -15 61 -7
64 -11 34 -47 -24 -28 -26 -37 -21 -90 6 -65 23 -92 75 -114 57 -24 76 -1 97
120 3 21 11 37 18 36 7 -1 22 2 35 7 22 9 21 11 -19 28 -40 18 -41 18 -61 -2
-14 -13 -23 -38 -26 -71 -2 -28 -8 -54 -12 -56 -16 -10 -38 7 -51 38 -18 42
-14 68 12 88 15 11 20 23 16 38 -3 15 2 28 16 42 17 15 19 23 11 37 -15 24
-42 27 -64 7 -18 -16 -21 -16 -57 1 -48 24 -54 50 -18 78 24 19 26 25 16 44
-14 25 -16 26 -56 8z"/>
<path d="M18236 13333 c-12 -30 -6 -55 14 -60 29 -8 22 -19 -30 -45 -35 -18
-46 -29 -48 -51 -3 -28 23 -50 37 -31 3 5 25 22 49 37 40 26 45 27 79 15 29
-11 53 -39 53 -63 0 -3 -21 -14 -47 -25 -84 -36 -98 -45 -101 -67 -2 -17 6
-25 35 -38 21 -9 56 -25 79 -36 23 -10 46 -19 53 -19 22 0 11 -18 -24 -39 -19
-11 -40 -33 -46 -48 -9 -23 -7 -30 13 -45 13 -10 27 -18 31 -18 14 0 37 28 37
45 0 8 8 19 18 22 45 18 66 66 46 111 -7 18 -19 32 -26 32 -7 0 -28 9 -47 21
l-34 21 39 22 c34 18 39 27 42 60 2 28 -3 48 -18 68 -21 28 -21 30 -3 43 10 7
41 16 70 20 43 5 52 10 55 28 2 14 -6 29 -20 40 -22 18 -24 18 -92 -9 -38 -15
-67 -30 -65 -34 8 -13 -24 -20 -47 -10 -13 5 -20 9 -16 9 4 1 -3 12 -15 24
-28 30 -64 40 -71 20z"/>
<path d="M19869 13139 c0 -2 -3 -15 -5 -29 -3 -13 -16 -37 -30 -51 -52 -54 -5
-90 62 -48 29 18 40 20 60 10 41 -18 67 -14 61 9 -8 33 28 50 106 50 58 0 71
-3 92 -24 13 -13 26 -21 29 -18 3 3 6 -18 6 -46 0 -40 4 -52 15 -52 19 0 19 9
-2 73 -20 64 -25 71 -74 96 -48 25 -134 28 -166 6 -12 -8 -23 -11 -25 -6 -5
14 -87 31 -94 19 -3 -5 -11 -4 -20 3 -8 6 -14 10 -15 8z"/>
<path d="M21473 13082 c10 -10 17 -28 17 -39 0 -22 23 -47 33 -36 23 22 -9 93
-42 93 -23 0 -23 -1 -8 -18z"/>
<path d="M21660 12990 c-19 -11 -52 -23 -66 -24 -25 -2 -134 -102 -134 -123 0
-26 70 -4 100 32 7 9 28 22 47 30 18 8 33 19 33 24 0 6 9 11 19 11 26 0 66 34
57 48 -8 14 -34 15 -56 2z"/>
<path d="M19251 12964 c-17 -14 -31 -34 -31 -43 0 -27 -11 -32 -36 -16 -21 14
-24 13 -34 -4 -15 -28 -12 -59 7 -91 28 -48 83 -49 89 -3 11 88 17 113 34 128
19 17 21 17 41 -1 17 -15 20 -27 16 -57 -3 -25 0 -42 9 -52 25 -24 41 -7 48
51 7 63 -4 89 -48 104 -44 15 -62 12 -95 -16z"/>
<path d="M20746 12955 c-15 -8 -31 -13 -35 -10 -13 8 -51 -25 -51 -44 0 -24
40 -40 114 -46 33 -3 62 -8 65 -11 3 -3 -6 -16 -21 -28 -33 -26 -37 -62 -8
-71 11 -3 20 -11 20 -16 0 -5 7 -9 16 -9 8 0 24 -5 35 -11 19 -10 19 -10 -1
-39 -29 -41 -24 -85 9 -85 17 0 30 10 44 35 10 19 22 37 26 40 8 6 31 48 31
55 0 4 -21 15 -46 26 -56 25 -62 40 -34 79 29 41 23 62 -24 75 -39 11 -49 21
-60 58 -7 21 -41 22 -80 2z"/>
<path d="M20072 12859 c-7 -10 -12 -26 -12 -34 0 -9 -6 -18 -14 -21 -17 -7
-40 -59 -32 -72 9 -14 58 -11 74 4 20 20 75 17 105 -6 32 -25 52 -26 42 -2
-27 65 -14 77 61 62 87 -18 104 -28 104 -62 0 -31 26 -40 37 -12 7 19 -72 102
-102 107 -11 1 -26 6 -34 11 -7 5 -47 8 -89 8 -58 -1 -81 3 -102 18 -26 18
-26 18 -38 -1z"/>
<path d="M18717 12806 c-22 -47 -7 -109 26 -104 18 2 23 12 30 57 11 82 -24
112 -56 47z"/>
<path d="M21683 12817 c-40 -21 -74 -45 -135 -96 -19 -15 -28 -31 -26 -45 5
-33 34 -30 73 8 20 20 42 36 50 36 8 0 15 4 15 9 0 5 20 21 44 35 52 30 58 38
50 60 -8 21 -21 20 -71 -7z"/>
<path d="M21314 12772 c-25 -17 -24 -42 2 -54 21 -10 31 -9 60 7 36 19 44 39
18 49 -21 8 -67 7 -80 -2z"/>
<path d="M18558 12719 c-42 -31 -36 -72 13 -84 19 -5 34 0 57 20 36 30 39 46
16 69 -21 22 -53 20 -86 -5z"/>
<path d="M19340 12703 c-47 -7 -54 -12 -40 -28 10 -12 9 -15 -4 -15 -18 0 -21
-15 -5 -26 8 -5 7 -9 -1 -14 -17 -11 -4 -41 20 -47 11 -3 18 -9 15 -13 -3 -5
4 -15 15 -23 20 -14 20 -14 0 -52 -27 -53 -10 -108 30 -98 15 4 17 11 13 38
-5 29 -1 39 30 67 26 25 42 33 66 31 29 -3 31 -1 31 33 0 19 -6 47 -14 62 -18
33 -121 90 -156 85z m59 -35 c1 -5 14 -19 26 -31 13 -12 27 -34 30 -49 6 -23
3 -29 -16 -37 -46 -16 -118 62 -105 113 6 23 10 25 34 20 15 -4 29 -11 31 -16z"/>
<path d="M18623 12584 c-23 -8 -49 -26 -57 -39 -15 -23 -15 -26 6 -44 11 -11
24 -18 28 -16 16 10 100 -46 100 -66 0 -10 -5 -19 -10 -19 -6 0 -19 -14 -30
-32 -27 -44 -9 -76 62 -108 29 -13 69 -41 88 -62 20 -21 41 -38 48 -38 29 0 7
-32 -52 -74 -35 -25 -66 -52 -69 -61 -8 -18 -37 -20 -37 -2 0 15 -58 77 -72
77 -6 0 -22 9 -38 20 -28 20 -28 20 -54 -1 -23 -18 -26 -27 -26 -82 1 -106 42
-167 112 -167 12 0 45 23 76 55 30 30 58 55 62 55 4 0 24 16 44 35 21 19 42
35 47 35 5 0 9 5 9 10 0 6 5 10 10 10 6 0 36 18 68 39 49 34 57 44 59 73 1 26
-5 38 -30 58 -28 22 -39 25 -102 22 -73 -3 -107 8 -136 42 -18 21 -14 56 6 56
41 0 66 93 30 114 -10 6 -25 17 -33 24 -7 6 -18 12 -23 12 -15 0 -10 22 9 36
13 10 15 17 6 31 -14 23 -48 26 -101 7z m11 -569 c8 -8 22 -15 30 -15 23 0 20
-13 -8 -39 -44 -42 -98 -13 -77 42 12 30 32 35 55 12z"/>
<path d="M21406 12558 c-18 -25 -7 -53 25 -61 23 -6 69 31 69 56 0 33 -72 37
-94 5z"/>
<path d="M20993 12517 c-55 -10 -83 -45 -83 -102 0 -30 6 -47 23 -63 31 -29
47 -50 47 -60 0 -6 8 -12 18 -16 9 -3 27 -10 40 -16 21 -9 23 -8 16 13 -4 12
-21 36 -39 53 -17 18 -39 48 -49 68 -16 33 -16 37 0 61 9 14 22 25 29 25 7 0
20 3 29 6 21 8 21 -19 1 -36 -29 -24 -17 -45 38 -68 61 -26 76 -23 100 17 23
39 21 74 -4 96 -24 23 -108 34 -166 22z"/>
<path d="M20533 12460 c-27 -11 -32 -55 -8 -64 8 -3 15 -1 15 5 0 6 3 8 8 6
16 -10 52 13 52 33 0 11 -4 20 -9 20 -5 0 -15 2 -23 4 -7 3 -23 1 -35 -4z"/>
<path d="M19757 12430 c-15 -12 -27 -31 -27 -44 0 -29 24 -61 38 -52 19 12 46
77 35 84 -5 4 -12 13 -14 20 -3 10 -11 8 -32 -8z"/>
<path d="M20485 12351 c-4 -21 -13 -30 -35 -34 -35 -8 -70 -43 -70 -73 0 -27
17 -34 50 -21 14 5 51 9 83 8 55 -2 57 -1 57 23 0 32 16 33 48 4 23 -23 24
-23 38 -4 28 40 18 55 -60 92 -41 19 -81 34 -90 34 -8 0 -17 -13 -21 -29z"/>
<path d="M19563 12344 c-77 -33 -86 -124 -11 -124 23 0 28 5 34 35 4 25 12 35
24 35 22 0 30 19 19 41 -12 24 -30 28 -66 13z"/>
<path d="M21918 12236 c-13 -13 -35 -26 -49 -30 -17 -4 -32 -18 -43 -41 -14
-29 -15 -44 -6 -98 11 -60 13 -64 51 -80 51 -22 54 -22 78 9 17 22 21 41 21
103 0 81 12 121 25 82 3 -11 10 -21 14 -21 5 0 14 -12 20 -28 15 -36 50 -59
62 -40 16 25 9 50 -28 94 -31 39 -86 74 -114 74 -4 0 -18 -11 -31 -24z m1
-100 c15 -18 4 -66 -16 -73 -29 -11 -45 51 -21 75 16 16 23 15 37 -2z"/>
<path d="M19669 12231 c-35 -14 -71 -52 -75 -79 -10 -62 83 -122 186 -122 20
0 45 -7 56 -15 27 -21 37 -18 55 13 10 18 31 32 60 42 38 12 99 62 99 82 0 3
-30 -9 -66 -28 -50 -26 -70 -32 -80 -24 -13 11 -9 40 6 40 4 0 23 14 41 32 27
25 42 31 71 30 43 -1 57 12 29 27 -37 20 -63 14 -136 -34 -16 -11 -33 -24 -37
-30 -4 -6 -21 3 -41 23 -18 17 -40 32 -49 32 -9 0 -19 4 -22 9 -7 10 -74 12
-97 2z m88 -39 c12 -4 35 -25 53 -46 27 -35 29 -41 16 -54 -32 -32 -149 -2
-166 42 -5 13 -6 33 -3 45 4 17 13 21 42 20 20 -1 46 -4 58 -7z"/>
<path d="M21224 12209 c-3 -6 3 -24 15 -40 26 -35 26 -45 2 -58 -22 -12 -34
-61 -19 -78 14 -17 46 1 58 33 13 34 30 29 70 -21 19 -25 42 -53 51 -65 17
-20 49 -28 49 -11 0 5 -7 16 -15 24 -8 8 -31 43 -51 77 -41 71 -38 80 34 80
47 0 53 13 20 41 -25 22 -40 23 -90 5 -34 -12 -39 -12 -54 5 -19 21 -59 25
-70 8z"/>
<path d="M20241 12133 c-17 -19 -2 -49 23 -47 9 1 16 -2 16 -7 0 -12 37 -11
61 2 19 10 19 11 -8 40 -31 32 -70 38 -92 12z"/>
<path d="M19040 11961 c0 -5 -9 -13 -20 -16 -11 -3 -20 -13 -20 -21 0 -8 -5
-14 -10 -14 -6 0 -19 -20 -30 -45 -14 -32 -25 -45 -40 -45 -15 0 -20 7 -22 28
0 15 -1 34 -2 42 -1 8 -11 16 -24 18 -35 5 -44 -33 -20 -93 20 -52 35 -66 80
-76 33 -8 48 7 72 74 10 26 23 47 29 48 7 1 23 2 37 2 21 2 24 7 25 40 2 40
-15 67 -41 67 -8 0 -14 -4 -14 -9z"/>
<path d="M19950 11914 c-14 -35 -13 -38 10 -59 11 -10 20 -24 20 -32 0 -7 7
-16 15 -19 8 -4 15 -12 15 -20 0 -23 27 -16 33 8 4 14 -1 32 -11 47 -33 46
-49 76 -46 82 2 4 -3 10 -11 13 -11 4 -19 -3 -25 -20z"/>
<path d="M22175 11899 c-79 -13 -120 -29 -130 -52 -14 -31 -7 -65 16 -72 10
-4 19 -11 19 -16 0 -5 9 -9 19 -9 31 0 33 -16 6 -41 -33 -32 -34 -79 -3 -79
27 0 108 86 108 115 0 21 -45 65 -67 65 -7 0 -13 4 -13 10 0 19 43 32 91 27
63 -7 82 11 43 42 -15 12 -29 20 -33 20 -3 -1 -28 -5 -56 -10z"/>
<path d="M20800 11728 c-25 -11 -78 -27 -119 -34 -76 -14 -91 -23 -91 -60 0
-21 2 -21 169 -16 113 3 170 1 175 -6 8 -14 -55 -62 -82 -62 -11 0 -22 -5 -24
-11 -2 -5 -16 -12 -31 -13 -34 -4 -36 -6 -39 -37 -2 -19 2 -25 22 -27 14 -2
29 -8 35 -13 5 -5 25 -9 45 -9 30 0 39 -5 49 -26 10 -23 9 -26 -9 -31 -11 -3
-20 -9 -20 -14 0 -5 -9 -9 -20 -9 -21 0 -34 -32 -28 -67 1 -10 -7 -28 -20 -41
-39 -39 -29 -68 35 -96 23 -10 49 -26 58 -36 14 -15 14 -21 -1 -56 -15 -36
-15 -41 1 -69 18 -32 106 -108 131 -111 8 -1 26 -9 39 -18 21 -14 22 -18 12
-41 -7 -13 -15 -25 -19 -25 -16 0 -7 -36 12 -47 15 -10 21 -10 27 0 11 17 79
47 107 47 21 0 66 -37 66 -55 0 -4 -8 -13 -17 -20 -16 -12 -16 -14 -1 -36 9
-13 25 -34 37 -46 12 -12 21 -25 21 -29 0 -4 8 -13 18 -20 16 -12 15 -15 -13
-38 -16 -14 -38 -25 -47 -26 -21 0 -53 -45 -43 -60 10 -17 48 -11 90 15 53 33
69 31 101 -10 41 -54 60 -41 29 19 -8 15 -15 38 -15 51 0 26 24 50 40 40 17
-10 41 27 28 42 -15 19 -36 16 -70 -8 l-30 -21 -34 36 c-19 20 -34 44 -34 55
0 10 -7 38 -15 62 -17 48 -13 54 45 65 41 8 90 40 90 59 0 8 -9 20 -20 28 -11
8 -17 17 -13 20 15 16 -46 5 -82 -13 -22 -11 -56 -23 -76 -26 -40 -7 -40 -6
-54 63 -7 37 -28 48 -49 27 -13 -12 -13 -20 -1 -60 11 -37 11 -46 0 -50 -29
-11 -146 59 -185 111 -49 65 -21 108 63 98 43 -5 49 -4 54 16 3 11 12 21 20
21 8 0 12 4 9 9 -4 5 -1 11 6 13 23 8 -9 57 -49 76 -21 9 -39 20 -41 25 -2 4
-21 7 -43 7 -21 0 -39 4 -39 9 0 5 -10 11 -21 13 -42 6 -46 33 -11 72 49 56
55 108 15 123 -10 4 -23 14 -30 22 -10 13 -7 20 15 41 60 56 67 99 20 119
-107 45 -111 48 -89 54 19 5 39 33 30 41 -16 14 -51 11 -89 -6z m161 -509 c66
-22 130 -71 109 -84 -21 -13 -119 6 -165 32 -51 28 -59 38 -51 58 7 20 31 19
107 -6z m399 -379 c0 -5 -2 -10 -4 -10 -3 0 -8 5 -11 10 -3 6 -1 10 4 10 6 0
11 -4 11 -10z"/>
<path d="M22280 11633 c-39 -16 -46 -25 -59 -70 -16 -55 7 -118 92 -258 16
-27 30 -36 40 -26 5 5 -8 44 -31 90 -22 44 -37 83 -32 86 4 3 28 -6 52 -20 73
-42 109 -31 137 41 15 37 4 69 -35 105 -59 54 -117 72 -164 52z m95 -59 c31
-33 34 -84 6 -84 -27 0 -93 81 -79 97 17 21 47 15 73 -13z"/>
<path d="M21523 11628 c-44 -21 -24 -69 50 -121 18 -12 18 -15 2 -64 -20 -60
-14 -78 46 -135 42 -41 46 -43 68 -29 11 7 6 17 -23 47 -20 21 -39 48 -42 61
-7 26 10 53 33 53 22 0 72 32 77 50 18 63 17 77 -7 100 -42 40 -156 61 -204
38z"/>
<path d="M20286 11398 c-9 -12 -16 -32 -16 -44 0 -39 -21 -46 -128 -38 -97 7
-100 6 -107 -16 -9 -29 9 -48 29 -31 11 9 24 10 53 2 21 -6 92 -20 158 -32 66
-11 127 -25 137 -30 9 -5 26 -9 38 -9 18 0 20 4 14 22 -10 32 -31 45 -86 52
-36 5 -48 11 -54 28 -4 14 -1 25 10 33 18 13 22 65 5 65 -5 0 -7 5 -4 10 13
21 -35 9 -49 -12z"/>
<path d="M21803 11333 c-19 -7 -16 -44 7 -80 l19 -32 -22 -16 c-12 -8 -27 -15
-34 -15 -18 0 -46 -47 -39 -65 9 -24 38 -18 79 16 21 17 43 29 50 26 7 -3 34
-36 60 -75 48 -71 99 -132 112 -132 4 0 3 6 -3 13 -5 6 -13 23 -17 37 -4 14
-25 54 -46 89 -41 67 -49 105 -23 115 9 3 38 6 65 6 54 0 60 9 28 39 -22 21
-71 20 -115 -1 -28 -13 -62 4 -70 38 -7 26 -31 44 -51 37z"/>
<path d="M19122 11305 c-24 -31 -29 -77 -9 -93 6 -6 25 -14 40 -17 15 -4 32
-16 38 -26 5 -11 18 -19 29 -19 21 0 37 -19 24 -29 -15 -10 -34 -60 -34 -87 0
-39 18 -64 57 -80 33 -14 34 -16 28 -54 -6 -37 -5 -41 22 -51 23 -9 40 -7 96
12 67 23 67 23 87 3 12 -12 21 -36 23 -59 2 -35 -1 -40 -20 -43 -32 -5 -63
-53 -63 -97 0 -34 24 -83 54 -110 6 -5 19 -22 29 -37 10 -16 24 -28 32 -28 8
0 15 -7 15 -15 0 -17 35 -55 50 -55 15 0 12 26 -4 43 -8 8 -33 43 -54 77 -22
34 -41 57 -44 50 -2 -7 -10 11 -17 40 -11 42 -11 56 -1 76 7 13 17 21 22 18 5
-3 16 0 25 7 13 11 17 10 28 -5 11 -14 11 -22 -1 -44 -24 -47 -18 -70 22 -87
44 -18 76 -19 92 -3 32 32 -8 107 -75 142 -29 14 -37 35 -59 146 -4 19 -14 45
-24 57 -15 20 -19 21 -36 8 -27 -20 -31 -19 -43 15 -11 34 -28 37 -72 15 -23
-12 -34 -13 -52 -4 -38 20 -57 41 -57 64 0 27 36 75 57 75 30 0 73 34 73 57 0
13 5 32 12 43 11 17 8 24 -17 50 -40 43 -79 57 -173 65 -78 7 -79 7 -100 -20z
m176 -19 c15 -8 34 -25 41 -39 11 -21 11 -28 -4 -51 -21 -31 -26 -32 -84 -5
-68 31 -74 34 -85 52 -27 43 71 75 132 43z"/>
<path d="M20343 11068 c-38 -18 -54 -108 -20 -108 5 0 26 -12 46 -27 54 -41
92 -59 132 -61 68 -4 117 65 80 115 -9 12 -21 23 -27 23 -7 0 -14 7 -17 15 -7
16 -111 50 -127 40 -5 -3 -10 -1 -10 4 0 14 -28 13 -57 -1z m54 -64 c4 -12 14
-14 39 -9 29 5 38 1 65 -26 30 -31 31 -33 13 -46 -23 -17 -19 -18 -89 21 -40
22 -61 40 -63 54 -4 26 25 31 35 6z"/>
<path d="M22676 10988 c-10 -13 -16 -44 -16 -75 0 -28 -4 -55 -10 -58 -5 -3
-10 -3 -11 2 -8 94 -62 146 -81 78 -9 -33 -1 -92 13 -101 5 -3 9 -15 9 -28 0
-26 58 -86 83 -86 27 0 45 40 53 113 4 37 11 70 17 74 9 5 57 -43 57 -58 0 -5
9 -13 21 -19 26 -15 49 3 49 37 0 45 -105 143 -152 143 -9 0 -24 -10 -32 -22z"/>
<path d="M20464 10739 c-15 -29 -15 -34 1 -69 12 -27 29 -43 56 -55 21 -10 39
-21 39 -25 0 -15 71 -22 86 -9 21 17 4 31 -43 36 -21 2 -39 8 -41 13 -2 6 -10
10 -18 10 -8 0 -13 3 -12 8 1 4 -2 17 -6 30 -5 15 -3 31 7 45 19 30 11 47 -24
47 -22 0 -32 -7 -45 -31z"/>
<path d="M22098 10726 c-14 -10 -14 -15 -1 -40 18 -35 11 -56 -20 -56 -13 0
-31 -8 -40 -18 -44 -49 11 -76 71 -36 19 13 44 24 55 24 23 0 106 -59 107 -77
0 -14 -86 -57 -99 -49 -15 10 -61 -34 -61 -58 0 -16 13 -32 40 -51 l40 -28
-25 -25 c-40 -40 -28 -110 17 -93 9 3 34 33 56 66 44 65 43 73 -12 102 l-30
16 22 17 c12 10 38 21 58 24 20 4 46 16 57 27 21 19 21 20 2 52 -10 17 -27 38
-37 45 -24 17 -23 40 3 61 13 10 21 30 22 51 2 29 -2 36 -19 38 -12 2 -37 -6
-55 -17 -43 -26 -61 -26 -85 0 -28 31 -47 39 -66 25z"/>
<path d="M22748 10655 c-40 -22 -44 -50 -14 -90 14 -18 26 -37 26 -40 0 -4
-11 -20 -25 -37 -26 -31 -31 -53 -16 -77 11 -18 61 -6 61 14 0 21 43 46 76 43
50 -3 57 7 49 76 -8 67 -24 92 -72 112 -40 17 -51 17 -85 -1z m82 -45 c21 -11
17 -40 -5 -40 -17 0 -38 27 -30 40 8 13 12 13 35 0z"/>
<path d="M19960 10427 c-80 -42 -170 -115 -170 -138 0 -5 20 -33 45 -63 25
-31 45 -60 45 -66 0 -13 41 -29 58 -22 8 2 12 17 10 34 -3 27 1 31 44 48 25 9
64 20 85 24 46 8 126 33 168 52 17 7 41 16 55 19 46 11 72 38 65 67 -4 17 -12
25 -20 22 -7 -3 -24 1 -37 10 -15 10 -44 14 -86 12 -35 -1 -66 2 -68 6 -9 13
-167 9 -194 -5z"/>
<path d="M23075 10346 c-7 -11 -16 -41 -20 -66 -5 -38 -3 -48 13 -64 20 -17
21 -17 30 1 6 10 15 38 22 63 6 25 13 52 16 61 8 27 -44 31 -61 5z"/>
<path d="M22935 10314 c-45 -23 -63 -43 -70 -75 -9 -41 9 -61 40 -47 13 6 26
19 28 29 4 14 14 19 44 19 31 0 40 5 49 25 10 19 9 27 -5 38 -27 24 -54 28
-86 11z"/>
<path d="M19576 10260 c-34 -39 -36 -92 -3 -108 42 -20 68 -24 83 -11 9 7 29
12 45 11 28 -2 29 0 29 38 0 38 -2 41 -47 61 -27 12 -55 25 -64 30 -12 6 -24
0 -43 -21z"/>
<path d="M20978 10143 c-9 -2 -24 -24 -34 -48 -9 -25 -22 -49 -28 -54 -16 -14
-54 -2 -61 18 -2 9 -14 22 -26 29 -18 12 -23 12 -30 0 -29 -43 31 -108 99
-108 43 0 67 26 76 80 6 37 9 40 39 40 17 0 37 -4 44 -8 15 -10 33 -57 33 -88
0 -15 6 -24 15 -24 8 0 15 6 15 13 0 8 4 7 10 -3 5 -8 10 -13 11 -10 3 20 8
37 14 51 4 11 -3 24 -21 38 -15 11 -23 21 -18 21 5 0 -4 7 -19 15 -15 8 -35
11 -45 8 -15 -6 -15 -4 -4 10 12 14 11 16 -5 15 -10 0 -25 2 -33 4 -8 3 -23 4
-32 1z m45 -30 c-7 -2 -19 -2 -25 0 -7 3 -2 5 12 5 14 0 19 -2 13 -5z"/>
<path d="M22323 10124 c-66 -33 -71 -152 -9 -236 11 -16 26 -28 33 -28 15 0
18 36 4 45 -5 3 -15 30 -22 61 -10 46 -10 57 2 69 12 13 22 11 72 -14 69 -34
142 -48 163 -30 24 19 18 74 -11 93 -64 42 -184 63 -232 40z"/>
<path d="M23240 10111 c-25 -4 -55 -13 -67 -21 -18 -12 -29 -12 -55 -2 -18 6
-59 14 -91 18 -66 8 -91 -6 -102 -57 -9 -40 14 -73 68 -100 23 -12 48 -26 56
-33 9 -7 48 -10 109 -7 84 3 102 7 161 37 37 19 77 43 89 54 29 28 28 67 -4
96 -27 25 -67 29 -164 15z m142 -65 c14 -21 -18 -48 -87 -71 -77 -27 -111 -30
-150 -15 -26 10 -26 10 -8 34 40 55 219 92 245 52z m-329 -6 c17 -16 19 -24
11 -38 -16 -24 -35 -25 -62 -2 -19 16 -21 23 -12 40 14 26 35 26 63 0z"/>
<path d="M21815 9945 c-38 -19 -82 -35 -97 -35 -40 0 -57 -10 -73 -41 l-15
-28 37 -6 c117 -17 243 -67 271 -107 18 -25 65 -21 70 6 4 20 -46 72 -85 87
-31 12 -40 37 -18 53 22 16 18 99 -5 104 -8 1 -46 -13 -85 -33z"/>
<path d="M21020 9868 c-22 -24 -24 -59 -2 -66 7 -2 12 6 12 21 0 17 7 26 21
30 12 3 19 11 17 18 -7 22 -25 21 -48 -3z"/>
<path d="M21109 9869 c-11 -7 -11 -9 4 -9 24 0 56 -39 57 -67 0 -32 -36 -30
-62 2 -17 21 -22 23 -41 13 -12 -6 -28 -18 -36 -26 -24 -23 12 -42 86 -44 35
-1 73 -2 85 -2 19 -1 23 5 25 34 3 27 -3 39 -24 58 -43 37 -77 52 -94 41z"/>
<path d="M21741 9772 c-33 -26 -40 -129 -10 -160 22 -24 28 -26 48 -13 11 7
12 17 3 54 -9 33 -9 53 -1 77 9 25 9 35 -3 46 -13 13 -17 13 -37 -4z"/>
<path d="M23142 9760 c-18 -17 -20 -25 -11 -41 14 -27 33 -33 58 -19 27 14 28
56 2 70 -25 13 -24 13 -49 -10z"/>
<path d="M21080 9650 c0 -5 5 -10 11 -10 5 0 7 5 4 10 -3 6 -8 10 -11 10 -2 0
-4 -4 -4 -10z"/>
<path d="M21980 9622 l-21 -17 20 -27 c12 -14 21 -34 21 -43 0 -28 20 -55 40
-55 29 0 32 15 14 77 -25 86 -36 96 -74 65z"/>
<path d="M21176 9559 c-14 -17 -26 -37 -26 -44 0 -18 58 -134 78 -157 40 -47
39 6 -2 66 -14 22 -26 43 -26 47 0 16 36 9 58 -11 12 -11 28 -20 36 -20 7 0
16 -7 20 -15 3 -8 17 -20 32 -25 21 -8 31 -7 45 6 32 29 24 66 -22 105 -22 18
-42 35 -43 37 -5 4 -110 42 -117 42 -4 0 -19 -14 -33 -31z"/>
<path d="M21876 9524 c-44 -57 -45 -70 -6 -76 27 -4 34 1 61 40 34 50 34 75 2
80 -15 2 -31 -10 -57 -44z"/>
<path d="M22675 9557 c-60 -5 -112 -13 -115 -16 -3 -4 -17 -14 -32 -24 -28
-17 -36 -49 -20 -74 10 -16 52 -5 52 13 0 24 50 35 150 35 52 0 104 -1 115 -3
15 -2 21 3 23 23 6 50 -26 59 -173 46z"/>
<path d="M21899 9393 c-47 -3 -58 -7 -62 -24 -11 -42 2 -52 65 -47 54 4 61 2
68 -17 9 -23 36 -39 50 -30 11 7 21 70 14 89 -3 9 -12 16 -20 16 -8 0 -14 5
-14 10 0 6 -10 9 -22 8 -13 -1 -48 -3 -79 -5z"/>
<path d="M23659 9365 c-3 -2 -50 -16 -105 -30 -108 -28 -174 -57 -216 -94 -42
-37 -33 -61 23 -61 15 0 19 -7 19 -37 0 -59 18 -111 40 -118 11 -4 20 -11 20
-16 0 -5 15 -9 34 -9 37 0 71 28 110 90 21 33 25 35 72 32 38 -2 56 2 74 16
22 18 22 20 10 73 -13 54 -13 54 -23 24 -13 -42 -26 -55 -51 -55 -25 1 -50 18
-59 42 -4 11 5 24 28 42 28 22 38 24 59 16 25 -9 26 -8 20 18 -11 49 -40 83
-55 67z m-119 -173 c0 -31 -8 -59 -23 -83 -19 -31 -25 -35 -44 -28 -27 10 -30
43 -9 104 13 38 50 70 68 59 4 -3 8 -26 8 -52z"/>
<path d="M22669 9303 c-19 -3 -33 -17 -52 -54 -25 -48 -25 -51 -9 -88 18 -41
65 -78 112 -87 89 -18 201 140 115 162 -14 3 -25 10 -25 14 0 4 -17 19 -38 34
-37 25 -49 27 -103 19z m64 -86 c10 -6 19 -26 20 -42 2 -26 -2 -30 -26 -33
-23 -3 -30 2 -43 33 -8 20 -12 40 -9 45 9 14 38 12 58 -3z"/>
<path d="M21382 9168 c-7 -7 -12 -17 -12 -23 0 -13 87 -105 100 -105 5 0 19
-18 30 -40 20 -39 50 -55 50 -26 0 25 -29 84 -45 89 -8 4 -15 13 -15 21 0 8
-16 28 -35 45 -19 17 -35 35 -35 41 0 14 -23 13 -38 -2z"/>
<path d="M22066 9125 c-11 -11 -26 -14 -54 -9 -34 5 -42 3 -56 -17 -35 -50 -8
-149 40 -149 23 0 65 51 62 74 -4 28 33 66 64 66 24 0 58 -27 58 -46 0 -5 11
-22 25 -39 24 -29 25 -29 40 -11 8 11 15 25 15 31 0 22 -44 78 -75 96 -38 22
-99 24 -119 4z"/>
<path d="M23515 8963 c-45 -11 -93 -77 -90 -123 3 -39 17 -90 24 -90 4 0 15
-25 26 -56 10 -30 26 -59 36 -64 25 -14 30 8 12 55 -54 142 -51 207 9 219 52
10 88 7 95 -9 7 -21 -2 -29 -35 -31 -45 -3 -47 -3 -61 -26 -20 -32 6 -48 62
-37 23 4 54 5 69 2 46 -9 78 4 78 32 0 41 -46 82 -119 106 -84 28 -82 28 -106
22z"/>
<path d="M22763 8941 c-40 -25 -63 -64 -63 -106 0 -39 25 -69 134 -159 41 -34
44 -40 30 -51 -14 -10 -16 -22 -10 -65 4 -29 16 -70 27 -91 10 -21 19 -52 19
-69 0 -20 6 -33 18 -37 53 -19 104 -80 70 -85 -45 -5 -84 -24 -91 -42 -10 -25
4 -76 19 -76 8 0 14 -3 14 -8 0 -12 94 -70 151 -93 61 -23 69 -32 69 -75 0
-49 20 -96 39 -92 12 3 16 16 16 58 l0 54 116 1 c110 1 119 2 151 27 25 19 35
35 36 55 1 42 -30 74 -70 73 -18 0 -47 2 -65 6 -18 3 -56 1 -84 -6 -51 -13
-53 -12 -73 13 -12 14 -39 31 -61 39 -63 21 -88 43 -82 70 5 18 -4 34 -39 71
-24 27 -44 52 -44 56 0 14 52 52 90 66 18 7 40 51 40 80 0 17 -10 25 -41 34
-36 11 -40 15 -37 41 1 15 -4 40 -11 54 -13 23 -12 31 3 62 17 36 14 68 -8 89
-48 47 -129 103 -157 109 -19 3 -44 8 -55 10 -12 2 -35 -4 -51 -13z m97 -101
c0 -5 -4 -10 -10 -10 -5 0 -10 5 -10 10 0 6 5 10 10 10 6 0 10 -4 10 -10z m73
-115 c4 -8 2 -17 -4 -21 -12 -7 -41 15 -33 27 8 14 31 11 37 -6z m80 -169 c23
-20 37 -56 22 -56 -26 0 -94 52 -95 73 0 16 47 6 73 -17z m37 -343 c20 -3 53
-17 75 -32 31 -21 40 -33 41 -59 1 -28 -1 -32 -25 -32 -30 0 -128 61 -154 96
-20 27 -14 49 12 39 9 -4 32 -9 51 -12z m402 -105 c11 -9 15 -22 11 -40 -6
-31 -36 -41 -135 -42 -47 -1 -62 3 -80 21 -22 22 -22 23 -3 38 44 33 175 47
207 23z"/>
<path d="M22050 8900 c-23 -23 -24 -32 -10 -79 9 -33 40 -71 58 -71 5 0 20
-12 34 -27 36 -40 59 -57 96 -72 18 -8 35 -17 37 -21 3 -5 -15 -20 -40 -34
-24 -15 -50 -36 -56 -48 -10 -19 -8 -25 16 -44 21 -17 26 -26 18 -36 -17 -21
-33 -77 -27 -93 10 -26 50 -18 63 13 7 15 30 38 51 52 46 28 51 47 15 56 -36
9 -51 30 -35 50 21 24 78 44 126 44 37 0 54 5 93 27 2 2 -1 9 -8 17 -9 11 -30
13 -89 9 -63 -4 -82 -1 -103 14 -44 30 -163 121 -181 139 -18 17 -33 63 -23
72 12 12 60 -27 69 -57 10 -31 30 -46 47 -35 27 16 -15 92 -65 117 -54 26 -66
27 -86 7z"/>
<path d="M21616 8674 c-10 -27 -7 -43 16 -64 25 -23 24 -25 -22 -37 -31 -8
-35 -13 -38 -46 -3 -31 0 -37 15 -37 11 0 23 4 29 9 5 5 33 14 62 19 50 9 54
8 69 -15 24 -36 3 -66 -68 -97 -74 -32 -75 -49 -10 -100 43 -34 48 -42 38 -58
-7 -10 -14 -18 -18 -18 -16 0 -49 -44 -49 -66 0 -34 23 -40 84 -21 49 16 64
32 92 97 3 7 -28 73 -37 80 -4 3 -10 17 -14 31 -5 20 -1 28 19 38 13 8 29 25
35 40 16 44 22 81 12 81 -19 0 -19 29 0 51 22 26 22 25 9 50 -12 21 -41 25
-71 9 -22 -12 -34 -7 -83 38 -39 35 -61 40 -70 16z"/>
<path d="M23688 8332 c-38 -23 -62 -81 -54 -129 10 -54 90 -173 117 -173 25 0
19 25 -20 85 -15 22 -27 45 -27 50 0 6 -4 22 -8 36 -9 31 14 83 43 99 11 5 36
10 56 10 37 0 105 -26 105 -40 0 -4 9 -10 19 -13 26 -7 62 -79 64 -130 2 -37
5 -42 27 -45 32 -4 55 43 46 92 -6 33 -22 51 -105 115 -72 57 -204 78 -263 43z"/>
<path d="M22375 8321 c-3 -5 -19 -12 -35 -16 -39 -8 -80 -62 -80 -103 0 -39
20 -63 87 -105 56 -34 63 -47 37 -68 -24 -20 -35 -56 -35 -118 -1 -46 3 -58
20 -69 12 -8 21 -25 21 -39 0 -21 4 -24 27 -21 19 2 39 18 66 53 31 41 37 56
33 83 -4 29 -1 36 24 50 23 13 30 24 30 49 0 35 -21 53 -62 53 -65 1 -193 98
-186 142 5 38 37 34 77 -10 49 -56 72 -60 110 -23 49 48 40 75 -39 118 -45 25
-87 36 -95 24z m65 -410 c0 -17 -12 -41 -21 -41 -5 0 -9 11 -9 25 0 16 6 25
15 25 8 0 15 -4 15 -9z"/>
<path d="M21724 8068 c-13 -10 -28 -35 -33 -55 -9 -30 -6 -42 15 -83 22 -42
44 -59 77 -60 12 0 8 24 -13 65 -11 22 -20 45 -20 52 0 20 44 15 73 -7 14 -11
33 -20 42 -20 9 0 24 -13 33 -30 31 -53 92 -47 92 9 0 29 -40 81 -62 81 -9 0
-21 7 -28 15 -7 8 -17 15 -23 15 -6 0 -18 7 -27 15 -26 23 -97 25 -126 3z"/>
<path d="M23675 7981 c-14 -45 58 -91 142 -91 41 0 73 -19 73 -43 0 -7 -27
-30 -60 -51 -38 -25 -60 -47 -60 -58 0 -40 55 -29 93 19 25 31 64 30 99 -4 36
-35 56 -21 39 27 -12 35 -8 50 14 50 16 0 77 31 87 45 12 17 -1 22 -74 28 -66
6 -75 9 -100 38 -26 29 -31 31 -52 20 -27 -15 -73 -8 -128 20 -47 24 -65 24
-73 0z"/>
<path d="M23362 7799 c-30 -55 -29 -79 2 -79 15 0 27 7 31 19 3 11 12 22 20
25 9 3 15 19 15 41 0 30 -3 35 -23 35 -17 0 -29 -11 -45 -41z"/>
<path d="M23245 7802 c-16 -11 -36 -26 -43 -35 -16 -19 -19 -74 -5 -88 16 -16
48 5 63 41 7 16 19 30 27 30 20 0 27 25 13 49 -13 26 -17 26 -55 3z"/>
<path d="M21893 7780 c-31 -39 -29 -61 12 -115 35 -46 38 -65 8 -65 -8 0 -26
-9 -40 -20 -39 -30 -63 -26 -63 10 0 48 -60 92 -98 71 -39 -21 -67 -174 -41
-224 27 -51 46 -48 111 13 29 28 59 50 66 50 7 0 31 9 55 19 63 29 115 43 127
36 13 -8 50 22 50 40 0 7 -20 18 -45 25 -25 7 -45 17 -45 23 0 6 -12 23 -26
38 -27 28 -27 63 0 53 23 -9 28 14 9 46 -22 38 -51 38 -80 0z m-128 -270 c-26
-27 -30 -29 -36 -13 -10 29 1 43 34 43 l31 0 -29 -30z"/>
<path d="M22610 7715 c-169 -25 -204 -38 -231 -88 -26 -47 50 -116 145 -132
60 -10 114 18 122 62 4 19 1 46 -5 60 -18 39 -6 46 70 39 l69 -6 0 34 c0 50
-18 53 -170 31z m-64 -96 c22 -18 17 -46 -10 -53 -28 -7 -53 0 -78 22 -14 11
-15 18 -5 34 9 15 19 18 45 14 19 -3 40 -10 48 -17z"/>
<path d="M23930 7659 c-38 -16 -60 -39 -82 -87 -20 -46 -18 -92 5 -92 14 0 60
23 79 39 7 6 24 21 38 34 14 12 44 30 67 41 40 18 44 18 97 1 51 -16 56 -21
62 -52 5 -24 2 -39 -8 -49 -16 -16 -23 -14 -108 31 -59 31 -67 31 -90 -7 -39
-65 -15 -268 31 -268 22 0 24 27 9 111 -6 31 -6 67 -1 84 7 25 13 30 37 29 16
-1 47 -13 68 -28 40 -27 66 -33 66 -16 0 6 6 10 13 10 6 0 18 13 25 28 11 25
9 35 -8 75 -34 77 -98 114 -209 122 -36 3 -77 0 -91 -6z"/>
<path d="M23257 7582 c-26 -29 -21 -67 13 -95 17 -14 30 -28 30 -32 0 -3 -11
-18 -25 -33 -28 -30 -33 -70 -10 -78 9 -4 25 4 40 20 13 14 30 26 37 26 7 1
23 9 36 19 26 22 22 41 -20 89 -21 25 -27 39 -22 59 11 42 -47 61 -79 25z"/>
<path d="M22531 7381 c-21 -16 -23 -24 -18 -57 4 -21 11 -40 17 -42 5 -2 10
-19 10 -39 0 -42 25 -98 53 -118 16 -11 18 -20 13 -51 -13 -65 20 -105 139
-171 47 -27 71 -29 79 -7 9 24 9 23 -36 43 -49 21 -108 69 -108 88 0 7 12 13
26 13 22 0 25 4 22 32 -3 27 -8 33 -38 41 -41 10 -62 31 -78 75 -9 26 -8 35 4
47 9 8 24 15 34 15 23 0 34 26 14 34 -9 3 -29 6 -45 6 -22 0 -30 5 -35 26 -4
14 -2 30 3 35 14 14 81 -9 88 -31 7 -21 39 -27 50 -10 36 58 -132 119 -194 71z"/>
<path d="M23379 7229 c-6 -12 -9 -41 -7 -64 3 -43 3 -44 -43 -65 -26 -11 -77
-44 -114 -73 -152 -118 -176 -127 -225 -77 -43 44 -37 95 8 71 30 -16 45 1 32
35 -13 33 -38 59 -67 68 -29 9 -71 -28 -79 -70 -8 -44 7 -81 57 -136 38 -43
39 -43 105 -43 45 0 69 4 72 13 2 6 9 12 15 12 7 0 26 12 42 26 118 103 183
137 265 138 79 2 89 7 88 48 -1 43 -32 93 -72 118 -42 26 -62 25 -77 -1z"/>
<path d="M24155 7153 c-32 -9 -79 -12 -131 -9 -72 3 -83 2 -98 -16 -17 -19
-16 -21 19 -51 20 -18 53 -47 72 -64 30 -28 73 -44 73 -28 0 16 -48 75 -65 79
-13 4 -16 9 -10 15 13 13 85 2 85 -11 0 -9 11 -24 63 -80 38 -40 60 0 32 58
-9 20 -15 37 -13 39 4 4 30 8 45 6 19 -2 73 -58 73 -76 0 -8 4 -15 10 -15 5 0
12 -11 16 -25 9 -36 31 -52 49 -34 11 12 9 24 -18 80 -18 36 -40 74 -50 84
-10 10 -25 28 -34 41 -18 27 -42 29 -118 7z"/>
<path d="M22072 6981 c-65 -5 -87 -10 -97 -24 -18 -25 -9 -46 24 -53 24 -6 48
-16 146 -60 22 -10 68 -47 103 -82 64 -63 93 -75 100 -38 3 12 -22 42 -74 93
-54 52 -74 77 -65 82 30 19 -7 94 -44 89 -5 -1 -48 -4 -93 -7z"/>
<path d="M22038 6823 c-41 -42 -60 -96 -44 -118 9 -13 20 -16 38 -12 21 6 30
18 43 61 27 87 10 118 -37 69z"/>
<path d="M22729 6782 c-25 -21 -19 -62 9 -62 9 0 27 -8 40 -18 l23 -18 -20
-19 c-31 -27 -26 -56 16 -93 l38 -32 -29 -23 c-41 -33 -27 -47 49 -47 54 0 66
3 75 20 13 24 -6 54 -53 85 -42 28 -45 44 -8 58 45 17 48 37 9 72 -18 16 -32
34 -30 40 8 36 -84 64 -119 37z"/>
<path d="M24135 6691 c-6 -5 -28 -11 -50 -13 -37 -3 -40 -5 -40 -33 0 -30 0
-30 54 -29 59 2 82 -11 108 -61 9 -16 27 -45 41 -63 21 -27 28 -31 38 -20 11
11 11 20 1 50 -7 20 -21 46 -30 56 -20 22 -14 48 13 55 13 3 17 11 13 26 -3
12 -8 23 -12 25 -17 10 -128 15 -136 7z"/>
<path d="M24342 6668 c-13 -17 -1 -46 32 -81 14 -15 26 -32 26 -36 0 -5 7 -14
15 -21 8 -7 24 -33 35 -57 11 -26 25 -43 32 -41 19 7 21 45 4 70 -9 12 -16 28
-16 36 0 19 -76 128 -95 136 -22 8 -21 8 -33 -6z"/>
<path d="M22148 6641 c-12 -17 -48 -31 -120 -46 -23 -4 -28 -11 -28 -34 0 -24
7 -32 40 -48 42 -19 51 -33 22 -33 -23 0 -45 -36 -37 -61 13 -41 125 -16 159
35 14 23 14 27 -10 62 l-26 38 31 28 c33 30 38 47 19 66 -17 17 -35 15 -50 -7z"/>
<path d="M23413 6603 c-25 -17 -30 -52 -12 -86 13 -25 44 -57 56 -57 4 0 19
-12 34 -26 15 -15 38 -32 51 -38 20 -11 23 -18 20 -62 -2 -32 -12 -61 -28 -85
-13 -19 -24 -45 -24 -57 0 -70 86 -155 150 -147 49 6 78 30 86 71 11 61 -4 86
-73 119 -69 33 -75 41 -64 82 8 31 9 31 128 19 82 -8 110 3 119 49 5 27 2 41
-12 56 -16 18 -27 20 -72 15 -30 -3 -57 -8 -62 -11 -4 -3 -26 20 -49 50 -41
55 -73 75 -172 109 -53 19 -49 19 -76 -1z m124 -58 c31 -15 49 -34 71 -72 29
-54 -2 -82 -44 -40 -14 15 -33 29 -43 32 -18 6 -61 64 -61 83 0 17 41 15 77
-3z m271 -156 c2 -11 -8 -20 -27 -27 -24 -9 -38 -7 -68 8 -37 18 -37 18 -13
24 14 3 34 7 45 10 35 7 60 1 63 -15z m-200 -209 c5 -34 22 -54 36 -40 18 18
36 11 36 -15 0 -21 -5 -25 -27 -25 -41 1 -73 30 -80 74 -5 34 -4 38 13 34 11
-2 20 -13 22 -28z"/>
<path d="M24268 6325 c-2 -3 -20 -7 -38 -9 -49 -6 -80 -45 -80 -102 0 -25 4
-50 9 -57 75 -95 174 -158 251 -161 39 -1 92 31 111 67 10 18 8 24 -15 44 -15
13 -30 23 -34 23 -16 0 -32 -17 -34 -36 -2 -10 -11 -30 -20 -43 l-16 -23 -49
28 c-85 49 -121 82 -139 129 -22 58 -10 73 59 77 57 3 68 17 38 47 -21 21 -33
25 -43 16z"/>
<path d="M22748 6309 c-48 -28 -1 -60 75 -52 49 6 64 26 27 38 -11 3 -20 11
-20 16 0 12 -60 11 -82 -2z"/>
<path d="M22130 6243 c-26 -5 -60 -38 -60 -59 0 -35 37 -73 100 -103 75 -36
82 -37 118 -14 37 24 42 32 42 79 0 43 -22 74 -53 74 -9 0 -19 4 -22 10 -3 5
-16 9 -28 8 -12 0 -33 2 -47 4 -14 3 -36 3 -50 1z m73 -67 c0 -10 11 -25 28
-35 40 -22 36 -35 -8 -28 -71 12 -115 93 -46 85 20 -2 28 -8 26 -22z"/>
<path d="M22268 5997 c-32 -12 -61 -63 -57 -97 3 -15 19 -35 46 -52 l42 -28
-16 -37 c-14 -36 -14 -39 12 -89 51 -97 117 -143 209 -144 34 0 106 66 106 98
0 65 -36 68 -75 7 -32 -52 -61 -63 -101 -41 -91 50 -118 115 -69 166 30 31 25
53 -15 70 -38 16 -73 54 -68 77 3 14 13 18 53 18 50 0 66 14 47 41 -11 16 -83
23 -114 11z"/>
<path d="M23722 5854 c-17 -12 -22 -25 -22 -58 0 -39 6 -48 70 -115 39 -40 70
-76 70 -80 0 -4 -17 -13 -37 -21 -69 -24 -86 -75 -29 -85 18 -4 42 -5 52 -4
30 4 116 -12 146 -27 16 -8 28 -11 28 -7 0 5 7 -5 15 -21 8 -15 15 -37 15 -48
0 -11 5 -29 11 -40 19 -35 38 1 29 55 -7 50 -29 77 -82 102 -47 21 -48 35 -5
36 17 0 40 4 50 8 36 14 -10 36 -75 37 -37 0 -63 6 -68 14 -4 7 -13 9 -21 5
-9 -6 -11 -4 -6 8 4 10 0 20 -11 26 -9 5 -26 27 -37 48 -10 21 -27 49 -37 62
-19 25 -23 58 -9 79 12 20 71 -12 71 -38 0 -10 4 -22 10 -25 5 -3 7 -19 4 -34
-7 -31 5 -45 30 -35 11 4 16 19 16 49 0 49 -38 105 -70 105 -10 0 -22 5 -25
10 -9 15 -58 12 -83 -6z"/>
<path d="M22924 5795 c-14 -22 -15 -30 -3 -56 17 -43 57 -89 87 -100 13 -5 26
-18 29 -29 4 -13 18 -22 47 -28 57 -12 122 10 142 49 17 33 20 34 40 14 23
-23 54 -19 54 7 0 48 -142 151 -185 134 -17 -6 -20 -52 -5 -61 16 -10 12 -29
-10 -53 -28 -30 -44 -28 -88 12 l-37 35 17 29 c17 28 17 30 -3 50 -27 30 -65
28 -85 -3z"/>
<path d="M24341 5731 c-9 -17 -7 -35 11 -89 26 -81 30 -86 57 -77 36 11 45 41
21 74 -11 16 -20 34 -20 39 0 17 33 23 68 12 18 -5 40 -6 48 -3 8 3 14 0 14
-6 0 -18 35 -13 53 7 30 33 22 53 -20 51 -21 -2 -79 1 -129 5 -88 8 -93 7
-103 -13z"/>
<path d="M23345 5495 c-22 -8 -74 -14 -115 -15 -71 -1 -110 -14 -110 -37 0
-19 40 -51 57 -47 10 3 27 -2 38 -10 19 -15 18 -17 -33 -68 -47 -46 -53 -56
-48 -82 4 -17 11 -35 16 -40 16 -16 43 6 52 40 4 18 20 36 40 47 35 19 68 77
68 119 0 23 5 27 40 33 42 7 66 34 56 61 -6 16 -8 16 -61 -1z"/>
<path d="M23835 5450 c-10 -17 5 -101 21 -117 8 -8 14 -29 14 -48 0 -33 17
-49 39 -36 11 7 6 41 -27 176 -8 31 -35 45 -47 25z"/>
<path d="M24790 5381 c-8 -5 -51 -17 -95 -25 -44 -9 -87 -19 -97 -22 -23 -7
-31 -35 -14 -52 12 -12 21 -11 71 7 34 13 82 22 120 22 72 1 89 13 79 53 -6
27 -34 34 -64 17z"/>
<path d="M24381 5274 c-10 -24 -8 -29 26 -60 42 -38 46 -40 62 -20 17 21 3 63
-29 86 -37 26 -44 25 -59 -6z"/>
<path d="M22830 5140 c-85 -18 -155 -41 -169 -55 -11 -11 -13 -21 -5 -41 8
-23 30 -38 107 -74 36 -18 34 -39 -8 -80 -42 -40 -43 -49 -10 -80 14 -13 25
-29 25 -37 0 -14 47 -30 57 -19 4 3 1 16 -5 29 -26 54 -20 85 21 100 9 3 22
17 28 31 13 29 1 44 -73 95 -27 18 -48 36 -48 41 0 9 54 30 77 30 18 0 44 25
36 34 -4 3 -1 6 5 6 7 0 12 7 12 15 0 8 -3 14 -7 14 -5 -1 -24 -5 -43 -9z"/>
<path d="M23237 5126 c-28 -22 -39 -74 -26 -124 6 -23 16 -45 20 -48 5 -3 9
-13 9 -24 0 -16 18 -30 40 -30 14 0 21 32 9 46 -6 8 -9 14 -5 14 4 0 0 13 -9
30 -21 41 -19 70 4 70 10 0 24 -7 32 -16 7 -8 29 -24 48 -35 20 -10 48 -29 63
-40 51 -42 76 -1 38 63 -18 30 -35 41 -152 99 -25 13 -50 11 -71 -5z"/>
<path d="M24830 5083 c-41 -8 -90 -16 -109 -19 -26 -4 -31 -8 -20 -15 11 -7
11 -9 -3 -9 -10 0 -18 5 -18 10 0 6 -7 10 -16 10 -22 0 -57 -41 -46 -52 9 -9
272 15 305 28 18 7 31 39 22 54 -7 12 -18 11 -115 -7z"/>
<path d="M23915 5048 c-28 -33 -28 -72 1 -94 7 -6 14 -16 14 -22 0 -6 7 -15
17 -20 15 -9 15 -12 0 -51 -21 -51 -22 -85 -2 -105 8 -8 15 -19 15 -25 0 -10
61 -61 73 -61 10 0 -4 33 -29 67 -27 36 -30 61 -11 88 12 16 23 17 80 11 65
-6 67 -6 67 17 0 13 -4 27 -9 33 -5 5 -6 25 -2 44 11 53 -12 83 -90 119 -37
17 -74 31 -82 31 -8 0 -27 -14 -42 -32z m148 -46 c11 -10 17 -30 17 -59 0 -40
-2 -43 -28 -43 -47 0 -118 109 -79 123 20 7 70 -4 90 -21z"/>
<path d="M24477 4967 c-10 -25 5 -65 26 -71 52 -13 81 50 32 72 -34 16 -52 15
-58 -1z"/>
<path d="M24094 4645 c-4 -8 -3 -31 0 -50 5 -23 3 -35 -4 -35 -6 0 -8 -4 -5
-10 3 -5 2 -10 -4 -10 -5 0 -11 5 -13 12 -6 17 -64 -26 -71 -52 -7 -29 6 -32
57 -15 61 21 86 9 87 -43 1 -58 22 -106 48 -110 19 -3 21 0 15 25 -4 15 -12
31 -18 35 -6 4 -8 8 -4 8 4 0 1 17 -6 38 -14 42 -7 87 14 87 8 0 21 7 28 15
12 13 13 13 8 -2 -7 -23 6 -23 33 1 27 23 18 30 -37 29 -46 0 -82 22 -82 52 0
17 -18 40 -32 40 -5 0 -11 -7 -14 -15z"/>
<path d="M23467 4643 c-13 -13 -7 -43 14 -64 30 -30 17 -62 -24 -56 -40 6 -67
-8 -67 -34 0 -28 26 -34 79 -17 60 19 87 8 101 -41 9 -32 8 -38 -12 -51 -67
-45 -78 -61 -78 -107 0 -37 6 -51 32 -79 28 -29 39 -34 80 -34 37 0 50 4 58
20 16 29 4 40 -43 40 -23 0 -47 4 -53 8 -18 12 -24 41 -14 66 7 18 19 25 54
30 25 4 48 11 51 15 2 5 -5 27 -16 51 -11 23 -23 58 -26 77 -7 39 6 53 49 53
28 0 69 31 49 38 -6 2 -11 12 -11 23 0 16 -5 18 -27 13 -16 -4 -43 -13 -62
-20 -40 -17 -51 -17 -51 -3 0 6 -12 26 -26 45 -25 33 -43 41 -57 27z"/>
<path d="M22856 4614 c-36 -37 -34 -73 7 -110 44 -41 77 -54 102 -40 66 37 77
109 25 158 -31 29 -101 24 -134 -8z m92 -66 c-7 -19 -38 -22 -38 -4 0 10 9 16
21 16 12 0 19 -5 17 -12z"/>
<path d="M22951 4323 c-64 -25 -66 -71 -6 -127 40 -36 45 -45 37 -66 -10 -27
2 -93 21 -116 49 -60 57 -64 116 -64 61 0 86 13 109 56 8 16 8 25 -1 39 -12
15 -16 14 -50 -20 -28 -28 -42 -35 -59 -30 -63 17 -78 36 -78 97 0 21 6 29 25
34 40 10 31 39 -18 58 -59 22 -95 60 -77 81 14 17 50 21 50 5 0 -5 16 -10 35
-10 19 0 35 4 35 9 0 10 -97 61 -113 60 -7 0 -18 -3 -26 -6z"/>
<path d="M23602 4071 c-40 -7 -73 -52 -57 -77 10 -15 63 -39 114 -51 42 -10
71 -43 71 -80 0 -30 3 -34 22 -31 14 2 26 14 32 31 16 44 -14 88 -80 120 -51
26 -70 47 -40 47 14 0 30 29 21 38 -3 3 -5 2 -5 -1 0 -4 -10 -3 -22 1 -13 5
-38 6 -56 3z"/>
<path d="M24123 4010 c-34 -14 -29 -46 8 -59 18 -6 43 -11 55 -11 13 0 24 -4
24 -9 0 -5 15 -13 32 -17 18 -3 46 -12 63 -19 16 -7 49 -21 73 -31 40 -16 51
-28 35 -37 -5 -3 -55 -8 -113 -11 -107 -6 -139 -19 -127 -49 6 -15 61 -47 81
-47 12 0 114 -41 134 -53 21 -14 13 -22 -35 -36 -107 -31 -132 -61 -93 -113
13 -18 18 -33 13 -37 -6 -3 -13 -18 -17 -33 -8 -36 49 -175 92 -224 18 -20 32
-39 32 -42 0 -4 13 -19 29 -34 35 -34 105 -48 114 -24 5 12 0 16 -19 16 -14 0
-34 4 -44 10 -23 12 -82 134 -74 154 16 41 214 74 247 41 10 -9 17 -24 17 -34
0 -19 69 -116 76 -108 2 2 -7 37 -21 78 -14 41 -25 84 -25 96 0 12 -8 27 -18
32 -10 5 -19 22 -20 38 -3 39 -45 117 -65 121 -10 2 -21 -7 -29 -23 -10 -22
-8 -33 11 -72 12 -25 18 -50 14 -54 -5 -5 -37 -11 -71 -13 -42 -3 -71 -12 -89
-25 -30 -25 -66 -27 -83 -6 -10 12 -8 16 14 25 31 12 32 15 5 43 l-20 22 20
17 c25 19 27 38 6 38 -21 0 -30 27 -15 45 7 8 23 15 36 15 13 0 24 5 24 10 0
6 8 10 18 10 23 0 72 22 72 33 0 10 -46 51 -89 79 -41 27 -51 48 -22 48 11 0
23 5 26 10 3 6 17 10 31 10 17 0 28 8 36 26 13 28 9 33 -83 105 -27 22 -32 29
-21 40 18 19 15 46 -6 51 -10 3 -55 5 -99 6 -45 0 -89 2 -99 5 -11 3 -29 2
-41 -3z"/>
<path d="M23718 3751 c-65 -9 -76 -22 -56 -65 12 -24 31 -40 67 -57 28 -12 51
-25 51 -29 0 -3 -13 -16 -29 -27 -38 -29 -43 -55 -16 -89 29 -37 60 -28 50 16
-4 16 -2 30 3 30 14 0 62 44 62 57 0 15 -50 67 -73 76 -23 9 -22 29 3 50 11 9
20 24 20 32 0 16 -7 16 -82 6z"/>
<path d="M23325 3618 c-89 -29 -123 -49 -136 -81 -15 -37 4 -77 37 -77 13 0
25 -4 28 -9 3 -5 42 -14 86 -22 86 -14 104 -25 105 -67 0 -20 5 -27 19 -27 16
0 19 7 19 40 0 76 -16 87 -171 126 -56 13 -50 29 19 52 59 20 74 31 84 65 8
27 -6 27 -90 0z"/>
<path d="M23828 3422 c-36 -37 -3 -174 51 -210 22 -15 22 -15 19 24 l-3 39 51
3 c47 3 52 5 57 30 3 15 2 33 -2 39 -12 23 -75 63 -97 63 -13 0 -29 7 -38 15
-18 18 -17 18 -38 -3z"/>
<path d="M23347 3212 c-24 -27 -21 -48 13 -80 27 -26 30 -35 30 -91 0 -58 2
-63 39 -98 62 -61 86 -77 101 -68 6 4 -9 29 -35 58 -53 61 -58 95 -18 127 15
11 32 19 39 16 31 -12 50 68 23 100 -6 7 -34 20 -62 28 -99 27 -112 28 -130 8z
m139 -57 l29 -15 -37 0 c-27 0 -38 4 -38 15 0 19 10 19 46 0z"/>
<path d="M24720 3184 c0 -3 11 -19 25 -35 13 -16 27 -46 30 -67 4 -20 11 -50
17 -65 13 -34 3 -43 -52 -52 -19 -3 -53 -11 -75 -16 -22 -6 -53 -13 -70 -16
-33 -6 -75 -39 -75 -60 0 -20 55 -16 103 7 23 12 77 26 120 32 75 10 79 9 103
-13 13 -12 24 -32 24 -44 0 -11 13 -35 29 -52 15 -17 31 -38 34 -47 7 -16 37
-23 37 -8 0 5 -9 17 -20 27 -11 10 -20 23 -20 30 0 6 -5 16 -12 23 -13 13 -18
30 -22 86 -2 21 -9 42 -15 46 -7 4 -15 26 -18 49 -3 23 -10 44 -14 47 -5 3 -9
29 -9 59 0 41 -4 54 -17 59 -11 4 -22 1 -29 -8 -15 -22 -31 -20 -44 4 -10 19
-30 28 -30 14z"/>
<path d="M23904 3150 c-25 -10 -39 -39 -24 -54 5 -5 10 -20 10 -33 0 -13 5
-23 10 -23 6 0 24 -15 40 -32 22 -25 29 -43 30 -74 0 -55 28 -144 44 -144 20
0 26 23 15 66 -8 38 -12 104 -6 104 18 0 123 24 127 28 3 4 14 12 25 18 10 6
25 25 32 43 13 31 13 32 -19 45 -42 18 -122 10 -144 -15 -16 -17 -44 -16 -44
3 0 9 -34 46 -60 65 -9 6 -24 7 -36 3z m225 -125 c-9 -9 -23 -13 -32 -9 -23 8
-21 17 6 30 29 13 46 -1 26 -21z"/>
<path d="M23590 2830 c-76 -10 -117 -42 -106 -85 8 -32 30 -32 67 -1 34 29
131 46 161 27 24 -15 35 10 20 44 -12 25 -41 28 -142 15z"/>
<path d="M23582 2700 c-12 -10 -22 -26 -22 -35 0 -31 60 -103 128 -154 59 -43
76 -51 113 -51 50 0 89 22 89 49 0 27 -24 32 -71 15 -55 -19 -71 -12 -130 49
-54 57 -60 74 -27 86 14 5 18 10 10 15 -7 4 -10 12 -7 17 4 5 5 9 3 9 -2 0
-17 4 -34 9 -23 6 -35 4 -52 -9z"/>
<path d="M24988 2644 c-4 -3 -39 -7 -80 -9 -178 -8 -274 -32 -254 -63 3 -5 19
-12 36 -16 16 -3 43 -9 60 -12 22 -5 31 -2 36 10 9 24 53 20 64 -6 6 -13 19
-38 30 -55 25 -42 18 -62 -23 -59 -18 2 -36 4 -42 6 -25 7 -45 -2 -65 -30
l-21 -30 28 -11 c21 -8 43 -7 93 5 36 8 81 13 100 10 20 -3 51 -2 70 3 30 8
35 13 35 39 0 27 -2 29 -46 32 -46 3 -48 4 -68 52 -27 63 -27 80 2 80 20 1 77
41 77 55 0 7 -25 7 -32 -1z"/>
<path d="M23825 2409 c-37 -18 -47 -45 -31 -77 18 -35 70 -92 84 -92 18 0 21
-15 12 -55 -6 -28 -5 -46 6 -66 14 -28 60 -79 70 -79 3 0 18 -8 32 -19 15 -10
42 -22 60 -26 34 -7 36 -16 17 -67 -9 -22 39 -59 83 -65 30 -4 50 0 81 17 22
13 38 27 35 32 -3 4 0 8 6 8 6 0 11 12 10 28 -3 48 -1 50 65 57 50 5 72 3 96
-9 43 -21 68 -3 37 27 -31 29 -129 53 -113 27 4 -6 -7 -10 -24 -10 -17 0 -31
5 -31 10 0 6 -7 10 -15 10 -8 0 -15 -4 -15 -9 0 -5 -12 -11 -27 -14 -16 -3
-54 -13 -85 -22 l-57 -18 -56 27 c-31 14 -58 33 -61 41 -4 8 -11 15 -18 15
-12 0 -36 45 -36 67 0 18 31 32 60 26 17 -3 31 2 43 15 25 28 4 42 -78 51 -5
1 -3 7 6 14 9 7 21 22 28 34 15 30 2 51 -58 91 -52 35 -97 45 -126 31z m103
-56 c12 -10 24 -35 28 -55 5 -33 4 -38 -13 -38 -23 0 -64 35 -83 70 -10 18 -9
24 1 31 22 14 45 11 67 -8z"/>
<path d="M24970 2242 l-22 -18 27 -49 c33 -62 53 -87 88 -109 36 -24 38 0 2
34 -28 26 -59 117 -49 143 8 23 -18 22 -46 -1z"/>
<path d="M24475 1758 c-27 -6 -74 -14 -103 -20 -31 -5 -64 -20 -80 -34 -26
-23 -27 -24 -8 -39 28 -21 82 -19 105 4 22 22 97 39 219 50 6 0 12 10 12 22 0
15 -5 19 -15 15 -8 -3 -15 -1 -15 4 0 12 -46 11 -115 -2z"/>
<path d="M24463 1577 c-34 -37 -39 -68 -13 -87 19 -15 23 -27 24 -86 1 -58 7
-82 39 -146 20 -42 37 -83 37 -91 0 -8 7 -20 15 -27 13 -11 15 -8 15 19 0 17
-6 42 -14 54 -8 12 -20 52 -27 90 -17 90 -8 98 64 57 74 -41 140 -46 168 -11
24 30 24 55 -1 97 -42 67 -157 101 -223 65 -14 -8 -32 -11 -40 -8 -17 6 -28
62 -14 76 5 5 5 11 -1 15 -5 3 -18 -5 -29 -17z m245 -133 c12 -53 7 -79 -15
-82 -12 -2 -30 4 -40 12 -10 8 -33 27 -50 41 -40 33 -42 53 -5 61 15 3 32 7
37 8 20 5 69 -22 73 -40z"/>
<path d="M24578 1113 c7 -3 16 -2 19 1 4 3 -2 6 -13 5 -11 0 -14 -3 -6 -6z"/>
</g>
</svg>
