<?xml version="1.0" standalone="no"?>
<!DOCTYPE svg PUBLIC "-//W3C//DTD SVG 20010904//EN"
 "http://www.w3.org/TR/2001/REC-SVG-20010904/DTD/svg10.dtd">
<svg version="1.0" xmlns="http://www.w3.org/2000/svg"
 width="718.000000pt" height="764.000000pt" viewBox="0 0 718.000000 764.000000"
 preserveAspectRatio="xMidYMid meet">
<metadata>
Created by potrace 1.16, written by Peter Selinger 2001-2019
</metadata>
<g transform="translate(0.000000,764.000000) scale(0.100000,-0.100000)"
fill="#000000" stroke="none">
<path d="M6434 7429 c-11 -6 -26 -26 -33 -45 -16 -43 -33 -43 -75 1 -42 42
-70 40 -54 -5 14 -42 56 -80 89 -80 17 0 39 11 58 31 17 17 35 28 41 24 13 -8
13 -62 0 -70 -5 -3 -10 -17 -10 -31 0 -36 29 -30 46 11 19 45 18 99 -2 141
-17 36 -26 39 -60 23z"/>
<path d="M6460 7174 c0 -25 -2 -25 -42 -19 -24 4 -47 11 -52 16 -17 16 -41 10
-55 -13 -12 -19 -12 -23 3 -33 10 -5 32 -20 49 -32 l31 -23 -39 3 c-21 1 -39
-2 -41 -8 -4 -11 58 -45 82 -45 8 0 23 -5 33 -12 38 -23 70 34 36 62 -22 19
-18 30 15 41 34 12 46 39 30 69 -16 30 -50 26 -50 -6z"/>
<path d="M6380 6974 c0 -3 5 -25 11 -50 15 -57 3 -73 -35 -49 -20 13 -37 16
-70 11 -62 -10 -69 -34 -25 -89 18 -23 37 -44 42 -46 5 -2 24 -16 42 -32 49
-44 85 -60 107 -48 29 15 19 89 -16 111 -7 5 -6 18 3 43 11 33 10 43 -9 96
-13 33 -29 59 -36 59 -8 0 -14 -3 -14 -6z"/>
<path d="M6090 6667 c0 -15 61 -47 90 -47 11 0 28 -4 38 -10 51 -28 201 -80
215 -74 18 7 23 49 8 59 -5 3 -33 7 -63 9 -29 2 -73 13 -98 25 -96 44 -190 63
-190 38z"/>
<path d="M5640 6555 c0 -38 -3 -45 -19 -45 -11 0 -23 -4 -26 -10 -3 -5 1 -10
9 -10 21 0 31 -19 31 -65 0 -33 3 -40 20 -40 15 0 21 8 25 34 4 28 11 36 35
43 17 4 34 3 39 -2 16 -16 40 -11 54 11 7 12 11 23 8 26 -2 3 -29 6 -59 8 -30
1 -60 5 -66 9 -6 4 -11 25 -11 47 0 32 -3 39 -20 39 -17 0 -20 -7 -20 -45z"/>
<path d="M5063 6526 c-9 -11 -8 -25 3 -65 20 -68 51 -78 98 -32 43 42 60 41
52 -3 -7 -37 2 -50 28 -40 10 4 16 18 16 39 0 52 -15 82 -47 90 -24 6 -32 2
-54 -24 -30 -37 -45 -39 -52 -8 -4 12 -12 30 -19 39 -11 14 -15 14 -25 4z"/>
<path d="M6168 6455 c-16 -9 -28 -23 -28 -31 0 -20 31 -74 43 -74 4 0 37 -18
73 -39 42 -26 61 -42 53 -47 -24 -15 25 -23 143 -23 107 -1 118 1 128 19 13
24 4 26 -129 35 -52 3 -106 12 -120 19 -14 7 -43 21 -65 32 -63 30 -85 84 -35
84 17 0 74 -24 88 -36 3 -2 -4 -11 -15 -18 -19 -15 -19 -15 1 -30 27 -20 39
-20 60 3 16 19 16 21 -4 49 -39 55 -142 85 -193 57z"/>
<path d="M5754 6288 c-5 -7 -7 -22 -6 -34 5 -35 -22 -49 -68 -34 -45 15 -75 7
-66 -16 4 -9 1 -23 -5 -30 -18 -21 7 -68 59 -114 51 -46 60 -48 90 -20 27 25
27 35 2 82 l-20 37 25 27 c14 15 28 39 32 52 10 39 -25 79 -43 50z"/>
<path d="M5023 6283 c-19 -7 -16 -60 3 -67 26 -10 11 -38 -31 -60 -54 -28 -61
-67 -15 -86 21 -9 27 -15 19 -21 -16 -10 1 -31 55 -71 65 -47 137 -32 122 26
-8 34 -49 76 -73 76 -12 0 -35 6 -53 13 -30 13 -31 15 -14 32 14 14 28 16 65
12 33 -4 51 -2 59 8 8 10 2 19 -32 42 -48 32 -62 63 -29 63 12 0 30 -5 40 -12
25 -15 51 -4 44 20 -3 13 -17 22 -41 26 -43 7 -102 7 -119 -1z"/>
<path d="M4461 6115 c-13 -22 -28 -35 -41 -35 -12 0 -25 -10 -32 -25 -9 -21
-8 -32 8 -63 10 -20 20 -41 22 -45 2 -5 -4 -8 -14 -7 -62 7 -68 -7 -24 -57 32
-36 40 -73 16 -73 -8 0 -18 5 -21 10 -9 14 -52 12 -58 -2 -2 -7 15 -31 38 -54
23 -22 44 -52 47 -67 7 -34 -11 -26 -40 18 -19 30 -25 34 -42 25 -23 -13 -18
-29 33 -93 39 -50 73 -64 98 -41 22 20 23 45 5 97 -12 33 -12 42 1 68 10 19
13 42 9 64 -5 23 -2 38 9 48 20 21 19 29 -10 86 -26 48 -25 81 1 81 17 0 34
31 34 64 0 39 -16 39 -39 1z"/>
<path d="M4926 5798 c-3 -13 -6 -37 -6 -54 0 -39 -20 -57 -53 -48 -14 3 -31 3
-37 -1 -16 -10 17 -45 42 -45 10 0 18 -7 18 -15 0 -20 30 -19 59 1 16 12 36
15 67 11 32 -3 49 0 60 10 25 26 10 38 -47 38 l-54 0 1 63 c1 58 -1 62 -21 62
-15 0 -25 -8 -29 -22z"/>
<path d="M5504 5760 c-25 -10 -33 -43 -22 -86 8 -32 78 -104 100 -104 7 0 22
-12 34 -27 21 -27 23 -27 41 -10 11 9 25 17 31 17 7 0 25 18 41 40 25 34 28
46 24 87 -6 52 -26 84 -43 67 -6 -6 -6 -22 2 -47 13 -42 -1 -87 -26 -87 -13 0
-36 54 -36 86 0 7 -13 26 -29 43 -30 32 -71 40 -117 21z"/>
<path d="M6386 5713 c-3 -10 -2 -34 3 -53 9 -39 1 -69 -22 -88 -17 -14 -21
-10 -30 28 -7 26 -46 50 -83 50 -50 0 -63 -66 -21 -107 29 -30 113 -48 136
-30 7 6 23 16 34 22 14 6 24 25 29 50 14 69 -28 185 -46 128z"/>
<path d="M4237 5509 c-54 -31 43 -189 116 -189 9 0 27 10 38 21 19 19 21 30
16 81 -5 55 -19 88 -38 88 -4 0 -6 -29 -2 -64 4 -46 2 -65 -7 -71 -18 -11 -78
61 -86 102 -7 39 -14 45 -37 32z"/>
<path d="M4941 5484 c-68 -57 -23 -125 114 -172 78 -26 201 -25 222 3 20 29 3
37 -87 41 -46 3 -90 9 -99 13 -9 5 -34 12 -56 16 -47 8 -65 21 -65 45 0 25 30
34 45 14 8 -12 20 -15 38 -10 34 8 35 38 2 60 -36 24 -79 20 -114 -10z"/>
<path d="M4934 5253 c-34 -7 -48 -89 -19 -113 8 -7 15 -21 15 -31 0 -10 19
-39 43 -64 45 -47 89 -59 115 -33 21 21 13 90 -18 151 -43 86 -69 103 -136 90z"/>
<path d="M3600 5225 c0 -26 -2 -26 -55 -24 -30 1 -58 0 -61 -4 -4 -3 19 -17
50 -31 55 -24 56 -26 56 -66 0 -22 -7 -51 -16 -64 -11 -19 -12 -26 -3 -32 18
-11 58 44 65 89 5 28 11 36 23 33 55 -15 104 -17 112 -5 5 8 9 17 9 20 0 11
-54 29 -86 27 -41 -1 -52 7 -62 44 -10 40 -32 49 -32 13z"/>
<path d="M2930 5071 c0 -30 -10 -31 -88 -11 -70 19 -74 19 -105 1 -48 -27 -46
-46 9 -81 53 -33 95 -38 142 -15 29 15 32 15 56 -6 28 -25 35 -59 11 -59 -8 0
-30 8 -50 17 -50 24 -56 7 -11 -33 90 -78 174 -1 96 87 -23 27 -29 40 -24 62
6 27 -9 57 -27 57 -5 0 -9 -9 -9 -19z"/>
<path d="M5508 5079 c-31 -17 -21 -51 30 -100 43 -43 52 -47 109 -52 48 -4 65
-2 75 10 10 12 9 18 -7 29 -10 8 -29 14 -42 14 -27 0 -79 21 -107 44 -17 14
-17 16 -2 31 9 9 14 21 11 26 -8 12 -45 11 -67 -2z"/>
<path d="M4172 5043 c12 -45 46 -93 73 -103 24 -9 72 16 81 43 10 32 39 15 42
-26 3 -32 0 -38 -22 -47 -37 -14 -34 -40 4 -40 35 0 56 27 65 85 14 83 -65
127 -114 65 -13 -17 -27 -30 -32 -30 -5 0 -22 20 -37 45 -19 31 -34 45 -49 45
-20 0 -21 -3 -11 -37z"/>
<path d="M6249 5033 c-25 -6 -42 -48 -36 -87 6 -35 5 -36 -27 -36 -19 0 -50 7
-69 15 -20 8 -43 15 -52 15 -21 0 -19 -29 3 -36 9 -3 26 -9 37 -14 47 -19 129
-40 155 -40 38 0 96 26 104 45 27 72 -43 156 -115 138z"/>
<path d="M3710 4951 c0 -6 5 -13 10 -16 22 -14 -4 -25 -59 -25 -32 0 -65 -6
-76 -14 -17 -12 -17 -17 -5 -45 7 -17 26 -41 41 -52 30 -21 40 -45 16 -36 -24
9 -40 -8 -22 -23 23 -19 105 -32 122 -19 22 19 15 33 -42 73 -77 56 -81 79
-12 76 65 -4 76 -1 83 24 8 31 -11 66 -36 66 -11 0 -20 -4 -20 -9z"/>
<path d="M4331 4828 c-7 -20 -16 -23 -62 -23 -67 0 -72 -15 -24 -69 42 -47 43
-56 9 -56 -21 0 -58 -13 -73 -26 -2 -2 8 -13 23 -25 14 -11 31 -30 37 -41 10
-19 9 -20 -11 -15 -14 3 -29 0 -37 -9 -18 -18 -21 -15 40 -44 48 -24 87 -71
87 -105 0 -15 -6 -17 -50 -11 -39 5 -57 3 -80 -11 -17 -9 -30 -21 -30 -26 0
-27 56 -89 110 -123 22 -13 25 -23 28 -78 2 -46 -2 -67 -12 -76 -20 -16 -38
-3 -31 21 8 24 -48 140 -75 157 -20 12 -44 5 -75 -23 -16 -14 -25 -54 -14 -61
5 -3 9 -15 9 -27 0 -33 75 -105 116 -113 56 -10 98 2 118 36 15 27 16 37 5 85
-11 49 -10 57 6 75 17 19 17 22 1 62 -16 42 -16 43 4 60 27 22 28 46 5 98 -18
40 -18 43 -2 55 15 10 16 17 7 37 -7 13 -23 32 -38 40 l-26 16 24 10 c14 6 33
13 43 16 27 9 20 26 -28 72 l-46 43 38 6 c57 10 63 13 63 33 0 19 -31 62 -44
62 -4 0 -10 -10 -15 -22z"/>
<path d="M5472 4829 c-18 -7 -23 -15 -20 -36 2 -21 13 -33 45 -49 l43 -22 -30
-12 c-30 -12 -41 -39 -17 -41 58 -5 97 -2 122 12 52 27 42 40 -72 92 -12 5
-23 21 -25 35 -3 29 -14 34 -46 21z"/>
<path d="M2721 4816 c-16 -20 -7 -80 18 -116 10 -14 21 -33 24 -42 10 -29 91
-25 122 7 28 27 30 37 15 66 -15 26 -30 24 -30 -5 0 -14 -4 -27 -9 -31 -14 -8
-30 14 -54 75 -18 45 -27 56 -48 58 -14 2 -31 -4 -38 -12z"/>
<path d="M3465 4674 c-23 -25 -24 -37 -3 -80 23 -48 144 -91 201 -71 38 14 47
24 47 55 0 15 -6 22 -20 22 -14 0 -20 -7 -20 -21 0 -15 -5 -20 -21 -17 -16 2
-22 11 -24 34 -4 47 -34 81 -82 93 -54 14 -50 15 -78 -15z"/>
<path d="M6310 4620 c0 -27 -34 -44 -61 -30 -23 13 -49 7 -49 -11 0 -6 16 -29
36 -51 22 -25 34 -47 32 -61 -5 -37 -35 -31 -83 16 -36 36 -45 52 -45 79 0 42
-7 50 -31 37 -38 -20 -16 -101 42 -156 50 -47 101 -66 136 -51 47 21 55 50 28
102 -20 38 -19 45 10 68 27 21 32 47 13 66 -18 18 -28 15 -28 -8z"/>
<path d="M5554 4554 c-16 -38 -13 -37 -81 -18 -46 13 -113 -83 -85 -121 11
-16 85 -71 105 -78 23 -9 74 20 80 45 6 23 -2 58 -14 58 -5 0 -9 11 -9 25 0
15 6 25 14 25 14 0 36 49 36 81 0 32 -30 21 -46 -17z"/>
<path d="M2715 4542 c-38 -5 -65 -29 -58 -50 6 -17 102 -112 113 -112 4 0 12
-11 18 -24 12 -28 74 -46 156 -46 43 0 61 5 83 24 l27 24 -77 -1 c-46 0 -82 4
-89 11 -7 7 -19 12 -28 12 -27 0 -41 21 -24 37 22 22 17 50 -13 81 -35 34 -69
49 -108 44z"/>
<path d="M4943 4542 c-14 -2 -31 -21 -48 -55 -15 -29 -33 -58 -41 -66 -11 -13
-14 -12 -20 5 -9 23 -34 54 -46 54 -4 0 -8 -17 -8 -38 0 -44 23 -72 59 -72 23
0 81 53 81 74 0 6 9 19 20 29 50 42 57 -39 8 -85 -26 -24 -29 -31 -17 -39 41
-26 66 -5 80 64 18 86 -10 139 -68 129z"/>
<path d="M3492 4468 c-18 -18 -15 -38 14 -87 28 -50 26 -71 -9 -71 -25 0 -47
-17 -47 -37 0 -7 14 -28 31 -48 l31 -35 -21 -19 -21 -18 27 -11 c47 -18 140
-35 158 -29 13 5 14 11 5 27 -6 11 -17 20 -25 20 -8 0 -15 5 -15 10 0 6 -6 10
-13 10 -16 0 -77 62 -77 78 0 15 32 15 65 0 21 -9 29 -9 42 5 15 14 14 18 -13
45 -16 16 -42 48 -58 71 -38 54 -27 69 38 51 66 -18 92 6 36 35 -35 18 -131
20 -148 3z"/>
<path d="M4632 4302 c-18 -24 -19 -31 -7 -57 7 -17 21 -37 31 -46 29 -24 101
-52 118 -46 8 3 26 -5 41 -20 72 -72 134 -93 168 -55 35 39 11 108 -64 181
-29 28 -54 50 -56 47 -2 -2 -32 3 -66 10 -102 22 -142 19 -165 -14z"/>
<path d="M2705 4293 c-86 -21 -69 -152 25 -200 52 -27 112 -30 131 -7 32 38
-3 142 -64 188 -33 25 -51 29 -92 19z"/>
<path d="M6117 4149 c-31 -24 -34 -51 -11 -108 11 -28 24 -43 46 -50 82 -29
138 5 138 83 0 54 -16 68 -41 35 l-18 -24 -9 26 c-20 51 -67 69 -105 38z"/>
<path d="M5285 4025 c-52 -19 -78 -51 -70 -84 7 -30 40 -59 75 -66 14 -3 36
-9 50 -13 14 -4 41 -3 61 2 30 8 41 6 72 -16 24 -16 33 -28 27 -34 -9 -9 6
-62 44 -154 11 -28 -11 -43 -69 -48 -36 -3 -59 -10 -62 -19 -3 -7 13 -41 36
-73 23 -33 39 -64 36 -70 -4 -6 -28 -7 -61 -4 -32 4 -54 3 -54 -3 0 -5 23 -34
50 -64 28 -30 53 -64 56 -77 12 -43 -32 -62 -61 -26 -11 14 -65 8 -65 -8 0
-11 25 -38 37 -38 12 0 79 -72 86 -92 4 -11 1 -18 -6 -18 -17 0 -87 59 -87 73
0 7 -4 18 -9 26 -8 12 -12 11 -27 -4 -16 -15 -16 -20 -3 -43 8 -14 42 -48 77
-75 58 -45 65 -49 89 -38 22 10 25 16 20 46 -3 19 -15 47 -28 64 l-22 29 22
30 c26 37 27 68 1 107 -26 39 -25 63 1 67 36 5 41 41 13 94 -25 46 -25 80 -1
72 6 -3 26 2 42 12 41 23 44 63 9 129 -14 28 -30 54 -35 56 -4 3 -6 12 -2 21
4 11 16 13 53 8 41 -5 50 -3 58 13 14 25 -15 92 -53 125 -15 13 -33 35 -41 51
-11 19 -22 27 -42 27 -16 0 -32 4 -37 9 -19 18 -138 22 -180 6z m140 -28 c42
-11 50 -17 53 -39 5 -37 -52 -62 -126 -55 -60 6 -83 26 -79 67 2 20 9 26 37
31 54 10 62 9 115 -4z"/>
<path d="M4098 4013 c0 -5 -1 -28 -2 -53 l-1 -45 -36 3 c-21 2 -40 -1 -43 -6
-7 -12 31 -38 68 -48 20 -5 27 -14 31 -43 12 -82 20 -106 35 -106 12 0 14 13
12 67 l-2 68 60 -7 c60 -6 60 -6 60 20 0 28 -1 29 -82 28 -42 -1 -58 18 -58
68 0 39 -9 61 -26 61 -8 0 -15 -3 -16 -7z"/>
<path d="M4724 3985 c-24 -36 -4 -85 66 -157 65 -68 75 -69 130 -13 32 33 33
36 21 75 -15 51 -41 54 -41 5 0 -48 -14 -44 -30 8 -15 45 -38 87 -55 99 -5 4
-25 8 -42 8 -24 0 -37 -7 -49 -25z"/>
<path d="M3482 3918 c-21 -21 -13 -56 19 -93 30 -34 31 -37 15 -54 -21 -23
-12 -30 52 -38 72 -8 75 14 11 76 -59 57 -60 77 -2 73 40 -3 71 16 59 36 -9
14 -140 14 -154 0z"/>
<path d="M6120 3867 c-14 -7 -26 -21 -28 -32 -4 -36 40 -99 88 -123 24 -12 48
-31 52 -42 10 -28 44 -26 52 3 3 13 15 34 26 47 20 23 21 66 2 79 -5 3 -11 14
-15 24 -10 26 -27 21 -27 -8 0 -32 -13 -32 -34 0 -15 23 -71 65 -86 65 -3 0
-16 -6 -30 -13z"/>
<path d="M2580 3755 c-38 -71 101 -177 206 -157 17 3 31 16 42 39 16 33 15 36
-3 71 -24 43 -52 58 -40 21 4 -13 8 -37 9 -54 1 -24 -3 -31 -22 -33 -46 -7
-142 51 -142 85 0 22 25 14 55 -17 28 -30 58 -39 70 -21 7 13 -43 64 -78 79
-47 20 -82 15 -97 -13z"/>
<path d="M4873 3680 c6 -54 0 -61 -27 -31 -26 28 -82 36 -113 16 -38 -25 -26
-75 29 -131 53 -53 78 -55 125 -9 l36 35 -7 66 c-7 70 -19 104 -38 104 -7 0
-9 -17 -5 -50z"/>
<path d="M2571 3551 c-19 -5 -21 -8 -10 -17 8 -6 32 -18 54 -25 48 -16 105
-56 105 -74 0 -17 -31 -28 -44 -15 -12 12 -56 14 -56 3 1 -20 39 -51 70 -56
28 -6 41 -2 64 17 28 21 29 25 17 52 -15 37 -106 109 -146 117 -17 3 -41 2
-54 -2z"/>
<path d="M3351 3441 c-29 -8 -42 -39 -28 -65 17 -34 86 -87 116 -91 9 -1 29
-7 44 -13 56 -24 140 20 123 64 -8 21 -24 17 -28 -8 -2 -17 -11 -24 -31 -26
-35 -4 -62 15 -47 33 8 9 -1 25 -33 59 -24 25 -49 46 -55 46 -6 0 -16 2 -24 4
-7 2 -24 1 -37 -3z"/>
<path d="M6800 3393 c0 -36 28 -97 52 -112 27 -17 54 -5 82 36 22 32 25 34 34
16 7 -12 8 -34 2 -58 -11 -47 -8 -52 28 -39 24 9 27 15 26 51 -2 114 -75 158
-119 72 -19 -36 -36 -34 -50 7 -14 41 -24 54 -41 54 -9 0 -14 -10 -14 -27z"/>
<path d="M2050 3379 c-19 -10 -44 -18 -55 -19 -41 0 -57 -40 -33 -80 13 -21 7
-32 -20 -35 -69 -8 -99 -46 -81 -105 10 -32 10 -45 0 -64 -18 -33 -7 -57 40
-96 47 -37 107 -50 145 -30 30 16 30 23 1 83 -29 59 -83 111 -117 111 -18 1
-25 6 -25 21 0 22 4 22 153 13 58 -4 75 -1 87 12 21 23 19 27 -15 45 -16 8
-36 28 -44 43 -14 26 -13 28 21 60 20 17 39 32 44 32 5 0 9 4 9 9 0 5 -8 7
-19 4 -10 -3 -22 0 -25 6 -9 15 -24 12 -66 -10z"/>
<path d="M4734 3365 c-16 -7 -37 -21 -46 -31 -16 -18 -15 -22 14 -69 17 -28
39 -56 50 -63 25 -18 23 -31 -7 -42 -41 -16 -29 -27 35 -33 34 -4 69 -11 78
-16 9 -4 23 -6 30 -4 23 9 12 32 -30 65 -77 61 -119 109 -116 132 3 18 8 21
43 18 22 -2 45 -8 52 -13 15 -13 65 -8 70 8 7 19 -35 51 -62 45 -13 -2 -37 0
-53 6 -20 7 -37 6 -58 -3z"/>
<path d="M2574 3352 c-12 -2 -32 -14 -44 -27 -21 -23 -22 -28 -11 -64 11 -39
60 -91 86 -91 21 0 44 -44 33 -63 -9 -16 -11 -16 -36 2 -26 18 -82 35 -112 34
-48 -1 -60 -5 -70 -22 -5 -11 -8 -26 -5 -33 6 -16 59 -50 90 -59 13 -3 20 -14
21 -30 1 -13 2 -32 3 -42 2 -26 89 -107 138 -129 39 -17 45 -18 73 -3 55 28
50 79 -17 176 -18 27 -33 58 -33 70 0 13 -7 30 -16 40 -15 16 -14 19 13 33 34
17 53 53 53 102 0 34 -1 35 -33 29 -28 -6 -35 -3 -47 20 -19 35 -59 62 -86 57z
m105 -364 c53 -52 70 -88 53 -116 -21 -33 -152 57 -152 104 0 19 32 54 50 54
3 0 25 -19 49 -42z"/>
<path d="M6129 3293 c-8 -9 -9 -17 -3 -21 16 -12 64 -73 64 -83 0 -16 -14 -10
-54 26 -63 56 -93 38 -40 -25 69 -81 173 -80 145 2 -6 17 -8 35 -4 39 5 4 44
1 88 -6 44 -8 92 -15 108 -15 17 0 27 -5 27 -15 0 -20 -56 -47 -97 -47 -37 0
-56 -24 -32 -39 29 -18 145 33 173 76 34 52 23 59 -109 67 -65 5 -123 12 -129
18 -5 5 -20 10 -33 10 -13 0 -39 6 -58 14 -30 13 -35 13 -46 -1z"/>
<path d="M3357 3253 c-15 -15 -4 -37 45 -89 28 -30 48 -57 44 -61 -4 -4 -25
-7 -46 -6 -45 2 -62 -14 -35 -34 19 -13 91 -18 119 -7 24 9 19 53 -11 93 -15
20 -30 38 -33 41 -3 3 -16 20 -29 38 -21 31 -40 40 -54 25z"/>
<path d="M4060 3143 c-19 -15 -30 -34 -30 -50 0 -42 35 -93 64 -93 8 0 18 -4
21 -10 3 -5 27 -10 52 -10 37 0 50 5 74 31 38 41 66 139 39 139 -5 0 -10 -11
-10 -24 0 -41 -20 -82 -49 -99 -31 -18 -61 -22 -61 -8 0 5 -10 11 -23 15 -12
3 -30 19 -40 35 -15 25 -16 35 -6 52 l11 22 20 -24 c10 -13 23 -34 28 -46 12
-29 23 -29 39 0 11 21 9 27 -17 57 -39 42 -74 46 -112 13z"/>
<path d="M6843 3133 c-46 -9 -28 -93 31 -142 23 -19 20 -36 -10 -51 -14 -8
-34 -26 -45 -41 l-19 -27 40 -6 c22 -3 58 -9 80 -12 33 -5 46 -13 66 -44 37
-55 13 -82 -35 -41 -27 24 -80 46 -88 37 -13 -12 34 -61 81 -85 39 -20 51 -22
72 -12 34 15 45 49 27 85 -19 37 -68 79 -105 89 -15 4 -28 14 -28 22 0 18 37
30 54 16 15 -12 58 -3 53 12 -2 6 -12 15 -23 21 -10 6 -21 14 -24 17 -3 3 -19
13 -36 22 -35 18 -64 57 -64 87 0 26 30 26 85 1 22 -10 46 -16 53 -14 13 5 17
49 5 56 -13 7 -146 15 -170 10z"/>
<path d="M6196 3061 c-4 -5 -1 -22 4 -37 25 -64 -16 -100 -73 -67 -33 20 -57
20 -57 1 0 -6 21 -29 46 -51 26 -23 53 -56 60 -74 18 -41 17 -43 -2 -43 -23 0
-94 74 -94 98 0 27 -28 44 -52 31 -30 -16 -21 -34 45 -99 79 -78 107 -94 142
-78 31 14 33 45 5 106 -20 44 -20 44 0 69 12 16 20 41 20 64 0 63 -26 110 -44
80z"/>
<path d="M2174 3006 c-18 -29 -14 -39 41 -88 53 -46 101 -55 154 -28 32 16 41
27 47 56 6 35 -10 84 -28 84 -11 0 -10 -17 2 -41 13 -24 -2 -57 -32 -68 -25
-9 -65 7 -73 29 -4 8 -16 30 -28 47 -27 40 -60 43 -83 9z"/>
<path d="M3363 2949 c-20 -6 -37 -20 -47 -41 -22 -44 -21 -50 20 -77 50 -34
99 -33 130 3 32 37 30 53 -12 92 -38 36 -42 37 -91 23z"/>
<path d="M1133 2793 c-8 -3 -13 -25 -13 -59 l0 -54 -45 0 c-45 0 -54 -10 -37
-37 7 -11 35 -20 70 -22 6 -1 12 -10 12 -21 0 -30 30 -37 49 -13 14 17 25 19
72 15 45 -3 57 -1 62 12 8 21 -26 43 -81 52 -49 8 -62 25 -62 83 0 41 -6 51
-27 44z"/>
<path d="M4704 2773 c-18 -52 -30 -73 -44 -73 -20 0 -70 -23 -70 -31 0 -12 32
-20 52 -13 33 10 48 -12 36 -53 -8 -31 -7 -39 8 -50 10 -7 25 -13 33 -13 32
-1 123 -103 114 -127 -3 -8 -22 -13 -44 -13 -40 0 -51 -14 -27 -38 16 -16 66
-15 84 2 7 8 19 16 25 18 8 3 10 16 5 41 -7 37 -63 105 -114 137 -32 21 -42
88 -17 106 13 10 22 11 31 3 21 -17 59 -7 59 16 0 16 -8 20 -50 23 -27 2 -51
5 -53 7 -2 2 -4 17 -4 34 -1 37 -15 51 -24 24z"/>
<path d="M4008 2699 c-39 -22 -5 -80 68 -117 23 -12 44 -30 47 -42 7 -25 22
-26 44 0 10 11 23 20 29 20 16 0 44 44 44 68 0 11 -7 25 -15 32 -16 13 -20 7
-27 -35 -5 -33 -32 -28 -53 10 -33 63 -92 91 -137 64z"/>
<path d="M1794 2655 c-4 -15 2 -40 15 -68 12 -24 21 -48 21 -53 0 -5 9 -24 20
-42 20 -32 20 -32 50 -17 17 9 30 20 30 25 0 13 37 50 50 50 6 0 10 -4 10 -10
0 -5 -6 -10 -14 -10 -23 0 -26 -27 -6 -53 40 -50 110 -36 110 23 0 32 -54 95
-89 103 -26 6 -91 -18 -91 -34 0 -5 -4 -9 -10 -9 -5 0 -10 6 -10 13 0 8 -8 22
-19 31 -10 9 -21 30 -25 47 -7 36 -33 39 -42 4z"/>
<path d="M3225 2650 c-7 -12 21 -56 41 -64 12 -4 54 -84 54 -102 0 -15 -35 2
-66 32 -26 27 -35 43 -31 60 3 19 0 24 -15 24 -11 0 -26 -7 -35 -15 -22 -23
-3 -60 58 -112 58 -50 100 -57 124 -20 15 24 12 82 -6 93 -25 15 4 19 144 19
l152 0 0 -24 c0 -18 -13 -35 -44 -58 -54 -42 -82 -40 -97 5 -24 77 -51 60 -37
-24 7 -41 12 -50 32 -52 13 -2 35 1 47 7 13 6 36 16 52 23 36 16 90 73 98 104
13 50 -9 57 -178 59 -144 1 -156 3 -208 28 -60 29 -76 32 -85 17z"/>
<path d="M5402 2495 c-23 -48 -45 -57 -62 -25 -12 23 -50 27 -50 5 0 -15 33
-50 62 -66 14 -7 27 0 63 36 26 25 47 45 49 45 2 0 9 -18 16 -41 11 -32 11
-45 2 -60 -7 -10 -12 -23 -12 -29 0 -17 46 -11 63 8 16 17 15 23 -8 81 -30 79
-41 91 -74 91 -22 0 -31 -8 -49 -45z"/>
<path d="M1139 2504 c-11 -14 -11 -18 4 -29 9 -7 17 -19 17 -28 0 -9 5 -19 10
-22 6 -3 10 1 10 10 0 14 3 14 29 1 39 -21 58 -70 25 -64 -9 2 -21 -5 -28 -15
-9 -15 -7 -22 13 -38 37 -31 70 -21 89 25 8 21 11 41 6 45 -13 9 -54 69 -54
78 -1 8 -83 53 -99 53 -5 0 -15 -7 -22 -16z"/>
<path d="M4124 2398 c-3 -4 -9 -6 -14 -3 -15 10 -50 -14 -50 -34 0 -10 9 -26
20 -36 34 -31 14 -38 -96 -30 -89 6 -104 5 -104 -8 0 -15 33 -21 213 -42 74
-9 97 21 57 72 -22 28 -18 43 11 43 30 0 25 37 -6 42 -14 3 -28 1 -31 -4z"/>
<path d="M6107 2388 c-15 -12 -13 -16 21 -38 50 -33 102 -87 102 -106 0 -14
-8 -16 -52 -10 -66 9 -60 9 -80 7 -10 0 -18 -7 -18 -15 0 -18 20 -24 90 -27
97 -4 100 -3 100 34 0 17 -9 43 -20 57 -28 35 -25 50 9 50 40 0 61 -9 61 -26
0 -20 35 -88 54 -103 8 -7 31 -16 50 -21 42 -9 81 11 122 65 27 36 27 38 13
78 -18 53 -47 68 -119 62 -183 -15 -272 -17 -283 -6 -14 14 -29 14 -50 -1z
m406 -45 c13 -16 15 -26 7 -55 -12 -42 -26 -55 -60 -58 -43 -4 -49 -1 -74 38
-13 20 -33 47 -45 59 l-21 22 28 3 c100 11 148 9 165 -9z"/>
<path d="M6849 2374 c-8 -10 -14 -31 -14 -48 0 -30 -1 -31 -45 -31 -25 1 -75
5 -112 9 -58 7 -68 6 -68 -7 0 -16 8 -19 133 -39 86 -13 96 -26 57 -75 -26
-34 -25 -43 5 -43 18 0 28 8 35 25 6 14 14 36 20 49 l9 25 65 -18 c54 -15 69
-16 83 -6 14 11 15 15 4 29 -7 8 -20 15 -29 14 -85 -6 -112 11 -116 75 -4 56
-8 63 -27 41z"/>
<path d="M1937 2332 c-9 -10 -20 -33 -23 -50 -6 -28 -4 -32 15 -32 26 0 26 -7
4 -33 -17 -18 -17 -20 -1 -31 25 -18 32 -60 14 -75 -39 -33 -116 38 -116 107
0 26 -4 33 -17 30 -11 -2 -20 -16 -24 -33 -5 -31 7 -85 21 -85 4 0 13 -14 20
-31 14 -34 82 -82 108 -77 9 2 27 19 40 38 22 32 23 42 18 108 -5 67 -4 74 13
79 15 4 19 13 17 41 -1 21 -5 43 -9 50 -12 18 -62 15 -80 -6z"/>
<path d="M5306 2295 c-17 -16 -26 -32 -22 -41 3 -9 9 -27 12 -40 3 -13 10 -24
14 -24 5 0 11 -9 15 -19 3 -11 14 -22 23 -26 9 -3 27 -21 39 -40 25 -37 29
-37 90 0 34 21 43 40 43 91 0 35 -26 66 -35 42 -3 -7 -5 -23 -4 -33 4 -38 -1
-55 -16 -55 -8 0 -15 7 -15 15 0 8 -4 23 -9 33 -5 9 -15 31 -21 48 -15 41 -46
74 -69 74 -10 0 -30 -11 -45 -25z"/>
<path d="M1161 2254 c-27 -34 -27 -85 -1 -109 26 -23 25 -31 -5 -67 -14 -17
-25 -42 -25 -59 0 -16 -5 -29 -10 -29 -6 0 -40 14 -77 30 -36 17 -72 30 -79
30 -25 0 -23 -18 6 -46 16 -16 30 -34 30 -41 0 -6 24 -17 53 -24 28 -6 61 -18
72 -24 26 -16 130 -27 173 -19 48 10 61 42 37 94 -10 21 -26 47 -36 56 -25 22
-24 46 1 64 21 15 26 53 10 73 -6 7 -20 24 -31 40 -16 21 -75 57 -94 57 -2 0
-13 -12 -24 -26z"/>
<path d="M4672 2264 c-26 -18 -28 -40 -6 -91 18 -44 70 -90 113 -103 24 -7 36
-4 56 12 35 27 33 73 -5 125 -52 71 -109 92 -158 57z"/>
<path d="M2580 2129 c-44 -48 -47 -49 -63 -31 -9 10 -17 29 -17 41 0 14 -5 21
-12 18 -13 -4 -14 -47 -3 -94 6 -24 43 -40 70 -29 8 3 29 26 47 51 30 42 34
44 45 29 18 -25 17 -64 -2 -64 -21 0 -19 -23 4 -37 29 -18 65 29 58 75 -7 40
-43 92 -64 92 -9 0 -37 -23 -63 -51z"/>
<path d="M3913 2150 c-30 -13 -43 -25 -43 -39 0 -17 24 -51 36 -51 11 0 44 42
44 55 0 20 40 19 66 -3 19 -16 54 -76 54 -93 0 -4 -23 -23 -51 -44 l-50 -36
30 -35 c17 -19 31 -39 31 -44 0 -14 -23 -17 -51 -7 -32 13 -62 3 -57 -19 7
-39 138 -54 152 -18 10 26 6 58 -9 78 -16 21 -20 56 -7 56 4 0 18 16 30 35 18
26 22 41 17 65 -9 40 -51 89 -92 106 -42 18 -49 17 -100 -6z"/>
<path d="M6850 2097 c0 -1 16 -47 35 -101 48 -137 36 -144 -66 -38 -72 74
-100 95 -99 75 1 -23 82 -133 98 -133 5 0 12 -7 16 -15 8 -21 66 -55 94 -55
14 0 27 9 34 25 11 25 7 41 -33 130 -9 22 -24 57 -33 78 -8 20 -22 37 -30 37
-9 0 -16 -1 -16 -3z"/>
<path d="M200 2045 c-59 -20 -79 -85 -38 -122 29 -25 92 -43 152 -43 30 0 46
-4 46 -12 1 -33 93 -107 150 -121 29 -7 87 22 97 49 7 20 -12 78 -38 116 -23
32 -25 67 -4 74 19 8 20 44 0 44 -8 0 -22 -10 -31 -23 l-17 -22 -61 29 c-68
33 -202 49 -256 31z"/>
<path d="M3143 1989 c-33 -12 -28 -31 17 -65 39 -29 53 -64 26 -64 -8 0 -17 4
-20 9 -8 12 -66 20 -72 10 -13 -22 60 -59 117 -59 32 0 44 41 24 80 -16 30
-16 35 -2 45 21 15 234 10 264 -6 26 -14 27 -18 13 -53 -9 -25 -86 -84 -95
-74 -3 3 -9 25 -13 49 -5 30 -13 45 -25 47 -15 3 -17 -5 -17 -55 1 -35 6 -66
15 -77 14 -19 15 -19 57 0 52 23 105 73 112 105 12 55 11 65 -9 80 -11 8 -38
20 -60 27 -46 13 -299 14 -332 1z"/>
<path d="M5793 1938 c-15 -7 -23 -20 -23 -38 0 -83 213 -150 367 -115 16 4 26
-3 42 -31 40 -68 19 -105 -50 -85 -76 23 -109 -12 -39 -43 37 -16 96 -73 86
-83 -6 -6 -45 15 -70 38 -23 22 -56 25 -56 6 0 -30 120 -117 161 -117 11 0 27
6 35 14 18 18 4 59 -34 99 l-26 27 27 28 c32 33 35 74 10 127 -16 34 -16 36 5
55 26 24 27 30 8 56 -14 19 -15 19 -36 -3 -26 -29 -30 -29 -82 5 -84 54 -128
68 -218 70 -47 1 -95 -4 -107 -10z m249 -56 c72 -34 94 -55 67 -64 -22 -7
-177 12 -210 26 -42 18 -83 56 -72 66 29 28 123 16 215 -28z"/>
<path d="M1726 1908 c-9 -12 -16 -34 -16 -47 0 -33 33 -99 69 -138 27 -30 34
-32 72 -28 72 9 111 53 124 141 7 47 -5 62 -47 59 -38 -2 -44 -11 -28 -40 10
-18 11 -33 4 -53 -13 -36 -27 -31 -37 14 -11 54 -62 114 -97 114 -18 0 -35 -8
-44 -22z"/>
<path d="M2574 1885 c-5 -38 -10 -45 -29 -45 -14 0 -33 13 -50 36 -31 40 -48
32 -38 -18 11 -55 59 -80 125 -63 24 6 29 3 38 -19 7 -19 17 -26 35 -26 33 0
32 12 -10 104 -40 89 -61 98 -71 31z"/>
<path d="M1176 1861 c-8 -13 3 -38 20 -45 15 -6 19 -42 5 -50 -5 -3 -21 0 -35
8 -22 11 -41 12 -108 7 -18 -2 -29 -43 -19 -76 13 -46 96 -152 129 -163 72
-24 107 26 73 104 -26 57 -26 60 -1 87 24 25 21 54 -13 104 -22 33 -41 41 -51
24z"/>
<path d="M4600 1753 c-50 -18 -41 -76 22 -135 33 -32 47 -38 82 -38 32 0 47 6
62 23 21 24 46 96 38 109 -9 15 -24 -2 -24 -27 0 -33 -40 -78 -62 -70 -14 5
-15 11 -6 29 13 31 -12 80 -52 101 -31 16 -36 17 -60 8z"/>
<path d="M6896 1741 c-4 -5 -2 -21 4 -36 5 -14 10 -42 10 -60 0 -49 -24 -59
-101 -43 -59 12 -62 12 -80 -11 -25 -31 -24 -49 7 -107 39 -74 64 -104 93
-115 22 -9 29 -7 48 16 26 29 24 58 -8 111 -25 41 -24 54 4 54 14 0 31 14 48
38 25 37 25 37 10 100 -14 59 -23 73 -35 53z"/>
<path d="M2465 1670 c-39 -43 -3 -144 61 -175 67 -32 144 0 144 61 0 33 -28
31 -41 -3 -11 -30 -18 -25 -44 37 -11 25 -22 47 -26 50 -3 3 -11 15 -18 28
-15 28 -52 29 -76 2z"/>
<path d="M1493 1670 c-31 -13 -38 -45 -16 -74 35 -48 169 -115 228 -116 14 0
28 -15 45 -47 33 -64 93 -123 124 -123 26 0 76 53 76 80 0 7 -14 35 -31 61
l-31 49 22 34 c17 28 19 39 10 56 -16 30 -46 25 -59 -10 -12 -37 -23 -37 -70
-2 -52 39 -94 61 -148 77 -70 20 -125 25 -150 15z"/>
<path d="M3098 1663 c-26 -29 -22 -47 22 -98 22 -25 40 -50 40 -54 0 -5 -23
-9 -50 -9 -94 0 -105 -41 -30 -110 28 -25 50 -48 50 -52 0 -4 -11 -13 -25 -20
-43 -23 -23 -35 58 -35 102 -1 110 15 32 66 -52 34 -97 79 -92 93 2 6 29 11
63 11 56 0 59 1 62 26 2 19 -9 39 -47 79 -28 30 -51 60 -51 66 0 8 21 12 68
11 64 -2 67 -1 70 22 3 20 1 23 -15 16 -21 -9 -22 -9 -88 0 -42 6 -53 4 -67
-12z"/>
<path d="M203 1614 c-8 -21 12 -33 57 -33 19 0 78 -9 130 -21 152 -34 160 -35
160 -17 0 15 -36 56 -49 57 -84 6 -123 11 -145 20 -45 17 -146 13 -153 -6z"/>
<path d="M6020 1485 c-13 -16 -6 -35 14 -35 32 0 120 -119 102 -137 -3 -4 -29
-6 -56 -4 -60 2 -64 -10 -12 -31 48 -19 101 -5 118 31 10 20 8 29 -19 70 -41
63 -98 121 -118 121 -9 0 -22 -7 -29 -15z"/>
<path d="M394 1337 c-44 -23 -70 -86 -44 -102 6 -4 17 -23 26 -44 17 -44 40
-59 97 -67 57 -8 77 11 77 72 0 48 -16 89 -46 116 -28 24 -87 38 -110 25z"/>
<path d="M5308 1283 c-38 -6 -50 -25 -42 -71 7 -47 10 -51 50 -79 38 -26 50
-29 91 -19 64 15 68 63 9 128 -34 38 -61 48 -108 41z"/>
<path d="M1010 1253 c0 -11 -6 -26 -14 -33 -17 -14 -10 -39 16 -58 23 -17 15
-32 -17 -32 -17 0 -29 -9 -39 -28 -17 -33 -11 -47 47 -102 l42 -39 -23 -21
c-13 -12 -22 -29 -20 -38 3 -14 15 -16 78 -14 41 2 79 8 85 13 6 6 -18 35 -64
78 -41 37 -71 73 -68 78 4 7 21 7 51 0 24 -5 51 -7 60 -4 16 6 22 42 9 49 -13
5 -73 78 -73 88 0 6 8 10 18 10 19 0 52 33 52 51 0 7 -8 9 -22 4 -56 -17 -79
-17 -98 0 -19 17 -20 17 -20 -2z"/>
<path d="M5777 1204 c-8 -8 10 -34 24 -34 5 0 42 -16 83 -35 41 -19 79 -35 84
-35 4 0 18 -9 31 -21 21 -20 21 -22 5 -40 -16 -17 -16 -19 0 -25 10 -4 29 -1
42 7 14 7 36 12 50 11 18 -1 25 4 30 23 3 14 12 25 19 25 8 0 17 9 20 21 9 26
-21 50 -54 42 -14 -3 -26 -1 -31 7 -5 9 -36 14 -93 15 -59 1 -93 7 -110 18
-28 18 -89 31 -100 21z"/>
<path d="M2486 1075 c-24 -24 -31 -100 -12 -130 32 -49 114 -68 138 -31 15 22
7 69 -18 116 -32 59 -76 77 -108 45z"/>
<path d="M400 1067 c0 -9 -12 -28 -27 -42 -22 -21 -35 -25 -62 -21 -19 3 -42
1 -52 -5 -36 -19 -20 -35 46 -48 l65 -13 0 -43 c0 -46 19 -71 46 -61 13 5 16
16 11 51 -2 25 0 48 5 51 5 4 26 -1 47 -10 41 -19 91 -9 91 18 0 21 -17 30
-85 41 -59 10 -60 11 -63 45 -4 36 -22 68 -22 37z"/>
<path d="M4484 1049 c-3 -6 8 -25 25 -43 39 -40 43 -66 6 -42 -45 30 -63 -6
-23 -44 17 -15 33 -20 63 -18 37 3 40 5 45 38 4 24 10 34 20 32 52 -13 190
-16 241 -7 50 9 60 -10 23 -40 -16 -13 -46 -28 -67 -33 -33 -9 -39 -7 -48 10
-21 40 -58 3 -43 -44 7 -24 22 -23 101 9 86 34 133 68 133 98 0 29 -14 32
-140 29 -122 -3 -182 6 -256 41 -59 28 -70 30 -80 14z"/>
<path d="M3925 1013 c-11 -3 -38 -18 -60 -33 -39 -27 -43 -28 -120 -21 -44 5
-84 4 -90 -1 -18 -16 12 -29 86 -35 60 -4 78 -10 97 -29 29 -31 47 -30 76 1
13 14 30 25 38 25 17 0 48 31 48 48 0 12 -40 53 -49 51 -3 -1 -15 -4 -26 -6z"/>
<path d="M1840 983 c-8 -4 -21 -15 -28 -25 -11 -15 -21 -18 -43 -13 -18 4 -36
2 -44 -5 -8 -6 -23 -9 -33 -6 -24 8 -52 -2 -52 -18 0 -7 19 -33 41 -57 23 -24
48 -54 56 -66 14 -21 13 -23 -2 -29 -9 -4 -20 -3 -24 2 -15 22 -92 55 -112 49
-12 -4 -17 -10 -12 -14 6 -3 13 -17 16 -31 5 -19 20 -31 62 -47 62 -26 102
-29 140 -11 29 13 35 57 10 82 -8 8 -19 26 -25 40 -8 23 -7 26 15 32 30 7 45
-1 45 -27 0 -34 27 -74 67 -101 54 -36 95 -42 126 -18 14 11 30 20 35 20 6 0
21 14 33 32 29 40 31 95 4 111 -22 13 -104 34 -173 45 -31 5 -46 13 -55 31
-13 27 -24 32 -47 24z"/>
<path d="M5186 961 c-6 -10 17 -31 56 -50 21 -11 36 -11 72 -2 68 17 85 14 98
-15 10 -22 10 -28 -5 -38 -9 -7 -21 -25 -26 -40 -23 -59 52 -34 79 27 15 34 7
70 -21 96 -22 21 -82 32 -102 19 -17 -11 -95 -10 -102 2 -8 12 -42 13 -49 1z"/>
<path d="M6003 914 c-24 -10 -13 -32 25 -51 38 -20 72 -66 59 -79 -4 -4 -29
-7 -56 -5 -55 2 -89 -21 -49 -34 68 -22 142 -15 158 16 9 15 6 29 -11 64 -35
69 -86 105 -126 89z"/>
<path d="M6498 893 c-8 -10 -13 -42 -13 -84 0 -63 2 -71 31 -100 28 -27 156
-83 167 -73 2 3 31 9 63 14 63 10 101 37 91 65 -8 20 -67 45 -106 45 -34 0
-46 23 -36 70 4 20 2 35 -8 44 -20 21 -25 12 -33 -54 -5 -49 -10 -60 -33 -71
l-26 -12 28 -11 c33 -12 30 -32 -4 -28 -44 5 -67 24 -84 69 -16 42 -16 78 -1
114 10 23 -19 32 -36 12z"/>
<path d="M2391 835 c-37 -40 -11 -97 57 -125 12 -5 27 -21 32 -35 10 -27 62
-55 100 -55 28 0 24 40 -5 55 -12 5 -47 27 -79 48 -63 43 -82 73 -60 98 36 41
-6 54 -45 14z"/>
<path d="M3698 735 c-38 -26 -58 -75 -40 -98 6 -7 12 -27 15 -46 5 -32 23 -51
76 -79 48 -25 111 10 126 70 11 44 -29 115 -83 149 -25 16 -48 29 -52 29 -3 0
-22 -11 -42 -25z"/>
<path d="M190 690 c-13 -8 -13 -13 -2 -31 8 -12 16 -47 19 -78 4 -31 13 -67
22 -80 9 -14 16 -29 16 -35 3 -48 19 -86 36 -86 11 0 19 -4 19 -10 0 -5 12
-13 26 -16 36 -9 49 14 24 41 -10 11 -20 34 -22 50 -3 32 7 35 62 20 14 -4 41
-10 60 -12 51 -8 60 -19 60 -75 0 -39 3 -49 14 -45 8 3 17 -1 20 -9 7 -18 42
-18 49 0 3 7 1 31 -4 52 -6 22 -13 50 -16 64 -3 14 -11 28 -16 32 -6 3 -12 25
-13 48 -2 47 -18 64 -45 47 -13 -8 -17 -18 -12 -36 5 -22 3 -23 -18 -17 -13 3
-55 13 -94 22 -75 17 -105 40 -105 80 0 17 -6 24 -20 24 -13 0 -20 7 -20 19 0
25 -22 42 -40 31z"/>
<path d="M4306 687 c-22 -16 -47 -108 -38 -141 12 -42 51 -77 128 -112 41 -18
74 -39 74 -47 0 -7 5 -18 12 -25 9 -9 16 -8 32 7 14 13 39 21 71 23 38 2 51 7
53 21 3 13 -4 17 -30 18 -70 2 -81 10 -93 69 -7 37 -15 56 -26 58 -22 4 -32
-24 -18 -49 7 -15 7 -24 -2 -35 -22 -27 -65 -14 -121 35 -24 22 -28 32 -28 82
0 37 5 61 14 69 8 6 12 18 9 26 -6 17 -14 18 -37 1z"/>
<path d="M5165 683 c-79 -20 -50 -90 66 -157 44 -25 98 -33 145 -20 24 6 57
64 52 90 -5 29 -27 28 -34 -3 -10 -40 -23 -53 -55 -53 -34 0 -58 23 -66 61 -5
27 -64 91 -81 88 -4 -1 -16 -4 -27 -6z"/>
<path d="M3052 657 c-32 -34 -43 -73 -31 -104 5 -14 8 -32 5 -40 -8 -19 56
-63 91 -63 17 0 44 7 59 15 16 8 25 15 20 15 -6 0 -5 5 2 12 19 19 14 55 -15
101 -30 47 -46 62 -85 76 -21 8 -30 5 -46 -12z"/>
<path d="M5925 660 c-14 -15 -14 -21 -3 -39 7 -12 18 -21 24 -21 7 0 14 -6 17
-14 4 -10 -8 -15 -44 -20 -90 -12 -85 -61 13 -131 54 -39 55 -51 5 -47 -33 2
-67 -12 -55 -23 6 -6 51 -20 172 -52 56 -15 60 -15 72 2 12 16 11 22 -8 42
-12 13 -27 23 -34 23 -7 0 -19 6 -26 13 -7 6 -26 19 -42 27 -30 16 -96 79 -96
93 0 4 27 7 60 5 78 -4 90 8 60 58 l-24 37 28 -7 c36 -9 62 10 44 31 -31 38
-137 52 -163 23z"/>
<path d="M1766 595 c-5 -13 -19 -15 -73 -13 l-67 3 -8 -33 c-7 -24 -5 -38 7
-55 21 -30 20 -33 -29 -57 -34 -16 -46 -28 -51 -51 -4 -16 -13 -29 -22 -29
-12 0 -14 -6 -8 -27 9 -37 10 -37 56 -36 30 2 39 -2 36 -11 -3 -7 -2 -17 1
-23 8 -12 138 -43 182 -43 27 0 31 3 28 22 -2 12 -18 30 -39 42 -55 32 -103
76 -93 86 5 5 23 10 39 12 46 5 45 37 -5 81 -56 51 -53 67 13 68 28 1 57 2 62
4 6 1 16 3 23 3 9 1 12 13 10 35 -2 26 -8 33 -29 35 -17 2 -29 -3 -33 -13z"/>
<path d="M6545 562 c-31 -4 -55 -18 -55 -33 0 -5 14 -24 30 -42 17 -19 30 -41
30 -50 0 -8 20 -33 45 -56 41 -37 50 -42 88 -39 35 3 43 7 51 30 8 22 5 37
-12 70 -41 84 -107 128 -177 120z"/>
<path d="M1160 550 c0 -15 -55 -40 -106 -47 -25 -3 -48 -11 -50 -18 -8 -20 15
-66 48 -96 17 -16 28 -32 26 -35 -6 -5 -47 4 -155 35 -87 25 -93 25 -93 6 0
-8 -17 -22 -37 -30 -47 -20 -33 -36 36 -41 28 -2 68 -7 89 -12 20 -5 55 -10
76 -11 22 -1 43 -4 47 -7 4 -2 27 -7 51 -10 24 -4 51 -10 60 -15 23 -12 55
-11 63 2 9 14 -3 59 -16 59 -5 0 -29 18 -51 40 -23 22 -46 40 -50 40 -4 0 -8
11 -8 24 0 17 8 27 33 36 82 31 103 54 71 77 -21 15 -34 17 -34 3z"/>
<path d="M2265 510 c-41 -45 -26 -82 49 -121 22 -12 51 -32 64 -44 25 -25 97
-38 197 -36 72 2 95 8 95 25 0 9 -28 17 -87 25 -128 16 -155 21 -190 37 -17 8
-34 14 -38 14 -4 0 -20 9 -35 20 -41 29 -31 60 21 60 22 0 39 -4 39 -9 0 -5 9
-11 20 -14 12 -3 20 -14 20 -26 0 -17 6 -21 31 -21 26 0 30 3 27 22 -2 12 -22
37 -46 55 -37 28 -52 33 -96 33 -41 0 -57 -5 -71 -20z"/>
<path d="M5084 512 c-18 -2 -40 -12 -50 -23 -15 -17 -16 -22 -3 -47 7 -15 26
-37 41 -50 15 -13 28 -32 28 -43 0 -14 7 -19 28 -19 15 0 45 -9 67 -20 50 -26
85 -26 85 -2 0 13 -14 25 -42 37 -71 29 -108 49 -108 57 0 5 -7 8 -15 8 -16 0
-35 30 -35 54 0 11 9 16 30 16 19 0 30 5 30 14 0 17 -16 22 -56 18z"/>
<path d="M2820 492 l-23 -19 19 -34 c10 -19 25 -38 32 -42 7 -5 20 -16 30 -26
9 -10 39 -28 65 -41 46 -21 48 -24 45 -58 -2 -29 1 -37 16 -40 10 -2 28 1 40
6 23 12 62 21 119 29 28 4 37 10 37 24 0 20 -9 23 -80 20 -63 -3 -87 22 -70
74 8 23 9 40 3 46 -15 15 -43 -1 -43 -23 0 -11 -5 -28 -10 -38 -10 -19 -12
-18 -56 4 -56 29 -87 71 -72 99 7 15 7 22 -3 28 -20 12 -24 11 -49 -9z"/>
</g>
</svg>
