<?xml version="1.0" standalone="no"?>
<!DOCTYPE svg PUBLIC "-//W3C//DTD SVG 20010904//EN"
 "http://www.w3.org/TR/2001/REC-SVG-20010904/DTD/svg10.dtd">
<svg version="1.0" xmlns="http://www.w3.org/2000/svg"
 width="361.000000pt" height="580.000000pt" viewBox="0 0 361.000000 580.000000"
 preserveAspectRatio="xMidYMid meet">
<metadata>
Created by potrace 1.16, written by Peter Selinger 2001-2019
</metadata>
<g transform="translate(0.000000,580.000000) scale(0.100000,-0.100000)"
fill="#000000" stroke="none">
<path d="M320 5374 c-19 -8 -52 -31 -72 -52 -47 -45 -52 -92 -14 -117 36 -24
76 -24 90 0 6 11 12 22 14 24 1 2 13 -1 26 -8 37 -20 124 11 133 47 9 37 -15
73 -67 100 -52 26 -63 26 -110 6z"/>
<path d="M545 5149 c-4 -6 2 -21 14 -33 25 -26 26 -39 7 -55 -11 -9 -17 -8
-30 4 -24 24 -90 49 -94 36 -2 -6 -12 -11 -22 -11 -26 0 -42 -25 -38 -62 4
-45 52 -69 125 -63 61 5 86 19 109 61 19 36 14 68 -17 107 -21 28 -43 35 -54
16z"/>
<path d="M600 4885 c0 -8 -3 -15 -7 -16 -53 -6 -110 -20 -166 -41 -15 -6 -35
-24 -43 -41 -14 -26 -14 -31 -1 -45 20 -19 106 -33 131 -20 10 5 41 7 70 4
141 -17 159 -18 185 -5 40 20 61 40 61 60 0 27 -53 65 -109 79 -27 6 -55 18
-62 26 -16 19 -59 18 -59 -1z"/>
<path d="M853 4464 c-34 -14 -43 -37 -20 -51 14 -9 47 -5 63 8 6 5 39 12 74
16 77 8 79 -8 4 -47 -32 -16 -50 -32 -52 -46 -4 -27 25 -39 47 -21 9 7 46 31
83 53 69 40 76 50 58 85 -10 17 -22 19 -118 18 -69 0 -119 -6 -139 -15z"/>
<path d="M1382 4188 c-7 -7 -24 -13 -39 -14 -35 -1 -55 -31 -30 -45 9 -6 17
-17 17 -25 0 -11 -9 -13 -42 -7 -24 4 -52 7 -63 7 -26 1 -32 -34 -9 -51 10 -7
15 -16 11 -19 -4 -4 -14 -1 -22 6 -13 11 -19 11 -32 -3 -9 -8 -13 -23 -10 -31
8 -20 66 -56 90 -56 19 0 36 34 34 66 -2 15 4 18 26 16 68 -7 107 38 72 84
-20 26 -19 48 1 40 9 -3 33 -9 55 -12 34 -6 39 -4 39 13 0 34 -73 56 -98 31z"/>
<path d="M1570 3735 c-10 -12 -7 -20 18 -45 33 -33 50 -70 32 -70 -6 0 -27 7
-47 15 -41 17 -67 12 -100 -18 -32 -28 -29 -53 11 -93 36 -36 55 -40 121 -24
86 20 99 91 34 189 -22 33 -44 61 -49 61 -4 0 -13 -7 -20 -15z"/>
<path d="M937 3514 c-3 -3 -1 -17 5 -30 6 -13 9 -26 7 -28 -2 -3 -28 -7 -57
-11 -29 -3 -76 -16 -105 -30 -29 -13 -59 -26 -67 -29 -33 -13 -106 -74 -123
-104 l-19 -32 29 -26 c25 -24 33 -26 83 -20 51 5 152 38 174 57 5 4 20 3 35
-2 15 -6 55 -8 92 -4 54 6 67 4 72 -8 3 -8 -3 -23 -14 -33 -30 -27 -24 -58 14
-72 18 -7 40 -12 47 -12 21 0 59 -41 53 -57 -3 -8 -16 -19 -30 -24 -28 -11
-41 -38 -23 -49 7 -5 34 -11 59 -14 113 -16 160 -65 79 -82 -41 -9 -43 -11
-43 -44 0 -19 1 -41 3 -48 13 -40 187 -79 226 -49 31 23 14 61 -39 86 -44 21
-46 23 -40 55 8 38 -13 64 -77 97 -45 23 -53 35 -50 74 2 26 -4 35 -52 67 -53
37 -54 39 -49 78 4 25 2 40 -5 40 -20 0 -23 39 -6 65 25 38 7 69 -60 99 -43
20 -59 33 -70 61 -14 32 -34 44 -49 29z m-17 -125 c0 -35 -157 -129 -216 -129
-37 0 -58 14 -51 33 6 17 136 85 186 97 52 12 81 12 81 -1z"/>
<path d="M1576 3451 c-6 -9 2 -42 13 -51 3 -3 11 -14 17 -25 6 -11 29 -24 50
-30 21 -5 45 -15 52 -22 12 -11 20 -10 50 8 55 33 57 36 37 59 -16 18 -26 20
-75 14 -52 -6 -58 -4 -76 19 -22 27 -59 43 -68 28z"/>
<path d="M1766 3260 c-36 -32 -47 -60 -24 -60 7 0 24 11 38 25 23 22 31 24 53
16 35 -14 36 -49 2 -85 -32 -34 -32 -56 -1 -56 30 0 86 62 86 95 0 33 -48 84
-86 91 -25 5 -38 0 -68 -26z"/>
<path d="M1854 3059 c-3 -6 3 -24 15 -40 11 -15 21 -34 21 -42 0 -13 -60 -47
-84 -47 -7 0 -26 -12 -41 -26 -23 -21 -25 -28 -14 -35 23 -14 53 -10 105 15
43 21 49 22 52 7 6 -26 19 -34 46 -27 22 5 26 12 26 46 0 37 2 40 40 50 32 9
40 15 40 35 0 32 -26 36 -74 11 l-39 -20 -36 42 c-38 45 -46 49 -57 31z"/>
<path d="M2100 2886 c0 -8 16 -24 35 -36 19 -12 40 -31 46 -43 16 -29 -21 -60
-60 -51 -42 10 -45 10 -49 -10 -9 -43 74 -62 126 -29 60 38 58 77 -4 138 -47
45 -94 60 -94 31z"/>
<path d="M2552 2507 c-13 -17 -27 -37 -30 -43 -11 -16 -78 -64 -90 -64 -7 0
-12 10 -12 23 0 12 -13 34 -29 50 -55 51 -122 28 -137 -47 -10 -57 2 -84 44
-102 29 -12 41 -13 55 -4 11 6 22 9 25 6 3 -3 0 -6 -6 -6 -17 0 -15 -50 3 -56
21 -9 93 53 214 183 36 40 48 72 30 84 -25 16 -44 9 -67 -24z"/>
<path d="M1315 2259 c-28 -22 -62 -52 -76 -67 -15 -15 -39 -36 -55 -47 -16
-11 -44 -34 -64 -51 -19 -17 -52 -38 -72 -48 -24 -11 -38 -24 -38 -35 0 -24
19 -31 83 -32 29 0 45 -3 37 -6 -36 -14 -40 -50 -6 -59 28 -7 81 18 90 41 6
16 -22 50 -59 71 -17 9 -16 12 16 42 19 18 38 32 42 32 5 0 34 26 65 58 70 71
128 104 142 82 5 -8 10 -25 10 -37 0 -34 -30 -103 -45 -103 -17 0 -28 -31 -16
-43 21 -21 56 2 83 55 35 71 40 91 29 121 -29 76 -92 87 -166 26z"/>
<path d="M1685 2188 c-2 -7 -5 -22 -7 -33 -3 -17 -12 -21 -56 -23 -86 -5 -60
-51 30 -54 52 -1 98 16 98 37 0 21 5 19 67 -16 37 -21 58 -28 65 -21 23 23 1
48 -72 84 -78 39 -118 47 -125 26z"/>
<path d="M2540 2186 c0 -8 12 -25 28 -38 33 -29 55 -69 50 -94 -2 -14 -15 -21
-43 -24 -49 -7 -65 -16 -65 -37 0 -9 -8 -22 -17 -29 -17 -12 -17 -15 2 -51 24
-46 78 -75 152 -81 109 -9 139 56 59 129 -38 35 -43 44 -37 67 11 37 -7 76
-59 128 -44 45 -70 56 -70 30z"/>
<path d="M1891 2056 c-7 -8 -10 -23 -7 -34 8 -24 -25 -55 -86 -82 -26 -11 -50
-25 -53 -29 -3 -5 -29 -12 -58 -16 -73 -9 -87 -14 -87 -31 0 -30 45 -38 107
-19 32 10 63 21 68 25 6 5 28 13 50 19 34 9 46 8 81 -10 23 -11 45 -27 48 -36
8 -20 -11 -43 -35 -43 -25 0 -29 -10 -22 -57 5 -35 10 -44 36 -52 16 -6 61
-11 99 -11 62 0 69 2 77 23 9 24 -3 57 -20 57 -21 0 -69 42 -69 60 0 19 -47
72 -91 101 -22 16 -23 17 -6 42 22 34 22 70 -2 91 -16 14 -20 15 -30 2z"/>
<path d="M1350 1851 c0 -5 -25 -22 -56 -37 -31 -15 -58 -34 -61 -41 -8 -20 14
-63 34 -69 10 -3 29 -10 42 -15 22 -9 23 -11 6 -29 -33 -37 3 -81 78 -94 33
-6 37 -10 37 -36 0 -17 3 -30 8 -30 22 0 135 47 140 58 10 27 -27 47 -99 52
-75 5 -90 17 -46 38 15 7 27 20 27 27 0 17 -56 42 -111 51 -56 9 -58 31 -5 55
50 22 62 41 40 64 -17 17 -34 20 -34 6z"/>
<path d="M2151 1587 c-6 -15 -23 -27 -50 -36 -38 -11 -41 -15 -41 -46 0 -37
21 -58 73 -70 35 -9 41 -19 25 -44 -10 -16 -10 -23 0 -33 10 -10 24 -6 68 17
61 33 79 49 69 64 -5 9 -73 33 -100 36 -22 2 -55 17 -55 24 0 5 13 14 30 21
57 24 61 53 8 81 -15 8 -20 5 -27 -14z"/>
<path d="M2860 1566 c0 -8 5 -27 12 -43 6 -15 19 -50 28 -76 16 -44 16 -48 1
-56 -9 -5 -47 -5 -86 0 -77 10 -95 7 -95 -15 0 -27 5 -27 218 -40 12 0 22 -3
22 -6 0 -6 -65 -36 -105 -48 -20 -6 -30 -15 -30 -28 0 -16 7 -19 40 -18 37 1
70 13 168 65 53 27 49 59 -10 77 -31 10 -43 19 -43 33 0 10 -4 19 -8 19 -5 0
-16 17 -26 38 -23 49 -66 112 -77 112 -5 0 -9 -6 -9 -14z"/>
<path d="M1556 1332 c-3 -5 6 -25 20 -46 27 -40 23 -59 -17 -71 -24 -8 -51
-58 -43 -79 9 -24 34 -19 63 12 41 45 60 47 96 12 21 -20 37 -28 48 -24 24 9
21 24 -10 56 -30 31 -22 51 25 63 27 7 42 21 42 41 0 25 -32 22 -80 -6 -55
-33 -52 -34 -102 28 -19 23 -33 28 -42 14z"/>
<path d="M1010 1284 c-7 -21 -23 -37 -48 -48 -117 -51 -181 -116 -151 -152 26
-32 127 -5 181 48 14 14 23 16 43 8 45 -17 109 -12 133 10 24 23 25 25 16 57
-6 22 -66 53 -103 53 -11 0 -28 12 -40 28 l-20 27 -11 -31z"/>
<path d="M2197 1293 c-10 -9 -8 -52 2 -72 6 -10 28 -30 50 -46 28 -19 41 -35
41 -51 0 -32 27 -31 90 3 76 41 64 65 -39 76 -65 8 -104 37 -95 74 5 19 2 23
-18 23 -14 0 -28 -3 -31 -7z"/>
<path d="M2995 1148 c-18 -21 -25 -38 -21 -52 3 -12 6 -27 6 -34 0 -24 63 -52
117 -52 64 0 102 16 110 47 14 58 -61 123 -141 123 -37 0 -48 -5 -71 -32z"/>
<path d="M1754 1134 c3 -9 6 -20 6 -26 0 -7 14 -8 35 -5 42 7 95 -9 95 -29 0
-7 -13 -20 -30 -29 -47 -24 -35 -55 21 -55 26 0 69 43 69 69 0 24 -35 62 -73
79 -15 7 -51 12 -79 12 -42 0 -49 -3 -44 -16z"/>
<path d="M1205 1100 c-4 -6 0 -17 8 -23 40 -33 57 -85 37 -117 -8 -12 -13 -12
-37 6 -15 11 -47 31 -70 44 -35 19 -45 21 -58 10 -22 -18 -19 -66 8 -91 85
-81 191 -79 212 4 18 69 -70 215 -100 167z"/>
<path d="M1875 934 c-9 -15 -20 -44 -23 -66 -4 -33 0 -44 23 -68 17 -18 25
-35 21 -47 -3 -10 1 -31 9 -47 9 -16 13 -31 11 -33 -2 -3 -30 -6 -63 -7 -61
-3 -80 -20 -49 -45 21 -18 144 -3 209 24 13 5 17 2 17 -13 0 -11 16 -32 35
-46 47 -36 45 -60 -5 -82 -22 -10 -40 -24 -40 -31 0 -7 -9 -21 -20 -30 -45
-39 -6 -74 100 -92 25 -5 50 -10 55 -12 6 -2 33 0 61 4 39 6 54 13 63 31 19
34 -1 59 -71 90 -54 25 -58 28 -58 60 0 29 -8 41 -50 77 -27 23 -50 46 -50 50
0 5 13 15 29 24 44 22 61 43 61 74 0 31 -18 50 -72 75 -32 14 -38 22 -38 47 0
76 -116 122 -155 63z"/>
<path d="M3105 917 c-27 -16 -35 -28 -35 -54 0 -29 66 -83 103 -83 35 0 88 22
106 44 46 55 -103 135 -174 93z"/>
<path d="M1300 870 c0 -10 10 -29 23 -42 32 -32 62 -86 54 -95 -7 -6 -59 5
-97 21 -22 9 -43 -8 -36 -31 4 -13 23 -24 58 -32 l51 -14 -30 -12 c-39 -17
-49 -33 -31 -51 13 -13 23 -13 84 4 96 27 144 49 144 65 0 22 -34 47 -63 47
-22 0 -27 5 -27 24 0 16 -19 44 -53 80 -56 59 -77 69 -77 36z"/>
<path d="M2473 832 c-32 -25 -41 -77 -17 -103 30 -33 69 -49 123 -49 73 0 101
16 101 57 0 39 -25 67 -83 94 -52 23 -95 24 -124 1z"/>
<path d="M3164 739 c-3 -6 8 -31 26 -55 28 -40 30 -45 13 -50 -78 -25 -82 -47
-8 -52 33 -2 53 -9 64 -23 21 -26 51 -16 51 16 0 16 10 28 32 39 17 9 36 16
42 16 6 0 19 12 30 26 30 41 7 50 -50 20 -27 -14 -56 -26 -65 -26 -9 0 -39 23
-67 50 -54 54 -57 56 -68 39z"/>
<path d="M800 675 c0 -2 5 -27 11 -55 12 -54 6 -100 -12 -100 -8 0 -7 5 1 15
17 21 -1 40 -64 71 -77 37 -136 27 -136 -23 0 -28 54 -79 105 -98 25 -10 45
-21 45 -25 0 -14 -67 -48 -109 -55 -22 -4 -43 -10 -46 -15 -10 -16 25 -32 57
-26 113 21 115 21 160 -20 24 -21 44 -41 46 -45 2 -4 -23 -20 -54 -35 -58 -30
-74 -48 -57 -65 7 -7 25 -4 54 10 23 12 46 21 50 21 4 0 53 21 108 47 82 38
101 51 101 68 0 34 -9 35 -47 9 -20 -13 -42 -24 -50 -24 -7 0 -21 -5 -31 -11
-14 -9 -26 -3 -68 39 l-50 51 42 20 c23 12 46 21 52 21 6 0 16 10 23 21 13 26
-4 42 -37 34 -17 -4 -20 1 -21 32 -1 35 -50 143 -65 143 -4 0 -8 -2 -8 -5z"/>
<path d="M1502 588 c-15 -15 -16 -54 -2 -63 6 -3 10 -13 10 -22 0 -19 -56 -11
-112 18 -43 22 -64 24 -74 7 -23 -37 173 -117 219 -88 17 10 23 10 34 -6 17
-24 17 -31 -7 -61 -26 -33 -11 -53 40 -53 42 0 100 -18 100 -31 0 -15 -38 -29
-80 -29 -25 0 -63 10 -91 25 -41 20 -51 22 -55 10 -20 -50 39 -85 143 -85 39
0 75 5 78 10 3 6 14 10 24 10 27 0 54 35 46 59 -8 26 -51 57 -92 65 -27 6 -33
13 -39 42 -4 21 -18 44 -38 60 -33 28 -55 60 -56 83 0 17 52 5 63 -15 10 -18
25 -18 44 2 23 22 6 46 -43 61 -52 15 -97 16 -112 1z"/>
<path d="M2755 580 c-22 -4 -56 -14 -75 -22 -47 -17 -114 -83 -107 -103 11
-26 41 -17 81 24 50 51 146 77 186 51 13 -9 10 -15 -17 -39 -18 -15 -33 -33
-33 -40 0 -19 50 -5 76 22 69 70 5 131 -111 107z"/>
</g>
</svg>
