<?xml version="1.0" standalone="no"?>
<!DOCTYPE svg PUBLIC "-//W3C//DTD SVG 20010904//EN"
 "http://www.w3.org/TR/2001/REC-SVG-20010904/DTD/svg10.dtd">
<svg version="1.0" xmlns="http://www.w3.org/2000/svg"
 width="774.000000pt" height="1118.000000pt" viewBox="0 0 774.000000 1118.000000"
 preserveAspectRatio="xMidYMid meet">
<metadata>
Created by potrace 1.16, written by Peter Selinger 2001-2019
</metadata>
<g transform="translate(0.000000,1118.000000) scale(0.100000,-0.100000)"
fill="#000000" stroke="none">
<path d="M6372 11028 c-30 -30 -2 -93 64 -145 29 -23 65 -45 79 -49 16 -4 38
-26 63 -65 20 -32 44 -59 52 -58 26 0 50 25 50 53 0 33 16 66 33 66 16 0 60
78 51 91 -4 7 -21 -5 -43 -30 l-36 -42 -55 64 c-51 60 -139 117 -177 117 -27
0 -11 -21 35 -44 26 -14 60 -34 75 -44 31 -21 69 -76 60 -86 -15 -14 -44 -4
-55 18 -14 31 -33 39 -51 21 -12 -11 -20 -8 -54 23 -41 37 -60 77 -42 88 5 3
9 12 9 20 0 17 -41 19 -58 2z"/>
<path d="M6102 10953 c-36 -13 -30 -86 11 -134 26 -30 82 -25 118 10 16 16 29
37 29 45 0 9 3 16 8 16 12 0 33 40 26 51 -8 14 -34 -9 -34 -30 0 -24 -44 -64
-67 -59 -12 2 -19 14 -21 35 -3 34 -46 74 -70 66z"/>
<path d="M7080 10942 c0 -10 -4 -22 -10 -28 -20 -20 41 -145 79 -159 19 -7 51
28 51 57 0 12 5 18 13 16 6 -3 37 -13 67 -23 59 -18 80 -37 80 -68 0 -48 75
-62 131 -24 42 28 47 52 19 82 -17 18 -35 23 -103 28 -153 11 -162 15 -243 88
-57 51 -84 61 -84 31z"/>
<path d="M6372 10688 c-7 -7 -12 -27 -12 -44 0 -32 -1 -33 -35 -27 -19 3 -35
2 -35 -2 0 -4 28 -34 61 -66 40 -38 70 -59 85 -59 30 0 30 12 -1 75 -39 80
-30 95 29 50 38 -29 63 -25 72 12 7 24 -17 55 -24 33 -6 -16 -32 -12 -60 9
-38 26 -66 33 -80 19z"/>
<path d="M6120 10505 c-37 -44 -29 -139 17 -202 13 -17 23 -41 23 -53 0 -19 4
-21 33 -15 86 19 138 74 141 148 2 52 -18 47 -24 -6 -6 -50 -22 -73 -55 -79
-18 -3 -20 2 -17 44 4 57 -21 145 -45 164 -24 18 -58 17 -73 -1z"/>
<path d="M6762 10197 c-30 -32 -28 -59 8 -94 73 -71 159 5 99 88 -26 37 -75
40 -107 6z"/>
<path d="M5866 10044 c-9 -8 -16 -26 -16 -39 0 -32 31 -95 46 -95 19 0 27 -19
15 -34 -15 -17 23 -52 52 -48 12 1 46 -9 76 -23 57 -28 84 -29 89 -4 2 10 -17
24 -58 43 -71 33 -86 52 -95 121 -5 42 -12 54 -39 73 -38 26 -49 27 -70 6z"/>
<path d="M6590 10045 c0 -4 6 -19 14 -34 15 -27 14 -28 -21 -45 -35 -17 -35
-17 -29 -67 7 -51 24 -99 39 -110 17 -12 55 4 66 27 6 14 11 40 11 59 0 45 16
53 48 22 15 -14 57 -40 95 -57 37 -18 67 -36 67 -41 0 -11 -34 -29 -55 -29
-11 0 -15 5 -12 14 7 18 -20 43 -33 30 -5 -5 -12 -28 -16 -51 l-7 -43 34 0
c46 0 116 30 130 56 13 25 -2 64 -25 64 -53 0 -215 119 -231 168 -8 26 -75 58
-75 37z"/>
<path d="M5570 9676 c-5 -13 -21 -28 -37 -34 -41 -16 -62 -35 -74 -70 -9 -26
-8 -36 8 -59 10 -16 23 -37 29 -48 6 -11 23 -21 37 -23 21 -3 26 2 32 28 4 17
4 53 0 79 -4 29 -3 51 3 55 15 9 52 83 45 90 -14 13 -34 5 -43 -18z"/>
<path d="M5746 9648 c-17 -39 -11 -112 11 -129 21 -18 60 4 68 39 3 17 15 38
25 47 18 16 20 16 49 -1 31 -18 41 -39 41 -86 0 -29 -17 -37 -37 -17 -13 13
-43 5 -43 -10 0 -18 56 -50 78 -44 31 8 48 69 32 117 -6 20 -16 36 -21 36 -5
0 -9 6 -9 14 0 16 -26 39 -48 42 -19 3 -64 -19 -81 -40 -22 -26 -32 -18 -29
20 4 49 -18 56 -36 12z"/>
<path d="M4963 9590 c-27 -11 -38 -47 -24 -82 15 -39 74 -91 144 -128 34 -18
83 -55 109 -82 52 -53 59 -56 83 -32 13 14 15 28 10 79 -6 51 -4 69 14 102 11
22 17 43 14 47 -13 12 -31 5 -36 -14 -9 -35 -34 -34 -67 3 -16 19 -45 42 -63
52 -17 9 -43 23 -57 31 -28 15 -60 19 -60 6 0 -5 26 -21 59 -36 57 -28 121
-78 121 -96 0 -17 -22 -22 -46 -10 -18 10 -30 11 -47 3 -20 -9 -29 -7 -53 13
-16 13 -33 23 -37 24 -17 0 -46 46 -47 73 0 24 9 32 33 28 14 -2 7 17 -9 23
-9 3 -16 6 -17 5 -1 0 -12 -4 -24 -9z"/>
<path d="M5100 9245 c-18 -19 -30 -23 -62 -20 -59 6 -65 -22 -22 -100 40 -73
35 -86 -26 -75 -25 5 -48 6 -52 4 -14 -9 -8 -31 13 -50 12 -10 28 -34 36 -53
13 -31 13 -36 -1 -47 -11 -7 -29 -9 -50 -4 -30 7 -37 4 -56 -22 -19 -26 -20
-33 -10 -58 7 -16 18 -31 26 -34 8 -3 14 -11 14 -19 0 -16 41 -57 58 -57 16 0
26 44 19 84 -4 28 -1 37 20 54 25 20 29 46 20 117 -1 16 5 21 30 23 17 2 34
10 37 19 7 17 -18 92 -42 130 -15 25 -9 45 13 37 20 -8 48 10 67 44 15 24 15
32 5 41 -11 8 -19 5 -37 -14z"/>
<path d="M6393 9233 c-7 -3 -13 -20 -13 -40 0 -39 -25 -133 -47 -176 -17 -34
-60 -36 -55 -2 2 11 4 44 4 72 1 43 -3 57 -22 73 -31 27 -66 25 -85 -4 -14
-21 -15 -34 -6 -83 9 -48 18 -65 51 -95 47 -45 75 -48 116 -10 32 29 56 92 74
196 10 60 6 77 -17 69z"/>
<path d="M5407 9173 c-9 -8 22 -43 38 -43 7 0 18 -6 24 -14 7 -8 27 -18 44
-21 18 -4 46 -15 62 -25 26 -16 55 -24 168 -47 31 -6 57 11 57 38 0 23 -17 34
-34 20 -15 -13 -94 -12 -102 1 -3 4 -12 8 -20 8 -16 0 -80 27 -156 66 -49 25
-70 29 -81 17z"/>
<path d="M5400 8953 c1 -19 81 -63 113 -63 10 0 39 -11 65 -24 63 -32 125 -38
130 -12 9 43 -40 88 -55 50 -6 -17 -45 -12 -91 12 -15 8 -35 14 -44 14 -10 0
-33 9 -53 20 -44 25 -65 25 -65 3z"/>
<path d="M6296 8774 c-3 -8 -1 -24 4 -34 5 -10 7 -26 3 -36 -5 -14 -16 -16
-70 -11 -58 6 -64 5 -78 -17 -14 -21 -14 -28 1 -67 10 -24 23 -53 31 -64 7
-11 13 -30 13 -43 0 -18 -4 -22 -19 -17 -30 9 -68 -11 -75 -40 -5 -21 -11 -25
-24 -19 -9 4 -33 8 -52 8 l-35 1 -3 -52 c-3 -51 -2 -53 23 -53 14 0 28 7 31
15 8 20 24 19 54 -6 14 -11 49 -35 78 -54 28 -19 52 -39 52 -44 0 -5 16 -15
35 -21 20 -7 42 -24 52 -41 10 -16 23 -29 29 -29 20 0 54 56 54 89 0 43 25 40
70 -9 25 -27 45 -40 63 -40 21 0 31 9 47 40 11 22 24 40 28 40 4 0 26 -18 47
-40 36 -37 41 -39 52 -23 26 34 9 103 -19 75 -7 -7 -21 -3 -45 11 l-35 20 -35
-36 c-19 -21 -40 -37 -47 -37 -7 0 -25 16 -40 35 -39 48 -58 52 -95 16 -17
-17 -31 -37 -31 -46 0 -27 -21 -16 -35 19 -16 38 -30 46 -66 39 -48 -9 -130
116 -87 132 16 6 83 -19 93 -35 10 -17 33 -11 40 10 5 15 -5 34 -32 69 -54 67
-88 134 -79 156 5 15 14 17 56 12 27 -3 63 -1 80 4 26 9 35 7 76 -20 45 -31
84 -35 84 -8 0 7 4 18 9 26 7 11 13 11 32 0 37 -19 91 -29 110 -18 10 5 20 22
24 39 7 34 9 34 69 18 38 -10 48 -9 84 10 35 18 42 19 59 7 29 -23 89 -19 107
7 22 32 20 58 -4 58 -11 0 -20 -6 -20 -14 0 -18 -29 -29 -44 -17 -23 18 -90
23 -111 7 -25 -19 -49 -20 -100 -2 -50 18 -71 8 -79 -39 -8 -41 -25 -44 -67
-14 -16 11 -44 23 -62 26 -32 5 -35 3 -40 -26 -6 -27 -10 -30 -25 -22 -26 14
-72 62 -72 76 0 14 -32 45 -47 45 -6 0 -14 -7 -17 -16z"/>
<path d="M5522 8558 c-14 -14 2 -38 26 -38 23 0 114 -98 110 -118 -3 -14 -13
-16 -49 -14 -67 5 -87 -28 -33 -56 11 -6 29 -28 40 -49 10 -21 23 -41 27 -44
5 -4 7 -15 5 -25 -4 -25 -42 -30 -70 -10 -28 20 -74 21 -81 2 -7 -18 1 -26 27
-26 12 0 39 -10 62 -22 47 -25 89 -19 97 13 3 12 -3 42 -13 68 -28 73 -29 90
0 104 53 26 35 82 -59 180 -46 48 -68 56 -89 35z"/>
<path d="M4178 8504 c-8 -65 61 -116 104 -77 17 15 21 15 28 3 15 -24 11 -59
-9 -79 -14 -14 -16 -22 -8 -30 33 -33 59 7 58 87 0 73 -14 87 -70 72 -49 -13
-57 -9 -66 30 -9 42 -32 38 -37 -6z"/>
<path d="M3540 8417 c0 -46 21 -86 48 -93 15 -4 36 2 62 20 39 26 64 20 40 -9
-13 -15 -7 -45 8 -45 5 0 17 20 26 44 16 41 16 47 1 75 -20 39 -31 39 -71 0
-38 -37 -60 -34 -75 11 -15 41 -39 39 -39 -3z"/>
<path d="M3519 8200 c-13 -28 -17 -30 -70 -30 -43 0 -58 -4 -63 -16 -11 -30
-6 -34 47 -34 61 0 81 -13 66 -42 -6 -11 -8 -26 -5 -34 9 -24 33 -16 46 16 15
35 37 38 73 10 33 -26 70 -30 75 -8 4 18 -30 58 -50 58 -6 0 -27 5 -45 12 -25
9 -33 18 -34 38 -2 47 -4 53 -15 57 -7 2 -18 -10 -25 -27z"/>
<path d="M4980 8094 c-44 -32 -50 -41 -50 -86 0 -21 -4 -38 -10 -38 -19 0 -90
32 -90 41 0 5 -5 9 -12 9 -6 0 -19 7 -29 16 -17 16 -49 13 -49 -3 0 -4 11 -21
25 -37 26 -30 42 -72 32 -83 -9 -8 -34 20 -39 43 -2 10 -10 19 -18 19 -20 0
-16 -57 7 -93 18 -29 42 -52 54 -52 20 0 39 35 39 72 0 37 2 40 23 34 12 -3
39 -9 59 -12 40 -7 66 -29 73 -62 9 -49 42 -82 82 -82 27 0 101 70 109 103 4
18 0 36 -11 53 -16 25 -20 26 -79 20 -69 -8 -92 -2 -107 25 -11 21 3 59 22 59
6 0 17 6 25 14 7 8 19 16 26 19 19 7 -4 41 -28 44 -10 1 -35 -9 -54 -23z"/>
<path d="M5578 7893 c-1 -32 -2 -74 -3 -93 0 -40 -13 -80 -24 -80 -5 0 -24 15
-43 33 -68 62 -77 67 -122 67 -55 0 -62 -15 -36 -74 22 -52 91 -99 147 -101
29 -1 37 -6 47 -30 14 -33 10 -64 -8 -67 -6 0 -40 -2 -75 -2 -35 -1 -66 -6
-68 -12 -2 -5 13 -31 33 -57 20 -26 34 -50 30 -54 -3 -4 -22 1 -42 11 -34 16
-38 16 -62 0 -23 -15 -24 -20 -19 -78 4 -44 2 -66 -9 -80 -8 -11 -14 -29 -14
-41 0 -35 107 -122 136 -111 8 3 14 1 14 -4 0 -20 41 -9 51 13 23 52 -34 157
-85 157 -31 0 -46 19 -46 57 0 45 20 50 67 19 21 -14 51 -26 67 -26 27 0 28 2
23 36 -3 20 -12 41 -20 48 -18 15 -47 62 -47 76 0 6 8 9 18 7 51 -14 69 -15
86 -2 22 16 24 66 6 121 -9 26 -8 39 4 63 18 35 23 245 6 256 -6 4 -11 -16
-12 -52z"/>
<path d="M3256 7922 c-13 -22 14 -34 222 -103 130 -43 134 -43 148 -24 19 25
6 37 -53 46 -27 4 -100 26 -163 48 -116 41 -145 48 -154 33z"/>
<path d="M4092 7914 c-5 -11 -12 -37 -15 -59 -4 -24 -15 -47 -29 -57 -23 -18
-23 -19 -4 -33 12 -9 20 -28 20 -47 1 -42 24 -48 39 -9 11 29 15 31 59 31 40
0 48 3 48 19 0 19 -25 31 -68 31 -29 0 -41 31 -31 84 8 45 -3 69 -19 40z"/>
<path d="M6107 7893 c-4 -3 -7 -18 -7 -32 0 -61 -8 -70 -71 -77 -48 -5 -59
-10 -59 -25 0 -15 10 -19 58 -21 53 -3 57 -5 58 -28 2 -44 4 -50 14 -50 5 0
16 15 24 34 14 34 15 35 51 25 20 -6 51 -19 68 -29 17 -11 34 -17 39 -14 14 9
9 44 -8 44 -21 0 -121 50 -136 68 -8 9 -9 19 -2 30 7 11 7 29 2 50 -8 31 -18
39 -31 25z"/>
<path d="M4837 7723 c-4 -3 -7 -15 -7 -26 0 -17 -5 -19 -37 -14 -21 3 -46 8
-55 12 -31 13 -38 -25 -13 -76 37 -78 38 -89 4 -89 -37 0 -37 -12 4 -49 34
-33 56 -38 75 -19 18 18 15 43 -14 98 -29 55 -26 82 8 80 42 -4 47 0 54 36 6
34 -5 62 -19 47z"/>
<path d="M2630 7615 c0 -25 8 -44 25 -60 25 -26 59 -33 70 -15 9 15 75 43 83
36 3 -4 7 -28 7 -53 1 -49 17 -67 33 -36 12 22 0 106 -18 127 -17 22 -39 20
-94 -8 l-47 -24 -14 34 c-19 46 -45 45 -45 -1z"/>
<path d="M3905 7548 c-3 -13 -7 -70 -9 -128 -1 -58 -6 -112 -10 -121 -4 -10
-1 -23 9 -33 23 -23 35 -12 28 28 -6 40 12 82 30 68 7 -5 32 -13 57 -17 94
-16 143 -61 106 -98 -12 -12 -12 -18 -3 -31 16 -21 27 -11 60 53 17 33 24 58
19 65 -9 10 -21 72 -26 127 -4 35 -14 49 -37 49 -23 0 -23 -7 -4 -53 17 -41
19 -85 6 -106 -8 -12 -16 -11 -49 7 -22 11 -56 24 -76 27 -20 4 -36 11 -36 16
0 5 -9 9 -21 9 -19 0 -20 4 -16 58 2 31 8 67 12 80 6 18 4 22 -14 22 -13 0
-23 -8 -26 -22z"/>
<path d="M976 7480 c-30 -9 -46 -25 -46 -47 0 -7 5 -13 12 -13 6 0 20 -8 31
-17 28 -26 108 -41 164 -32 81 13 90 11 112 -25 30 -48 27 -59 -11 -51 -18 4
-38 12 -45 17 -15 12 -33 2 -33 -19 0 -8 9 -26 20 -40 31 -40 26 -77 -15 -110
l-34 -28 31 -32 c41 -43 33 -63 -27 -63 -39 0 -47 -4 -57 -25 -15 -34 4 -77
51 -109 74 -52 131 -24 97 48 -14 30 -14 36 0 65 13 25 13 37 4 66 -10 30 -9
43 5 77 9 24 13 52 10 69 -7 29 -2 33 37 30 41 -4 42 74 2 126 -16 21 -32 44
-35 52 -5 14 -61 31 -164 50 -27 5 -57 12 -65 14 -8 3 -28 1 -44 -3z"/>
<path d="M3502 7381 c-9 -5 -11 -20 -6 -49 6 -36 4 -42 -11 -42 -9 0 -30 11
-47 25 -35 30 -58 32 -65 6 -3 -11 -15 -21 -27 -23 -16 -2 -22 -11 -24 -38 -2
-30 5 -44 49 -92 56 -64 88 -74 113 -35 11 17 13 32 6 62 -8 36 -6 43 18 68
20 21 26 37 26 68 -2 45 -13 62 -32 50z"/>
<path d="M2259 7346 c-2 -3 -22 -7 -44 -9 -22 -3 -66 -10 -98 -16 -63 -11
-159 -8 -228 8 -64 15 -79 14 -79 -8 0 -12 11 -23 30 -30 37 -12 39 -27 5 -35
-38 -10 -31 -34 12 -42 44 -8 67 4 71 38 3 25 5 26 80 25 90 -2 117 1 194 19
31 8 63 11 72 8 26 -10 19 -50 -11 -70 -16 -10 -34 -24 -41 -31 -10 -10 -18
-10 -33 -2 -12 6 -27 8 -34 5 -21 -8 -3 -60 21 -63 28 -4 126 76 147 120 18
35 18 39 3 62 -14 22 -54 34 -67 21z"/>
<path d="M2957 7235 c-9 -20 -17 -43 -17 -52 0 -18 59 -83 76 -83 6 0 16 -11
22 -25 12 -26 27 -32 37 -14 4 6 14 8 22 5 8 -3 26 -3 39 0 20 5 24 12 22 33
-3 22 -9 27 -38 29 -51 5 -60 17 -60 78 0 55 -12 68 -38 42 -9 -9 -12 -8 -12
5 0 31 -35 19 -53 -18z"/>
<path d="M6206 7251 c-4 -5 -3 -16 0 -24 5 -15 -8 -79 -27 -129 -17 -42 -35
-41 -66 5 -43 64 -85 85 -115 59 -39 -33 -9 -97 63 -136 57 -32 88 -33 115 -3
30 32 45 82 49 165 4 65 -4 88 -19 63z"/>
<path d="M3222 7168 c-7 -7 -12 -19 -12 -27 0 -22 50 -86 139 -176 30 -30 52
-58 48 -61 -3 -3 -40 -7 -82 -8 -55 -1 -78 -5 -85 -16 -15 -23 -12 -29 16 -42
20 -9 30 -9 45 0 14 9 43 10 99 6 65 -6 80 -4 80 7 -1 31 -28 72 -90 138 -84
89 -114 129 -120 160 -6 29 -21 36 -38 19z"/>
<path d="M4584 7125 c-4 -25 -1 -41 14 -62 10 -15 17 -33 15 -39 -2 -7 17 -22
42 -34 26 -13 58 -33 71 -45 13 -12 42 -27 65 -34 35 -11 44 -10 56 2 25 25 6
56 -53 85 -51 25 -54 28 -48 57 5 27 0 34 -44 68 -32 24 -60 37 -80 37 -28 0
-32 -4 -38 -35z"/>
<path d="M2530 7070 c0 -78 -1 -81 -27 -91 -41 -15 -67 -4 -104 46 -33 44 -60
62 -77 51 -17 -10 -39 -261 -24 -270 16 -10 22 7 33 101 6 48 13 90 15 92 8 8
34 -22 34 -40 0 -10 8 -20 19 -24 10 -3 26 -14 36 -25 23 -25 83 -27 100 -3
12 16 15 16 57 0 24 -9 51 -17 60 -17 21 0 30 -25 22 -65 -3 -18 -2 -35 3 -38
19 -12 36 12 39 54 2 24 6 54 9 67 5 22 8 21 49 -23 24 -25 50 -45 58 -45 43
0 49 61 15 160 -15 45 -28 66 -40 68 -16 3 -18 0 -12 -20 4 -12 13 -35 20 -50
19 -39 28 -88 18 -88 -13 0 -53 44 -53 58 0 18 -46 62 -64 62 -9 0 -27 -10
-39 -23 -27 -28 -81 -51 -102 -43 -11 4 -15 22 -15 73 0 74 -7 113 -21 113 -5
0 -9 -36 -9 -80z"/>
<path d="M1823 7103 c-3 -10 -21 -33 -40 -51 -41 -41 -41 -55 -3 -82 17 -12
30 -27 30 -35 0 -9 17 -14 52 -17 41 -2 57 1 71 15 25 25 17 41 -24 45 -57 5
-89 22 -89 48 0 12 4 25 9 28 5 3 14 19 19 36 9 25 8 30 -4 30 -8 0 -17 -8
-21 -17z"/>
<path d="M5826 6997 c-22 -12 -41 -27 -43 -33 -5 -15 60 -75 137 -126 42 -28
66 -52 70 -68 5 -21 12 -25 41 -25 19 0 45 -6 58 -13 16 -10 26 -11 33 -4 16
16 2 40 -36 63 -36 21 -46 42 -46 101 0 20 -5 40 -11 44 -17 10 -47 -34 -41
-62 6 -31 -6 -30 -69 2 -80 42 -102 94 -39 94 35 0 46 15 26 35 -20 20 -34 19
-80 -8z"/>
<path d="M5260 6930 c0 -12 9 -30 20 -42 11 -12 20 -25 20 -30 0 -13 -22 -9
-41 8 -10 9 -22 13 -28 10 -25 -16 70 -116 110 -116 26 0 33 35 15 72 -18 34
-21 58 -7 58 4 0 33 -5 62 -10 30 -6 101 -19 159 -30 146 -27 164 -33 168 -57
4 -27 -50 -53 -110 -53 -54 0 -64 7 -73 48 -5 24 -11 32 -22 28 -8 -3 -17 -6
-19 -6 -2 0 -4 -20 -4 -44 0 -53 6 -56 103 -55 86 1 128 15 157 52 51 65 0 92
-240 128 -36 5 -74 13 -85 18 -30 13 -142 41 -165 41 -13 0 -20 -7 -20 -20z"/>
<path d="M1675 6867 c-12 -18 -12 -31 -4 -61 15 -54 45 -80 111 -95 55 -13 57
-13 87 10 30 24 41 65 22 85 -5 5 -11 20 -13 33 -4 30 -28 41 -28 12 0 -11 5
-23 10 -26 6 -4 7 -12 3 -18 -4 -6 -8 -20 -8 -30 -3 -31 -18 -37 -60 -26 -47
13 -85 45 -85 71 0 24 5 23 50 -13 38 -31 76 -34 65 -7 -7 16 -74 64 -109 78
-22 8 -28 6 -41 -13z"/>
<path d="M4499 6726 c-41 -28 -49 -43 -49 -90 0 -23 9 -41 30 -61 17 -16 30
-34 30 -40 0 -6 11 -18 24 -25 24 -12 56 -74 56 -106 0 -14 -7 -15 -41 -10
-23 4 -53 15 -66 26 -19 15 -30 17 -44 9 -20 -10 -26 -29 -9 -29 8 0 35 -25
68 -65 22 -26 62 -99 62 -113 0 -26 -58 21 -81 65 -39 75 -72 85 -51 16 12
-41 80 -132 98 -133 6 0 17 -7 24 -15 16 -20 46 -19 54 1 11 28 6 48 -24 104
-38 72 -38 80 5 80 29 0 36 4 41 25 4 14 4 44 0 65 l-6 40 37 -18 c21 -9 40
-19 43 -22 13 -14 160 -69 203 -75 50 -8 54 -4 37 39 -6 16 -17 26 -30 26 -11
0 -28 4 -38 10 -29 15 -84 36 -143 54 -31 9 -73 27 -93 41 -20 14 -43 25 -50
25 -14 0 -86 76 -86 90 0 21 44 61 64 58 29 -4 29 -42 -1 -46 -13 -2 -23 -10
-23 -17 0 -20 33 -27 65 -15 26 10 27 13 22 56 -6 54 -13 63 -58 70 -26 4 -43
-1 -70 -20z"/>
<path d="M5330 6660 c0 -6 7 -21 16 -34 8 -14 11 -27 6 -30 -5 -3 -7 -16 -5
-30 6 -32 -11 -41 -77 -41 -66 0 -75 -17 -36 -74 14 -20 26 -41 26 -45 0 -5
-18 -6 -40 -2 -57 9 -60 -10 -11 -84 23 -34 41 -66 41 -72 0 -7 -17 -9 -48 -5
-50 6 -79 -3 -68 -21 3 -5 -1 -15 -8 -22 -17 -13 -18 -45 -3 -80 13 -28 73
-108 96 -127 23 -20 59 -15 71 8 14 25 4 58 -34 113 -33 49 -30 69 9 76 40 7
43 36 11 100 l-25 50 24 0 c13 0 27 -5 31 -12 5 -8 11 -6 20 6 15 21 2 69 -29
103 -29 32 -16 53 32 53 35 0 42 4 47 25 9 37 -15 155 -32 155 -8 0 -14 -5
-14 -10z"/>
<path d="M2301 6613 c-9 -18 -7 -26 13 -50 13 -15 31 -43 40 -61 9 -18 25 -41
34 -50 24 -24 52 -69 52 -83 0 -23 -81 -3 -107 27 -29 34 -39 72 -24 87 22 22
12 37 -24 37 -38 0 -46 -9 -47 -56 -1 -56 2 -64 51 -113 49 -50 70 -59 158
-66 21 -2 72 -8 113 -15 77 -11 120 -7 120 10 0 6 6 10 14 10 15 0 26 30 26
73 0 36 -49 87 -83 87 -13 0 -50 -11 -81 -25 -71 -31 -77 -31 -101 2 -11 15
-37 46 -57 71 -21 24 -38 51 -38 60 0 9 -11 30 -24 46 -23 30 -23 30 -35 9z"/>
<path d="M1107 6544 c-16 -19 -34 -34 -41 -34 -6 0 -24 14 -39 30 -46 48 -70
36 -48 -23 10 -26 61 -57 92 -57 10 0 31 12 48 26 35 30 51 25 51 -16 0 -31
31 -57 51 -44 27 16 -36 155 -69 153 -9 0 -30 -16 -45 -35z"/>
<path d="M3705 6527 c-10 -38 7 -111 33 -139 29 -34 70 -20 105 35 31 48 77
26 77 -36 0 -18 -7 -27 -25 -31 -32 -8 -32 -29 -1 -49 22 -15 25 -14 45 4 35
33 25 117 -21 167 -36 38 -80 25 -113 -33 -9 -15 -14 -16 -33 -6 -16 8 -23 24
-28 61 -7 53 -29 68 -39 27z"/>
<path d="M5692 6491 c-9 -5 -11 -17 -6 -35 11 -47 104 -103 209 -126 67 -15
100 -44 135 -117 25 -53 25 -58 1 -82 -19 -19 -19 -20 -2 -35 44 -40 76 30 46
100 -8 21 -23 46 -31 55 -21 23 -14 54 12 54 12 1 33 9 48 18 22 15 27 25 24
49 -3 36 -25 49 -35 21 -14 -41 -34 -53 -77 -47 -23 4 -45 11 -51 18 -20 23
-131 113 -152 125 -25 13 -102 15 -121 2z"/>
<path d="M3107 6404 c-13 -13 -7 -49 13 -81 15 -25 27 -33 49 -33 17 0 36 8
43 18 21 27 53 41 69 31 11 -7 9 -13 -11 -29 -24 -19 -24 -21 -7 -34 24 -18
46 -10 58 21 31 83 -29 125 -101 71 -34 -25 -62 -20 -70 12 -6 24 -29 37 -43
24z"/>
<path d="M1859 6328 c-1 -2 -2 -29 -3 -60 -3 -67 -24 -98 -68 -98 -15 0 -28 3
-28 8 0 12 -54 68 -77 81 -18 9 -30 8 -58 -3 -29 -12 -35 -20 -35 -44 0 -16 8
-36 18 -44 18 -17 126 -68 142 -68 29 0 96 53 116 92 16 31 19 124 4 133 -5 3
-10 5 -11 3z"/>
<path d="M1106 6312 c-3 -4 -4 -23 -4 -40 1 -18 -1 -35 -4 -38 -3 -3 -41 2
-84 11 -131 27 -179 -5 -91 -62 23 -16 43 -31 45 -35 2 -4 9 -5 16 -2 7 3 29
-11 50 -30 33 -32 71 -54 118 -70 10 -3 25 2 34 11 21 22 12 62 -27 119 -28
41 -30 49 -21 84 6 26 6 42 -1 49 -13 13 -24 14 -31 3z"/>
<path d="M3858 6265 c-3 -3 -3 -36 0 -73 3 -55 1 -71 -13 -85 -25 -26 -31 -21
-44 38 -27 120 -139 148 -117 30 4 -18 13 -38 21 -45 8 -7 15 -18 15 -25 0 -7
14 -25 31 -39 39 -33 88 -35 116 -3 19 19 21 32 18 102 -1 44 -3 86 -4 93 -1
12 -14 16 -23 7z"/>
<path d="M530 6232 c0 -5 -9 -18 -20 -29 -17 -19 -24 -20 -56 -12 -76 22 -284
-15 -284 -50 0 -25 16 -44 53 -63 69 -35 230 -17 260 30 20 31 80 0 100 -51 8
-22 -21 -23 -49 -2 -19 14 -54 20 -54 9 0 -15 22 -44 34 -44 8 0 19 -7 26 -15
15 -18 51 -20 68 -3 22 22 12 62 -27 114 -27 35 -36 56 -30 65 14 23 11 59 -6
59 -8 0 -15 -4 -15 -8z"/>
<path d="M3210 6181 c0 -38 -10 -43 -84 -45 -58 -2 -61 -3 -58 -27 3 -23 111
-139 130 -139 19 0 22 61 5 91 -17 29 -17 29 16 57 30 24 33 32 26 60 -9 41
-35 43 -35 3z"/>
<path d="M2445 6146 c-11 -17 -15 -42 -13 -88 l3 -63 49 -32 c62 -42 103 -44
112 -5 3 15 8 33 10 40 2 8 -7 37 -22 65 -50 100 -106 134 -139 83z"/>
<path d="M3672 6008 c-9 -36 -9 -36 -65 -24 -25 6 -42 5 -49 -2 -19 -19 10
-42 52 -42 53 0 65 -18 51 -76 -13 -50 -5 -71 23 -61 14 6 21 37 17 73 -1 6 5
17 13 23 15 12 59 1 71 -18 8 -14 42 -14 50 -1 11 18 -13 37 -61 49 -48 12
-55 21 -57 73 -3 47 -33 51 -45 6z"/>
<path d="M4436 6032 c-3 -5 6 -40 19 -77 26 -76 25 -92 -8 -71 -12 8 -37 17
-55 21 -38 8 -51 -12 -33 -51 12 -27 90 -135 106 -146 21 -15 -7 -21 -45 -9
-22 6 -45 9 -50 6 -16 -10 -12 -45 5 -46 28 -3 33 -4 41 -11 4 -5 15 -8 25 -8
10 0 34 -9 54 -21 65 -39 88 1 35 61 -16 18 -30 36 -30 39 0 3 -16 24 -35 46
-51 58 -55 63 -55 75 0 16 25 12 53 -10 14 -11 36 -21 49 -22 34 -4 36 46 4
107 -14 26 -23 51 -20 56 7 12 41 11 49 -1 11 -17 43 -11 50 10 3 10 1 29 -5
40 -9 17 -14 19 -26 9 -13 -11 -70 -8 -107 7 -8 3 -18 1 -21 -4z"/>
<path d="M560 5960 c0 -7 7 -24 15 -38 22 -41 45 -119 45 -155 0 -44 -25 -77
-58 -77 -37 0 -100 47 -123 92 -21 42 -9 52 17 14 16 -25 44 -25 44 -1 0 25
-66 85 -92 85 -34 0 -52 -23 -44 -56 13 -50 88 -136 139 -160 61 -28 97 -18
133 36 21 31 24 44 18 81 -6 38 -37 122 -63 168 -10 19 -31 26 -31 11z"/>
<path d="M3225 5901 c-6 -5 -36 -14 -69 -20 -51 -9 -90 -33 -82 -51 27 -56 37
-83 32 -87 -3 -3 -40 0 -82 6 -58 8 -80 8 -90 0 -22 -18 1 -37 54 -44 26 -3
68 -10 93 -15 54 -11 89 -4 89 18 0 9 -9 35 -21 59 -26 55 -20 73 25 73 39 0
94 39 82 58 -9 14 -19 15 -31 3z"/>
<path d="M2217 5893 c-4 -3 -7 -24 -7 -45 0 -43 -20 -59 -51 -40 -22 14 -58
15 -77 4 -20 -13 -33 -71 -21 -94 11 -21 66 -48 98 -48 11 0 29 10 40 22 20
21 21 21 42 2 34 -31 51 -82 41 -128 -7 -38 -10 -41 -45 -44 -29 -3 -37 -7
-37 -23 0 -10 7 -20 15 -20 8 -1 21 -2 28 -3 25 -2 18 -41 -13 -71 -23 -22
-30 -38 -30 -65 0 -20 -6 -44 -13 -55 -15 -20 -37 -13 -37 11 0 20 -93 114
-113 114 -28 0 -66 -22 -72 -41 -9 -26 3 -89 20 -116 9 -12 27 -26 40 -29 14
-3 30 -15 36 -25 14 -26 63 -25 89 3 11 12 23 19 26 15 10 -10 50 45 64 87 7
21 27 55 46 76 18 20 38 49 43 63 9 22 17 27 43 27 49 0 78 -10 78 -27 0 -19
30 -13 43 9 17 26 -9 48 -55 48 -21 0 -54 7 -74 15 -32 13 -34 17 -31 51 5 43
-30 146 -59 177 -15 15 -23 40 -26 80 -5 56 -17 84 -31 70z"/>
<path d="M3596 5757 c-16 -12 -18 -22 -12 -63 7 -43 15 -57 66 -106 62 -61 96
-72 121 -42 30 36 -47 193 -105 214 -38 13 -48 13 -70 -3z"/>
<path d="M252 5709 c1 -16 8 -35 15 -41 17 -14 17 -85 1 -91 -9 -3 -4 -14 14
-34 22 -23 29 -43 34 -91 7 -66 23 -100 42 -88 15 9 15 48 0 97 -6 22 -9 42
-5 45 3 3 34 -4 69 -16 35 -12 88 -23 118 -24 49 -1 55 1 58 21 4 28 -35 53
-44 28 -8 -20 -23 -19 -108 6 -86 25 -122 56 -131 113 -10 60 -32 106 -50 106
-11 0 -15 -8 -13 -31z"/>
<path d="M1700 5680 c-43 -48 -84 -54 -102 -15 -14 32 -25 32 -40 0 -10 -22
-8 -29 12 -50 18 -19 34 -25 67 -25 24 0 43 4 43 9 0 13 57 34 70 26 6 -4 8
-15 5 -26 -5 -14 0 -22 17 -28 29 -11 39 -2 40 37 1 39 -45 113 -69 111 -4 0
-24 -18 -43 -39z"/>
<path d="M4842 5670 c-12 -11 -29 -34 -37 -51 -19 -35 -10 -52 51 -98 21 -17
58 -45 82 -63 23 -18 42 -41 42 -50 0 -10 3 -18 8 -19 4 -1 21 -2 39 -4 17 -1
47 -12 66 -24 59 -36 116 -21 70 20 -10 8 -40 24 -67 35 -51 21 -91 69 -80 98
3 8 1 17 -5 21 -6 3 -11 22 -11 41 0 47 -17 35 -18 -13 -1 -21 -3 -47 -6 -58
-2 -11 -5 -22 -5 -24 -1 -3 -11 4 -23 15 -13 11 -35 25 -50 32 -15 6 -34 25
-43 42 -15 29 -15 34 0 56 8 13 24 24 35 24 27 0 34 17 11 29 -27 15 -34 14
-59 -9z"/>
<path d="M970 5608 c-18 -20 -19 -24 -5 -34 8 -6 15 -19 15 -28 0 -18 11 -24
50 -28 22 -3 27 -12 48 -97 18 -74 21 -100 13 -118 -9 -20 -14 -22 -31 -13
-11 6 -20 15 -20 20 0 6 -6 10 -13 10 -7 0 -21 14 -30 30 -21 35 -37 39 -37
10 0 -63 73 -128 136 -121 16 2 34 47 34 85 0 33 -24 125 -40 157 -11 21 -3
29 29 29 33 0 56 32 41 59 -21 41 -60 61 -116 61 -42 0 -58 -5 -74 -22z"/>
<path d="M1593 5465 c-54 -23 -67 -65 -30 -105 41 -46 63 -60 110 -69 39 -7
49 -5 67 11 71 67 -51 204 -147 163z"/>
<path d="M3661 5426 c-8 -9 -26 -12 -62 -8 -48 4 -94 -9 -110 -32 -4 -5 -1
-24 7 -42 8 -18 13 -43 11 -55 -2 -18 7 -25 53 -41 95 -33 90 -33 90 -5 0 18
-8 28 -29 37 -39 16 -74 54 -69 77 4 20 51 24 121 9 41 -9 47 1 25 49 -13 28
-21 31 -37 11z"/>
<path d="M2762 5374 c-29 -7 -46 -38 -33 -63 17 -31 95 -71 140 -71 33 0 48
-7 75 -32 63 -62 128 -102 145 -91 33 21 26 53 -40 162 -13 21 -18 43 -14 58
6 26 -2 28 -39 12 -19 -9 -31 -8 -58 6 -33 17 -134 28 -176 19z"/>
<path d="M2439 5303 c-1 -5 -1 -16 0 -25 2 -17 -32 -34 -48 -24 -21 13 -103
17 -117 5 -18 -14 -18 -45 -1 -56 21 -13 59 -72 53 -82 -3 -5 -26 -6 -51 -3
-36 4 -45 2 -45 -11 0 -18 11 -22 89 -37 100 -19 118 10 51 82 -42 44 -49 76
-15 69 11 -2 46 -5 78 -8 61 -5 63 -3 57 52 -3 27 -48 60 -51 38z"/>
<path d="M1689 5203 c-1 -5 -2 -36 -3 -71 -1 -51 -5 -67 -20 -78 -29 -21 -34
-18 -45 24 -23 82 -108 119 -150 66 -24 -31 -22 -35 44 -97 48 -46 81 -61 115
-51 14 4 31 8 39 8 7 1 22 17 33 36 18 30 20 45 14 103 -4 37 -12 67 -17 67
-5 0 -10 -3 -10 -7z"/>
<path d="M4457 5187 c-4 -10 -7 -27 -7 -37 0 -11 -5 -31 -12 -45 -12 -27 -37
-27 -69 1 -23 21 -73 17 -94 -6 -15 -17 -16 -24 -6 -43 35 -64 77 -92 125 -83
28 5 35 2 46 -19 19 -35 3 -48 -62 -50 -52 -1 -53 -1 -51 -30 1 -17 4 -43 8
-58 l7 -28 -43 7 c-24 4 -48 7 -52 8 -5 0 -18 -12 -30 -27 -29 -37 -36 -155
-13 -209 23 -55 107 -138 139 -138 50 0 57 53 17 135 -19 40 -32 52 -72 69
-43 18 -48 23 -48 51 0 17 6 39 13 50 18 24 75 14 107 -20 13 -14 34 -25 47
-25 19 0 23 5 23 29 0 17 -4 33 -10 36 -5 3 -10 14 -10 25 0 10 -7 20 -15 24
-8 3 -15 15 -15 26 0 17 6 20 39 20 56 0 74 30 61 100 -5 28 -12 56 -15 61 -3
5 -1 35 4 66 11 61 2 145 -12 110z"/>
<path d="M5602 5116 c-24 -54 58 -131 154 -142 42 -5 90 45 97 104 7 55 -14
52 -25 -4 -5 -21 -16 -45 -25 -51 -20 -16 -59 -17 -76 -3 -7 6 -24 19 -39 31
-31 23 -36 39 -13 39 8 0 15 -9 15 -19 0 -22 21 -33 40 -21 21 13 3 58 -30 75
-45 23 -85 20 -98 -9z"/>
<path d="M1095 5088 c-4 -9 -2 -25 3 -35 16 -31 0 -108 -25 -117 -33 -13 -93
14 -119 54 -29 43 -25 67 7 50 11 -6 27 -29 36 -51 17 -43 36 -47 41 -7 2 18
-8 36 -39 66 -34 35 -46 41 -68 36 -38 -10 -51 -23 -51 -55 0 -49 92 -134 150
-139 56 -5 70 0 86 32 18 34 15 130 -4 165 -10 16 -11 16 -17 1z"/>
<path d="M2994 5075 c-3 -8 -3 -18 0 -23 10 -16 -17 -30 -66 -36 -81 -10 -97
-28 -62 -67 21 -23 11 -57 -11 -39 -7 6 -26 10 -42 8 -22 -2 -29 -9 -31 -31
-3 -23 2 -29 27 -38 28 -10 80 -74 68 -85 -3 -3 -28 -1 -56 4 -45 8 -55 6 -91
-15 -31 -19 -40 -30 -40 -51 0 -52 69 -127 149 -164 36 -17 47 -18 66 -8 13 7
25 20 28 30 6 21 -15 71 -36 89 -24 19 -22 51 2 51 22 0 51 25 51 44 0 7 -11
30 -25 50 -31 45 -31 46 -1 46 36 0 44 44 16 83 -25 33 -22 37 35 56 48 17 55
25 55 74 0 27 -4 37 -15 37 -9 0 -18 -7 -21 -15z"/>
<path d="M4023 4973 c-7 -15 -13 -32 -13 -38 0 -18 -83 -94 -140 -128 -31 -19
-54 -39 -52 -47 7 -28 -20 -58 -57 -64 -86 -13 -156 -132 -180 -304 -13 -94
-52 -105 -85 -24 -31 75 -46 93 -70 86 -34 -10 -53 -36 -59 -81 -5 -42 -5 -43
55 -88 77 -58 124 -62 169 -13 16 18 29 40 29 50 0 27 17 30 39 6 12 -12 21
-25 21 -30 0 -4 11 -8 25 -8 43 0 40 26 -9 73 -25 24 -46 52 -46 63 0 11 -5
25 -10 30 -8 8 -6 15 4 23 13 11 22 8 52 -17 37 -30 68 -33 78 -6 3 8 2 22 -3
32 -5 9 -12 25 -15 35 -5 15 -12 17 -41 11 -30 -5 -35 -4 -35 13 0 30 9 33 47
18 53 -22 73 -20 73 10 0 29 24 43 44 25 8 -6 30 -10 48 -8 25 2 34 8 36 26 3
16 -2 22 -17 22 -11 0 -31 5 -45 11 -34 16 -22 39 20 39 39 0 51 18 34 50 -10
18 -4 29 55 93 84 92 119 167 78 167 -10 0 -24 -12 -30 -27z"/>
<path d="M2142 4968 c-21 -21 -13 -45 31 -91 58 -59 138 -86 197 -67 41 14 56
36 51 78 -4 38 -30 92 -44 92 -23 0 -27 -12 -12 -34 22 -30 19 -83 -4 -96 -34
-17 -51 -12 -51 15 0 27 -47 83 -87 104 -28 14 -66 14 -81 -1z"/>
<path d="M1295 4950 c-24 -27 -12 -48 39 -71 25 -11 48 -24 51 -29 3 -6 14
-10 24 -10 12 0 21 -10 24 -27 17 -79 209 -133 239 -67 13 27 -6 62 -54 102
-25 21 -29 30 -24 58 10 49 -20 57 -37 10 -1 -5 -36 3 -77 17 -104 35 -163 41
-185 17z"/>
<path d="M5765 4934 c-16 -20 -31 -24 -84 -27 -84 -4 -95 -19 -62 -80 38 -70
21 -77 -121 -46 -61 14 -94 -1 -76 -34 6 -12 12 -31 14 -42 1 -11 5 -32 9 -47
9 -36 -13 -45 -64 -28 -30 9 -43 10 -60 0 -35 -18 -9 -40 48 -40 26 0 56 -6
66 -14 17 -12 18 -18 6 -55 -6 -23 -9 -46 -6 -51 13 -22 32 -8 45 33 8 23 15
44 16 46 2 2 33 -10 71 -27 156 -68 152 -67 170 -49 14 14 14 17 2 20 -8 3
-34 11 -59 18 -25 7 -77 28 -117 47 -78 36 -73 27 -88 140 l-5 42 33 0 c19 0
37 -3 41 -7 4 -5 17 -8 29 -9 12 0 48 -4 79 -9 74 -10 81 4 38 80 -17 30 -29
59 -25 65 3 5 25 7 49 4 59 -9 86 7 86 51 0 43 -10 48 -35 19z"/>
<path d="M841 4906 c-26 -31 10 -87 73 -117 43 -21 45 -39 3 -39 -26 0 -36 -5
-40 -20 -3 -11 -2 -22 1 -24 4 -2 51 -4 105 -5 95 -2 98 -2 95 19 -2 12 -14
27 -28 34 -65 34 -96 51 -105 58 -5 5 -23 18 -38 29 -23 18 -27 26 -22 50 6
24 3 29 -13 29 -11 0 -25 -6 -31 -14z"/>
<path d="M2044 4789 c-6 -36 -40 -89 -58 -89 -3 0 -23 18 -43 41 -27 30 -43
39 -62 37 -35 -4 -51 -49 -31 -86 20 -36 108 -79 130 -63 8 6 24 15 36 20 22
10 40 57 49 134 8 59 -12 65 -21 6z"/>
<path d="M4787 4643 c-4 -3 -7 -14 -7 -24 0 -15 6 -17 34 -12 40 6 107 -22
114 -49 2 -10 9 -18 14 -18 5 0 8 -15 6 -32 -3 -30 -6 -33 -40 -36 -32 -3 -38
-7 -38 -26 0 -13 7 -29 15 -36 8 -7 15 -21 15 -33 0 -18 -4 -19 -49 -13 -40 5
-50 3 -55 -10 -10 -26 6 -35 64 -36 63 0 84 19 75 68 -4 25 0 34 25 52 34 26
38 52 15 110 -19 47 -55 75 -117 90 -54 14 -62 14 -71 5z"/>
<path d="M2159 4629 c-34 -13 -43 -46 -21 -79 31 -46 52 -90 45 -92 -5 -1 -33
-2 -63 -2 -77 -1 -80 -25 -6 -66 30 -17 59 -37 66 -45 15 -19 -3 -27 -33 -16
-17 7 -30 6 -42 -3 -25 -18 -3 -32 69 -45 47 -9 62 -8 68 1 15 25 7 54 -22 78
-39 33 -37 44 5 36 34 -7 35 -6 35 23 0 25 -34 81 -62 101 -4 3 -11 17 -17 32
-14 37 3 47 64 39 70 -9 95 -4 95 20 0 17 -7 19 -64 19 -35 0 -70 2 -78 4 -7
3 -25 0 -39 -5z"/>
<path d="M6356 4554 c-5 -13 -16 -15 -64 -10 -52 6 -59 4 -73 -16 -15 -21 -14
-28 4 -86 22 -69 18 -85 -14 -56 -11 10 -36 27 -54 39 -19 11 -59 40 -90 64
-33 26 -61 41 -70 37 -21 -8 -19 -33 4 -41 14 -4 118 -79 141 -101 2 -3 -1 -9
-9 -13 -10 -6 -6 -16 16 -42 32 -38 56 -75 66 -103 6 -15 3 -17 -16 -12 -34 8
-53 -26 -33 -62 8 -15 22 -41 31 -59 9 -18 25 -35 36 -38 23 -8 56 9 63 33 11
33 -39 144 -102 230 -28 38 -23 52 10 28 13 -9 38 -28 57 -42 68 -49 79 -4 24
101 -46 91 -40 106 34 87 43 -12 48 -11 67 7 18 18 18 23 6 46 -15 29 -25 32
-34 9z"/>
<path d="M1275 4474 c-10 -8 -14 -14 -9 -14 6 0 17 -11 24 -25 7 -13 23 -28
34 -31 12 -4 23 -9 26 -13 3 -3 23 -21 45 -40 42 -36 95 -98 95 -112 0 -9 -51
-2 -98 13 -22 6 -37 7 -43 1 -13 -13 4 -25 61 -46 81 -30 120 -19 120 34 0 20
-13 38 -46 68 -26 22 -69 66 -97 98 -61 71 -86 85 -112 67z"/>
<path d="M4741 4209 c-31 -33 -26 -52 22 -96 62 -57 89 -73 114 -67 41 11 39
73 -6 139 -23 34 -33 40 -68 43 -32 2 -46 -2 -62 -19z"/>
<path d="M2029 4187 c-31 -23 -31 -51 -1 -74 40 -30 112 -63 137 -63 24 0 45
17 45 37 0 21 -63 85 -97 99 -40 17 -63 17 -84 1z"/>
<path d="M3306 4183 c-19 -63 -4 -133 29 -133 17 0 45 -56 45 -90 0 -14 5 -31
11 -37 15 -15 7 -84 -11 -96 -12 -7 -26 -2 -54 17 -44 30 -115 36 -136 11 -23
-27 15 -91 72 -121 15 -8 45 -14 67 -14 31 0 41 -4 46 -21 10 -29 0 -34 -62
-32 -63 3 -113 -18 -113 -46 0 -11 8 -33 18 -50 15 -27 15 -33 2 -41 -15 -9
-15 -9 -136 53 -81 42 -124 48 -124 18 0 -13 9 -21 29 -26 32 -7 137 -61 146
-74 2 -5 -7 -21 -20 -35 l-25 -27 -63 25 c-53 21 -64 23 -76 11 -23 -23 -6
-42 44 -47 68 -8 88 -31 81 -90 -6 -43 -5 -48 13 -48 15 0 22 9 27 35 4 21 12
35 21 35 8 0 45 -18 83 -40 77 -45 79 -45 105 -26 16 12 17 16 6 30 -7 9 -25
16 -40 16 -15 0 -32 5 -37 10 -6 6 -21 12 -34 15 -33 6 -60 34 -60 62 0 26 -5
25 79 29 89 4 99 28 43 101 -36 48 -25 63 46 63 79 0 111 35 83 89 -6 11 -6
33 0 60 5 23 11 74 12 114 3 64 5 72 23 72 25 0 46 14 67 45 25 35 21 64 -12
99 -29 31 -31 32 -95 25 -66 -7 -66 -7 -66 19 0 50 -23 76 -34 40z"/>
<path d="M3809 4119 c-16 -30 -5 -110 17 -126 10 -7 34 -13 55 -13 33 0 37 -3
43 -31 10 -50 7 -187 -4 -194 -6 -3 -28 4 -50 16 -29 17 -43 20 -51 12 -17
-17 -5 -28 66 -64 36 -18 65 -37 66 -43 1 -6 0 -23 -1 -38 -2 -37 32 -39 48
-3 10 22 14 24 37 13 14 -6 25 -14 25 -17 0 -3 7 -15 15 -25 14 -19 15 -19 35
-1 28 25 25 38 -12 54 -75 32 -88 48 -88 105 0 29 7 67 16 85 l16 31 24 -19
c14 -11 39 -23 56 -26 41 -10 58 13 58 77 0 65 -22 113 -61 137 -29 18 -34 18
-56 4 -32 -21 -63 -84 -64 -130 -1 -48 -13 -81 -23 -65 -10 17 -17 145 -8 152
15 11 52 89 52 110 0 19 -2 20 -15 10 -8 -7 -15 -18 -15 -24 0 -7 -11 -23 -25
-36 l-25 -23 -11 32 c-19 54 -98 81 -120 40z"/>
<path d="M2090 3985 c0 -25 0 -25 -73 -19 -71 6 -74 6 -95 -21 -24 -30 -20
-45 22 -84 40 -38 33 -45 -41 -38 -106 10 -136 -7 -98 -57 10 -13 11 -23 5
-31 -6 -7 -8 -19 -5 -27 7 -17 67 -48 93 -48 9 0 32 -9 50 -20 18 -11 39 -20
48 -20 27 0 11 43 -26 67 -19 13 -42 29 -50 36 -9 8 -24 16 -33 20 -18 7 -33
34 -24 43 2 3 42 -2 87 -12 69 -14 84 -14 91 -3 15 24 10 38 -31 81 -61 65
-46 86 49 68 41 -8 48 -7 64 12 18 21 15 56 -7 70 -19 13 -26 9 -26 -17z"/>
<path d="M2531 3962 c-22 -31 -30 -112 -11 -112 5 0 12 -11 16 -25 8 -31 59
-70 105 -79 66 -12 119 55 119 149 0 33 -4 45 -15 45 -16 0 -17 -5 -19 -56 -1
-41 -25 -84 -47 -84 -13 0 -18 12 -23 53 -8 60 -51 130 -83 135 -14 2 -28 -7
-42 -26z"/>
<path d="M4820 3946 c0 -25 -13 -33 -66 -40 -56 -8 -84 -18 -84 -32 0 -8 19
-32 41 -54 41 -39 41 -41 24 -60 -14 -15 -31 -20 -70 -20 -52 0 -53 1 -94 55
-23 30 -44 63 -48 72 -8 25 -64 83 -80 83 -24 0 -13 -41 20 -75 109 -113 160
-200 128 -219 -16 -10 0 -45 31 -72 17 -13 28 -27 25 -31 -4 -3 -34 6 -69 20
-34 13 -68 22 -75 20 -19 -7 -16 -33 5 -39 36 -12 186 -71 214 -85 10 -5 20
-3 28 6 14 17 0 46 -34 69 -54 35 -56 90 -3 104 24 6 37 20 55 56 27 55 24 85
-14 123 -31 31 -20 42 41 43 68 1 98 46 57 83 -25 23 -32 21 -32 -7z"/>
<path d="M2317 3773 c-50 -54 -57 -65 -57 -84 0 -32 75 -115 126 -140 25 -12
53 -29 62 -39 10 -10 39 -19 72 -23 30 -3 62 -7 70 -9 18 -4 26 38 11 56 -7 8
-24 16 -40 19 -31 6 -58 56 -40 74 14 14 -9 83 -28 83 -13 0 -15 -8 -10 -47 3
-28 0 -60 -6 -75 -12 -26 -13 -26 -51 -13 -45 16 -104 70 -112 102 -7 26 29
83 52 83 8 0 14 7 14 15 0 21 -43 19 -63 -2z"/>
<path d="M5977 3683 c-11 -11 -8 -35 7 -52 15 -17 32 -81 21 -81 -3 0 -15 4
-25 10 -14 8 -21 5 -34 -15 -14 -21 -14 -31 -3 -73 12 -49 69 -122 94 -122 20
0 15 39 -9 73 -35 48 -48 76 -38 82 5 3 11 1 15 -5 9 -14 63 -12 68 3 2 6 -3
28 -11 46 -16 40 -23 71 -16 71 3 0 14 -4 24 -10 10 -5 26 -7 35 -4 23 9 15
49 -10 50 -11 1 -37 9 -57 18 -41 18 -51 19 -61 9z"/>
<path d="M5177 3622 c-51 -56 20 -202 99 -202 53 0 81 33 98 115 7 39 12 73 9
78 -10 16 -22 -6 -33 -59 -11 -50 -40 -94 -63 -94 -5 0 -7 10 -3 23 10 42 -43
157 -73 157 -10 0 -25 -8 -34 -18z"/>
<path d="M1943 3388 c-34 -44 4 -132 68 -158 19 -7 41 -19 49 -26 8 -6 53 -24
100 -39 47 -14 93 -34 103 -43 25 -23 49 -78 56 -131 7 -52 27 -64 41 -26 8
21 5 36 -15 78 -31 65 -21 76 43 50 40 -17 51 -18 66 -7 29 21 16 48 -29 57
-131 28 -173 44 -190 76 -17 33 -81 107 -117 137 -36 29 -160 52 -175 32z m65
-17 c9 -4 34 -16 54 -26 51 -24 152 -120 143 -135 -13 -21 -119 20 -186 72
-36 27 -56 69 -44 88 8 12 11 12 33 1z"/>
<path d="M5192 3298 c-53 -9 -59 -12 -78 -49 -12 -24 -13 -37 -5 -61 17 -47
15 -48 -49 -41 -55 5 -60 4 -60 -14 0 -11 14 -37 30 -58 34 -43 33 -40 21 -63
-13 -25 22 -66 49 -57 26 8 25 24 -5 87 -14 28 -23 53 -21 55 2 2 24 -2 49 -9
26 -6 49 -9 53 -5 4 3 6 27 6 52 -1 25 3 45 8 45 6 0 10 10 10 23 0 34 16 55
31 40 16 -16 49 1 49 25 0 25 -39 39 -88 30z"/>
<path d="M3720 3118 c-25 -27 -25 -32 0 -84 27 -55 79 -83 119 -63 43 23 70
67 84 137 9 44 1 40 -24 -12 -40 -85 -89 -101 -100 -33 -6 35 -33 77 -50 77
-5 0 -17 -10 -29 -22z"/>
<path d="M4400 2956 c-32 -67 -42 -72 -78 -36 -53 52 -107 35 -118 -37 -6 -39
-4 -45 26 -73 18 -16 43 -30 56 -30 20 0 24 -5 24 -29 0 -44 -17 -81 -38 -81
-9 0 -32 16 -51 35 -33 35 -71 47 -71 22 0 -15 89 -107 102 -107 18 0 6 -56
-18 -91 -26 -38 -25 -59 1 -59 15 0 57 52 68 83 8 22 21 22 55 -2 45 -32 69
-35 77 -10 8 24 -15 49 -45 49 -9 0 -27 11 -40 25 -19 20 -22 30 -16 62 4 21
9 49 11 62 4 26 21 66 40 91 6 8 17 35 24 60 7 25 17 55 22 68 23 59 -2 57
-31 -2z"/>
<path d="M5694 2960 c-22 -9 -64 -71 -64 -96 0 -23 80 -123 111 -140 33 -17
52 -11 74 22 23 35 21 81 -5 141 -30 71 -66 94 -116 73z"/>
<path d="M2860 2925 c-7 -8 -10 -18 -7 -22 8 -8 -19 -59 -35 -66 -7 -2 -29 1
-48 7 -31 10 -35 15 -34 43 2 34 -20 48 -50 31 -20 -11 -21 -64 -2 -75 8 -4
15 -17 18 -28 2 -15 15 -22 56 -28 43 -7 55 -13 62 -33 11 -28 22 -30 40 -9 9
10 22 14 39 10 35 -7 54 7 49 36 -2 18 -10 25 -33 27 -41 5 -45 11 -35 62 9
49 0 70 -20 45z"/>
<path d="M3616 2841 c-8 -13 3 -39 36 -85 15 -22 26 -41 24 -43 -3 -3 -24 7
-49 21 -66 39 -74 36 -82 -34 -5 -47 -11 -60 -24 -60 -65 0 -64 -71 1 -147 22
-27 52 -54 65 -61 36 -20 76 -11 90 19 24 50 -25 167 -77 184 -19 6 -33 62
-19 71 5 3 40 -16 78 -41 39 -25 77 -45 85 -45 19 0 22 43 4 62 -7 8 -19 24
-25 36 -7 12 -18 31 -25 42 -19 30 -2 36 49 17 33 -12 50 -14 57 -7 17 17 -7
45 -40 48 -16 2 -43 10 -61 18 -35 16 -79 19 -87 5z"/>
<path d="M4847 2694 c-4 -4 -7 -20 -7 -36 0 -32 -3 -33 -59 -13 -39 13 -71 12
-71 -4 0 -4 25 -20 55 -36 l55 -27 0 -49 c0 -26 -4 -51 -10 -54 -17 -10 -11
-35 8 -35 14 0 22 13 32 51 14 49 15 50 45 45 16 -3 36 -15 44 -26 16 -24 37
-26 45 -5 9 24 -2 40 -37 53 -57 20 -79 48 -75 94 3 38 -9 58 -25 42z"/>
<path d="M5466 2615 c-13 -19 -16 -37 -11 -65 13 -76 61 -88 146 -34 88 55
144 22 80 -48 -29 -31 -32 -32 -45 -15 -7 9 -18 17 -24 17 -19 0 -21 -28 -1
-46 43 -39 129 28 129 102 0 41 -34 77 -64 68 -12 -3 -41 -18 -66 -33 -25 -15
-58 -27 -75 -26 -28 0 -30 2 -33 45 -4 58 -15 68 -36 35z"/>
<path d="M2662 2580 c-31 -50 -10 -98 76 -173 70 -63 102 -61 102 6 0 58 -98
187 -142 187 -13 0 -29 -9 -36 -20z"/>
<path d="M4157 2376 c-8 -21 1 -70 24 -123 21 -49 12 -61 -31 -43 -50 21 -73
10 -100 -46 -14 -28 -31 -58 -39 -67 -35 -42 53 -177 115 -177 16 0 24 10 32
39 19 60 15 89 -14 116 -15 14 -33 25 -41 25 -10 0 -13 9 -11 28 3 24 7 27 36
24 18 -1 51 -11 72 -22 22 -11 44 -20 50 -20 18 0 10 61 -15 112 -24 48 -33
108 -17 108 5 0 17 -9 26 -19 24 -26 76 -38 87 -20 12 20 11 77 -2 84 -6 4
-13 -3 -16 -15 -5 -17 -11 -20 -31 -15 -14 3 -31 13 -36 21 -17 23 -82 30 -89
10z"/>
<path d="M3272 2045 c-7 -14 -12 -31 -13 -38 -1 -38 -111 -83 -156 -64 -12 5
-29 7 -37 4 -23 -9 -20 -34 5 -40 13 -4 20 -12 17 -24 -5 -25 -28 -26 -58 -3
-20 15 -25 28 -25 64 0 46 -12 59 -33 34 -38 -49 -13 -116 55 -148 63 -29 95
-24 107 18 8 27 19 38 60 57 58 27 84 54 97 99 18 62 4 92 -19 41z"/>
<path d="M3623 1929 c-18 -18 -3 -70 26 -96 14 -13 42 -33 61 -45 43 -27 50
-36 50 -70 0 -16 4 -28 8 -28 5 0 16 -19 26 -42 25 -55 83 -118 110 -118 69 1
90 37 75 132 -6 34 -12 66 -15 70 -3 5 6 27 21 48 15 21 24 44 20 49 -10 17
-23 13 -30 -9 -10 -31 -30 -24 -81 25 -25 25 -52 45 -59 45 -7 0 -23 9 -37 19
-15 12 -29 16 -37 11 -10 -5 -1 -14 30 -28 58 -27 126 -92 107 -103 -26 -17
-144 3 -170 29 -7 7 -17 12 -23 12 -6 0 -18 13 -28 29 -13 22 -15 35 -7 55 8
23 7 26 -13 26 -13 0 -28 -5 -34 -11z m315 -214 c18 -38 15 -120 -4 -139 -20
-21 -46 -7 -79 42 -28 44 -39 91 -23 109 6 7 29 13 53 13 35 0 44 -4 53 -25z"/>
<path d="M5355 1751 c-58 -10 -65 -17 -65 -67 0 -48 -5 -52 -35 -29 -83 62
-115 84 -134 90 -25 8 -28 -9 -5 -27 9 -7 32 -28 50 -45 18 -18 36 -33 41 -33
5 0 23 -12 40 -27 100 -88 120 -100 136 -84 8 8 5 19 -9 38 -24 33 -44 87 -44
118 0 27 17 35 72 35 32 0 39 3 36 18 -4 19 -25 23 -83 13z"/>
<path d="M5047 1556 c-3 -8 5 -34 19 -59 28 -54 29 -57 9 -57 -8 0 -18 12 -21
28 -9 38 -13 42 -29 35 -42 -16 22 -158 68 -151 19 3 22 10 25 56 3 56 9 61
47 36 20 -13 23 -22 20 -57 -2 -23 -1 -47 3 -53 12 -19 76 -54 98 -54 11 0 24
-3 28 -7 19 -20 82 -29 116 -18 44 15 53 50 18 65 -13 6 -54 28 -93 50 -38 22
-79 44 -90 49 -11 5 -36 23 -55 40 -19 17 -38 31 -42 31 -4 0 -28 18 -53 40
-50 43 -60 47 -68 26z"/>
<path d="M4313 1503 c-44 -3 -53 -7 -53 -23 0 -10 5 -22 11 -26 8 -5 4 -13
-11 -24 -19 -15 -21 -19 -9 -37 16 -26 61 -53 87 -53 23 0 82 48 82 68 0 7 7
20 15 28 18 19 19 25 3 47 -15 20 -52 26 -125 20z"/>
<path d="M3424 1472 c-16 -10 -80 -105 -114 -167 -16 -30 -35 -63 -42 -75 -11
-17 -11 -22 2 -30 23 -15 26 -13 51 38 13 26 25 49 27 51 4 8 105 -31 134 -51
14 -10 29 -18 33 -18 3 0 17 -8 29 -17 20 -15 22 -21 12 -43 -15 -33 -67 -79
-89 -80 -28 0 -14 -25 15 -28 28 -3 93 45 103 78 3 10 15 20 25 23 13 3 20 14
20 30 0 14 7 38 15 53 17 34 19 60 5 69 -16 10 -40 -15 -40 -42 0 -13 -7 -26
-15 -29 -18 -7 -71 12 -100 35 -11 9 -41 27 -67 41 -36 18 -48 30 -48 47 0 13
4 23 8 23 8 0 55 90 50 96 -2 1 -8 0 -14 -4z"/>
<path d="M4090 1264 c-8 -21 -5 -36 15 -76 14 -27 25 -58 25 -68 0 -19 19 -30
51 -30 10 0 19 -4 19 -9 0 -15 53 -18 81 -4 37 17 57 103 24 103 -8 0 -15 -9
-15 -19 0 -34 -11 -51 -34 -51 -26 0 -76 44 -77 68 -3 75 -22 112 -55 112 -17
0 -27 -8 -34 -26z"/>
<path d="M4830 1043 c-8 -3 -23 -13 -33 -21 -19 -17 -17 -55 5 -100 12 -22
127 -92 153 -92 18 0 35 31 35 65 0 47 -63 145 -93 145 -7 0 -21 2 -32 5 -11
2 -27 1 -35 -2z"/>
<path d="M3725 1020 c-9 -15 25 -72 68 -112 30 -29 38 -42 34 -60 -7 -26 8
-48 34 -48 11 0 29 -11 41 -25 12 -14 29 -25 39 -25 31 0 50 -12 60 -36 5 -16
17 -24 32 -24 48 0 52 31 14 105 -8 17 -25 49 -37 73 -12 24 -19 46 -15 50 4
4 45 6 91 5 l84 -2 0 28 0 28 -92 -5 c-79 -4 -97 -9 -121 -28 -35 -29 -47 -30
-78 -3 -98 86 -137 106 -154 79z"/>
<path d="M3807 670 c-8 -65 -13 -73 -38 -59 -11 6 -28 12 -37 14 -9 2 -25 6
-34 10 -12 5 -20 2 -24 -9 -9 -23 14 -46 45 -46 26 -1 61 -20 61 -35 0 -5 -7
-16 -16 -26 -17 -19 -12 -39 10 -39 8 0 21 11 30 25 21 32 34 31 83 -4 50 -36
76 -42 81 -19 2 12 -16 28 -62 55 l-66 37 0 73 c0 55 -3 73 -14 73 -8 0 -15
-17 -19 -50z"/>
<path d="M4607 533 c-14 -13 -6 -42 16 -60 25 -20 57 -67 57 -83 0 -5 -37 10
-83 35 -86 46 -126 55 -145 32 -6 -7 -15 -42 -19 -77 -7 -58 -11 -65 -30 -66
-12 -1 -39 10 -58 23 -34 23 -65 25 -65 5 0 -4 34 -25 75 -45 76 -38 85 -50
65 -88 -6 -11 -8 -24 -5 -30 9 -14 35 9 35 31 0 23 26 45 35 30 3 -5 14 -10
24 -10 10 0 24 -6 30 -14 17 -20 62 -30 72 -15 12 20 -1 36 -34 42 -18 3 -49
13 -69 21 -33 14 -38 21 -39 49 0 17 -1 49 -2 70 -1 20 0 37 3 38 3 0 14 2 25
4 18 4 120 -47 127 -63 6 -14 64 -41 75 -34 24 16 25 55 2 103 -12 27 -20 52
-16 55 3 4 35 1 71 -6 71 -13 86 -9 86 22 0 17 -4 19 -32 14 -18 -3 -60 1 -93
9 -67 16 -98 18 -108 8z"/>
</g>
</svg>
