<?xml version="1.0" standalone="no"?>
<!DOCTYPE svg PUBLIC "-//W3C//DTD SVG 20010904//EN"
 "http://www.w3.org/TR/2001/REC-SVG-20010904/DTD/svg10.dtd">
<svg version="1.0" xmlns="http://www.w3.org/2000/svg"
 width="914.000000pt" height="1164.000000pt" viewBox="0 0 914.000000 1164.000000"
 preserveAspectRatio="xMidYMid meet">

<g transform="translate(0.000000,1164.000000) scale(0.100000,-0.100000)"
fill="#000000" stroke="none">
<path d="M2910 11278 c0 -6 7 -20 17 -30 21 -24 6 -61 -36 -82 -31 -16 -47
-48 -36 -67 4 -6 27 -19 51 -29 53 -23 56 -42 10 -58 -62 -23 -56 -65 12 -76
55 -10 72 -16 72 -27 0 -13 -77 -59 -100 -59 -30 0 -24 -27 8 -35 15 -3 50
-20 79 -37 83 -50 83 -78 -2 -78 -30 0 -57 -5 -60 -10 -11 -17 15 -40 45 -40
26 0 60 -26 60 -47 0 -16 -59 -24 -83 -12 -12 7 -32 23 -44 38 -22 26 -22 26
-23 3 0 -26 38 -62 83 -78 50 -17 111 3 115 38 2 15 -2 36 -8 48 -8 16 -7 25
5 42 8 13 15 32 15 43 0 26 -42 66 -92 89 -21 9 -38 20 -38 24 0 5 21 16 46
27 51 21 72 48 53 71 -6 8 -17 14 -25 14 -20 0 -64 22 -64 32 0 4 16 16 35 25
45 22 45 54 0 64 -33 7 -95 37 -95 46 0 3 15 20 34 37 44 40 52 75 25 110 -21
26 -59 36 -59 14z"/>
<path d="M3066 10401 c-3 -5 6 -21 19 -35 28 -31 29 -35 13 -71 -13 -29 -28
-34 -21 -7 7 27 -69 102 -104 102 -39 0 -55 -67 -28 -120 21 -42 53 -60 103
-60 36 0 49 5 73 31 30 32 31 57 7 122 -14 35 -50 58 -62 38z m-36 -113 c0
-13 -8 -18 -25 -18 -28 0 -52 37 -41 65 5 14 9 13 36 -6 16 -13 30 -31 30 -41z"/>
<path d="M3352 10208 c3 -13 7 -29 9 -37 2 -9 -5 -17 -16 -19 -26 -6 -46 -22
-39 -33 3 -5 23 -9 44 -9 31 0 43 -6 59 -29 12 -16 21 -33 21 -39 0 -5 7 -15
15 -22 12 -10 19 -10 27 -2 9 9 6 22 -11 52 -17 31 -19 41 -9 45 57 20 68 26
68 40 0 20 -28 31 -43 16 -12 -12 -57 -15 -72 -3 -6 4 -16 19 -22 35 -15 33
-37 36 -31 5z"/>
<path d="M2916 10161 c-7 -11 3 -41 13 -41 11 0 42 -58 34 -63 -5 -2 -32 -12
-61 -22 -30 -10 -51 -22 -49 -28 4 -13 29 -14 100 -4 46 6 47 6 47 -19 0 -22
4 -25 28 -22 21 2 27 8 27 28 0 24 3 25 65 25 72 1 113 17 108 43 -3 15 -16
17 -104 13 l-101 -3 -34 37 c-19 20 -38 43 -42 51 -9 16 -23 18 -31 5z"/>
<path d="M3813 10054 c-22 -9 -14 -33 12 -40 34 -8 57 2 53 23 -3 18 -40 27
-65 17z"/>
<path d="M3614 9968 c25 -61 28 -87 15 -116 -21 -48 -63 -49 -129 -2 -30 21
-47 67 -31 83 14 14 63 -8 90 -39 21 -24 41 -32 41 -15 0 13 -75 78 -99 86
-47 15 -67 -45 -36 -106 20 -38 86 -79 127 -79 52 1 78 29 78 84 0 57 -23 116
-45 116 -9 0 -14 -5 -11 -12z"/>
<path d="M3877 9883 c-4 -3 -7 -14 -7 -24 0 -10 -12 -21 -30 -28 -45 -15 -39
-43 15 -70 57 -29 62 -37 25 -50 -17 -5 -30 -12 -30 -15 0 -3 17 -10 39 -16
50 -13 133 -86 129 -113 -4 -30 -33 -45 -58 -29 -24 15 -57 16 -65 1 -7 -10
24 -53 33 -44 7 6 56 -21 71 -39 12 -14 10 -16 -15 -16 -41 0 -105 25 -121 46
-10 13 -13 14 -13 3 0 -30 46 -67 109 -88 82 -27 107 -27 122 0 9 18 6 27 -18
57 l-28 37 22 22 c39 38 26 70 -60 141 -26 21 -27 23 -12 46 15 23 15 26 -6
45 -13 12 -30 21 -40 21 -29 0 -32 30 -4 40 35 13 32 45 -7 64 -35 18 -42 19
-51 9z"/>
<path d="M2261 9862 c-8 -15 -6 -23 9 -37 35 -31 24 -40 -67 -55 -63 -11 -130
-40 -205 -92 -81 -55 -101 -101 -56 -132 25 -18 123 -22 133 -6 3 6 14 10 23
10 22 1 87 33 131 65 20 15 37 21 41 16 3 -6 30 -16 59 -24 50 -13 121 -58
121 -77 0 -5 -17 -10 -37 -12 -48 -4 -53 -24 -11 -45 42 -23 146 -125 156
-155 12 -34 3 -58 -25 -69 -38 -14 -24 -41 39 -71 53 -25 85 -58 71 -72 -3 -3
-19 -6 -35 -6 -23 0 -28 -4 -28 -25 0 -20 5 -25 25 -25 26 0 85 -25 85 -36 0
-9 -83 7 -94 17 -14 13 -26 11 -26 -4 0 -22 90 -61 140 -61 38 -1 45 2 48 20
2 14 -8 31 -29 48 -28 23 -30 31 -24 62 6 32 2 39 -30 70 -20 19 -42 34 -49
34 -23 0 -36 22 -25 43 7 11 8 38 4 65 -6 40 -16 55 -70 108 -53 52 -61 65
-49 75 21 17 17 46 -12 85 l-27 35 23 24 c35 37 16 68 -64 106 -52 25 -67 37
-81 69 -10 22 -26 47 -36 56 -16 14 -18 14 -28 -4z m19 -121 c0 -21 -93 -102
-151 -131 -76 -39 -175 -53 -185 -26 -10 26 20 60 86 95 95 51 250 89 250 62z
m127 -31 c6 0 33 -33 33 -40 0 -23 -39 -29 -89 -14 -28 8 -51 18 -51 21 0 4 9
17 21 29 17 19 26 21 52 13 18 -5 33 -9 34 -9z"/>
<path d="M3112 9622 c-11 -15 -24 -43 -30 -62 -6 -24 -14 -34 -25 -32 -8 1
-18 -2 -21 -6 -8 -13 39 -62 59 -62 18 0 36 40 29 66 -6 23 30 84 50 84 28 0
66 -41 66 -70 0 -29 -5 -37 -45 -65 -20 -14 -20 -14 2 -15 77 -1 107 94 52
164 -17 22 -29 26 -69 26 -42 0 -51 -4 -68 -28z"/>
<path d="M3283 9360 c-23 -10 -46 -43 -36 -54 9 -9 76 -7 91 3 8 4 12 19 10
32 -3 26 -29 34 -65 19z"/>
<path d="M4056 9301 c-4 -5 -3 -16 0 -25 5 -13 -2 -16 -42 -17 -27 -1 -55 0
-63 1 -8 1 -34 -1 -58 -5 -34 -5 -43 -10 -41 -23 3 -14 21 -18 108 -23 121 -7
153 1 158 43 4 34 -47 74 -62 49z"/>
<path d="M3414 9224 c6 -21 0 -33 -34 -66 -30 -31 -40 -48 -38 -67 3 -28 27
-38 96 -40 38 -1 42 -3 33 -20 -6 -10 -39 -29 -73 -41 -35 -13 -74 -34 -88
-47 l-25 -25 35 5 c35 5 145 43 208 73 66 31 52 65 -36 83 -90 18 -94 25 -44
69 50 44 53 65 10 86 -43 22 -51 20 -44 -10z"/>
<path d="M3970 9115 c-6 -8 -13 -29 -13 -47 -2 -26 4 -36 33 -55 32 -22 41
-24 125 -18 137 9 245 26 294 47 41 17 43 20 29 35 -14 14 -25 14 -85 3 -37
-6 -90 -18 -117 -26 -73 -21 -86 -19 -93 17 -4 23 -15 35 -39 45 -44 19 -118
18 -134 -1z m100 -50 c0 -8 -7 -15 -15 -15 -8 0 -15 -4 -15 -10 0 -16 -20 -12
-27 6 -3 9 0 20 8 25 22 14 49 10 49 -6z"/>
<path d="M2815 8720 c-8 -49 -40 -74 -79 -64 -31 7 -34 -6 -6 -31 14 -13 28
-16 54 -11 35 7 76 46 76 72 0 22 15 16 43 -16 15 -16 32 -30 37 -30 11 0 37
48 29 53 -2 2 -21 17 -42 35 -26 22 -48 32 -71 32 -32 0 -35 -3 -41 -40z"/>
<path d="M2805 8601 c-3 -5 13 -38 35 -72 22 -34 38 -65 35 -69 -3 -4 -15 -10
-27 -13 -49 -12 -102 -35 -106 -47 -5 -13 59 -10 136 6 25 5 32 3 32 -9 0 -8
7 -18 15 -21 11 -4 17 3 22 25 6 33 33 49 83 49 31 0 46 24 34 54 -8 21 -32
20 -69 -4 -41 -27 -68 -25 -96 6 -13 15 -34 37 -46 51 -13 13 -23 28 -23 33 0
14 -18 22 -25 11z"/>
<path d="M4499 8582 c-64 -32 -89 -53 -89 -76 0 -23 21 -30 26 -10 7 27 45 52
98 66 48 13 77 4 121 -35 25 -23 10 -50 -31 -57 -20 -4 -29 -11 -29 -25 0 -11
7 -21 15 -22 67 -8 91 -17 116 -39 40 -38 16 -65 -84 -95 -50 -15 -49 -18 7
-24 39 -3 111 -38 111 -53 0 -4 10 -12 22 -17 11 -6 28 -20 36 -32 14 -23 14
-23 -29 -17 -35 5 -52 1 -81 -15 -34 -21 -53 -58 -39 -79 22 -33 127 -47 184
-24 25 11 27 16 27 64 0 48 -3 56 -42 95 -23 24 -46 43 -51 43 -4 0 -19 11
-33 24 l-26 23 31 35 c17 20 31 42 31 50 0 15 -44 58 -59 58 -21 0 -32 28 -20
53 16 36 -2 76 -46 104 -56 37 -101 38 -166 5z m307 -493 c8 -6 14 -15 14 -19
0 -11 -59 -21 -86 -14 -23 6 -32 32 -16 48 9 10 70 0 88 -15z"/>
<path d="M2220 8592 c0 -5 11 -19 25 -32 31 -29 33 -77 5 -113 -33 -41 -26
-64 25 -89 50 -24 57 -51 15 -56 -40 -5 -90 -23 -90 -32 0 -5 10 -11 23 -15
61 -17 131 -54 170 -90 41 -38 46 -53 20 -62 -10 -3 -25 -12 -34 -20 -16 -14
-49 -8 -49 8 0 17 -83 89 -101 89 -24 0 -37 -28 -30 -65 5 -24 16 -35 55 -55
55 -26 159 -40 170 -21 12 19 37 12 87 -25 61 -45 78 -72 55 -89 -19 -14 -11
-25 19 -25 24 0 45 17 45 37 0 18 -75 98 -116 124 -20 12 -34 29 -34 40 0 37
-58 119 -84 119 -6 1 -22 10 -35 20 l-24 20 27 25 c14 13 26 29 26 35 0 12
-33 45 -71 71 -24 16 -24 17 -6 53 30 64 22 92 -40 134 -32 23 -53 28 -53 14z
m55 -477 l30 -25 -25 0 c-28 0 -50 16 -50 37 0 19 11 16 45 -12z"/>
<path d="M3644 8589 c-3 -6 -2 -14 3 -18 5 -3 24 -30 42 -60 l33 -54 -24 -19
c-12 -9 -28 -18 -34 -18 -6 0 -51 -26 -100 -58 -125 -82 -152 -129 -98 -171
61 -48 187 -13 287 81 l52 49 80 3 c90 3 121 15 136 53 7 20 6 30 -8 46 -27
29 -60 40 -143 46 l-74 6 -30 44 c-24 36 -31 41 -36 27 -5 -15 -10 -12 -30 18
-26 37 -43 45 -56 25z m93 -121 c-3 -8 -6 -5 -6 6 -1 11 2 17 5 13 3 -3 4 -12
1 -19z m222 -63 c23 -23 4 -34 -77 -41 l-72 -7 0 38 0 38 67 -6 c39 -4 73 -13
82 -22z m-199 -19 c0 -28 -10 -44 -50 -85 -60 -61 -96 -80 -158 -87 -60 -7
-91 11 -73 44 18 34 195 142 232 142 11 0 19 5 19 10 0 6 7 10 15 10 10 0 15
-10 15 -34z"/>
<path d="M3090 8320 c-11 -11 -20 -28 -20 -38 0 -29 -29 -62 -55 -62 -28 0
-48 30 -38 56 4 12 2 15 -8 12 -25 -8 -21 -44 10 -76 48 -53 100 -39 131 34
21 49 27 51 70 29 40 -21 38 -35 -4 -35 -41 0 -57 -17 -24 -24 62 -14 85 -10
98 14 13 25 -15 66 -63 92 -43 23 -73 22 -97 -2z"/>
<path d="M4053 8209 c7 -27 -8 -49 -34 -49 -20 0 -69 -58 -69 -81 0 -21 36
-49 73 -56 53 -10 70 -22 56 -39 -9 -11 -9 -18 -1 -26 16 -16 97 32 97 57 0
17 -13 23 -82 39 -105 25 -109 42 -20 83 64 31 64 68 -2 88 -21 6 -23 5 -18
-16z"/>
<path d="M3163 8067 c-39 -13 -63 -26 -63 -35 0 -15 9 -15 93 9 44 12 51 12
85 -6 57 -31 54 -74 -5 -75 -30 0 -29 -16 2 -36 32 -21 58 -11 79 29 14 25 16
40 9 67 -16 61 -98 81 -200 47z"/>
<path d="M4967 7984 c-4 -4 -4 -16 -2 -28 4 -15 -9 -36 -45 -76 -66 -72 -64
-92 10 -104 46 -7 51 -10 33 -17 -28 -10 -30 -35 -3 -42 22 -6 99 9 115 23 5
4 21 10 35 12 19 2 25 9 25 28 0 24 -2 25 -75 28 -88 2 -120 9 -120 22 0 6 16
27 35 47 36 38 45 79 23 101 -14 14 -22 15 -31 6z"/>
<path d="M2403 7913 c-32 -12 7 -59 62 -74 l40 -11 -47 -15 c-61 -20 -72 -43
-20 -43 48 0 189 36 220 56 20 13 21 18 11 31 -10 11 -25 14 -55 10 -62 -7
-144 9 -169 33 -23 21 -23 21 -42 13z"/>
<path d="M4207 7871 c-33 -26 -56 -37 -71 -34 -19 4 -25 -1 -30 -22 -4 -17
-18 -31 -41 -41 -44 -18 -63 -49 -38 -63 19 -10 163 -22 276 -23 48 -1 72 3
77 13 15 23 1 29 -61 29 -50 0 -66 4 -95 28 -18 15 -34 30 -34 34 0 4 22 19
49 34 54 29 68 49 50 70 -17 20 -29 17 -82 -25z m-54 -128 c-7 -2 -19 -2 -25
0 -7 3 -2 5 12 5 14 0 19 -2 13 -5z"/>
<path d="M3307 7853 c-3 -4 -7 -37 -8 -73 l-4 -64 35 -11 c19 -6 44 -15 55
-21 40 -22 119 27 113 69 -4 28 -30 33 -70 13 -17 -9 -44 -16 -59 -16 -27 0
-28 2 -31 52 -3 46 -18 72 -31 51z"/>
<path d="M1851 7756 c-10 -12 -5 -21 28 -54 85 -84 126 -206 83 -245 -25 -23
-42 -21 -42 3 0 40 -72 54 -108 20 -64 -60 24 -133 122 -100 50 16 106 84 106
128 0 54 -44 132 -113 201 -54 53 -66 60 -76 47z m32 -320 c4 -10 0 -12 -14
-9 -27 7 -34 23 -11 23 11 0 22 -6 25 -14z"/>
<path d="M2642 7734 c-22 -15 -52 -63 -52 -84 0 -5 9 -19 20 -30 17 -17 29
-19 78 -14 92 9 122 22 122 49 0 59 -41 95 -110 95 -19 0 -46 -7 -58 -16z m76
-25 c34 -12 50 -38 30 -51 -20 -12 -82 -9 -102 5 -18 13 -17 15 9 35 15 12 29
22 30 22 1 0 16 -5 33 -11z"/>
<path d="M4420 7715 c0 -8 7 -15 15 -15 8 0 15 7 15 15 0 8 -7 15 -15 15 -8 0
-15 -7 -15 -15z"/>
<path d="M3445 7651 c-3 -5 17 -27 44 -48 43 -33 71 -69 71 -90 0 -11 -101 6
-122 22 -41 28 -85 14 -60 -20 19 -27 168 -71 203 -60 18 6 23 25 20 70 -2 19
-46 65 -109 113 -34 25 -38 26 -47 13z"/>
<path d="M5770 7538 c-14 -6 -70 -32 -125 -58 -100 -48 -211 -94 -252 -105
-36 -10 -42 -55 -7 -55 21 0 74 -29 74 -39 0 -5 -15 -13 -32 -16 -35 -8 -58
-22 -58 -36 0 -16 123 -7 147 10 26 18 31 61 8 61 -8 0 -15 3 -15 8 0 4 -10
12 -21 17 -41 19 -32 28 61 65 30 13 82 36 115 52 33 17 71 33 85 38 14 4 33
11 42 15 13 5 20 0 28 -20 8 -21 6 -34 -13 -65 -28 -50 -42 -55 -84 -30 -32
19 -33 19 -23 1 13 -24 59 -61 76 -61 31 0 84 102 84 162 0 62 -31 81 -90 56z"/>
<path d="M2735 7528 c-4 -9 1 -30 11 -47 17 -29 17 -31 1 -49 -16 -17 -15 -51
2 -53 3 0 41 -1 83 -3 43 -1 80 -5 84 -9 4 -3 -13 -14 -36 -23 -39 -16 -41
-18 -24 -31 26 -19 49 -16 94 12 29 18 40 32 40 50 0 33 -14 39 -105 43 -44 2
-81 5 -83 7 -2 2 -5 14 -6 28 -2 14 -8 31 -15 38 -6 8 -18 23 -26 34 -12 18
-14 18 -20 3z"/>
<path d="M1927 7333 c-3 -5 -9 -36 -12 -69 -7 -56 -6 -61 17 -76 13 -9 59 -19
101 -23 85 -8 127 7 127 45 0 18 -7 19 -102 17 l-103 -2 0 54 c0 49 -14 76
-28 54z"/>
<path d="M2898 7229 c-30 -17 -21 -56 22 -99 37 -37 39 -40 21 -50 -11 -5 -34
-10 -51 -10 -61 0 -175 -34 -165 -50 4 -7 16 -6 175 16 134 19 172 37 184 86
12 47 -1 63 -72 95 -57 25 -87 28 -114 12z m110 -47 c34 -18 41 -42 18 -61
-19 -16 -66 7 -90 44 -30 46 0 53 72 17z"/>
<path d="M4782 7229 c-30 -11 -28 -43 4 -58 22 -10 30 -9 44 4 36 32 0 72 -48
54z"/>
<path d="M5484 7199 c-8 -13 13 -29 39 -29 9 0 17 -6 17 -14 0 -16 -49 -32
-189 -62 l-83 -19 33 -13 c66 -27 329 35 329 78 0 11 -21 27 -59 44 -65 29
-77 31 -87 15z"/>
<path d="M2208 7138 c-4 -8 -20 -18 -37 -21 -24 -5 -31 -12 -31 -30 0 -13 -13
-36 -30 -52 -16 -16 -30 -32 -30 -36 0 -11 57 -69 68 -69 6 0 14 -10 17 -21 8
-26 -5 -35 -57 -44 -38 -7 -68 -38 -48 -50 12 -7 74 2 114 17 25 10 31 9 47
-13 10 -13 19 -31 19 -40 0 -27 24 -41 43 -26 16 11 16 15 -3 49 -27 51 -25
66 8 74 54 12 59 15 72 38 26 49 -13 75 -54 38 -12 -10 -36 -25 -54 -32 -32
-12 -34 -11 -72 26 -22 22 -40 45 -40 51 0 7 16 21 36 30 19 10 44 32 55 49
19 31 19 32 1 54 -15 19 -20 20 -24 8z"/>
<path d="M3920 7090 c0 -5 -6 -10 -14 -10 -7 0 -19 -7 -27 -16 -18 -22 0 -48
37 -54 16 -3 30 -12 32 -22 5 -28 -59 -34 -108 -10 l-40 19 0 -21 c0 -13 11
-28 28 -38 36 -22 144 -27 166 -9 21 18 20 62 -2 92 -10 13 -23 36 -30 52 -11
26 -42 38 -42 17z"/>
<path d="M4818 7030 c-76 -39 -99 -73 -76 -109 7 -12 16 -21 20 -21 5 0 8 -9
8 -20 0 -10 9 -24 20 -30 28 -15 25 -26 -10 -39 -24 -8 -30 -16 -30 -40 0 -26
6 -33 38 -47 20 -8 58 -18 83 -21 39 -5 50 -2 68 16 12 12 19 26 15 32 -4 7 1
9 12 7 32 -6 23 -44 -16 -70 -52 -35 -52 -69 0 -101 l41 -24 -31 -20 -32 -20
32 -7 c38 -7 103 8 120 29 22 26 7 47 -45 62 -60 18 -71 32 -42 52 34 23 57
52 57 71 0 21 -58 75 -92 86 -13 4 -39 18 -58 33 -19 14 -37 27 -39 28 -3 2 7
16 21 31 36 38 71 121 58 137 -21 25 -55 21 -122 -15z m62 -45 c0 -23 -29 -75
-41 -75 -20 0 -49 21 -49 35 0 16 56 55 78 55 6 0 12 -7 12 -15z m4 -201 c3
-9 4 -20 0 -25 -7 -12 -45 -11 -64 1 -13 9 -12 12 4 25 26 20 52 19 60 -1z"/>
<path d="M1944 7045 c-4 -8 -3 -27 1 -43 4 -15 8 -38 9 -52 1 -15 8 -26 18
-28 28 -5 33 40 9 92 -21 49 -28 55 -37 31z"/>
<path d="M5640 7005 c0 -10 55 -54 68 -55 6 0 12 -4 12 -10 0 -5 5 -10 10 -10
15 0 60 -50 60 -65 0 -7 -6 -18 -14 -24 -11 -10 -26 -6 -68 18 -79 45 -124 48
-173 13 -34 -23 -40 -34 -40 -62 0 -31 5 -37 45 -57 52 -27 88 -29 149 -7 140
48 180 118 105 184 -20 17 -48 37 -63 43 -14 7 -32 17 -39 24 -13 13 -52 18
-52 8z m-5 -150 c48 -13 85 -39 76 -54 -4 -7 -38 -17 -74 -24 -53 -9 -71 -8
-92 3 -33 18 -32 51 3 72 27 17 34 17 87 3z"/>
<path d="M4070 6856 c0 -8 9 -20 20 -26 32 -17 53 -57 46 -85 -10 -38 -34 -31
-103 30 -33 30 -68 55 -77 55 -20 0 -20 -6 2 -28 32 -34 52 -62 52 -72 0 -5
-26 -7 -62 -4 -56 5 -64 4 -75 -14 -10 -17 -8 -26 17 -60 16 -22 48 -59 72
-82 40 -38 43 -39 46 -20 2 13 -6 33 -21 49 -23 24 -47 63 -47 75 0 8 112 -5
132 -15 22 -12 94 26 121 63 17 23 18 31 7 57 -22 53 -130 117 -130 77z"/>
<path d="M2427 6823 c-9 -9 22 -43 39 -43 28 0 -8 -48 -47 -63 -45 -18 -55
-53 -16 -61 67 -14 77 -17 77 -27 0 -5 -14 -16 -31 -23 l-32 -13 34 -6 c38 -7
100 10 131 37 35 31 19 41 -102 65 -3 1 12 13 33 28 50 35 46 59 -13 89 -48
25 -62 28 -73 17z"/>
<path d="M3060 6706 c0 -9 9 -30 20 -48 l19 -32 -31 -13 c-16 -7 -39 -13 -49
-13 -28 0 -137 -48 -175 -76 -33 -26 -49 -63 -39 -94 6 -19 71 -50 106 -50 35
0 117 31 135 51 19 21 108 28 119 9 3 -5 16 -10 29 -10 29 0 122 -78 131 -109
4 -17 0 -30 -16 -48 -27 -28 -21 -36 51 -74 67 -36 79 -62 36 -79 -26 -9 -44
-47 -29 -59 4 -4 35 -18 68 -30 69 -26 105 -47 105 -63 0 -7 -13 -8 -39 -4
-31 5 -43 2 -64 -17 l-25 -22 17 -45 c22 -60 63 -79 199 -96 92 -11 112 38 40
100 -24 20 -46 36 -50 36 -3 0 -4 9 -1 20 8 31 -32 76 -96 107 l-60 30 15 27
c7 16 14 36 14 46 0 22 -42 64 -81 80 -27 11 -30 17 -26 44 6 42 -16 89 -59
124 -36 30 -39 52 -5 52 23 0 41 20 41 46 0 26 -46 74 -71 74 -10 0 -36 6 -56
14 -21 8 -50 17 -65 20 -19 4 -32 19 -48 51 -23 48 -60 79 -60 51z m34 -135
c3 -5 -5 -20 -18 -34 -14 -15 -27 -34 -30 -44 -11 -35 -120 -70 -181 -59 -27
5 -35 12 -35 28 0 22 26 58 43 58 5 0 25 7 45 16 66 29 77 33 97 37 36 8 74 7
79 -2z m106 -14 c51 -19 100 -46 100 -57 0 -21 -72 -36 -91 -18 -8 7 -26 19
-41 27 -29 15 -37 46 -15 54 6 3 12 6 12 6 0 0 16 -5 35 -12z m316 -653 c80
-12 159 -74 94 -74 -36 0 -133 30 -152 46 -21 20 -24 49 -4 41 7 -3 35 -9 62
-13z"/>
<path d="M5730 6670 c0 -5 6 -13 14 -17 22 -13 38 -52 28 -70 -14 -24 -3 -53
22 -57 11 -3 50 -7 86 -10 36 -3 73 -8 82 -11 16 -7 65 31 54 42 -3 3 -38 7
-78 9 -107 6 -118 10 -118 42 0 32 -7 42 -42 65 -30 19 -48 22 -48 7z"/>
<path d="M4137 6533 c-14 -14 -6 -24 33 -39 22 -9 45 -25 51 -36 9 -17 7 -19
-28 -14 -21 3 -51 9 -68 14 -30 9 -99 -3 -122 -20 -27 -21 41 -134 100 -165
40 -20 43 -11 10 28 -43 50 -65 88 -58 100 14 21 99 -7 139 -46 19 -20 46 -13
46 11 0 12 6 15 20 11 21 -5 60 26 60 48 0 25 -33 54 -95 84 -70 33 -78 35
-88 24z"/>
<path d="M2580 6506 c0 -7 20 -29 45 -47 47 -37 63 -74 45 -108 -14 -28 -25
-26 -68 10 -63 53 -156 74 -194 45 -28 -21 -22 -77 10 -102 50 -40 149 -55
219 -35 81 23 111 122 54 177 -64 64 -111 89 -111 60z m-60 -148 c68 -35 66
-53 -6 -44 -63 7 -91 25 -81 50 9 22 35 20 87 -6z"/>
<path d="M5124 6416 c-20 -19 -33 -40 -29 -45 11 -19 70 -12 93 9 22 21 30 60
13 60 -5 0 -16 3 -25 6 -9 4 -29 -8 -52 -30z"/>
<path d="M6060 6385 c-7 -8 -21 -15 -31 -15 -20 0 -56 -46 -45 -57 11 -11 100
16 114 35 26 35 -10 71 -38 37z"/>
<path d="M4989 6355 c-3 -2 -3 -20 -1 -40 3 -26 9 -35 23 -35 27 0 32 16 14
50 -15 28 -26 36 -36 25z"/>
<path d="M5256 6314 c-3 -9 -6 -25 -6 -37 0 -11 -14 -32 -32 -47 -40 -33 -34
-60 14 -60 18 0 49 -10 69 -23 31 -18 35 -26 29 -43 -11 -28 -65 -68 -112 -83
-40 -13 -63 -35 -53 -51 10 -15 45 -12 94 10 77 35 105 28 234 -55 47 -30 60
-58 31 -69 -20 -8 -134 23 -157 42 -25 22 -34 6 -15 -26 17 -28 117 -71 169
-72 35 0 79 36 79 65 0 45 -46 83 -179 146 -57 27 -62 32 -50 47 22 27 39 61
39 76 0 8 -20 24 -44 36 -62 30 -71 43 -51 74 21 32 15 50 -24 70 -26 14 -30
14 -35 0z"/>
<path d="M5847 6324 c-3 -3 -1 -17 4 -31 5 -14 7 -28 4 -33 -8 -13 16 -23 27
-12 8 8 7 20 -2 42 -13 33 -24 43 -33 34z"/>
<path d="M2046 6253 c-3 -4 0 -16 7 -27 22 -35 41 -106 31 -115 -5 -4 -33 -15
-61 -24 -49 -15 -128 -66 -180 -116 -49 -47 -38 -105 23 -117 52 -10 112 12
170 62 51 43 52 43 69 24 10 -12 31 -20 49 -20 35 -1 101 -30 101 -45 0 -6
-13 -10 -28 -10 -26 -1 -46 -18 -47 -38 0 -4 12 -13 28 -20 27 -12 56 -34 99
-74 30 -28 31 -78 2 -93 -32 -18 -22 -63 16 -70 56 -12 125 -59 125 -86 0 -18
-33 -26 -73 -19 -25 5 -37 2 -48 -11 -12 -15 -12 -18 3 -27 14 -10 14 -13 1
-33 -17 -27 -12 -31 65 -50 74 -17 110 -17 128 0 20 21 17 42 -10 63 -19 15
-23 28 -22 61 0 24 -4 46 -10 50 -6 4 -13 15 -17 25 -4 9 -15 20 -24 24 -10 4
-30 16 -45 26 -21 16 -25 24 -18 38 6 10 10 34 10 55 0 30 -8 45 -45 82 -47
47 -55 62 -31 62 34 0 35 67 1 82 -21 9 -25 18 -25 54 0 39 -3 44 -47 72 -27
16 -59 33 -73 37 -30 9 -40 22 -40 53 0 50 -64 145 -84 125z m24 -212 c0 -20
-49 -77 -94 -108 -67 -46 -137 -43 -121 6 7 22 84 81 107 81 7 0 22 7 32 15
21 16 76 21 76 6z m101 -23 c36 -12 51 -27 43 -40 -8 -12 -30 -10 -69 6 -25
11 -33 19 -29 30 7 19 11 19 55 4z m269 -618 c8 -5 11 -12 8 -15 -10 -10 -69
5 -62 16 7 12 35 11 54 -1z"/>
<path d="M5940 6230 c-12 -8 -8 -16 24 -49 44 -46 43 -65 -7 -86 -18 -7 -40
-22 -50 -33 -27 -30 1 -35 62 -11 63 24 71 24 71 1 0 -21 18 -42 37 -42 9 0
13 14 13 43 0 41 1 42 55 66 39 16 57 31 61 47 14 54 -23 58 -77 9 -22 -19
-48 -35 -59 -35 -11 0 -42 22 -68 50 -35 37 -51 47 -62 40z"/>
<path d="M4341 6181 c-19 -35 -5 -48 52 -47 51 1 52 2 52 31 0 29 -2 30 -47
33 -38 2 -49 -1 -57 -17z"/>
<path d="M2751 6093 c12 -21 28 -45 34 -53 7 -8 15 -32 19 -52 6 -35 5 -38
-17 -38 -43 0 -117 -31 -117 -49 0 -30 22 -41 86 -41 35 0 65 -4 69 -9 3 -6
-9 -26 -26 -46 -30 -33 -31 -37 -15 -54 9 -10 41 -26 72 -37 69 -23 93 -46 73
-70 -8 -10 -32 -26 -54 -36 -49 -23 -78 -40 -86 -52 -12 -16 3 -46 42 -81 22
-19 39 -39 39 -43 0 -5 -18 -16 -41 -25 -61 -24 -42 -41 38 -34 l63 6 25 -39
c41 -64 56 -46 30 36 -6 19 1 23 64 43 58 18 72 27 77 47 9 34 -1 40 -39 25
-18 -7 -57 -23 -87 -34 l-56 -21 -31 23 c-69 51 -66 90 9 113 41 12 88 58 88
85 0 24 -73 89 -114 103 -38 12 -45 30 -21 50 19 16 19 60 0 86 -8 10 -15 37
-15 60 0 31 -9 54 -40 97 -56 78 -111 109 -69 40z"/>
<path d="M4134 6059 c-9 -15 35 -49 53 -42 28 11 5 53 -28 53 -10 0 -21 -5
-25 -11z"/>
<path d="M6303 5999 c20 -11 37 -25 37 -32 0 -12 -52 -39 -97 -52 -14 -4 -23
-14 -23 -26 0 -20 7 -22 55 -19 24 2 30 -13 7 -16 -17 -2 -42 -17 -42 -25 0
-13 167 -11 191 1 28 16 24 49 -8 61 -16 5 -35 12 -43 15 -12 4 -11 7 5 16 23
13 35 28 35 45 0 17 -86 53 -124 53 l-31 -1 38 -20z"/>
<path d="M4403 6003 c-49 -9 -70 -87 -35 -129 25 -29 66 -44 122 -44 28 0 50
-4 50 -9 0 -27 49 -16 160 36 30 15 62 29 70 33 8 4 16 19 18 34 3 24 0 26
-32 26 -19 0 -38 -5 -41 -10 -15 -24 -126 -70 -169 -70 l-44 0 10 28 c16 43 3
77 -36 96 -19 9 -38 15 -43 15 -4 -1 -18 -4 -30 -6z m67 -61 c21 -17 21 -19 5
-35 -19 -20 -46 -22 -63 -5 -16 16 -15 23 4 42 20 20 27 20 54 -2z"/>
<path d="M3730 5838 c0 -23 3 -29 9 -19 8 12 4 51 -5 51 -2 0 -4 -15 -4 -32z"/>
<path d="M5574 5745 c-6 -15 17 -45 35 -45 5 0 19 -12 31 -27 l22 -28 -32 -13
c-26 -10 -31 -17 -28 -39 2 -19 11 -29 33 -36 16 -6 36 -17 45 -26 13 -13 13
-14 -4 -8 -10 4 -39 13 -65 19 -25 6 -51 19 -58 27 -8 10 -12 11 -13 4 -1 -34
126 -101 192 -102 32 -1 39 3 44 25 5 18 0 32 -17 50 -12 13 -28 24 -35 24
-23 0 -36 27 -24 50 7 12 9 33 6 46 -8 29 -44 64 -67 64 -9 0 -22 7 -29 15
-16 19 -29 19 -36 0z"/>
<path d="M6406 5751 c-7 -10 7 -22 49 -44 46 -24 105 -86 105 -112 0 -19 -26
-55 -33 -44 -1 2 -9 17 -17 33 -24 46 -79 84 -148 101 -63 16 -64 16 -88 -6
-23 -22 -31 -63 -16 -84 14 -20 88 -64 131 -80 24 -8 68 -15 98 -15 47 0 59 4
84 29 61 61 30 131 -85 195 -70 39 -72 40 -80 27z m-9 -123 c54 -26 108 -79
92 -89 -33 -20 -177 30 -199 70 -27 52 22 60 107 19z"/>
<path d="M1570 5686 c0 -8 4 -17 9 -20 10 -7 71 -130 71 -145 0 -5 -8 -12 -17
-14 -10 -3 -40 -11 -66 -17 -40 -11 -46 -15 -32 -23 10 -5 46 -7 81 -4 70 7
73 5 89 -57 15 -57 35 -58 35 -2 0 24 -4 56 -10 70 -6 18 -6 26 1 26 27 0 159
54 159 65 0 31 -41 26 -133 -14 -47 -20 -48 -20 -67 -1 -11 11 -20 26 -20 34
0 7 -12 26 -26 41 -14 15 -30 38 -35 51 -9 26 -39 33 -39 10z"/>
<path d="M3842 5434 c-15 -10 -22 -25 -22 -49 0 -18 -3 -40 -6 -49 -8 -21 -40
-20 -53 2 -6 9 -11 12 -11 5 0 -24 13 -44 41 -59 26 -13 30 -13 49 6 12 12 20
33 20 55 0 44 18 52 68 33 25 -9 43 -25 54 -48 10 -19 22 -35 28 -34 27 3 30
5 30 24 0 28 -52 82 -104 108 -51 26 -64 27 -94 6z"/>
<path d="M4940 5434 c1 -11 7 -36 14 -56 15 -41 12 -48 -18 -48 -12 0 -56 -11
-99 -24 -120 -37 -217 -113 -217 -170 0 -8 13 -24 29 -35 52 -37 156 -24 231
29 25 17 159 34 177 21 15 -10 53 -68 53 -80 0 -7 -10 -25 -21 -41 -27 -36
-20 -56 23 -65 18 -4 47 -16 64 -28 28 -18 30 -24 22 -43 -6 -13 -26 -30 -44
-39 -35 -16 -45 -44 -21 -62 6 -6 34 -15 61 -22 57 -14 95 -39 96 -63 0 -20
-13 -29 -54 -37 -21 -5 -32 -14 -37 -31 l-7 -25 -7 23 c-9 27 -17 28 -33 2
-16 -26 -2 -53 35 -69 15 -6 72 -12 127 -13 84 -3 100 -1 110 15 15 23 -3 51
-35 55 -40 6 -49 21 -43 63 6 34 3 41 -27 69 -19 17 -51 35 -72 41 l-37 10 25
43 c14 23 25 51 25 61 0 19 -67 85 -87 85 -9 0 -13 17 -13 56 0 48 -4 59 -30
86 -34 33 -35 37 -19 72 10 20 9 30 -4 50 -16 24 -69 56 -93 56 -7 0 -20 24
-28 54 -17 56 -46 96 -46 60z m10 -162 c0 -12 -34 -42 -49 -42 -31 0 -45 -17
-50 -61 -2 -11 -99 -49 -125 -49 -32 0 -68 34 -60 55 15 39 142 98 229 107 32
4 55 0 55 -10z m98 -14 c22 -22 13 -38 -22 -38 -39 0 -53 14 -36 35 15 18 42
19 58 3z m268 -659 c6 -10 -46 -12 -71 -3 -25 10 0 21 35 16 17 -2 33 -8 36
-13z"/>
<path d="M1855 5390 c4 -6 24 -19 46 -30 21 -11 39 -24 39 -29 0 -5 -21 -17
-47 -26 -69 -24 -78 -30 -78 -51 0 -17 26 -35 69 -49 29 -9 5 -27 -45 -34 -52
-7 -63 -28 -17 -33 54 -5 172 12 187 27 15 15 9 43 -11 49 -87 25 -97 30 -87
42 6 7 21 16 32 20 60 19 53 66 -14 99 -50 26 -85 33 -74 15z"/>
<path d="M5820 5335 c0 -8 -21 -23 -47 -35 -95 -42 -108 -78 -40 -108 23 -11
59 -22 80 -26 20 -4 37 -10 37 -13 0 -4 -12 -19 -26 -34 -14 -15 -24 -32 -20
-37 9 -14 230 -31 243 -18 3 3 2 17 -1 32 -7 25 -9 26 -61 19 l-53 -6 1 32 c2
38 -17 51 -105 70 -32 7 -58 18 -58 24 0 7 32 23 70 35 77 25 84 31 75 60 -5
16 -15 20 -51 20 -32 0 -44 -4 -44 -15z"/>
<path d="M3710 5321 c0 -6 5 -13 10 -16 6 -3 10 1 10 9 0 9 -4 16 -10 16 -5 0
-10 -4 -10 -9z"/>
<path d="M3955 5260 c-4 -6 14 -34 38 -63 55 -65 62 -85 41 -108 -25 -27 -36
-23 -64 23 -26 43 -87 88 -118 88 -23 0 -62 -36 -62 -57 0 -32 43 -86 84 -104
47 -21 130 -24 165 -6 14 6 33 26 44 44 17 30 17 33 1 65 -16 30 -105 128
-117 128 -3 0 -9 -5 -12 -10z m-24 -159 c24 -30 20 -34 -24 -26 -39 8 -73 46
-63 71 5 13 10 13 37 -3 17 -10 40 -29 50 -42z"/>
<path d="M6740 5214 c0 -3 18 -26 40 -51 22 -25 40 -49 40 -52 -1 -15 -28 -39
-72 -65 -78 -46 -71 -69 25 -80 31 -3 75 -13 98 -22 l40 -17 -28 -18 c-15 -11
-42 -21 -59 -25 -16 -3 -35 -14 -42 -24 -10 -16 -8 -20 11 -26 12 -5 25 -7 29
-6 20 5 117 -23 150 -44 21 -13 42 -24 47 -24 6 0 15 -9 20 -19 16 -29 -10
-45 -65 -38 -54 6 -71 -15 -36 -44 12 -9 22 -24 22 -32 0 -29 92 -77 146 -77
35 0 50 35 28 68 -10 15 -26 34 -36 42 -16 13 -18 20 -9 43 6 16 11 32 11 36
0 19 -49 62 -87 75 -23 8 -53 22 -68 32 l-26 17 25 24 c30 28 33 44 9 65 -27
23 -83 48 -108 48 -34 0 -36 10 -10 45 14 17 25 38 25 46 0 22 -56 106 -79
118 -22 12 -41 14 -41 5z m306 -589 c18 -15 18 -15 -5 -13 -14 2 -26 9 -29 16
-5 17 10 15 34 -3z"/>
<path d="M3180 5110 c0 -6 9 -30 21 -55 26 -56 21 -72 -28 -81 -66 -11 -178
-68 -202 -103 -29 -40 -24 -62 19 -84 40 -21 96 -18 149 9 19 9 46 16 60 16
14 -1 60 -3 103 -4 42 -2 80 -6 84 -11 4 -4 -9 -25 -30 -46 -34 -35 -36 -40
-22 -54 9 -8 30 -18 48 -22 39 -8 118 -52 118 -65 0 -14 -42 -40 -65 -40 -21
0 -45 -17 -45 -32 0 -11 56 -38 79 -38 43 0 151 -66 151 -92 0 -5 -21 2 -47
15 -40 20 -54 22 -83 15 -47 -13 -60 -25 -60 -58 0 -35 25 -56 80 -69 77 -18
99 -14 136 23 34 34 44 75 26 103 -12 19 -95 73 -113 73 -9 0 -22 7 -29 15
-11 13 -10 18 6 30 10 8 22 15 25 15 14 0 18 31 8 53 -13 27 -82 77 -108 77
-33 0 -43 23 -27 61 9 22 11 41 5 57 -6 14 -5 31 1 42 18 34 2 67 -46 89 -24
12 -53 21 -63 21 -46 0 -69 19 -99 84 -27 58 -52 85 -52 56z m40 -180 c0 -34
-27 -61 -86 -84 -70 -28 -95 -31 -125 -16 -16 9 -17 15 -8 31 22 42 219 104
219 69z m110 -10 c11 -7 5 -10 -22 -10 -21 0 -38 5 -38 10 0 13 40 13 60 0z
m45 -20 c3 -5 1 -10 -4 -10 -6 0 -11 5 -11 10 0 6 2 10 4 10 3 0 8 -4 11 -10z
m160 -514 c38 -16 47 -36 15 -36 -16 0 -65 17 -80 28 -4 3 20 21 28 22 1 0 18
-7 37 -14z"/>
<path d="M2550 5098 c0 -7 21 -47 45 -88 25 -41 45 -85 45 -97 0 -22 -3 -23
-37 -17 -21 4 -46 11 -55 15 -49 26 -108 -11 -108 -68 0 -51 63 -103 126 -103
40 0 100 36 112 67 15 39 21 132 10 140 -6 3 -16 21 -24 39 -8 19 -18 34 -22
34 -5 0 -23 20 -42 45 -34 45 -50 56 -50 33z m10 -234 c51 -20 69 -49 41 -64
-23 -12 -81 -13 -97 -2 -21 14 -33 46 -23 64 12 22 27 23 79 2z"/>
<path d="M1910 5081 c0 -5 15 -21 33 -36 35 -30 55 -75 32 -75 -7 0 -32 7 -55
15 -55 20 -85 19 -121 -2 -39 -23 -34 -41 20 -71 62 -34 148 -29 191 13 45 43
39 71 -23 123 -49 40 -77 52 -77 33z m-14 -126 c21 -16 19 -17 -41 -20 -36 -2
-54 7 -55 28 0 13 76 7 96 -8z"/>
<path d="M3980 4948 c0 -7 25 -40 54 -72 30 -33 52 -65 49 -73 -3 -7 -29 -20
-59 -29 -31 -9 -54 -21 -54 -29 0 -22 16 -26 62 -14 83 21 98 22 99 8 1 -8 2
-21 3 -29 0 -8 8 -16 18 -18 20 -4 32 29 24 63 -5 20 -1 25 32 36 20 6 42 15
47 20 6 4 30 11 53 15 49 8 56 16 48 50 -7 27 -37 32 -56 10 -6 -8 -28 -20
-48 -27 -20 -6 -41 -15 -47 -19 -5 -4 -25 -11 -43 -15 -29 -6 -36 -3 -70 36
-47 55 -94 99 -104 99 -5 0 -8 -6 -8 -12z"/>
<path d="M2015 4780 c-3 -5 -32 -12 -65 -16 -76 -8 -102 -32 -80 -71 8 -15 31
-35 50 -46 54 -30 55 -34 12 -64 -23 -15 -41 -34 -42 -41 0 -7 14 -25 31 -40
32 -28 32 -29 14 -55 l-17 -27 80 0 c65 0 81 3 86 16 7 19 -10 44 -30 44 -24
0 -104 44 -104 57 0 17 33 33 67 33 67 0 83 52 21 65 -18 4 -55 21 -81 38 -43
27 -47 31 -31 40 10 6 45 13 79 16 48 5 60 10 63 25 6 28 -38 50 -53 26z"/>
<path d="M2602 4728 c-19 -19 -14 -76 7 -97 11 -11 40 -23 66 -27 35 -5 45
-10 40 -21 -9 -26 11 -39 54 -35 47 5 83 35 79 65 -3 20 -8 22 -63 19 -85 -4
-144 24 -145 69 0 25 -24 41 -38 27z"/>
<path d="M4307 4649 c-63 -42 -85 -100 -51 -133 17 -18 69 -22 79 -6 3 6 29
10 57 10 65 0 118 30 118 67 0 30 -52 82 -84 85 -66 5 -83 1 -119 -23z m117
-29 c14 -5 26 -16 26 -24 0 -19 -88 -46 -112 -34 -9 4 -26 8 -38 8 -18 0 -19
3 -10 21 19 35 82 49 134 29z"/>
<path d="M6305 4530 c-3 -6 3 -23 14 -39 12 -16 22 -39 23 -52 3 -21 -2 -24
-55 -31 -104 -13 -256 -123 -272 -197 -6 -28 -3 -31 51 -57 50 -23 61 -25 89
-15 17 6 37 11 44 11 7 0 36 17 63 37 42 30 60 37 107 40 49 2 60 -1 84 -23
34 -32 34 -41 -4 -80 -17 -18 -28 -37 -25 -43 4 -6 30 -22 59 -36 125 -63 139
-86 86 -141 -18 -18 -29 -39 -26 -46 3 -8 35 -29 71 -47 78 -38 96 -54 96 -87
0 -19 -5 -24 -24 -24 -14 0 -28 -5 -31 -11 -4 -6 -13 -8 -19 -6 -7 3 -19 1
-27 -4 -9 -6 7 -9 46 -9 74 0 170 -43 170 -75 0 -18 -6 -20 -57 -17 -34 2 -58
0 -58 -6 0 -13 35 -22 85 -22 37 0 42 3 57 35 14 32 14 35 -6 54 -12 11 -38
27 -59 36 -30 12 -37 20 -32 35 12 37 -37 95 -107 127 -21 9 -38 21 -38 26 0
5 14 25 30 44 17 18 30 37 30 42 0 19 -58 70 -110 97 -30 16 -58 33 -62 38 -3
5 5 24 18 41 31 42 30 61 -6 91 l-29 25 29 41 c32 44 38 68 17 68 -7 0 -18 5
-25 12 -6 6 -32 19 -58 27 -44 15 -48 20 -59 64 -17 67 -60 109 -80 77z m31
-166 c-3 -9 -6 -22 -6 -29 0 -20 -87 -112 -123 -131 -42 -21 -105 -34 -139
-27 -39 8 -36 41 8 88 40 43 99 85 117 85 7 0 17 4 23 9 10 11 44 18 93 20 26
1 32 -2 27 -15z m108 -9 c43 -18 47 -45 11 -69 -27 -18 -66 -13 -85 10 -9 10
-7 20 6 44 21 35 20 35 68 15z"/>
<path d="M2731 4442 c-39 -38 -47 -73 -26 -105 20 -31 92 -43 192 -33 74 8 98
17 113 47 32 58 -42 103 -192 116 -54 4 -60 3 -87 -25z m163 -31 c43 -16 46
-19 25 -24 -49 -13 -146 -8 -160 9 -30 36 55 46 135 15z"/>
<path d="M4526 4414 c-10 -14 -33 -32 -52 -40 -38 -16 -64 -49 -64 -80 0 -16
12 -27 46 -43 25 -12 59 -24 75 -28 41 -8 43 -16 8 -48 -29 -25 -30 -28 -15
-44 16 -15 18 -15 27 1 5 10 29 19 61 23 105 14 127 63 40 85 -179 44 -176 44
-179 60 -2 9 17 24 50 38 76 34 82 38 85 56 9 46 -52 61 -82 20z"/>
<path d="M1977 4333 c-9 -2 -24 -18 -33 -34 -14 -29 -14 -31 13 -58 39 -38 99
-49 126 -23 58 59 -15 139 -106 115z m83 -58 c15 -19 5 -35 -24 -35 -29 0 -61
24 -52 38 10 17 61 15 76 -3z"/>
<path d="M2265 4243 c-27 -8 -70 -17 -95 -20 -56 -6 -75 -20 -58 -40 15 -18
87 -13 153 11 55 20 65 27 65 40 0 23 -11 25 -65 9z"/>
<path d="M5547 4233 c-4 -3 -7 -27 -7 -52 -1 -52 -21 -87 -45 -77 -12 4 -16 1
-13 -12 2 -11 14 -18 35 -20 29 -3 35 1 47 30 8 18 17 41 20 51 9 27 29 20 60
-23 17 -23 34 -36 39 -31 15 15 -16 68 -61 105 -43 35 -62 43 -75 29z"/>
<path d="M3730 4220 c0 -5 -12 -10 -27 -9 -79 6 -143 -42 -143 -106 0 -31 4
-35 38 -44 54 -16 79 -14 162 13 41 13 113 31 160 40 77 15 110 32 110 58 0
17 -42 30 -64 19 -26 -13 -158 -40 -168 -34 -5 2 -8 12 -8 21 0 10 -13 26 -30
35 -17 10 -30 13 -30 7z m-30 -80 c0 -12 -8 -12 -35 0 -18 8 -17 9 8 9 15 1
27 -3 27 -9z"/>
<path d="M2807 4213 c-13 -12 -7 -60 8 -73 8 -7 13 -16 10 -20 -8 -14 30 -39
75 -49 68 -16 136 -14 154 5 32 31 17 55 -67 108 -49 31 -66 36 -116 36 -32 0
-61 -3 -64 -7z m133 -55 c24 -13 46 -28 47 -34 5 -15 -37 -25 -56 -14 -9 5
-12 10 -7 10 16 0 -17 30 -34 30 -10 0 -23 7 -30 15 -20 24 27 19 80 -7z"/>
<path d="M7350 4108 c-39 -42 -39 -95 0 -105 11 -3 20 -9 20 -14 0 -5 9 -9 20
-9 22 0 27 -24 8 -34 -7 -3 -31 -17 -53 -31 -22 -14 -52 -30 -67 -36 -46 -18
-45 -79 1 -79 9 0 27 -9 41 -20 22 -17 23 -21 10 -34 -8 -9 -32 -21 -53 -29
-21 -7 -38 -17 -38 -22 1 -19 50 -16 100 6 57 24 77 21 91 -16 10 -27 17 -30
40 -15 12 8 12 13 -3 44 l-17 36 36 15 c20 8 44 15 53 15 27 0 75 45 68 63 -9
24 -75 10 -115 -24 -57 -50 -88 -49 -154 4 l-28 23 85 43 c46 24 86 50 90 59
8 21 -12 41 -65 66 -47 23 -46 22 -33 89 6 33 -9 35 -37 5z"/>
<path d="M2176 4075 c-28 -14 -58 -37 -69 -56 -20 -31 -20 -32 -2 -46 24 -17
123 -8 173 15 34 15 54 46 44 70 -5 13 -66 43 -86 41 -6 0 -33 -11 -60 -24z
m98 -23 c10 -17 -11 -29 -62 -36 -48 -6 -53 -5 -50 11 5 25 99 46 112 25z"/>
<path d="M3010 3986 c0 -7 9 -16 20 -19 31 -8 24 -27 -17 -43 -78 -32 -123
-67 -123 -95 0 -20 8 -30 33 -42 17 -8 41 -17 52 -19 30 -5 25 -32 -6 -36 -32
-4 -64 -35 -56 -56 9 -23 68 -47 130 -53 56 -6 81 -23 32 -23 -34 0 -33 -28 1
-36 21 -5 265 3 270 9 1 1 4 12 8 23 8 27 -27 42 -104 42 -30 1 -82 6 -115 12
-33 6 -80 14 -104 17 -37 5 -41 7 -25 17 11 5 44 15 74 21 49 10 55 15 58 38
3 24 -1 27 -55 42 -32 9 -66 20 -75 25 -10 6 -25 10 -33 10 -23 0 -18 25 8 37
137 61 155 85 92 122 -42 24 -65 27 -65 7z"/>
<path d="M5552 3963 c-9 -16 -9 -24 -1 -29 16 -10 28 8 19 31 -7 19 -7 19 -18
-2z"/>
<path d="M5715 3940 c-3 -5 -29 -10 -58 -10 -39 0 -48 -3 -39 -12 7 -7 41 -12
79 -12 63 -1 68 1 71 22 3 18 -1 22 -22 22 -14 0 -28 -4 -31 -10z"/>
<path d="M2314 3903 c7 -31 6 -32 -41 -47 -26 -8 -86 -29 -133 -46 -47 -17
-104 -31 -128 -32 -27 0 -41 -5 -39 -12 7 -20 145 -12 213 12 33 12 67 22 76
22 20 0 73 27 88 45 17 21 8 55 -19 73 -23 16 -23 16 -17 -15z"/>
<path d="M3954 3902 c-7 -4 -19 -24 -28 -46 -14 -34 -14 -45 -2 -92 8 -29 12
-55 9 -58 -19 -19 -135 84 -173 154 -11 21 -19 28 -20 18 0 -33 19 -65 77
-126 57 -61 101 -92 129 -92 29 0 47 83 23 107 -14 14 -2 93 14 94 28 3 53 -4
70 -18 23 -22 22 -30 -8 -37 -28 -7 -34 -36 -7 -36 39 0 61 13 71 42 9 27 7
32 -20 58 -39 35 -106 51 -135 32z"/>
<path d="M3700 3863 c0 -10 7 -27 15 -37 15 -19 15 -19 15 1 0 28 -10 53 -21
53 -5 0 -9 -8 -9 -17z"/>
<path d="M5824 3808 c18 -25 20 -56 7 -77 -8 -12 -16 -12 -53 2 -54 21 -102
22 -118 2 -9 -10 -9 -15 -1 -15 6 0 11 5 11 11 0 11 26 5 77 -18 37 -17 35
-36 -8 -53 -32 -14 -37 -27 -14 -36 22 -9 100 41 124 80 34 54 21 126 -23 126
-16 0 -16 -2 -2 -22z"/>
<path d="M4640 3810 c0 -5 18 -33 40 -62 22 -29 40 -58 40 -64 0 -15 -28 -38
-77 -63 -30 -15 -43 -28 -43 -42 0 -19 4 -21 30 -15 17 3 43 14 58 25 48 34
67 35 98 1 16 -16 32 -30 35 -30 4 0 6 23 5 52 l-1 52 50 10 c60 10 58 9 50
35 -8 27 -42 27 -107 -1 l-51 -22 -21 26 c-12 14 -34 45 -49 67 -26 38 -57 55
-57 31z"/>
<path d="M2370 3771 c0 -11 45 -51 56 -51 6 0 29 -16 52 -36 49 -41 55 -78 20
-112 -44 -40 -133 -57 -157 -28 -18 22 15 41 71 41 63 0 66 17 5 28 -40 6 -55
4 -80 -11 -41 -23 -48 -63 -15 -86 26 -18 112 -21 154 -6 70 27 117 118 79
152 -77 69 -185 133 -185 109z"/>
<path d="M7646 3632 c-3 -5 -19 -12 -35 -15 -33 -7 -64 -34 -55 -48 16 -26
124 5 124 35 0 18 -27 40 -34 28z"/>
<path d="M6590 3615 c0 -15 38 -40 47 -31 7 7 -26 46 -39 46 -4 0 -8 -7 -8
-15z"/>
<path d="M5860 3601 c0 -5 11 -18 25 -28 30 -22 46 -90 24 -103 -7 -5 -10 -12
-7 -16 4 -4 19 1 33 10 37 24 32 57 -15 105 -40 40 -60 51 -60 32z"/>
<path d="M4962 3552 c-12 -16 -22 -36 -22 -44 -1 -19 -25 -48 -41 -48 -7 0
-28 15 -46 32 -27 27 -36 30 -43 18 -18 -30 35 -90 87 -97 55 -7 73 5 92 63
18 56 40 65 90 39 33 -16 51 -59 33 -77 -6 -6 -25 -11 -42 -10 -36 1 -41 -25
-10 -53 35 -32 22 -57 -35 -70 -116 -26 -195 -97 -151 -134 20 -16 151 2 176
24 17 15 21 14 70 -23 56 -42 91 -53 153 -44 47 6 67 37 49 77 -15 33 -96 84
-145 92 -41 6 -46 11 -64 62 -11 32 -10 35 23 66 39 37 41 49 16 86 -33 50
-51 61 -111 66 -56 5 -59 4 -79 -25z m57 -311 c-15 -13 -39 -20 -64 -21 l-40
0 30 16 c31 17 87 33 94 28 2 -2 -7 -12 -20 -23z m210 -11 c39 -30 42 -60 5
-60 -71 0 -143 42 -130 76 9 24 84 14 125 -16z"/>
<path d="M7358 3498 c-41 -46 -45 -53 -25 -61 20 -8 77 49 77 78 0 34 -9 31
-52 -17z"/>
<path d="M2465 3448 c-60 -23 -61 -24 -46 -42 8 -10 21 -12 45 -6 48 11 136 1
136 -16 0 -16 -15 -25 -53 -33 -46 -10 -46 -31 -1 -31 73 0 204 -84 204 -131
0 -20 -37 -27 -56 -10 -5 5 -27 12 -49 15 -36 6 -43 4 -68 -22 -25 -26 -27
-32 -16 -51 19 -29 62 -44 104 -37 40 8 38 26 -4 26 -15 0 -36 7 -47 15 -16
13 -17 16 -4 25 34 24 125 -18 115 -51 -4 -13 -1 -19 9 -19 9 0 16 8 16 18 0
10 12 29 26 41 22 19 25 29 21 58 -7 38 -12 43 -104 104 l-63 42 25 25 c44 44
33 54 -85 77 -19 4 -39 11 -45 15 -5 3 -32 -2 -60 -12z"/>
<path d="M5730 3450 c0 -13 7 -20 20 -20 13 0 20 7 20 20 0 13 -7 20 -20 20
-13 0 -20 -7 -20 -20z"/>
<path d="M7721 3423 c-41 -5 -131 -59 -131 -79 0 -26 27 -26 55 0 30 28 72 39
126 34 44 -4 49 -32 14 -72 -14 -16 -25 -32 -25 -36 0 -15 28 -30 43 -24 8 3
25 0 37 -6 19 -10 21 -17 15 -56 -6 -39 -4 -43 12 -37 33 11 53 36 53 64 0 43
-9 57 -46 69 -34 12 -43 24 -24 35 6 3 10 26 10 50 0 42 -1 44 -37 54 -21 6
-45 10 -53 9 -8 -1 -30 -3 -49 -5z"/>
<path d="M5959 3411 c-41 -13 -70 -31 -64 -41 9 -14 -40 -42 -108 -60 l-62
-17 48 -7 c50 -8 87 1 172 40 28 12 67 30 88 38 26 10 37 21 37 35 0 18 -6 21
-42 20 -24 0 -55 -4 -69 -8z"/>
<path d="M5868 3393 c7 -3 16 -2 19 1 4 3 -2 6 -13 5 -11 0 -14 -3 -6 -6z"/>
<path d="M4290 3342 c0 -4 7 -17 15 -29 30 -43 32 -153 2 -153 -7 0 -30 9 -52
20 -22 11 -50 20 -62 20 -32 0 -73 -28 -73 -49 0 -22 39 -58 65 -60 117 -12
185 34 185 125 0 37 -47 134 -64 134 -9 0 -16 -3 -16 -8z m-35 -192 c4 -6 -7
-10 -24 -10 -17 0 -31 5 -31 10 0 6 11 10 24 10 14 0 28 -4 31 -10z"/>
<path d="M1798 3300 c-19 -14 -27 -33 -32 -70 -7 -51 -7 -51 -36 -45 -38 8
-40 -12 -6 -44 43 -40 78 -10 92 80 8 47 16 54 46 38 34 -19 55 -42 62 -71 3
-16 11 -28 17 -28 22 0 21 35 -1 78 -18 34 -35 49 -68 63 -53 23 -44 23 -74
-1z"/>
<path d="M6100 3282 c63 -31 72 -48 43 -82 -12 -14 -30 -20 -59 -20 -34 0 -43
-4 -52 -25 -6 -14 -16 -25 -22 -25 -21 0 3 -22 44 -41 50 -23 121 -25 130 -4
3 8 -2 28 -11 43 -16 28 -16 30 5 57 32 41 28 62 -15 83 -21 9 -39 20 -41 25
-2 4 -16 7 -30 6 -26 0 -26 -1 8 -17z"/>
<path d="M3476 3283 c-3 -4 -6 -15 -6 -25 0 -10 -18 -35 -40 -55 -58 -55 -54
-76 20 -99 31 -10 33 -12 15 -19 -31 -12 -55 -36 -55 -54 0 -17 88 -51 130
-51 30 0 24 -23 -10 -42 -56 -32 -48 -72 16 -84 29 -5 32 -8 19 -21 -8 -8 -15
-25 -15 -39 0 -21 4 -24 38 -24 58 0 112 -18 105 -35 -6 -18 -56 -20 -83 -3
-10 7 -22 10 -25 7 -11 -12 8 -40 36 -54 29 -16 109 -21 109 -7 0 4 15 7 34 8
64 1 85 42 44 82 -31 28 -75 45 -80 30 -7 -21 -38 1 -38 26 0 20 -9 30 -45 46
-25 11 -45 24 -45 28 0 5 14 18 30 30 35 26 42 72 12 72 -10 0 -41 7 -68 16
-27 9 -56 18 -64 20 -9 3 2 12 28 24 35 16 43 24 40 42 -2 19 -11 24 -43 28
-22 3 -49 10 -59 16 -19 11 -19 12 1 40 28 40 38 90 19 97 -8 3 -17 3 -20 0z"/>
<path d="M5975 3140 c3 -5 8 -10 11 -10 2 0 4 5 4 10 0 6 -5 10 -11 10 -5 0
-7 -4 -4 -10z"/>
<path d="M7060 3112 c0 -4 13 -26 29 -48 39 -54 45 -78 27 -113 -12 -22 -21
-28 -36 -24 -11 3 -23 9 -26 14 -9 15 -45 10 -75 -12 -35 -24 -36 -38 -8 -68
20 -21 28 -23 80 -17 54 6 57 6 52 -14 -6 -22 3 -25 41 -10 29 11 33 31 11 54
-8 8 -15 17 -15 21 0 4 7 13 15 21 27 28 18 81 -22 134 -38 47 -73 78 -73 62z
m-30 -212 c-19 -13 -30 -13 -30 0 0 6 10 10 23 10 18 0 19 -2 7 -10z"/>
<path d="M1985 3060 c-4 -6 -3 -16 3 -22 8 -8 4 -16 -11 -29 -20 -16 -21 -18
-4 -24 21 -9 86 20 94 41 8 20 -6 32 -44 40 -19 4 -33 2 -38 -6z"/>
<path d="M2835 3051 c-3 -6 -4 -20 0 -30 3 -11 3 -30 0 -44 -6 -24 -9 -25 -98
-24 -71 1 -100 -3 -125 -16 -19 -10 -32 -20 -30 -22 2 -3 33 0 67 6 65 10 151
4 151 -12 0 -14 -51 -56 -102 -84 -33 -18 -70 -28 -118 -32 -75 -6 -95 -25
-39 -37 65 -13 102 -6 165 29 69 39 93 42 186 21 35 -8 89 -17 120 -21 53 -6
58 -5 74 19 14 22 14 29 3 42 -19 23 -95 59 -165 79 l-62 17 2 49 c1 48 -15
82 -29 60z m87 -160 c142 -55 143 -67 7 -63 -107 4 -121 11 -99 51 12 23 51
28 92 12z"/>
<path d="M1807 2989 c5 -25 2 -31 -16 -36 -30 -8 -21 -27 14 -31 45 -6 60 37
26 76 -25 30 -32 28 -24 -9z"/>
<path d="M5338 2998 c-2 -17 -11 -24 -33 -26 -32 -4 -45 -16 -45 -44 0 -25 52
-24 107 3 75 36 79 89 7 89 -26 0 -33 -4 -36 -22z"/>
<path d="M4178 2967 c-63 -24 -84 -40 -74 -56 9 -14 56 -15 56 -1 0 29 131 51
182 31 13 -5 35 -12 51 -15 41 -9 36 -45 -13 -85 -40 -32 -52 -64 -26 -74 7
-3 35 -9 62 -12 49 -7 74 -20 74 -36 0 -16 -58 -39 -113 -45 -67 -8 -89 -19
-67 -34 19 -12 111 -13 142 -1 97 38 107 44 113 73 8 35 -6 48 -77 75 -27 9
-48 19 -48 22 0 4 9 20 20 36 55 83 -13 146 -159 144 -43 0 -86 -8 -123 -22z"/>
<path d="M6260 2943 c-19 -18 -45 -43 -58 -55 -33 -31 -26 -67 18 -91 53 -29
54 -32 15 -58 -47 -32 -45 -63 4 -67 30 -3 33 -1 22 11 -10 13 -4 18 37 31 34
12 53 25 61 42 10 23 9 26 -21 38 -18 8 -50 21 -70 29 -21 9 -38 23 -38 32 0
8 20 28 45 43 49 30 61 48 44 68 -15 18 -18 17 -59 -23z"/>
<path d="M2113 2933 c-7 -2 -13 -12 -13 -22 0 -10 -16 -31 -35 -48 -56 -50
-44 -88 38 -123 27 -11 57 -20 67 -20 10 0 21 -4 24 -9 8 -13 -4 -41 -18 -41
-20 0 -116 -70 -116 -85 0 -8 6 -15 13 -15 22 0 170 86 184 107 22 33 -15 68
-98 93 -82 25 -91 47 -34 81 42 25 55 57 29 76 -19 14 -22 14 -41 6z"/>
<path d="M5012 2917 c-18 -21 13 -57 47 -57 22 0 30 5 33 23 2 12 3 28 0 35
-5 16 -67 15 -80 -1z"/>
<path d="M7890 2903 c-43 -16 -66 -74 -42 -109 13 -19 50 -34 86 -34 25 0 36
-5 36 -14 0 -25 14 -25 65 -1 28 13 55 24 61 24 6 1 17 7 23 14 6 8 38 22 71
32 68 21 85 35 75 65 -8 24 -32 26 -55 5 -38 -34 -204 -87 -261 -83 -52 4 -75
31 -44 54 24 18 37 14 50 -14 22 -49 56 -12 35 38 -11 26 -18 30 -49 29 -20 0
-43 -3 -51 -6z"/>
<path d="M5313 2804 c-27 -11 -11 -22 42 -29 65 -8 72 -26 18 -48 -95 -38
-102 -90 -15 -102 26 -4 63 -13 82 -20 l35 -13 -37 -16 c-21 -9 -46 -16 -56
-16 -23 0 -42 -19 -42 -42 0 -19 1 -19 65 -23 22 -1 47 -5 55 -8 8 -3 35 -11
60 -19 28 -8 46 -20 48 -30 3 -15 -4 -18 -47 -18 -28 0 -51 -4 -51 -10 0 -5
11 -10 24 -10 13 0 26 -6 29 -14 3 -8 20 -14 39 -14 58 -1 162 -66 156 -99 -8
-42 -166 -36 -224 9 -23 19 -24 19 -24 1 0 -61 197 -114 263 -70 32 21 44 60
27 92 -7 13 -39 38 -71 56 -54 31 -58 37 -59 69 0 31 -5 38 -49 63 -27 15 -56
27 -65 27 -27 0 -18 27 14 40 31 13 39 40 18 58 -7 5 -41 20 -75 32 l-63 23
22 19 c12 10 32 21 45 24 28 7 42 50 22 69 -14 13 -164 28 -186 19z"/>
<path d="M1140 2750 c6 -11 14 -20 19 -20 5 0 14 -14 21 -30 11 -26 10 -33 -5
-50 -30 -33 -115 -23 -115 13 0 4 10 5 22 2 17 -6 20 -4 15 10 -4 9 -7 19 -7
21 0 10 -49 3 -59 -9 -8 -11 -4 -20 19 -41 78 -69 160 -60 175 20 5 23 -1 37
-25 67 -34 40 -80 54 -60 17z"/>
<path d="M6285 2670 c3 -5 11 -10 16 -10 6 0 7 5 4 10 -3 6 -11 10 -16 10 -6
0 -7 -4 -4 -10z"/>
<path d="M6450 2660 c-14 -5 -45 -9 -70 -10 -39 -1 -42 -2 -21 -11 22 -9 23
-11 7 -27 -17 -19 -22 -42 -8 -42 15 0 140 38 161 49 20 11 29 40 14 42 -36 6
-62 5 -83 -1z"/>
<path d="M1330 2613 c0 -28 98 -113 130 -113 59 0 115 51 87 79 -15 15 -34 14
-39 -1 -8 -23 -76 -11 -120 21 -48 35 -58 38 -58 14z"/>
<path d="M7194 2603 c-8 -31 6 -58 32 -59 11 -1 32 -2 47 -3 24 -1 27 -4 22
-21 -6 -18 -3 -20 22 -15 15 4 38 8 51 11 31 6 29 42 -4 54 -14 6 -47 10 -73
10 -41 0 -49 3 -59 25 -15 32 -30 32 -38 -2z"/>
<path d="M3785 2610 c-3 -5 0 -10 8 -10 14 0 30 -56 20 -72 -2 -5 -19 -8 -38
-8 -19 0 -36 -4 -39 -9 -3 -5 -22 -12 -43 -16 -73 -13 -163 -71 -163 -105 0
-32 30 -59 74 -65 35 -6 54 -2 102 21 33 15 65 34 72 41 17 17 29 16 39 -1 12
-22 99 -56 142 -56 78 0 113 38 85 91 -17 33 -53 54 -126 73 -45 11 -54 17
-59 42 -13 57 -28 84 -48 84 -11 0 -23 -4 -26 -10z m-20 -165 c-15 -19 -30
-34 -33 -32 -4 1 -19 -7 -35 -17 -32 -22 -101 -26 -119 -8 -10 10 -8 16 8 32
21 21 129 57 177 59 l28 1 -26 -35z m120 15 c3 -5 19 -10 34 -10 17 0 37 -10
52 -26 23 -25 23 -26 6 -39 -11 -8 -43 -14 -73 -14 -49 0 -56 3 -66 25 -18 40
25 99 47 64z"/>
<path d="M8040 2555 c-14 -17 -7 -45 12 -46 7 0 35 -2 61 -4 73 -4 151 -75
119 -107 -7 -7 -20 -5 -41 5 -26 13 -31 13 -31 1 0 -16 34 -40 70 -49 34 -8
70 26 70 65 0 48 -88 115 -183 138 -58 15 -62 15 -77 -3z"/>
<path d="M3130 2545 c0 -3 16 -25 35 -51 42 -54 47 -106 14 -148 -18 -23 -28
-26 -80 -26 -52 0 -59 2 -59 20 0 24 31 27 54 5 23 -23 46 -19 46 10 0 48 -89
63 -128 22 -47 -50 -11 -104 73 -109 l50 -3 0 -53 c0 -44 4 -57 24 -73 13 -10
30 -19 38 -19 9 0 13 -6 9 -15 -4 -12 3 -15 29 -15 45 0 117 37 113 59 -4 20
-58 27 -88 11 -15 -8 -27 -8 -48 2 -22 11 -28 22 -35 66 -8 50 -7 54 21 81 32
29 49 83 38 123 -11 44 -65 118 -86 118 -11 0 -20 -2 -20 -5z"/>
<path d="M1565 2511 c-8 -14 2 -31 19 -31 8 0 21 -12 31 -26 23 -35 7 -70 -40
-90 -19 -8 -35 -21 -35 -29 0 -9 -10 -15 -25 -15 -28 0 -33 -21 -11 -39 24
-20 118 -40 143 -30 28 11 30 39 3 62 -11 9 -20 21 -20 27 0 5 9 14 20 20 36
19 25 92 -20 127 -37 30 -56 37 -65 24z"/>
<path d="M7390 2462 c0 -5 11 -15 24 -22 52 -27 43 -61 -25 -92 -27 -13 -49
-28 -49 -34 0 -15 26 -25 45 -18 8 4 31 3 50 0 42 -8 46 -32 8 -47 -16 -5 -35
-12 -43 -15 -30 -11 20 -26 65 -20 85 13 105 59 38 91 -57 27 -58 30 -34 61
30 38 27 50 -22 79 -47 27 -57 30 -57 17z"/>
<path d="M4880 2355 c-10 -12 -10 -18 0 -30 25 -31 60 -13 60 31 0 19 -44 18
-60 -1z"/>
<path d="M5496 2350 c-11 -3 -15 -9 -10 -13 10 -6 42 9 34 16 -3 3 -14 1 -24
-3z"/>
<path d="M2314 2321 c9 -16 27 -42 41 -59 14 -16 25 -34 25 -39 0 -15 -73 -52
-119 -59 -24 -4 -40 -11 -38 -18 5 -15 88 -9 144 10 51 18 57 15 83 -37 21
-39 50 -53 50 -23 0 9 -9 32 -21 51 -12 18 -18 40 -15 48 3 8 29 25 59 39 63
31 67 34 60 52 -8 21 -28 17 -98 -21 l-64 -36 -48 60 c-52 65 -85 83 -59 32z"/>
<path d="M6650 2287 c0 -2 18 -23 39 -46 66 -71 88 -143 58 -185 -12 -16 -15
-15 -60 9 -70 37 -117 32 -117 -12 0 -27 10 -40 53 -68 23 -14 30 -16 37 -6 4
8 9 9 11 3 2 -6 20 -13 39 -17 32 -6 37 -4 50 22 8 15 20 31 26 35 19 12 26
76 13 116 -7 20 -25 50 -40 67 -16 16 -29 33 -29 37 0 3 -15 16 -34 27 -31 20
-46 25 -46 18z m-5 -241 c46 -20 47 -46 2 -46 -26 0 -36 6 -45 24 -9 21 -7 36
5 36 2 0 19 -7 38 -14z"/>
<path d="M4016 2195 c-22 -8 -42 -13 -45 -12 -16 3 -129 -38 -156 -56 -16 -12
-39 -27 -50 -32 -22 -12 -33 -61 -16 -78 11 -11 128 -23 326 -33 78 -4 127
-12 142 -21 19 -13 25 -12 52 1 44 23 55 49 31 71 -18 16 -25 17 -80 5 -86
-18 -123 -9 -170 41 -51 55 -51 69 0 69 38 0 60 18 60 49 0 15 -47 13 -94 -4z
m-13 -110 l47 -45 -67 4 c-38 2 -92 4 -120 5 -29 1 -53 5 -53 10 0 18 94 67
136 70 6 1 31 -19 57 -44z"/>
<path d="M1047 2164 c-10 -11 -9 -21 6 -36 43 -44 79 -132 70 -169 -5 -19 -8
-20 -17 -7 -20 26 -107 69 -128 63 -27 -9 -40 -48 -27 -82 24 -65 87 -96 149
-74 23 8 36 7 51 -2 27 -17 24 -34 -11 -52 -16 -9 -30 -22 -30 -30 0 -19 39
-45 68 -45 35 0 22 -22 -19 -33 -71 -18 -81 -58 -21 -84 59 -26 75 -32 106
-43 27 -10 28 -11 12 -35 l-16 -25 37 0 c48 1 76 21 71 52 -2 19 -14 26 -63
39 -33 9 -73 22 -90 29 -28 11 -29 12 -10 22 10 6 40 15 64 20 90 16 95 68 10
88 -49 12 -50 12 -34 36 20 31 20 30 -22 69 -34 31 -36 37 -34 83 1 40 -5 62
-29 108 -34 64 -82 119 -93 108z m-2 -220 c34 -37 33 -56 -2 -48 -36 9 -63 32
-63 56 0 27 37 23 65 -8z"/>
<path d="M7440 2118 c-34 -23 -58 -53 -50 -61 3 -3 20 -8 38 -12 25 -5 32 -3
32 9 0 9 -5 16 -11 16 -8 0 -8 5 1 15 21 25 97 19 137 -11 41 -31 42 -53 3
-97 -38 -43 -38 -55 -1 -68 l30 -10 -32 -30 -32 -30 50 6 c63 8 95 28 95 59 0
17 -9 27 -30 36 -34 14 -35 17 -15 44 69 92 -112 204 -215 134z"/>
<path d="M2550 2106 c0 -7 26 -29 59 -49 62 -39 91 -73 91 -107 0 -18 -4 -20
-22 -14 -13 4 -37 18 -55 31 -41 32 -112 36 -142 9 -60 -55 22 -125 146 -126
47 0 54 3 82 37 42 51 42 92 -2 135 -38 38 -80 67 -121 85 -35 16 -36 16 -36
-1z m48 -174 c34 -22 26 -32 -27 -32 -50 0 -78 18 -68 43 6 17 62 11 95 -11z"/>
<path d="M1787 2103 c-4 -3 -1 -13 7 -22 32 -38 62 -107 56 -131 -5 -21 -12
-25 -48 -28 -23 -2 -56 3 -74 11 -98 42 -98 42 -98 22 0 -16 116 -73 167 -82
28 -5 38 0 69 31 31 31 35 40 29 68 -9 38 -28 71 -64 111 -26 28 -33 32 -44
20z"/>
<path d="M4898 2076 c-72 -25 -146 -80 -198 -146 -65 -83 -17 -82 65 1 67 68
138 107 214 116 48 5 51 4 60 -21 6 -14 17 -26 26 -26 23 0 30 46 11 75 -14
21 -24 25 -64 25 -26 0 -77 -11 -114 -24z"/>
<path d="M3715 2068 c-11 -29 -9 -61 3 -65 8 -3 12 8 12 36 0 41 -6 53 -15 29z"/>
<path d="M3310 2062 c0 -5 9 -17 20 -27 27 -24 11 -51 -35 -59 -27 -5 -35 -12
-33 -24 2 -13 17 -18 58 -22 40 -4 55 -9 55 -20 0 -12 -13 -15 -67 -13 -38 0
-68 -3 -68 -8 0 -17 41 -29 104 -29 58 0 67 3 86 27 26 33 22 44 -23 65 -33
16 -36 21 -30 49 5 26 2 35 -18 50 -25 20 -49 25 -49 11z"/>
<path d="M6810 1944 c0 -4 18 -24 40 -46 49 -46 64 -81 50 -109 -14 -25 -26
-24 -52 6 -31 36 -91 35 -115 -1 -15 -24 -15 -28 -1 -52 38 -63 125 -68 185
-11 32 31 34 38 30 79 -4 39 -12 51 -58 93 -47 42 -79 59 -79 41z m8 -180 c26
-18 28 -30 6 -38 -21 -8 -64 19 -64 39 0 20 30 19 58 -1z"/>
<path d="M8476 1908 c-35 -120 -40 -130 -63 -141 -39 -17 -59 2 -55 53 2 30
-1 41 -10 37 -8 -2 -12 -20 -12 -45 4 -110 110 -132 153 -32 12 27 21 56 21
64 0 29 39 18 60 -16 33 -54 35 -76 10 -104 -32 -33 -16 -44 17 -12 44 44 32
117 -30 186 -23 24 -85 31 -91 10z"/>
<path d="M5060 1854 c-18 -6 -57 -63 -66 -98 -6 -24 -34 -38 -34 -17 0 5 -7
12 -15 15 -28 11 -27 -22 2 -59 32 -41 61 -43 79 -5 47 103 48 105 79 105 23
0 31 -5 33 -22 3 -17 -2 -23 -16 -23 -19 0 -38 -27 -27 -38 11 -11 69 15 87
38 16 22 17 30 7 58 -15 44 -67 63 -129 46z"/>
<path d="M5870 1835 c-7 -8 -31 -20 -54 -27 -22 -6 -46 -15 -53 -20 -7 -6 -23
-3 -41 6 -25 13 -32 13 -41 2 -6 -7 -9 -20 -6 -28 3 -7 -4 -23 -15 -35 -27
-30 -25 -35 13 -33 50 3 54 1 60 -20 8 -31 25 -24 32 13 7 38 53 72 84 62 28
-9 85 46 76 74 -7 24 -37 28 -55 6z"/>
<path d="M4312 1800 c-11 -31 -28 -41 -102 -58 -57 -13 -186 -6 -223 13 -45
23 -79 -4 -42 -35 18 -15 356 -5 387 11 26 14 41 55 28 80 -15 28 -37 23 -48
-11z"/>
<path d="M2766 1801 c-4 -5 12 -24 34 -41 44 -35 57 -67 40 -99 -15 -29 -25
-26 -40 8 -12 29 -33 42 -102 60 -74 19 -146 -51 -102 -100 47 -53 178 -68
237 -27 46 30 57 47 57 85 0 33 -27 69 -80 106 -28 19 -36 21 -44 8z m-56
-117 c43 -18 51 -37 21 -54 -58 -30 -145 14 -110 56 15 18 40 18 89 -2z"/>
<path d="M3320 1778 c-26 -14 -40 -48 -20 -48 6 0 18 7 27 16 19 19 79 11 136
-17 45 -24 48 -51 10 -91 -22 -23 -24 -30 -13 -43 7 -8 22 -15 34 -15 47 0 51
-16 12 -50 -42 -38 -45 -50 -11 -50 14 0 25 4 25 8 0 5 18 15 40 22 55 18 67
34 50 65 -8 15 -22 25 -35 25 -22 0 -69 29 -48 30 19 0 34 57 22 84 -23 50
-175 92 -229 64z"/>
<path d="M7724 1659 c7 -33 -7 -45 -64 -54 -25 -3 -64 -15 -87 -26 -24 -10
-46 -19 -51 -19 -18 0 -82 -63 -82 -80 0 -44 90 -53 170 -19 49 21 50 21 82 2
53 -31 92 -35 141 -14 45 19 57 35 57 75 0 31 -26 53 -91 75 -30 10 -54 24
-54 32 -1 8 -6 23 -14 34 -11 19 -12 18 -7 -6z m-34 -86 c0 -16 -67 -64 -109
-78 -48 -16 -101 -20 -101 -7 0 20 70 63 140 86 24 7 70 7 70 -1z m123 -17
c29 -12 37 -45 15 -64 -11 -9 -78 -16 -130 -13 -22 1 -24 29 -3 38 9 3 22 18
30 33 15 30 29 31 88 6z"/>
<path d="M8500 1637 c0 -7 13 -21 30 -30 39 -23 83 -81 78 -104 -4 -18 -8 -19
-88 -7 -48 8 -134 -32 -138 -63 -7 -47 89 -65 201 -37 22 5 27 3 27 -12 0 -19
-49 -64 -82 -77 -10 -3 -18 -15 -18 -26 0 -21 6 -24 82 -36 50 -8 56 -22 16
-40 -98 -43 -91 -87 17 -102 35 -4 43 -9 35 -18 -6 -7 -22 -16 -35 -19 -29 -7
-59 -59 -51 -90 3 -11 19 -35 36 -53 16 -18 30 -35 30 -39 0 -11 34 -33 51
-34 9 0 22 -7 29 -15 21 -26 31 -5 10 22 -31 40 -27 63 13 63 29 0 97 -32 97
-46 0 -18 -23 -43 -45 -48 -22 -6 -36 -35 -17 -37 4 0 18 -3 32 -5 31 -5 77
31 85 66 5 19 -2 33 -27 60 -19 19 -46 41 -61 48 -33 14 -103 16 -112 2 -9
-15 -41 -12 -55 5 -21 26 -2 50 61 74 56 23 94 55 84 72 -3 4 -17 10 -32 13
-67 15 -113 31 -113 38 0 4 6 8 14 8 20 0 75 32 81 48 7 20 -32 52 -64 52 -16
0 -34 7 -41 15 -13 16 -9 25 33 67 23 24 22 47 -5 75 -17 18 -19 26 -10 35 22
22 13 69 -20 107 -59 67 -128 104 -128 68z m26 -194 c-7 -7 -77 -5 -85 2 -2 3
17 5 44 5 27 0 45 -3 41 -7z"/>
<path d="M6007 1605 c-4 -8 -30 -26 -59 -41 -60 -30 -77 -49 -78 -82 0 -17 8
-26 30 -33 35 -13 39 -35 8 -45 -29 -9 -40 -25 -27 -40 7 -9 20 -9 54 2 25 7
80 15 123 18 56 4 80 10 90 23 25 34 16 38 -105 47 -122 8 -147 39 -54 66 28
9 60 25 71 36 18 18 19 21 4 42 -17 25 -49 29 -57 7z"/>
<path d="M2012 1573 c-6 -10 -13 -32 -17 -50 -4 -19 -14 -35 -26 -38 -25 -8
-24 -37 1 -53 28 -17 34 -11 64 53 14 30 30 55 36 55 6 0 25 -14 42 -30 24
-25 28 -33 18 -45 -16 -19 -4 -35 26 -35 19 0 24 5 24 24 0 58 -28 98 -84 121
-47 20 -73 19 -84 -2z"/>
<path d="M7056 1549 l-47 -32 -35 19 c-18 10 -34 23 -34 28 0 5 -3 7 -6 3 -4
-3 3 -18 15 -33 11 -15 21 -33 21 -40 0 -16 -54 -59 -93 -73 -30 -12 -28 -31
3 -31 23 0 164 73 202 105 16 14 33 25 38 25 14 0 20 44 7 52 -18 11 -19 11
-71 -23z"/>
<path d="M5102 1558 c-7 -7 -12 -31 -12 -54 0 -49 8 -54 86 -53 28 1 61 -4 74
-11 31 -16 70 4 70 37 0 21 -4 23 -57 24 -32 1 -65 1 -75 0 -11 -1 -18 8 -23
29 -4 16 -10 30 -15 30 -5 0 -14 2 -22 5 -7 3 -19 0 -26 -7z"/>
<path d="M6720 1547 c0 -33 28 -85 50 -92 33 -11 35 1 4 32 -15 15 -33 39 -41
53 -10 19 -13 21 -13 7z"/>
<path d="M2894 1514 c-9 -14 -29 -31 -45 -39 -37 -20 -59 -43 -59 -64 0 -19
38 -41 70 -41 33 0 23 -28 -19 -54 -22 -14 -42 -35 -46 -46 -10 -31 20 -60 62
-60 34 0 45 -16 18 -26 -18 -7 -20 -31 -2 -37 16 -6 180 52 189 67 17 25 7 36
-31 36 -22 0 -50 -4 -63 -9 -30 -11 -118 7 -118 24 0 7 19 22 43 34 53 27 72
54 57 81 -6 11 -18 20 -28 20 -9 1 -27 6 -40 13 -22 13 -22 13 17 35 44 25 59
55 41 77 -17 21 -27 19 -46 -11z"/>
<path d="M6490 1413 c-8 -3 -35 -22 -60 -42 -40 -32 -100 -74 -155 -107 -51
-31 -94 -47 -225 -83 -36 -9 -33 -43 5 -56 46 -15 61 -33 47 -56 -18 -28 -15
-39 11 -39 50 0 70 46 37 87 -20 26 -20 28 -4 40 10 7 23 13 30 13 7 0 39 14
72 30 34 17 64 30 67 30 4 0 21 11 39 25 18 14 37 25 43 25 5 0 20 12 34 26
13 14 32 30 42 35 35 19 18 -31 -28 -80 -25 -26 -45 -51 -45 -55 0 -18 30 -1
67 37 82 84 98 198 23 170z"/>
<path d="M4590 1392 c0 -17 -47 -65 -77 -77 -28 -12 -32 -17 -24 -37 7 -19 18
-24 57 -28 70 -8 81 -17 53 -46 -12 -13 -29 -24 -36 -24 -27 0 -73 -31 -73
-49 0 -23 19 -31 74 -31 23 0 51 -6 61 -14 18 -13 17 -15 -22 -25 -23 -6 -45
-17 -49 -23 -11 -18 22 -35 71 -36 75 -3 141 -49 104 -73 -8 -5 -42 -9 -76 -9
-58 0 -63 -2 -69 -25 -11 -46 28 -73 144 -99 40 -9 77 -14 82 -11 5 3 14 -5
21 -17 7 -13 27 -41 46 -64 39 -49 42 -82 8 -114 -26 -24 -102 -38 -149 -26
-32 8 -44 43 -22 64 18 18 35 8 41 -24 2 -11 4 -20 4 -22 1 -1 12 5 26 14 28
18 33 55 11 73 -8 7 -36 11 -63 9 -46 -3 -49 -5 -60 -41 -25 -74 25 -122 127
-122 49 0 71 5 92 20 80 60 75 144 -14 224 -31 28 -32 30 -15 48 26 30 21 39
-38 68 -30 15 -55 30 -55 33 0 3 7 13 15 21 21 24 -1 60 -53 90 -40 21 -42 24
-28 40 24 27 20 50 -11 57 -90 19 -97 30 -43 66 27 18 35 31 35 53 0 24 -5 30
-31 37 -50 13 -58 30 -35 69 15 24 17 36 9 46 -11 14 -38 18 -38 5z m172 -534
c21 -6 35 -15 32 -19 -7 -12 -54 -11 -95 2 -19 6 -41 13 -49 15 -12 4 -12 6 0
14 15 9 53 5 112 -12z"/>
<path d="M5330 1392 c0 -5 9 -17 20 -27 21 -19 28 -79 11 -90 -5 -3 -25 4 -44
15 -51 30 -156 37 -186 13 -20 -16 -21 -22 -11 -45 19 -40 76 -61 152 -56 85
6 134 30 148 74 13 37 3 61 -41 105 -19 19 -49 26 -49 11z m-86 -118 c26 -10
18 -24 -13 -24 -16 0 -34 7 -41 15 -11 13 -8 15 13 15 14 0 32 -3 41 -6z"/>
<path d="M7775 1354 c9 -22 9 -38 -1 -77 -9 -39 11 -59 60 -57 23 1 54 1 70 1
l28 -1 -23 -19 c-29 -23 -22 -33 25 -33 110 0 156 66 63 91 -23 7 -71 10 -106
9 l-65 -3 -9 42 c-5 27 -16 47 -29 54 -19 10 -20 9 -13 -7z"/>
<path d="M3746 1353 c-4 -5 -11 -8 -14 -9 -4 0 -34 -13 -66 -29 l-59 -28 -26
32 c-14 17 -34 31 -44 31 -17 0 -16 -4 7 -31 30 -36 32 -55 9 -88 l-16 -24 37
7 c35 7 37 5 51 -28 27 -64 62 -40 39 26 -11 32 -10 38 5 52 10 9 23 16 29 16
7 0 12 5 12 10 0 6 7 10 15 10 31 0 79 36 69 52 -6 10 -38 10 -48 1z"/>
<path d="M2210 1329 c-14 -5 -33 -21 -43 -34 -16 -23 -16 -26 -2 -31 9 -4 32
0 53 8 28 11 37 19 37 38 0 27 -11 32 -45 19z"/>
<path d="M1426 1308 c-9 -12 -16 -39 -16 -60 0 -20 -5 -40 -10 -43 -6 -4 -8
-11 -5 -16 8 -13 -4 -49 -16 -49 -6 0 -24 14 -41 30 -31 31 -48 38 -48 19 0
-21 39 -65 74 -84 34 -19 36 -19 55 -1 22 20 44 83 35 98 -3 5 -3 25 0 44 8
40 31 45 67 14 22 -19 23 -21 7 -33 -23 -18 -13 -27 29 -27 29 0 33 3 33 28
-1 33 -25 64 -68 86 -43 22 -78 20 -96 -6z"/>
<path d="M6958 1277 c29 -29 52 -55 52 -58 0 -6 -86 -62 -110 -73 -8 -3 10 -3
40 0 30 4 64 11 74 16 16 9 24 5 45 -21 35 -43 45 -39 38 14 l-7 45 65 29 c49
22 65 35 65 50 0 34 -16 32 -93 -9 l-75 -41 -58 51 c-78 66 -102 64 -36 -3z"/>
<path d="M2040 1302 c0 -10 7 -28 17 -41 15 -23 15 -25 -2 -37 -10 -8 -22 -14
-27 -14 -15 0 -8 -15 12 -28 51 -31 86 38 48 94 -27 39 -48 51 -48 26z"/>
<path d="M6808 1242 c-22 -38 -8 -102 22 -102 23 0 24 8 10 46 -8 20 -7 32 5
50 19 30 19 34 -3 34 -10 0 -25 -13 -34 -28z"/>
<path d="M5946 1181 c-14 -23 40 -128 74 -146 30 -15 30 -15 30 12 0 17 -12
39 -29 56 -16 15 -31 41 -35 58 -5 28 -28 39 -40 20z"/>
<path d="M2390 1119 c-81 -70 -81 -71 -78 -103 2 -20 11 -34 26 -42 49 -24 45
-31 -32 -55 -91 -28 -105 -53 -23 -43 73 9 189 41 198 55 13 22 -2 39 -45 49
-62 16 -66 18 -72 35 -8 20 11 42 58 66 30 15 39 25 36 42 -4 32 -28 31 -68
-4z"/>
<path d="M5410 1111 c-5 -11 -30 -27 -55 -37 -45 -17 -85 -58 -85 -87 0 -8 15
-20 33 -27 17 -6 39 -15 47 -20 9 -4 35 -11 58 -15 23 -4 42 -10 42 -15 0 -4
-12 -18 -26 -31 -15 -13 -38 -36 -53 -50 -34 -35 -83 -59 -119 -59 -37 0 -71
-23 -51 -35 17 -11 101 -6 114 6 5 5 18 9 29 9 33 0 2 -23 -47 -35 -42 -10
-62 -37 -34 -48 17 -6 93 9 124 25 19 9 30 8 59 -8 20 -10 44 -29 54 -41 10
-13 22 -23 28 -23 16 0 22 29 8 42 -15 15 -39 59 -34 62 2 1 21 7 43 15 96 30
96 30 78 57 -19 30 -37 30 -89 0 -46 -26 -92 -38 -100 -25 -8 14 56 87 92 104
35 16 45 47 22 62 -7 4 -51 17 -98 28 -62 15 -86 25 -88 38 -2 11 6 21 25 28
79 32 91 45 73 80 -14 24 -36 24 -50 0z"/>
<path d="M3760 1062 c0 -4 18 -26 40 -47 22 -21 40 -46 40 -55 0 -20 -37 -41
-76 -43 -16 -1 -32 -6 -35 -10 -13 -18 -50 6 -118 74 -65 64 -91 82 -91 60 0
-4 30 -40 66 -79 67 -72 128 -107 144 -83 5 9 14 9 34 1 40 -15 50 -13 82 15
36 31 38 31 68 -2 19 -20 29 -24 37 -16 8 8 7 19 -4 42 l-16 32 40 24 c28 18
39 32 39 50 0 35 -24 32 -76 -10 -46 -38 -59 -42 -67 -21 -5 13 -89 76 -101
76 -3 0 -6 -4 -6 -8z"/>
<path d="M989 1031 l-24 -20 23 -16 c35 -26 29 -51 -15 -59 -21 -3 -51 -6 -67
-6 -40 0 -148 -62 -180 -104 -42 -56 -44 -89 -8 -126 26 -26 38 -30 82 -30 65
0 127 28 172 78 33 37 39 39 79 36 51 -5 112 21 117 49 8 42 -7 64 -55 79 -47
15 -48 17 -53 61 -5 42 -23 77 -40 77 -4 0 -18 -9 -31 -19z m11 -147 c0 -20
-79 -134 -93 -134 -6 0 -18 -7 -28 -16 -23 -21 -124 -31 -144 -14 -21 18 -19
63 6 94 34 43 134 86 201 86 46 0 58 -3 58 -16z m99 -17 c14 -18 -5 -37 -36
-37 -27 0 -29 7 -6 32 19 21 27 22 42 5z"/>
<path d="M8038 1030 c-3 -22 -9 -25 -48 -28 -25 -2 -49 -8 -55 -13 -14 -14 21
-39 54 -39 31 -1 71 -31 71 -54 0 -18 -54 -23 -65 -6 -3 6 -17 10 -30 10 -13
0 -27 5 -30 11 -8 12 -56 32 -62 26 -2 -3 1 -16 8 -30 7 -16 28 -31 58 -42 25
-10 50 -22 56 -26 14 -13 99 -11 113 3 7 7 12 23 12 38 0 32 -35 90 -55 90
-11 0 -14 6 -9 24 3 14 1 33 -4 42 -9 16 -10 15 -14 -6z"/>
<path d="M1480 1001 c0 -4 9 -20 20 -34 28 -35 26 -43 -20 -72 -22 -14 -40
-29 -40 -34 0 -19 41 -23 65 -7 34 22 50 20 69 -9 31 -47 63 -22 34 25 -19 29
1 54 44 58 27 2 37 9 42 25 10 39 -15 40 -102 5 -32 -13 -35 -12 -63 20 -28
31 -49 41 -49 23z"/>
<path d="M7078 979 c-36 -20 -5 -121 39 -127 29 -4 28 41 -1 54 -11 5 -22 17
-24 27 -7 34 104 13 137 -26 14 -18 14 -18 -39 -21 -40 -2 -44 -15 -10 -33 24
-12 87 -7 108 10 34 27 -5 76 -87 107 -56 22 -97 25 -123 9z"/>
<path d="M6222 923 c-7 -3 -19 -18 -28 -34 -13 -27 -13 -30 1 -36 24 -9 92 15
100 34 11 29 -34 52 -73 36z"/>
<path d="M1746 851 c-4 -6 6 -18 21 -27 73 -45 98 -85 71 -112 -16 -16 -45
-15 -113 3 -65 17 -85 12 -85 -21 0 -13 1 -24 3 -24 1 0 27 -9 57 -20 72 -26
92 -25 140 6 47 32 62 79 36 118 -31 49 -117 99 -130 77z"/>
<path d="M3950 761 c-13 -25 -13 -97 0 -122 27 -49 142 -76 188 -43 23 16 29
56 12 77 -5 7 -21 26 -35 43 -47 59 -143 85 -165 45z m124 -64 c28 -24 37 -39
33 -50 -7 -20 -57 -23 -57 -4 0 6 -4 18 -9 26 -8 12 -12 12 -25 2 -12 -10 -17
-8 -31 13 -36 55 28 64 89 13z"/>
<path d="M8106 763 c-4 -4 3 -15 15 -24 l22 -16 -35 -39 c-65 -72 -74 -113
-32 -140 l25 -17 -53 -26 c-54 -26 -73 -56 -43 -67 9 -4 33 2 53 14 20 11 55
23 77 26 22 4 51 16 65 26 20 16 23 22 14 37 -6 10 -28 23 -49 29 -63 17 -67
38 -17 84 51 48 58 90 17 108 -30 14 -49 15 -59 5z"/>
<path d="M1137 754 c-7 -8 3 -34 14 -34 4 0 20 -12 34 -26 33 -33 42 -82 21
-109 -15 -20 -15 -20 -16 2 0 28 -22 40 -86 48 -35 5 -54 2 -68 -8 -25 -19
-16 -39 33 -75 30 -22 52 -29 93 -31 53 -2 55 -1 81 37 43 61 31 106 -41 166
-44 36 -54 41 -65 30z m-30 -160 c-3 -3 -12 -4 -19 -1 -8 3 -5 6 6 6 11 1 17
-2 13 -5z"/>
<path d="M2590 717 c-12 -25 -35 -57 -51 -71 -25 -22 -30 -34 -27 -64 3 -32 7
-38 43 -51 22 -8 42 -16 43 -17 2 -1 -6 -12 -18 -24 -12 -12 -19 -24 -16 -27
7 -8 146 19 153 30 3 5 0 19 -7 32 -10 19 -26 26 -81 35 -48 8 -69 16 -69 26
0 8 18 37 40 65 43 54 49 79 25 99 -12 10 -18 4 -35 -33z"/>
<path d="M7182 741 c2 -5 29 -36 61 -70 84 -90 77 -129 -24 -132 -52 -2 -179
31 -206 53 -8 6 -13 7 -13 1 0 -17 74 -69 117 -81 22 -7 71 -13 108 -13 60 -1
69 2 96 27 33 31 35 47 14 97 -20 48 -170 164 -153 118z"/>
<path d="M3072 715 c-49 -41 -37 -96 28 -130 16 -8 37 -32 47 -53 20 -43 70
-119 83 -127 11 -7 2 -35 -11 -35 -17 0 -99 -42 -99 -51 0 -14 54 -10 94 6 26
11 42 13 56 5 30 -16 40 -12 40 19 0 29 14 43 75 77 28 15 31 50 6 57 -15 4
-32 -6 -60 -34 -36 -37 -71 -51 -71 -29 0 5 -12 24 -27 42 -27 32 -63 90 -63
102 0 3 11 6 25 6 14 0 43 8 64 17 47 20 61 55 35 84 -24 27 -93 58 -145 65
-39 5 -49 3 -77 -21z m133 -36 c54 -25 57 -45 10 -65 -65 -27 -118 -14 -136
34 -20 52 46 69 126 31z"/>
<path d="M407 708 c-18 -15 -37 -59 -37 -89 0 -19 55 -79 72 -79 5 0 8 7 8 15
0 8 -4 15 -8 15 -11 0 -32 46 -32 70 0 47 96 49 150 3 17 -14 30 -29 30 -34 0
-16 -64 -37 -83 -27 -9 5 -23 6 -29 2 -22 -14 26 -34 82 -34 51 0 58 3 68 25
18 38 15 52 -15 80 -46 42 -176 75 -206 53z"/>
<path d="M6323 651 c-29 -32 -53 -68 -53 -79 0 -22 46 -72 66 -72 8 0 14 -10
14 -24 0 -14 3 -27 8 -29 16 -9 144 29 154 47 14 26 1 34 -62 37 -59 3 -110
23 -110 43 0 16 42 56 59 56 19 0 52 41 49 59 -2 10 -16 17 -38 18 -31 2 -41
-4 -87 -56z"/>
<path d="M8870 687 c0 -14 14 -36 35 -54 40 -36 47 -79 16 -107 -16 -14 -31
-17 -73 -13 -96 10 -113 16 -126 49 -6 16 -16 27 -21 24 -18 -11 9 -53 51 -81
41 -27 109 -42 163 -37 71 8 92 109 41 196 -22 38 -32 46 -56 46 -25 0 -30 -4
-30 -23z"/>
<path d="M2198 650 c-2 -6 -21 -13 -43 -17 -47 -7 -191 -74 -208 -96 -12 -16
-62 -31 -139 -42 -63 -10 -62 -65 2 -65 50 0 104 -37 108 -74 4 -33 -11 -46
-53 -45 -50 0 -99 30 -110 67 -10 34 -25 43 -25 14 0 -27 32 -77 69 -109 28
-22 44 -28 80 -27 38 1 49 6 72 33 24 29 26 36 17 73 -5 22 -18 52 -28 66 -27
34 -26 39 15 52 29 10 37 9 52 -5 29 -30 62 -37 96 -20 16 8 36 15 42 15 7 0
33 30 57 68 61 91 61 91 48 107 -14 17 -47 20 -52 5z m-123 -140 c11 -18 -5
-31 -26 -20 -11 6 -17 15 -14 21 8 12 32 12 40 -1z"/>
<path d="M7000 634 c0 -14 3 -14 15 -4 8 7 15 14 15 16 0 2 -7 4 -15 4 -8 0
-15 -7 -15 -16z"/>
<path d="M5500 565 c-12 -7 -29 -27 -36 -44 -12 -28 -11 -38 1 -68 14 -34 16
-35 57 -27 24 4 77 8 118 8 70 1 75 3 89 28 15 25 14 29 -8 52 -43 46 -174 76
-221 51z m144 -56 c38 -18 27 -34 -25 -37 -45 -3 -119 20 -119 37 0 23 94 22
144 0z"/>
<path d="M4099 453 c-10 -11 -14 -45 -14 -107 l0 -91 -32 3 c-44 3 -43 -17 2
-46 l35 -22 21 21 c18 18 20 30 17 109 -2 49 0 91 4 95 14 14 78 -6 104 -32
24 -24 25 -28 10 -38 -23 -17 -20 -34 8 -41 34 -8 46 2 46 40 0 53 -89 126
-154 126 -19 0 -39 -7 -47 -17z"/>
<path d="M1016 452 c-13 -12 -5 -46 17 -67 12 -12 29 -30 38 -41 22 -26 67
-64 77 -64 5 0 19 -12 33 -26 25 -27 76 -54 104 -54 24 0 17 29 -10 42 -14 6
-25 15 -25 20 0 4 -4 8 -10 8 -5 0 -18 7 -27 15 -10 8 -37 28 -61 45 -24 17
-56 52 -72 77 -28 43 -50 59 -64 45z"/>
<path d="M4724 438 c-4 -7 8 -23 29 -41 21 -16 37 -33 37 -39 0 -12 -26 -38
-37 -38 -14 0 -64 -56 -57 -63 6 -6 36 4 91 30 43 20 59 13 70 -34 6 -28 14
-39 31 -41 32 -5 37 22 13 68 l-21 41 65 29 c69 31 83 55 39 66 -18 5 -31 0
-49 -16 -12 -12 -41 -24 -62 -27 -34 -4 -43 -1 -59 19 -10 13 -27 27 -36 31
-10 3 -18 11 -18 17 0 14 -27 13 -36 -2z"/>
<path d="M682 424 c-18 -13 -22 -22 -17 -44 3 -16 3 -44 0 -63 -7 -38 -9 -38
-92 -21 -45 9 -43 -10 5 -40 85 -56 142 -26 142 74 0 28 4 40 14 40 23 0 30
-20 15 -46 -11 -21 -10 -27 3 -40 22 -22 55 -9 61 24 9 45 -17 88 -64 111 -51
25 -40 24 -67 5z"/>
<path d="M1351 386 c-13 -14 -37 -30 -54 -37 -50 -20 -68 -38 -57 -60 10 -17
16 -15 90 22 77 39 108 68 95 89 -11 18 -51 10 -74 -14z"/>
<path d="M1810 386 c0 -9 5 -16 10 -16 6 0 10 4 10 9 0 6 -4 13 -10 16 -5 3
-10 -1 -10 -9z"/>
<path d="M2540 347 c0 -13 -9 -32 -20 -42 -43 -39 -5 -64 39 -26 28 24 27 84
-1 89 -13 3 -18 -3 -18 -21z"/>
<path d="M2655 330 c-22 -16 -40 -34 -40 -42 0 -22 68 -7 112 25 9 7 10 15 2
28 -13 25 -26 23 -74 -11z"/>
<path d="M500 325 c0 -9 5 -15 11 -13 6 2 11 8 11 13 0 5 -5 11 -11 13 -6 2
-11 -4 -11 -13z"/>
<path d="M2792 109 c2 -6 8 -10 13 -10 5 0 11 4 13 10 2 6 -4 11 -13 11 -9 0
-15 -5 -13 -11z"/>
</g>
</svg>
