<?xml version="1.0" standalone="no"?>
<!DOCTYPE svg PUBLIC "-//W3C//DTD SVG 20010904//EN"
 "http://www.w3.org/TR/2001/REC-SVG-20010904/DTD/svg10.dtd">
<svg version="1.0" xmlns="http://www.w3.org/2000/svg"
 width="1049.000000pt" height="1393.000000pt" viewBox="0 0 1049.000000 1393.000000"
 preserveAspectRatio="xMidYMid meet">

<g transform="translate(0.000000,1393.000000) scale(0.100000,-0.100000)"
fill="#000000" stroke="none">
<path d="M10092 13752 c-23 -7 -14 -65 15 -89 23 -21 29 -22 47 -9 15 10 21
24 21 52 0 37 -2 39 -36 44 -19 4 -41 4 -47 2z"/>
<path d="M9812 13515 c-22 -23 -22 -25 -6 -49 21 -33 73 -36 91 -6 17 25 7 47
-28 65 -35 18 -30 19 -57 -10z"/>
<path d="M10139 13428 c-2 -26 3 -53 13 -65 24 -30 88 -4 88 36 0 31 -98 59
-101 29z"/>
<path d="M9510 13222 c-23 -8 -27 -20 -21 -59 10 -60 82 -65 94 -6 8 42 -32
78 -73 65z"/>
<path d="M10124 13192 c-44 -37 0 -115 54 -98 33 11 39 62 11 92 -27 28 -37
29 -65 6z"/>
<path d="M9992 13008 c-7 -7 -12 -26 -12 -42 l-1 -31 -22 26 c-48 54 -69 9
-57 -124 8 -99 17 -118 58 -131 37 -12 60 2 78 49 9 25 20 45 23 45 4 0 15
-10 25 -22 16 -18 17 -27 8 -67 -7 -28 -7 -50 -1 -55 5 -6 9 -17 9 -26 0 -17
41 -52 74 -62 35 -10 96 -9 119 3 36 19 77 72 77 101 0 29 -32 57 -94 83 -20
9 -36 19 -36 24 0 5 -14 11 -32 15 -44 9 -122 95 -138 152 -7 25 -22 51 -34
59 -25 18 -29 18 -44 3z m232 -310 c47 -14 60 -27 44 -45 -13 -16 -70 -17 -86
-1 -12 12 -17 58 -6 58 4 0 25 -5 48 -12z"/>
<path d="M9253 12957 c-5 -7 -10 -26 -12 -44 -2 -27 3 -34 29 -48 30 -15 31
-15 60 13 l29 29 -22 21 c-32 30 -73 44 -84 29z"/>
<path d="M9760 12691 c-5 -11 -13 -47 -17 -81 -6 -65 -14 -71 -53 -40 -30 24
-46 25 -54 5 -19 -51 110 -179 156 -154 15 8 18 22 18 79 0 97 2 100 60 93 40
-5 51 -2 69 16 40 40 20 104 -25 75 -20 -14 -25 -14 -46 -1 -13 8 -40 18 -60
21 -31 6 -39 3 -48 -13z"/>
<path d="M8893 12650 c-26 -11 -28 -16 -10 -53 18 -38 54 -52 78 -31 29 26 24
61 -11 79 -16 8 -30 15 -32 14 -2 0 -13 -4 -25 -9z"/>
<path d="M9422 12558 c-16 -16 -15 -29 7 -55 25 -30 84 -35 95 -8 8 23 -4 44
-35 60 -34 18 -51 19 -67 3z"/>
<path d="M9534 12406 c-4 -10 4 -32 20 -54 14 -21 26 -41 26 -46 0 -16 57 -65
82 -71 23 -6 29 -3 37 18 10 25 5 67 -8 67 -4 0 -27 20 -52 44 -50 50 -95 68
-105 42z"/>
<path d="M9250 12376 c0 -14 11 -56 25 -94 30 -84 30 -88 5 -95 -13 -3 -20
-14 -20 -29 0 -33 18 -48 60 -48 32 0 38 -5 63 -50 16 -28 31 -50 35 -51 4 0
15 -2 25 -4 19 -4 47 19 47 38 0 7 -14 32 -30 56 -46 68 -47 82 -6 140 40 56
43 72 20 95 -22 23 -31 20 -70 -21 l-34 -38 -20 25 c-11 14 -20 30 -20 36 0
14 -53 64 -68 64 -7 0 -12 -11 -12 -24z"/>
<path d="M9019 12234 c-11 -13 -7 -27 27 -92 21 -42 45 -82 51 -90 7 -7 22
-44 34 -83 22 -71 52 -125 81 -143 13 -8 22 -6 37 8 29 26 26 59 -7 98 -16 18
-32 46 -36 63 -7 26 -54 128 -90 192 -16 29 -55 63 -71 63 -7 0 -18 -7 -26
-16z"/>
<path d="M8906 11874 c-4 -9 -1 -23 6 -31 20 -25 16 -133 -8 -177 -11 -22 -25
-41 -30 -43 -10 -3 -44 63 -44 85 0 17 -30 42 -51 42 -28 0 -33 -38 -14 -104
22 -76 49 -106 103 -113 32 -4 47 -1 62 12 47 43 81 152 74 239 -5 71 -10 81
-47 94 -43 15 -44 15 -51 -4z"/>
<path d="M8534 11712 c-18 -12 -34 -71 -34 -123 0 -63 24 -89 80 -89 46 0 50
-11 15 -46 -28 -28 -25 -44 15 -67 28 -17 29 -17 52 5 25 23 68 108 68 130 -1
21 -45 47 -82 49 -60 3 -68 8 -68 44 0 19 5 37 10 40 16 10 12 36 -7 51 -20
15 -33 17 -49 6z"/>
<path d="M8284 11422 c-6 -4 -15 -26 -19 -49 -7 -46 -20 -55 -30 -24 -6 21
-38 36 -55 26 -49 -30 70 -232 121 -205 16 9 34 46 42 85 2 11 9 18 18 16 52
-13 95 -10 116 8 28 23 46 67 38 92 -8 26 -28 24 -63 -6 -17 -14 -33 -25 -36
-25 -4 0 -26 20 -50 45 -44 44 -60 52 -82 37z"/>
<path d="M7964 11227 c-45 -27 -55 -44 -48 -89 13 -96 49 -142 117 -153 46 -8
86 31 112 107 17 51 17 60 4 84 -24 46 -139 77 -185 51z m111 -77 c9 -15 -28
-75 -46 -75 -20 0 -21 57 -1 73 19 15 39 16 47 2z"/>
<path d="M7600 11141 c-31 -32 -33 -38 -50 -122 -19 -97 11 -178 77 -206 54
-22 96 -10 136 40 50 62 61 85 46 103 -18 22 -34 17 -85 -31 -51 -48 -65 -53
-84 -30 -20 24 -8 150 17 184 33 43 37 68 14 80 -30 16 -39 14 -71 -18z"/>
<path d="M6955 10619 c-4 -6 -4 -39 0 -75 4 -38 3 -64 -3 -64 -5 0 -9 14 -10
32 -1 41 -26 67 -50 52 -25 -16 -37 -135 -17 -174 31 -61 83 -64 128 -8 l31
38 25 -23 c14 -13 39 -31 54 -41 24 -15 26 -20 15 -29 -49 -41 -60 -105 -28
-160 51 -86 164 -74 226 24 23 38 25 44 12 67 -18 35 -76 90 -102 98 -21 6
-76 48 -126 95 -37 35 -66 80 -74 114 -13 53 -62 86 -81 54z m269 -339 c55
-35 57 -55 9 -83 -33 -19 -67 -16 -76 7 -7 17 4 106 12 106 4 0 29 -14 55 -30z"/>
<path d="M6693 10372 c-30 -5 -40 -19 -57 -87 -9 -32 -18 -60 -20 -63 -3 -2
-17 7 -32 22 -21 19 -31 22 -41 14 -19 -16 -16 -32 17 -98 59 -118 122 -106
135 25 9 87 12 91 35 70 11 -10 20 -24 20 -31 0 -19 36 -36 68 -32 38 4 69 60
52 92 -10 19 -18 23 -44 19 -27 -3 -34 0 -46 22 -17 31 -56 53 -87 47z"/>
<path d="M6291 10252 c-14 -26 13 -62 44 -62 34 0 67 37 54 61 -14 26 -84 26
-98 1z"/>
<path d="M6144 10123 c-3 -16 -10 -41 -15 -57 -5 -16 -9 -51 -9 -77 0 -59 -15
-70 -38 -29 -30 55 -53 80 -73 80 -14 0 -19 -7 -19 -30 0 -74 99 -254 147
-266 33 -9 42 3 50 64 3 29 7 52 8 52 2 0 22 -9 46 -20 73 -33 120 -26 144 21
20 37 19 74 -2 95 -16 16 -19 15 -44 -16 -25 -30 -30 -32 -68 -25 -23 4 -41
11 -41 16 0 5 -7 9 -15 9 -20 0 -20 55 0 93 8 15 17 43 21 62 5 27 2 35 -14
44 -12 6 -32 11 -46 11 -20 0 -27 -6 -32 -27z"/>
<path d="M6367 10143 c-16 -15 -4 -43 41 -104 31 -42 56 -65 72 -67 27 -4 50
20 50 52 -1 26 -33 66 -54 66 -8 0 -26 11 -39 24 -26 26 -60 40 -70 29z"/>
<path d="M5720 9813 c-20 -26 -22 -37 -18 -124 4 -88 7 -98 33 -127 21 -23 37
-32 60 -32 31 0 65 25 65 48 0 7 12 9 33 5 41 -6 83 26 97 75 8 30 7 34 -18
43 -23 9 -29 7 -41 -10 -19 -29 -28 -26 -36 12 -12 60 -16 67 -38 67 -45 0
-65 12 -71 41 -7 38 -37 38 -66 2z m80 -120 c0 -19 -3 -24 -10 -17 -6 6 -8 18
-4 27 9 24 14 21 14 -10z"/>
<path d="M5494 9563 c-15 -11 -44 -89 -44 -118 0 -31 -10 -31 -42 -1 -70 64
-129 56 -151 -21 -10 -35 -19 -48 -33 -49 -40 -2 -44 -5 -44 -25 0 -50 49
-173 78 -196 22 -18 59 -16 66 3 3 9 6 60 6 114 0 64 4 101 12 106 11 7 34
-15 67 -64 8 -12 28 -27 44 -33 27 -11 32 -10 48 9 10 13 23 56 30 97 6 41 15
75 18 75 3 0 19 -13 34 -30 52 -54 91 -35 107 52 6 31 4 39 -11 43 -11 4 -28
3 -40 0 -14 -5 -28 0 -42 13 -24 22 -86 37 -103 25z"/>
<path d="M4899 9133 c-6 -16 -13 -42 -16 -60 -5 -28 -2 -34 21 -44 23 -11 29
-9 51 11 45 42 27 119 -28 120 -10 0 -22 -12 -28 -27z"/>
<path d="M4668 8892 c-7 -8 -15 -38 -18 -66 l-5 -51 -52 -10 c-71 -14 -100
-44 -119 -126 -17 -74 -14 -87 44 -157 36 -44 83 -72 120 -72 11 0 32 12 47
26 25 23 27 30 22 74 -8 63 -20 86 -58 106 -24 12 -37 13 -60 5 -30 -10 -30
-10 -27 21 4 45 30 57 70 34 18 -10 45 -30 61 -44 23 -22 31 -24 55 -16 37 13
39 41 7 120 -29 71 -27 99 4 89 11 -3 46 -7 77 -9 59 -3 92 14 96 49 0 8 1 21
2 28 2 20 -249 20 -266 -1z m-43 -363 c4 -11 5 -23 2 -25 -8 -8 -38 27 -32 37
10 15 23 10 30 -12z"/>
<path d="M4220 8463 c-22 -9 -60 -52 -60 -68 0 -20 28 -45 50 -45 12 0 29 17
46 45 21 37 24 48 14 60 -13 16 -25 17 -50 8z"/>
<path d="M4414 8296 c-8 -21 24 -72 53 -85 13 -6 35 -11 48 -11 13 0 27 -4 30
-10 12 -20 52 -11 59 13 14 55 12 56 -103 91 -66 20 -80 20 -87 2z"/>
<path d="M3775 8215 c-21 -8 -47 -24 -57 -37 -24 -31 -33 -85 -18 -103 15 -18
46 -20 56 -4 4 6 16 -6 30 -29 27 -45 79 -82 115 -82 29 0 81 33 90 57 17 50
-49 175 -107 199 -41 17 -58 17 -109 -1z m111 -104 c28 -54 23 -66 -19 -43
-18 9 -43 19 -57 22 -52 11 -26 75 29 68 16 -2 31 -17 47 -47z"/>
<path d="M4273 8093 c-13 -33 -13 -41 -1 -63 23 -42 58 -53 115 -35 26 9 56
20 65 25 41 23 53 -5 18 -40 -27 -27 -25 -36 8 -47 67 -22 108 16 99 93 -9 86
-60 105 -158 60 -56 -27 -69 -26 -69 4 0 19 -27 40 -50 40 -6 0 -18 -17 -27
-37z"/>
<path d="M3143 8073 c-20 -4 -23 -11 -23 -52 0 -34 -6 -56 -21 -75 -12 -15
-20 -28 -18 -30 17 -15 53 -26 67 -22 45 15 71 136 36 170 -8 9 -16 15 -17 15
-1 -1 -12 -4 -24 -6z"/>
<path d="M3704 7942 c-6 -4 -16 -17 -23 -29 -15 -29 -20 -28 -79 0 -34 17 -55
21 -70 16 -44 -17 -18 -61 60 -100 54 -27 53 -26 39 -43 -7 -8 -11 -25 -9 -38
3 -26 23 -26 72 -2 35 17 60 18 85 2 15 -9 28 -9 60 2 51 16 55 44 9 68 -17 9
-39 24 -48 33 -9 8 -22 13 -28 11 -11 -3 -17 11 -13 32 3 15 -21 56 -33 56 -6
0 -16 -4 -22 -8z"/>
<path d="M2867 7832 c-9 -10 -22 -32 -28 -49 -8 -26 -7 -38 10 -72 12 -22 21
-49 21 -60 0 -23 66 -89 98 -97 12 -4 33 -3 47 0 42 11 32 47 -30 113 -49 52
-55 63 -55 101 0 74 -28 102 -63 64z"/>
<path d="M4170 7831 c0 -5 -13 -12 -29 -16 -42 -9 -54 -27 -35 -53 19 -28 58
-28 84 -2 23 23 26 50 8 68 -14 14 -28 16 -28 3z"/>
<path d="M4332 7745 c-32 -23 -28 -52 11 -75 42 -26 97 -26 125 0 25 24 29 50
7 50 -8 0 -15 4 -15 9 0 5 -17 11 -37 13 -21 3 -45 8 -53 12 -8 3 -25 -1 -38
-9z"/>
<path d="M2640 7585 c-22 -24 -25 -50 -9 -92 23 -62 118 -133 176 -133 35 0
99 42 108 70 7 22 -18 70 -35 70 -6 0 -16 -11 -22 -25 -17 -38 -37 -27 -61 34
-35 87 -112 124 -157 76z"/>
<path d="M3755 7601 c-3 -6 -35 -11 -70 -11 -84 0 -115 -12 -115 -45 0 -14 9
-34 20 -45 27 -27 25 -35 -10 -50 -25 -10 -28 -15 -19 -31 14 -27 114 -72 141
-63 55 16 62 49 23 100 -33 43 -32 51 8 59 35 8 67 31 67 50 0 19 -37 48 -45
36z"/>
<path d="M4260 7591 c-15 -28 -12 -97 5 -131 20 -38 62 -70 93 -70 51 0 89 22
106 60 18 41 21 90 6 90 -5 0 -10 6 -10 14 0 8 -6 16 -12 19 -26 9 -47 -13
-54 -58 -3 -26 -12 -45 -19 -45 -20 0 -45 46 -45 83 0 54 -47 79 -70 38z"/>
<path d="M3336 7322 c-45 -27 -55 -50 -31 -68 31 -23 83 -14 103 19 31 51 -15
83 -72 49z"/>
<path d="M4166 7286 c-32 -35 -38 -85 -19 -142 20 -59 83 -124 120 -124 39 0
96 22 114 44 25 31 43 110 29 135 -14 27 -29 26 -62 -3 l-26 -25 -12 32 c-31
86 -43 102 -82 105 -30 3 -43 -2 -62 -22z"/>
<path d="M2605 7279 c-4 -10 -11 -19 -16 -19 -5 0 -9 -13 -9 -30 0 -16 5 -30
10 -30 12 0 46 -67 39 -75 -3 -2 -39 7 -80 21 -124 42 -163 15 -152 -104 6
-63 6 -64 -15 -53 -34 18 -70 14 -77 -10 -7 -22 18 -59 41 -59 7 0 19 -6 26
-14 8 -8 23 -15 33 -17 13 -3 22 -17 28 -42 12 -48 39 -64 73 -42 13 8 24 22
24 31 0 12 9 13 53 8 28 -4 58 -10 66 -14 8 -4 28 -4 45 1 17 5 38 7 47 4 11
-4 25 4 38 21 34 43 13 54 -105 58 -106 4 -169 23 -178 53 -3 10 -8 40 -12 67
-6 45 -5 49 12 42 11 -4 42 -14 69 -21 28 -8 68 -20 89 -28 45 -16 68 -13 92
14 15 17 16 24 4 59 -7 22 -19 45 -27 51 -7 6 -13 20 -13 31 0 17 5 20 31 16
23 -4 34 1 50 20 41 52 22 67 -93 75 -80 5 -87 4 -93 -14z"/>
<path d="M3529 7243 c-15 -2 -36 -14 -48 -27 -19 -20 -20 -25 -7 -35 22 -19
185 -22 214 -5 70 44 -31 87 -159 67z"/>
<path d="M3411 6974 c-27 -19 -60 -88 -61 -125 0 -40 73 -96 136 -104 46 -6
51 -4 82 25 38 38 41 68 11 131 -33 69 -56 89 -104 89 -22 0 -51 -7 -64 -16z
m89 -83 c10 -21 14 -71 5 -71 -11 0 -55 53 -55 65 0 30 35 34 50 6z"/>
<path d="M4037 6944 c-32 -10 -87 -71 -87 -97 0 -46 68 -115 147 -148 48 -20
52 -25 59 -63 14 -86 95 -218 155 -254 34 -19 73 -10 110 28 24 23 29 37 29
77 0 51 -28 162 -54 215 -18 35 -20 71 -6 97 6 12 6 31 -1 55 -9 31 -14 36
-40 36 -17 0 -32 -6 -35 -15 -8 -19 -19 -19 -38 1 -50 50 -177 86 -239 68z
m128 -84 c11 -4 38 -24 60 -43 53 -47 40 -61 -49 -55 -59 4 -68 7 -100 40 -39
41 -45 64 -18 71 19 5 77 -2 107 -13z m170 -217 c32 -70 47 -193 23 -193 -35
0 -104 118 -110 185 -3 33 1 41 22 52 14 7 28 13 32 13 3 0 18 -26 33 -57z"/>
<path d="M3273 6671 c-11 -19 -26 -31 -39 -31 -26 0 -49 -47 -37 -76 4 -10 22
-38 38 -61 70 -98 174 -91 188 12 l4 30 74 1 c41 0 90 3 110 7 47 9 64 -9 55
-58 -9 -47 -21 -51 -46 -15 -23 32 -50 39 -69 16 -15 -18 12 -122 39 -150 17
-17 22 -18 50 -6 17 7 37 25 45 40 8 16 21 34 28 42 33 33 46 117 25 162 -16
36 -36 40 -180 37 -87 -2 -128 1 -128 8 0 6 -9 11 -20 11 -12 0 -31 11 -43 24
-13 14 -35 28 -50 31 -23 6 -29 2 -44 -24z m51 -102 c19 -46 19 -49 6 -49 -13
0 -50 60 -50 82 0 30 27 9 44 -33z"/>
<path d="M2577 6602 c-43 -47 -37 -102 16 -159 41 -44 84 -62 132 -57 54 6 76
18 103 60 28 43 22 87 -14 111 -23 15 -26 15 -38 -3 -13 -17 -16 -16 -56 24
-36 36 -48 42 -85 42 -27 0 -47 -6 -58 -18z m104 -104 c14 -26 -4 -22 -30 6
-14 15 -20 30 -16 37 8 12 23 -2 46 -43z"/>
<path d="M2570 6390 c-24 -24 -25 -39 -5 -46 8 -4 15 -12 15 -19 0 -7 -7 -18
-15 -25 -44 -36 15 -132 90 -146 34 -6 41 -4 62 21 17 19 23 37 21 59 -3 31
-3 31 42 29 25 -1 90 1 145 6 65 6 102 5 106 -1 10 -16 -11 -81 -34 -106 -13
-14 -29 -21 -41 -18 -10 3 -29 -2 -42 -11 -23 -15 -23 -16 -7 -44 15 -25 24
-29 60 -29 24 0 43 3 43 8 0 4 20 34 44 67 77 102 82 191 13 212 -19 5 -45 6
-62 1 -79 -22 -308 -3 -346 29 -8 7 -21 13 -27 13 -7 0 -12 5 -12 10 0 17 -29
11 -50 -10z"/>
<path d="M1887 6279 c-34 -34 -44 -39 -59 -30 -12 7 -26 8 -44 1 -24 -9 -26
-14 -21 -46 13 -78 66 -88 129 -24 22 22 44 40 49 40 11 0 11 2 -1 -39 -17
-61 21 -80 74 -37 26 21 28 28 21 62 -10 56 -32 93 -61 104 -38 15 -43 13 -87
-31z"/>
<path d="M3375 6027 c-38 -38 -55 -99 -36 -128 6 -11 11 -27 11 -36 1 -40 34
-61 117 -74 75 -11 83 -11 114 7 28 16 35 27 37 59 5 53 -3 75 -39 121 -69 88
-148 107 -204 51z m96 -47 c20 -11 59 -79 59 -105 0 -21 -23 -19 -70 5 -48 24
-61 61 -35 90 21 23 20 23 46 10z"/>
<path d="M2614 5996 c-42 -41 -44 -46 -44 -102 0 -59 21 -115 58 -156 14 -17
17 -17 47 2 23 14 41 18 64 14 42 -9 78 16 86 60 14 72 -87 226 -148 226 -11
0 -39 -20 -63 -44z m76 -46 c0 -5 8 -18 18 -28 23 -23 43 -70 33 -76 -4 -3
-27 7 -50 22 -42 27 -53 56 -29 80 15 15 28 16 28 2z"/>
<path d="M1723 5993 c-18 -7 -16 -58 2 -73 31 -26 92 34 70 69 -6 11 -50 14
-72 4z"/>
<path d="M4058 5959 c-26 -15 -22 -35 12 -67 35 -34 74 -117 66 -139 -4 -11
-15 -14 -36 -11 -65 10 -60 -49 7 -77 49 -21 64 -19 97 11 21 21 27 33 22 53
-19 91 -19 94 -3 88 44 -17 172 -36 252 -38 50 -1 95 -4 101 -6 18 -7 3 -52
-24 -73 -30 -24 -51 -26 -58 -5 -8 19 -48 19 -64 0 -8 -10 -9 -26 -3 -52 15
-64 56 -67 148 -10 65 40 123 155 97 193 -13 19 -71 36 -104 30 -37 -7 -237
10 -283 24 -16 5 -50 14 -74 21 -24 7 -45 19 -48 26 -3 7 -11 13 -18 13 -7 0
-18 7 -25 15 -14 17 -37 19 -62 4z"/>
<path d="M2006 5931 c-3 -5 -21 -12 -40 -15 -65 -12 -88 -75 -29 -77 70 -3
119 14 129 43 10 33 -43 77 -60 49z"/>
<path d="M336 5851 c-9 -9 -16 -29 -16 -42 0 -32 79 -150 110 -166 42 -21 97
12 131 80 11 20 26 37 34 37 23 0 49 -49 50 -94 3 -61 4 -66 19 -66 30 0 66
41 66 75 0 38 -33 105 -72 148 -25 26 -32 28 -70 23 -24 -3 -52 -7 -63 -8 -11
-1 -34 -17 -52 -34 l-32 -32 -19 22 c-10 11 -22 29 -25 38 -10 30 -42 40 -61
19z"/>
<path d="M1271 5791 c-6 -11 -11 -29 -11 -40 0 -30 -14 -33 -77 -17 -32 8 -93
17 -137 20 -69 5 -83 3 -118 -16 -115 -65 -8 -187 172 -196 69 -4 78 -7 110
-38 34 -32 103 -64 140 -64 40 0 78 30 85 66 5 31 1 44 -27 85 -18 27 -37 49
-42 49 -5 0 -17 10 -28 22 -14 17 -18 31 -13 58 9 59 -32 113 -54 71z m-149
-110 c13 -5 35 -12 51 -15 30 -7 36 -30 11 -40 -9 -3 -44 -6 -78 -6 -51 0 -70
5 -104 27 -65 42 -57 57 28 49 38 -3 80 -10 92 -15z m202 -105 c53 -48 18 -77
-38 -33 -20 16 -27 29 -23 40 9 24 32 21 61 -7z"/>
<path d="M3370 5765 c-8 -9 -10 -27 -6 -46 8 -41 -8 -59 -51 -59 -56 0 -110
-70 -67 -87 9 -3 35 -2 58 3 66 15 74 10 82 -54 7 -64 18 -82 46 -82 33 0 48
25 48 80 l0 52 48 -7 c44 -6 49 -4 61 18 24 44 12 62 -44 65 -86 4 -89 6 -102
63 -16 67 -45 88 -73 54z"/>
<path d="M2035 5726 c-10 -24 -26 -38 -53 -49 -55 -22 -67 -40 -52 -77 7 -16
16 -30 21 -30 5 0 13 -9 19 -20 11 -20 9 -21 -32 -20 -45 1 -116 -12 -136 -24
-18 -11 -15 -34 6 -44 27 -13 263 -8 290 6 35 20 28 54 -18 91 -22 17 -40 38
-40 46 0 8 16 23 37 32 44 22 58 42 50 75 -6 22 -42 48 -68 48 -6 0 -16 -15
-24 -34z"/>
<path d="M2617 5683 c-3 -4 -8 -23 -12 -41 -6 -31 -9 -32 -41 -26 -39 7 -64
-8 -64 -37 0 -20 14 -28 88 -50 33 -9 44 -18 48 -38 16 -76 45 -99 75 -60 10
13 19 32 19 42 0 14 9 17 45 17 32 0 51 6 65 20 39 39 21 57 -62 62 -37 2 -70
7 -74 11 -4 4 -12 28 -19 54 -10 40 -16 49 -38 51 -14 2 -27 0 -30 -5z"/>
<path d="M273 5613 c-15 -3 -24 -14 -28 -35 -11 -50 27 -59 82 -19 26 19 30
46 7 55 -16 6 -24 6 -61 -1z"/>
<path d="M590 5560 c-14 -4 -48 -8 -76 -9 -52 -1 -74 -13 -74 -42 0 -28 23
-38 96 -40 60 -3 75 1 102 20 36 25 40 42 16 65 -17 17 -26 18 -64 6z"/>
<path d="M4150 5505 c-10 -12 -24 -14 -61 -9 -45 6 -49 5 -60 -19 -10 -22 -7
-33 20 -80 17 -30 31 -60 31 -66 0 -6 -15 -11 -34 -11 -22 0 -45 -9 -62 -23
l-27 -23 19 -30 c10 -16 25 -36 33 -44 13 -13 12 -15 -10 -18 -36 -4 -73 -36
-66 -56 7 -19 2 -17 120 -45 109 -26 129 -26 152 -1 21 23 21 23 -64 106 l-54
53 29 12 c53 21 59 26 62 53 2 15 -4 43 -13 62 -17 36 -13 54 10 54 16 0 45
38 45 57 0 7 -9 13 -20 13 -10 0 -23 7 -28 16 -8 14 -10 14 -22 -1z"/>
<path d="M1106 5409 c-21 -17 -26 -29 -26 -65 0 -24 4 -44 8 -44 4 0 14 -16
21 -35 19 -53 55 -90 111 -114 75 -32 146 -17 174 38 19 36 17 86 -6 138 -31
70 -87 71 -67 0 5 -21 9 -54 7 -75 -4 -48 -38 -53 -52 -7 -26 84 -40 114 -71
148 -39 42 -61 46 -99 16z"/>
<path d="M3518 5163 c-1 -5 -2 -79 -3 -165 0 -143 -2 -159 -21 -185 -12 -15
-32 -29 -45 -31 -14 -2 -19 1 -13 5 23 17 25 74 3 119 -26 51 -61 69 -118 59
-83 -14 -105 -102 -45 -180 60 -79 171 -102 240 -50 50 38 67 84 71 185 1 46
5 90 7 96 3 7 -4 29 -15 50 -10 21 -19 45 -19 54 -1 27 -36 63 -42 43z m-154
-290 c9 -24 -9 -39 -29 -23 -8 7 -15 19 -15 26 0 20 37 17 44 -3z"/>
<path d="M1963 5090 c-45 -11 -81 -36 -103 -73 -25 -41 -25 -53 1 -60 13 -4
31 4 52 22 69 60 110 61 136 4 21 -45 14 -61 -26 -69 -36 -7 -63 -24 -63 -40
0 -4 18 -22 40 -41 52 -45 53 -65 2 -57 -41 6 -69 -13 -59 -41 9 -21 73 -45
123 -45 66 0 92 50 59 114 -17 32 -19 56 -6 56 16 0 31 59 21 84 -5 13 -6 26
-3 29 9 9 -36 75 -66 96 -35 25 -67 31 -108 21z"/>
<path d="M1265 5045 c-19 -20 -35 -40 -35 -45 0 -13 -32 -50 -43 -50 -4 0 -16
20 -27 45 -19 44 -31 51 -64 39 -32 -12 -9 -99 42 -156 37 -42 108 -8 144 68
11 24 24 46 28 49 5 3 18 -11 30 -30 21 -33 21 -37 6 -54 -21 -23 -20 -34 2
-54 25 -23 54 -21 80 3 25 24 25 21 9 80 -25 88 -68 140 -116 140 -11 0 -36
-16 -56 -35z"/>
<path d="M2637 5015 c-24 -25 -46 -45 -50 -45 -4 0 -12 11 -17 25 -13 34 -57
35 -70 1 -11 -29 2 -80 26 -107 32 -36 93 -16 123 39 6 12 18 22 26 22 15 0
18 -15 18 -105 0 -43 9 -55 44 -55 35 0 46 34 40 120 -7 105 -32 150 -84 150
-8 0 -33 -20 -56 -45z"/>
<path d="M593 5042 c-7 -4 -14 -32 -17 -62 -8 -75 -15 -79 -91 -52 -54 20 -76
23 -141 18 -93 -7 -179 -43 -193 -79 -14 -37 4 -98 37 -128 36 -32 133 -54
204 -46 49 6 53 5 111 -38 51 -39 66 -45 107 -45 49 0 69 11 90 50 17 32 -6
111 -46 155 -24 27 -33 46 -30 60 3 12 8 46 12 77 5 47 3 59 -12 77 -11 11
-25 17 -31 13z m-148 -175 c73 -27 81 -47 28 -73 -82 -39 -199 -28 -246 24
-16 18 -16 20 -1 33 20 17 88 37 129 37 17 1 57 -9 90 -21z m168 -115 c26 -23
23 -62 -6 -62 -26 0 -67 26 -67 42 0 18 32 48 44 41 6 -3 19 -13 29 -21z"/>
<path d="M1262 4803 c-8 -3 -22 -25 -32 -49 -11 -24 -24 -44 -29 -44 -13 0
-49 39 -56 61 -13 40 -75 28 -75 -14 0 -21 14 -43 61 -98 43 -50 105 -54 136
-9 20 28 32 25 48 -13 29 -71 82 -87 98 -30 8 26 4 41 -18 86 -48 93 -89 128
-133 110z"/>
<path d="M2503 4684 c-14 -22 -15 -32 -5 -71 26 -94 129 -193 203 -193 42 0
89 47 89 89 0 28 -29 71 -47 71 -19 -1 -33 -18 -31 -38 6 -43 -16 -21 -33 33
-30 98 -63 134 -121 135 -30 0 -41 -6 -55 -26z"/>
<path d="M3500 4606 c-14 -8 -50 -13 -80 -13 -66 0 -97 -14 -106 -49 -5 -19 0
-32 20 -53 34 -35 33 -47 -4 -55 -64 -12 -101 -83 -64 -121 14 -13 14 -18 2
-33 -7 -9 -17 -20 -21 -23 -22 -16 0 -44 48 -59 28 -9 57 -19 65 -22 109 -41
147 -47 168 -26 27 27 20 36 -92 118 -87 63 -102 97 -38 87 20 -4 48 -9 62
-12 14 -4 33 0 44 8 26 19 16 55 -29 103 -48 51 -46 64 12 64 76 0 112 49 65
88 -19 15 -21 15 -52 -2z"/>
<path d="M1984 4595 c-63 -28 -96 -100 -73 -158 24 -60 94 -102 171 -102 41 0
52 4 68 25 25 32 25 70 0 123 -25 51 -35 64 -78 100 -37 30 -44 31 -88 12z
m56 -77 c11 -12 20 -26 20 -32 0 -5 9 -20 21 -32 23 -25 18 -44 -12 -44 -24 0
-89 68 -83 87 2 7 6 20 9 28 6 21 21 19 45 -7z"/>
<path d="M1101 4566 c-36 -38 -33 -107 7 -172 18 -28 32 -58 32 -67 0 -9 -13
-42 -30 -72 -40 -74 -39 -88 15 -122 44 -28 55 -46 35 -58 -5 -3 -10 -14 -10
-25 0 -10 -15 -27 -34 -38 -18 -11 -42 -34 -52 -51 -13 -22 -23 -29 -34 -25
-25 11 -68 7 -84 -7 -55 -50 -66 -51 -66 -5 0 67 -25 86 -54 44 -31 -44 -12
-139 34 -171 28 -19 46 -13 86 30 18 18 37 33 43 33 14 0 15 -27 1 -35 -13 -8
-13 -52 0 -60 24 -15 67 6 83 40 19 40 33 43 79 16 36 -21 152 -44 238 -46 95
-3 90 0 90 -52 -1 -27 -5 -66 -10 -88 -4 -22 -16 -76 -24 -120 -9 -44 -23
-111 -31 -150 -8 -38 -17 -97 -20 -130 -10 -101 -14 -113 -44 -123 -25 -9 -30
-18 -41 -74 -14 -74 -13 -147 2 -165 14 -17 63 -17 77 1 6 7 9 21 5 30 -6 16
2 43 36 121 9 22 20 63 24 90 7 55 19 134 36 235 6 36 12 81 15 100 3 19 9 53
15 75 5 22 13 91 17 153 4 75 11 116 20 123 16 14 17 45 2 55 -6 3 -9 16 -7
29 7 33 -18 63 -40 49 -9 -6 -19 -21 -22 -34 -7 -29 -49 -44 -96 -36 -29 6
-34 11 -34 35 0 30 -29 73 -75 114 l-30 26 61 1 c44 0 68 5 83 18 20 16 21 18
6 40 -11 15 -26 22 -49 22 -17 0 -36 4 -41 8 -6 5 -30 15 -55 22 -88 26 -104
48 -78 105 10 22 17 25 37 20 95 -23 105 -23 141 -5 54 28 78 89 55 143 -18
43 -24 48 -46 37 -15 -9 -17 -18 -12 -59 5 -48 5 -49 -25 -56 -28 -6 -72 7
-72 21 0 3 7 12 15 20 22 22 18 59 -10 104 -14 22 -25 43 -25 46 0 4 -14 20
-32 36 -39 35 -77 36 -107 4z m103 -139 c3 -15 3 -27 -2 -27 -9 0 -42 64 -42
82 0 20 36 -26 44 -55z m53 -484 c26 -18 39 -51 25 -65 -7 -7 -32 -8 -66 -4
-81 11 -111 48 -63 81 24 17 66 12 104 -12z"/>
<path d="M373 4458 c-69 -77 1 -254 127 -318 88 -45 191 -8 233 83 34 74 37
94 24 162 -10 49 -16 60 -32 60 -18 0 -20 -7 -22 -67 -1 -49 -7 -78 -24 -108
-35 -62 -96 -92 -82 -41 3 10 0 22 -6 25 -6 4 -11 17 -11 30 0 30 -44 112 -78
147 -26 27 -70 49 -96 49 -7 0 -22 -10 -33 -22z m67 -66 c0 -5 8 -17 18 -28
36 -39 52 -69 52 -97 0 -28 -1 -29 -22 -15 -51 34 -99 148 -63 148 8 0 15 -4
15 -8z"/>
<path d="M4228 4453 c-10 -2 -18 -10 -18 -17 0 -18 -34 -47 -83 -72 -35 -17
-43 -26 -45 -53 -2 -19 1 -38 7 -44 21 -21 10 -26 -58 -24 -38 1 -73 -2 -78
-6 -10 -11 -10 -93 1 -171 8 -56 8 -58 -12 -52 -12 4 -34 0 -52 -9 -31 -16
-31 -17 -13 -37 10 -11 38 -30 63 -42 45 -21 45 -21 48 -78 2 -46 7 -58 22
-63 32 -10 59 12 65 53 9 55 14 64 26 57 13 -9 87 11 113 31 17 12 18 17 6 38
-10 20 -17 23 -36 16 -21 -8 -110 1 -118 11 -10 14 -26 93 -26 128 0 40 1 41
28 35 15 -4 41 -12 58 -19 17 -7 37 -9 44 -5 7 5 19 6 25 3 7 -2 20 4 30 13
22 22 14 66 -20 106 -14 16 -25 34 -25 39 0 15 23 35 47 43 21 7 53 60 53 88
0 14 -20 39 -29 37 -4 -1 -14 -3 -23 -6z"/>
<path d="M2630 4336 c-49 -9 -66 -16 -68 -30 -6 -27 5 -60 28 -86 26 -30 25
-40 -3 -40 -23 0 -67 -37 -67 -56 0 -5 14 -26 31 -47 l31 -37 -23 -19 c-36
-29 -19 -47 65 -66 57 -13 79 -14 95 -5 25 13 28 58 5 67 -21 8 -74 62 -74 76
0 5 14 7 33 3 36 -7 77 14 77 39 0 8 -11 22 -26 31 -21 15 -54 61 -54 78 0 3
16 4 36 3 50 -3 63 19 40 67 -19 40 -20 40 -126 22z"/>
<path d="M867 4253 c-4 -3 -7 -16 -7 -28 0 -13 -7 -28 -15 -35 -24 -20 -18
-47 15 -70 21 -15 30 -30 30 -49 0 -55 53 -66 80 -16 10 18 19 23 39 19 69
-12 67 62 -3 81 -41 12 -62 32 -78 78 -10 26 -44 38 -61 20z"/>
<path d="M2093 4250 c-12 -5 -49 -12 -83 -16 -34 -4 -68 -13 -76 -21 -24 -25
-17 -71 16 -105 44 -44 39 -50 -32 -41 -115 14 -148 4 -148 -43 0 -22 4 -24
58 -25 31 -1 60 -1 65 0 4 1 42 -8 84 -19 42 -11 98 -20 125 -20 43 0 48 2 54
26 6 22 1 32 -27 56 -78 66 -109 99 -104 108 4 6 24 10 45 10 38 0 70 25 70
55 0 25 -25 43 -47 35z"/>
<path d="M261 4136 c-11 -13 4 -76 30 -128 5 -10 9 -35 9 -56 0 -28 7 -45 25
-62 18 -17 25 -34 25 -61 0 -49 8 -69 30 -69 31 0 53 36 52 85 l-1 45 124 0
c137 0 175 10 175 46 0 32 -18 35 -177 35 -76 0 -145 2 -154 5 -9 2 -23 19
-30 37 -29 75 -52 122 -63 129 -17 12 -32 9 -45 -6z"/>
<path d="M2574 3848 c-17 -13 -42 -36 -56 -53 -22 -25 -24 -33 -15 -60 14 -43
30 -58 92 -88 61 -31 82 -33 120 -13 36 19 45 33 45 72 0 58 -39 122 -92 150
-38 20 -59 18 -94 -8z m90 -88 c9 -22 16 -45 16 -50 0 -19 -26 -10 -52 18 -20
21 -24 32 -17 50 13 34 35 26 53 -18z"/>
<path d="M3167 3759 c-21 -12 -21 -39 -2 -103 18 -58 40 -86 69 -86 20 0 34
11 105 85 30 30 56 29 56 -3 0 -13 7 -27 14 -31 10 -6 12 -19 7 -44 -6 -30 -4
-36 14 -42 58 -18 87 28 70 111 -9 40 -20 60 -46 83 -50 44 -109 38 -166 -16
-28 -27 -48 -24 -48 8 0 10 -5 19 -12 19 -6 0 -19 6 -27 14 -11 10 -21 12 -34
5z"/>
<path d="M3763 3698 c-25 -12 -30 -40 -10 -55 22 -16 67 -16 73 1 3 9 12 16
20 16 17 0 18 22 2 38 -15 15 -55 15 -85 0z"/>
<path d="M4093 3642 c-40 -2 -55 -8 -63 -22 -24 -46 74 -83 158 -60 34 9 42
15 42 34 0 41 -37 54 -137 48z"/>
<path d="M1249 3622 c-10 -14 -30 -22 -60 -26 -63 -7 -79 -15 -90 -44 -8 -22
-5 -30 23 -60 l33 -35 -51 7 c-43 5 -55 3 -77 -15 -15 -11 -27 -26 -27 -34 0
-12 33 -44 92 -87 22 -17 22 -19 6 -31 -33 -26 -21 -45 37 -62 72 -20 124 -22
136 -4 16 25 9 48 -18 66 -37 22 -73 55 -73 65 0 4 20 8 43 8 31 0 49 6 61 19
24 26 14 51 -35 96 l-40 36 33 14 c19 7 41 22 51 33 17 19 17 21 -6 47 -24 28
-24 28 -38 7z"/>
<path d="M2416 3504 c-18 -18 -21 -61 -5 -100 16 -43 97 -133 140 -154 47 -24
62 -25 95 -4 41 27 56 67 48 127 -8 65 -19 87 -45 87 -27 0 -38 -34 -32 -97 5
-46 3 -53 -12 -53 -10 0 -38 20 -61 45 -41 42 -64 94 -64 143 0 17 -6 22 -24
22 -14 0 -32 -7 -40 -16z"/>
<path d="M3047 3462 c-34 -38 -17 -63 68 -102 192 -88 292 -95 283 -21 -4 35
-50 61 -77 44 -16 -10 -26 -9 -50 3 -17 9 -55 24 -83 34 -29 10 -62 28 -74 39
-27 26 -46 27 -67 3z"/>
<path d="M3971 3461 c-33 -25 -24 -53 21 -66 43 -12 88 -51 88 -77 0 -12 -14
-24 -40 -34 -57 -23 -67 -46 -32 -76 39 -33 92 -100 92 -116 0 -19 -57 -8
-110 19 -44 23 -68 22 -84 -3 -16 -25 1 -49 55 -75 127 -62 242 -23 223 76 -4
16 -14 38 -23 48 -9 11 -22 29 -29 42 -12 20 -11 26 7 45 24 25 36 75 27 108
-9 36 -57 84 -108 107 -56 25 -57 25 -87 2z"/>
<path d="M1934 3406 c-3 -8 -26 -22 -52 -32 -78 -29 -91 -64 -42 -107 44 -40
39 -52 -23 -53 -61 -2 -113 -25 -122 -54 -3 -11 -1 -35 6 -54 16 -44 7 -67
-23 -59 -64 15 -84 14 -102 -6 -10 -11 -15 -24 -12 -30 11 -18 67 -41 117 -47
57 -8 68 -18 45 -43 -15 -16 -15 -19 3 -35 26 -24 55 -13 81 30 17 26 27 33
43 29 84 -20 147 -5 147 35 0 21 -12 26 -90 35 -78 10 -110 29 -111 65 -1 17
-2 36 -3 43 -1 8 10 11 31 9 67 -7 153 35 153 75 0 7 -12 32 -26 55 -25 40
-26 42 -8 55 10 7 22 13 26 13 5 0 13 12 19 26 7 21 6 31 -7 45 -20 22 -43 25
-50 5z"/>
<path d="M3029 3274 c-21 -25 -1 -45 91 -92 67 -33 100 -43 156 -48 68 -6 73
-5 84 17 11 20 10 25 -14 46 -15 13 -38 23 -52 23 -43 0 -117 22 -156 47 -43
27 -90 30 -109 7z"/>
<path d="M866 3039 c-36 -43 -36 -43 -16 -63 19 -20 20 -20 44 3 31 29 42 70
23 88 -12 13 -19 9 -51 -28z"/>
<path d="M3085 3048 c-35 -20 -46 -41 -40 -80 8 -58 34 -103 67 -117 16 -7 33
-24 38 -37 11 -28 24 -29 95 -9 80 24 116 96 80 164 -13 26 -21 32 -43 29 -18
-2 -28 -10 -32 -28 -6 -24 -7 -23 -33 22 -16 25 -36 49 -45 53 -30 13 -67 14
-87 3z"/>
<path d="M986 3018 c-22 -30 -21 -35 13 -52 70 -36 165 -61 223 -57 35 2 67
61 33 61 -8 0 -15 3 -15 8 0 4 -19 8 -43 9 -36 2 -126 25 -178 47 -12 5 -22 0
-33 -16z"/>
<path d="M1523 2863 c-21 -4 -53 -37 -53 -55 0 -36 134 -32 146 4 11 34 -38
61 -93 51z"/>
<path d="M1680 2795 c-16 -20 -6 -43 24 -55 13 -5 26 -17 28 -26 2 -14 16 -18
60 -21 52 -3 59 -1 74 22 16 24 16 27 -2 43 -23 20 -112 52 -147 52 -13 0 -30
-7 -37 -15z"/>
<path d="M3057 2721 c-9 -16 -17 -41 -17 -55 0 -14 -2 -26 -5 -26 -3 0 -28 11
-55 24 l-51 24 -26 -22 c-15 -13 -23 -28 -19 -35 4 -6 39 -27 77 -46 38 -20
69 -40 69 -45 0 -6 -9 -27 -20 -47 -21 -40 -15 -53 26 -53 22 0 64 38 64 58 0
16 20 15 63 -3 42 -17 60 -13 75 19 12 28 -6 56 -38 56 -12 0 -35 8 -51 17
-26 16 -29 23 -29 68 0 38 -5 57 -20 73 -12 12 -22 22 -23 22 -2 0 -10 -13
-20 -29z"/>
<path d="M1587 2643 c-11 -3 -28 -14 -38 -24 -38 -38 4 -86 65 -75 26 5 37 1
58 -21 62 -67 62 -95 1 -92 -41 3 -49 0 -67 -24 l-21 -28 29 -50 28 -51 -23 7
c-13 4 -44 22 -68 41 -24 19 -48 34 -53 34 -16 0 -38 -28 -38 -47 1 -36 139
-123 195 -123 58 0 94 69 60 114 -23 31 -18 42 25 55 76 23 90 80 38 157 -60
87 -140 141 -191 127z"/>
<path d="M2311 2637 c-20 -10 -23 -16 -17 -53 4 -36 2 -44 -17 -57 l-22 -15
21 -22 c24 -24 88 -42 121 -34 26 7 37 35 28 65 -7 20 -5 21 38 15 41 -6 47
-4 66 20 28 35 13 54 -43 54 -23 0 -50 6 -61 14 -28 19 -86 25 -114 13z"/>
<path d="M2326 2403 c-4 -9 -4 -37 0 -61 l7 -45 -29 6 c-16 3 -49 12 -73 21
-39 15 -45 15 -60 2 -9 -9 -26 -13 -38 -10 -11 3 -30 1 -42 -5 -29 -16 -30
-84 -1 -108 11 -10 20 -22 20 -28 1 -30 96 -105 132 -105 14 0 38 12 53 26 24
22 27 31 23 73 -5 48 -5 48 36 67 47 22 62 53 52 108 -11 60 -65 99 -80 59z
m-119 -167 c36 -52 40 -66 20 -66 -17 0 -50 37 -65 73 -28 65 -2 61 45 -7z"/>
<path d="M3830 2389 c-13 -6 -33 -17 -42 -26 -15 -13 -23 -14 -44 -5 -48 22
-54 17 -54 -46 0 -93 36 -108 100 -42 71 72 118 59 104 -30 -6 -39 -6 -40 22
-40 85 1 103 96 30 166 -37 36 -68 42 -116 23z"/>
<path d="M3754 2160 c-11 -4 -36 -27 -54 -49 -27 -35 -34 -39 -44 -27 -21 26
-54 29 -66 5 -9 -15 -9 -24 -1 -32 6 -6 11 -18 11 -27 0 -9 8 -25 19 -34 26
-24 64 -12 114 36 22 21 44 35 48 31 11 -11 13 -84 4 -105 -11 -26 37 -46 69
-29 35 19 40 72 14 146 -30 85 -60 107 -114 85z"/>
<path d="M1922 2052 l-24 -18 27 -32 c15 -18 45 -41 68 -52 23 -11 67 -36 97
-55 30 -19 58 -34 62 -35 8 0 78 68 78 75 0 3 -8 5 -17 5 -24 0 -82 21 -113
41 -58 36 -148 89 -152 89 -1 0 -14 -9 -26 -18z"/>
<path d="M2635 1910 c-80 -12 -122 -55 -111 -114 10 -55 117 -136 178 -136 14
0 35 -12 49 -26 13 -14 52 -46 85 -70 74 -53 108 -57 153 -15 34 32 40 73 20
141 -10 34 -9 44 15 91 14 29 26 64 26 77 0 20 -4 23 -27 20 -20 -2 -32 -12
-42 -35 -16 -36 -32 -41 -52 -17 -26 31 -84 61 -149 76 -68 16 -80 17 -145 8z
m184 -98 c46 -28 70 -56 59 -68 -9 -8 -74 -9 -152 -1 -45 4 -64 11 -87 33 -28
27 -36 53 -21 68 4 5 41 5 82 2 56 -5 86 -14 119 -34z m109 -144 c14 -14 16
-54 2 -63 -13 -8 -46 11 -54 32 -5 11 -1 22 10 30 22 16 27 16 42 1z"/>
<path d="M1834 1858 c-50 -54 -56 -98 -21 -152 12 -19 25 -35 29 -36 4 0 26
-13 50 -29 24 -16 68 -41 98 -56 30 -15 71 -36 91 -46 20 -10 48 -19 61 -19
25 0 58 27 58 47 0 11 -71 70 -147 124 -32 21 -43 36 -43 55 0 58 -57 123
-117 131 -31 4 -42 1 -59 -19z m74 -70 c19 -19 14 -28 -13 -28 -27 0 -28 1
-19 24 7 19 16 20 32 4z"/>
<path d="M3525 1855 c-18 -17 -25 -35 -25 -64 0 -118 109 -235 203 -217 59 11
79 35 84 97 8 102 -52 124 -71 25 -12 -58 -32 -55 -28 5 4 48 -25 126 -59 160
-27 27 -75 24 -104 -6z"/>
<path d="M3464 1510 c-27 -11 -36 -34 -28 -76 5 -30 3 -34 -20 -40 -37 -9 -33
-37 12 -66 102 -68 122 -72 148 -34 14 23 14 28 -5 72 l-21 46 30 -6 c17 -3
44 -9 60 -12 19 -4 30 -2 30 5 0 6 12 11 28 11 15 0 22 4 16 8 -6 4 -14 16
-18 27 -4 15 -29 27 -93 48 -93 29 -106 31 -139 17z"/>
<path d="M2821 1402 c-13 -39 -14 -39 -50 -30 -65 18 -111 21 -126 8 -21 -17
-19 -53 5 -94 13 -20 17 -37 11 -40 -5 -4 -13 -1 -17 5 -7 12 -123 69 -139 69
-5 0 -21 -9 -35 -20 l-25 -19 20 -23 c24 -27 81 -114 118 -180 51 -90 30 -99
-90 -39 -105 52 -122 55 -153 28 -14 -13 -31 -30 -37 -38 -33 -41 53 -279 107
-297 28 -10 67 3 87 28 15 18 16 80 2 139 -5 24 -7 46 -4 49 3 3 21 -2 40 -11
54 -26 104 -22 137 10 36 34 35 61 -3 140 -32 67 -32 86 1 65 24 -15 75 -16
101 -2 23 13 26 67 4 96 -26 34 -18 43 36 42 43 -1 55 3 70 21 20 24 26 81 10
81 -5 0 -11 10 -13 23 -2 13 -11 23 -24 25 -16 2 -23 -5 -33 -36z"/>
<path d="M3198 1231 c-47 -55 -48 -81 -4 -81 44 0 68 23 64 64 -4 38 -35 47
-60 17z"/>
<path d="M3308 1129 c-30 -17 -21 -47 20 -68 20 -10 48 -30 62 -42 30 -29 79
-28 105 1 28 31 1 61 -74 84 -34 11 -64 23 -67 28 -7 11 -25 10 -46 -3z"/>
<path d="M3092 970 c-12 -12 -22 -26 -22 -32 0 -21 53 -120 68 -126 19 -7 77
23 125 65 43 39 52 40 67 12 14 -24 6 -49 -14 -49 -24 0 -31 -41 -10 -57 24
-18 43 -16 81 7 39 23 48 53 33 108 -13 52 -42 72 -100 72 -43 0 -64 -9 -127
-56 -21 -15 -22 -15 -29 13 -7 28 -31 63 -44 63 -3 0 -16 -9 -28 -20z"/>
<path d="M3045 704 c-23 -23 -15 -57 17 -72 32 -15 51 -45 46 -70 -3 -13 -15
-7 -52 31 -27 26 -53 47 -58 47 -20 0 -47 -36 -42 -55 8 -25 110 -114 141
-121 13 -4 33 -4 46 0 25 6 57 53 57 85 0 24 -46 127 -68 154 -19 21 -65 22
-87 1z"/>
<path d="M2878 462 c-39 -20 -49 -31 -54 -58 -3 -19 -12 -34 -18 -34 -14 0
-96 77 -96 90 0 5 -11 12 -24 16 -17 4 -31 -1 -45 -15 -12 -12 -21 -25 -21
-30 0 -8 59 -64 144 -136 55 -46 138 -92 181 -100 44 -8 91 24 106 74 10 35
10 47 -7 83 -24 56 -64 107 -89 114 -11 4 -22 10 -25 14 -3 4 -26 -4 -52 -18z
m69 -97 c9 -19 20 -35 25 -35 4 0 8 -11 8 -25 0 -41 -40 -29 -66 20 -15 29
-18 58 -7 68 13 14 24 6 40 -28z"/>
</g>
</svg>
