<?xml version="1.0" standalone="no"?>
<!DOCTYPE svg PUBLIC "-//W3C//DTD SVG 20010904//EN"
 "http://www.w3.org/TR/2001/REC-SVG-20010904/DTD/svg10.dtd">
<svg version="1.0" xmlns="http://www.w3.org/2000/svg"
 width="356.000000pt" height="1246.000000pt" viewBox="0 0 356.000000 1246.000000"
 preserveAspectRatio="xMidYMid meet">

<g transform="translate(0.000000,1246.000000) scale(0.100000,-0.100000)"
fill="#000000" stroke="none">
<path d="M3055 12139 c-4 -6 -5 -13 -2 -16 7 -7 27 6 27 18 0 12 -17 12 -25
-2z"/>
<path d="M3310 12130 c19 -13 30 -13 30 0 0 6 -10 10 -22 10 -19 0 -20 -2 -8
-10z"/>
<path d="M3362 12063 c2 -10 14 -20 27 -21 19 -3 22 0 17 13 -3 9 -6 19 -6 21
0 2 -9 4 -21 4 -14 0 -19 -5 -17 -17z"/>
<path d="M2648 12003 c6 -2 18 -2 25 0 6 3 1 5 -13 5 -14 0 -19 -2 -12 -5z"/>
<path d="M2761 11992 l-23 -4 27 -14 c21 -11 31 -11 42 -3 23 19 2 29 -46 21z"/>
<path d="M2586 11895 c-3 -10 -3 -22 3 -28 12 -12 20 4 11 27 -6 19 -7 19 -14
1z"/>
<path d="M2850 11845 c-6 -8 -9 -23 -5 -35 l6 -20 29 20 c18 13 27 26 23 35
-7 19 -37 19 -53 0z"/>
<path d="M2490 11751 c0 -22 26 -46 34 -32 8 13 -3 38 -20 45 -9 3 -14 -1 -14
-13z"/>
<path d="M2565 11760 c-3 -5 -1 -10 4 -10 6 0 11 5 11 10 0 6 -2 10 -4 10 -3
0 -8 -4 -11 -10z"/>
<path d="M2608 11753 c6 -2 18 -2 25 0 6 3 1 5 -13 5 -14 0 -19 -2 -12 -5z"/>
<path d="M2947 11720 c3 -11 21 -32 41 -45 28 -19 38 -21 53 -12 17 10 16 13
-13 39 -18 15 -37 28 -44 28 -7 0 -19 3 -27 6 -12 4 -14 0 -10 -16z"/>
<path d="M2552 11620 c-7 -11 -8 -20 -3 -20 9 0 24 30 18 36 -1 2 -8 -6 -15
-16z"/>
<path d="M3000 11480 c13 -23 20 -26 20 -6 0 8 -7 16 -15 20 -13 4 -14 2 -5
-14z"/>
<path d="M2414 11479 c-2 -5 6 -11 19 -14 33 -9 78 -2 75 10 -4 12 -86 16 -94
4z"/>
<path d="M3076 11465 c25 -19 50 -19 58 0 3 9 0 15 -9 15 -8 0 -15 -4 -15 -10
0 -5 -5 -10 -11 -10 -5 0 -7 5 -4 10 3 6 -4 10 -16 10 -22 0 -22 0 -3 -15z"/>
<path d="M3020 11440 c0 -13 28 -25 38 -16 3 4 0 11 -8 16 -20 13 -30 12 -30
0z"/>
<path d="M2230 11341 c0 -5 5 -13 10 -16 6 -3 10 -2 10 4 0 5 -4 13 -10 16 -5
3 -10 2 -10 -4z"/>
<path d="M2435 11280 c-3 -5 -17 -10 -30 -10 -13 0 -26 -4 -29 -9 -3 -5 9 -9
27 -9 22 0 38 7 45 19 7 10 8 19 3 19 -6 0 -13 -4 -16 -10z"/>
<path d="M2294 11255 c3 -8 9 -22 12 -30 4 -10 -1 -13 -20 -12 -14 1 -24 -2
-23 -8 1 -5 11 -9 22 -8 11 1 33 -3 48 -9 36 -14 42 -6 21 29 -28 45 -75 75
-60 38z"/>
<path d="M2338 11153 c6 -2 18 -2 25 0 6 3 1 5 -13 5 -14 0 -19 -2 -12 -5z"/>
<path d="M2967 11143 c-24 -6 -11 -23 19 -23 15 0 24 6 24 15 0 15 -9 17 -43
8z"/>
<path d="M2867 10913 c3 -10 12 -27 20 -38 11 -17 13 -17 13 -2 0 9 -4 17 -10
17 -5 0 -10 6 -10 14 0 8 -4 18 -10 21 -6 4 -7 -1 -3 -12z"/>
<path d="M2960 10916 c0 -9 7 -16 16 -16 9 0 14 5 12 12 -6 18 -28 21 -28 4z"/>
<path d="M2945 10780 c-3 -5 1 -10 9 -10 9 0 16 5 16 10 0 6 -4 10 -9 10 -6 0
-13 -4 -16 -10z"/>
<path d="M2920 10658 c0 -4 14 -8 31 -8 17 0 28 4 24 10 -7 11 -55 9 -55 -2z"/>
<path d="M2261 10476 c-8 -9 -8 -16 -2 -20 6 -4 15 3 21 14 12 23 -2 27 -19 6z"/>
<path d="M2255 10360 c-3 -5 -1 -10 4 -10 6 0 11 5 11 10 0 6 -2 10 -4 10 -3
0 -8 -4 -11 -10z"/>
<path d="M2205 10330 c3 -5 13 -10 21 -10 8 0 12 5 9 10 -3 6 -13 10 -21 10
-8 0 -12 -4 -9 -10z"/>
<path d="M2905 10330 c4 -6 11 -8 16 -5 14 9 11 15 -7 15 -8 0 -12 -5 -9 -10z"/>
<path d="M2834 10103 c10 -10 46 -11 46 -1 0 4 -12 8 -27 8 -14 0 -23 -3 -19
-7z"/>
<path d="M2766 9911 c-11 -17 5 -40 22 -34 24 9 33 26 19 35 -16 10 -35 10
-41 -1z"/>
<path d="M2196 9652 c-4 -11 -20 -25 -37 -31 -16 -5 -32 -17 -35 -26 -5 -12
-15 -15 -38 -10 l-31 6 25 -15 c16 -9 30 -11 42 -5 9 5 26 9 37 9 25 0 68 67
53 82 -7 7 -12 4 -16 -10z"/>
<path d="M2110 9406 c0 -2 7 -9 15 -16 13 -11 14 -10 9 4 -5 14 -24 23 -24 12z"/>
<path d="M2174 9325 c-4 -8 -14 -15 -24 -15 -11 0 -22 -5 -26 -12 -4 -6 -3 -8
4 -4 6 3 13 2 17 -4 3 -5 19 -10 36 -10 26 0 29 3 27 30 -2 31 -24 41 -34 15z"/>
<path d="M2960 9139 c0 -11 4 -18 10 -14 5 3 7 12 3 20 -7 21 -13 19 -13 -6z"/>
<path d="M2200 9130 c-8 -5 -24 -11 -35 -15 -19 -6 -19 -7 -2 -16 24 -14 54
-3 60 21 6 22 0 24 -23 10z"/>
<path d="M2891 9079 c-20 -17 -21 -20 -6 -25 20 -8 54 21 40 35 -6 6 -19 2
-34 -10z"/>
<path d="M2125 9040 c-4 -6 -11 -8 -16 -5 -17 11 -9 -15 12 -36 22 -22 49 -19
49 5 0 13 -25 46 -35 46 -2 0 -7 -5 -10 -10z"/>
<path d="M2580 8989 c0 -21 41 -42 71 -36 22 4 21 4 -4 6 -16 0 -37 11 -48 24
-14 17 -18 18 -19 6z"/>
<path d="M1957 8894 c-11 -11 -8 -37 7 -57 13 -17 14 -17 18 1 6 22 -14 66
-25 56z"/>
<path d="M2090 8865 c0 -23 16 -52 25 -44 3 3 -1 19 -10 35 -12 23 -15 25 -15
9z"/>
<path d="M2105 8770 c-3 -5 -16 -10 -27 -10 l-22 0 22 -20 c26 -25 43 -25 70
-1 25 21 29 33 7 25 -8 -4 -15 -1 -15 5 0 14 -27 15 -35 1z"/>
<path d="M1895 8620 c3 -5 8 -10 11 -10 2 0 4 5 4 10 0 6 -5 10 -11 10 -5 0
-7 -4 -4 -10z"/>
<path d="M1952 8611 c-14 -9 29 -21 74 -21 35 0 29 16 -7 24 -41 8 -51 7 -67
-3z"/>
<path d="M2076 8595 c-4 -11 2 -15 27 -15 30 1 31 1 13 15 -25 19 -32 19 -40
0z"/>
<path d="M2705 8454 c0 -18 7 -29 23 -35 20 -7 22 -5 22 21 0 17 -4 30 -9 30
-5 0 -16 2 -23 5 -10 4 -14 -2 -13 -21z"/>
<path d="M2086 8244 c-8 -20 0 -32 14 -18 5 5 5 15 1 22 -6 11 -10 10 -15 -4z"/>
<path d="M1997 8174 c6 -15 23 -19 23 -5 0 5 -7 11 -14 14 -10 4 -13 1 -9 -9z"/>
<path d="M2065 8100 c4 -6 -10 -10 -34 -10 -42 0 -63 -15 -34 -24 10 -3 39 -8
65 -12 39 -5 49 -3 54 10 3 8 -1 22 -9 31 -17 17 -52 21 -42 5z"/>
<path d="M2527 8017 c-3 -8 5 -23 17 -34 19 -17 24 -18 36 -5 9 10 10 19 3 31
-13 21 -49 26 -56 8z"/>
<path d="M1956 7962 c-2 -4 -7 -24 -11 -45 -9 -49 1 -87 23 -87 10 0 23 -5 30
-12 18 -18 15 -4 -10 47 -18 38 -20 49 -10 65 7 11 12 24 12 30 0 12 -27 14
-34 2z"/>
<path d="M2038 7803 c7 -3 16 -2 19 1 4 3 -2 6 -13 5 -11 0 -14 -3 -6 -6z"/>
<path d="M1926 7413 c-4 -4 -17 -8 -28 -8 -12 0 -23 -6 -25 -12 -3 -7 0 -13 6
-13 6 0 11 6 11 13 0 8 3 7 10 -3 5 -8 21 -16 35 -17 22 -2 26 2 23 19 -3 23
-19 33 -32 21z"/>
<path d="M1986 7379 c7 -11 94 -12 112 0 9 5 -12 9 -52 9 -37 0 -64 -4 -60 -9z"/>
<path d="M2132 7198 c-16 -16 -15 -28 3 -28 8 0 15 9 15 20 0 23 -2 24 -18 8z"/>
<path d="M2714 7175 c-9 -22 1 -29 15 -11 8 10 9 16 1 21 -5 3 -13 -1 -16 -10z"/>
<path d="M2090 7106 c0 -9 5 -16 10 -16 6 0 10 4 10 9 0 6 -4 13 -10 16 -5 3
-10 -1 -10 -9z"/>
<path d="M2150 7021 c0 -5 -8 -12 -17 -14 -11 -3 -7 -5 10 -6 18 -1 27 4 27
14 0 8 -4 15 -10 15 -5 0 -10 -4 -10 -9z"/>
<path d="M2646 6985 c-9 -13 -16 -28 -16 -32 0 -4 5 0 11 9 9 16 12 16 33 3
21 -14 25 -14 36 0 10 12 10 18 0 30 -19 22 -46 18 -64 -10z"/>
<path d="M1954 6856 c-8 -22 3 -33 18 -18 9 9 9 15 0 24 -9 9 -13 7 -18 -6z"/>
<path d="M2269 6416 c-1 -3 -2 -11 -3 -17 0 -7 -10 -15 -21 -20 -20 -8 -20 -8
0 -8 23 -1 50 34 35 44 -6 3 -11 4 -11 1z"/>
<path d="M2173 6373 c9 -2 25 -2 35 0 9 3 1 5 -18 5 -19 0 -27 -2 -17 -5z"/>
<path d="M2880 6280 c0 -5 5 -10 10 -10 6 0 10 5 10 10 0 6 -4 10 -10 10 -5 0
-10 -4 -10 -10z"/>
<path d="M2877 5966 c-7 -17 16 -28 38 -20 19 8 19 20 -1 28 -24 9 -31 7 -37
-8z"/>
<path d="M1615 5930 c-4 -6 3 -10 14 -10 25 0 27 6 6 13 -8 4 -17 2 -20 -3z"/>
<path d="M2310 5917 c0 -20 -6 -27 -27 -30 l-28 -4 27 -2 c15 0 34 -11 43 -23
12 -18 17 -20 24 -10 12 19 2 58 -20 78 -18 16 -19 16 -19 -9z"/>
<path d="M2160 5898 c0 -8 9 -14 20 -14 24 0 21 20 -3 24 -9 2 -17 -3 -17 -10z"/>
<path d="M1600 5799 c0 -5 -4 -8 -9 -4 -5 3 -12 1 -16 -5 -10 -16 61 -12 75 5
11 13 8 15 -19 15 -17 0 -31 -5 -31 -11z"/>
<path d="M1710 5790 c0 -11 4 -20 8 -20 4 0 8 9 9 20 1 11 -2 20 -8 20 -5 0
-9 -9 -9 -20z"/>
<path d="M2914 5754 c3 -9 6 -19 6 -23 0 -11 47 -31 54 -24 11 12 6 33 -8 33
-8 0 -16 7 -20 15 -3 8 -13 15 -22 15 -11 0 -14 -5 -10 -16z"/>
<path d="M2314 5376 c-6 -15 22 -66 36 -66 4 0 10 12 13 27 7 38 -36 72 -49
39z"/>
<path d="M1667 5348 c-6 -20 15 -47 36 -48 17 0 18 32 2 50 -23 26 -31 25 -38
-2z"/>
<path d="M2975 5330 c3 -5 13 -10 21 -10 8 0 12 5 9 10 -3 6 -13 10 -21 10 -8
0 -12 -4 -9 -10z"/>
<path d="M1650 5106 c0 -2 7 -9 15 -16 13 -11 14 -10 9 4 -5 14 -24 23 -24 12z"/>
<path d="M2494 5003 c-11 -11 -13 -18 -5 -21 10 -3 41 20 41 32 0 12 -19 6
-36 -11z"/>
<path d="M1535 4850 c4 -6 11 -8 16 -5 5 4 9 2 9 -3 0 -5 11 -14 25 -20 21
-10 25 -9 25 3 0 8 -9 15 -20 15 -11 0 -20 5 -20 10 0 6 -9 10 -21 10 -11 0
-17 -5 -14 -10z"/>
<path d="M1628 4803 c7 -3 16 -2 19 1 4 3 -2 6 -13 5 -11 0 -14 -3 -6 -6z"/>
<path d="M3010 4762 c0 -4 9 -13 21 -20 19 -12 19 -11 9 8 -10 19 -30 28 -30
12z"/>
<path d="M1445 4730 c3 -5 13 -10 21 -10 8 0 14 5 14 10 0 6 -9 10 -21 10 -11
0 -17 -4 -14 -10z"/>
<path d="M1871 4566 c-10 -12 -9 -18 7 -34 11 -11 22 -26 25 -33 3 -8 6 -3 6
11 0 14 -5 35 -13 48 -11 20 -14 21 -25 8z"/>
<path d="M1341 4537 c-18 -44 -20 -65 -6 -84 23 -31 45 -8 45 45 0 64 -21 84
-39 39z"/>
<path d="M1270 4505 c0 -12 24 -55 32 -55 12 0 10 34 -4 48 -12 12 -28 16 -28
7z"/>
<path d="M1260 4445 c0 -8 4 -15 10 -15 5 0 7 7 4 15 -4 8 -8 15 -10 15 -2 0
-4 -7 -4 -15z"/>
<path d="M1292 4366 c-27 -13 -24 -27 10 -44 49 -24 79 15 33 43 -15 8 -26 9
-43 1z"/>
<path d="M1244 4246 c-16 -17 1 -46 26 -46 23 0 27 29 8 48 -15 15 -20 15 -34
-2z"/>
<path d="M1255 4131 c-3 -6 -13 -7 -23 -4 -15 6 -15 5 -3 -10 17 -21 37 -22
44 -2 7 17 -9 30 -18 16z"/>
<path d="M1662 4119 c2 -7 10 -15 17 -17 8 -3 12 1 9 9 -2 7 -10 15 -17 17 -8
3 -12 -1 -9 -9z"/>
<path d="M1390 4114 c0 -18 23 -54 34 -54 37 0 28 45 -10 53 -13 2 -24 3 -24
1z"/>
<path d="M1193 4016 c0 -7 9 -18 19 -25 14 -9 18 -8 18 2 0 13 -19 37 -30 37
-4 0 -7 -6 -7 -14z"/>
<path d="M1640 4025 c0 -8 32 -35 41 -35 18 0 9 15 -16 27 -14 6 -25 10 -25 8z"/>
<path d="M3280 3890 c-11 -7 -12 -12 -4 -20 15 -15 64 -2 64 16 0 16 -37 19
-60 4z"/>
<path d="M1600 3706 c0 -8 60 -12 72 -4 8 4 -4 8 -29 8 -24 0 -43 -2 -43 -4z"/>
<path d="M3102 3645 c-11 -12 -10 -15 3 -15 8 0 15 7 15 15 0 18 -2 18 -18 0z"/>
<path d="M1120 3615 c0 -18 4 -23 15 -19 8 4 15 12 15 19 0 7 -7 15 -15 19
-11 4 -15 -1 -15 -19z"/>
<path d="M2303 3626 c4 -10 7 -20 7 -22 0 -2 14 -4 30 -4 20 0 30 5 30 15 0 8
-9 15 -19 15 -11 0 -27 3 -37 7 -14 5 -16 3 -11 -11z"/>
<path d="M3010 3560 c0 -5 5 -10 10 -10 6 0 10 5 10 10 0 6 -4 10 -10 10 -5 0
-10 -4 -10 -10z"/>
<path d="M1716 3468 c-3 -13 -1 -27 4 -32 7 -7 10 1 10 22 0 37 -5 41 -14 10z"/>
<path d="M1510 3441 c0 -5 5 -13 10 -16 6 -3 10 -2 10 4 0 5 -4 13 -10 16 -5
3 -10 2 -10 -4z"/>
<path d="M2263 3423 c-15 -5 -18 -43 -4 -43 5 0 11 10 14 22 7 26 6 27 -10 21z"/>
<path d="M2730 3421 c0 -11 39 -41 52 -41 16 0 7 30 -11 40 -24 13 -41 13 -41
1z"/>
<path d="M2993 3403 c-3 -10 -10 -21 -15 -24 -5 -3 5 -6 22 -6 25 0 30 4 28
20 -4 27 -26 33 -35 10z"/>
<path d="M2873 3374 c-4 -11 1 -22 13 -31 17 -12 19 -12 22 2 8 38 -22 62 -35
29z"/>
<path d="M1072 3366 c7 -8 15 -12 17 -11 5 6 -10 25 -20 25 -5 0 -4 -6 3 -14z"/>
<path d="M1580 3316 c0 -9 5 -16 10 -16 6 0 10 4 10 9 0 6 -4 13 -10 16 -5 3
-10 -1 -10 -9z"/>
<path d="M920 3280 c0 -6 7 -10 15 -10 8 0 15 2 15 4 0 2 -7 6 -15 10 -8 3
-15 1 -15 -4z"/>
<path d="M1540 3229 c0 -17 29 -41 41 -34 7 5 4 13 -7 26 -19 21 -34 25 -34 8z"/>
<path d="M1640 3195 c-9 -11 -10 -19 -3 -26 6 -6 13 -1 21 16 13 28 2 34 -18
10z"/>
<path d="M2045 3120 c3 -5 10 -10 16 -10 5 0 9 5 9 10 0 6 -7 10 -16 10 -8 0
-12 -4 -9 -10z"/>
<path d="M365 3110 c-4 -6 -8 -24 -10 -40 -3 -21 0 -30 10 -30 9 0 15 10 15
24 0 14 5 28 10 31 11 7 4 25 -10 25 -5 0 -12 -5 -15 -10z"/>
<path d="M1706 3091 c-4 -7 -5 -15 -2 -18 9 -9 19 4 14 18 -4 11 -6 11 -12 0z"/>
<path d="M1730 3081 c0 -19 26 -26 107 -28 70 -2 81 0 76 13 -4 11 -14 13 -34
9 -18 -4 -29 -2 -29 4 0 7 -24 11 -60 11 -33 0 -60 -4 -60 -9z"/>
<path d="M390 2924 c0 -28 33 -69 48 -60 17 10 15 26 -3 26 -8 0 -15 4 -15 8
0 5 -7 17 -15 28 -14 19 -14 19 -15 -2z"/>
<path d="M941 2891 c-1 -8 -8 -22 -17 -32 -19 -21 -12 -49 11 -49 22 0 28 22
17 61 -6 19 -11 28 -11 20z"/>
<path d="M160 2846 c-14 -38 -13 -61 5 -76 20 -17 23 -13 26 37 4 54 -16 79
-31 39z"/>
<path d="M376 2754 c-9 -8 -16 -22 -16 -29 0 -20 17 -27 24 -10 3 8 16 15 29
15 18 0 28 -8 37 -30 12 -29 30 -41 30 -20 0 21 -30 70 -49 80 -27 14 -37 13
-55 -6z"/>
<path d="M1566 2745 c4 -9 19 -15 35 -15 19 0 29 5 29 15 0 18 -17 20 -23 3
-4 -10 -7 -10 -18 0 -18 17 -30 15 -23 -3z"/>
<path d="M2770 2715 c0 -8 5 -15 10 -15 6 0 10 7 10 15 0 8 -4 15 -10 15 -5 0
-10 -7 -10 -15z"/>
<path d="M2147 2678 c6 -11 80 -10 87 0 2 4 -17 8 -44 7 -26 0 -46 -3 -43 -7z"/>
<path d="M2925 2680 c4 -6 11 -8 16 -5 14 9 11 15 -7 15 -8 0 -12 -5 -9 -10z"/>
<path d="M1378 2673 c7 -3 16 -2 19 1 4 3 -2 6 -13 5 -11 0 -14 -3 -6 -6z"/>
<path d="M1411 2661 c-9 -6 -4 -12 18 -19 17 -6 31 -7 31 -2 0 15 -35 29 -49
21z"/>
<path d="M2863 2654 c-7 -18 14 -35 34 -27 7 3 13 14 13 24 0 24 -38 26 -47 3z"/>
<path d="M440 2594 c0 -8 5 -12 10 -9 6 3 10 10 10 16 0 5 -4 9 -10 9 -5 0
-10 -7 -10 -16z"/>
<path d="M1548 2583 c7 -3 16 -2 19 1 4 3 -2 6 -13 5 -11 0 -14 -3 -6 -6z"/>
<path d="M2384 2576 c-7 -19 13 -56 31 -56 11 0 12 6 3 30 -12 36 -26 47 -34
26z"/>
<path d="M2061 2464 c0 -11 3 -14 6 -6 3 7 2 16 -1 19 -3 4 -6 -2 -5 -13z"/>
<path d="M2140 2465 c7 -8 17 -15 22 -15 6 0 5 7 -2 15 -7 8 -17 15 -22 15 -6
0 -5 -7 2 -15z"/>
<path d="M1485 2397 c11 -9 34 -16 50 -16 l30 1 -30 8 c-16 4 -39 11 -50 15
l-20 8 20 -16z"/>
<path d="M2075 2374 c-17 -13 -18 -16 -5 -24 24 -15 30 -12 30 15 0 29 1 29
-25 9z"/>
<path d="M2820 2381 c0 -5 5 -13 10 -16 6 -3 10 -2 10 4 0 5 -4 13 -10 16 -5
3 -10 2 -10 -4z"/>
<path d="M805 2360 c-10 -16 5 -50 20 -50 11 0 12 6 5 24 -5 13 -6 27 -3 30 4
3 1 6 -5 6 -6 0 -14 -5 -17 -10z"/>
<path d="M712 2298 c5 -13 68 -31 68 -19 0 7 -49 31 -63 31 -5 0 -7 -6 -5 -12z"/>
<path d="M2823 2293 c-7 -2 -13 -13 -13 -24 0 -22 30 -26 59 -7 18 11 18 13 3
25 -18 13 -29 15 -49 6z"/>
<path d="M1323 2283 c-17 -6 -16 -38 1 -52 12 -10 17 -8 26 9 18 35 5 56 -27
43z"/>
<path d="M2072 2178 c6 -18 28 -21 28 -4 0 9 -7 16 -16 16 -9 0 -14 -5 -12
-12z"/>
<path d="M665 2111 c-8 -27 5 -71 21 -71 22 0 28 27 14 60 -14 35 -26 38 -35
11z"/>
<path d="M1390 2112 c0 -8 48 -32 64 -32 12 0 -22 24 -46 33 -10 4 -18 3 -18
-1z"/>
<path d="M2760 2025 c-11 -13 -10 -14 3 -10 8 4 18 2 21 -4 9 -14 36 -2 36 15
0 19 -44 18 -60 -1z"/>
<path d="M2770 1920 c-8 -5 -23 -11 -33 -14 -10 -3 -15 -10 -12 -16 11 -17 44
-11 55 11 14 24 11 30 -10 19z"/>
<path d="M2658 1903 c7 -3 16 -2 19 1 4 3 -2 6 -13 5 -11 0 -14 -3 -6 -6z"/>
<path d="M2640 1882 c0 -5 7 -17 16 -28 14 -17 15 -17 10 -1 -3 10 -6 23 -6
28 0 5 -4 9 -10 9 -5 0 -10 -4 -10 -8z"/>
<path d="M1280 1869 c0 -5 5 -7 10 -4 6 3 10 8 10 11 0 2 -4 4 -10 4 -5 0 -10
-5 -10 -11z"/>
<path d="M2671 1744 c0 -11 3 -14 6 -6 3 7 2 16 -1 19 -3 4 -6 -2 -5 -13z"/>
<path d="M2695 1749 c-4 -6 -5 -13 -2 -16 7 -7 27 6 27 18 0 12 -17 12 -25 -2z"/>
<path d="M1964 1700 c-9 -22 -21 -40 -26 -40 -6 0 -25 -16 -43 -34 -24 -25
-44 -36 -73 -40 -35 -4 -43 -1 -78 35 -27 27 -40 35 -46 27 -4 -8 3 -24 19
-40 15 -15 23 -31 20 -35 -11 -10 -79 -33 -102 -33 l-20 -1 20 -15 c15 -11 33
-14 72 -9 30 4 54 2 57 -4 10 -15 57 -6 68 12 5 10 15 17 22 17 7 0 34 16 58
35 46 35 88 103 88 143 0 35 -19 26 -36 -18z"/>
<path d="M2454 1638 c4 -23 8 -44 10 -46 2 -2 15 8 29 22 l25 25 -22 20 c-36
34 -50 27 -42 -21z"/>
<path d="M1470 1585 c0 -8 7 -15 15 -15 8 0 15 7 15 15 0 8 -7 15 -15 15 -8 0
-15 -7 -15 -15z"/>
<path d="M890 1543 c0 -5 7 -16 14 -26 11 -14 15 -15 24 -4 9 10 8 17 0 25
-13 13 -38 16 -38 5z"/>
<path d="M1538 1533 c7 -3 16 -2 19 1 4 3 -2 6 -13 5 -11 0 -14 -3 -6 -6z"/>
<path d="M968 1503 c6 -2 18 -2 25 0 6 3 1 5 -13 5 -14 0 -19 -2 -12 -5z"/>
<path d="M1092 1478 c-15 -15 -16 -45 -1 -54 19 -11 32 12 23 41 -7 20 -12 23
-22 13z"/>
<path d="M1850 1412 c0 -22 22 -72 33 -72 4 0 7 7 7 15 0 8 -4 15 -10 15 -5 0
-10 14 -10 30 0 17 -4 30 -10 30 -5 0 -10 -8 -10 -18z"/>
<path d="M1770 1352 l-34 -29 33 -6 c38 -8 51 -3 51 21 -1 39 -15 42 -50 14z"/>
<path d="M1835 1300 c-3 -5 1 -10 9 -10 9 0 16 5 16 10 0 6 -4 10 -9 10 -6 0
-13 -4 -16 -10z"/>
<path d="M2420 1290 c0 -5 5 -10 11 -10 5 0 7 5 4 10 -3 6 -8 10 -11 10 -2 0
-4 -4 -4 -10z"/>
<path d="M1698 1103 c7 -3 16 -2 19 1 4 3 -2 6 -13 5 -11 0 -14 -3 -6 -6z"/>
<path d="M1607 1029 c7 -7 15 -10 18 -7 3 3 -2 9 -12 12 -14 6 -15 5 -6 -5z"/>
<path d="M2188 1016 c-18 -13 -25 -46 -10 -46 16 0 52 32 52 46 0 17 -19 18
-42 0z"/>
<path d="M1568 883 c7 -3 16 -2 19 1 4 3 -2 6 -13 5 -11 0 -14 -3 -6 -6z"/>
<path d="M1470 845 c0 -8 4 -15 10 -15 5 0 7 7 4 15 -4 8 -8 15 -10 15 -2 0
-4 -7 -4 -15z"/>
<path d="M2130 651 c0 -6 -15 -12 -32 -14 -32 -4 -32 -4 5 -5 27 -2 37 2 37
13 0 8 -2 15 -5 15 -3 0 -5 -4 -5 -9z"/>
<path d="M2010 630 c0 -5 5 -10 10 -10 6 0 10 5 10 10 0 6 -4 10 -10 10 -5 0
-10 -4 -10 -10z"/>
<path d="M2051 536 c-7 -8 -8 -17 -3 -20 6 -3 12 3 15 14 6 24 4 25 -12 6z"/>
<path d="M1976 531 c-3 -4 6 -13 20 -19 23 -11 24 -10 14 8 -11 21 -25 26 -34
11z"/>
<path d="M1820 499 c0 -5 5 -7 10 -4 6 3 10 8 10 11 0 2 -4 4 -10 4 -5 0 -10
-5 -10 -11z"/>
<path d="M1738 398 c-7 -19 2 -38 19 -38 9 0 13 8 11 22 -3 25 -23 35 -30 16z"/>
<path d="M1860 296 c0 -2 11 -11 25 -20 14 -9 25 -13 25 -8 0 5 -11 14 -25 20
-14 6 -25 10 -25 8z"/>
</g>
</svg>
