<?xml version="1.0" standalone="no"?>
<!DOCTYPE svg PUBLIC "-//W3C//DTD SVG 20010904//EN"
 "http://www.w3.org/TR/2001/REC-SVG-20010904/DTD/svg10.dtd">
<svg version="1.0" xmlns="http://www.w3.org/2000/svg"
 width="236.000000pt" height="1028.000000pt" viewBox="0 0 236.000000 1028.000000"
 preserveAspectRatio="xMidYMid meet">

<g transform="translate(0.000000,1028.000000) scale(0.100000,-0.100000)"
fill="#000000" stroke="none">
<path d="M1576 9987 c-13 -19 -13 -29 -4 -61 22 -69 91 -70 104 0 8 41 -12 67
-58 78 -22 5 -31 1 -42 -17z"/>
<path d="M1516 9668 c-17 -24 -20 -56 -8 -73 4 -6 34 -33 67 -62 65 -55 114
-71 154 -50 34 17 38 37 8 37 -18 0 -32 10 -47 35 -12 19 -26 35 -31 35 -9 0
-2 -28 13 -46 13 -18 -23 -22 -59 -7 -18 7 -33 19 -33 27 0 7 -7 19 -15 26
-17 14 -20 66 -5 75 6 4 8 11 5 16 -10 16 -33 10 -49 -13z"/>
<path d="M1727 9684 c-8 -8 1 -24 14 -24 5 0 9 7 9 15 0 15 -12 20 -23 9z"/>
<path d="M1617 9641 c3 -12 10 -21 15 -21 13 0 6 32 -9 37 -7 3 -9 -3 -6 -16z"/>
<path d="M1750 9630 c0 -5 5 -10 10 -10 6 0 10 5 10 10 0 6 -4 10 -10 10 -5 0
-10 -4 -10 -10z"/>
<path d="M1760 9578 c0 -7 5 -20 10 -28 8 -12 10 -9 10 13 0 15 -4 27 -10 27
-5 0 -10 -6 -10 -12z"/>
<path d="M1794 9255 c4 -74 17 -84 15 -12 -1 32 -6 60 -10 63 -5 3 -7 -20 -5
-51z"/>
<path d="M1640 9275 c-10 -12 -9 -18 5 -31 14 -14 18 -15 25 -4 5 8 4 22 -1
32 -12 22 -13 22 -29 3z"/>
<path d="M1676 9231 c-9 -13 15 -51 31 -51 19 0 16 18 -6 41 -12 13 -21 16
-25 10z"/>
<path d="M1747 9174 c6 -15 23 -19 23 -5 0 5 -7 11 -14 14 -10 4 -13 1 -9 -9z"/>
<path d="M1605 9050 c-15 -16 -16 -23 -6 -33 10 -9 15 -8 27 7 29 40 12 62
-21 26z"/>
<path d="M1726 9020 c12 -4 24 -15 27 -24 8 -20 89 -22 106 -2 20 24 -12 40
-58 29 -22 -6 -45 -7 -53 -2 -7 5 -20 8 -28 8 -9 0 -7 -4 6 -9z"/>
<path d="M1697 8846 c-23 -18 -12 -45 22 -52 14 -3 39 -10 55 -15 38 -12 59
-11 51 1 -3 6 -15 10 -25 10 -10 0 -20 3 -22 8 -2 4 -17 19 -33 34 -26 23 -32
25 -48 14z"/>
<path d="M1860 8760 c0 -6 4 -9 9 -6 17 11 44 -32 37 -60 -9 -36 15 -27 27 10
7 20 6 32 -4 41 -20 19 -69 30 -69 15z"/>
<path d="M1763 8665 c2 -5 19 -11 38 -12 19 -2 43 -4 54 -5 11 -2 21 4 22 12
3 13 -8 16 -57 16 -37 0 -59 -4 -57 -11z"/>
<path d="M1856 8565 c4 -8 8 -15 10 -15 2 0 4 7 4 15 0 8 -4 15 -10 15 -5 0
-7 -7 -4 -15z"/>
<path d="M1635 8523 c-33 -6 -48 -39 -31 -66 31 -47 113 -72 124 -38 3 10 -2
13 -21 9 -43 -8 -91 63 -52 78 15 6 21 25 8 23 -5 -1 -17 -4 -28 -6z"/>
<path d="M1710 8520 c0 -5 9 -10 20 -10 11 0 20 5 20 10 0 6 -9 10 -20 10 -11
0 -20 -4 -20 -10z"/>
<path d="M1770 8520 c0 -5 5 -10 10 -10 6 0 10 5 10 10 0 6 -4 10 -10 10 -5 0
-10 -4 -10 -10z"/>
<path d="M1819 8524 c-11 -3 -14 -13 -11 -33 2 -17 -4 -41 -14 -57 -10 -16
-12 -24 -4 -16 20 18 34 15 45 -10 6 -13 16 -22 23 -20 7 1 12 -6 13 -15 0
-29 74 -82 112 -80 39 2 47 29 22 78 -24 45 -85 99 -85 74 0 -7 31 -44 59 -72
27 -26 19 -45 -19 -48 -11 -1 -18 0 -15 3 2 2 -3 11 -11 20 -12 12 -18 12 -23
3 -8 -13 -51 74 -51 103 0 18 16 21 25 6 10 -16 25 -12 19 5 -4 8 -15 15 -26
15 -14 0 -18 6 -16 22 3 23 -11 30 -43 22z"/>
<path d="M2023 8100 c-9 -24 -9 -30 2 -30 11 0 24 28 25 53 0 18 -17 4 -27
-23z"/>
<path d="M1868 8054 c-27 -27 5 -124 41 -124 6 0 11 -6 11 -13 0 -14 66 -77
80 -77 17 0 20 19 9 68 -5 28 -17 53 -25 56 -24 9 -16 53 14 76 l27 21 -47 -5
c-26 -3 -50 -1 -53 4 -9 15 -39 12 -57 -6z m79 -99 c6 -14 7 -25 3 -25 -10 0
-24 19 -26 38 -4 21 10 13 23 -13z"/>
<path d="M2020 7500 c0 -7 -6 -10 -14 -7 -22 8 -63 -29 -77 -68 -7 -19 -15
-35 -19 -35 -15 1 -49 50 -44 64 5 12 2 15 -10 10 -20 -8 -20 -22 -1 -68 15
-36 28 -45 40 -26 3 6 14 10 24 10 11 0 23 14 31 35 17 43 58 74 71 54 5 -8 9
-24 9 -36 0 -13 6 -23 14 -23 25 0 28 18 10 55 -17 37 -34 54 -34 35z"/>
<path d="M2038 7373 c-3 -16 -7 -35 -9 -43 -3 -10 3 -15 16 -15 16 0 21 8 23
43 2 31 0 42 -11 42 -8 0 -17 -12 -19 -27z"/>
<path d="M1800 7172 c0 -11 82 -52 105 -52 19 0 40 29 29 40 -15 15 -134 25
-134 12z"/>
<path d="M1957 6823 c-37 -6 -50 -33 -29 -59 20 -24 72 -48 72 -34 0 6 -4 10
-10 10 -15 0 -12 31 6 51 15 16 12 41 -4 38 -4 -1 -19 -4 -35 -6z"/>
<path d="M2010 6711 c0 -6 5 -13 10 -16 6 -4 8 -10 5 -15 -5 -7 -43 -2 -92 14
-37 12 -28 -19 13 -43 40 -24 70 -27 78 -8 5 10 7 10 12 0 3 -7 12 -13 20 -13
21 0 18 54 -4 73 -20 19 -42 22 -42 8z"/>
<path d="M1937 6453 c-33 -37 -31 -67 7 -109 37 -40 58 -41 37 0 -7 13 -14 46
-14 75 -2 56 -6 60 -30 34z"/>
<path d="M2015 6435 c14 -13 26 -30 26 -37 1 -7 3 -25 4 -39 3 -20 -2 -29 -21
-37 -28 -13 -31 -30 -8 -39 9 -3 24 3 35 14 16 16 19 27 13 60 -8 50 -38 103
-58 103 -11 0 -8 -7 9 -25z"/>
<path d="M1977 6133 c-16 -15 -6 -30 17 -26 22 4 26 1 31 -30 4 -19 5 -45 3
-58 -5 -38 29 -37 37 1 9 43 -28 120 -59 120 -13 0 -26 -3 -29 -7z"/>
<path d="M1820 6110 c0 -11 9 -29 20 -40 21 -21 70 -28 70 -10 0 6 -11 16 -25
22 -14 6 -25 15 -25 19 0 5 -9 13 -20 19 -17 9 -20 8 -20 -10z"/>
<path d="M1925 6060 c-3 -5 -1 -10 4 -10 6 0 11 5 11 10 0 6 -2 10 -4 10 -3 0
-8 -4 -11 -10z"/>
<path d="M1740 5870 c0 -25 33 -42 87 -44 30 -1 42 -5 38 -13 -4 -13 21 -17
90 -16 44 1 47 2 40 13 -3 6 -21 10 -38 10 -18 0 -50 5 -72 12 -22 6 -46 11
-52 9 -7 -1 -13 2 -13 7 0 9 -59 42 -74 42 -3 0 -6 -9 -6 -20z"/>
<path d="M2017 5819 c-3 -13 0 -22 9 -26 20 -7 38 11 31 31 -9 23 -34 20 -40
-5z"/>
<path d="M1850 5550 c0 -7 -6 -10 -14 -7 -36 14 -48 -52 -17 -90 15 -18 54
-33 104 -41 1 -1 10 -4 20 -8 25 -9 59 11 80 48 22 38 16 47 -12 19 -12 -12
-25 -21 -30 -21 -13 0 -59 49 -66 70 -3 10 -13 21 -23 24 -9 3 -23 9 -29 12
-7 3 -13 0 -13 -6z m70 -97 c0 -14 -6 -23 -15 -23 -8 0 -15 4 -15 8 0 5 -13
22 -30 38 -34 33 -38 51 -12 56 22 5 71 -49 72 -79z"/>
<path d="M1700 5290 c-18 -12 -3 -43 24 -48 18 -4 45 23 46 46 0 14 -48 16
-70 2z"/>
<path d="M1816 5265 c4 -8 15 -15 25 -15 10 0 19 -4 19 -9 0 -5 7 -11 15 -15
32 -12 13 26 -20 40 -43 18 -46 18 -39 -1z"/>
<path d="M1919 5187 c5 -13 19 -39 30 -58 12 -19 21 -42 21 -52 0 -10 5 -15
10 -12 14 9 12 41 -3 57 -7 7 -21 30 -30 51 -20 40 -42 52 -28 14z"/>
<path d="M1635 5105 c142 -117 167 -135 182 -135 14 0 13 3 -2 20 -25 27 -14
34 50 31 66 -3 75 13 10 17 -31 2 -74 18 -130 47 -47 25 -97 45 -112 45 l-28
-1 30 -24z"/>
<path d="M1947 5043 c-12 -12 -7 -22 8 -17 8 4 15 10 15 15 0 11 -14 12 -23 2z"/>
<path d="M1840 4950 c0 -5 7 -13 15 -17 30 -17 145 -134 145 -148 0 -14 29
-35 49 -35 6 0 11 8 11 18 0 19 -69 82 -89 82 -6 0 -10 3 -9 8 4 12 -71 82
-88 82 -8 0 -12 5 -9 10 3 6 -1 10 -9 10 -9 0 -16 -4 -16 -10z"/>
<path d="M1673 4462 c-6 -4 -19 -23 -30 -42 -18 -31 -18 -37 -4 -61 23 -41 63
-51 108 -28 20 10 38 19 39 19 2 0 13 -31 25 -70 13 -42 27 -70 35 -70 18 0
18 10 -2 49 -9 17 -17 37 -18 44 -1 7 -6 19 -11 27 -5 8 -10 33 -12 55 -6 79
-7 80 -66 82 -29 1 -58 -1 -64 -5z m64 -40 c7 -4 14 -19 15 -32 3 -21 -2 -26
-25 -28 -27 -3 -57 12 -57 29 0 12 30 39 43 39 7 0 18 -4 24 -8z"/>
<path d="M1844 4175 c-3 -13 -1 -39 5 -57 8 -21 8 -35 1 -42 -14 -14 -12 -41
3 -55 8 -6 14 -30 15 -53 2 -61 11 -94 38 -148 28 -57 23 -80 -17 -80 -16 0
-29 -4 -29 -10 0 -5 11 -10 25 -10 35 0 103 -52 127 -97 11 -21 25 -40 30 -41
5 -2 5 -9 -1 -16 -17 -20 16 -59 45 -53 13 2 25 0 26 -4 4 -11 84 8 114 27 17
12 24 25 24 48 0 24 -3 27 -10 16 -8 -12 -10 -12 -10 -1 0 8 -3 11 -6 8 -4 -4
-1 -13 6 -22 10 -12 10 -15 -4 -15 -9 0 -27 -7 -39 -15 -26 -17 -93 -17 -106
-1 -19 25 -50 131 -41 140 16 16 12 23 -34 50 -37 22 -48 36 -70 92 -36 90
-61 217 -66 347 -2 26 -19 21 -26 -8z"/>
<path d="M1727 3745 c-8 -8 -17 -11 -21 -8 -3 4 -6 -4 -6 -16 0 -13 13 -34 30
-49 42 -37 40 -62 -4 -62 -42 0 -62 -21 -47 -49 16 -28 4 -50 -36 -66 -30 -13
-34 -18 -29 -40 6 -22 2 -25 -33 -35 -48 -13 -63 -50 -34 -83 11 -12 12 -17 4
-12 -8 5 -5 -6 8 -23 12 -18 27 -33 32 -33 18 -3 24 -5 46 -17 17 -9 28 -9 50
0 34 14 55 11 66 -8 4 -8 14 -14 22 -14 28 0 26 21 -4 56 -26 30 -31 43 -31
89 0 62 12 76 44 46 56 -52 63 -5 7 50 -37 37 -71 82 -71 94 0 10 28 5 56 -10
16 -8 34 -15 41 -15 23 0 19 36 -8 65 -15 17 -34 47 -42 67 -14 33 -14 38 0
50 9 7 18 12 20 11 15 -11 14 1 -1 12 -25 19 -41 19 -59 0z m-19 -308 c15 -31
8 -67 -14 -67 -18 0 -48 66 -40 87 9 22 39 11 54 -20z m-104 -53 c9 -3 16 -12
16 -19 0 -7 5 -15 12 -17 16 -6 18 -49 2 -55 -7 -3 -25 6 -39 19 -21 20 -25
30 -20 51 8 30 7 29 29 21z"/>
<path d="M1816 3743 c-3 -3 -3 -10 0 -14 7 -12 34 -11 34 0 0 11 -26 22 -34
14z"/>
<path d="M2077 3713 c-4 -6 -1 -15 6 -21 20 -16 55 -23 62 -12 3 6 -3 10 -16
10 -12 0 -27 7 -34 17 -7 10 -14 12 -18 6z"/>
<path d="M2171 3664 c0 -11 3 -14 6 -6 3 7 2 16 -1 19 -3 4 -6 -2 -5 -13z"/>
<path d="M2202 3640 c0 -14 2 -19 5 -12 2 6 2 18 0 25 -3 6 -5 1 -5 -13z"/>
<path d="M1410 3589 c0 -38 -18 -51 -41 -28 -21 21 -54 25 -64 9 -3 -6 2 -13
12 -17 10 -3 22 -12 26 -20 4 -7 15 -13 22 -13 11 0 15 -12 15 -39 0 -49 -19
-67 -52 -50 -44 23 -51 37 -43 84 7 49 -10 64 -21 19 -23 -92 61 -181 113
-117 10 13 13 12 21 -4 32 -61 46 -239 22 -268 -16 -19 -4 -49 15 -41 8 3 15
1 15 -5 0 -6 9 -24 21 -40 11 -16 16 -29 10 -29 -19 0 -12 -49 9 -62 12 -8 20
-24 20 -40 0 -30 14 -38 24 -13 3 8 3 44 0 79 -5 57 -3 66 17 85 15 14 26 18
33 11 15 -15 42 -12 56 5 11 13 6 15 -34 15 -77 0 -88 11 -84 83 2 51 0 62
-12 60 -29 -5 -55 129 -36 183 6 18 3 23 -18 28 -14 3 -26 12 -27 19 -1 6 -2
35 -3 64 -1 51 -16 89 -16 42z"/>
<path d="M1125 3381 c-6 -11 9 -23 19 -14 9 9 7 23 -3 23 -6 0 -12 -4 -16 -9z"/>
<path d="M820 3340 c-8 -5 -18 -6 -22 -4 -14 9 -48 -7 -48 -21 0 -7 12 -23 26
-34 30 -23 116 -40 122 -23 2 8 9 8 22 0 13 -8 22 -9 32 -1 8 6 31 8 57 4 37
-5 47 -11 63 -41 11 -20 17 -50 16 -70 -3 -29 -7 -35 -29 -38 -21 -2 -33 6
-59 38 -33 42 -59 43 -46 2 13 -40 116 -93 116 -59 0 9 2 9 8 0 6 -10 12 -10
28 1 30 23 24 104 -12 151 -20 27 -24 39 -16 47 21 21 13 29 -22 22 -20 -3
-65 1 -108 11 -107 25 -112 25 -128 15z m108 -34 c15 -15 13 -16 -23 -16 -52
0 -85 10 -85 24 0 18 89 11 108 -8z"/>
<path d="M1696 3096 c9 -24 94 -28 94 -5 0 17 -32 22 -53 9 -15 -9 -22 -10
-25 -1 -2 6 -8 11 -13 11 -4 0 -6 -6 -3 -14z"/>
<path d="M1030 3016 c0 -9 5 -16 10 -16 6 0 10 4 10 9 0 6 -4 13 -10 16 -5 3
-10 -1 -10 -9z"/>
<path d="M876 2995 c-19 -14 -31 -65 -16 -65 13 0 21 -33 11 -43 -14 -14 14
-64 40 -72 54 -17 151 40 129 75 -8 12 -11 11 -16 -7 -4 -13 -11 -23 -18 -23
-13 1 -46 69 -46 97 0 23 -29 53 -51 53 -8 0 -22 -7 -33 -15z m52 -27 c29 -37
20 -115 -11 -90 -26 22 -41 70 -27 87 15 18 24 19 38 3z"/>
<path d="M1041 2974 c0 -11 3 -14 6 -6 3 7 2 16 -1 19 -3 4 -6 -2 -5 -13z"/>
<path d="M1505 2700 c-18 -7 -19 -8 -2 -15 21 -9 67 2 67 15 0 12 -37 12 -65
0z"/>
<path d="M1394 2679 c-13 -22 13 -29 36 -9 l23 20 -26 0 c-14 0 -29 -5 -33
-11z"/>
<path d="M1586 2666 c3 -8 12 -17 19 -20 16 -6 29 -59 20 -86 -3 -11 -17 -23
-31 -26 -28 -7 -32 -38 -8 -65 10 -11 13 -25 9 -38 -5 -17 -14 -20 -48 -18
-32 1 -42 -2 -42 -13 0 -9 11 -16 31 -18 41 -4 96 43 88 74 -3 12 4 40 15 63
23 44 21 72 -9 126 -17 31 -55 49 -44 21z"/>
<path d="M965 2661 c-3 -5 -1 -12 5 -16 5 -3 10 1 10 9 0 18 -6 21 -15 7z"/>
<path d="M175 2638 c-11 -36 -15 -87 -7 -92 5 -3 7 -26 5 -50 -7 -59 4 -116
22 -116 21 0 25 13 14 59 -5 23 -7 45 -5 49 2 4 48 4 102 1 110 -7 123 -16
122 -78 0 -49 12 -120 22 -126 20 -12 22 80 4 146 -3 11 3 18 16 22 20 5 29
37 10 37 -22 0 -41 60 -34 107 6 40 5 45 -12 41 -16 -3 -19 -13 -19 -58 0 -62
6 -60 -107 -45 -46 6 -63 4 -82 -9 -32 -20 -38 -10 -39 65 0 58 -4 72 -12 47z"/>
<path d="M684 2640 c-12 -5 -23 -14 -26 -22 -7 -17 5 -50 17 -49 6 0 19 -8 30
-18 24 -21 93 -42 100 -31 5 8 -38 40 -54 40 -17 0 -50 41 -44 56 3 8 14 14
24 14 10 0 19 4 19 8 0 11 -41 12 -66 2z"/>
<path d="M795 2630 c-16 -7 -17 -9 -3 -9 9 -1 20 4 23 9 7 11 7 11 -20 0z"/>
<path d="M860 2614 c0 -8 9 -14 21 -14 36 0 20 -43 -20 -56 -19 -6 -30 -13
-25 -16 15 -9 72 -2 88 11 11 9 20 10 35 2 27 -15 41 -14 41 4 0 8 -4 15 -10
15 -5 0 -10 16 -10 35 0 37 -10 44 -30 20 -7 -8 -16 -12 -21 -9 -6 3 -23 9
-39 14 -23 7 -30 5 -30 -6z"/>
<path d="M1010 2513 c0 -11 7 -27 16 -34 15 -12 16 -11 9 11 -10 35 -25 49
-25 23z"/>
<path d="M858 2468 c-3 -7 -3 -19 -1 -26 5 -13 84 -55 91 -48 7 8 -9 26 -19
21 -5 -4 -9 0 -9 8 0 13 -40 57 -52 57 -3 0 -8 -6 -10 -12z"/>
<path d="M1030 2439 c0 -13 -10 -23 -30 -30 -35 -13 -38 -24 -9 -32 31 -8 44
0 57 37 15 42 15 46 -3 46 -8 0 -15 -9 -15 -21z"/>
<path d="M751 2277 c-14 -18 -4 -27 29 -27 25 0 50 16 50 32 0 13 -67 9 -79
-5z"/>
<path d="M870 2263 c0 -7 7 -13 15 -13 8 0 15 -4 15 -8 0 -16 86 -13 100 3 19
23 5 30 -66 30 -44 0 -64 -4 -64 -12z"/>
<path d="M1477 2269 c-14 -8 -16 -19 -11 -67 9 -76 38 -97 61 -45 11 23 10 29
-7 45 -27 25 -25 40 8 60 l27 17 -30 0 c-16 0 -38 -4 -48 -10z"/>
<path d="M1560 2270 c0 -6 11 -15 24 -22 29 -13 49 -55 44 -94 -1 -15 2 -29 8
-31 7 -2 13 13 16 39 5 50 -11 82 -53 104 -33 17 -39 17 -39 4z"/>
<path d="M1530 2138 c0 -11 8 -18 19 -18 11 0 21 -6 24 -12 3 -10 9 -9 22 4
17 16 16 17 -14 16 -18 -1 -37 5 -42 13 -7 11 -9 11 -9 -3z"/>
<path d="M821 2101 c-27 -17 37 -101 80 -104 10 -1 19 -5 19 -10 0 -4 5 -5 10
-2 6 3 10 1 10 -4 0 -17 25 -13 43 7 25 27 21 31 -20 28 -37 -4 -93 19 -93 37
0 19 -37 55 -49 48z"/>
<path d="M987 2060 c3 -11 7 -20 9 -20 2 0 4 9 4 20 0 11 -4 20 -9 20 -5 0 -7
-9 -4 -20z"/>
<path d="M1290 2063 c0 -19 24 -31 75 -38 l50 -7 -22 21 c-23 22 -103 41 -103
24z"/>
<path d="M1578 2023 c-22 -21 -63 -23 -107 -6 -41 18 -54 8 -22 -18 17 -14 27
-16 36 -9 9 7 14 7 17 1 4 -14 68 -20 96 -10 16 6 22 15 20 31 -4 28 -19 32
-40 11z"/>
<path d="M762 1819 c-13 -57 -4 -81 40 -103 13 -6 29 -24 36 -39 17 -34 31
-34 62 1 14 15 33 31 43 35 9 3 17 16 17 27 0 21 -14 27 -25 10 -3 -5 -15 -10
-25 -10 -14 0 -27 16 -45 53 -14 30 -25 59 -25 65 0 7 -15 12 -33 12 -32 0
-34 -2 -45 -51z m66 -2 c38 -57 25 -93 -22 -56 -17 13 -26 30 -26 48 0 51 17
53 48 8z"/>
<path d="M1265 1851 c-13 -12 -3 -29 18 -29 21 -1 62 -9 62 -12 0 -1 15 -3 33
-5 26 -2 32 1 30 13 -2 11 -23 19 -71 27 -37 6 -70 9 -72 6z"/>
<path d="M1528 1815 c-6 -14 -18 -25 -27 -26 -9 0 -3 -5 13 -9 37 -12 46 -6
46 31 0 36 -16 38 -32 4z"/>
<path d="M1422 1812 c2 -9 8 -17 13 -17 6 0 15 -4 21 -8 7 -4 15 0 18 9 3 8 2
12 -4 9 -6 -3 -10 -2 -10 3 0 5 -9 12 -21 15 -15 4 -19 1 -17 -11z"/>
<path d="M977 1813 c-4 -3 -7 -15 -7 -27 0 -20 0 -20 15 0 8 10 15 22 15 27 0
9 -14 9 -23 0z"/>
<path d="M1322 1674 c-23 -16 -28 -66 -9 -92 14 -18 20 -102 8 -116 -5 -6 -7
-41 -6 -78 2 -37 0 -70 -5 -73 -5 -3 -26 1 -46 10 -20 8 -43 15 -51 15 -26 0
-7 -24 26 -32 29 -8 32 -12 29 -41 -3 -30 -1 -32 37 -38 22 -3 47 -9 56 -13
12 -5 18 -1 22 13 4 16 13 21 40 21 20 0 42 3 51 6 25 10 19 34 -8 34 -82 0
-121 34 -132 114 -6 43 -5 46 21 56 20 7 31 8 39 0 5 -5 24 -10 42 -10 27 0
31 3 27 20 -3 11 -11 20 -19 20 -7 0 -18 9 -24 19 -5 11 -25 25 -45 31 -28 9
-36 18 -41 45 -7 37 9 75 31 75 8 0 15 7 15 15 0 20 -30 19 -58 -1z"/>
<path d="M1390 1669 c0 -16 27 -46 35 -38 2 2 -5 15 -15 29 -15 19 -20 21 -20
9z"/>
<path d="M876 1598 c-8 -41 -3 -45 11 -8 6 17 8 32 3 35 -4 2 -10 -9 -14 -27z"/>
<path d="M1450 1599 c0 -8 6 -23 13 -34 11 -13 16 -15 22 -6 4 8 -1 21 -14 34
-16 17 -21 18 -21 6z"/>
<path d="M556 1554 c-10 -25 -7 -44 9 -60 15 -16 88 -44 112 -44 9 0 30 -17
49 -37 19 -20 37 -33 41 -29 4 4 3 10 -3 14 -15 11 -8 54 11 68 23 17 47 4 80
-44 29 -43 31 -68 8 -94 -15 -17 -15 -20 -3 -28 23 -15 30 -12 40 16 11 28 4
71 -15 94 -7 8 -16 25 -19 38 -4 12 -12 22 -17 22 -16 0 -10 42 8 56 26 18 8
30 -21 14 -21 -11 -30 -10 -63 6 -45 21 -77 28 -68 14 3 -5 14 -10 23 -10 9 0
25 -12 35 -25 17 -23 17 -25 -2 -34 -14 -8 -23 -6 -36 9 -18 20 -41 28 -31 11
3 -5 -1 -14 -9 -21 -21 -17 -107 37 -99 62 7 23 -21 24 -30 2z"/>
<path d="M1490 1521 c0 -12 5 -21 10 -21 6 0 10 6 10 14 0 8 -4 18 -10 21 -5
3 -10 -3 -10 -14z"/>
<path d="M1163 1513 c-7 -3 -13 -15 -13 -28 0 -13 -4 -27 -10 -30 -18 -11 -10
-50 18 -82 17 -21 32 -29 40 -24 9 6 8 12 -8 26 -11 10 -20 28 -20 40 0 11 -5
26 -11 32 -8 8 -4 17 12 32 23 21 17 43 -8 34z"/>
<path d="M780 1362 c0 -14 39 -46 47 -39 3 4 -2 16 -12 27 -19 21 -35 26 -35
12z"/>
<path d="M1122 757 c-6 -7 -10 -48 -9 -95 2 -76 8 -95 21 -73 3 5 23 7 44 4
53 -7 86 21 84 70 -3 70 -104 138 -140 94z m88 -32 c7 -13 17 -22 22 -19 5 4
8 -9 6 -27 -3 -31 -6 -34 -38 -37 -39 -4 -60 16 -60 58 0 51 47 68 70 25z"/>
<path d="M1110 545 c0 -8 2 -15 4 -15 2 0 6 7 10 15 3 8 1 15 -4 15 -6 0 -10
-7 -10 -15z"/>
<path d="M1097 469 c-22 -47 -37 -59 -72 -56 -21 1 -30 -3 -33 -15 -3 -14 6
-17 45 -20 46 -3 48 -4 48 -33 0 -19 5 -30 14 -30 8 0 19 14 24 30 13 39 20
43 79 43 27 0 54 4 60 10 15 15 -20 23 -69 17 -46 -6 -62 7 -72 57 l-7 32 -17
-35z"/>
</g>
</svg>
