<?xml version="1.0" standalone="no"?>
<!DOCTYPE svg PUBLIC "-//W3C//DTD SVG 20010904//EN"
 "http://www.w3.org/TR/2001/REC-SVG-20010904/DTD/svg10.dtd">
<svg version="1.0" xmlns="http://www.w3.org/2000/svg"
 width="773.000000pt" height="1705.000000pt" viewBox="0 0 773.000000 1705.000000"
 preserveAspectRatio="xMidYMid meet">

<g transform="translate(0.000000,1705.000000) scale(0.100000,-0.100000)"
fill="#000000" stroke="none">
<path d="M2070 16711 c0 -17 18 -21 24 -6 3 9 0 15 -9 15 -8 0 -15 -4 -15 -9z"/>
<path d="M2395 16650 c-4 -6 -2 -16 3 -23 5 -7 13 -26 16 -43 6 -26 3 -34 -18
-48 -29 -18 -142 -23 -148 -6 -2 6 -14 12 -28 13 -14 1 -38 14 -55 29 -16 15
-33 28 -37 28 -5 0 -8 6 -8 14 0 7 -7 20 -17 27 -14 12 -15 12 -10 -1 3 -8 11
-34 18 -57 6 -24 15 -43 19 -43 7 0 8 -7 14 -57 5 -53 43 -133 61 -133 17 0
20 25 6 35 -14 8 -43 115 -37 131 6 15 36 19 36 5 0 -12 71 -24 140 -23 30 0
61 -4 68 -10 8 -7 12 -32 11 -70 -2 -63 2 -74 25 -65 12 5 15 18 11 54 -7 85
-18 148 -25 158 -4 6 -11 29 -15 53 -7 41 -17 52 -30 32z"/>
<path d="M2283 16103 c-19 -7 -16 -23 10 -44 27 -22 37 -24 37 -5 0 20 -33 55
-47 49z"/>
<path d="M2055 15972 c-26 -12 -31 -20 -32 -53 -1 -21 2 -39 6 -39 5 0 14 -13
21 -30 16 -38 31 -50 77 -60 29 -7 39 -5 50 8 17 23 16 60 -2 78 -8 9 -15 23
-16 32 0 9 -17 31 -37 47 -35 29 -39 30 -67 17z m102 -115 c-2 -6 -10 -15 -19
-20 -33 -22 -99 88 -70 117 9 10 94 -83 89 -97z"/>
<path d="M1808 15730 c-3 -17 -1 -33 4 -36 4 -3 8 -12 8 -21 0 -9 16 -49 35
-90 29 -61 39 -73 58 -73 26 0 59 41 92 112 30 65 65 57 79 -17 5 -27 2 -41
-15 -64 -14 -19 -19 -36 -14 -50 8 -27 19 -27 44 0 16 17 19 33 16 82 -2 65
-18 116 -38 129 -28 18 -55 7 -78 -29 -44 -69 -50 -78 -55 -95 -8 -24 -16 -23
-42 5 -26 28 -38 58 -47 125 -5 41 -11 52 -25 52 -12 0 -19 -10 -22 -30z"/>
<path d="M518 15658 c5 -5 16 -8 23 -6 8 3 3 7 -10 11 -17 4 -21 3 -13 -5z"/>
<path d="M575 15660 c-3 -5 1 -10 10 -10 9 0 13 5 10 10 -3 6 -8 10 -10 10 -2
0 -7 -4 -10 -10z"/>
<path d="M451 15651 c-26 -17 -24 -57 4 -85 14 -14 34 -26 43 -26 10 0 23 -5
29 -11 6 -6 38 -13 70 -16 49 -5 61 -3 66 11 5 13 0 16 -26 17 -103 2 -192 56
-173 105 6 16 6 17 -13 5z"/>
<path d="M638 15648 c9 -9 15 -9 24 0 9 9 7 12 -12 12 -19 0 -21 -3 -12 -12z"/>
<path d="M681 15650 c-1 -16 48 -44 58 -34 8 8 -30 35 -40 29 -4 -3 -10 1 -12
7 -4 9 -6 8 -6 -2z"/>
<path d="M850 15630 c0 -16 5 -30 10 -30 6 0 10 14 10 30 0 17 -4 30 -10 30
-5 0 -10 -13 -10 -30z"/>
<path d="M780 15600 c-7 -4 -10 -15 -7 -24 5 -12 0 -16 -23 -16 -16 0 -35 -7
-43 -15 -8 -8 -18 -11 -21 -7 -4 3 -4 -1 0 -11 3 -9 11 -17 16 -17 6 0 23 -14
38 -31 15 -18 32 -29 39 -25 14 9 15 36 1 36 -19 0 -10 19 16 36 24 16 26 16
56 -6 28 -21 30 -21 23 -4 -4 10 -10 31 -13 46 -2 15 -8 25 -14 22 -5 -3 -19
1 -32 9 -13 9 -28 12 -36 7z"/>
<path d="M875 15470 c-3 -5 1 -10 10 -10 9 0 13 5 10 10 -3 6 -8 10 -10 10 -2
0 -7 -4 -10 -10z"/>
<path d="M796 15442 c-9 -15 43 -62 70 -62 35 0 63 25 57 51 -7 25 -20 24 -28
-1 -7 -23 -30 -21 -72 6 -12 8 -24 10 -27 6z"/>
<path d="M1443 15393 c-7 -2 -13 -16 -13 -30 0 -24 -3 -25 -35 -20 -37 6 -43
-1 -22 -22 10 -10 7 -16 -13 -31 -14 -11 -29 -20 -33 -20 -5 0 -20 -9 -34 -20
l-26 -20 27 0 c14 0 26 5 26 10 0 22 28 8 57 -27 51 -65 84 -145 63 -158 -5
-3 -10 -14 -9 -23 0 -11 3 -12 6 -4 2 6 11 12 18 12 10 0 13 14 10 55 -2 41 0
55 10 55 8 0 16 -4 19 -9 7 -11 48 -2 57 12 9 13 -13 54 -60 110 -35 41 -39
52 -31 73 12 30 13 64 3 63 -5 0 -14 -3 -20 -6z m13 -131 c29 -25 48 -62 37
-73 -6 -6 -28 5 -57 27 -38 29 -45 38 -35 50 15 18 29 17 55 -4z"/>
<path d="M1270 15359 c0 -5 5 -7 10 -4 6 3 10 8 10 11 0 2 -4 4 -10 4 -5 0
-10 -5 -10 -11z"/>
<path d="M1305 15350 c3 -5 13 -10 21 -10 8 0 14 5 14 10 0 6 -9 10 -21 10
-11 0 -17 -4 -14 -10z"/>
<path d="M1080 15325 c-8 -20 -5 -29 14 -50 25 -27 50 -32 62 -13 4 7 3 8 -4
4 -7 -4 -12 -2 -12 3 0 6 -9 11 -19 11 -12 0 -20 7 -20 18 -2 57 -7 64 -21 27z"/>
<path d="M715 15260 c3 -5 10 -10 16 -10 5 0 9 5 9 10 0 6 -7 10 -16 10 -8 0
-12 -4 -9 -10z"/>
<path d="M654 15252 c-6 -4 -13 -26 -16 -49 -6 -40 -4 -42 40 -74 25 -18 42
-27 38 -21 -4 7 -2 12 3 12 6 0 11 -6 11 -14 0 -17 21 -26 60 -26 20 0 29 6
33 22 8 29 -1 65 -18 72 -9 3 -11 -2 -8 -15 5 -19 -12 -49 -28 -49 -18 0 -48
40 -42 55 3 10 -3 22 -16 32 -13 9 -21 23 -19 36 3 22 -18 33 -38 19z"/>
<path d="M1180 15240 c-13 -8 -12 -10 5 -11 11 -1 30 -3 43 -4 12 -1 25 2 29
8 4 6 -2 8 -15 5 -12 -4 -25 -2 -28 3 -7 11 -15 11 -34 -1z"/>
<path d="M764 15204 c3 -9 6 -18 6 -20 0 -3 5 -2 10 1 16 10 12 35 -6 35 -11
0 -14 -5 -10 -16z"/>
<path d="M1360 15027 c0 -19 30 -77 39 -77 4 0 13 -11 19 -24 18 -39 -6 -61
-62 -58 -60 2 -71 -18 -30 -56 16 -15 36 -41 43 -59 11 -28 11 -34 -2 -47 -13
-14 -16 -14 -21 -1 -3 8 -12 15 -20 15 -7 0 -26 7 -42 15 -38 19 -56 3 -26
-25 11 -11 25 -20 29 -20 5 0 14 -13 21 -30 17 -36 32 -39 32 -5 0 19 5 25 23
25 50 0 64 39 29 87 -32 45 -29 63 11 63 44 0 62 29 47 76 -6 19 -16 34 -21
34 -5 0 -9 15 -9 34 0 19 -3 41 -6 50 -7 19 -54 21 -54 3z"/>
<path d="M638 14983 c7 -3 16 -2 19 1 4 3 -2 6 -13 5 -11 0 -14 -3 -6 -6z"/>
<path d="M572 14929 c-11 -36 -11 -45 4 -68 27 -43 98 -101 123 -101 18 0 21
31 3 37 -22 9 -41 33 -42 54 0 9 -9 19 -20 22 -22 6 -44 52 -37 79 10 38 -19
16 -31 -23z"/>
<path d="M698 14945 c-6 -6 12 -65 22 -75 3 -3 7 -23 9 -45 3 -50 18 -67 27
-31 3 15 0 40 -8 59 -8 17 -21 47 -29 65 -8 18 -17 30 -21 27z"/>
<path d="M1970 14865 c-24 -28 25 -54 57 -29 17 13 17 15 -1 29 -25 19 -40 19
-56 0z"/>
<path d="M1176 14695 c-9 -9 -16 -20 -16 -24 0 -14 30 -69 44 -80 20 -17 28
10 12 41 -8 15 -10 31 -5 40 14 25 -15 43 -35 23z"/>
<path d="M1753 14653 c-4 -9 -1 -19 5 -21 7 -2 12 -10 12 -19 0 -12 29 -58 61
-96 8 -10 49 9 49 23 0 5 14 31 32 57 17 26 32 49 33 50 0 1 10 0 21 -3 27 -7
42 -51 33 -94 -8 -38 1 -56 25 -47 11 4 16 19 16 47 0 25 -4 39 -10 35 -5 -3
-10 0 -10 7 0 25 -25 68 -43 74 -29 9 -84 -14 -91 -39 -3 -12 -15 -33 -27 -46
l-22 -24 -16 32 c-9 17 -27 38 -39 47 -12 8 -20 20 -17 25 4 5 4 9 0 9 -3 0
-9 -8 -12 -17z"/>
<path d="M1340 14607 c0 -7 5 -18 11 -24 18 -18 1 -53 -27 -53 -13 0 -24 3
-24 8 0 11 -61 43 -71 36 -11 -6 47 -64 65 -64 6 -1 22 -7 36 -14 17 -10 30
-11 42 -5 19 10 24 54 8 64 -6 4 -8 11 -5 16 10 15 -5 49 -21 49 -8 0 -14 -6
-14 -13z"/>
<path d="M414 14583 c-3 -10 -10 -26 -15 -35 -5 -10 -5 -19 0 -23 5 -3 12 -18
16 -34 3 -16 15 -37 25 -46 19 -17 20 -17 26 0 4 10 -1 30 -11 47 -25 42 -4
59 24 20 21 -30 30 -78 12 -68 -5 3 -12 -2 -15 -11 -9 -23 17 -42 50 -35 34 6
42 31 17 51 -28 23 -24 50 10 71 l29 18 -48 22 c-27 12 -54 23 -61 24 -7 1
-16 5 -19 9 -13 13 -35 7 -40 -10z"/>
<path d="M586 14521 c-7 -11 18 -21 54 -21 39 0 100 -30 102 -49 0 -9 0 -25
-1 -36 -3 -36 7 -48 26 -30 10 10 12 19 6 23 -16 11 -21 36 -12 59 7 19 12 21
41 12 44 -12 48 -12 48 6 0 9 -9 15 -24 15 -12 0 -36 4 -52 9 -42 13 -182 22
-188 12z"/>
<path d="M860 14461 c0 -12 5 -21 10 -21 6 0 10 6 10 14 0 8 -4 18 -10 21 -5
3 -10 -3 -10 -14z"/>
<path d="M860 14414 c0 -9 5 -14 12 -12 18 6 21 28 4 28 -9 0 -16 -7 -16 -16z"/>
<path d="M770 14359 c0 -5 10 -9 22 -9 12 0 18 3 14 7 -10 11 -36 12 -36 2z"/>
<path d="M1783 14363 c-16 -6 -17 -45 -1 -61 7 -7 20 -12 30 -12 15 0 17 3 8
19 -5 11 -10 29 -10 40 0 21 -5 24 -27 14z"/>
<path d="M1946 14354 c-10 -25 1 -29 14 -5 6 12 7 21 1 21 -5 0 -12 -7 -15
-16z"/>
<path d="M1985 14350 c-7 -12 12 -50 25 -50 6 0 10 -9 10 -20 0 -22 15 -27 26
-8 4 6 0 16 -8 22 -8 6 -18 23 -22 39 -6 27 -20 35 -31 17z"/>
<path d="M1917 14273 c-12 -32 -45 -40 -63 -14 -9 12 -22 21 -30 21 -24 0 -16
-35 16 -65 24 -23 32 -26 45 -15 8 7 15 9 15 4 0 -5 7 2 16 14 8 12 14 35 12
50 -3 26 -4 26 -11 5z"/>
<path d="M1110 14204 c0 -8 5 -12 10 -9 6 4 8 11 5 16 -9 14 -15 11 -15 -7z"/>
<path d="M1220 14200 c-9 -16 -8 -20 5 -20 8 0 15 5 15 10 0 22 19 8 25 -19 3
-16 13 -32 21 -35 16 -6 19 9 4 19 -6 3 -7 17 -4 29 4 18 1 25 -18 30 -34 9
-36 8 -48 -14z"/>
<path d="M2042 14180 c-7 -11 -19 -20 -28 -20 -8 0 -12 -4 -9 -10 3 -5 17 -10
31 -10 20 0 24 5 24 30 0 35 -1 36 -18 10z"/>
<path d="M1145 14160 c-18 -6 -17 -8 10 -26 20 -13 30 -15 33 -6 2 6 10 12 19
12 8 0 13 6 11 13 -5 14 -43 18 -73 7z"/>
<path d="M1800 14141 c-22 -6 -25 -13 -27 -56 -2 -51 19 -114 40 -119 7 -2 38
-11 69 -20 48 -14 61 -15 73 -4 52 43 54 48 30 72 -8 8 -15 20 -15 26 0 6 -5
8 -10 5 -6 -4 -7 -12 -1 -22 12 -23 2 -53 -20 -53 -10 0 -23 9 -29 20 -6 12
-21 20 -35 20 -30 0 -75 47 -75 77 0 25 26 43 62 43 18 0 20 2 8 10 -17 11
-34 11 -70 1z"/>
<path d="M420 14100 c0 -11 5 -20 10 -20 6 0 10 9 10 20 0 11 -4 20 -10 20 -5
0 -10 -9 -10 -20z"/>
<path d="M1300 14096 c0 -8 5 -18 10 -21 6 -3 10 1 10 9 0 8 -4 18 -10 21 -5
3 -10 -1 -10 -9z"/>
<path d="M1057 14066 c-25 -19 -21 -48 12 -77 16 -14 30 -34 32 -45 3 -15 21
-23 78 -37 86 -22 120 -16 81 13 -14 10 -44 24 -68 30 -23 6 -65 27 -93 46
-48 35 -49 37 -33 55 21 23 16 32 -9 15z"/>
<path d="M1307 14054 c-10 -11 -8 -54 2 -54 14 0 25 40 14 51 -5 5 -12 6 -16
3z"/>
<path d="M381 13985 c-38 -59 -39 -75 -6 -76 14 -1 30 -2 36 -3 12 -1 19 98 8
116 -4 7 -20 -9 -38 -37z"/>
<path d="M316 13894 c-7 -19 38 -84 59 -84 7 0 27 -8 44 -17 39 -23 65 -9 69
36 3 26 0 31 -18 31 -12 0 -19 -3 -16 -8 2 -4 -2 -16 -10 -27 -8 -10 -14 -14
-14 -7 0 6 -15 18 -34 27 -18 9 -38 27 -44 40 -13 29 -27 32 -36 9z"/>
<path d="M438 13883 c7 -3 16 -2 19 1 4 3 -2 6 -13 5 -11 0 -14 -3 -6 -6z"/>
<path d="M1643 13843 c-29 -11 -12 -31 30 -35 49 -6 56 -2 36 16 -17 17 -49
26 -66 19z"/>
<path d="M1770 13816 c0 -9 7 -16 16 -16 9 0 14 5 12 12 -6 18 -28 21 -28 4z"/>
<path d="M1200 13801 c0 -11 5 -23 10 -26 6 -4 10 5 10 19 0 14 -4 26 -10 26
-5 0 -10 -9 -10 -19z"/>
<path d="M1827 13803 c-19 -19 7 -29 106 -40 38 -4 47 -2 47 10 0 28 -36 36
-99 22 -25 -6 -32 -5 -27 3 8 13 -16 17 -27 5z"/>
<path d="M1087 13771 c-17 -6 -15 -9 12 -30 42 -32 39 -43 -9 -35 -54 9 -53
-10 3 -35 60 -27 77 -32 77 -22 0 5 9 7 20 4 12 -3 20 0 20 7 0 6 -9 23 -20
37 -21 28 -26 53 -10 53 6 0 10 5 10 11 0 6 -8 8 -19 4 -11 -3 -22 -1 -26 5
-7 11 -31 12 -58 1z"/>
<path d="M1017 13754 c-10 -10 -9 -44 2 -44 13 0 23 32 13 42 -5 5 -11 5 -15
2z"/>
<path d="M840 13530 c0 -11 19 -23 40 -26 8 -1 30 -5 48 -9 26 -6 32 -4 32 9
0 11 -9 16 -28 16 -15 0 -42 4 -60 9 -18 5 -32 6 -32 1z"/>
<path d="M980 13504 c0 -15 26 -19 34 -5 3 5 -3 11 -14 14 -13 3 -20 0 -20 -9z"/>
<path d="M1185 13511 c-3 -5 -1 -12 5 -16 5 -3 10 1 10 9 0 18 -6 21 -15 7z"/>
<path d="M290 13438 c0 -7 5 -20 10 -28 8 -12 10 -11 10 7 0 12 -4 25 -10 28
-5 3 -10 0 -10 -7z"/>
<path d="M301 13374 c0 -11 3 -14 6 -6 3 7 2 16 -1 19 -3 4 -6 -2 -5 -13z"/>
<path d="M785 13350 c4 -6 11 -8 16 -5 14 9 11 15 -7 15 -8 0 -12 -5 -9 -10z"/>
<path d="M829 13331 c8 -5 20 -7 28 -4 7 3 13 0 13 -6 0 -6 11 -11 25 -11 35
0 31 16 -6 24 -48 9 -77 8 -60 -3z"/>
<path d="M950 13320 c0 -11 7 -20 15 -20 8 0 15 9 15 20 0 11 -7 20 -15 20 -8
0 -15 -9 -15 -20z"/>
<path d="M1013 13323 c-7 -3 -13 -9 -13 -14 0 -13 58 -11 66 3 4 7 3 8 -5 4
-6 -4 -17 -3 -24 2 -7 5 -18 7 -24 5z"/>
<path d="M1821 13304 c0 -11 3 -14 6 -6 3 7 2 16 -1 19 -3 4 -6 -2 -5 -13z"/>
<path d="M139 13294 c-18 -22 2 -37 56 -40 25 -1 60 -6 77 -9 29 -7 30 -9 25
-46 -4 -34 -2 -39 14 -39 14 0 19 7 19 28 0 15 7 35 15 45 12 16 11 21 -8 40
-18 18 -31 21 -84 19 -35 -2 -72 2 -82 7 -14 8 -22 7 -32 -5z"/>
<path d="M1135 13290 c-3 -5 -1 -10 4 -10 6 0 11 5 11 10 0 6 -2 10 -4 10 -3
0 -8 -4 -11 -10z"/>
<path d="M1175 13290 c-3 -5 -1 -10 4 -10 6 0 11 5 11 10 0 6 -2 10 -4 10 -3
0 -8 -4 -11 -10z"/>
<path d="M1200 13292 c0 -14 11 -21 26 -15 21 8 17 23 -6 23 -11 0 -20 -4 -20
-8z"/>
<path d="M375 13260 c-3 -5 3 -10 14 -10 12 0 21 5 21 10 0 6 -6 10 -14 10 -8
0 -18 -4 -21 -10z"/>
<path d="M440 13235 c0 -18 5 -25 20 -25 25 0 38 29 19 41 -25 15 -39 10 -39
-16z"/>
<path d="M1788 13243 c-10 -2 -20 -17 -24 -31 -3 -15 -12 -42 -21 -60 -9 -17
-13 -35 -10 -39 4 -3 7 -1 7 6 0 7 14 1 33 -13 43 -33 87 -44 87 -22 0 8 -13
22 -28 30 -16 8 -35 22 -42 31 -13 15 -11 20 15 44 17 15 29 34 27 44 -3 17
-11 19 -44 10z"/>
<path d="M1660 13223 c0 -7 7 -13 15 -13 8 0 15 6 15 13 0 8 -7 14 -15 14 -8
0 -15 -6 -15 -14z"/>
<path d="M1706 13224 c-4 -10 -1 -14 6 -12 15 5 23 28 10 28 -5 0 -13 -7 -16
-16z"/>
<path d="M1850 13186 c0 -2 9 -6 20 -9 11 -3 20 -1 20 4 0 5 -9 9 -20 9 -11 0
-20 -2 -20 -4z"/>
<path d="M1088 13173 c-10 -2 -18 -9 -18 -14 0 -6 -4 -8 -9 -4 -9 5 -61 -53
-61 -68 0 -3 14 -15 30 -27 39 -28 93 -20 88 13 -2 13 -13 23 -28 27 -37 9
-37 36 -1 55 43 22 42 29 -1 18z"/>
<path d="M1154 13169 c-3 -6 -4 -11 -3 -12 2 -1 14 -8 27 -15 18 -10 22 -10
22 1 0 18 -37 39 -46 26z"/>
<path d="M1464 13158 c-10 -16 46 -58 79 -58 15 0 27 -4 27 -10 0 -5 7 -10 15
-10 8 0 15 2 15 5 0 10 -54 54 -66 55 -6 0 -17 7 -24 15 -15 18 -36 19 -46 3z"/>
<path d="M1929 13145 c-8 -7 13 -55 23 -55 4 0 9 4 12 9 7 11 -27 55 -35 46z"/>
<path d="M1690 13120 l-25 -20 23 0 c12 0 25 7 29 15 9 24 0 25 -27 5z"/>
<path d="M1615 13109 c-10 -15 0 -21 27 -17 l23 3 -22 13 c-15 8 -24 9 -28 1z"/>
<path d="M1182 13076 c-27 -13 -24 -28 6 -33 14 -2 22 2 22 12 0 8 5 15 10 15
6 0 10 5 10 10 0 12 -18 11 -48 -4z"/>
<path d="M1910 13070 c0 -5 5 -10 11 -10 5 0 7 5 4 10 -3 6 -8 10 -11 10 -2 0
-4 -4 -4 -10z"/>
<path d="M320 13017 c-31 -14 -37 -23 -51 -71 -14 -50 5 -70 80 -90 69 -18
111 -6 111 31 0 25 -1 25 -25 9 -24 -16 -28 -16 -61 0 -19 9 -39 25 -45 36 -6
11 -16 17 -24 15 -9 -4 -11 1 -7 16 7 30 20 37 67 37 23 0 35 4 30 9 -18 16
-50 20 -75 8z"/>
<path d="M416 12973 c8 -34 28 -58 42 -49 14 9 3 46 -14 46 -8 0 -14 7 -14 15
0 8 -5 15 -10 15 -6 0 -8 -11 -4 -27z"/>
<path d="M1862 12943 c3 -37 -2 -53 -17 -53 -9 0 -21 -11 -27 -25 -10 -21 -8
-27 7 -39 18 -13 14 -36 -6 -36 -5 0 -26 -7 -46 -15 l-37 -16 48 -23 c26 -13
52 -29 58 -37 6 -10 7 -4 3 17 -5 26 -2 34 20 48 29 19 32 42 9 67 -15 17 -15
21 -2 41 9 14 13 36 10 56 -4 33 -23 46 -20 15z"/>
<path d="M1121 12850 c-15 -14 -32 -18 -50 -14 -24 5 -24 4 -8 -9 19 -16 23
-37 7 -37 -5 0 -10 -5 -10 -11 0 -8 4 -8 14 0 9 8 28 10 50 5 29 -5 36 -3 36
10 0 9 -4 16 -10 16 -5 0 -7 14 -5 30 2 17 3 30 2 30 -1 -1 -13 -9 -26 -20z"/>
<path d="M750 12826 c0 -19 27 -39 41 -30 8 4 9 3 5 -4 -5 -8 0 -12 13 -12 11
0 23 -4 26 -10 3 -5 18 -10 32 -10 l26 0 -23 20 c-12 11 -26 17 -31 14 -5 -2
-20 2 -33 11 -14 10 -31 13 -38 9 -10 -6 -9 -3 1 9 12 15 11 17 -3 17 -9 0
-16 -6 -16 -14z"/>
<path d="M414 12758 c4 -24 12 -47 18 -53 7 -7 9 2 4 30 -3 22 -6 46 -6 53 0
6 -5 12 -11 12 -8 0 -9 -14 -5 -42z"/>
<path d="M918 12763 c7 -3 16 -2 19 1 4 3 -2 6 -13 5 -11 0 -14 -3 -6 -6z"/>
<path d="M1220 12747 c0 -9 6 -20 13 -24 7 -4 20 -18 29 -31 14 -20 16 -21 22
-6 4 9 5 17 4 18 -2 1 -18 14 -36 30 -24 23 -32 26 -32 13z"/>
<path d="M335 12693 c-11 -3 -28 -12 -38 -21 -16 -15 -16 -16 0 -35 10 -10 34
-27 54 -38 64 -32 56 -59 -17 -59 -22 0 -34 -5 -34 -14 0 -10 22 -16 78 -21
42 -4 89 -9 105 -11 29 -3 38 17 15 35 -59 48 -78 61 -91 61 -19 0 -69 58 -64
74 2 6 13 12 25 14 12 2 20 8 17 13 -6 9 -17 10 -50 2z"/>
<path d="M1080 12691 c0 -15 70 -72 81 -66 15 10 10 35 -6 35 -8 0 -24 9 -35
20 -21 21 -40 26 -40 11z"/>
<path d="M1300 12651 c0 -5 -7 -17 -16 -25 -16 -17 -11 -36 10 -36 21 0 38 27
31 50 -6 20 -25 28 -25 11z"/>
<path d="M1733 12644 c-13 -6 21 -41 63 -66 34 -19 83 -85 84 -111 0 -32 -28
-29 -84 10 -43 30 -55 44 -56 65 0 34 -10 40 -34 23 -13 -10 -17 -21 -12 -39
3 -15 10 -26 14 -26 5 0 25 -15 46 -34 21 -18 56 -43 77 -54 35 -19 41 -20 69
-6 43 22 38 55 -17 113 -29 32 -27 65 5 69 14 2 22 10 22 23 0 22 -12 24 -40
7 -15 -10 -27 -8 -63 10 -45 22 -53 24 -74 16z"/>
<path d="M1216 12309 c-16 -15 -24 -29 -18 -33 6 -3 13 -2 17 4 4 6 10 8 15 5
9 -5 27 43 19 48 -2 2 -17 -9 -33 -24z"/>
<path d="M1092 12251 c-7 -4 -14 -16 -16 -25 -1 -10 -9 -21 -16 -26 -18 -11 3
-62 23 -54 9 3 14 -7 15 -36 3 -44 1 -46 -28 -28 -10 7 -22 9 -26 6 -11 -12 7
-28 32 -28 24 0 34 -23 14 -35 -15 -9 -12 -35 4 -35 8 0 36 10 63 22 26 12 62
22 78 23 18 0 30 5 30 13 0 7 -13 20 -30 29 -110 58 -144 86 -145 116 0 15 6
30 14 33 19 7 29 34 13 34 -7 0 -18 -4 -25 -9z"/>
<path d="M437 12213 c-11 -10 -8 -43 3 -43 6 0 10 11 10 25 0 26 -2 29 -13 18z"/>
<path d="M306 12135 c-8 -8 -20 -15 -27 -15 -22 0 24 -42 68 -62 42 -19 51
-47 14 -49 -22 -2 -31 -3 -68 -13 -29 -6 -32 -10 -23 -27 6 -11 21 -19 35 -19
14 0 25 -4 25 -10 0 -5 6 -10 14 -10 12 0 26 -20 26 -39 0 -3 -12 -8 -26 -9
-14 -1 -33 -6 -42 -11 -15 -9 -15 -10 3 -17 11 -4 32 -16 47 -26 33 -23 38
-23 38 1 0 12 11 23 31 30 27 9 29 13 19 31 -6 12 -22 25 -34 30 -22 8 -40 43
-28 54 3 3 16 6 28 6 31 0 42 36 17 58 -11 10 -28 22 -38 28 -33 18 -42 43
-22 58 9 7 17 16 17 20 0 12 -59 6 -74 -9z"/>
<path d="M1844 11868 c3 -13 6 -30 6 -38 1 -12 4 -11 15 4 10 13 11 24 4 37
-14 27 -33 24 -25 -3z"/>
<path d="M2107 11873 c-12 -12 -7 -42 14 -83 21 -41 39 -52 39 -25 0 8 -4 15
-9 15 -14 0 -18 31 -10 62 5 19 3 28 -8 32 -18 7 -18 7 -26 -1z"/>
<path d="M1016 11829 c-3 -18 -14 -41 -23 -51 -9 -10 -13 -21 -10 -24 10 -10
37 4 43 23 3 10 10 26 16 37 7 14 6 22 -5 33 -12 13 -15 10 -21 -18z"/>
<path d="M1214 11849 c-17 -5 -39 -18 -49 -29 -18 -20 -18 -20 31 -14 57 7 83
25 62 41 -8 6 -25 7 -44 2z"/>
<path d="M1120 11820 c0 -5 5 -10 11 -10 5 0 7 5 4 10 -3 6 -8 10 -11 10 -2 0
-4 -4 -4 -10z"/>
<path d="M1865 11791 c-3 -11 -26 -28 -50 -38 -25 -10 -45 -24 -45 -30 0 -18
35 -16 50 2 11 13 15 13 41 -1 16 -8 30 -23 30 -34 2 -35 4 -39 17 -51 9 -10
15 -10 23 -2 16 16 4 44 -16 37 -8 -3 -15 -1 -15 4 0 19 24 67 40 79 12 10 12
12 2 13 -8 0 -27 9 -42 20 -28 20 -29 20 -35 1z"/>
<path d="M1978 11772 c-25 -5 -22 -21 5 -31 25 -10 37 -6 37 14 0 15 -18 23
-42 17z"/>
<path d="M435 11750 c-3 -5 -3 -21 1 -35 9 -38 -18 -54 -92 -53 -68 2 -84 -5
-84 -32 0 -42 124 -145 142 -117 5 8 8 7 8 -5 0 -24 19 -23 41 4 25 28 24 38
-6 67 -31 29 -31 34 1 77 21 27 25 40 20 69 -7 34 -19 44 -31 25z m-39 -163
c31 -27 30 -39 -3 -35 -18 2 -33 14 -47 37 l-19 33 22 -7 c13 -4 34 -16 47
-28z"/>
<path d="M2166 11732 c-3 -6 -2 -13 4 -17 5 -3 10 -15 10 -27 0 -11 9 -33 21
-49 11 -16 31 -56 44 -89 13 -33 31 -67 39 -76 9 -8 16 -23 16 -31 0 -23 53
-103 68 -103 21 0 14 32 -31 137 -27 65 -53 110 -70 123 -15 12 -27 28 -27 36
0 8 -7 17 -15 20 -8 4 -15 14 -15 23 -1 23 -36 66 -44 53z"/>
<path d="M1620 11508 c0 -7 4 -19 9 -27 11 -17 25 3 17 24 -7 18 -26 20 -26 3z"/>
<path d="M1490 11480 c-12 -23 6 -56 55 -99 69 -59 125 -43 125 36 0 44 0 45
-29 38 -17 -3 -39 -1 -50 5 -17 9 -21 8 -21 -5 0 -9 7 -18 15 -21 18 -7 20
-34 3 -34 -21 0 -36 14 -47 43 -6 16 -7 26 -2 23 5 -3 14 0 20 8 9 11 8 15 -5
20 -29 11 -53 6 -64 -14z"/>
<path d="M1826 11448 c-20 -38 -20 -38 -1 -38 8 0 15 7 15 15 0 8 7 15 15 15
8 0 15 9 15 20 0 31 -27 24 -44 -12z"/>
<path d="M1146 11421 c-11 -17 1 -61 16 -61 28 0 -35 -31 -69 -34 -24 -2 -38
-9 -38 -17 0 -10 12 -13 42 -11 58 5 82 -11 89 -57 9 -57 19 -70 39 -50 13 13
14 20 4 42 -7 15 -15 24 -19 22 -5 -3 -4 11 0 30 7 30 4 40 -14 63 -13 15 -27
40 -33 57 -6 20 -12 25 -17 16z"/>
<path d="M2115 11412 c-43 -20 -39 -29 15 -32 51 -3 57 -2 74 16 36 36 -21 46
-89 16z"/>
<path d="M1270 11336 c0 -18 42 -29 51 -14 11 18 1 28 -27 28 -14 0 -24 -6
-24 -14z"/>
<path d="M2362 11318 c2 -6 10 -14 16 -16 7 -2 10 2 6 12 -7 18 -28 22 -22 4z"/>
<path d="M2403 11230 c-1 -17 3 -30 9 -30 5 0 8 -9 5 -20 -3 -11 1 -26 8 -33
7 -8 21 -41 30 -75 18 -65 25 -71 44 -48 10 11 5 31 -22 93 -19 43 -40 93 -47
111 -15 40 -24 41 -27 2z"/>
<path d="M1693 11228 c-13 -6 -23 -18 -23 -26 0 -11 8 -13 36 -9 45 8 50 12
34 32 -14 17 -17 17 -47 3z"/>
<path d="M2097 11218 c-4 -13 14 -48 25 -48 2 0 4 12 3 27 0 28 -19 43 -28 21z"/>
<path d="M555 11200 c3 -5 8 -10 11 -10 2 0 4 5 4 10 0 6 -5 10 -11 10 -5 0
-7 -4 -4 -10z"/>
<path d="M1619 11198 c-12 -40 -5 -88 12 -88 6 0 9 9 6 19 -3 11 1 28 9 39 7
11 10 22 7 26 -6 6 -32 9 -34 4z"/>
<path d="M1942 11174 c-15 -10 -22 -25 -22 -47 0 -37 8 -51 32 -60 13 -5 16
-1 11 16 -2 12 -7 32 -10 45 -3 14 1 30 12 42 22 24 8 26 -23 4z"/>
<path d="M2143 11133 c-7 -2 -13 -9 -13 -15 0 -6 7 -8 15 -4 10 3 15 -1 15
-12 0 -38 -17 -47 -90 -46 -51 0 -70 -3 -70 -13 0 -7 8 -13 18 -13 11 0 27 -9
37 -20 20 -22 50 -25 90 -10 19 7 32 6 48 -5 20 -13 24 -12 46 11 13 13 29 24
35 24 19 0 49 37 41 49 -8 14 -42 14 -50 1 -3 -5 -20 -10 -36 -10 -23 0 -34 7
-50 35 -12 19 -22 35 -22 34 -1 0 -8 -3 -14 -6z"/>
<path d="M469 11125 c-4 -3 -53 -10 -111 -14 -8 -1 -11 -41 -4 -41 2 0 25 9
50 20 26 11 48 20 51 20 3 0 17 0 33 0 21 0 24 2 12 10 -17 11 -24 12 -31 5z"/>
<path d="M1649 11110 c-1 -8 -2 -24 -3 -35 -1 -15 -9 -21 -36 -23 -94 -8 -71
-30 28 -26 102 3 98 2 84 16 -7 7 -12 20 -12 30 0 10 -7 18 -16 18 -9 0 -23 8
-30 18 -11 14 -14 14 -15 2z"/>
<path d="M594 11095 c-18 -14 -18 -15 4 -21 12 -3 22 -10 22 -15 0 -5 4 -9 9
-9 10 0 2 48 -9 55 -4 2 -16 -2 -26 -10z"/>
<path d="M1286 11077 c-29 -17 -50 -39 -69 -68 -15 -25 -15 -28 2 -43 10 -9
40 -21 67 -25 27 -5 57 -12 67 -16 12 -5 17 -2 17 10 0 15 3 15 15 5 12 -10
21 -10 40 -2 34 16 33 54 -1 77 -14 9 -23 19 -20 22 10 10 -15 33 -35 33 -24
0 -25 -17 -1 -24 10 -4 28 -19 40 -36 l22 -29 -21 -15 c-25 -17 -74 -4 -101
28 -17 20 -19 20 -32 4 -19 -26 -28 -22 -24 9 2 17 12 32 26 39 13 6 23 15 22
20 -1 4 7 11 17 15 12 5 13 8 3 8 -8 0 -24 -6 -34 -12z"/>
<path d="M655 10975 c-3 -14 -7 -36 -10 -50 -4 -18 -1 -25 10 -25 12 0 15 11
14 50 -2 56 -6 62 -14 25z"/>
<path d="M1598 10976 c-28 -21 -21 -52 17 -82 20 -15 38 -24 42 -21 3 4 13 -8
22 -26 10 -19 23 -30 31 -28 8 2 47 4 85 3 76 -2 108 9 88 29 -7 7 -25 13 -40
14 -15 1 -38 3 -51 3 -14 1 -26 11 -32 26 -13 35 -62 78 -82 72 -10 -2 -18 1
-18 8 0 16 -41 18 -62 2z m87 -40 c26 -19 13 -50 -17 -40 -25 8 -49 34 -42 46
8 12 38 9 59 -6z"/>
<path d="M390 10950 c0 -11 4 -20 9 -20 5 0 7 9 4 20 -3 11 -7 20 -9 20 -2 0
-4 -9 -4 -20z"/>
<path d="M1438 10795 c-4 -4 -2 -19 3 -34 6 -14 10 -27 9 -29 -1 -2 0 -6 3 -8
2 -3 7 7 9 21 5 26 -12 61 -24 50z"/>
<path d="M2287 10783 c-10 -9 -9 -23 2 -23 5 0 11 7 15 15 5 15 -5 20 -17 8z"/>
<path d="M2320 10775 c0 -8 5 -15 12 -15 6 0 20 -7 30 -17 10 -9 18 -12 18 -6
0 9 -45 53 -55 53 -3 0 -5 -7 -5 -15z"/>
<path d="M1328 10719 c-46 -34 -37 -54 41 -96 36 -20 36 -9 0 25 -28 26 -31
33 -20 46 8 9 24 16 36 16 13 0 25 7 29 15 7 18 -20 21 -28 3 -5 -10 -7 -10
-12 0 -8 16 -14 15 -46 -9z"/>
<path d="M2253 10734 c4 -4 2 -13 -4 -20 -14 -18 17 -73 52 -93 23 -13 31 -12
78 9 48 22 52 26 49 54 -2 21 -9 32 -23 35 -17 3 -18 1 -5 -14 12 -14 12 -18
-1 -26 -8 -5 -19 -9 -25 -9 -22 0 -85 31 -90 45 -3 7 -13 16 -22 20 -9 3 -13
3 -9 -1z"/>
<path d="M1430 10596 c0 -8 5 -16 12 -18 18 -6 -1 -28 -25 -28 -12 0 -28 -4
-35 -9 -10 -6 -5 -11 19 -20 28 -10 34 -9 42 5 6 11 12 13 16 5 8 -12 81 -3
81 10 0 12 -42 49 -57 50 -22 2 -28 4 -40 12 -8 5 -13 3 -13 -7z"/>
<path d="M730 10543 c-22 -7 -40 -34 -40 -58 0 -24 44 -49 103 -60 29 -6 37
-3 47 14 9 17 7 26 -7 46 -20 27 -49 34 -39 10 7 -20 -18 -19 -39 1 -11 12
-13 20 -5 29 13 15 2 25 -20 18z"/>
<path d="M2312 10497 c-19 -45 -15 -91 11 -115 13 -12 29 -22 35 -22 7 0 17
-11 22 -25 8 -20 16 -25 45 -25 56 0 135 29 135 50 0 15 -10 17 -77 16 -126
-1 -149 15 -156 109 l-3 40 -12 -28z"/>
<path d="M1080 10375 c0 -8 5 -15 12 -15 6 0 20 -7 30 -17 22 -20 24 -6 2 25
-17 25 -44 29 -44 7z"/>
<path d="M930 10292 c-44 -26 -44 -27 -17 -30 16 -2 34 -14 44 -28 22 -34 49
-47 71 -35 15 9 15 10 -5 11 -26 0 -47 33 -40 65 7 40 -6 44 -53 17z"/>
<path d="M1460 10284 c0 -3 8 -16 18 -29 10 -12 24 -42 31 -66 23 -74 35 -99
49 -99 34 0 14 85 -28 116 -9 7 -22 28 -30 48 -7 20 -20 36 -27 36 -7 0 -13
-3 -13 -6z"/>
<path d="M855 10240 c-3 -5 -1 -10 4 -10 6 0 11 5 11 10 0 6 -2 10 -4 10 -3 0
-8 -4 -11 -10z"/>
<path d="M763 10230 c-24 -3 -46 -10 -50 -14 -10 -10 25 -36 48 -36 24 0 80
-33 76 -45 -2 -5 -14 -12 -28 -15 -19 -5 -21 -8 -9 -15 28 -17 60 -14 71 8 10
18 7 25 -25 52 -25 21 -35 36 -31 47 9 22 -2 25 -52 18z"/>
<path d="M2669 10147 c-1 -1 -2 -23 -3 -48 -1 -38 -8 -55 -36 -87 -49 -56 -64
-60 -106 -22 -20 17 -38 29 -40 27 -3 -3 5 -21 17 -41 20 -34 20 -38 5 -55 -9
-10 -16 -27 -16 -39 0 -32 -25 -27 -70 14 -34 32 -38 40 -33 70 7 41 -7 45
-25 6 -13 -31 -8 -80 15 -126 13 -26 18 -28 53 -22 22 3 41 2 45 -4 10 -16 41
-12 82 13 31 18 53 22 121 22 45 0 82 2 82 5 -1 19 -24 26 -90 29 -41 1 -76 4
-78 5 -11 11 16 61 39 75 20 11 29 24 29 41 0 17 3 21 9 12 5 -9 12 6 19 44 7
32 12 61 12 65 0 6 -28 21 -31 16z"/>
<path d="M2404 10057 c-5 -7 -13 -20 -17 -29 -7 -21 12 -25 31 -6 8 8 15 8 27
-2 19 -16 19 -1 -1 28 -17 25 -24 27 -40 9z"/>
<path d="M2782 9898 c-7 -7 -12 -20 -12 -31 0 -13 6 -18 23 -15 16 2 22 10 22
27 0 28 -15 37 -33 19z"/>
<path d="M970 9880 c0 -5 -3 -9 -7 -7 -5 1 -8 -2 -8 -8 0 -5 4 -9 9 -7 4 1 14
-2 20 -8 15 -12 26 -3 26 22 0 11 -7 18 -20 18 -11 0 -20 -4 -20 -10z"/>
<path d="M835 9860 c-18 -8 -17 -9 8 -9 15 -1 27 4 27 9 0 12 -8 12 -35 0z"/>
<path d="M880 9862 c0 -15 11 -21 27 -15 12 5 12 7 1 14 -17 11 -28 11 -28 1z"/>
<path d="M750 9850 c-8 -5 -11 -12 -7 -16 4 -4 12 -3 18 3 6 6 18 9 25 6 8 -3
14 0 14 6 0 13 -29 14 -50 1z"/>
<path d="M620 9831 c0 -6 -10 -11 -22 -11 -15 0 -19 -3 -11 -11 13 -13 65 -1
60 14 -5 15 -27 21 -27 8z"/>
<path d="M660 9830 c0 -5 5 -10 10 -10 6 0 10 5 10 10 0 6 -4 10 -10 10 -5 0
-10 -4 -10 -10z"/>
<path d="M1762 9818 c-40 -13 -65 -47 -85 -113 -20 -72 -48 -73 -116 -4 -43
43 -53 50 -66 39 -23 -19 -18 -41 15 -77 23 -24 26 -32 15 -37 -8 -3 -15 -12
-15 -20 0 -10 16 -16 58 -19 31 -3 71 -8 88 -12 27 -6 33 -3 57 34 22 33 35
42 67 47 40 6 50 17 30 29 -6 4 -17 2 -24 -4 -9 -8 -18 -7 -31 3 -16 12 -17
16 -6 30 7 8 23 14 35 12 11 -3 24 -5 29 -5 4 -1 7 -9 7 -19 0 -10 12 -23 28
-30 49 -23 72 -37 72 -44 0 -4 14 -28 31 -53 l31 -46 -22 -24 c-22 -23 -20
-48 3 -43 34 6 85 -14 96 -39 14 -30 7 -40 -33 -47 -22 -4 -39 1 -64 21 -26
19 -39 24 -50 16 -41 -26 -10 -50 90 -72 32 -7 60 -17 63 -22 10 -15 25 -10
18 6 -3 9 2 24 12 35 10 11 14 26 10 39 -6 20 -63 75 -85 83 -7 2 -12 16 -12
32 0 16 -8 32 -19 39 -11 7 -19 19 -19 29 0 9 -5 18 -12 20 -13 5 -16 63 -5
94 6 17 1 29 -20 51 -64 67 -115 89 -171 71z m92 -42 c21 -32 9 -38 -45 -23
-60 17 -67 47 -11 47 31 0 43 -5 56 -24z"/>
<path d="M936 9675 c4 -8 8 -15 10 -15 2 0 4 7 4 15 0 8 -4 15 -10 15 -5 0 -7
-7 -4 -15z"/>
<path d="M940 9623 c0 -5 4 -15 10 -23 11 -18 25 -7 17 15 -6 15 -27 21 -27 8z"/>
<path d="M955 9571 c-6 -10 11 -24 33 -27 15 -3 16 8 0 24 -14 14 -25 15 -33
3z"/>
<path d="M1055 9520 c-19 -8 -19 -9 1 -9 12 -1 29 -12 38 -26 13 -19 22 -23
48 -20 18 2 38 -1 45 -7 10 -8 13 -4 13 20 0 21 -7 35 -19 42 -23 12 -98 12
-126 0z"/>
<path d="M1585 9511 c-4 -14 -21 -24 -48 -31 -61 -16 -88 -32 -85 -49 2 -9 -7
-24 -19 -34 -25 -20 -28 -34 -13 -57 8 -13 16 -12 67 4 72 23 75 24 93 35 8 5
38 19 65 32 28 13 52 25 54 26 11 8 -23 28 -47 28 -22 0 -28 5 -32 29 -6 35
-26 45 -35 17z"/>
<path d="M1230 9381 c0 -6 5 -13 10 -16 18 -11 10 -43 -12 -51 -13 -3 -30 -12
-38 -19 -16 -12 -84 -14 -96 -2 -4 4 -1 7 6 7 11 0 11 3 2 12 -9 9 -8 16 5 30
20 23 11 33 -16 18 -25 -13 -27 -42 -5 -75 19 -29 104 -51 134 -35 23 12 43
79 34 115 -6 24 -24 36 -24 16z"/>
<path d="M1142 9358 c6 -18 28 -21 28 -4 0 9 -7 16 -16 16 -9 0 -14 -5 -12
-12z"/>
<path d="M2482 9278 c-5 -7 -15 -32 -22 -56 -12 -47 -3 -70 28 -71 53 -2 92
-15 97 -32 8 -24 19 -24 71 0 l41 19 17 -29 c22 -37 36 -37 36 -1 0 34 16 52
46 52 26 0 51 27 38 40 -5 5 -32 4 -63 -1 -49 -10 -55 -9 -78 13 -14 13 -22
16 -18 7 12 -32 -17 -48 -90 -50 -104 -2 -100 -4 -100 43 0 24 5 43 13 45 14
5 17 33 3 33 -5 0 -13 -6 -19 -12z"/>
<path d="M2655 9250 c3 -5 8 -10 11 -10 2 0 4 5 4 10 0 6 -5 10 -11 10 -5 0
-7 -4 -4 -10z"/>
<path d="M1100 9201 c0 -11 5 -23 10 -26 6 -3 10 3 10 14 0 11 -4 23 -10 26
-5 3 -10 -3 -10 -14z"/>
<path d="M1949 9198 c-4 -13 -5 -66 -1 -76 6 -17 72 -46 124 -56 58 -11 101
17 106 69 l4 30 -24 -35 c-30 -44 -67 -48 -85 -9 -23 47 -60 79 -93 79 -16 0
-30 -1 -31 -2z"/>
<path d="M2161 9191 c-8 -6 -9 -11 -3 -15 6 -3 14 -1 17 5 9 14 2 20 -14 10z"/>
<path d="M1300 9130 c-23 -19 -29 -30 -19 -30 9 0 19 3 23 7 4 4 15 8 24 8 10
0 18 9 20 23 4 29 -6 28 -48 -8z"/>
<path d="M1146 9107 c3 -8 1 -25 -6 -36 -6 -12 -7 -21 -3 -20 26 4 51 -16 57
-43 7 -37 16 -32 22 14 3 18 14 39 25 47 29 21 23 33 -15 26 -24 -5 -42 -2
-60 10 -22 15 -25 15 -20 2z"/>
<path d="M1090 9040 c0 -5 7 -10 16 -10 8 0 12 5 9 10 -3 6 -10 10 -16 10 -5
0 -9 -4 -9 -10z"/>
<path d="M2140 8955 c7 -8 16 -15 21 -15 5 0 6 7 3 15 -4 8 -13 15 -21 15 -13
0 -13 -3 -3 -15z"/>
<path d="M2718 8943 c-23 -6 -23 -29 -1 -42 10 -5 14 -13 10 -17 -5 -5 -12 -2
-17 6 -5 8 -12 12 -15 8 -10 -9 14 -48 29 -48 7 0 18 -11 24 -25 12 -26 80
-64 114 -65 28 0 10 29 -28 45 -19 8 -34 19 -34 25 0 7 -7 28 -17 47 -13 28
-14 36 -3 43 31 19 -13 36 -62 23z"/>
<path d="M2160 8917 c0 -9 -4 -17 -10 -17 -16 0 -12 -37 5 -44 8 -3 15 -9 15
-14 0 -17 -60 -72 -79 -72 -11 0 -22 -4 -25 -9 -10 -15 5 -20 31 -10 20 8 38
4 87 -20 44 -21 75 -29 114 -29 28 0 52 4 52 9 0 5 -12 9 -27 9 -42 0 -143 43
-143 60 0 26 24 69 40 72 11 2 4 14 -22 42 -27 27 -38 34 -38 23z"/>
<path d="M1280 8891 c0 -6 5 -13 10 -16 6 -3 10 1 10 9 0 9 -4 16 -10 16 -5 0
-10 -4 -10 -9z"/>
<path d="M2018 8863 c7 -3 16 -2 19 1 4 3 -2 6 -13 5 -11 0 -14 -3 -6 -6z"/>
<path d="M2267 8844 c-10 -11 5 -34 23 -34 25 0 71 -39 69 -59 -3 -30 1 -41
15 -41 23 0 27 30 9 61 -16 27 -26 33 -45 30 -5 0 -8 4 -8 9 0 6 -7 10 -15 10
-9 0 -18 7 -21 15 -6 16 -17 19 -27 9z"/>
<path d="M1483 8833 c-29 -11 -12 -29 22 -25 29 3 33 7 24 18 -12 14 -24 16
-46 7z"/>
<path d="M1945 8830 c-3 -5 -3 -10 1 -10 4 0 -1 -6 -12 -14 -19 -15 -19 -15 1
-35 25 -24 106 -33 113 -12 3 10 -2 13 -20 9 -33 -6 -57 13 -60 46 -2 27 -12
34 -23 16z"/>
<path d="M2930 8811 c0 -13 -8 -21 -25 -23 -29 -4 -21 -26 12 -32 33 -7 57 16
49 47 -7 31 -36 37 -36 8z"/>
<path d="M1308 8794 c-8 -17 -20 -24 -40 -25 -46 -2 -68 -12 -68 -30 0 -14 30
-11 46 6 17 16 94 21 94 5 0 -5 11 2 25 15 13 14 29 25 35 25 5 0 10 5 10 11
0 6 -6 9 -14 6 -8 -3 -29 -2 -46 3 -27 8 -32 6 -42 -16z"/>
<path d="M1366 8695 c4 -8 10 -15 15 -15 4 0 6 7 3 15 -4 8 -10 15 -15 15 -4
0 -6 -7 -3 -15z"/>
<path d="M2323 8518 c-46 -28 -42 -41 10 -32 23 4 49 7 57 8 18 1 40 27 34 38
-9 15 -69 6 -101 -14z"/>
<path d="M1390 8502 c0 -11 37 -32 44 -25 15 15 4 33 -19 33 -14 0 -25 -3 -25
-8z"/>
<path d="M2146 8445 c-21 -31 -20 -45 2 -45 15 0 42 40 42 62 0 17 -29 7 -44
-17z"/>
<path d="M1722 8387 c0 -26 4 -34 13 -31 14 6 12 41 -4 57 -5 5 -9 -5 -9 -26z"/>
<path d="M1103 8393 c-18 -7 -16 -32 3 -40 18 -7 35 14 27 34 -5 14 -10 15
-30 6z"/>
<path d="M3419 8339 c-11 -11 -17 -24 -13 -27 3 -4 9 -1 11 6 7 18 48 14 67
-7 15 -16 16 -25 6 -58 -16 -52 -55 -72 -85 -43 -20 19 -35 18 -35 -1 0 -12
53 -59 66 -59 7 0 19 11 27 24 9 13 23 31 32 40 19 19 30 83 21 120 -5 22 -12
26 -41 26 -22 0 -43 -8 -56 -21z"/>
<path d="M1630 8325 c-10 -12 -9 -15 4 -15 10 0 14 5 10 11 -5 8 1 10 19 7 14
-3 32 -1 39 3 8 6 0 9 -23 9 -20 0 -42 -7 -49 -15z"/>
<path d="M3365 8310 c-3 -5 1 -10 10 -10 9 0 13 5 10 10 -3 6 -8 10 -10 10 -2
0 -7 -4 -10 -10z"/>
<path d="M3272 8254 c-26 -18 -21 -35 8 -27 11 3 20 14 20 24 0 23 0 23 -28 3z"/>
<path d="M3205 8220 c-3 -5 1 -10 9 -10 8 0 18 5 21 10 3 6 -1 10 -9 10 -8 0
-18 -4 -21 -10z"/>
<path d="M3085 8213 c-103 -5 -117 -9 -109 -36 8 -28 48 -67 69 -67 9 0 25 -5
36 -11 25 -13 78 -2 86 17 3 8 -3 24 -13 35 -13 15 -15 22 -6 31 7 7 12 8 12
4 0 -5 7 -3 15 4 16 13 11 31 -8 28 -7 -1 -43 -3 -82 -5z m5 -65 c0 -13 -23
-5 -28 10 -2 7 2 10 12 6 9 -3 16 -11 16 -16z"/>
<path d="M1518 8178 c-2 -17 -10 -23 -28 -23 -17 0 -29 -8 -38 -27 -12 -25
-14 -26 -40 -12 -42 21 -66 17 -91 -17 l-23 -31 38 -39 c42 -43 56 -42 54 5
-4 66 1 69 46 31 37 -32 49 -27 48 18 -1 43 28 61 50 31 14 -19 36 -12 36 13
0 18 -31 73 -41 73 -4 0 -9 -10 -11 -22z"/>
<path d="M1174 8067 c-6 -17 12 -67 25 -67 6 0 15 8 20 18 9 14 10 12 11 -15
0 -17 5 -35 11 -39 16 -9 1 56 -17 77 -8 8 -14 21 -14 27 0 16 -29 15 -36 -1z"/>
<path d="M3211 8010 c13 -16 24 -28 27 -26 5 6 -31 55 -41 56 -4 0 2 -13 14
-30z"/>
<path d="M1066 7961 c10 -17 24 -31 31 -31 17 0 -2 32 -29 49 -20 12 -20 12
-2 -18z"/>
<path d="M3249 7974 c-1 -5 0 -19 1 -31 1 -19 -7 -25 -54 -38 -63 -18 -73 -40
-23 -49 19 -3 42 -13 53 -21 19 -15 19 -16 -3 -31 -23 -16 -33 -41 -12 -28 6
3 15 1 19 -6 5 -8 15 -10 26 -5 11 4 29 7 41 6 13 -1 26 6 32 17 12 23 -8 46
-58 63 -32 11 -32 11 -13 33 32 36 34 45 13 72 -12 15 -21 23 -22 18z"/>
<path d="M1166 7943 c-6 -14 -5 -15 5 -6 7 7 10 15 7 18 -3 3 -9 -2 -12 -12z"/>
<path d="M1260 7931 c0 -24 18 -37 32 -23 8 8 7 16 -2 27 -17 21 -30 19 -30
-4z"/>
<path d="M1128 7913 c6 -2 18 -2 25 0 6 3 1 5 -13 5 -14 0 -19 -2 -12 -5z"/>
<path d="M2549 7903 c-1 -4 -1 -16 0 -25 2 -11 -10 -22 -32 -32 -45 -19 -77
-46 -77 -68 0 -29 23 -69 37 -64 7 3 13 2 13 -3 0 -5 11 -12 25 -15 30 -8 32
-29 5 -56 -24 -24 -26 -40 -5 -40 21 0 86 71 83 90 -2 8 -21 19 -43 25 -55 13
-94 49 -79 73 6 9 24 23 40 31 34 17 53 39 54 63 0 17 -19 36 -21 21z"/>
<path d="M1893 7830 c-29 -23 -29 -26 5 -37 49 -17 67 2 35 37 -17 18 -19 18
-40 0z"/>
<path d="M1105 7830 c3 -5 13 -10 21 -10 8 0 14 5 14 10 0 6 -9 10 -21 10 -11
0 -17 -4 -14 -10z"/>
<path d="M1070 7805 c0 -8 4 -15 9 -15 5 0 11 7 15 15 3 9 0 15 -9 15 -8 0
-15 -7 -15 -15z"/>
<path d="M1270 7806 c0 -2 7 -9 15 -16 12 -10 15 -10 15 4 0 9 -7 16 -15 16
-8 0 -15 -2 -15 -4z"/>
<path d="M1975 7790 c3 -5 11 -10 16 -10 6 0 7 5 4 10 -3 6 -11 10 -16 10 -6
0 -7 -4 -4 -10z"/>
<path d="M3165 7790 c-3 -5 1 -10 10 -10 9 0 13 5 10 10 -3 6 -8 10 -10 10 -2
0 -7 -4 -10 -10z"/>
<path d="M1184 7775 c-9 -22 12 -43 27 -28 9 9 8 16 -5 28 -15 15 -17 15 -22
0z"/>
<path d="M1090 7770 c0 -5 4 -10 10 -10 5 0 7 -6 5 -12 -5 -15 11 -45 20 -37
7 8 -15 69 -26 69 -5 0 -9 -4 -9 -10z"/>
<path d="M1900 7729 c-17 -30 -6 -45 37 -52 108 -18 146 -27 157 -36 15 -13
36 5 36 29 -1 16 -23 50 -34 50 -3 0 -6 -9 -6 -19 0 -20 -32 -39 -38 -22 -2 6
-20 11 -41 11 -36 0 -81 28 -81 50 0 18 -19 11 -30 -11z"/>
<path d="M3350 7700 c0 -5 5 -10 11 -10 5 0 7 5 4 10 -3 6 -8 10 -11 10 -2 0
-4 -4 -4 -10z"/>
<path d="M1165 7691 c-6 -11 9 -23 19 -14 9 9 7 23 -3 23 -6 0 -12 -4 -16 -9z"/>
<path d="M1260 7674 c0 -9 5 -14 12 -12 18 6 21 28 4 28 -9 0 -16 -7 -16 -16z"/>
<path d="M1196 7671 c-3 -5 1 -11 9 -15 16 -6 45 2 45 13 0 10 -48 12 -54 2z"/>
<path d="M3410 7646 c0 -26 -27 -40 -98 -51 -41 -7 -42 -8 -23 -21 11 -8 24
-13 28 -12 13 3 96 -25 121 -40 29 -18 30 2 1 22 -21 14 -21 16 -5 49 20 44
20 57 0 57 -8 0 -12 5 -9 10 3 6 1 10 -4 10 -6 0 -11 -11 -11 -24z"/>
<path d="M1660 7649 c0 -5 -4 -7 -10 -4 -5 3 -10 2 -10 -4 0 -5 5 -13 10 -16
6 -3 10 -1 10 4 0 17 18 13 22 -4 2 -9 8 -12 16 -6 11 6 10 11 -3 25 -19 18
-35 21 -35 5z"/>
<path d="M4145 7629 c-4 -5 1 -19 11 -30 16 -18 18 -18 36 -3 14 13 15 20 7
31 -14 16 -45 17 -54 2z"/>
<path d="M1740 7619 c0 -5 -8 -9 -17 -10 -10 0 -4 -5 12 -10 17 -5 36 -7 43
-4 20 7 14 22 -13 27 -14 3 -25 1 -25 -3z"/>
<path d="M2092 7540 c14 -22 24 -19 15 5 -4 8 -11 15 -17 15 -6 0 -6 -7 2 -20z"/>
<path d="M1350 7526 c0 -9 8 -16 17 -16 28 0 64 -49 57 -76 -7 -28 16 -33 35
-10 10 11 10 20 0 38 -17 32 -43 63 -54 64 -6 1 -20 5 -32 9 -17 5 -23 2 -23
-9z"/>
<path d="M2753 7487 c-70 -53 -71 -81 -2 -45 46 23 68 44 69 66 0 20 -22 13
-67 -21z"/>
<path d="M3270 7515 c0 -14 51 -55 76 -61 16 -4 34 -9 39 -13 15 -9 94 -8 89
1 -8 13 9 9 30 -7 10 -8 23 -12 27 -9 10 6 -15 60 -37 82 -15 14 -14 15 -28
-32 -6 -18 -80 -11 -114 11 -13 8 -30 12 -38 9 -8 -3 -14 -1 -14 3 0 5 -7 11
-15 15 -8 3 -15 3 -15 1z"/>
<path d="M1200 7461 c0 -12 5 -21 10 -21 6 0 10 6 10 14 0 8 -4 18 -10 21 -5
3 -10 -3 -10 -14z"/>
<path d="M2015 7430 c4 -6 11 -8 16 -5 14 9 11 15 -7 15 -8 0 -12 -5 -9 -10z"/>
<path d="M2670 7433 c0 -6 -19 -14 -42 -19 -42 -9 -65 -34 -31 -34 41 0 96 41
78 58 -3 3 -5 1 -5 -5z"/>
<path d="M1226 7417 c15 -26 48 -57 61 -57 17 0 43 24 43 39 0 6 -4 11 -10 11
-5 0 -10 -4 -10 -10 0 -5 -13 -8 -30 -7 -16 1 -30 7 -30 13 0 7 -7 15 -16 18
-10 4 -13 2 -8 -7z"/>
<path d="M4308 7400 c-5 -34 -3 -36 19 -15 8 9 12 22 9 30 -9 25 -23 17 -28
-15z"/>
<path d="M1960 7420 c-1 -3 -4 -26 -6 -51 -4 -42 -1 -49 23 -65 28 -18 104
-27 144 -17 12 3 30 20 40 37 20 33 26 71 9 61 -5 -3 -10 -14 -10 -25 0 -23
-35 -16 -67 13 -24 22 -31 9 -11 -22 18 -30 3 -53 -29 -45 -16 3 -33 13 -40
21 -6 8 -17 12 -24 7 -7 -4 -10 -3 -7 2 3 5 -1 27 -8 49 -7 22 -13 38 -14 35z"/>
<path d="M2477 7378 c-9 -24 -6 -33 11 -30 17 4 32 20 32 35 0 12 -38 8 -43
-5z"/>
<path d="M4220 7354 c-22 -7 -51 -9 -76 -5 -42 8 -67 4 -59 -9 3 -4 -3 -14
-13 -21 -15 -12 -16 -12 -5 1 8 10 9 21 3 30 -8 13 -10 13 -10 -1 0 -9 -10
-24 -22 -32 -22 -16 -22 -16 20 -16 36 -1 42 2 42 19 0 11 5 20 10 20 6 0 10
-7 10 -16 0 -14 9 -15 60 -9 41 5 60 4 60 -4 0 -6 4 -11 10 -11 5 0 7 7 4 15
-4 8 -1 22 5 29 17 20 1 24 -39 10z"/>
<path d="M3873 7342 c-10 -16 -6 -20 25 -32 48 -17 104 -19 109 -2 3 6 -2 12
-11 12 -9 0 -33 9 -53 20 -46 25 -55 25 -70 2z"/>
<path d="M3450 7300 c0 -5 -11 -10 -24 -10 -21 0 -36 -16 -36 -39 0 -7 51 -35
93 -50 22 -9 27 -8 27 4 0 8 -7 15 -16 15 -28 0 -46 28 -39 60 4 17 4 30 1 30
-3 0 -6 -4 -6 -10z"/>
<path d="M1446 7259 c-12 -14 -16 -29 -11 -46 8 -34 21 -18 24 33 1 6 8 11 16
11 10 0 15 -10 15 -32 0 -23 7 -35 29 -48 45 -27 53 -22 36 21 -9 20 -21 39
-27 41 -6 2 -19 12 -29 22 -24 24 -30 24 -53 -2z"/>
<path d="M4295 7270 c-3 -5 1 -10 10 -10 9 0 13 5 10 10 -3 6 -8 10 -10 10 -2
0 -7 -4 -10 -10z"/>
<path d="M4350 7225 c7 -8 16 -12 21 -9 13 8 1 24 -18 24 -13 0 -13 -3 -3 -15z"/>
<path d="M1310 7195 c0 -14 70 -65 90 -65 5 0 10 7 10 15 0 9 -6 12 -15 9 -9
-4 -25 6 -41 25 -28 34 -44 39 -44 16z"/>
<path d="M2229 7203 c-1 -5 -1 -12 0 -17 1 -4 -4 -14 -10 -22 -12 -15 -2 -18
25 -8 21 8 21 54 1 54 -8 0 -16 -3 -16 -7z"/>
<path d="M3538 7185 c4 -22 -1 -28 -27 -38 -17 -6 -31 -15 -31 -20 0 -4 -4 -6
-9 -3 -5 3 -15 -1 -22 -10 -11 -13 -9 -15 12 -11 13 2 32 7 42 12 9 4 24 5 32
1 9 -3 20 2 27 13 6 11 18 17 25 14 8 -3 13 2 13 15 0 13 -12 26 -32 36 -17 9
-32 16 -33 16 -1 0 0 -11 3 -25z"/>
<path d="M4380 7170 c0 -16 -34 -46 -50 -43 -86 14 -91 14 -78 -7 7 -11 31
-26 53 -32 22 -6 44 -15 50 -20 18 -16 24 -8 15 18 -14 37 -13 43 15 56 27 12
34 48 10 48 -8 0 -15 -9 -15 -20z"/>
<path d="M4135 7160 c-4 -6 5 -10 20 -10 15 0 24 4 20 10 -3 6 -12 10 -20 10
-8 0 -17 -4 -20 -10z"/>
<path d="M3948 7142 c-21 -9 -11 -27 20 -36 19 -6 22 -4 22 18 0 26 -10 30
-42 18z"/>
<path d="M2155 7110 c-3 -5 -1 -10 4 -10 6 0 11 5 11 10 0 6 -2 10 -4 10 -3 0
-8 -4 -11 -10z"/>
<path d="M3394 7095 c-18 -14 -17 -14 15 -15 29 0 32 2 21 15 -15 18 -12 18
-36 0z"/>
<path d="M3302 7085 c-94 -22 -85 -42 13 -29 59 8 65 11 53 25 -11 15 -19 15
-66 4z"/>
<path d="M4010 7090 c0 -5 9 -10 21 -10 11 0 17 5 14 10 -3 6 -13 10 -21 10
-8 0 -14 -4 -14 -10z"/>
<path d="M4225 7090 c-3 -5 -1 -10 4 -10 6 0 11 5 11 10 0 6 -2 10 -4 10 -3 0
-8 -4 -11 -10z"/>
<path d="M1580 7082 c0 -5 9 -17 20 -27 19 -17 19 -17 7 9 -12 25 -27 35 -27
18z"/>
<path d="M2015 7080 c3 -5 11 -10 16 -10 6 0 7 5 4 10 -3 6 -11 10 -16 10 -6
0 -7 -4 -4 -10z"/>
<path d="M2070 7076 c0 -9 5 -16 10 -16 6 0 10 4 10 9 0 6 -4 13 -10 16 -5 3
-10 -1 -10 -9z"/>
<path d="M4088 7083 c6 -2 18 -2 25 0 6 3 1 5 -13 5 -14 0 -19 -2 -12 -5z"/>
<path d="M1389 7061 c-17 -14 -21 -24 -15 -45 10 -41 66 -91 122 -110 43 -14
55 -14 88 -3 l38 13 -52 13 c-45 12 -53 17 -66 51 -9 21 -22 41 -30 44 -18 7
-18 1 2 -29 15 -23 15 -25 -2 -32 -13 -5 -27 4 -51 32 -42 49 -42 59 2 52 41
-7 43 -5 11 17 -23 14 -26 14 -47 -3z"/>
<path d="M2000 7059 c0 -5 11 -9 25 -9 14 0 25 2 25 4 0 2 -11 6 -25 8 -14 3
-25 1 -25 -3z"/>
<path d="M4441 7007 c2 -1 12 -9 22 -16 15 -12 17 -12 11 3 -3 9 -13 16 -22
16 -8 0 -13 -1 -11 -3z"/>
<path d="M2380 6970 c-6 -11 -25 -24 -43 -29 -30 -9 -29 -9 20 -10 43 -1 54 3
63 19 6 11 8 25 5 30 -10 16 -34 11 -45 -10z"/>
<path d="M4495 6950 c10 -11 23 -20 29 -19 6 0 6 3 -1 6 -7 2 -13 11 -13 19 0
8 -7 14 -17 14 -14 0 -14 -2 2 -20z"/>
<path d="M1615 6940 c3 -5 8 -10 11 -10 2 0 4 5 4 10 0 6 -5 10 -11 10 -5 0
-7 -4 -4 -10z"/>
<path d="M3040 6930 c0 -15 5 -20 18 -18 9 2 17 10 17 18 0 8 -8 16 -17 18
-13 2 -18 -3 -18 -18z"/>
<path d="M2072 6908 c-6 -14 -16 -29 -21 -33 -14 -8 -14 -25 -1 -25 6 0 10 5
10 12 0 6 7 19 16 29 9 10 14 24 11 31 -3 8 -9 3 -15 -14z"/>
<path d="M4370 6903 c19 -3 42 -10 50 -18 24 -20 60 -29 60 -13 0 16 -68 39
-112 36 l-33 -1 35 -4z"/>
<path d="M4544 6901 c12 -18 -14 -42 -37 -35 -16 5 -19 3 -14 -15 3 -14 -1
-22 -15 -27 -11 -3 -17 -12 -14 -20 3 -8 1 -14 -4 -14 -6 0 -10 5 -10 10 0 6
-7 10 -16 10 -9 0 -14 -6 -11 -12 10 -30 134 3 143 38 8 32 1 67 -15 72 -9 3
-11 0 -7 -7z"/>
<path d="M4300 6881 c-24 -46 -6 -67 60 -75 25 -3 36 -2 25 2 -47 17 -68 40
-61 66 8 31 -9 35 -24 7z"/>
<path d="M2935 6880 c-3 -5 -1 -10 4 -10 6 0 11 5 11 10 0 6 -2 10 -4 10 -3 0
-8 -4 -11 -10z"/>
<path d="M1990 6866 c0 -9 5 -16 10 -16 6 0 10 4 10 9 0 6 -4 13 -10 16 -5 3
-10 -1 -10 -9z"/>
<path d="M1665 6850 c3 -5 8 -10 11 -10 2 0 4 5 4 10 0 6 -5 10 -11 10 -5 0
-7 -4 -4 -10z"/>
<path d="M2845 6844 c-6 -6 -21 -15 -34 -19 -16 -5 -20 -10 -13 -17 6 -6 19
-7 29 -3 10 4 23 9 28 11 31 7 65 25 65 33 0 13 -60 9 -75 -5z"/>
<path d="M1710 6785 c0 -15 4 -24 10 -20 6 3 10 12 10 20 0 8 -4 17 -10 20 -6
4 -10 -5 -10 -20z"/>
<path d="M2513 6762 c-3 -14 -24 -28 -64 -42 -62 -24 -83 -40 -52 -40 22 -1
53 -23 53 -39 0 -7 -4 -10 -9 -6 -5 3 -12 1 -16 -5 -4 -6 -10 -8 -15 -5 -5 3
-11 1 -15 -5 -3 -5 -3 -10 2 -10 4 -1 32 -3 60 -6 44 -5 54 -3 60 11 4 12 -1
23 -16 34 -17 13 -20 23 -15 49 4 21 12 32 24 32 19 0 34 36 18 46 -5 3 -12
-3 -15 -14z"/>
<path d="M1640 6730 c0 -5 5 -10 10 -10 6 0 10 5 10 10 0 6 -4 10 -10 10 -5 0
-10 -4 -10 -10z"/>
<path d="M1597 6703 c-16 -15 -6 -33 16 -29 28 4 37 36 9 36 -10 0 -22 -3 -25
-7z"/>
<path d="M4423 6685 c-8 -23 1 -27 32 -15 16 6 32 7 39 2 15 -12 76 -23 76
-14 0 11 -82 42 -113 42 -16 0 -30 -7 -34 -15z"/>
<path d="M2870 6654 c0 -20 17 -44 32 -44 14 0 8 20 -12 42 -19 21 -20 21 -20
2z"/>
<path d="M1711 6603 c0 -10 4 -27 9 -38 7 -18 9 -18 15 -3 4 9 5 25 3 34 -4
24 -28 30 -27 7z"/>
<path d="M3856 6605 c4 -8 8 -15 10 -15 2 0 4 7 4 15 0 8 -4 15 -10 15 -5 0
-7 -7 -4 -15z"/>
<path d="M4622 6595 c6 -14 17 -25 25 -25 18 0 16 37 -3 44 -28 11 -34 6 -22
-19z"/>
<path d="M2896 6556 c-14 -27 -26 -35 -57 -40 -31 -5 -40 -11 -45 -33 -6 -22
-1 -32 25 -55 17 -15 38 -28 46 -28 8 0 15 -4 15 -9 0 -13 62 -20 83 -9 26 13
21 33 -19 71 -36 33 -36 34 -23 76 16 55 0 73 -25 27z m-3 -100 c21 -17 23
-40 1 -32 -9 3 -19 6 -22 6 -4 0 -13 9 -20 20 -10 17 -10 20 5 20 10 0 26 -7
36 -14z"/>
<path d="M1658 6563 c-27 -7 -22 -23 7 -23 16 0 25 6 25 15 0 15 -2 16 -32 8z"/>
<path d="M4608 6549 c-25 -14 -22 -38 6 -51 29 -13 61 -4 49 14 -4 7 -6 21 -5
31 4 19 -22 23 -50 6z"/>
<path d="M3881 6524 c-1 -32 -30 -83 -31 -54 0 20 -35 41 -56 33 -14 -5 -13
-8 6 -18 15 -8 19 -14 11 -19 -7 -4 -18 -3 -25 3 -7 6 -16 8 -19 4 -4 -3 -7 1
-7 10 0 24 -17 21 -23 -3 -3 -11 -1 -20 4 -20 5 0 9 -9 9 -19 0 -40 113 -56
143 -21 17 20 17 28 -2 100 l-9 35 -1 -31z"/>
<path d="M2235 6530 c-16 -26 26 -140 52 -140 10 0 13 6 9 16 -3 9 -6 18 -6
20 0 2 -7 4 -15 4 -15 0 -19 23 -15 83 1 27 -13 37 -25 17z"/>
<path d="M2410 6526 c0 -8 5 -18 10 -21 6 -3 10 3 10 14 0 12 -4 21 -10 21 -5
0 -10 -6 -10 -14z"/>
<path d="M2430 6473 c0 -13 5 -23 10 -23 13 0 13 11 0 30 -8 12 -10 11 -10 -7z"/>
<path d="M4670 6482 c0 -4 6 -14 12 -20 10 -10 10 -17 0 -32 -6 -11 -12 -22
-12 -25 0 -11 30 -4 45 11 25 25 3 73 -32 74 -7 0 -13 -4 -13 -8z"/>
<path d="M1810 6445 c-13 -14 -35 -25 -49 -26 -26 0 -26 -1 -4 -11 31 -15 90
-2 96 22 9 34 -17 43 -43 15z"/>
<path d="M1705 6430 c4 -6 11 -8 16 -5 14 9 11 15 -7 15 -8 0 -12 -5 -9 -10z"/>
<path d="M1520 6399 c0 -11 5 -17 10 -14 6 3 10 13 10 21 0 8 -4 14 -10 14 -5
0 -10 -9 -10 -21z"/>
<path d="M2464 6409 c-3 -6 -1 -16 5 -22 8 -8 11 -5 11 11 0 24 -5 28 -16 11z"/>
<path d="M4598 6398 c-39 -14 -35 -29 4 -21 39 8 71 34 41 32 -10 0 -30 -5
-45 -11z"/>
<path d="M2600 6383 c-19 -10 -36 -21 -38 -25 -4 -8 -54 12 -63 25 -4 5 -13 0
-20 -10 -8 -11 -22 -22 -31 -26 -27 -10 -22 -26 10 -33 15 -3 37 -9 49 -14 18
-7 25 -5 33 10 9 17 30 28 64 34 45 8 75 28 76 49 0 13 -44 7 -80 -10z"/>
<path d="M2340 6340 c0 -5 12 -10 28 -10 21 0 24 2 12 10 -20 13 -40 13 -40 0z"/>
<path d="M3960 6340 c0 -5 5 -10 10 -10 6 0 10 5 10 10 0 6 -4 10 -10 10 -5 0
-10 -4 -10 -10z"/>
<path d="M3230 6327 c0 -9 71 -79 75 -75 11 11 -32 73 -52 76 -13 2 -23 1 -23
-1z"/>
<path d="M4014 6263 c-3 -12 -16 -24 -27 -27 -20 -5 -94 -65 -86 -69 2 -1 19
-12 37 -25 23 -16 37 -20 49 -14 14 9 14 10 -5 16 -34 11 -26 41 21 80 34 28
40 37 29 48 -10 10 -14 9 -18 -9z"/>
<path d="M3066 6231 c-4 -5 3 -15 15 -21 24 -13 53 -36 86 -68 33 -31 28 -66
-11 -70 -23 -3 -38 5 -73 40 -40 39 -44 47 -40 81 6 42 -9 49 -36 19 -13 -15
-15 -25 -7 -52 5 -18 7 -50 4 -69 -5 -29 -1 -40 18 -58 38 -36 158 -62 158
-34 0 4 28 6 63 5 35 -2 68 1 74 4 6 4 20 30 31 57 15 40 17 59 10 93 -5 23
-13 40 -18 37 -5 -3 -10 4 -12 15 -2 12 -7 17 -15 12 -8 -5 -6 -18 8 -46 24
-51 24 -77 -2 -110 -15 -19 -30 -26 -54 -26 -42 0 -48 9 -47 74 0 48 -2 54
-33 75 -19 12 -39 20 -44 16 -6 -3 -11 -2 -11 3 0 5 -8 12 -17 16 -10 3 -23 8
-30 12 -6 3 -14 1 -17 -5z"/>
<path d="M1935 6216 c-15 -11 -17 -18 -9 -26 8 -8 14 -7 23 4 20 24 9 39 -14
22z"/>
<path d="M1777 6189 c-9 -12 -22 -19 -30 -16 -23 9 -41 -8 -23 -22 20 -17 50
-6 66 24 17 32 7 43 -13 14z"/>
<path d="M4000 6114 c0 -3 7 -12 15 -20 23 -23 19 -30 -33 -52 -49 -21 -90
-71 -65 -79 7 -2 9 -11 6 -19 -3 -9 0 -27 8 -40 10 -20 11 -29 0 -45 -15 -24
1 -51 25 -42 9 3 26 0 39 -7 30 -16 55 -7 55 20 0 11 5 20 10 20 6 0 10 5 10
10 0 6 -16 10 -36 10 -49 0 -96 49 -84 90 12 43 30 71 41 64 5 -3 21 2 36 11
17 12 28 14 36 6 13 -13 47 4 47 23 0 7 -22 23 -49 35 -53 22 -61 24 -61 15z"/>
<path d="M4922 5945 c-7 -14 -12 -32 -12 -40 0 -7 -4 -15 -9 -17 -18 -6 -16
-42 2 -46 16 -3 18 0 12 19 -6 17 -4 21 8 16 11 -4 17 1 19 16 4 29 34 34 41
7 7 -26 24 -26 32 1 5 14 0 28 -16 45 -30 32 -63 31 -77 -1z"/>
<path d="M1845 5910 c-3 -5 -2 -10 4 -10 5 0 13 5 16 10 3 6 2 10 -4 10 -5 0
-13 -4 -16 -10z"/>
<path d="M3321 5903 c7 -10 20 -24 28 -30 18 -15 91 -17 91 -3 0 6 11 10 25
10 14 0 25 -4 25 -9 0 -5 12 -11 27 -13 25 -3 47 -28 24 -28 -17 0 -81 -61
-75 -71 10 -16 24 -9 59 27 37 37 45 73 21 93 -7 6 -42 12 -76 12 -35 1 -78 7
-96 15 -18 8 -41 14 -50 14 -14 0 -15 -3 -3 -17z"/>
<path d="M4164 5905 c-4 -8 -14 -15 -25 -15 -10 0 -23 -10 -30 -22 -10 -19 -9
-20 7 -13 11 4 31 10 47 13 27 4 52 33 40 46 -11 11 -34 6 -39 -9z"/>
<path d="M4760 5881 c0 -18 18 -21 30 -6 10 13 9 15 -9 15 -11 0 -21 -4 -21
-9z"/>
<path d="M2010 5860 c0 -5 5 -10 11 -10 5 0 7 5 4 10 -3 6 -8 10 -11 10 -2 0
-4 -4 -4 -10z"/>
<path d="M4806 5861 c-4 -5 -2 -12 4 -16 5 -3 10 -4 10 0 0 3 9 1 19 -4 15 -8
20 -7 25 5 5 12 2 15 -10 10 -9 -4 -22 -2 -29 4 -9 7 -15 7 -19 1z"/>
<path d="M1100 5790 c0 -5 5 -10 10 -10 6 0 10 5 10 10 0 6 -4 10 -10 10 -5 0
-10 -4 -10 -10z"/>
<path d="M2027 5783 c-13 -13 -19 -14 -31 -4 -8 7 -25 11 -38 9 -22 -4 -22 -5
5 -16 40 -17 74 -15 81 4 9 24 3 26 -17 7z"/>
<path d="M5020 5795 c0 -3 9 -15 20 -27 11 -12 20 -17 20 -11 0 7 -7 19 -16
27 -16 17 -24 20 -24 11z"/>
<path d="M5068 5723 c15 -30 -1 -62 -43 -87 l-40 -24 47 0 c42 0 48 3 56 26
12 37 3 102 -14 102 -11 0 -12 -5 -6 -17z"/>
<path d="M1087 5683 c-20 -20 -37 -41 -37 -47 1 -6 12 -24 26 -41 l26 -30 -7
33 c-5 26 -2 40 19 67 48 62 29 75 -27 18z"/>
<path d="M3600 5636 c0 -9 5 -16 10 -16 6 0 10 4 10 9 0 6 -4 13 -10 16 -5 3
-10 -1 -10 -9z"/>
<path d="M1977 5625 c-6 -15 57 -75 80 -75 28 0 22 22 -11 35 -20 9 -35 19
-35 23 5 32 -23 46 -34 17z"/>
<path d="M2100 5601 c0 -5 5 -13 10 -16 6 -3 10 -2 10 4 0 5 -4 13 -10 16 -5
3 -10 2 -10 -4z"/>
<path d="M3620 5585 c0 -8 5 -15 10 -15 6 0 10 7 10 15 0 8 -4 15 -10 15 -5 0
-10 -7 -10 -15z"/>
<path d="M4917 5593 c-16 -15 -5 -51 21 -69 34 -26 79 -38 87 -23 9 14 3 19
-28 21 -24 2 -37 17 -51 61 -6 18 -18 22 -29 10z"/>
<path d="M5118 5580 c12 -11 28 -20 37 -20 9 0 14 -4 10 -9 -3 -5 -1 -12 5
-16 5 -3 10 0 10 9 0 8 -15 24 -34 35 -42 27 -56 27 -28 1z"/>
<path d="M2990 5555 c0 -8 -8 -15 -17 -16 -15 0 -15 -2 2 -8 22 -9 55 7 55 26
0 7 -9 13 -20 13 -11 0 -20 -7 -20 -15z"/>
<path d="M3454 5545 c-4 -8 -3 -27 0 -43 l6 -27 -15 25 c-16 25 -16 25 -9 -10
4 -19 16 -43 27 -52 25 -23 85 -34 100 -19 7 7 14 7 23 0 10 -8 18 -7 29 4 8
9 15 19 15 23 0 4 9 18 21 30 23 25 23 25 -48 39 -36 7 -39 4 -21 -24 20 -33
4 -51 -43 -48 -36 2 -45 8 -60 36 -17 32 -16 61 2 61 5 0 9 5 9 10 0 16 -30
12 -36 -5z"/>
<path d="M3500 5552 c0 -11 38 -42 51 -42 4 0 5 9 2 20 -3 11 -9 20 -13 20 -5
0 -15 3 -24 6 -9 3 -16 1 -16 -4z"/>
<path d="M1160 5531 c0 -12 -3 -21 -7 -21 -5 0 -19 -9 -33 -20 l-25 -20 35 7
c19 3 37 10 38 15 2 4 10 8 18 8 8 0 14 4 14 10 0 5 -7 7 -15 4 -11 -4 -13 -2
-9 9 3 8 1 18 -5 22 -7 3 -11 -2 -11 -14z"/>
<path d="M2136 5525 c-3 -9 0 -15 9 -15 8 0 15 7 15 15 0 8 -4 15 -9 15 -5 0
-11 -7 -15 -15z"/>
<path d="M5125 5500 c-17 -19 -17 -20 0 -20 10 0 15 3 12 7 -4 3 -2 12 4 20
18 21 4 15 -16 -7z"/>
<path d="M5170 5510 c-8 -5 -11 -12 -7 -16 4 -4 13 -2 19 4 15 15 7 24 -12 12z"/>
<path d="M1814 5489 c-3 -5 25 -9 62 -9 37 0 65 2 63 4 -10 9 -120 13 -125 5z"/>
<path d="M2020 5489 c0 -5 18 -9 40 -9 22 0 40 4 40 9 0 4 -18 8 -40 8 -22 0
-40 -4 -40 -8z"/>
<path d="M2875 5490 c-3 -5 3 -10 14 -10 12 0 21 5 21 10 0 6 -6 10 -14 10 -8
0 -18 -4 -21 -10z"/>
<path d="M5045 5490 c-4 -6 5 -10 20 -10 15 0 24 4 20 10 -3 6 -12 10 -20 10
-8 0 -17 -4 -20 -10z"/>
<path d="M2785 5471 c-16 -4 -25 -10 -19 -13 6 -4 24 -4 39 1 37 9 20 19 -20
12z"/>
<path d="M2713 5463 c-23 -8 -13 -20 12 -15 14 2 25 8 25 11 0 8 -18 10 -37 4z"/>
<path d="M2665 5450 c3 -5 8 -10 11 -10 2 0 4 5 4 10 0 6 -5 10 -11 10 -5 0
-7 -4 -4 -10z"/>
<path d="M4190 5433 c0 -13 49 -89 50 -77 0 20 -30 84 -40 84 -6 0 -10 -3 -10
-7z"/>
<path d="M1067 5394 c-12 -12 -8 -41 7 -53 11 -9 20 -6 42 13 27 23 27 25 6
19 -15 -4 -27 0 -35 11 -7 10 -16 14 -20 10z"/>
<path d="M1267 5349 c4 -13 8 -18 11 -10 2 7 -1 18 -6 23 -8 8 -9 4 -5 -13z"/>
<path d="M3130 5350 c0 -6 7 -10 15 -10 8 0 15 2 15 4 0 2 -7 6 -15 10 -8 3
-15 1 -15 -4z"/>
<path d="M3507 5344 c-10 -10 -8 -66 2 -82 4 -8 19 -19 32 -25 13 -7 26 -23
29 -37 7 -29 23 -30 90 -5 24 9 56 17 71 17 14 1 34 7 45 15 31 22 -1 35 -71
28 -153 -15 -142 -15 -160 11 -9 14 -15 37 -13 51 3 26 -11 40 -25 27z"/>
<path d="M1295 5310 c3 -5 8 -10 11 -10 2 0 4 5 4 10 0 6 -5 10 -11 10 -5 0
-7 -4 -4 -10z"/>
<path d="M3162 5300 c0 -14 2 -19 5 -12 2 6 2 18 0 25 -3 6 -5 1 -5 -13z"/>
<path d="M4143 5298 c-12 -6 -24 -19 -26 -30 -5 -17 -2 -19 16 -13 12 4 30 7
40 6 20 0 23 22 5 37 -9 6 -20 6 -35 0z"/>
<path d="M4240 5301 c0 -5 -9 -11 -21 -13 -21 -3 -20 -4 6 -32 32 -35 46 -68
35 -86 -14 -22 -64 -15 -102 13 -58 45 -81 27 -33 -26 23 -24 36 -30 61 -26 4
0 10 -5 15 -12 6 -11 18 -8 56 11 26 14 51 26 56 28 4 2 7 -5 7 -15 0 -11 8
-28 18 -39 9 -10 25 -31 34 -46 21 -33 11 -44 -58 -61 -59 -15 -71 -37 -20
-37 20 0 36 5 36 10 0 6 18 10 40 10 35 0 40 -3 46 -27 18 -74 54 -104 84 -68
9 11 8 24 -6 61 -17 45 -17 47 0 60 21 15 13 34 -13 34 -26 0 -152 154 -195
238 -15 29 -46 45 -46 23z"/>
<path d="M1165 5261 c-9 -16 18 -23 46 -12 16 6 18 10 7 10 -9 1 -23 4 -31 7
-8 3 -18 1 -22 -5z"/>
<path d="M2990 5256 c0 -7 7 -19 15 -26 9 -7 14 -24 13 -39 -3 -22 1 -26 27
-29 19 -3 33 2 42 14 18 25 16 31 -9 38 -13 3 -35 17 -50 31 -31 29 -38 31
-38 11z"/>
<path d="M2863 5226 c1 -23 6 -36 18 -39 14 -4 15 0 6 34 -12 48 -25 51 -24 5z"/>
<path d="M2910 5192 c0 -12 7 -25 15 -29 24 -9 25 0 5 27 l-20 25 0 -23z"/>
<path d="M2980 5175 c0 -8 5 -15 10 -15 6 0 10 7 10 15 0 8 -4 15 -10 15 -5 0
-10 -7 -10 -15z"/>
<path d="M4663 5097 c-21 -9 -38 -35 -29 -45 10 -9 74 9 80 23 8 21 -24 35
-51 22z"/>
<path d="M1237 5060 c-26 -27 -27 -31 -11 -37 10 -4 19 -2 22 5 2 7 11 12 21
12 20 0 41 19 41 37 0 24 -45 13 -73 -17z"/>
<path d="M4565 5040 c-3 -5 1 -10 10 -10 9 0 13 5 10 10 -3 6 -8 10 -10 10 -2
0 -7 -4 -10 -10z"/>
<path d="M1045 5010 c3 -5 8 -10 11 -10 2 0 4 5 4 10 0 6 -5 10 -11 10 -5 0
-7 -4 -4 -10z"/>
<path d="M1954 4985 c-17 -27 -13 -56 8 -54 9 0 9 2 2 5 -15 6 -6 41 12 48 8
3 14 10 14 16 0 18 -19 10 -36 -15z"/>
<path d="M3120 4991 c13 -26 31 -36 39 -23 3 6 20 12 36 14 l30 4 -28 12 c-16
7 -42 12 -58 12 -26 0 -29 -2 -19 -19z"/>
<path d="M3010 4990 c0 -5 5 -10 10 -10 6 0 10 5 10 10 0 6 -4 10 -10 10 -5 0
-10 -4 -10 -10z"/>
<path d="M2200 4980 c0 -5 9 -14 20 -20 22 -12 27 -1 8 18 -14 14 -28 16 -28
2z"/>
<path d="M2958 4983 c7 -3 16 -2 19 1 4 3 -2 6 -13 5 -11 0 -14 -3 -6 -6z"/>
<path d="M3255 4960 c3 -5 8 -10 11 -10 2 0 4 5 4 10 0 6 -5 10 -11 10 -5 0
-7 -4 -4 -10z"/>
<path d="M2325 4934 c-15 -8 -38 -14 -52 -14 -14 0 -22 -4 -18 -11 4 -5 -1
-19 -10 -29 -10 -11 -15 -26 -12 -35 5 -10 0 -15 -13 -15 -10 0 -22 -4 -25
-10 -9 -14 -92 -13 -97 2 -2 6 -18 13 -34 14 -28 2 -30 0 -26 -27 4 -27 7 -29
53 -29 40 0 50 -4 60 -22 17 -33 17 -33 36 -12 40 43 113 72 113 44 0 -25 31
-19 66 14 l38 35 -28 11 -29 11 21 19 c26 25 48 25 61 3 16 -29 36 -2 24 34
-9 25 -15 28 -56 29 -25 1 -58 -4 -72 -12z"/>
<path d="M3145 4940 c-12 -4 -27 -15 -34 -24 -12 -14 -12 -16 2 -10 17 6 46
-7 71 -32 14 -13 16 -13 16 -1 0 8 -7 18 -16 21 -8 3 -13 9 -11 13 3 5 2 15
-2 24 -4 12 -12 14 -26 9z"/>
<path d="M2803 4914 c-4 -11 3 -23 18 -35 28 -21 33 -18 25 14 -7 30 -34 43
-43 21z"/>
<path d="M1952 4902 c5 -23 28 -27 28 -4 0 10 -7 19 -15 19 -9 0 -15 -7 -13
-15z"/>
<path d="M5581 4879 c-11 -12 -23 -31 -27 -41 -8 -26 -54 -35 -69 -14 -17 22
-48 21 -43 -1 2 -10 11 -17 20 -15 8 1 21 -5 28 -13 7 -9 8 -15 2 -15 -6 0
-12 6 -15 13 -2 6 -8 8 -13 4 -11 -11 47 -59 64 -52 7 3 16 5 18 5 2 0 4 7 4
16 0 9 9 27 20 41 11 14 20 32 20 40 0 16 47 36 68 28 8 -3 12 0 10 7 -8 24
-64 21 -87 -3z"/>
<path d="M3227 4876 c-7 -18 0 -23 33 -22 34 1 33 30 -1 34 -17 2 -29 -3 -32
-12z"/>
<path d="M1960 4862 c0 -5 7 -15 15 -22 8 -7 15 -8 15 -2 0 5 -7 15 -15 22 -8
7 -15 8 -15 2z"/>
<path d="M2888 4863 c7 -3 16 -2 19 1 4 3 -2 6 -13 5 -11 0 -14 -3 -6 -6z"/>
<path d="M2970 4860 c8 -5 20 -10 25 -10 6 0 3 5 -5 10 -8 5 -19 10 -25 10 -5
0 -3 -5 5 -10z"/>
<path d="M1273 4853 c-14 -5 -18 -33 -5 -33 4 0 13 9 20 20 12 20 8 23 -15 13z"/>
<path d="M5657 4840 c3 -11 9 -23 14 -25 4 -3 6 -12 3 -19 -3 -8 -1 -17 4 -20
6 -3 12 0 15 8 9 23 -8 71 -25 74 -12 2 -15 -2 -11 -18z"/>
<path d="M5187 4843 c-23 -6 -16 -27 10 -31 30 -4 48 -87 21 -90 -7 -1 -34 -4
-61 -8 -38 -5 -51 -3 -68 12 -11 10 -17 24 -14 32 9 24 -4 31 -36 20 -22 -8
-34 -7 -42 1 -14 14 -47 15 -47 1 0 -6 7 -13 15 -16 10 -4 12 -15 8 -34 l-5
-29 36 11 c32 10 40 9 65 -9 15 -12 44 -26 63 -31 33 -9 39 -7 74 24 22 18 43
34 48 34 4 0 5 15 2 33 -3 17 -7 40 -9 50 -2 16 -25 38 -37 36 -3 -1 -13 -3
-23 -6z"/>
<path d="M5137 4824 c3 -7 9 -14 14 -14 14 0 10 17 -5 23 -10 4 -13 1 -9 -9z"/>
<path d="M1225 4778 c-34 -20 -57 -46 -47 -52 17 -10 42 5 58 35 16 33 16 33
-11 17z"/>
<path d="M1352 4774 c4 -21 22 -23 26 -1 2 10 -3 17 -13 17 -10 0 -15 -6 -13
-16z"/>
<path d="M5660 4750 c0 -13 7 -20 20 -20 24 0 27 25 4 34 -23 9 -24 8 -24 -14z"/>
<path d="M3249 4706 c-15 -32 -15 -37 3 -64 16 -26 61 -52 89 -52 5 0 9 11 9
25 0 19 -8 28 -34 39 -42 17 -52 50 -23 71 l21 15 -25 0 c-19 0 -29 -8 -40
-34z"/>
<path d="M4875 4680 c-27 -16 -60 -29 -72 -30 -25 0 -56 -27 -50 -44 2 -6 25
-14 51 -18 44 -6 76 -22 76 -37 0 -4 -17 -12 -37 -17 -31 -7 -38 -14 -38 -34
-1 -36 -15 -71 -26 -65 -17 11 -9 -12 10 -29 11 -10 24 -15 30 -12 5 4 12 -2
16 -13 5 -18 65 -48 65 -33 0 4 4 2 8 -3 14 -20 78 -47 102 -44 24 4 24 4 -10
26 -19 11 -58 29 -85 38 -50 16 -85 49 -68 66 11 10 99 13 142 4 28 -7 33 -5
30 10 -4 15 -26 27 -93 49 -18 6 -17 9 8 35 l28 29 -23 16 c-13 9 -31 16 -40
16 -42 0 -49 57 -9 67 11 3 20 9 20 14 0 5 9 9 20 9 11 0 20 7 20 15 0 21 -18
18 -75 -15z"/>
<path d="M4014 4659 c-4 -7 1 -16 11 -21 9 -6 31 -23 49 -38 29 -27 30 -30 19
-60 -11 -31 -11 -31 15 -30 15 1 32 2 37 1 14 -1 35 -59 35 -94 0 -37 37 -38
46 -1 5 19 -1 34 -25 64 -17 21 -31 42 -31 45 0 9 -92 95 -101 95 -4 0 -10 11
-13 25 -7 26 -30 33 -42 14z"/>
<path d="M6016 4645 c4 -8 15 -15 26 -15 17 0 18 3 8 15 -7 8 -19 15 -26 15
-8 0 -11 -6 -8 -15z"/>
<path d="M1375 4630 c-8 -13 -1 -24 14 -19 6 3 7 10 2 18 -6 10 -10 10 -16 1z"/>
<path d="M5920 4632 c0 -5 -17 -17 -39 -26 -30 -14 -43 -15 -59 -7 -26 14 -32
14 -32 -1 -1 -31 -33 -50 -82 -50 -9 1 -24 -8 -34 -19 -16 -18 -16 -19 2 -19
22 0 46 -33 38 -53 -4 -10 -19 -13 -57 -9 -29 2 -56 8 -61 13 -6 5 -14 9 -20
9 -12 0 23 -33 50 -48 11 -6 33 -9 50 -6 16 2 38 5 49 7 16 2 20 10 23 50 1
27 8 54 15 61 15 16 90 12 145 -7 23 -8 43 -12 46 -10 10 10 -6 31 -20 26 -8
-3 -14 0 -14 6 0 6 -7 11 -15 11 -26 0 -16 29 14 45 38 19 48 35 22 35 -12 0
-21 -4 -21 -8z"/>
<path d="M2374 4622 c-18 -12 -23 -61 -8 -73 10 -8 14 -8 14 0 0 6 7 11 15 11
9 0 15 9 15 25 0 14 0 28 1 33 0 10 -24 13 -37 4z"/>
<path d="M3393 4606 c4 -9 -1 -17 -11 -19 -12 -3 -11 -5 6 -6 16 -1 22 5 22
19 0 11 -5 20 -11 20 -6 0 -9 -6 -6 -14z"/>
<path d="M6051 4589 c-7 -14 -28 -32 -47 -39 -19 -8 -34 -21 -34 -29 0 -14 1
-14 10 -1 8 12 12 12 18 2 7 -10 14 -11 36 -1 27 13 41 43 34 76 -4 15 -6 14
-17 -8z"/>
<path d="M3720 4591 c0 -5 5 -13 10 -16 6 -3 10 -2 10 4 0 5 -4 13 -10 16 -5
3 -10 2 -10 -4z"/>
<path d="M1258 4563 c7 -3 16 -2 19 1 4 3 -2 6 -13 5 -11 0 -14 -3 -6 -6z"/>
<path d="M2587 4526 c-4 -10 -5 -21 -2 -24 9 -9 17 6 13 25 -3 17 -4 17 -11
-1z"/>
<path d="M3770 4525 c0 -8 7 -15 16 -15 14 0 14 3 4 15 -7 8 -14 15 -16 15 -2
0 -4 -7 -4 -15z"/>
<path d="M2427 4523 c-4 -3 -7 -12 -7 -20 0 -15 26 -18 34 -4 7 11 -18 33 -27
24z"/>
<path d="M1350 4490 c0 -5 5 -10 10 -10 6 0 10 5 10 10 0 6 -4 10 -10 10 -5 0
-10 -4 -10 -10z"/>
<path d="M2535 4490 c3 -5 8 -10 11 -10 2 0 4 5 4 10 0 6 -5 10 -11 10 -5 0
-7 -4 -4 -10z"/>
<path d="M3806 4492 c-3 -5 7 -23 22 -40 15 -17 43 -49 62 -71 37 -43 50 -50
50 -26 0 8 -13 24 -29 36 -40 30 -31 56 22 64 53 9 79 23 71 37 -5 7 -12 5
-21 -7 -9 -14 -13 -15 -13 -4 0 10 -3 10 -8 2 -12 -20 -108 -19 -131 1 -10 9
-22 13 -25 8z"/>
<path d="M3480 4446 c0 -14 -4 -26 -10 -26 -5 0 -10 -5 -10 -12 0 -6 9 -3 20
7 22 20 26 40 10 50 -6 4 -10 -5 -10 -19z"/>
<path d="M1237 4399 c10 -36 113 -75 113 -42 0 10 -6 14 -20 10 -11 -3 -26 0
-33 7 -6 6 -24 19 -38 28 -26 16 -27 16 -22 -3z"/>
<path d="M3410 4380 c-8 -5 -12 -12 -9 -15 4 -3 12 1 19 10 14 17 11 19 -10 5z"/>
<path d="M3950 4332 c0 -11 69 -72 81 -72 22 0 6 33 -21 43 -16 6 -30 17 -30
24 0 7 -7 13 -15 13 -8 0 -15 -4 -15 -8z"/>
<path d="M3426 4323 c-3 -3 -3 -10 0 -14 7 -12 34 -11 34 0 0 11 -26 22 -34
14z"/>
<path d="M5830 4307 c0 -7 -15 -17 -32 -22 -34 -10 -48 -39 -30 -57 14 -14 52
8 52 31 0 11 7 21 15 25 17 6 21 36 5 36 -5 0 -10 -6 -10 -13z"/>
<path d="M3470 4299 c0 -7 8 -18 18 -25 16 -12 15 -13 -8 -14 -24 -1 -25 -1
-3 -10 12 -5 37 -6 56 -3 27 4 34 9 30 23 -3 10 -12 19 -21 19 -38 1 -52 5
-52 13 0 4 -4 8 -10 8 -5 0 -10 -5 -10 -11z"/>
<path d="M3401 4239 c-37 -23 -33 -39 11 -39 17 0 28 3 25 6 -3 4 -2 15 3 25
15 27 -2 30 -39 8z"/>
<path d="M1288 4206 c-19 -14 -24 -46 -8 -46 6 0 10 8 10 18 0 10 5 23 12 30
16 16 7 15 -14 -2z"/>
<path d="M5815 4205 c46 -33 47 -36 28 -50 -12 -9 -15 -17 -8 -24 13 -13 55
-4 84 19 l25 18 -40 19 c-21 11 -55 23 -74 26 -32 6 -34 6 -15 -8z"/>
<path d="M2978 4194 c-3 -3 1 -19 9 -35 8 -17 12 -41 9 -54 -7 -27 8 -35 18
-9 12 30 6 71 -12 87 -10 10 -21 15 -24 11z"/>
<path d="M5040 4160 c-20 -24 -41 -40 -54 -40 -52 0 -60 -46 -13 -76 65 -43
107 -39 52 4 -14 11 -25 26 -25 33 0 20 65 69 90 69 25 0 38 29 19 41 -24 15
-35 10 -69 -31z"/>
<path d="M2938 4183 c7 -3 16 -2 19 1 4 3 -2 6 -13 5 -11 0 -14 -3 -6 -6z"/>
<path d="M1388 4173 c-11 -3 -18 -14 -18 -29 0 -19 -5 -24 -25 -24 -14 0 -28
7 -31 15 -9 21 -24 19 -24 -4 0 -10 11 -26 25 -35 55 -36 120 -4 109 53 -4 17
-9 30 -13 30 -3 -1 -14 -3 -23 -6z"/>
<path d="M3485 4170 c3 -5 8 -10 11 -10 2 0 4 5 4 10 0 6 -5 10 -11 10 -5 0
-7 -4 -4 -10z"/>
<path d="M2788 4139 c-26 -15 -22 -26 11 -31 22 -3 31 0 34 13 8 30 -12 38
-45 18z"/>
<path d="M3586 4141 c-6 -10 43 -26 52 -16 7 7 2 11 -25 19 -12 4 -24 3 -27
-3z"/>
<path d="M3651 4127 c-1 -10 6 -20 14 -23 8 -4 15 -15 15 -25 0 -10 7 -19 15
-19 25 0 18 40 -9 50 -13 5 -26 15 -29 22 -4 8 -6 7 -6 -5z"/>
<path d="M2966 4065 c-3 -8 -1 -15 4 -15 13 0 22 18 11 24 -5 3 -11 -1 -15 -9z"/>
<path d="M2593 4058 c-31 -15 -29 -36 3 -49 30 -11 42 -5 27 13 -6 7 -9 21 -8
31 2 9 3 17 2 16 -1 0 -12 -5 -24 -11z"/>
<path d="M2648 4063 c7 -3 16 -2 19 1 4 3 -2 6 -13 5 -11 0 -14 -3 -6 -6z"/>
<path d="M2870 4047 c22 -23 70 -33 70 -15 0 8 -10 14 -22 15 -13 0 -32 4 -43
8 -18 7 -18 6 -5 -8z"/>
<path d="M3590 4051 c-69 -17 -98 -68 -32 -57 67 12 77 11 75 -1 -2 -7 6 -13
17 -13 11 0 20 5 20 11 0 5 -5 7 -10 4 -15 -9 -25 24 -11 38 26 26 1 33 -59
18z"/>
<path d="M4265 4030 c-10 -17 12 -37 25 -24 8 8 6 15 -4 23 -10 9 -16 9 -21 1z"/>
<path d="M5070 4009 c0 -5 4 -8 9 -4 6 3 13 0 18 -8 10 -16 135 -55 188 -59
30 -2 40 1 40 12 0 11 -12 15 -52 15 -36 0 -53 4 -53 13 0 6 -3 11 -7 10 -5
-1 -32 6 -62 15 -63 20 -81 21 -81 6z"/>
<path d="M4300 3986 c0 -9 5 -16 10 -16 6 0 10 4 10 9 0 6 -4 13 -10 16 -5 3
-10 -1 -10 -9z"/>
<path d="M6025 3980 c-10 -11 -24 -20 -32 -20 -7 0 -13 -7 -13 -15 0 -23 35
-18 70 11 24 20 28 29 18 35 -19 12 -23 11 -43 -11z"/>
<path d="M2650 3983 c8 -3 23 -14 34 -25 22 -20 36 -23 36 -8 0 6 -7 10 -15
10 -9 0 -18 7 -21 15 -4 8 -16 15 -28 14 -14 0 -16 -2 -6 -6z"/>
<path d="M4822 3978 c-16 -16 -15 -33 3 -48 12 -10 16 -8 25 15 15 39 -2 59
-28 33z"/>
<path d="M4326 3923 c8 -45 21 -73 34 -73 12 0 13 33 3 44 -5 4 -8 11 -8 14
-1 4 -4 17 -9 30 -12 37 -28 26 -20 -15z"/>
<path d="M3457 3943 c-10 -10 -8 -45 2 -39 11 7 21 46 12 46 -4 0 -11 -3 -14
-7z"/>
<path d="M3690 3936 c0 -19 -56 -50 -65 -36 -9 15 -32 12 -38 -4 -4 -9 6 -20
29 -31 19 -9 34 -22 34 -28 0 -19 -24 -67 -32 -67 -5 0 -8 -5 -8 -11 0 -8 4
-9 13 0 8 6 17 8 20 4 4 -3 17 2 28 13 l22 19 -7 -30 c-13 -54 -35 -67 -63
-40 -14 14 -17 14 -35 -2 -19 -17 -21 -16 -54 22 -19 22 -34 50 -34 63 0 24
-38 47 -54 31 -16 -15 13 -114 43 -148 64 -72 133 -85 196 -37 19 14 38 26 44
26 6 0 11 18 11 40 0 22 4 40 9 40 12 0 24 -37 16 -50 -3 -5 3 -10 15 -10 15
0 26 -11 36 -36 13 -31 17 -34 31 -23 32 27 -4 219 -41 219 -8 0 -21 7 -30 15
-8 8 -25 17 -38 19 -14 2 -22 9 -20 18 1 9 -5 21 -13 28 -12 10 -15 10 -15 -4z"/>
<path d="M1392 3923 c2 -13 15 -19 43 -21 39 -3 39 -3 21 17 -24 26 -69 29
-64 4z"/>
<path d="M895 3911 c-5 -16 -2 -28 9 -39 23 -24 32 -6 14 31 -15 31 -15 32
-23 8z"/>
<path d="M2730 3923 c0 -5 4 -13 9 -18 5 -6 11 -19 14 -30 3 -11 5 -5 4 14 -1
19 -8 36 -14 39 -7 2 -13 0 -13 -5z"/>
<path d="M5843 3901 c-25 -21 -30 -41 -10 -41 7 0 21 14 30 30 21 34 13 38
-20 11z"/>
<path d="M950 3854 c0 -20 27 -35 54 -30 34 6 48 15 43 29 -5 16 -97 16 -97 1z"/>
<path d="M1515 3860 c3 -5 8 -10 11 -10 2 0 4 5 4 10 0 6 -5 10 -11 10 -5 0
-7 -4 -4 -10z"/>
<path d="M1114 3849 c-9 -15 17 -42 30 -29 14 14 26 13 20 -3 -3 -10 4 -14 27
-15 17 0 29 1 28 2 -24 21 -100 53 -105 45z"/>
<path d="M2715 3850 c3 -5 8 -10 11 -10 2 0 4 5 4 10 0 6 -5 10 -11 10 -5 0
-7 -4 -4 -10z"/>
<path d="M1395 3840 c-10 -15 46 -83 58 -71 12 12 -20 54 -33 46 -5 -3 -6 4
-3 15 5 20 -11 28 -22 10z"/>
<path d="M1310 3823 c0 -10 4 -14 8 -8 4 6 11 13 16 18 5 4 2 7 -7 7 -10 0
-17 -8 -17 -17z"/>
<path d="M1578 3765 c-22 -28 -23 -45 -4 -45 22 0 37 25 29 48 -8 20 -8 19
-25 -3z"/>
<path d="M5960 3781 c0 -17 32 -34 65 -35 19 -1 37 -5 41 -9 12 -12 24 -8 24
8 0 8 -14 17 -35 21 -19 3 -38 10 -41 15 -7 12 -54 12 -54 0z"/>
<path d="M2659 3753 c18 -33 40 -58 41 -46 0 6 -4 15 -10 18 -5 3 -10 15 -10
26 0 10 -7 19 -15 19 -12 0 -13 -4 -6 -17z"/>
<path d="M6110 3735 c7 -8 23 -15 36 -15 14 0 24 -6 24 -14 0 -19 -38 -46 -56
-39 -8 3 -14 -1 -14 -10 0 -9 -8 -18 -17 -20 -15 -4 -14 -5 3 -6 11 0 25 4 31
10 7 7 26 13 43 14 59 5 97 65 41 65 -16 0 -31 6 -35 15 -3 9 -18 15 -37 15
-27 0 -30 -2 -19 -15z"/>
<path d="M4503 3690 c-14 -37 -5 -44 25 -21 15 11 21 23 16 34 -10 26 -28 20
-41 -13z"/>
<path d="M2202 3698 c2 -6 10 -14 16 -16 7 -2 10 2 6 12 -7 18 -28 22 -22 4z"/>
<path d="M2704 3677 c3 -10 6 -23 6 -28 0 -5 8 -9 18 -10 13 0 12 -2 -5 -9
-23 -10 -31 -44 -13 -55 6 -3 10 -16 10 -28 0 -17 3 -18 13 -9 6 7 12 23 13
35 1 12 4 29 7 37 4 9 -6 29 -24 50 -17 19 -28 27 -25 17z"/>
<path d="M2820 3665 c-20 -24 1 -38 28 -19 12 8 22 19 22 25 0 15 -36 10 -50
-6z"/>
<path d="M2254 3645 c5 -11 11 -28 13 -37 3 -10 9 -16 13 -13 12 7 1 42 -18
57 -14 11 -15 10 -8 -7z"/>
<path d="M4424 3615 c-5 -11 3 -26 19 -43 24 -23 27 -24 33 -8 4 10 2 21 -5
25 -7 4 -11 14 -9 21 4 20 -31 24 -38 5z"/>
<path d="M2665 3590 c-3 -5 1 -10 10 -10 9 0 13 5 10 10 -3 6 -8 10 -10 10 -2
0 -7 -4 -10 -10z"/>
<path d="M2300 3557 c0 -30 -5 -39 -22 -46 -13 -5 -34 -21 -47 -35 -21 -22
-23 -29 -12 -49 15 -29 53 -45 111 -49 39 -3 45 0 48 18 2 15 -7 29 -28 44
-28 20 -31 26 -25 59 4 24 1 47 -9 66 l-16 30 0 -38z"/>
<path d="M2580 3569 c0 -5 9 -9 20 -9 11 0 20 2 20 4 0 2 -9 6 -20 9 -11 3
-20 1 -20 -4z"/>
<path d="M3725 3529 c-9 -38 1 -50 14 -17 11 30 39 44 47 23 6 -16 59 -45 81
-45 18 0 16 13 -7 43 -17 22 -28 26 -75 26 -52 0 -54 -2 -60 -30z"/>
<path d="M4500 3545 c0 -8 10 -20 23 -26 12 -7 31 -23 42 -36 23 -26 47 -30
64 -9 17 20 -8 42 -58 50 -23 3 -41 10 -41 15 0 5 -7 11 -15 15 -9 3 -15 0
-15 -9z"/>
<path d="M5266 3491 c-9 -14 2 -35 26 -50 18 -11 20 -11 14 4 -3 9 -6 25 -6
36 0 19 -24 26 -34 10z"/>
<path d="M4533 3462 c-6 -4 -17 -20 -22 -36 -15 -38 7 -30 32 12 18 31 15 40
-10 24z"/>
<path d="M3730 3443 c0 -10 4 -24 9 -32 13 -21 24 5 11 29 -13 25 -20 26 -20
3z"/>
<path d="M6312 3433 c2 -10 14 -20 28 -22 25 -3 25 -3 6 18 -23 26 -39 27 -34
4z"/>
<path d="M1940 3410 c0 -6 -4 -8 -10 -5 -5 3 -7 0 -5 -7 7 -17 78 -11 72 6 -5
15 -57 21 -57 6z"/>
<path d="M5510 3406 c0 -10 9 -16 21 -16 24 0 21 23 -4 28 -10 2 -17 -3 -17
-12z"/>
<path d="M5330 3385 c0 -16 -8 -26 -22 -31 -30 -10 -34 -11 -58 -13 -21 -1
-28 -27 -8 -33 6 -2 35 0 63 5 52 10 115 -5 115 -26 0 -5 5 -5 11 -2 6 4 9 -2
7 -17 -2 -12 1 -24 7 -25 5 -1 12 -10 16 -20 7 -17 8 -17 8 0 1 28 -25 72 -54
91 l-27 18 21 14 c26 19 27 37 2 29 -10 -3 -25 0 -32 8 -8 7 -22 16 -31 20
-14 5 -18 1 -18 -18z"/>
<path d="M5467 3393 c-22 -6 -12 -23 14 -23 10 0 19 7 19 15 0 15 -2 16 -33 8z"/>
<path d="M1980 3373 c0 -5 4 -15 10 -23 5 -9 5 -19 -2 -27 -6 -8 -8 -16 -5
-19 10 -10 28 36 22 56 -6 19 -25 28 -25 13z"/>
<path d="M4522 3360 c0 -14 2 -19 5 -12 2 6 2 18 0 25 -3 6 -5 1 -5 -13z"/>
<path d="M6340 3355 c-7 -8 -18 -15 -25 -15 -7 0 -15 -7 -19 -15 -3 -10 1 -15
12 -15 9 0 27 -3 39 -6 19 -5 21 -2 21 30 0 39 -8 45 -28 21z"/>
<path d="M1763 3337 c-8 -14 6 -22 18 -10 6 6 18 9 25 6 8 -3 14 0 14 6 0 12
-49 11 -57 -2z"/>
<path d="M2814 3329 c-32 -36 9 -67 100 -76 66 -6 89 5 67 31 -20 24 -59 25
-74 2 -13 -19 -15 -19 -30 -4 -9 9 -22 18 -29 21 -10 4 -10 7 -1 17 10 11 18
11 38 2 21 -10 25 -9 25 3 0 8 -6 16 -12 17 -46 5 -71 2 -84 -13z"/>
<path d="M3854 3308 c1 -50 -16 -59 -66 -34 -30 16 -68 13 -68 -4 0 -8 48 -25
63 -22 4 1 17 -3 29 -9 16 -9 22 -8 29 2 6 10 9 11 9 2 0 -23 18 -13 34 19 9
17 16 44 16 60 0 23 -4 28 -23 28 -21 0 -24 -4 -23 -42z"/>
<path d="M4670 3339 c0 -5 5 -7 10 -4 6 3 10 8 10 11 0 2 -4 4 -10 4 -5 0 -10
-5 -10 -11z"/>
<path d="M4554 3315 c12 -49 56 -105 82 -105 12 0 25 6 27 13 3 7 6 5 6 -5 1
-13 9 -18 30 -18 17 0 33 5 36 10 3 6 -3 10 -15 10 -11 0 -32 8 -46 17 -22 14
-25 21 -19 50 6 31 -6 45 -20 23 -3 -5 -20 -10 -36 -10 -17 0 -28 4 -25 9 3 5
-2 15 -11 22 -15 13 -16 11 -9 -16z"/>
<path d="M4746 3315 c17 -26 34 -33 34 -14 0 14 -25 39 -40 39 -6 0 -4 -10 6
-25z"/>
<path d="M1681 3301 c-18 -14 -20 -20 -10 -23 19 -7 49 10 49 27 0 20 -10 19
-39 -4z"/>
<path d="M1880 3285 c0 -8 10 -23 22 -35 23 -21 48 -27 48 -11 0 5 3 16 6 24
4 11 0 14 -13 11 -11 -3 -25 2 -32 10 -17 20 -31 21 -31 1z"/>
<path d="M6390 3291 c0 -6 5 -13 10 -16 6 -3 10 1 10 9 0 9 -4 16 -10 16 -5 0
-10 -4 -10 -9z"/>
<path d="M4792 3266 c4 -21 0 -29 -20 -40 -28 -15 -17 -28 16 -19 17 4 22 13
22 39 0 18 -5 36 -11 40 -8 5 -10 -1 -7 -20z"/>
<path d="M1538 3261 c-61 -7 -82 -18 -69 -39 6 -9 15 -10 40 -1 24 9 39 9 57
0 14 -6 34 -11 44 -11 22 0 45 -35 34 -51 -7 -12 15 -31 28 -23 11 7 10 54 -1
54 -12 0 -61 47 -61 59 0 5 8 12 18 14 24 6 -20 5 -90 -2z"/>
<path d="M6439 3253 c-1 -10 -1 -24 0 -32 2 -8 -2 -10 -11 -5 -7 5 -25 7 -40
5 -16 -1 -28 2 -28 8 0 6 -9 11 -20 11 -11 0 -20 -6 -20 -14 0 -16 127 -33
140 -19 10 10 1 63 -11 63 -5 0 -10 -8 -10 -17z"/>
<path d="M6278 3243 c7 -3 16 -2 19 1 4 3 -2 6 -13 5 -11 0 -14 -3 -6 -6z"/>
<path d="M5517 3192 c-31 -32 -33 -49 -11 -80 14 -21 14 -25 1 -35 -11 -9 -13
-18 -6 -34 12 -32 29 -29 42 7 7 18 19 30 29 30 10 0 18 5 18 10 0 6 -4 10 -8
10 -4 0 -16 13 -25 30 -14 23 -15 34 -7 50 6 11 17 20 25 20 8 0 15 5 15 10 0
21 -47 9 -73 -18z"/>
<path d="M6206 3212 c-8 -13 11 -35 23 -28 16 10 14 36 -3 36 -8 0 -17 -4 -20
-8z"/>
<path d="M5625 3190 c-7 -11 19 -20 34 -10 9 5 7 9 -8 13 -12 3 -23 2 -26 -3z"/>
<path d="M6080 3160 c0 -5 -9 -19 -20 -30 -28 -28 -6 -25 24 4 30 27 32 36 11
36 -8 0 -15 -4 -15 -10z"/>
<path d="M5680 3125 c0 -29 12 -32 31 -9 10 13 10 17 -2 25 -23 14 -29 11 -29
-16z"/>
<path d="M6485 3110 c-4 -6 -4 -10 -1 -10 2 0 11 -3 20 -6 9 -3 16 -2 16 4 0
14 -28 23 -35 12z"/>
<path d="M1556 3089 c-18 -14 -24 -25 -17 -32 11 -11 54 19 59 41 3 18 -12 15
-42 -9z"/>
<path d="M4764 3098 c-9 -15 -15 -58 -7 -58 3 0 14 11 25 25 25 32 66 34 73 3
2 -13 4 -32 2 -42 -3 -27 20 -31 33 -6 9 18 7 27 -13 53 -19 25 -33 33 -65 35
-24 1 -44 -3 -48 -10z"/>
<path d="M5655 3091 c-3 -5 -1 -12 5 -16 5 -3 10 1 10 9 0 18 -6 21 -15 7z"/>
<path d="M6443 3093 c-16 -6 -17 -33 -3 -33 11 0 26 28 19 34 -2 2 -10 1 -16
-1z"/>
<path d="M3052 3078 c-16 -16 -15 -35 3 -42 14 -5 55 29 55 46 0 12 -45 9 -58
-4z"/>
<path d="M5612 3078 c6 -18 28 -21 28 -4 0 9 -7 16 -16 16 -9 0 -14 -5 -12
-12z"/>
<path d="M6540 3078 c0 -7 6 -25 14 -39 9 -18 10 -32 4 -43 -12 -22 -3 -46 16
-46 19 0 34 52 18 58 -7 2 -12 15 -12 29 0 13 -6 31 -14 39 -18 17 -26 18 -26
2z"/>
<path d="M4115 3060 c3 -5 8 -10 11 -10 2 0 4 5 4 10 0 6 -5 10 -11 10 -5 0
-7 -4 -4 -10z"/>
<path d="M4610 3045 c0 -8 21 -30 46 -50 47 -35 76 -47 55 -22 -6 8 -8 17 -4
20 6 7 -12 11 -30 8 -5 -1 -6 2 -3 7 3 5 -8 19 -24 30 -34 26 -40 27 -40 7z"/>
<path d="M6240 3045 c-13 -16 -7 -30 13 -30 5 0 12 -6 15 -14 3 -9 0 -11 -8
-6 -10 6 -12 4 -7 -9 4 -10 7 -20 7 -22 0 -2 6 -4 14 -4 7 0 19 -7 26 -15 7
-8 16 -15 21 -15 16 0 10 28 -9 42 -28 20 -51 59 -45 74 7 19 -11 18 -27 -1z"/>
<path d="M4166 3017 c3 -10 9 -15 12 -12 3 3 0 11 -7 18 -10 9 -11 8 -5 -6z"/>
<path d="M6386 2986 c-4 -22 -13 -36 -26 -39 -24 -6 -27 -35 -5 -43 31 -12 58
19 61 69 4 57 -20 67 -30 13z"/>
<path d="M4731 2997 c-11 -11 -2 -49 12 -44 17 5 27 54 11 54 -7 0 -17 -4 -23
-10z"/>
<path d="M2890 2960 c0 -5 9 -10 19 -10 11 0 23 5 26 10 4 6 -5 10 -19 10 -14
0 -26 -4 -26 -10z"/>
<path d="M1707 2946 c-3 -8 1 -17 9 -20 9 -4 14 1 14 14 0 23 -15 27 -23 6z"/>
<path d="M3910 2940 c0 -11 5 -20 10 -20 6 0 10 -7 10 -15 0 -18 17 -20 23 -2
6 16 -9 43 -28 51 -10 4 -15 -1 -15 -14z"/>
<path d="M5718 2925 c4 -34 15 -45 26 -26 8 12 -11 61 -22 61 -4 0 -6 -16 -4
-35z"/>
<path d="M4049 2924 c-1 -10 -1 -27 0 -36 1 -10 -4 -18 -11 -19 -7 0 0 -5 16
-9 22 -7 37 -5 58 8 32 18 32 37 0 37 -11 0 -30 9 -41 19 -21 19 -21 19 -22 0z"/>
<path d="M1663 2900 c-23 -11 -45 -25 -49 -31 -6 -10 22 -48 28 -38 2 2 18 23
36 47 18 23 32 42 30 42 -2 -1 -22 -10 -45 -20z"/>
<path d="M3990 2884 c0 -9 5 -14 12 -12 18 6 21 28 4 28 -9 0 -16 -7 -16 -16z"/>
<path d="M5633 2876 c-20 -23 -21 -70 -1 -74 14 -3 16 1 8 27 -8 28 -7 31 15
31 12 0 25 7 29 15 7 19 -34 20 -51 1z"/>
<path d="M1694 2814 c4 -9 -4 -24 -21 -38 -15 -13 -23 -28 -19 -34 12 -20 32
-14 44 13 8 17 20 25 37 25 28 0 32 14 11 36 -20 20 -60 19 -52 -2z"/>
<path d="M5702 2770 c11 -17 11 -22 -1 -29 -23 -15 11 -19 117 -13 30 2 31 4
20 22 -8 12 -24 20 -39 20 -14 0 -29 3 -32 7 -4 3 -23 8 -42 10 -34 3 -35 3
-23 -17z"/>
<path d="M3217 2768 c-7 -5 -2 -8 16 -8 34 0 37 -33 6 -59 l-21 -17 26 -12
c25 -11 26 -11 20 13 -4 18 -2 25 9 25 15 0 27 20 27 45 0 15 -64 25 -83 13z"/>
<path d="M4255 2740 c-8 -13 4 -32 16 -25 12 8 12 35 0 35 -6 0 -13 -4 -16
-10z"/>
<path d="M1730 2730 c0 -6 -4 -9 -9 -5 -5 3 -12 1 -16 -5 -3 -5 3 -10 13 -10
15 0 19 -5 15 -19 -3 -10 1 -22 7 -26 11 -6 23 -3 78 24 25 12 17 26 -18 32
-19 3 -43 10 -52 14 -11 4 -18 3 -18 -5z"/>
<path d="M4860 2714 c0 -8 5 -12 10 -9 6 3 10 10 10 16 0 5 -4 9 -10 9 -5 0
-10 -7 -10 -16z"/>
<path d="M2446 2705 c-10 -7 -15 -18 -11 -24 10 -18 25 -13 25 8 0 11 6 22 13
24 6 3 8 6 2 6 -5 0 -18 -6 -29 -14z"/>
<path d="M2495 2710 c3 -5 8 -10 11 -10 2 0 4 5 4 10 0 6 -5 10 -11 10 -5 0
-7 -4 -4 -10z"/>
<path d="M2540 2710 c0 -5 5 -10 10 -10 6 0 10 5 10 10 0 6 -4 10 -10 10 -5 0
-10 -4 -10 -10z"/>
<path d="M4205 2690 c-3 -5 -1 -10 4 -10 6 0 11 5 11 10 0 6 -2 10 -4 10 -3 0
-8 -4 -11 -10z"/>
<path d="M4165 2678 c-26 -15 -36 -31 -26 -41 17 -17 51 3 51 29 0 28 1 27
-25 12z"/>
<path d="M1121 2664 c0 -11 3 -14 6 -6 3 7 2 16 -1 19 -3 4 -6 -2 -5 -13z"/>
<path d="M4870 2641 c0 -15 64 -61 84 -61 21 0 76 -31 76 -42 0 -10 36 10 64
35 30 26 9 37 -60 28 -68 -8 -114 3 -114 26 0 9 -6 13 -15 9 -8 -3 -15 -1 -15
4 0 6 -4 10 -10 10 -5 0 -10 -4 -10 -9z"/>
<path d="M2475 2620 c-4 -6 -4 -10 -1 -10 2 0 11 -3 20 -6 9 -3 16 -2 16 4 0
14 -28 23 -35 12z"/>
<path d="M1148 2609 c6 -7 12 -23 12 -36 0 -13 7 -26 15 -29 8 -4 15 -15 15
-25 0 -10 5 -19 10 -19 6 0 10 4 10 9 0 14 -51 100 -63 107 -8 5 -8 2 1 -7z"/>
<path d="M2515 2562 c-4 -21 -15 -32 -40 -41 -19 -7 -35 -18 -35 -25 0 -18 38
-27 48 -12 4 7 18 20 31 29 30 20 54 9 78 -36 9 -19 18 -27 21 -19 2 7 -3 21
-12 31 -19 21 -21 67 -3 74 6 3 -2 6 -20 6 -17 1 -35 6 -38 11 -11 18 -23 11
-30 -18z"/>
<path d="M2655 2580 c28 -12 45 -12 45 0 0 6 -15 10 -32 9 -28 0 -30 -2 -13
-9z"/>
<path d="M4280 2573 c0 -6 -7 -19 -16 -27 -19 -20 -4 -21 22 -2 15 12 17 17 7
27 -9 9 -13 9 -13 2z"/>
<path d="M3313 2526 c-26 -9 -30 -15 -21 -24 18 -18 46 -14 58 7 18 35 15 36
-37 17z"/>
<path d="M4976 2525 c-4 -10 1 -15 14 -15 11 0 20 7 20 15 0 8 -6 15 -14 15
-8 0 -16 -7 -20 -15z"/>
<path d="M3250 2510 c0 -5 5 -10 10 -10 6 0 10 5 10 10 0 6 -4 10 -10 10 -5 0
-10 -4 -10 -10z"/>
<path d="M1220 2486 c0 -8 5 -18 10 -21 6 -3 10 1 10 9 0 8 -4 18 -10 21 -5 3
-10 -1 -10 -9z"/>
<path d="M2039 2443 c-15 -4 -29 -42 -29 -78 0 -7 16 3 35 22 20 20 34 42 31
49 -5 14 -9 15 -37 7z"/>
<path d="M3230 2425 c0 -9 9 -15 21 -15 18 0 19 2 5 15 -8 8 -17 15 -20 15 -3
0 -6 -7 -6 -15z"/>
<path d="M7190 2427 c18 -9 25 -21 25 -41 0 -16 6 -31 13 -33 8 -3 12 6 12 25
0 49 -9 62 -44 62 l-31 0 25 -13z"/>
<path d="M638 2408 c9 -9 15 -9 24 0 9 9 7 12 -12 12 -19 0 -21 -3 -12 -12z"/>
<path d="M689 2392 c7 -13 7 -22 0 -29 -7 -7 -4 -12 10 -16 14 -3 21 0 21 10
0 20 -19 53 -31 53 -6 0 -6 -6 0 -18z"/>
<path d="M4384 2387 c-32 -28 -25 -51 13 -41 25 7 36 30 25 51 -7 12 -13 11
-38 -10z"/>
<path d="M7015 2390 c-3 -5 -1 -10 4 -10 6 0 11 5 11 10 0 6 -2 10 -4 10 -3 0
-8 -4 -11 -10z"/>
<path d="M3373 2383 c9 -2 23 -2 30 0 6 3 -1 5 -18 5 -16 0 -22 -2 -12 -5z"/>
<path d="M6960 2360 c-13 -8 -12 -10 3 -10 9 0 17 5 17 10 0 12 -1 12 -20 0z"/>
<path d="M550 2345 c-9 -11 -10 -19 -3 -26 8 -8 13 -5 18 11 9 28 2 35 -15 15z"/>
<path d="M4300 2350 c0 -5 7 -10 15 -10 8 0 15 5 15 10 0 6 -7 10 -15 10 -8 0
-15 -4 -15 -10z"/>
<path d="M7025 2350 c-3 -6 1 -13 10 -16 19 -8 30 0 20 15 -8 14 -22 14 -30 1z"/>
<path d="M6915 2343 c-11 -3 -26 -10 -33 -16 -7 -5 -40 -18 -74 -27 -70 -19
-84 -35 -38 -45 26 -6 37 -2 58 18 15 13 35 27 45 30 9 4 17 11 17 17 0 5 5
10 11 10 5 0 7 -5 4 -11 -4 -6 2 -5 14 3 12 7 21 16 21 20 0 5 -1 7 -2 7 -2
-1 -12 -4 -23 -6z"/>
<path d="M7187 2336 c-9 -7 -17 -19 -17 -26 0 -9 8 -5 21 9 24 26 22 35 -4 17z"/>
<path d="M622 2325 c-30 -16 -14 -27 27 -19 25 5 29 9 20 20 -13 16 -16 16
-47 -1z"/>
<path d="M1983 2321 c-15 -24 -8 -80 12 -100 24 -24 28 -6 14 59 -12 53 -15
58 -26 41z"/>
<path d="M5192 2310 c12 -16 26 -30 31 -30 5 0 7 -7 4 -15 -7 -17 9 -30 18
-16 3 6 -3 19 -15 31 -11 11 -20 23 -20 26 0 7 -27 34 -35 34 -3 0 4 -13 17
-30z"/>
<path d="M4137 2304 c-25 -21 -26 -24 -8 -24 11 0 25 9 31 21 16 30 9 31 -23
3z"/>
<path d="M7095 2310 c3 -5 13 -10 21 -10 8 0 14 5 14 10 0 6 -9 10 -21 10 -11
0 -17 -4 -14 -10z"/>
<path d="M2370 2275 c0 -8 9 -15 20 -15 16 0 20 -7 20 -37 0 -24 3 -34 10 -27
6 6 5 25 -2 52 -8 31 -15 42 -29 42 -11 0 -19 -7 -19 -15z"/>
<path d="M5002 2282 c-18 -6 -33 -38 -26 -56 16 -41 150 -90 217 -79 30 4 39
11 44 32 3 14 10 32 16 39 18 23 -2 12 -32 -19 -29 -28 -35 -30 -69 -22 -44
10 -50 36 -9 41 33 4 35 25 5 40 -27 13 -129 30 -146 24z m45 -48 c-3 -3 -12
-4 -19 -1 -8 3 -5 6 6 6 11 1 17 -2 13 -5z"/>
<path d="M1317 2257 c-23 -19 -28 -58 -10 -94 20 -43 36 -42 27 2 -3 19 -3 47
0 61 6 23 11 26 37 20 17 -3 37 -13 45 -21 9 -8 28 -15 44 -15 26 0 28 2 21
28 -7 26 -10 27 -78 29 -43 1 -77 -3 -86 -10z"/>
<path d="M1840 2216 c0 -19 29 -48 40 -41 13 8 -10 55 -27 55 -7 0 -13 -6 -13
-14z"/>
<path d="M6020 2210 c0 -23 15 -27 23 -6 3 8 -1 17 -9 20 -9 4 -14 -1 -14 -14z"/>
<path d="M6846 2221 c-4 -6 -2 -11 3 -11 7 0 7 -7 -1 -20 -7 -11 -21 -20 -30
-20 -10 0 -18 -4 -18 -9 0 -5 15 -6 33 -2 23 5 33 13 35 30 4 27 -12 49 -22
32z"/>
<path d="M4504 2184 c3 -9 6 -24 6 -35 0 -10 7 -19 15 -19 19 0 20 37 1 56
-19 19 -30 18 -22 -2z"/>
<path d="M2220 2180 c-8 -5 -33 -10 -55 -11 -22 -1 -30 -4 -18 -6 12 -2 25
-13 28 -24 8 -23 31 -25 39 -3 3 8 10 13 15 10 5 -4 23 -8 41 -10 17 -2 39
-11 49 -20 30 -27 74 -17 46 10 -7 8 -20 14 -28 14 -8 0 -20 7 -27 15 -7 9
-19 14 -27 11 -7 -3 -13 1 -13 9 0 17 -28 20 -50 5z"/>
<path d="M583 2151 c5 -25 1 -33 -21 -50 -29 -21 -30 -20 26 -37 7 -2 17 -15
22 -29 14 -36 33 -32 25 6 -6 25 -3 34 14 45 27 19 27 34 0 29 -15 -3 -26 5
-41 30 -25 43 -32 44 -25 6z"/>
<path d="M2390 2155 c-10 -12 -10 -15 4 -15 9 0 16 7 16 15 0 8 -2 15 -4 15
-2 0 -9 -7 -16 -15z"/>
<path d="M6038 2133 c-13 -28 -14 -35 -3 -39 13 -5 12 -41 -1 -68 -3 -6 2 -2
10 8 9 11 16 32 16 48 0 18 5 28 15 28 8 0 15 4 15 9 0 5 10 12 23 14 16 3 14
5 -10 6 -18 0 -36 7 -40 15 -6 10 -12 4 -25 -21z"/>
<path d="M1393 2145 c-3 -9 0 -33 6 -53 14 -41 2 -88 -24 -98 -20 -8 -105 13
-152 37 -48 24 -74 24 -80 -1 -3 -11 -9 -20 -14 -20 -5 0 -9 -4 -9 -9 0 -4 30
-18 68 -31 37 -12 75 -29 84 -37 16 -15 16 -17 -7 -35 -14 -11 -25 -26 -25
-34 0 -24 28 -15 52 16 12 17 30 30 40 30 18 0 26 -3 85 -34 38 -20 39 -20 47
-1 4 12 -8 68 -31 135 -9 25 -9 60 -1 60 4 0 8 16 8 35 0 24 -6 37 -20 45 -16
9 -22 8 -27 -5z"/>
<path d="M690 2125 c-11 -13 -8 -15 20 -15 21 0 30 4 28 13 -7 18 -33 20 -48
2z"/>
<path d="M3538 2101 l16 -38 13 25 c15 28 3 52 -27 52 -18 0 -18 -2 -2 -39z"/>
<path d="M4392 2123 c-26 -18 -76 -27 -67 -12 4 5 2 9 -4 9 -15 0 -21 -14 -12
-29 14 -22 68 -16 90 10 11 13 20 27 21 32 0 9 -1 9 -28 -10z"/>
<path d="M2075 2082 c-27 -7 -61 -15 -75 -16 -14 -2 -31 -4 -37 -4 -19 -3 -15
-23 5 -29 10 -2 22 -14 27 -26 11 -24 82 -43 100 -26 5 5 -5 9 -27 9 -24 0
-38 5 -42 16 -10 25 2 34 48 34 40 0 44 3 49 28 3 15 5 27 4 28 -1 0 -24 -6
-52 -14z"/>
<path d="M5444 2088 c-13 -20 -13 -108 0 -108 12 0 36 61 36 93 0 18 -27 30
-36 15z"/>
<path d="M6240 2082 c0 -23 -36 -44 -69 -41 -43 4 -51 -4 -12 -12 24 -5 53 -7
65 -5 26 4 45 51 28 68 -9 9 -12 7 -12 -10z"/>
<path d="M6964 2089 c-3 -6 0 -15 7 -20 11 -7 10 -9 -3 -9 -10 0 -18 -4 -18
-9 0 -5 9 -7 20 -4 13 3 20 14 20 29 0 25 -14 32 -26 13z"/>
<path d="M3510 2060 c-12 -7 -10 -9 7 -7 12 0 19 5 17 9 -6 10 -6 10 -24 -2z"/>
<path d="M6887 2043 c-12 -11 -7 -33 7 -33 12 0 26 20 26 36 0 7 -26 5 -33 -3z"/>
<path d="M3468 2033 c6 -2 18 -2 25 0 6 3 1 5 -13 5 -14 0 -19 -2 -12 -5z"/>
<path d="M3425 2010 c-8 -13 5 -13 25 0 13 8 13 10 -2 10 -9 0 -20 -4 -23 -10z"/>
<path d="M5996 2004 c-11 -7 -16 -17 -13 -21 4 -4 15 1 24 10 22 21 14 30 -11
11z"/>
<path d="M2763 1985 c-14 -10 -24 -12 -28 -5 -10 17 -25 11 -25 -10 0 -12 11
-25 26 -32 23 -11 29 -10 45 11 19 24 25 51 11 51 -4 0 -17 -7 -29 -15z"/>
<path d="M6916 1993 c-11 -11 -6 -23 9 -23 8 0 15 4 15 9 0 13 -16 22 -24 14z"/>
<path d="M2890 1981 c0 -6 9 -15 20 -21 26 -14 26 -30 0 -37 -11 -3 -17 -9
-14 -14 6 -10 53 -2 67 11 11 10 -12 47 -33 54 -8 3 -21 9 -27 12 -7 3 -13 1
-13 -5z"/>
<path d="M5897 1984 c-16 -16 -5 -24 33 -24 34 0 39 2 28 14 -9 9 -19 11 -30
5 -10 -6 -18 -5 -20 2 -2 6 -7 7 -11 3z"/>
<path d="M6970 1960 c0 -5 7 -10 16 -10 8 0 12 5 9 10 -3 6 -10 10 -16 10 -5
0 -9 -4 -9 -10z"/>
<path d="M4443 1953 c-7 -2 -13 -12 -13 -20 0 -10 6 -13 16 -9 9 3 18 6 20 6
2 0 4 7 4 15 0 15 -6 17 -27 8z"/>
<path d="M5141 1910 l-54 -52 27 -24 c14 -14 26 -31 26 -38 0 -23 43 -36 121
-39 51 -1 81 2 92 11 16 14 147 13 147 0 0 -5 9 -8 19 -8 26 0 30 8 24 48 l-5
32 -70 0 c-63 0 -69 2 -63 18 21 51 20 55 -16 48 -32 -6 -80 10 -122 41 -7 5
-26 10 -42 12 -25 2 -41 -8 -84 -49z m129 -26 c59 -24 53 -44 -15 -44 -59 0
-79 16 -55 45 16 19 20 19 70 -1z"/>
<path d="M807 1926 c-3 -8 2 -16 13 -19 23 -6 30 0 23 19 -7 18 -29 18 -36 0z"/>
<path d="M6996 1921 c-4 -7 -5 -15 -2 -18 9 -9 19 4 14 18 -4 11 -6 11 -12 0z"/>
<path d="M736 1908 c3 -4 9 -8 15 -8 5 0 9 4 9 8 0 5 -7 9 -15 9 -8 0 -12 -4
-9 -9z"/>
<path d="M677 1896 c-24 -18 -21 -35 11 -62 31 -28 42 -30 42 -9 0 8 -7 15
-16 15 -13 0 -15 7 -11 30 7 34 -1 43 -26 26z"/>
<path d="M2186 1893 c-9 -9 -7 -33 3 -33 12 0 22 28 12 34 -5 3 -11 3 -15 -1z"/>
<path d="M6312 1879 c1 -13 8 -23 13 -21 15 3 12 35 -3 40 -9 3 -13 -3 -10
-19z"/>
<path d="M6926 1881 c-24 -27 -16 -45 20 -46 38 0 46 -32 10 -41 -15 -3 -26
-13 -26 -23 0 -14 2 -14 10 -1 7 10 10 11 10 2 0 -10 7 -9 34 2 18 7 52 17 74
21 77 13 63 39 -28 52 -59 8 -65 10 -63 31 3 27 -18 29 -41 3z"/>
<path d="M4600 1864 c0 -22 2 -24 14 -14 8 6 12 18 9 26 -9 23 -23 16 -23 -12z"/>
<path d="M6180 1821 c-38 -7 -32 -16 13 -19 18 -1 27 3 27 13 0 8 -1 14 -2 14
-2 -1 -19 -4 -38 -8z"/>
<path d="M2090 1811 c0 -6 5 -13 10 -16 6 -3 10 1 10 9 0 9 -4 16 -10 16 -5 0
-10 -4 -10 -9z"/>
<path d="M2950 1816 c0 -2 16 -20 36 -40 29 -29 34 -39 24 -51 -15 -18 -5 -35
20 -35 41 0 33 44 -18 98 -25 26 -62 43 -62 28z"/>
<path d="M771 1779 c0 -13 -2 -34 -6 -46 -8 -27 2 -29 30 -7 19 16 19 16 -5
10 -21 -6 -22 -5 -7 4 21 13 22 33 2 50 -13 10 -15 9 -14 -11z"/>
<path d="M6058 1789 c-8 -5 6 -9 35 -9 26 0 47 4 47 10 0 11 -63 10 -82 -1z"/>
<path d="M2150 1780 c0 -6 11 -15 24 -19 13 -5 26 -17 30 -26 8 -21 25 -11 22
13 -2 10 -13 18 -29 20 -15 2 -27 8 -27 13 0 5 -4 9 -10 9 -5 0 -10 -5 -10
-10z"/>
<path d="M2916 1753 c-14 -15 -26 -31 -26 -35 0 -5 -13 -8 -29 -8 -21 0 -34 8
-48 28 -21 31 -43 39 -43 15 0 -9 3 -13 7 -10 4 4 12 -6 19 -22 9 -21 21 -30
48 -35 37 -7 81 8 71 25 -4 5 -1 9 4 9 6 0 11 9 11 19 0 11 6 21 13 24 6 2 9
7 6 11 -4 4 -19 -5 -33 -21z"/>
<path d="M5561 1771 c-21 -13 0 -41 41 -51 29 -8 43 -8 54 1 19 15 18 26 -3
32 -10 3 -32 10 -49 15 -17 5 -37 7 -43 3z"/>
<path d="M1427 1757 c-3 -7 -3 -25 0 -39 3 -14 -1 -31 -9 -39 -15 -15 -31 -49
-22 -49 13 0 54 55 54 72 0 12 5 17 13 14 6 -3 20 -9 30 -12 9 -4 17 -10 17
-15 0 -5 4 -9 9 -9 5 0 6 12 2 28 -5 19 -17 30 -39 37 -18 5 -32 13 -32 17 0
13 -17 9 -23 -5z"/>
<path d="M2240 1740 c0 -5 5 -10 10 -10 6 0 10 5 10 10 0 6 -4 10 -10 10 -5 0
-10 -4 -10 -10z"/>
<path d="M6230 1725 c0 -8 7 -15 15 -15 8 0 15 4 15 9 0 5 -7 11 -15 15 -9 3
-15 0 -15 -9z"/>
<path d="M6290 1713 c8 -3 27 -14 42 -25 16 -11 33 -16 39 -13 7 5 10 -5 7
-31 -3 -44 18 -59 28 -19 4 18 1 32 -12 46 -21 23 -77 49 -103 48 -13 0 -14
-1 -1 -6z"/>
<path d="M1300 1672 c0 -14 40 -42 60 -42 13 0 18 5 13 15 -3 9 -8 14 -11 11
-2 -3 -17 1 -33 10 -16 8 -29 11 -29 6z"/>
<path d="M803 1608 c-18 -13 -33 -29 -33 -35 0 -19 14 -16 35 7 10 11 29 20
42 20 15 0 23 5 21 13 -7 20 -31 19 -65 -5z"/>
<path d="M4587 1608 c-5 -18 3 -48 14 -48 11 0 29 42 22 53 -7 12 -31 8 -36
-5z"/>
<path d="M6317 1614 c-10 -11 3 -24 24 -24 10 0 19 7 19 15 0 15 -31 21 -43 9z"/>
<path d="M3010 1592 c6 -13 14 -21 18 -18 3 4 -2 14 -12 24 -18 16 -18 16 -6
-6z"/>
<path d="M618 1594 c-5 -4 -8 -16 -8 -28 0 -14 3 -17 11 -9 6 6 9 19 7 28 -1
9 -6 13 -10 9z"/>
<path d="M1600 1551 c0 -5 5 -13 10 -16 6 -3 10 -2 10 4 0 5 -4 13 -10 16 -5
3 -10 2 -10 -4z"/>
<path d="M2870 1526 c0 -8 -6 -16 -12 -19 -16 -5 25 -63 41 -59 7 1 21 -7 32
-17 24 -22 88 -36 118 -26 15 4 28 -1 46 -19 14 -14 28 -26 30 -26 10 0 -11
43 -26 53 -12 8 -19 23 -19 44 0 17 -5 35 -11 39 -8 4 -9 -1 -4 -16 5 -16 4
-20 -4 -16 -7 5 -10 2 -9 -6 2 -9 -11 -14 -42 -16 -40 -3 -51 2 -85 31 -46 40
-35 55 21 27 46 -24 55 -25 48 -6 -6 16 -74 46 -104 46 -11 0 -20 -6 -20 -14z"/>
<path d="M4400 1536 c0 -2 7 -6 15 -10 8 -3 15 -1 15 4 0 6 -7 10 -15 10 -8 0
-15 -2 -15 -4z"/>
<path d="M1397 1513 c-13 -13 -7 -43 12 -60 11 -9 44 -26 74 -38 43 -18 57
-20 70 -10 9 7 17 16 17 21 0 8 -57 64 -64 64 -2 0 -2 -10 -2 -22 1 -17 -5
-22 -32 -24 -21 -2 -32 2 -31 9 3 15 -22 67 -31 67 -4 0 -10 -3 -13 -7z"/>
<path d="M2266 1499 c-29 -16 -35 -23 -25 -29 8 -5 19 -4 26 2 7 6 13 7 13 4
0 -4 9 -2 20 4 19 10 29 41 13 40 -5 -1 -26 -10 -47 -21z"/>
<path d="M3660 1490 c0 -5 7 -7 15 -4 8 4 15 8 15 10 0 2 -7 4 -15 4 -8 0 -15
-4 -15 -10z"/>
<path d="M1640 1465 c0 -8 5 -15 10 -15 6 0 10 7 10 15 0 8 -4 15 -10 15 -5 0
-10 -7 -10 -15z"/>
<path d="M3774 1453 c-42 -5 -64 -31 -53 -60 9 -26 39 -31 39 -8 0 8 6 15 13
15 7 0 18 14 24 30 6 17 11 29 10 28 -1 0 -16 -3 -33 -5z"/>
<path d="M1580 1429 c0 -5 5 -7 10 -4 6 3 10 8 10 11 0 2 -4 4 -10 4 -5 0 -10
-5 -10 -11z"/>
<path d="M3665 1410 c-3 -5 -4 -10 -1 -10 2 0 11 -3 20 -6 11 -4 16 -1 16 10
0 18 -25 22 -35 6z"/>
<path d="M5555 1390 c-8 -26 2 -40 15 -20 7 12 13 12 34 1 13 -8 27 -22 29
-32 3 -11 14 -19 26 -19 18 0 20 -4 14 -31 -5 -28 -4 -30 17 -27 34 5 34 19 0
57 -17 18 -30 40 -30 47 0 7 -15 17 -32 22 -18 6 -40 13 -50 17 -11 4 -18 0
-23 -15z"/>
<path d="M6310 1401 c0 -5 -3 -16 -6 -25 -5 -13 1 -16 26 -16 27 0 31 -2 20
-15 -6 -8 -9 -19 -5 -25 9 -14 32 -13 38 3 4 10 6 10 6 0 1 -18 28 -16 35 2 4
10 -1 15 -15 15 -13 0 -23 8 -26 21 -3 12 -11 18 -19 15 -8 -3 -18 4 -24 14
-11 21 -30 27 -30 11z"/>
<path d="M6466 1385 c-3 -8 -1 -15 4 -15 5 0 11 -8 13 -17 3 -12 5 -8 6 9 1
30 -14 46 -23 23z"/>
<path d="M3140 1332 c0 -10 5 -23 11 -29 6 -6 9 -23 7 -39 -3 -24 -8 -29 -35
-30 -18 -1 -33 2 -33 7 0 5 -15 12 -32 17 -21 5 -41 20 -53 40 -20 32 -39 40
-50 22 -16 -26 10 -53 90 -90 89 -43 110 -47 138 -26 22 17 22 47 -3 102 -21
45 -40 58 -40 26z"/>
<path d="M5534 1321 c-23 -28 -65 -34 -86 -13 -12 12 -38 16 -38 7 0 -17 44
-48 67 -48 56 0 80 11 86 40 8 40 -4 45 -29 14z"/>
<path d="M1640 1320 c0 -15 5 -20 18 -18 9 2 17 10 17 18 0 8 -8 16 -17 18
-13 2 -18 -3 -18 -18z"/>
<path d="M7190 1331 c0 -6 5 -13 10 -16 6 -3 10 1 10 9 0 9 -4 16 -10 16 -5 0
-10 -4 -10 -9z"/>
<path d="M716 1291 c-3 -5 1 -14 9 -21 12 -10 15 -10 15 3 0 19 -16 31 -24 18z"/>
<path d="M2457 1282 c-24 -27 -21 -32 18 -32 36 0 46 15 23 38 -16 16 -22 15
-41 -6z"/>
<path d="M1572 1253 c-16 -17 -9 -43 11 -43 14 0 44 28 36 33 -2 1 -11 8 -19
14 -11 8 -18 7 -28 -4z"/>
<path d="M6420 1260 c0 -5 5 -10 10 -10 6 0 10 5 10 10 0 6 -4 10 -10 10 -5 0
-10 -4 -10 -10z"/>
<path d="M7224 1254 c3 -9 6 -18 6 -20 0 -3 5 -2 10 1 23 14 8 -15 -17 -33
-23 -17 -26 -23 -15 -33 9 -10 12 -10 12 -1 0 20 27 13 33 -8 7 -27 32 -16 52
23 20 40 19 42 -11 43 -14 1 -32 11 -40 23 -18 25 -39 28 -30 5z"/>
<path d="M7335 1250 c-6 -10 22 -46 30 -38 7 6 -7 48 -16 48 -4 0 -11 -5 -14
-10z"/>
<path d="M3840 1231 c-8 -9 -14 -26 -12 -39 l3 -23 20 25 c30 38 20 70 -11 37z"/>
<path d="M755 1196 c-10 -14 -23 -26 -30 -26 -16 0 -40 -28 -32 -37 4 -3 14 0
23 8 35 29 94 16 94 -21 0 -11 4 -20 10 -20 6 0 7 18 3 45 -4 31 -2 45 6 45 6
0 11 4 11 9 0 6 -8 9 -17 9 -10 0 -26 3 -35 6 -12 5 -22 0 -33 -18z"/>
<path d="M1663 1185 c-2 -19 1 -35 6 -35 14 0 20 38 7 55 -9 13 -11 9 -13 -20z"/>
<path d="M2240 1211 c0 -5 5 -13 10 -16 6 -3 10 -2 10 4 0 5 -4 13 -10 16 -5
3 -10 2 -10 -4z"/>
<path d="M3910 1210 c0 -5 5 -10 11 -10 5 0 7 5 4 10 -3 6 -8 10 -11 10 -2 0
-4 -4 -4 -10z"/>
<path d="M3971 1203 c-2 -21 11 -43 25 -43 8 0 11 6 8 15 -4 8 -10 13 -14 10
-5 -3 -11 3 -13 12 -3 10 -5 13 -6 6z"/>
<path d="M2165 1180 c-10 -16 3 -29 25 -23 24 6 26 19 4 27 -21 8 -22 8 -29
-4z"/>
<path d="M6310 1152 c0 -14 59 -52 65 -43 3 5 -8 19 -24 30 -31 23 -41 26 -41
13z"/>
<path d="M3808 1133 c7 -3 16 -2 19 1 4 3 -2 6 -13 5 -11 0 -14 -3 -6 -6z"/>
<path d="M5180 1130 c0 -5 7 -7 15 -4 8 4 15 8 15 10 0 2 -7 4 -15 4 -8 0 -15
-4 -15 -10z"/>
<path d="M5510 1120 c0 -11 7 -23 15 -26 8 -4 15 -12 15 -19 0 -7 19 -25 43
-40 23 -16 46 -34 50 -42 9 -15 37 -18 37 -3 0 6 9 10 19 10 53 0 70 34 23 43
-19 4 -41 22 -63 51 -19 25 -40 46 -48 46 -12 0 -11 -3 1 -17 21 -25 32 -63
18 -63 -23 0 -50 21 -65 50 -18 34 -45 40 -45 10z"/>
<path d="M3647 1115 c-25 -18 -21 -28 8 -23 14 3 25 1 25 -3 0 -5 5 -9 10 -9
17 0 11 24 -8 36 -14 9 -22 9 -35 -1z"/>
<path d="M3830 1116 c0 -2 7 -7 16 -10 8 -3 12 -2 9 4 -6 10 -25 14 -25 6z"/>
<path d="M3930 1110 c0 -5 7 -10 15 -10 8 0 15 5 15 10 0 6 -7 10 -15 10 -8 0
-15 -4 -15 -10z"/>
<path d="M5230 1103 c0 -13 5 -23 10 -23 13 0 13 11 0 30 -8 12 -10 11 -10 -7z"/>
<path d="M3883 1103 c9 -2 23 -2 30 0 6 3 -1 5 -18 5 -16 0 -22 -2 -12 -5z"/>
<path d="M6390 1101 c0 -5 7 -12 16 -15 22 -9 24 -8 18 9 -7 16 -34 21 -34 6z"/>
<path d="M5747 1078 c-8 -30 9 -47 18 -18 4 12 3 26 -3 32 -6 6 -11 1 -15 -14z"/>
<path d="M6450 1075 c7 -8 17 -15 22 -15 6 0 5 7 -2 15 -7 8 -17 15 -22 15 -6
0 -5 -7 2 -15z"/>
<path d="M7557 1065 c4 -15 -2 -28 -18 -39 -13 -9 -18 -16 -11 -16 12 0 62 39
62 49 0 4 -8 11 -18 18 -17 10 -18 8 -15 -12z"/>
<path d="M6565 1070 c-3 -5 1 -10 10 -10 9 0 13 5 10 10 -3 6 -8 10 -10 10 -2
0 -7 -4 -10 -10z"/>
<path d="M1725 1060 c-8 -14 3 -30 21 -30 8 0 14 9 14 20 0 21 -24 28 -35 10z"/>
<path d="M3167 1062 c-25 -5 -57 -33 -57 -49 0 -20 18 -15 25 6 3 11 14 23 24
26 21 6 77 -20 91 -43 8 -14 9 -15 10 -1 0 19 -19 39 -38 39 -8 0 -20 6 -26
13 -6 8 -19 12 -29 9z"/>
<path d="M5005 1060 c-3 -5 1 -10 9 -10 9 0 16 5 16 10 0 6 -4 10 -9 10 -6 0
-13 -4 -16 -10z"/>
<path d="M1000 1043 c0 -24 16 -48 23 -36 8 13 -3 53 -14 53 -5 0 -9 -8 -9
-17z"/>
<path d="M7410 1009 c-14 -17 -31 -37 -38 -44 -16 -18 -73 -11 -89 11 -10 14
-13 14 -13 3 0 -29 87 -69 97 -43 3 8 15 14 27 14 16 0 25 11 37 45 19 52 14
55 -21 14z"/>
<path d="M4810 1016 c-15 -15 -12 -24 11 -36 17 -9 24 -8 38 9 10 12 30 21 45
21 14 0 26 4 26 8 0 12 -108 9 -120 -2z"/>
<path d="M1620 1010 c0 -5 5 -10 10 -10 6 0 10 5 10 10 0 6 -4 10 -10 10 -5 0
-10 -4 -10 -10z"/>
<path d="M1678 1013 c7 -3 16 -2 19 1 4 3 -2 6 -13 5 -11 0 -14 -3 -6 -6z"/>
<path d="M2564 997 c-11 -13 -26 -27 -34 -30 -8 -4 3 -4 25 -1 51 7 64 19 43
40 -14 14 -17 13 -34 -9z"/>
<path d="M945 968 c-52 -30 -54 -49 -7 -63 19 -6 22 -3 22 24 0 17 5 31 10 31
6 0 10 5 10 10 0 13 -10 12 -35 -2z"/>
<path d="M1477 973 c-12 -11 -8 -23 8 -23 8 0 15 7 15 15 0 16 -12 20 -23 8z"/>
<path d="M3109 964 c-11 -14 -10 -19 10 -35 13 -11 28 -20 35 -20 42 -5 66 -4
66 3 0 4 -9 8 -20 8 -12 0 -24 10 -29 24 -5 13 -17 26 -26 30 -22 8 -21 8 -36
-10z"/>
<path d="M5146 972 c-3 -6 1 -13 10 -16 24 -9 34 -7 34 6 0 6 -3 8 -7 5 -3 -4
-12 -2 -19 4 -7 6 -14 6 -18 1z"/>
<path d="M5765 938 c11 -52 24 -53 28 -2 1 20 -3 29 -16 32 -17 3 -18 0 -12
-30z"/>
<path d="M2420 941 c0 -6 9 -9 20 -8 11 1 20 5 20 9 0 4 -9 8 -20 8 -11 0 -20
-4 -20 -9z"/>
<path d="M2370 924 c0 -8 5 -12 10 -9 6 3 10 10 10 16 0 5 -4 9 -10 9 -5 0
-10 -7 -10 -16z"/>
<path d="M4906 925 c4 -8 8 -15 10 -15 2 0 4 7 4 15 0 8 -4 15 -10 15 -5 0 -7
-7 -4 -15z"/>
<path d="M4074 918 c-4 -6 -2 -14 4 -16 7 -2 10 -8 6 -13 -9 -15 13 -10 26 6
6 8 9 19 5 25 -8 14 -32 13 -41 -2z"/>
<path d="M2270 900 c0 -5 5 -10 10 -10 6 0 10 5 10 10 0 6 -4 10 -10 10 -5 0
-10 -4 -10 -10z"/>
<path d="M2308 903 c6 -2 18 -2 25 0 6 3 1 5 -13 5 -14 0 -19 -2 -12 -5z"/>
<path d="M5657 898 c-7 -4 -28 -8 -48 -8 -21 0 -42 -7 -50 -16 -12 -15 -9 -16
31 -10 25 3 54 8 65 10 11 2 30 5 43 5 12 1 22 7 22 16 0 16 -40 17 -63 3z"/>
<path d="M1054 875 c30 -16 43 -14 31 4 -3 6 -18 11 -33 11 l-27 0 29 -15z"/>
<path d="M4051 874 c0 -11 3 -14 6 -6 3 7 2 16 -1 19 -3 4 -6 -2 -5 -13z"/>
<path d="M5487 874 c-8 -8 1 -24 14 -24 5 0 9 7 9 15 0 15 -12 20 -23 9z"/>
<path d="M1780 855 c-11 -13 -10 -14 4 -9 9 3 16 10 16 15 0 13 -6 11 -20 -6z"/>
<path d="M4937 850 c-21 -24 -22 -40 -3 -40 20 0 34 22 27 43 -6 16 -8 16 -24
-3z"/>
<path d="M1032 849 c-14 -5 -20 -13 -16 -20 5 -9 0 -10 -16 -6 -16 4 -20 3
-12 -5 15 -15 65 4 68 25 1 9 2 17 1 16 -1 0 -12 -4 -25 -10z"/>
<path d="M7406 810 c-11 -3 -15 -9 -10 -13 10 -6 42 9 34 16 -3 3 -14 1 -24
-3z"/>
<path d="M1751 803 c-1 -6 -10 -9 -22 -6 -16 4 -20 2 -17 -8 3 -8 14 -12 24
-11 24 5 27 8 21 24 -3 8 -6 9 -6 1z"/>
<path d="M3850 796 c0 -9 5 -16 10 -16 6 0 10 4 10 9 0 6 -4 13 -10 16 -5 3
-10 -1 -10 -9z"/>
<path d="M1875 790 c-8 -13 15 -24 27 -12 6 6 4 11 -6 15 -8 3 -18 2 -21 -3z"/>
<path d="M7515 780 c4 -6 11 -8 16 -5 14 9 11 15 -7 15 -8 0 -12 -5 -9 -10z"/>
<path d="M7420 745 c7 -8 17 -15 22 -15 6 0 5 7 -2 15 -7 8 -17 15 -22 15 -6
0 -5 -7 2 -15z"/>
<path d="M7556 742 c-2 -4 -1 -14 3 -21 6 -10 10 -9 14 3 6 16 -8 32 -17 18z"/>
<path d="M4968 725 c-8 -8 3 -55 13 -55 17 0 22 31 7 46 -8 8 -17 12 -20 9z"/>
<path d="M7459 725 c-1 -3 -2 -10 -3 -17 0 -7 -12 -15 -26 -19 -21 -5 -22 -7
-7 -13 42 -15 50 -16 63 -5 8 6 21 8 30 5 31 -12 36 7 9 30 -25 21 -63 32 -66
19z"/>
<path d="M4190 695 c13 -14 26 -23 28 -20 7 7 -29 45 -41 45 -6 0 0 -11 13
-25z"/>
<path d="M4010 696 c0 -14 37 -33 46 -23 2 2 2 12 -2 21 -8 20 -44 21 -44 2z"/>
<path d="M946 691 c-7 -11 3 -41 14 -41 4 0 10 11 12 25 5 25 -14 36 -26 16z"/>
<path d="M3092 691 c4 -13 18 -16 19 -4 0 4 -5 9 -11 12 -7 2 -11 -2 -8 -8z"/>
<path d="M5712 671 c5 -23 76 -40 89 -20 15 25 4 34 -45 35 -39 2 -46 -1 -44
-15z"/>
<path d="M3204 668 c-10 -15 35 -24 106 -20 30 2 33 4 16 13 -23 14 -115 19
-122 7z"/>
<path d="M1083 663 c9 -2 23 -2 30 0 6 3 -1 5 -18 5 -16 0 -22 -2 -12 -5z"/>
<path d="M3504 657 c-6 -7 -11 -35 -12 -62 l-2 -50 30 45 c16 25 30 53 30 63
0 20 -30 23 -46 4z"/>
<path d="M4910 659 c0 -5 5 -7 10 -4 6 3 10 8 10 11 0 2 -4 4 -10 4 -5 0 -10
-5 -10 -11z"/>
<path d="M1765 640 c-7 -12 2 -30 16 -30 5 0 9 9 9 20 0 21 -15 27 -25 10z"/>
<path d="M2590 634 c0 -9 -7 -22 -15 -28 -28 -21 -2 -39 45 -31 35 6 40 9 26
17 -9 5 -21 21 -26 34 -11 27 -30 32 -30 8z"/>
<path d="M4230 630 c0 -11 -9 -28 -20 -37 -26 -22 -25 -35 1 -51 12 -8 18 -9
15 -4 -3 6 -2 12 4 14 15 5 26 98 11 98 -6 0 -11 -9 -11 -20z"/>
<path d="M4823 631 l-23 -19 30 -11 c35 -12 32 -13 34 22 2 31 -10 34 -41 8z"/>
<path d="M1150 620 c-17 -13 -20 -20 -10 -20 31 0 60 13 60 26 0 20 -21 17
-50 -6z"/>
<path d="M5821 621 c-9 -6 -6 -13 13 -29 27 -21 35 -57 14 -65 -7 -2 -9 -8 -5
-13 13 -14 40 10 43 39 2 18 -2 27 -12 27 -8 0 -14 6 -14 14 0 20 -24 36 -39
27z"/>
<path d="M1890 612 c0 -5 7 -15 15 -22 8 -7 15 -8 15 -2 0 5 -7 15 -15 22 -8
7 -15 8 -15 2z"/>
<path d="M571 598 c0 -7 14 -24 31 -38 17 -13 29 -20 27 -15 -21 47 -34 65
-46 65 -7 0 -13 -6 -12 -12z"/>
<path d="M2670 600 c0 -5 5 -10 11 -10 5 0 7 5 4 10 -3 6 -8 10 -11 10 -2 0
-4 -4 -4 -10z"/>
<path d="M5686 583 c10 -42 81 -90 101 -69 8 8 -23 40 -40 42 -6 0 -20 2 -29
2 -10 1 -18 6 -18 12 0 5 8 7 18 3 15 -6 15 -4 -2 15 -26 30 -38 28 -30 -5z"/>
<path d="M6587 586 c-7 -18 1 -26 25 -26 11 0 18 7 18 20 0 23 -35 28 -43 6z"/>
<path d="M6355 568 c-4 -9 -1 -27 7 -40 l13 -23 3 22 c2 12 -1 30 -7 40 -9 17
-10 17 -16 1z"/>
<path d="M1100 550 c0 -5 5 -10 11 -10 5 0 7 5 4 10 -3 6 -8 10 -11 10 -2 0
-4 -4 -4 -10z"/>
<path d="M6660 520 c0 -25 -4 -30 -25 -30 -14 0 -25 -4 -25 -10 0 -5 -13 -10
-29 -10 -28 0 -60 -24 -47 -37 3 -3 17 -1 30 6 23 13 70 21 115 21 16 0 36
-13 55 -37 17 -20 40 -45 50 -56 15 -16 17 -24 8 -38 -10 -15 -8 -20 9 -30 55
-29 46 45 -12 95 -22 18 -39 37 -39 42 0 8 -15 27 -60 81 -5 7 -10 17 -10 23
0 5 -4 10 -10 10 -5 0 -10 -13 -10 -30z"/>
<path d="M1138 533 c6 -2 18 -2 25 0 6 3 1 5 -13 5 -14 0 -19 -2 -12 -5z"/>
<path d="M1855 530 c4 -6 11 -8 16 -5 14 9 11 15 -7 15 -8 0 -12 -5 -9 -10z"/>
<path d="M3447 526 c-6 -15 -100 -66 -122 -66 -8 0 -18 7 -22 15 -8 14 -31 20
-64 17 -14 -2 -15 -9 -7 -54 5 -29 13 -56 17 -60 9 -11 39 -11 158 -4 66 4
104 3 108 -4 3 -5 21 -10 38 -10 l32 0 -30 16 c-16 8 -39 24 -50 34 -14 14
-31 18 -53 16 -44 -6 -49 9 -15 43 16 15 29 38 30 50 2 24 -12 29 -20 7z"/>
<path d="M3480 529 c0 -5 5 -7 10 -4 6 3 10 8 10 11 0 2 -4 4 -10 4 -5 0 -10
-5 -10 -11z"/>
<path d="M4254 515 c5 -18 1 -31 -10 -43 -16 -16 -16 -17 -1 -20 9 -2 24 4 33
13 14 13 14 20 4 45 -15 37 -35 40 -26 5z"/>
<path d="M7640 520 c0 -19 11 -26 23 -14 8 8 -3 34 -14 34 -5 0 -9 -9 -9 -20z"/>
<path d="M1010 505 c0 -8 7 -15 15 -15 8 0 15 7 15 15 0 8 -7 15 -15 15 -8 0
-15 -7 -15 -15z"/>
<path d="M3107 506 c-9 -7 -17 -19 -17 -26 0 -9 8 -5 21 9 24 26 22 35 -4 17z"/>
<path d="M4998 513 c7 -3 16 -2 19 1 4 3 -2 6 -13 5 -11 0 -14 -3 -6 -6z"/>
<path d="M4940 499 c0 -5 5 -7 10 -4 6 3 10 8 10 11 0 2 -4 4 -10 4 -5 0 -10
-5 -10 -11z"/>
<path d="M637 476 c-3 -8 1 -17 9 -20 9 -4 12 -2 8 5 -4 6 0 15 7 20 11 7 11
9 -2 9 -9 0 -19 -6 -22 -14z"/>
<path d="M4793 477 c-27 -12 -29 -23 -5 -29 24 -6 42 1 42 17 0 20 -12 24 -37
12z"/>
<path d="M4863 483 c9 -2 23 -2 30 0 6 3 -1 5 -18 5 -16 0 -22 -2 -12 -5z"/>
<path d="M6390 452 c0 -16 9 -38 20 -50 11 -12 23 -35 26 -52 4 -16 10 -30 15
-30 5 0 9 -11 9 -24 0 -19 16 -36 34 -36 11 0 -6 77 -19 86 -24 18 -11 72 17
76 12 2 24 9 26 17 4 11 -3 13 -31 8 -27 -4 -41 -1 -58 14 -30 26 -39 24 -39
-9z"/>
<path d="M7570 470 c-12 -8 -10 -10 8 -10 13 0 20 4 17 10 -7 12 -6 12 -25 0z"/>
<path d="M1224 448 c-3 -12 -16 -29 -27 -39 -19 -14 -20 -19 -7 -33 7 -10 25
-16 39 -16 50 4 61 0 61 -19 0 -11 -6 -21 -12 -24 -7 -2 -10 -7 -6 -11 5 -6
27 2 58 22 6 4 -53 51 -66 52 -16 0 -33 45 -27 69 7 28 -4 27 -13 -1z"/>
<path d="M2482 455 c-10 -11 -18 -13 -32 -5 -25 13 -30 13 -30 -3 0 -7 13 -21
29 -30 17 -10 33 -26 36 -37 4 -11 17 -23 31 -26 13 -3 24 -12 24 -19 0 -7 16
-25 36 -40 40 -31 78 -28 89 5 9 27 -4 98 -18 107 -18 11 -59 13 -76 3 -11 -6
-24 1 -46 26 -26 29 -32 32 -43 19z"/>
<path d="M2653 454 c-8 -22 4 -29 21 -11 14 13 14 16 0 21 -8 3 -17 -1 -21
-10z"/>
<path d="M7510 457 c-14 -6 -45 -11 -69 -12 -29 -2 -47 -8 -53 -19 -6 -11 -16
-15 -29 -11 -14 5 -19 2 -19 -10 0 -12 5 -15 18 -10 9 4 32 9 50 12 18 3 35
10 38 14 3 5 15 9 28 9 12 0 26 4 32 9 5 5 18 11 29 13 11 2 16 6 10 10 -5 3
-21 1 -35 -5z"/>
<path d="M4155 444 c-17 -13 -16 -14 12 -14 36 0 52 15 25 22 -10 3 -27 -1
-37 -8z"/>
<path d="M3082 441 c4 -13 18 -16 19 -4 0 4 -5 9 -11 12 -7 2 -11 -2 -8 -8z"/>
<path d="M538 433 c7 -3 16 -2 19 1 4 3 -2 6 -13 5 -11 0 -14 -3 -6 -6z"/>
<path d="M4848 433 c7 -3 16 -2 19 1 4 3 -2 6 -13 5 -11 0 -14 -3 -6 -6z"/>
<path d="M380 413 c-39 -7 -44 -19 -21 -45 l22 -23 17 22 c9 12 40 28 67 36
l50 14 -55 0 c-30 0 -66 -2 -80 -4z"/>
<path d="M4898 413 c7 -3 16 -2 19 1 4 3 -2 6 -13 5 -11 0 -14 -3 -6 -6z"/>
<path d="M5833 401 c-16 -26 -16 -41 0 -20 19 25 40 27 76 7 18 -10 36 -16 39
-13 11 11 -24 33 -63 39 -33 6 -42 3 -52 -13z"/>
<path d="M1936 403 c-11 -11 -6 -23 9 -23 8 0 15 4 15 9 0 13 -16 22 -24 14z"/>
<path d="M5580 395 c0 -29 29 -73 70 -105 22 -18 54 -45 70 -61 34 -34 94 -41
107 -11 13 27 10 105 -4 109 -9 3 -13 -8 -13 -36 0 -52 -19 -61 -68 -35 -20
10 -41 18 -49 16 -7 -2 -10 3 -8 11 3 7 -9 28 -26 47 -17 19 -38 45 -46 58
-18 26 -33 29 -33 7z"/>
<path d="M1856 384 c-10 -25 -7 -34 9 -34 8 0 15 -4 15 -10 0 -5 12 -9 28 -9
20 1 22 2 7 6 -31 8 -43 22 -38 43 6 24 -12 27 -21 4z"/>
<path d="M726 375 c4 -8 8 -15 10 -15 2 0 4 7 4 15 0 8 -4 15 -10 15 -5 0 -7
-7 -4 -15z"/>
<path d="M1967 383 c-4 -3 -7 -12 -7 -20 0 -10 5 -11 19 -4 10 6 21 7 25 3 4
-3 4 1 0 11 -6 17 -25 23 -37 10z"/>
<path d="M2750 376 c0 -11 8 -16 28 -15 15 0 21 3 12 6 -8 3 -21 10 -27 16 -9
7 -13 5 -13 -7z"/>
<path d="M5090 358 c0 -6 -7 -20 -17 -30 -23 -26 2 -23 28 3 17 17 23 19 30 8
6 -10 9 -8 9 9 0 17 -6 22 -25 22 -14 0 -25 -5 -25 -12z"/>
<path d="M5958 364 c-4 -3 0 -17 8 -32 17 -34 17 -37 -1 -55 -12 -13 -13 -17
0 -27 8 -6 24 -9 35 -5 19 6 21 12 15 48 -9 53 -12 58 -32 50 -12 -5 -15 -2
-10 10 6 16 -3 23 -15 11z"/>
<path d="M5815 350 c3 -5 8 -10 11 -10 2 0 4 5 4 10 0 6 -5 10 -11 10 -5 0 -7
-4 -4 -10z"/>
<path d="M3595 340 c3 -5 21 -12 40 -16 19 -3 39 -12 46 -20 6 -8 20 -14 29
-14 10 0 21 -6 23 -12 3 -7 6 -1 6 14 1 20 -6 30 -31 42 -34 17 -123 22 -113
6z"/>
<path d="M410 312 c0 -7 5 -12 10 -12 6 0 10 -6 10 -13 0 -14 39 -41 47 -33 3
3 -1 11 -9 18 -41 39 -58 50 -58 40z"/>
<path d="M746 311 c-4 -5 -2 -12 3 -15 5 -4 12 -2 15 3 4 5 2 12 -3 15 -5 4
-12 2 -15 -3z"/>
<path d="M4971 299 c-7 -12 -7 -19 -1 -19 5 0 10 5 10 11 0 5 9 9 20 7 10 -2
19 2 20 7 1 18 -37 13 -49 -6z"/>
<path d="M4941 284 c0 -11 3 -14 6 -6 3 7 2 16 -1 19 -3 4 -6 -2 -5 -13z"/>
<path d="M1170 275 c-22 -26 4 -43 30 -20 11 10 20 22 20 27 0 14 -37 9 -50
-7z"/>
<path d="M2330 241 c0 -5 5 -13 10 -16 6 -3 10 -2 10 4 0 5 -4 13 -10 16 -5 3
-10 2 -10 -4z"/>
<path d="M2490 214 c0 -8 5 -12 10 -9 6 3 10 10 10 16 0 5 -4 9 -10 9 -5 0
-10 -7 -10 -16z"/>
<path d="M1888 213 c7 -3 16 -2 19 1 4 3 -2 6 -13 5 -11 0 -14 -3 -6 -6z"/>
<path d="M2366 184 c-4 -10 -2 -22 3 -27 13 -13 47 -3 43 12 -2 9 4 12 18 8
11 -3 20 -1 20 4 0 5 -11 9 -24 9 -13 0 -31 3 -39 6 -8 3 -17 -2 -21 -12z"/>
<path d="M2410 120 c0 -5 5 -10 10 -10 6 0 10 5 10 10 0 6 -4 10 -10 10 -5 0
-10 -4 -10 -10z"/>
</g>
</svg>
