<?xml version="1.0" standalone="no"?>
<!DOCTYPE svg PUBLIC "-//W3C//DTD SVG 20010904//EN"
 "http://www.w3.org/TR/2001/REC-SVG-20010904/DTD/svg10.dtd">
<svg version="1.0" xmlns="http://www.w3.org/2000/svg"
 width="670.000000pt" height="1481.000000pt" viewBox="0 0 670.000000 1481.000000"
 preserveAspectRatio="xMidYMid meet">

<g transform="translate(0.000000,1481.000000) scale(0.100000,-0.100000)"
fill="#000000" stroke="none">
<path d="M6144 14495 c-8 -20 26 -126 43 -132 26 -10 14 -52 -27 -90 -72 -68
-42 -89 31 -23 24 22 47 40 51 40 18 0 30 -46 24 -97 -7 -63 -30 -93 -69 -93
-21 0 -28 -4 -25 -16 2 -9 11 -22 20 -27 26 -17 59 7 89 61 35 62 42 115 24
182 -8 30 -12 64 -9 77 5 17 1 23 -18 28 -13 3 -31 20 -41 36 -9 17 -26 33
-36 36 -11 3 -22 11 -25 19 -7 18 -25 18 -32 -1z"/>
<path d="M5907 14259 c-22 -22 -40 -45 -41 -52 -1 -7 -12 -27 -25 -45 -24 -35
-23 -49 4 -38 8 3 18 19 21 35 7 32 47 75 80 85 33 10 58 -25 51 -71 -6 -47
-26 -98 -34 -90 -3 4 0 27 7 52 9 33 10 49 2 57 -20 20 -44 -19 -49 -82 -5
-56 -4 -60 18 -69 36 -13 55 3 78 64 27 71 27 119 0 161 -29 48 -63 46 -112
-7z"/>
<path d="M5700 14073 c-23 -8 -80 -65 -80 -80 0 -22 27 -15 44 12 33 50 64 19
46 -45 -14 -50 -12 -106 4 -119 32 -27 96 48 96 113 0 96 -44 143 -110 119z
m70 -122 c0 -15 -7 -36 -15 -47 -24 -31 -36 0 -17 47 16 43 32 43 32 0z"/>
<path d="M5375 13870 c-8 -13 56 -149 71 -149 5 -1 18 -19 27 -40 26 -58 89
-126 110 -118 29 11 19 42 -24 77 -23 18 -50 52 -60 74 -10 23 -34 58 -54 77
-24 24 -34 44 -33 60 3 25 -24 39 -37 19z"/>
<path d="M5279 13643 c-10 -27 0 -42 28 -43 21 0 36 39 22 56 -18 22 -38 17
-50 -13z"/>
<path d="M6147 13575 c-15 -14 -27 -34 -28 -43 0 -9 -2 -28 -4 -42 -3 -30 35
-106 64 -127 12 -8 21 -23 21 -34 0 -21 15 -26 25 -8 4 5 17 9 28 8 28 -3 57
10 57 25 0 6 -12 29 -26 49 -17 26 -24 46 -20 62 9 35 -26 108 -58 123 -33 15
-26 16 -59 -13z m39 -23 c41 -28 56 -104 31 -150 l-13 -22 -26 27 c-33 35 -44
85 -28 124 13 30 18 33 36 21z"/>
<path d="M5855 13349 c-12 -18 6 -46 40 -65 27 -14 35 -25 35 -46 0 -15 -4
-29 -9 -32 -5 -3 -18 -26 -30 -51 -12 -25 -28 -48 -36 -51 -17 -7 -20 -30 -6
-38 5 -3 19 13 31 37 12 23 37 57 57 75 l35 33 29 -33 c39 -46 46 -84 22 -117
-11 -14 -33 -30 -49 -35 -64 -19 -86 -46 -37 -46 35 0 101 33 131 66 23 26 22
62 -2 94 -23 28 -49 99 -44 118 8 30 -8 50 -37 44 -17 -3 -36 4 -58 20 -40 31
-65 40 -72 27z"/>
<path d="M5131 12749 c-53 -57 6 -184 82 -177 27 3 31 -1 45 -42 26 -81 41
-110 57 -110 20 0 24 48 4 60 -4 3 -20 36 -34 74 -36 94 -69 156 -104 189
l-29 28 -21 -22z m43 -86 c7 -47 -3 -56 -20 -20 -6 15 -7 33 -2 47 11 29 14
25 22 -27z"/>
<path d="M6080 12733 c0 -17 8 -41 19 -54 10 -13 33 -53 50 -88 30 -59 34 -91
12 -91 -9 0 -78 66 -113 109 -22 26 -53 27 -64 4 -4 -10 -10 -47 -13 -83 -7
-71 -1 -68 -83 -54 -55 9 -82 -1 -109 -41 -13 -19 -28 -35 -33 -35 -28 0 -119
-102 -110 -124 8 -20 24 -21 24 -1 0 17 48 68 73 78 12 5 21 -4 35 -37 19 -42
60 -75 109 -90 60 -19 24 114 -43 157 -41 27 -42 32 -8 50 24 13 33 11 91 -11
82 -33 88 -27 85 77 -1 44 2 82 6 85 11 6 52 -21 52 -35 0 -6 22 -32 48 -59
37 -38 53 -48 70 -43 12 3 22 9 22 14 0 11 30 12 30 2 1 -21 37 -53 53 -47 21
8 22 30 2 38 -8 3 -23 21 -32 41 -13 27 -14 40 -5 57 6 13 14 33 17 46 4 12
13 22 21 22 20 0 18 17 -4 29 -23 12 -37 3 -45 -29 -13 -50 -24 -56 -46 -29
-23 26 -44 68 -58 113 -5 16 -19 36 -31 44 -21 14 -22 13 -22 -15z m-238 -411
c12 -22 14 -33 6 -38 -14 -9 -48 32 -48 58 0 27 21 18 42 -20z"/>
<path d="M4985 12520 c-5 -16 3 -30 34 -61 25 -26 47 -39 56 -35 22 8 19 19
-18 68 -38 49 -62 59 -72 28z"/>
<path d="M4712 12310 c-10 -17 -9 -26 7 -58 11 -20 31 -49 45 -64 33 -34 33
-62 1 -94 -14 -14 -25 -29 -25 -34 0 -21 30 -9 50 20 12 17 27 30 33 30 7 0
30 -22 52 -50 22 -27 48 -50 57 -50 21 0 24 25 6 37 -7 4 -28 28 -47 52 l-34
44 35 32 c19 18 41 34 49 37 12 4 12 7 0 21 -18 23 -20 22 -63 -18 -20 -19
-43 -35 -51 -35 -22 0 -75 73 -82 113 -8 42 -15 45 -33 17z"/>
<path d="M5090 12256 c0 -16 42 -46 65 -46 19 0 19 10 -1 38 -17 24 -64 31
-64 8z"/>
<path d="M5412 12088 c-31 -49 -91 -101 -143 -122 -51 -21 -79 -65 -54 -86 7
-6 16 -34 20 -63 10 -67 29 -95 70 -103 26 -5 41 -17 67 -57 47 -73 69 -74
104 -3 15 31 31 56 35 56 5 0 15 14 24 30 9 17 22 30 30 30 7 0 16 8 19 18 4
11 16 24 29 31 12 7 30 23 40 37 18 24 18 25 -2 50 -11 14 -39 35 -62 47 -35
18 -49 35 -79 92 -43 84 -67 94 -98 43z m78 -98 c0 -5 16 -28 36 -50 l36 -40
-40 0 c-27 0 -42 5 -46 16 -10 25 -7 84 4 84 6 0 10 -4 10 -10z m-59 -53 c-12
-32 -51 -38 -51 -8 0 21 41 53 53 42 4 -4 3 -20 -2 -34z m4 -143 c0 -32 5 -69
12 -80 14 -24 8 -34 -17 -34 -36 0 -51 70 -30 138 18 59 35 47 35 -24z m122
42 c7 -7 -56 -86 -68 -86 -5 0 -9 24 -9 54 l0 54 36 -8 c19 -5 38 -11 41 -14z
m-257 -69 c0 -5 -4 -5 -10 -2 -5 3 -10 14 -10 23 0 15 2 15 10 2 5 -8 10 -19
10 -23z"/>
<path d="M4555 12081 c-10 -17 6 -60 26 -66 31 -10 19 -70 -21 -102 -12 -9
-13 -14 -2 -25 11 -11 19 -6 47 27 l34 40 45 -47 c42 -45 76 -62 76 -37 0 11
-32 55 -65 90 -20 21 -19 36 5 49 11 6 20 15 20 21 0 19 -32 22 -60 5 -27 -16
-29 -15 -52 12 -30 35 -45 45 -53 33z"/>
<path d="M4370 11909 c-36 -14 -66 -57 -50 -72 9 -9 15 -7 27 11 18 25 55 29
73 7 10 -13 10 -24 -2 -63 -14 -41 -14 -51 -2 -74 17 -32 44 -36 67 -10 39 43
2 168 -60 200 -12 7 -23 12 -25 11 -2 0 -14 -5 -28 -10z"/>
<path d="M4210 11780 c-10 -6 -6 -23 19 -75 38 -79 40 -134 4 -150 -26 -11
-38 -34 -25 -47 14 -14 72 3 83 25 11 19 8 65 -9 157 -14 75 -41 109 -72 90z"/>
<path d="M6166 11783 c-15 -15 -3 -39 37 -75 23 -22 52 -48 64 -60 28 -26 69
-17 53 13 -6 10 -17 19 -25 19 -8 0 -15 4 -15 8 0 5 -11 14 -24 21 -13 7 -29
24 -34 36 -12 26 -45 48 -56 38z"/>
<path d="M4999 11770 c-10 -6 -20 -30 -24 -56 -3 -25 -16 -55 -27 -66 -15 -15
-18 -25 -11 -36 15 -24 61 -36 89 -23 31 14 31 34 -1 51 -18 10 -25 22 -25 44
0 30 23 76 38 76 20 -1 53 -41 71 -87 l20 -51 -22 -28 c-13 -16 -20 -39 -19
-54 4 -33 -46 -80 -84 -80 -54 0 -116 23 -126 46 -6 12 -24 28 -40 35 -26 11
-32 10 -51 -10 -28 -28 -15 -51 40 -67 22 -7 55 -19 73 -29 25 -13 50 -16 103
-13 67 4 71 5 104 43 19 22 44 58 55 80 11 22 24 42 28 45 4 3 11 24 17 46 10
41 10 42 -42 93 -48 48 -55 51 -101 51 -27 0 -56 -5 -65 -10z"/>
<path d="M6100 11596 c-9 -25 -1 -95 15 -138 12 -30 -19 -21 -60 18 -54 51
-69 41 -61 -40 4 -38 2 -67 -3 -70 -5 -4 -31 7 -57 24 -56 35 -64 36 -94 12
-29 -23 -19 -45 14 -32 15 5 30 4 43 -3 91 -53 103 -57 124 -46 18 9 20 18 17
60 -1 27 -1 49 2 49 3 0 23 -16 45 -35 46 -42 79 -43 82 -5 0 14 -5 34 -12 46
-19 30 -22 109 -5 129 10 12 11 21 3 33 -17 27 -42 26 -53 -2z"/>
<path d="M4044 11589 c-5 -8 -9 -41 -9 -74 0 -54 -2 -60 -22 -63 -12 -2 -27 5
-35 16 -19 27 -54 33 -72 13 -13 -15 -9 -19 56 -51 l70 -35 24 30 c13 17 24
38 24 47 0 14 6 16 30 12 42 -9 38 11 -14 70 -33 38 -45 46 -52 35z"/>
<path d="M6346 11535 c-5 -15 21 -35 47 -35 20 0 28 25 14 39 -16 16 -54 14
-61 -4z"/>
<path d="M3700 11241 c-37 -38 -45 -61 -19 -61 6 0 22 14 36 31 17 19 33 29
47 27 18 -3 21 -9 18 -49 -3 -50 16 -82 55 -94 16 -4 26 0 38 19 16 24 16 29
-1 83 -9 32 -20 61 -23 65 -3 4 -29 10 -58 14 -51 6 -53 6 -93 -35z"/>
<path d="M5725 11211 c-15 -45 -20 -51 -45 -51 -15 0 -33 -7 -40 -15 -7 -8
-19 -15 -26 -15 -16 0 -19 -26 -3 -35 5 -4 18 0 27 8 15 14 21 14 53 -2 52
-26 73 -12 64 40 -5 30 -4 39 8 39 14 0 27 -46 27 -102 0 -33 14 -43 34 -23
18 18 12 65 -19 145 -15 39 -27 56 -42 58 -17 3 -24 -6 -38 -47z"/>
<path d="M4639 11243 c-15 -4 -39 -62 -39 -95 0 -8 -6 -22 -13 -32 -13 -18
-40 -16 -99 9 -24 10 -47 -34 -24 -47 9 -5 16 -20 16 -33 0 -24 -61 -113 -89
-129 -9 -5 -29 -22 -44 -38 -16 -15 -32 -28 -35 -28 -8 0 -32 -30 -78 -97 -30
-44 -30 -47 -17 -87 21 -59 35 -71 74 -60 31 9 67 52 68 82 1 7 -15 22 -35 34
-30 18 -35 25 -29 47 3 14 13 31 22 36 9 6 27 20 41 33 14 12 28 22 31 22 16
0 106 96 134 143 18 29 38 52 44 50 7 -3 15 -21 19 -41 10 -59 42 -142 72
-183 49 -69 146 -95 165 -45 20 51 -95 231 -173 271 -26 13 -28 19 -24 52 9
61 24 91 50 97 32 8 34 47 2 45 -13 -1 -30 -3 -39 -6z m49 -265 c50 -51 92
-128 92 -169 0 -24 -4 -29 -23 -29 -43 0 -106 90 -126 181 -16 72 -2 76 57 17z"/>
<path d="M5236 11202 c-36 -4 -65 -38 -66 -74 0 -41 57 -99 161 -163 47 -29
132 -99 156 -130 27 -34 73 -49 73 -24 0 6 7 9 15 5 36 -13 42 72 10 147 -27
65 -68 59 -81 -12 -4 -20 -8 -39 -11 -43 -6 -11 -73 30 -126 78 -27 24 -53 44
-59 44 -21 0 -77 53 -88 83 -9 28 -8 34 11 50 13 11 38 17 68 17 61 0 75 -10
66 -48 -10 -46 12 -48 35 -3 33 65 23 73 -90 76 -25 0 -58 -1 -74 -3z m324
-315 c0 -21 -4 -36 -9 -33 -12 8 -22 63 -14 82 9 25 23 -4 23 -49z"/>
<path d="M3588 11155 c-24 -16 -42 -40 -54 -71 -31 -82 -18 -111 54 -116 l47
-3 3 -52 c2 -39 7 -53 18 -53 24 0 37 49 24 92 -13 45 -43 68 -87 68 -27 0
-33 4 -33 20 0 54 58 106 73 68 7 -17 27 9 27 34 0 33 -34 39 -72 13z"/>
<path d="M3370 10940 c-19 -10 -50 -26 -67 -35 -18 -8 -33 -20 -33 -25 0 -6
-7 -10 -15 -10 -15 0 -55 -55 -55 -76 0 -15 42 -26 50 -14 7 11 33 4 115 -28
50 -20 50 -20 52 -69 3 -68 8 -92 21 -105 19 -19 36 6 37 55 1 23 7 52 13 64
17 31 15 51 -9 81 -18 23 -20 35 -15 82 10 85 -28 117 -94 80z m34 -107 c5
-11 1 -22 -10 -30 -23 -17 -29 -16 -44 2 -10 12 -10 18 0 30 17 20 46 19 54
-2z"/>
<path d="M3087 10789 c-23 -27 -27 -40 -27 -93 1 -83 37 -126 108 -126 30 0
112 52 112 71 0 5 11 21 25 35 49 49 4 60 -55 14 -40 -32 -77 -39 -86 -17 -3
8 -8 42 -12 78 -8 75 -24 85 -65 38z"/>
<path d="M5196 10801 c-9 -14 70 -94 87 -88 7 2 11 15 9 28 -1 13 -4 32 -5 42
0 9 -7 17 -13 17 -6 0 -25 3 -42 6 -17 4 -32 1 -36 -5z"/>
<path d="M6101 10655 c-17 -15 -29 -31 -25 -36 3 -5 1 -9 -5 -9 -5 0 -22 -26
-37 -57 -15 -32 -36 -70 -46 -85 -10 -14 -18 -33 -18 -42 0 -22 39 -21 46 2 3
9 11 27 17 40 l11 22 25 -27 c14 -16 43 -41 64 -57 32 -25 37 -34 32 -55 -3
-14 -21 -39 -40 -56 -26 -22 -32 -34 -25 -45 22 -35 170 183 170 250 0 34 -21
19 -40 -30 -16 -38 -22 -45 -44 -43 -36 3 -81 41 -99 84 -17 44 -4 85 40 123
21 18 25 28 17 36 -8 8 -19 4 -43 -15z"/>
<path d="M5337 10663 c-17 -16 -4 -33 29 -39 43 -8 65 12 37 34 -18 13 -55 16
-66 5z"/>
<path d="M5096 10631 c-10 -11 -16 -31 -14 -47 2 -20 -1 -29 -12 -29 -19 -1
-40 -14 -40 -25 0 -15 77 -60 101 -60 19 0 21 4 14 33 -12 57 -11 62 13 60 32
-4 28 28 -8 60 -36 32 -33 32 -54 8z"/>
<path d="M4976 10554 c-17 -16 -22 -64 -8 -64 13 0 52 49 52 65 0 20 -24 19
-44 -1z"/>
<path d="M3490 10540 c-14 -27 -13 -41 10 -93 28 -62 260 -260 300 -255 18 2
26 10 28 28 6 49 11 54 30 36 10 -9 24 -16 30 -16 14 0 32 32 32 59 0 28 18
36 40 16 10 -9 23 -14 29 -11 20 13 39 71 45 139 7 70 -3 107 -29 107 -16 0
-19 -11 -15 -45 6 -51 -4 -135 -16 -135 -13 0 -43 47 -44 66 0 12 -6 26 -13
33 -24 19 -37 -9 -37 -81 0 -76 -11 -86 -49 -42 -30 35 -51 17 -51 -42 0 -50
-15 -57 -52 -25 -13 11 -33 28 -45 38 -136 110 -163 140 -163 182 0 16 6 21
29 21 33 0 47 -13 57 -55 16 -68 44 -68 44 0 0 36 -5 47 -27 63 -16 10 -49 22
-75 25 -40 6 -49 4 -58 -13z"/>
<path d="M4888 10356 c-48 -13 -62 -21 -110 -65 -25 -22 -85 -121 -73 -121 2
0 15 16 29 36 49 73 173 143 151 85 -4 -9 -9 -37 -12 -63 -5 -45 -5 -47 36
-73 36 -24 44 -26 68 -16 73 31 107 92 77 140 -24 38 -85 91 -103 90 -9 0 -37
-6 -63 -13z m104 -70 c29 -40 31 -69 7 -94 -16 -18 -28 -22 -48 -17 -31 8 -41
21 -41 56 0 29 34 79 53 79 7 0 20 -11 29 -24z"/>
<path d="M5694 10282 c-32 -26 -77 -110 -69 -129 5 -15 7 -15 16 -3 5 8 13 31
19 50 13 46 51 66 81 42 32 -27 45 -118 24 -179 -6 -19 -4 -23 13 -23 15 0 22
9 27 30 4 16 10 32 15 35 5 3 5 18 0 34 -4 16 -6 31 -4 34 9 9 -29 83 -53 105
-31 26 -41 27 -69 4z"/>
<path d="M2655 10179 c-4 -13 -1 -27 9 -38 9 -10 16 -23 16 -29 0 -7 4 -12 10
-12 5 0 12 -11 16 -24 4 -17 -5 -43 -32 -90 -41 -70 -69 -85 -80 -42 -3 13
-17 35 -31 48 l-25 23 -24 -28 c-13 -15 -24 -38 -24 -50 0 -42 -14 -51 -48
-32 -19 12 -38 16 -56 11 -23 -6 -25 -9 -16 -26 6 -11 21 -20 34 -20 13 0 35
-11 50 -25 15 -14 31 -25 35 -25 16 0 29 25 35 73 4 26 10 47 14 47 9 0 37
-32 52 -59 6 -12 21 -21 34 -21 19 0 28 10 45 53 28 67 68 114 84 98 6 -6 17
-11 24 -11 15 0 18 36 3 45 -20 12 -9 47 25 82 39 40 42 51 18 60 -16 6 -49
-23 -72 -64 -8 -14 -12 -15 -25 -4 -9 7 -16 24 -16 37 0 13 -9 28 -19 34 -27
14 -29 13 -36 -11z"/>
<path d="M4677 10153 c-12 -12 -7 -22 8 -17 8 4 15 10 15 15 0 11 -14 12 -23
2z"/>
<path d="M5525 10070 c-8 -16 -15 -36 -15 -45 0 -8 -10 -19 -22 -24 -39 -15
-61 -48 -66 -102 -4 -47 -6 -50 -28 -45 -30 8 -44 -17 -44 -82 0 -27 -2 -51
-5 -54 -3 -3 -26 0 -52 5 -46 11 -46 11 -80 -28 -38 -45 -51 -81 -34 -98 10
-9 16 -7 27 8 8 11 13 24 10 30 -2 6 4 22 14 35 l18 24 55 -19 c78 -26 91 -18
82 50 -5 46 -4 56 10 61 9 4 24 -1 34 -10 22 -20 61 -21 61 -2 0 7 -7 31 -16
52 -29 69 3 167 34 100 14 -32 78 -43 105 -18 26 23 18 105 -15 156 -28 44
-52 46 -73 6z m56 -67 c5 -14 8 -34 7 -42 -5 -26 -31 -18 -39 12 -14 53 13 79
32 30z"/>
<path d="M3564 9954 c-34 -22 -42 -35 -58 -90 -21 -72 -17 -91 16 -96 71 -10
106 23 48 45 -32 12 -36 27 -19 75 16 45 93 79 116 50 31 -39 31 -112 -1 -181
-48 -106 -112 -154 -190 -143 -54 8 -110 44 -114 74 -5 30 -51 66 -67 52 -7
-6 -15 -20 -18 -31 -11 -43 107 -124 218 -149 61 -14 91 3 162 91 64 78 87
140 81 217 -4 48 -9 60 -39 84 -42 35 -83 36 -135 2z"/>
<path d="M6165 9851 c-3 -11 -2 -28 3 -38 32 -62 37 -76 25 -80 -6 -2 -30 -17
-52 -33 -34 -25 -44 -28 -67 -20 -19 7 -30 7 -40 -1 -21 -17 -17 -25 19 -42
17 -9 52 -37 76 -64 51 -54 92 -83 122 -83 27 0 32 19 19 71 -7 24 -15 67 -20
94 -5 28 -13 70 -20 95 -6 25 -9 56 -7 69 7 35 -2 51 -28 51 -15 0 -26 -8 -30
-19z m55 -197 c12 -31 13 -104 1 -104 -5 0 -28 18 -52 39 l-44 39 24 26 c31
33 59 33 71 0z"/>
<path d="M2301 9777 c-11 -19 -21 -41 -21 -49 0 -9 -12 -18 -27 -22 -40 -9
-87 -50 -80 -70 9 -22 34 -20 42 4 8 27 29 25 52 -4 10 -13 28 -26 40 -30 20
-6 20 -3 19 68 0 41 2 78 7 82 17 17 31 -20 33 -84 1 -58 4 -67 20 -67 17 0
19 8 17 67 -2 119 -58 176 -102 105z"/>
<path d="M4265 9751 c-10 -17 17 -59 42 -66 13 -3 44 -24 69 -47 35 -32 44
-47 44 -74 0 -39 -18 -84 -34 -84 -6 0 -33 18 -60 40 -48 40 -88 51 -103 28
-4 -7 -10 -35 -13 -63 l-5 -50 -47 3 c-52 4 -104 -17 -111 -45 -3 -10 -8 -35
-12 -55 -3 -21 -10 -38 -15 -38 -10 0 -86 -105 -116 -160 -10 -19 -25 -40 -33
-46 -8 -6 -12 -17 -9 -24 3 -9 15 1 34 27 74 102 129 163 146 163 10 0 18 -5
18 -12 0 -21 72 -79 94 -76 17 2 21 11 22 46 1 28 -4 46 -12 49 -8 3 -14 11
-14 18 0 6 -15 16 -32 21 -37 11 -47 39 -28 74 12 23 8 23 113 4 46 -8 63 13
47 60 -8 26 -8 41 0 56 11 20 11 20 48 -7 20 -16 46 -38 57 -50 19 -21 35 -27
62 -24 7 0 20 27 29 59 9 31 18 60 21 65 2 4 22 -6 43 -23 45 -35 56 -37 63
-9 4 15 -1 23 -21 30 -27 11 -72 54 -72 70 0 5 9 28 20 50 20 37 20 59 0 59
-4 0 -20 -20 -35 -45 l-26 -46 -47 40 c-26 22 -60 51 -76 65 -31 28 -42 31
-51 17z"/>
<path d="M5932 9638 c-16 -16 -15 -50 3 -74 8 -10 15 -30 15 -43 0 -24 -1 -24
-71 -17 -69 6 -70 6 -67 -16 3 -21 11 -24 73 -30 107 -12 154 4 122 40 -8 9
-17 29 -21 45 -8 33 12 37 39 7 22 -24 34 -25 42 -5 6 17 -50 75 -73 75 -6 0
-17 7 -24 15 -15 18 -22 19 -38 3z"/>
<path d="M2034 9488 c-6 -10 7 -25 56 -62 17 -12 90 -112 90 -123 0 -4 -16
-30 -37 -60 -20 -29 -34 -55 -31 -58 2 -3 23 13 46 36 40 38 62 44 62 15 0 -7
9 -21 20 -31 19 -18 20 -17 20 3 0 12 -5 42 -12 66 -11 42 -10 47 10 64 12 11
22 24 22 30 0 23 -20 21 -46 -3 l-27 -25 -29 33 c-16 17 -36 43 -44 57 -13 22
-74 70 -88 70 -3 0 -8 -5 -12 -12z"/>
<path d="M4990 9479 c-6 -11 -14 -51 -17 -89 l-6 -69 37 -35 c40 -39 84 -48
106 -21 7 9 15 37 18 63 4 43 0 53 -39 110 -46 67 -78 80 -99 41z m43 -66 c-3
-7 -9 -13 -14 -13 -11 0 -12 34 -2 43 9 10 22 -13 16 -30z m38 -73 c10 0 12
-53 2 -63 -3 -4 -17 2 -29 14 -22 21 -22 39 0 68 9 12 12 12 14 -2 2 -10 8
-17 13 -17z"/>
<path d="M5695 9430 c-17 -19 -18 -28 -3 -124 2 -15 -9 -24 -50 -40 -30 -12
-58 -29 -63 -38 -11 -20 1 -24 29 -9 9 5 36 12 59 16 l41 6 45 -69 c44 -67
117 -145 159 -168 22 -12 65 -7 74 8 3 5 1 29 -6 54 -9 32 -30 61 -79 110 -36
36 -74 69 -84 73 -18 7 -18 8 -2 24 21 21 16 52 -9 52 -14 0 -22 12 -31 49
-11 44 -35 76 -55 76 -4 0 -15 -9 -25 -20z m48 -108 c4 -21 3 -31 -3 -27 -6 3
-10 20 -10 37 0 38 5 34 13 -10z m130 -164 c51 -53 72 -92 63 -115 -10 -26
-35 -12 -87 50 -30 34 -57 64 -60 67 -3 3 -9 18 -13 34 -7 27 -6 28 21 22 15
-4 50 -30 76 -58z"/>
<path d="M4855 9260 c-4 -6 3 -35 14 -65 18 -48 19 -56 6 -61 -8 -4 -21 -1
-28 4 -19 16 -83 18 -100 4 -8 -7 -13 -20 -12 -30 12 -61 17 -72 30 -72 15 0
19 16 16 53 -3 23 11 22 80 -9 48 -22 62 -24 74 -14 17 14 21 60 5 60 -5 0
-10 11 -10 25 0 29 6 31 26 10 20 -19 33 -19 41 0 7 19 -19 49 -69 81 -40 26
-63 30 -73 14z"/>
<path d="M2847 9220 c-22 -26 -37 -56 -41 -82 -6 -36 -3 -45 21 -70 31 -32 58
-35 107 -12 39 19 50 45 36 89 -5 17 -12 41 -14 55 -4 21 -50 60 -69 60 -3 0
-21 -18 -40 -40z m63 -37 c0 -63 -12 -103 -31 -103 -25 0 -42 35 -34 71 13 57
65 83 65 32z"/>
<path d="M4290 9020 c-38 -9 -80 -51 -80 -79 0 -38 45 -75 130 -108 52 -20
180 -86 180 -93 0 -12 90 -51 100 -45 6 4 10 19 10 36 0 33 12 37 37 10 19
-19 73 -37 73 -23 0 19 -92 103 -119 108 -24 5 -31 2 -47 -25 -10 -17 -21 -30
-24 -29 -62 32 -118 63 -130 73 -8 7 -39 18 -67 25 -29 6 -53 16 -53 20 0 4
-9 10 -21 13 -16 4 -20 12 -17 34 5 42 63 68 115 50 38 -13 38 -13 36 -65 -1
-29 1 -52 5 -52 28 1 57 60 47 97 -6 27 -72 63 -112 62 -15 -1 -44 -5 -63 -9z"/>
<path d="M3559 8949 c-17 -17 -19 -27 -13 -67 6 -45 45 -104 81 -125 23 -14
73 12 73 37 0 11 4 27 9 35 7 11 12 9 22 -10 22 -43 71 -98 111 -125 33 -23
41 -25 49 -13 11 18 12 39 1 39 -24 0 -127 103 -153 153 -11 21 -30 42 -42 46
-12 5 -31 18 -41 30 -24 27 -70 27 -97 0z m66 -56 c1 -17 6 -37 13 -46 7 -8
10 -22 6 -31 -15 -39 -43 -5 -51 64 -5 47 -4 52 13 48 14 -2 19 -12 19 -35z"/>
<path d="M1473 8944 c-3 -9 -1 -24 6 -33 6 -9 24 -36 39 -61 15 -24 48 -67 75
-96 26 -28 47 -57 47 -65 0 -8 -14 -34 -30 -58 -17 -24 -30 -48 -30 -53 0 -4
-7 -8 -15 -8 -8 0 -15 -7 -15 -15 0 -8 7 -15 15 -15 8 0 15 3 15 8 0 12 103
119 121 125 9 3 19 19 22 36 4 17 20 45 37 62 32 34 37 53 18 65 -11 7 -42
-23 -81 -80 -17 -24 -20 -25 -39 -12 -12 8 -39 37 -60 63 -22 26 -46 56 -55
67 -8 10 -21 34 -29 52 -15 37 -31 43 -41 18z"/>
<path d="M2664 8949 c-4 -7 13 -29 41 -52 44 -37 46 -42 40 -76 -3 -20 -15
-49 -27 -64 -13 -19 -17 -32 -10 -39 6 -6 21 9 42 42 26 40 35 48 46 39 8 -6
14 -20 14 -30 0 -11 4 -19 9 -19 5 0 12 -12 15 -26 6 -22 1 -32 -26 -55 -25
-21 -30 -30 -21 -39 17 -19 65 -15 80 6 22 30 17 55 -35 185 -8 20 -7 33 4 54
8 15 14 31 14 35 0 14 -32 21 -46 9 -11 -9 -22 -7 -49 5 -19 9 -37 21 -40 26
-8 14 -42 13 -51 -1z"/>
<path d="M4700 8948 c0 -6 6 -27 12 -46 11 -28 16 -33 38 -28 21 4 35 -6 81
-56 61 -65 79 -66 49 -3 -25 53 -66 96 -118 123 -48 25 -62 27 -62 10z"/>
<path d="M3478 8770 c-23 -19 -23 -19 -3 -34 11 -8 30 -16 41 -16 12 0 27 -7
34 -15 20 -25 40 -18 40 14 0 32 -11 43 -57 59 -27 9 -36 8 -55 -8z"/>
<path d="M1379 8692 c-17 -7 -78 -82 -99 -122 -11 -21 -12 -21 -31 -4 -15 14
-24 15 -44 6 -42 -19 -60 -67 -58 -158 1 -79 1 -81 -28 -98 -35 -20 -39 -41
-6 -30 40 13 49 9 69 -25 32 -56 107 -149 141 -175 85 -65 117 46 45 154 -40
60 -90 91 -185 116 -20 5 -16 110 4 145 22 36 28 36 42 1 8 -20 9 -41 3 -70
-8 -31 -7 -42 4 -46 19 -7 25 7 32 77 3 39 13 75 28 97 24 38 84 94 92 86 2
-3 -3 -23 -12 -46 -28 -70 -14 -140 27 -140 44 1 55 13 67 71 13 59 9 134 -7
150 -13 13 -65 20 -84 11z m59 -121 c4 -26 -24 -74 -38 -66 -13 8 -12 39 2 70
13 30 32 28 36 -4z m-132 -311 c51 -43 80 -130 53 -157 -20 -20 -44 -2 -96 76
-62 92 -69 107 -53 126 10 12 15 11 39 -3 15 -9 41 -28 57 -42z"/>
<path d="M6062 8632 c-24 -4 -72 -66 -72 -92 0 -9 -6 -24 -13 -33 -11 -16 -16
-16 -58 -4 -52 16 -67 11 -112 -36 -27 -29 -31 -47 -12 -50 6 -1 11 8 13 19 3
22 28 34 67 34 27 -1 70 -40 82 -75 11 -33 43 -57 50 -37 3 6 17 12 32 12 48
0 101 81 101 153 0 81 -26 118 -78 109z m38 -87 c8 -44 1 -69 -28 -104 -25
-29 -29 -30 -52 -18 -20 10 -25 20 -23 47 1 31 15 69 37 98 5 7 21 12 35 10
20 -2 27 -10 31 -33z"/>
<path d="M3308 8523 c-27 -7 -22 -46 10 -75 21 -19 60 -48 100 -73 2 -2 -22
-57 -42 -94 -8 -15 -24 -25 -41 -27 -15 -2 -35 -10 -45 -19 -17 -15 -20 -14
-51 20 -39 42 -82 46 -87 7 -3 -18 5 -26 42 -42 50 -21 55 -32 28 -71 -59 -88
-61 -93 -50 -106 17 -21 28 -16 43 20 8 17 26 45 40 62 l25 30 48 -48 c26 -26
53 -47 60 -47 18 0 14 37 -6 52 -9 7 -30 30 -45 51 l-28 37 35 0 c33 0 36 3
46 41 11 39 57 100 76 99 5 -1 27 -19 49 -40 44 -44 75 -52 75 -20 0 11 -4 20
-9 20 -5 0 -28 18 -51 41 -38 37 -41 44 -31 66 6 13 24 32 41 41 33 19 37 30
14 39 -22 8 -63 -17 -80 -49 -19 -36 -38 -35 -81 2 -18 17 -38 30 -43 30 -5 0
-8 12 -7 26 2 28 -6 35 -35 27z"/>
<path d="M2294 8499 c-7 -11 13 -85 28 -105 12 -16 38 -118 31 -124 -2 -3 -20
12 -39 32 -30 33 -35 36 -49 22 -10 -11 -15 -36 -15 -85 0 -38 -4 -69 -8 -69
-5 0 -18 14 -30 30 -15 19 -31 30 -47 30 -34 0 -31 -21 5 -45 17 -11 33 -29
36 -40 9 -30 35 -55 56 -55 10 0 18 3 19 8 0 4 2 38 5 77 3 38 6 71 8 72 1 1
19 -11 39 -28 51 -42 67 -33 67 33 1 46 2 51 14 36 7 -10 18 -18 24 -18 25 0
17 33 -21 86 -23 33 -53 80 -65 107 -23 46 -44 59 -58 36z"/>
<path d="M5688 8418 c-14 -17 -14 -24 -1 -70 13 -41 13 -54 2 -74 -7 -13 -20
-24 -30 -24 -10 0 -30 -5 -44 -12 -21 -10 -33 -8 -71 11 -33 17 -54 21 -80 17
-37 -7 -124 -61 -124 -77 0 -5 -9 -9 -20 -9 -11 0 -20 -4 -20 -10 0 -18 25
-10 59 20 25 22 44 30 72 30 22 0 39 -3 39 -6 0 -3 -5 -24 -11 -47 -15 -61 0
-94 47 -103 32 -6 39 -3 60 22 24 27 31 44 36 94 3 23 8 26 62 31 60 7 76 18
76 55 0 13 8 24 20 27 28 7 25 37 -7 91 -33 54 -44 60 -65 34z m-138 -258 c0
-18 -8 -34 -22 -44 -40 -28 -50 -1 -18 52 23 38 40 34 40 -8z"/>
<path d="M3627 8393 c-17 -16 -4 -31 33 -37 22 -3 40 -11 40 -16 0 -6 11 -10
25 -10 19 0 25 5 25 23 0 17 -9 25 -40 35 -44 13 -73 15 -83 5z"/>
<path d="M823 8165 c-15 -17 -17 -45 -4 -45 6 0 10 -8 9 -17 0 -10 3 -39 7
-65 9 -59 -7 -64 -46 -16 -23 28 -29 30 -43 19 -9 -7 -16 -26 -16 -41 0 -15
-3 -48 -6 -74 l-7 -47 -38 37 c-37 36 -38 37 -63 20 -15 -9 -26 -23 -26 -31 0
-20 16 -19 24 1 6 15 8 15 28 -2 11 -11 27 -33 34 -51 15 -35 52 -53 65 -32 4
8 11 39 14 69 10 85 13 89 39 58 36 -46 76 -33 76 23 0 20 4 23 53 33 36 8 39
46 3 46 -30 0 -43 16 -62 79 -16 54 -21 59 -41 36z"/>
<path d="M2082 8093 c-10 -16 -22 -41 -26 -56 -4 -16 -17 -33 -32 -39 -13 -6
-32 -28 -41 -47 -9 -20 -19 -40 -21 -46 -3 -5 11 5 30 23 35 33 36 33 50 14 7
-11 22 -22 33 -24 17 -3 20 3 21 42 0 25 2 56 3 70 3 24 3 24 16 -6 10 -23 12
-46 6 -84 -8 -53 2 -72 30 -54 18 11 5 176 -16 208 -22 33 -29 33 -53 -1z"/>
<path d="M1718 8102 c-27 -3 -78 -53 -78 -75 0 -7 10 -22 23 -34 80 -78 121
-121 135 -143 9 -14 24 -31 34 -38 9 -6 22 -29 28 -50 17 -52 38 -82 57 -82 9
0 21 -8 28 -17 11 -15 15 -15 29 -4 22 18 22 128 0 159 -19 28 -32 28 -61 1
-18 -18 -25 -20 -38 -9 -8 7 -15 18 -15 24 0 7 -41 54 -90 106 -85 88 -89 94
-74 112 10 10 25 18 36 18 10 0 18 4 18 10 0 6 9 6 24 0 18 -6 28 -5 36 5 9
11 7 15 -12 19 -12 3 -30 4 -38 3 -8 -1 -27 -3 -42 -5z m232 -378 c0 -14 -4
-22 -10 -19 -5 3 -10 17 -10 31 0 14 4 22 10 19 6 -3 10 -17 10 -31z"/>
<path d="M1835 8030 c0 -82 12 -86 39 -12 20 55 12 82 -23 82 -13 0 -16 -12
-16 -70z"/>
<path d="M2953 8059 c-17 -11 -36 -33 -42 -50 -9 -26 -13 -29 -30 -20 -14 8
-22 7 -32 -5 -10 -13 -8 -25 15 -70 36 -75 44 -138 21 -164 -10 -11 -28 -20
-40 -20 -29 0 -37 -10 -24 -27 18 -21 56 -15 89 15 32 29 37 59 24 135 -4 24
-2 37 5 37 16 0 13 27 -6 56 -16 25 -16 27 20 60 22 21 46 34 62 34 l27 0 -7
-63 c-6 -57 -5 -64 19 -90 31 -34 77 -36 106 -5 24 27 25 58 3 120 -16 44 -19
48 -60 54 -24 3 -43 10 -43 15 0 17 -75 9 -107 -12z m172 -98 c14 -33 15 -43
5 -56 -18 -21 -26 -19 -48 13 -18 25 -19 31 -6 60 16 39 24 37 49 -17z"/>
<path d="M4854 7876 c-3 -13 -1 -41 5 -62 16 -59 14 -173 -3 -180 -38 -15 -72
35 -111 161 -23 76 -28 82 -59 66 -21 -12 -23 -17 -15 -40 6 -14 18 -35 28
-46 9 -11 26 -40 36 -65 42 -100 78 -140 125 -140 23 0 35 24 45 93 6 37 11
47 26 47 29 0 34 26 10 56 -12 15 -28 51 -37 81 -16 57 -39 70 -50 29z"/>
<path d="M502 7847 c-16 -19 -52 -106 -52 -126 0 -9 13 -41 28 -71 23 -44 34
-55 53 -55 38 0 35 31 -5 57 -29 18 -36 29 -36 55 0 36 28 113 41 113 4 0 14
-18 20 -40 17 -57 43 -55 34 3 -11 65 -54 99 -83 64z"/>
<path d="M2654 7785 c-3 -7 -3 -31 0 -52 4 -21 9 -55 13 -75 7 -45 -11 -51
-56 -17 -21 15 -37 19 -57 15 -33 -8 -68 -50 -60 -72 8 -22 32 -17 44 11 15
32 25 32 71 -6 28 -22 47 -30 67 -27 27 3 29 6 32 56 3 46 5 52 22 47 10 -3
21 -1 24 4 7 11 -13 61 -25 61 -4 0 -11 9 -14 20 -7 23 -32 50 -46 50 -5 0
-12 -7 -15 -15z"/>
<path d="M5903 7783 c-24 -22 -41 -81 -42 -147 0 -27 -2 -51 -5 -53 -3 -3 -22
-7 -43 -10 -45 -6 -83 -28 -83 -48 0 -19 24 -19 40 0 7 8 28 15 46 15 41 0 60
-25 73 -97 20 -104 106 -235 145 -220 25 10 30 53 12 106 -9 28 -16 58 -16 68
0 10 -7 29 -16 41 -12 18 -13 26 -4 37 35 42 25 206 -17 274 -33 53 -58 62
-90 34z m69 -50 c10 -9 18 -24 18 -34 0 -10 5 -21 11 -25 17 -10 5 -142 -14
-161 -14 -14 -18 -13 -47 7 -17 12 -36 33 -41 47 -12 32 -11 99 2 146 11 42
38 50 71 20z m15 -335 c39 -83 46 -142 16 -136 -20 4 -72 94 -73 125 0 36 41
44 57 11z"/>
<path d="M323 7688 c-12 -13 -26 -40 -31 -60 -12 -45 -2 -61 50 -77 20 -7 41
-18 48 -26 13 -16 3 -65 -16 -72 -21 -8 -17 -33 6 -33 38 0 71 88 49 131 -5 9
-29 25 -54 35 -46 20 -54 31 -33 52 9 9 16 8 31 -5 18 -17 19 -17 12 22 -4 22
-10 43 -12 48 -8 13 -29 7 -50 -15z"/>
<path d="M4452 7659 c-23 -23 -42 -51 -42 -63 0 -18 6 -14 38 22 23 25 46 42
60 42 26 0 27 -8 7 -46 -43 -84 30 -197 89 -138 11 11 16 35 16 80 0 53 -5 72
-26 104 -23 34 -32 40 -63 40 -29 0 -45 -8 -79 -41z m126 -105 c-2 -15 -9 -29
-15 -32 -19 -6 -27 26 -14 55 15 33 34 18 29 -23z"/>
<path d="M1563 7594 c-3 -9 4 -39 16 -68 22 -54 27 -91 13 -100 -5 -3 -25 6
-45 19 -44 31 -80 36 -85 14 -2 -11 14 -26 50 -46 84 -48 94 -49 128 -14 17
16 30 35 30 41 0 19 -81 170 -91 170 -5 0 -12 -7 -16 -16z"/>
<path d="M4255 7577 c-10 -17 -14 -43 -11 -95 3 -56 0 -74 -11 -80 -21 -12 13
-82 40 -82 18 0 19 5 12 58 -8 68 -8 58 -6 110 0 23 6 42 12 42 19 0 48 -44
55 -82 4 -21 12 -38 19 -38 10 0 12 16 8 62 -4 56 -22 102 -48 120 -20 15 -55
7 -70 -15z"/>
<path d="M2338 7486 c-15 -19 -30 -46 -34 -60 -5 -22 -3 -26 15 -26 16 0 23 8
27 29 4 17 14 37 24 46 16 14 18 14 30 0 11 -13 10 -22 -3 -51 -25 -51 -22
-89 9 -113 74 -58 131 21 89 122 -17 42 -72 87 -106 87 -15 0 -34 -12 -51 -34z
m120 -113 c-3 -30 -25 -42 -34 -19 -9 22 2 46 21 46 12 0 15 -8 13 -27z"/>
<path d="M163 7503 c-23 -8 -14 -42 12 -49 25 -6 75 -63 75 -86 0 -7 -14 -33
-30 -57 -22 -32 -27 -48 -20 -55 11 -11 26 3 49 43 13 22 39 5 49 -30 4 -18
13 -34 19 -36 20 -7 24 34 7 77 -14 35 -15 46 -5 62 14 23 8 33 -22 33 -12 0
-26 10 -33 23 -25 51 -71 85 -101 75z"/>
<path d="M4048 7477 c-14 -12 -40 -39 -57 -61 -17 -21 -31 -34 -31 -27 0 14
-43 14 -57 0 -8 -8 -10 -39 -6 -94 4 -56 2 -84 -6 -89 -6 -4 -11 -15 -11 -23
0 -23 -42 -83 -57 -83 -7 0 -13 -9 -13 -20 0 -58 82 25 114 116 13 36 27 59
36 59 16 0 17 18 5 78 -6 32 -5 37 11 37 11 0 28 13 38 29 23 34 82 66 92 50
3 -5 -2 -26 -11 -46 -16 -32 -16 -44 -5 -105 10 -58 16 -71 37 -81 38 -17 53
11 53 100 0 81 -22 139 -62 167 -29 21 -38 20 -70 -7z m88 -144 c-11 -11 -19
6 -11 24 8 17 8 17 12 0 3 -10 2 -21 -1 -24z m4 -33 c0 -5 -4 -10 -10 -10 -5
0 -10 5 -10 10 0 6 5 10 10 10 6 0 10 -4 10 -10z"/>
<path d="M5566 7493 c-31 -8 -59 -40 -52 -59 6 -15 9 -15 29 5 27 24 50 27 66
7 9 -11 8 -26 -5 -65 -19 -58 -15 -73 20 -96 54 -36 88 3 92 107 2 61 0 68
-17 68 -10 0 -33 9 -51 20 -33 20 -46 22 -82 13z m97 -132 c5 -19 -9 -41 -25
-41 -10 0 -11 44 -1 53 11 12 21 8 26 -12z"/>
<path d="M1030 7437 c0 -18 21 -37 41 -37 33 0 38 -47 8 -79 -20 -22 -20 -23
-3 -36 17 -12 22 -11 46 12 23 22 30 24 43 13 20 -17 13 -51 -21 -101 -29 -43
-30 -49 -4 -49 37 0 90 74 90 125 0 15 5 35 11 47 9 16 7 24 -10 39 -12 11
-21 24 -21 29 0 6 -13 10 -29 10 -15 0 -40 9 -54 20 -29 23 -97 28 -97 7z"/>
<path d="M1381 7356 c-14 -17 -7 -36 13 -36 7 0 21 -9 30 -19 21 -23 76 -45
76 -30 0 19 -51 89 -64 89 -8 0 -21 2 -29 5 -7 3 -19 -1 -26 -9z"/>
<path d="M5253 7351 c-38 -39 -73 -83 -73 -91 0 -7 24 -20 36 -20 2 0 4 8 4
19 0 10 11 29 23 43 28 31 73 30 98 -1 19 -23 18 -95 0 -129 -15 -28 -14 -32
8 -32 18 0 21 5 41 64 14 43 1 112 -26 141 -29 31 -85 34 -111 6z"/>
<path d="M2169 7327 c-22 -31 -52 -125 -45 -142 8 -21 52 -19 75 4 24 24 71
36 72 19 3 -32 -4 -65 -18 -86 -16 -26 -11 -52 9 -52 15 0 58 92 58 124 0 34
-21 55 -60 58 l-35 3 3 48 c4 44 2 47 -20 47 -12 0 -30 -11 -39 -23z"/>
<path d="M931 7281 c-19 -12 0 -37 36 -46 39 -9 54 12 24 36 -26 21 -39 23
-60 10z"/>
<path d="M1243 7214 c-10 -26 10 -68 40 -82 15 -7 27 -16 27 -20 0 -9 -49 -82
-67 -101 -11 -10 -11 -16 -2 -27 17 -21 27 -17 45 19 17 34 51 66 71 67 7 0
28 -13 46 -30 19 -16 40 -30 46 -30 20 0 11 37 -14 56 -33 25 -39 43 -18 66
13 14 14 21 4 31 -9 9 -18 8 -39 -4 -25 -14 -31 -14 -60 -1 -18 9 -32 23 -32
32 0 17 -18 40 -32 40 -5 0 -11 -7 -15 -16z"/>
<path d="M3200 7225 c0 -3 11 -31 25 -61 14 -30 25 -57 25 -60 0 -3 9 -17 19
-32 30 -41 31 -68 4 -64 -40 6 -67 -80 -44 -141 10 -25 65 -57 100 -57 31 0
39 27 29 105 -5 39 -8 89 -8 113 1 31 -3 42 -14 42 -9 0 -31 33 -53 78 -29 57
-45 78 -61 80 -12 2 -22 1 -22 -3z m105 -271 c32 -21 44 -73 20 -90 -13 -10
-22 -9 -45 4 -33 19 -43 44 -30 78 11 28 22 30 55 8z"/>
<path d="M5040 7185 c-15 -18 -7 -43 17 -52 10 -3 32 -22 50 -42 39 -44 63
-34 35 15 -54 96 -74 112 -102 79z"/>
<path d="M768 7159 c-20 -21 -24 -49 -8 -49 6 0 19 9 30 20 20 20 20 20 36 -5
9 -14 14 -34 11 -46 -6 -24 21 -39 34 -18 10 16 1 88 -14 107 -14 18 -70 13
-89 -9z"/>
<path d="M1011 7171 c-16 -10 -8 -41 11 -41 23 0 41 18 35 34 -7 18 -25 20
-46 7z"/>
<path d="M1991 7148 c-72 -42 -115 -117 -85 -147 12 -13 23 -13 84 3 80 21 97
15 78 -27 -7 -15 -16 -27 -20 -27 -5 0 -8 -12 -8 -26 0 -16 5 -24 13 -22 15 5
67 105 67 129 0 28 -35 42 -73 31 -66 -21 -97 -22 -97 -6 0 23 64 81 99 89 17
3 31 11 31 16 0 16 -54 8 -89 -13z"/>
<path d="M4820 7135 c-27 -28 -32 -41 -33 -85 -2 -47 1 -54 33 -80 19 -16 50
-37 68 -46 33 -15 34 -17 27 -60 -5 -37 -4 -44 10 -44 41 0 67 66 41 105 -9
14 -23 25 -31 25 -19 0 -87 48 -108 76 -15 20 -14 24 9 58 17 25 32 36 49 36
27 0 32 12 13 27 -30 23 -46 21 -78 -12z"/>
<path d="M1560 7109 c-24 -10 -24 -11 -6 -25 26 -19 76 -19 76 1 0 8 -9 19
-19 25 -23 12 -19 12 -51 -1z"/>
<path d="M655 7048 c-30 -17 -66 -58 -60 -69 11 -17 32 -9 44 17 18 41 36 24
33 -32 -4 -65 4 -91 28 -97 36 -9 53 20 47 81 -8 74 -52 122 -92 100z"/>
<path d="M1078 7031 c-30 -27 -33 -34 -33 -88 0 -51 4 -64 35 -105 34 -45 59
-57 68 -30 2 6 -3 12 -10 12 -28 0 -58 56 -58 107 0 47 20 93 40 93 6 0 22
-13 37 -30 36 -41 84 -41 50 0 -18 23 -77 70 -88 70 -5 0 -23 -13 -41 -29z"/>
<path d="M6070 7003 c-8 -2 -28 -22 -44 -44 -34 -49 -49 -155 -24 -180 8 -8
17 -21 20 -31 7 -18 105 -71 118 -63 18 11 40 77 40 123 0 86 -17 155 -46 180
-25 22 -34 24 -64 15z m34 -49 c9 -3 16 -12 16 -19 0 -8 6 -20 14 -28 10 -9
12 -28 9 -61 -5 -44 -8 -47 -31 -43 -18 3 -26 0 -29 -14 -3 -11 -11 -19 -18
-19 -40 0 -57 88 -29 149 19 40 35 48 68 35z"/>
<path d="M3059 6968 c0 -7 -2 -23 -3 -36 -2 -13 3 -26 9 -30 7 -4 15 -35 18
-70 5 -59 4 -64 -18 -74 -17 -7 -33 -7 -55 1 -34 11 -50 8 -50 -13 0 -25 107
-47 136 -28 6 4 15 23 18 42 4 19 11 46 16 60 13 33 -28 153 -53 158 -9 2 -17
-2 -18 -10z"/>
<path d="M5123 6973 c-20 -8 -15 -33 6 -33 11 0 23 -4 26 -10 6 -10 55 -15 55
-6 0 3 -11 16 -24 30 -23 25 -38 30 -63 19z"/>
<path d="M4573 6915 c-16 -18 -17 -35 -2 -35 6 0 29 -20 51 -45 39 -44 78 -59
78 -30 0 8 -4 15 -8 15 -5 0 -14 11 -20 25 -15 32 -62 85 -76 85 -6 -1 -17 -7
-23 -15z"/>
<path d="M523 6888 c-8 -14 -10 -19 -12 -44 -1 -13 -8 -15 -30 -11 -31 6 -51
-7 -51 -34 0 -24 18 -33 36 -18 12 9 20 9 39 -1 32 -17 55 -6 55 25 0 22 4 25
20 20 29 -9 27 25 -3 53 -26 25 -42 28 -54 10z"/>
<path d="M903 6880 c-26 -24 -43 -99 -43 -190 l0 -69 -45 -27 c-25 -14 -45
-30 -45 -34 0 -21 23 -19 53 4 19 15 37 26 40 26 3 0 21 -21 38 -47 18 -27 42
-55 53 -63 12 -8 30 -24 41 -36 26 -28 86 -49 117 -41 19 5 27 15 31 41 12 77
-27 144 -104 180 l-49 22 -3 100 c-3 80 -8 106 -23 127 -23 32 -34 33 -61 7z
m47 -50 c5 -10 10 -55 9 -99 -1 -75 -2 -80 -26 -85 -37 -10 -43 0 -43 73 0
108 31 165 60 111z m114 -271 c34 -38 46 -59 46 -83 0 -75 -54 -76 -126 -1
-59 61 -74 84 -74 114 0 19 6 21 54 21 52 0 56 -2 100 -51z"/>
<path d="M2786 6859 c-14 -11 -26 -29 -26 -40 0 -10 -4 -19 -10 -19 -14 0 -12
-63 3 -82 24 -30 62 -48 103 -48 38 0 42 2 48 31 3 17 6 54 6 81 0 84 -64 124
-124 77z m59 -27 c6 -4 10 -31 11 -59 1 -59 -13 -71 -60 -54 -33 13 -35 56 -5
95 21 26 36 32 54 18z"/>
<path d="M4311 6854 c-32 -41 -28 -101 10 -144 46 -54 51 -66 33 -84 -19 -19
-45 -20 -65 -3 -27 22 -51 69 -46 89 7 25 -1 48 -17 48 -14 0 -46 -36 -46 -53
0 -6 -6 -28 -13 -47 -35 -98 -83 -118 -127 -52 -32 48 -42 54 -59 37 -12 -12
-9 -20 23 -60 79 -96 122 -99 168 -15 16 30 33 59 38 63 4 5 24 -8 43 -30 31
-33 41 -38 80 -38 57 0 88 27 105 90 15 57 15 79 0 124 -31 94 -87 126 -127
75z m78 -58 c22 -34 29 -110 12 -121 -12 -7 -55 50 -68 91 -12 34 -1 64 22 64
7 0 23 -15 34 -34z"/>
<path d="M2507 6853 c-6 -11 25 -107 41 -126 11 -13 4 -24 -44 -77 -46 -49
-55 -63 -43 -71 9 -6 18 -4 25 6 17 22 85 66 96 63 6 -2 16 -22 24 -43 32 -95
30 -195 -5 -195 -11 0 -21 7 -25 15 -8 21 -36 19 -36 -2 1 -28 25 -52 58 -59
24 -5 32 -2 41 13 15 29 25 170 19 266 -2 17 1 42 5 54 7 19 4 25 -17 33 -17
6 -28 21 -36 49 -8 30 -17 42 -40 50 -17 5 -30 15 -30 20 0 12 -27 15 -33 4z"/>
<path d="M1736 6786 c-20 -30 -36 -58 -36 -62 0 -4 -10 -18 -21 -30 -12 -13
-19 -30 -16 -38 12 -30 32 -16 57 37 14 28 44 71 68 93 35 34 40 42 27 48 -32
12 -43 5 -79 -48z"/>
<path d="M5793 6797 c-9 -20 -6 -31 17 -68 15 -24 31 -58 35 -76 6 -29 3 -34
-34 -57 -22 -15 -46 -26 -52 -26 -6 0 -9 -6 -7 -12 12 -37 117 -1 129 43 17
61 10 116 -23 167 -37 57 -50 63 -65 29z"/>
<path d="M391 6704 c-6 -14 -9 -30 -6 -35 10 -15 35 -10 35 6 0 22 27 19 40
-4 5 -11 10 -31 10 -44 0 -28 28 -45 37 -22 3 9 3 30 -1 47 -14 71 -90 105
-115 52z"/>
<path d="M4636 6685 c-23 -17 -24 -17 34 -38 57 -21 60 -21 60 2 0 36 -62 60
-94 36z"/>
<path d="M2257 6653 c-15 -14 -5 -35 35 -73 28 -28 44 -37 49 -29 10 16 -9 59
-38 87 -25 23 -35 26 -46 15z"/>
<path d="M1982 6518 c-18 -18 -14 -48 12 -82 41 -54 42 -73 6 -117 -30 -38
-32 -59 -5 -59 7 0 23 12 34 26 26 33 51 28 65 -13 13 -37 44 -78 54 -69 3 4
-5 38 -18 76 -23 68 -24 70 -6 83 29 21 11 40 -30 32 -25 -4 -34 -2 -34 8 0 8
-9 22 -20 32 -11 10 -20 28 -20 40 0 11 -6 29 -13 38 -10 14 -15 15 -25 5z"/>
<path d="M299 6496 c-22 -17 -79 -93 -79 -105 0 -18 7 -13 49 32 l40 42 1 -28
c0 -30 16 -67 33 -79 17 -11 36 3 52 36 17 35 10 72 -16 93 -21 16 -65 21 -80
9z"/>
<path d="M5210 6460 c-8 -15 -6 -28 9 -58 11 -21 23 -55 26 -76 7 -32 4 -41
-21 -67 -17 -18 -38 -29 -55 -29 -34 0 -46 -17 -28 -36 16 -15 74 -10 99 9 27
21 50 65 50 95 0 21 6 31 20 35 20 5 29 47 11 47 -16 0 -55 42 -69 73 -14 32
-27 34 -42 7z"/>
<path d="M2856 6452 c-2 -4 9 -36 26 -69 32 -65 45 -148 26 -170 -16 -20 -45
-16 -62 9 -18 26 -5 58 24 58 21 0 24 8 14 34 -9 23 -25 20 -57 -9 -47 -44
-34 -103 30 -141 45 -26 45 -26 65 -6 15 15 22 41 29 108 l9 89 -36 52 c-34
49 -56 64 -68 45z"/>
<path d="M573 6437 c-25 -9 -33 -17 -33 -35 0 -20 3 -22 14 -13 8 7 28 16 45
21 26 7 31 6 37 -13 4 -12 6 -39 5 -60 -4 -52 22 -89 57 -85 25 3 27 6 26 53
-3 131 -1 125 -33 125 -17 0 -33 5 -36 10 -8 12 -39 11 -82 -3z"/>
<path d="M3723 6398 c-7 -7 -13 -38 -15 -68 -3 -63 -22 -75 -60 -40 -12 11
-29 19 -36 18 -7 -2 -27 -28 -44 -58 -35 -64 -42 -72 -36 -45 5 28 -39 52 -60
31 -13 -12 -11 -19 14 -53 43 -59 54 -66 76 -46 10 9 23 32 28 52 18 66 25 70
63 33 18 -17 38 -32 44 -32 18 0 53 50 53 76 0 29 4 30 31 3 14 -14 24 -18 31
-11 7 7 0 25 -21 55 -17 25 -31 50 -31 54 0 5 -6 17 -13 27 -11 15 -15 16 -24
4z"/>
<path d="M4958 6338 c-13 -18 -28 -42 -34 -53 -6 -11 -22 -22 -34 -23 -41 -6
-130 -74 -130 -99 0 -18 19 -16 26 2 8 19 91 58 105 50 5 -4 17 -24 26 -46 8
-21 20 -39 25 -39 5 0 16 -7 25 -15 8 -9 20 -14 25 -13 16 6 48 98 55 160 10
98 -42 142 -89 76z m52 -67 c0 -21 -6 -50 -13 -64 l-13 -26 -13 35 c-12 34 -8
67 11 91 16 20 28 5 28 -36z"/>
<path d="M2371 6336 c-13 -15 -10 -18 38 -43 12 -7 27 -10 32 -7 18 11 8 33
-23 48 -37 19 -33 19 -47 2z"/>
<path d="M1651 6298 l-39 -41 -31 22 c-20 14 -38 20 -51 16 -21 -7 -70 -64
-70 -82 0 -6 -10 -22 -21 -37 -15 -18 -18 -31 -12 -37 7 -7 18 4 32 33 12 24
30 54 41 68 18 24 21 24 47 10 20 -11 31 -28 38 -57 12 -47 34 -77 42 -55 3 9
16 11 39 6 39 -7 65 10 90 58 17 33 18 61 2 105 -18 49 -57 46 -107 -9z m75
-25 c9 -36 -13 -73 -55 -90 l-34 -14 6 43 c4 29 14 50 32 65 34 30 43 29 51
-4z"/>
<path d="M2593 6268 c-6 -13 -14 -31 -17 -40 -3 -10 -24 -25 -46 -34 -48 -19
-69 -48 -43 -59 11 -3 22 0 29 9 8 12 18 13 43 6 31 -9 33 -7 47 25 8 19 17
35 19 35 3 0 20 -30 38 -67 34 -70 57 -91 57 -52 0 29 -22 89 -32 89 -4 0 -8
6 -8 13 0 17 -57 97 -68 97 -5 0 -13 -10 -19 -22z"/>
<path d="M3318 6198 c-9 -7 -28 -32 -42 -55 -26 -43 -41 -53 -48 -31 -8 24
-56 -2 -81 -44 -32 -54 -24 -70 13 -27 27 33 27 33 54 16 14 -10 26 -26 26
-36 0 -10 7 -24 16 -32 21 -18 34 3 34 57 0 52 18 104 36 104 27 0 13 -80 -28
-167 -13 -26 -4 -53 15 -53 23 0 49 82 62 193 9 77 -15 108 -57 75z"/>
<path d="M1260 6133 c-25 -32 -22 -86 7 -129 25 -39 50 -48 80 -29 31 21 39
13 52 -50 19 -95 27 -119 39 -123 19 -6 15 80 -6 130 -11 24 -22 61 -26 83
-10 51 -29 88 -63 120 -36 32 -56 32 -83 -2z m58 -25 c17 -22 10 -92 -10 -96
-12 -2 -20 7 -28 36 -15 59 8 96 38 60z"/>
<path d="M2344 6112 c-44 -18 -94 -52 -94 -64 0 -10 31 2 51 19 21 18 95 21
111 5 9 -9 7 -13 -8 -17 -51 -17 -67 -51 -44 -95 24 -46 93 -4 106 66 6 34 4
40 -29 71 -42 38 -39 37 -93 15z"/>
<path d="M4554 6088 c-5 -18 1 -29 35 -58 47 -41 52 -70 16 -94 -27 -18 -34
-46 -11 -46 7 0 19 7 26 15 24 29 100 11 100 -23 0 -12 30 -25 38 -17 6 5 1
21 -23 77 -5 13 0 19 19 24 19 4 26 13 26 30 0 28 -8 29 -58 8 l-37 -15 -30
34 c-16 18 -40 45 -52 60 -28 33 -39 34 -49 5z"/>
<path d="M6000 6018 c-26 -58 -26 -131 1 -174 27 -45 88 -63 126 -39 13 9 26
15 28 13 1 -2 20 -36 41 -76 40 -77 67 -104 78 -76 4 9 -3 27 -16 43 -20 23
-38 59 -68 136 -82 206 -148 266 -190 173z m65 -14 c26 -17 34 -57 14 -70 -7
-4 -2 -11 13 -18 29 -15 34 -38 12 -71 -32 -49 -94 -4 -94 70 0 39 16 105 26
105 3 0 16 -7 29 -16z"/>
<path d="M1073 6013 c-14 -5 -18 -33 -5 -33 8 0 52 -83 72 -134 6 -16 13 -50
16 -75 7 -64 13 -81 30 -81 16 0 20 74 5 112 -5 13 -24 61 -42 108 -42 109
-46 116 -76 103z"/>
<path d="M4395 5960 c-11 -36 96 -110 115 -79 6 9 -5 26 -38 56 -52 48 -68 53
-77 23z"/>
<path d="M846 5930 c-26 -17 -44 -35 -41 -40 10 -16 30 -12 59 11 44 34 56 20
49 -54 -5 -57 -3 -67 16 -86 27 -27 51 -24 68 9 31 61 4 152 -51 175 -46 20
-45 20 -100 -15z m124 -93 c0 -24 -19 -42 -30 -31 -9 9 -8 17 1 32 13 21 29
20 29 -1z"/>
<path d="M2963 5948 c-6 -7 -11 -52 -12 -100 -2 -94 -26 -168 -62 -191 -23
-14 -25 -45 -4 -54 9 -3 24 2 34 11 25 23 61 125 68 192 3 30 10 57 14 60 5 3
28 -34 51 -82 44 -89 68 -115 68 -72 0 26 -62 152 -90 183 -9 11 -23 30 -29
43 -13 25 -24 28 -38 10z"/>
<path d="M4216 5944 c-11 -28 -7 -48 26 -122 36 -82 33 -92 -33 -92 -39 0 -79
32 -79 64 0 25 -19 58 -30 51 -15 -9 -38 -66 -45 -110 -14 -88 -28 -96 -71
-40 -38 51 -60 60 -90 40 -28 -18 -24 -35 9 -35 15 0 33 -16 56 -50 44 -65
101 -81 101 -29 0 10 4 19 9 19 4 0 14 20 21 44 l12 45 52 -30 c29 -16 61 -29
71 -29 28 0 85 40 85 60 0 10 7 21 16 24 35 14 -11 166 -60 198 -19 13 -44 9
-50 -8z m68 -99 c5 -20 4 -27 -3 -20 -5 6 -13 24 -17 40 -4 20 -3 27 3 20 6
-5 14 -23 17 -40z"/>
<path d="M2795 5891 c-48 -12 -75 -30 -75 -51 0 -24 35 -28 44 -5 3 9 18 15
39 15 19 0 40 -7 47 -15 7 -8 21 -15 31 -15 35 0 17 42 -29 68 -12 6 -23 12
-24 11 -2 -1 -16 -4 -33 -8z"/>
<path d="M5713 5885 c-50 -21 -42 -37 16 -29 42 5 50 3 63 -15 13 -18 12 -27
-5 -80 -11 -33 -17 -67 -14 -76 7 -18 55 -38 73 -31 28 11 45 64 38 117 -6 42
-14 58 -47 90 -45 42 -71 48 -124 24z m123 -160 c-6 -17 -26 -20 -26 -5 0 16
24 40 28 29 2 -5 1 -16 -2 -24z"/>
<path d="M590 5849 c-10 -17 -9 -24 4 -37 20 -20 39 -4 34 29 -4 31 -24 35
-38 8z"/>
<path d="M1835 5768 c-27 -14 -45 -38 -45 -58 0 -19 18 -39 87 -95 124 -102
238 -237 257 -305 14 -47 29 -70 49 -70 15 0 18 5 13 23 -15 50 -17 109 -4
137 14 33 20 36 37 16 8 -9 8 -28 1 -66 -13 -70 -13 -80 4 -80 17 0 42 125 32
164 -12 50 -87 43 -100 -9 -8 -31 -29 -32 -49 -2 -19 28 -136 146 -216 217
-86 77 -82 97 19 91 43 -3 55 -14 55 -49 0 -36 31 -42 46 -8 19 40 4 72 -41
90 -46 18 -116 21 -145 4z"/>
<path d="M4500 5750 c-17 -11 -8 -32 16 -37 47 -10 59 -8 59 12 0 14 -9 21
-32 26 -17 3 -37 3 -43 -1z"/>
<path d="M2643 5723 c-22 -8 -14 -33 21 -69 49 -51 74 -29 41 35 -14 28 -39
41 -62 34z"/>
<path d="M3709 5663 c-13 -21 -26 -49 -29 -63 -4 -17 -13 -26 -33 -30 -28 -5
-97 -80 -97 -106 0 -22 -19 -26 -50 -10 -27 13 -32 13 -52 -4 -27 -22 -16 -39
28 -44 16 -2 32 -4 36 -5 9 -1 28 -69 28 -99 0 -31 53 -170 100 -262 4 -8 18
-15 31 -15 22 0 24 4 27 59 2 43 -2 70 -17 102 -12 24 -21 48 -21 53 0 17 -51
119 -65 131 -22 18 -18 62 8 101 26 39 57 51 57 21 0 -21 36 -59 47 -49 3 4
12 -1 19 -11 12 -16 15 -15 38 13 25 30 39 95 39 182 0 80 -54 100 -94 36z
m55 -29 c8 -22 -3 -81 -22 -119 l-15 -30 -9 30 c-18 63 25 174 46 119z m-149
-365 c20 -38 35 -120 26 -137 -8 -15 -16 1 -45 91 -28 84 -15 113 19 46z"/>
<path d="M2479 5654 c-7 -9 -15 -42 -17 -75 -2 -33 -9 -62 -15 -66 -6 -3 -21
6 -33 20 -27 32 -59 35 -74 8 -11 -21 -1 -34 22 -26 7 2 22 -10 33 -28 16 -24
28 -32 50 -32 29 0 30 2 43 65 16 82 26 93 46 46 17 -40 31 -46 41 -16 7 21
-15 61 -51 98 -27 26 -28 26 -45 6z"/>
<path d="M1765 5560 c-26 -43 20 -182 63 -188 27 -4 31 28 6 48 -26 22 -38 53
-39 99 0 43 -16 64 -30 41z"/>
<path d="M5290 5523 c0 -22 9 -33 40 -50 48 -28 60 -29 60 -4 0 30 -48 81 -76
81 -20 0 -24 -5 -24 -27z"/>
<path d="M2784 5485 c-4 -9 -2 -21 4 -27 16 -16 47 -5 47 17 0 26 -42 34 -51
10z"/>
<path d="M5090 5352 c0 -10 14 -31 30 -45 17 -15 30 -37 30 -50 0 -24 -51 -79
-82 -90 -24 -9 -23 -27 2 -27 11 0 20 4 20 8 0 10 93 72 108 72 6 0 23 -18 39
-40 15 -22 36 -40 45 -40 15 0 16 4 6 33 -6 17 -20 42 -31 55 l-21 22 37 38
c20 21 37 41 37 45 0 17 -42 4 -71 -22 -33 -31 -40 -30 -80 2 -9 7 -18 21 -20
32 -6 27 -49 34 -49 7z"/>
<path d="M4348 5338 c-9 -7 -19 -31 -23 -53 -4 -22 -11 -46 -17 -53 -6 -7 -8
-32 -6 -57 3 -25 2 -47 -2 -50 -4 -3 -11 -34 -15 -69 -3 -36 -12 -69 -18 -74
-7 -5 -48 -4 -100 2 -78 10 -90 10 -103 -5 -21 -24 -3 -33 66 -35 65 -1 120
-11 136 -25 6 -5 12 -31 13 -57 2 -80 30 -283 41 -297 6 -7 8 -19 5 -27 -7
-17 19 -43 35 -33 15 9 13 32 -14 147 -31 130 -42 234 -27 252 9 11 23 11 74
2 34 -7 69 -16 77 -21 8 -5 23 -10 34 -12 115 -17 108 -17 104 8 -2 13 -9 23
-16 21 -7 -1 -36 4 -65 13 -29 8 -65 17 -82 20 -126 21 -128 23 -111 135 14
90 28 134 45 145 6 3 11 15 11 26 0 10 5 27 11 37 7 12 7 25 0 45 -11 29 -28
34 -53 15z"/>
<path d="M5455 5320 c-10 -15 3 -29 42 -45 39 -16 53 -13 53 14 0 26 -81 53
-95 31z"/>
<path d="M6204 5210 c-24 -9 -44 -57 -44 -104 0 -33 28 -72 70 -98 25 -16 32
-16 81 -3 25 6 26 4 39 -55 7 -33 17 -63 21 -66 5 -3 9 -14 9 -24 0 -24 18
-36 33 -21 8 8 5 24 -10 58 -25 59 -43 114 -43 134 0 21 -96 166 -117 177 -10
5 -28 6 -39 2z m60 -73 c15 -19 26 -37 26 -41 0 -17 -44 -64 -56 -59 -22 8
-45 79 -34 108 13 34 34 31 64 -8z"/>
<path d="M3330 5070 c0 -5 -6 -10 -13 -10 -23 0 -59 -32 -49 -42 7 -7 22 -4
45 11 67 41 91 22 53 -43 -24 -42 -25 -44 -8 -77 36 -73 116 -35 124 59 4 43
1 50 -30 80 -27 26 -41 32 -78 32 -24 0 -44 -4 -44 -10z m107 -106 c3 -8 -2
-23 -11 -32 -14 -15 -18 -15 -26 -3 -10 16 4 51 21 51 5 0 12 -7 16 -16z"/>
<path d="M5962 5005 c-35 -29 -85 -110 -80 -127 2 -6 15 6 28 28 26 42 45 64
55 64 4 0 13 7 21 15 20 20 74 20 74 1 0 -8 -4 -18 -10 -21 -5 -3 -10 -14 -10
-24 0 -10 -6 -24 -14 -30 -29 -25 13 -81 60 -81 15 0 30 12 44 35 19 30 20 39
10 76 -17 61 -49 89 -104 89 -33 0 -52 -6 -74 -25z m126 -107 c-6 -18 -28 -21
-28 -4 0 9 7 16 16 16 9 0 14 -5 12 -12z"/>
<path d="M5756 4843 c-4 -9 2 -25 14 -38 11 -12 20 -28 20 -36 0 -15 -30 -54
-86 -110 -20 -21 -33 -42 -30 -48 10 -16 37 0 99 59 29 27 55 50 59 50 11 0
34 -50 42 -89 5 -29 1 -38 -28 -67 -21 -21 -44 -34 -60 -34 -19 0 -26 -5 -26
-19 0 -30 20 -30 73 -3 59 30 82 69 73 126 -13 98 -27 142 -48 159 -13 10 -36
30 -52 43 -35 28 -42 29 -50 7z"/>
<path d="M3930 4814 c-17 -20 -36 -47 -42 -60 -10 -20 -16 -22 -57 -17 -44 5
-48 3 -82 -34 -30 -33 -39 -38 -57 -30 -12 6 -22 14 -22 19 0 4 -6 8 -14 8
-15 0 -26 -34 -30 -100 -4 -52 -15 -64 -47 -51 -17 6 -35 5 -58 -5 -41 -17
-36 -40 9 -36 19 1 45 -6 65 -18 18 -11 37 -20 42 -20 6 0 13 26 16 58 10 93
13 96 53 56 54 -53 73 -40 34 24 -23 38 -24 43 -7 36 7 -2 23 9 36 26 33 45
68 39 99 -18 23 -41 25 -42 60 -36 61 10 69 13 80 40 7 14 12 58 12 98 0 68
-2 74 -25 84 -33 15 -28 17 -65 -24z m48 -52 c2 -12 -2 -38 -8 -57 -22 -65
-70 -34 -55 35 11 49 57 65 63 22z"/>
<path d="M5512 4677 c-12 -13 -24 -37 -28 -53 -5 -26 -1 -35 31 -63 l38 -33
-27 -26 c-20 -21 -35 -26 -67 -26 -50 2 -66 17 -74 69 -12 72 -37 71 -51 -3
-7 -35 8 -55 69 -95 27 -17 93 -21 103 -5 3 4 15 8 28 8 12 0 36 15 54 33 31
32 31 32 23 106 -6 61 -12 76 -32 92 -31 24 -41 24 -67 -4z m52 -52 c21 -32
20 -55 -2 -55 -26 0 -42 20 -42 52 0 35 22 37 44 3z"/>
<path d="M3366 4479 c-15 -11 -35 -41 -46 -65 -18 -38 -25 -44 -53 -45 -48 -2
-49 -2 -84 -24 -18 -10 -33 -25 -33 -32 0 -22 20 -24 42 -3 26 24 57 21 101
-11 33 -24 49 -17 46 19 -4 41 10 88 31 107 17 15 19 15 27 0 15 -27 -3 -111
-32 -149 -26 -34 -27 -56 -2 -56 28 1 87 136 71 162 -3 5 -1 15 5 22 14 16 -5
69 -30 84 -14 9 -23 7 -43 -9z"/>
<path d="M5100 4428 c-89 -60 -87 -78 2 -29 41 23 80 41 86 41 21 0 13 -38
-18 -89 -36 -59 -45 -123 -17 -129 29 -6 65 6 88 31 68 70 78 141 28 188 -46
43 -90 40 -169 -13z m160 -69 c0 -27 -47 -89 -67 -89 -18 0 -16 25 3 41 9 7
20 23 25 36 8 23 39 33 39 12z"/>
<path d="M1554 4377 c-5 -7 -13 -20 -17 -30 -3 -9 -17 -21 -31 -27 -13 -5 -28
-15 -33 -23 -4 -8 -18 -19 -30 -26 -42 -21 -21 -104 22 -87 8 3 15 11 15 19 0
7 11 28 25 47 l24 33 12 -29 c6 -16 13 -44 16 -61 3 -18 9 -33 13 -33 4 0 12
-25 19 -56 8 -43 8 -67 0 -95 -10 -32 -9 -40 6 -55 17 -17 18 -17 35 4 l18 22
16 -31 c9 -18 16 -37 16 -43 0 -7 9 -29 20 -51 26 -51 25 -61 -5 -91 -27 -27
-34 -84 -12 -102 49 -39 97 -8 97 66 0 41 1 43 28 40 24 -3 31 -13 59 -83 29
-72 31 -87 26 -152 l-5 -72 32 -20 c52 -31 63 -20 54 57 -6 59 -5 65 10 59 10
-4 23 -7 29 -7 12 0 45 -64 68 -135 20 -61 47 -95 75 -95 29 0 31 19 4 50 -27
31 -34 61 -27 125 7 65 31 105 62 105 18 0 32 -14 59 -59 20 -32 36 -70 36
-84 0 -28 23 -42 39 -23 10 11 4 55 -8 66 -3 3 -15 21 -25 40 -35 65 -77 110
-100 110 -28 0 -60 -34 -77 -82 -15 -45 -24 -47 -51 -13 -18 23 -78 62 -78 51
0 -3 -13 0 -30 5 -16 6 -30 15 -30 20 0 6 -9 28 -19 50 -30 62 -36 98 -17 112
27 20 31 78 8 106 -24 31 -48 23 -67 -22 -15 -36 -56 -70 -71 -59 -13 10 -44
71 -44 88 0 8 -4 22 -9 32 -5 9 -15 36 -21 59 -12 40 -12 42 18 70 17 15 34
40 38 55 5 24 2 29 -21 38 -39 15 -44 13 -62 -25 -9 -19 -20 -35 -23 -35 -4 0
-15 21 -24 48 -10 26 -22 59 -28 74 -16 44 -7 72 26 78 38 7 42 22 14 53 -27
30 -59 41 -74 24z m180 -670 c-3 -9 -10 -17 -15 -17 -11 0 -12 34 -2 44 11 11
24 -9 17 -27z"/>
<path d="M6225 4291 c-38 -23 -60 -49 -118 -139 -51 -79 -59 -112 -28 -112 18
0 30 20 37 59 5 30 21 31 39 4 10 -15 24 -35 32 -43 86 -94 103 -117 101 -140
-2 -15 -13 -29 -28 -36 -14 -7 -38 -18 -53 -25 -23 -11 -25 -15 -14 -26 10
-10 20 -11 40 -4 15 6 27 14 27 18 0 5 17 17 38 28 52 27 167 144 154 157 -14
14 -45 -4 -72 -42 -35 -49 -42 -45 -161 87 -24 27 -38 53 -41 80 -6 43 10 65
75 107 28 19 37 46 15 46 -7 0 -26 -8 -43 -19z"/>
<path d="M4650 4205 c-10 -12 -6 -23 24 -59 20 -24 36 -48 36 -53 0 -5 -15
-24 -34 -42 l-35 -34 -31 27 c-17 14 -38 26 -45 26 -8 0 -16 9 -20 19 -3 11
-19 24 -35 29 -33 12 -40 7 -64 -52 l-16 -38 -27 17 c-14 10 -41 20 -58 22
-31 4 -37 1 -73 -42 -7 -8 -29 -18 -50 -21 -66 -12 -122 -104 -62 -104 13 0
20 7 20 18 0 23 19 42 42 42 22 0 33 -38 24 -85 -6 -29 -3 -36 16 -49 13 -9
33 -13 45 -10 45 12 53 103 12 140 -26 23 -25 60 2 67 28 8 59 -5 88 -37 14
-14 35 -26 48 -26 21 0 23 4 23 49 0 81 19 84 89 12 64 -65 95 -76 107 -38 7
23 49 67 63 67 5 0 18 -20 30 -45 22 -46 62 -82 81 -70 17 10 12 23 -24 62
-42 48 -57 77 -50 97 7 17 7 17 42 21 30 3 38 13 26 32 -15 25 -42 24 -73 -3
-32 -27 -39 -23 -64 39 -17 39 -36 47 -57 22z"/>
<path d="M3097 4150 c-39 -12 -145 -67 -182 -95 -43 -32 -91 -55 -115 -55 -11
0 -20 -4 -20 -8 0 -9 -59 -37 -155 -73 -107 -40 -233 -150 -221 -192 4 -12 10
-38 13 -57 6 -35 48 -90 68 -90 17 0 65 24 65 33 0 4 6 7 14 7 8 0 17 7 20 16
14 36 4 59 -40 100 l-46 43 23 30 c13 16 29 30 35 30 10 1 39 13 161 67 17 8
34 14 38 14 33 0 212 106 223 133 2 4 10 7 18 7 7 0 32 10 55 22 23 12 58 24
78 27 27 5 36 11 36 26 0 23 -25 28 -68 15z m-574 -448 c9 -8 17 -20 17 -27 0
-18 -38 -48 -53 -42 -14 5 -30 73 -21 88 6 10 33 1 57 -19z"/>
<path d="M5871 4053 c-29 -6 -86 -62 -96 -94 -4 -13 -16 -32 -26 -42 -22 -20
-25 -47 -6 -47 7 0 21 -24 32 -52 38 -108 187 -292 230 -286 17 3 20 10 20 48
-1 25 -9 60 -18 79 -9 19 -17 38 -17 44 0 21 -97 137 -153 183 -33 27 -36 34
-31 62 7 36 60 74 93 65 28 -7 36 -39 17 -68 -33 -50 -2 -65 33 -16 51 71 7
141 -78 124z m-14 -230 c12 -16 42 -53 67 -84 76 -95 88 -190 17 -140 -17 13
-31 26 -31 31 0 5 -13 24 -29 43 -31 35 -81 135 -81 161 0 25 33 18 57 -11z"/>
<path d="M4018 3906 c-21 -15 -24 -36 -5 -36 6 0 26 -17 44 -37 17 -21 34 -35
38 -31 13 13 -5 78 -27 98 -25 23 -27 24 -50 6z"/>
<path d="M5431 3835 c-18 -19 -41 -35 -51 -35 -9 0 -23 -7 -30 -15 -7 -9 -29
-15 -55 -15 -31 0 -49 -7 -69 -25 -24 -22 -34 -45 -21 -45 4 0 19 7 34 15 32
16 57 5 63 -30 2 -12 11 -20 23 -20 15 0 21 8 25 34 3 19 10 36 16 38 17 6 33
-43 27 -82 -5 -34 -4 -37 17 -33 13 1 24 10 26 18 1 8 5 27 9 41 4 16 2 30 -4
33 -24 15 4 116 32 116 7 0 22 3 33 6 32 8 38 -22 14 -63 -11 -19 -23 -51 -26
-72 -5 -33 -3 -41 17 -55 62 -43 109 -5 109 90 0 91 -39 134 -124 134 -23 0
-41 -9 -65 -35z m149 -97 c-1 -32 -26 -62 -45 -54 -9 3 -14 10 -11 14 3 5 10
21 15 36 13 32 41 35 41 4z"/>
<path d="M3860 3796 c-5 -14 -7 -46 -4 -69 5 -38 3 -46 -18 -63 -38 -30 -42
-43 -16 -53 49 -19 78 29 78 129 0 39 -5 62 -15 70 -12 10 -16 8 -25 -14z"/>
<path d="M5165 3800 c-69 -44 -125 -95 -125 -116 0 -14 25 -36 33 -28 3 3 22
-2 41 -11 43 -20 57 -57 32 -84 -19 -21 -21 -51 -3 -51 21 0 55 42 57 70 5 56
0 67 -37 86 -63 33 -54 71 24 105 24 10 43 25 43 34 0 20 -28 18 -65 -5z"/>
<path d="M4147 3683 c-13 -12 -7 -21 27 -37 43 -20 46 -20 46 4 0 26 -56 51
-73 33z"/>
<path d="M3400 3577 c0 -22 8 -43 24 -60 37 -40 40 -60 11 -91 -29 -32 -31
-44 -9 -53 11 -4 23 3 36 20 25 35 31 34 51 -8 9 -19 21 -35 27 -35 19 0 22
28 6 59 -22 41 -20 48 14 66 18 9 27 21 24 29 -9 24 -31 26 -55 5 -28 -24 -27
-24 -57 9 -16 16 -26 39 -27 57 0 23 -5 31 -22 33 -20 3 -23 -1 -23 -31z"/>
<path d="M3226 3464 c-7 -19 28 -89 48 -97 21 -8 29 8 16 32 -5 11 -10 31 -10
44 0 35 -42 51 -54 21z"/>
<path d="M3112 3407 c-6 -6 -14 -45 -18 -85 -5 -55 -12 -79 -27 -93 -12 -10
-24 -16 -27 -12 -11 13 -28 65 -35 106 -9 53 -38 48 -46 -8 -6 -44 -25 -85
-39 -85 -5 0 -19 15 -31 33 -44 61 -60 62 -125 2 -26 -25 -54 -45 -61 -45 -7
0 -19 -13 -28 -30 -8 -16 -22 -33 -31 -38 -9 -5 -14 -14 -10 -21 10 -16 36
-14 36 3 0 14 36 46 52 46 5 0 8 -17 8 -39 0 -43 21 -101 43 -119 11 -10 20
-8 42 10 25 20 27 25 23 85 -2 36 -8 67 -14 71 -27 20 -35 41 -24 61 6 12 17
21 24 21 16 0 56 -42 56 -61 1 -26 28 -51 51 -47 15 2 26 14 34 38 13 38 28
43 33 11 4 -26 37 -54 58 -49 16 3 46 61 68 132 6 18 7 18 26 1 20 -18 20 -17
20 12 0 32 -24 98 -39 107 -5 3 -13 0 -19 -7z m-317 -258 c4 -11 4 -36 0 -56
-5 -29 -9 -32 -21 -23 -19 17 -19 100 0 100 8 0 18 -9 21 -21z"/>
<path d="M3310 3280 c-13 -9 -11 -13 10 -30 27 -20 44 -13 38 16 -4 22 -27 28
-48 14z"/>
<path d="M4170 3252 c-26 -4 -42 -20 -34 -34 3 -4 23 -5 45 -2 73 12 89 -34
19 -55 -41 -12 -90 -61 -90 -90 0 -30 35 -54 68 -46 29 6 92 59 92 77 0 5 10
22 21 38 19 25 20 32 9 59 -21 51 -51 64 -130 53z m55 -131 c6 -11 -42 -51
-61 -51 -19 0 -18 25 2 44 17 18 50 21 59 7z"/>
<path d="M3916 3225 c-21 -16 -14 -35 13 -35 22 0 45 25 36 40 -8 14 -26 12
-49 -5z"/>
<path d="M4490 3214 c0 -8 -7 -38 -17 -66 -15 -49 -15 -52 2 -64 24 -18 37
-17 82 1 46 19 50 19 56 -5 11 -43 67 -33 113 19 l21 25 12 -22 c14 -26 36
-29 45 -6 3 9 6 40 6 70 0 65 -17 71 -58 22 -46 -55 -84 -88 -93 -82 -5 3 -7
21 -3 40 8 44 -4 44 -81 3 l-58 -32 7 48 c6 35 4 50 -6 56 -20 13 -28 11 -28
-7z"/>
<path d="M5666 3168 c-10 -13 -16 -43 -16 -73 0 -74 -14 -88 -91 -91 -35 -2
-67 -3 -71 -3 -5 -1 -8 -10 -8 -20 0 -24 27 -33 87 -30 30 2 48 -1 51 -9 8
-25 -20 -83 -48 -97 -33 -17 -96 -20 -105 -5 -3 6 -15 10 -26 10 -15 0 -20 -6
-17 -22 4 -31 88 -60 130 -46 15 6 28 14 28 19 0 5 6 9 13 9 8 0 24 21 37 48
13 26 26 49 30 52 3 3 15 17 25 31 17 22 20 41 20 134 0 114 -9 136 -39 93z"/>
<path d="M5972 3152 c-19 -2 -48 -13 -65 -24 l-32 -20 30 7 c17 4 39 9 50 11
61 14 113 -25 63 -46 -13 -5 -30 -15 -39 -23 -23 -18 -53 -91 -39 -95 5 -2 10
-9 10 -16 0 -17 38 -56 55 -56 22 0 71 47 90 86 10 20 17 55 17 78 -1 33 -7
46 -32 68 -35 28 -57 35 -108 30z m72 -108 c10 -4 16 -18 16 -39 0 -43 -42
-80 -71 -64 -27 14 -26 75 1 84 11 3 20 11 20 16 0 10 12 12 34 3z"/>
<path d="M6269 3148 c-1 -7 -3 -44 -4 -83 -2 -38 -7 -106 -13 -150 -6 -44 -8
-90 -5 -102 4 -20 30 -39 40 -29 2 2 6 64 9 138 3 73 6 155 7 183 2 40 -1 50
-15 53 -10 2 -19 -2 -19 -10z"/>
<path d="M5313 3139 c-13 -5 -23 -17 -23 -28 0 -51 -47 -96 -80 -76 -5 3 -19
3 -30 0 -16 -5 -18 -10 -10 -25 8 -15 17 -18 44 -13 33 5 35 4 46 -36 11 -40
33 -54 43 -27 3 8 3 24 0 37 -6 21 -4 22 46 16 41 -5 53 -3 58 9 7 20 0 26
-43 33 -52 9 -63 30 -34 70 25 36 17 54 -17 40z"/>
<path d="M5851 3101 c-8 -6 -9 -11 -3 -15 6 -3 14 -1 17 5 9 14 2 20 -14 10z"/>
<path d="M2519 3026 c-25 -21 -49 -57 -49 -70 0 -3 5 -6 11 -6 18 0 86 74 82
88 -6 17 -14 15 -44 -12z"/>
<path d="M4091 2622 c-20 -47 -57 -83 -87 -84 -16 -1 -55 4 -87 11 -67 15 -96
9 -77 -14 7 -8 20 -15 29 -15 9 -1 41 -9 71 -20 60 -21 110 -26 110 -10 0 6
16 18 35 27 19 9 35 20 35 25 0 10 57 68 67 68 4 0 25 -5 46 -11 45 -12 49
-38 12 -71 -32 -27 -59 -99 -51 -133 9 -37 48 -33 80 8 14 17 31 39 38 47 27
31 29 150 3 150 -9 0 -18 7 -21 15 -5 11 -24 15 -80 15 -43 0 -74 4 -74 10 0
22 -38 9 -49 -18z m160 -175 c-29 -30 -39 -12 -10 19 14 15 25 20 27 14 3 -7
-5 -21 -17 -33z"/>
<path d="M4773 2628 c-25 -6 -43 -17 -43 -24 0 -17 13 -17 60 -4 51 15 70 5
70 -36 0 -35 0 -35 -42 -33 -24 1 -52 -3 -64 -9 -55 -29 -75 -120 -35 -154 25
-19 61 -24 61 -8 0 6 7 10 14 10 20 0 102 117 109 155 6 33 -19 105 -37 105
-6 0 -20 2 -31 4 -11 2 -39 -1 -62 -6z m47 -145 c30 8 24 -9 -16 -49 -44 -42
-68 -41 -72 3 -4 37 32 71 55 52 7 -6 22 -9 33 -6z"/>
<path d="M5054 2620 c-24 -9 -36 -33 -28 -53 3 -8 -9 -42 -26 -78 -34 -73 -37
-91 -14 -110 12 -10 20 -10 35 -1 10 7 24 12 31 12 7 1 29 14 48 30 19 17 38
30 42 30 13 0 9 -22 -7 -40 -23 -26 -32 -90 -13 -90 9 0 21 15 29 33 7 17 24
50 39 72 14 22 31 52 38 68 6 15 16 27 22 27 11 0 14 43 4 53 -11 11 -57 -19
-112 -73 -50 -48 -106 -80 -119 -67 -9 9 16 72 48 121 17 25 28 53 25 61 -6
17 -12 17 -42 5z"/>
<path d="M4578 2610 c-27 -8 -88 -63 -88 -79 0 -5 -16 -18 -35 -30 -22 -13
-35 -28 -35 -41 0 -23 31 -41 38 -21 2 7 15 23 28 36 13 13 24 27 24 30 0 11
54 65 66 65 24 0 32 -57 12 -90 -17 -26 -2 -37 21 -15 25 22 38 98 22 131 -11
26 -13 26 -53 14z"/>
<path d="M5797 2484 c-3 -4 -23 -9 -43 -11 -59 -6 -114 -42 -114 -73 0 -9 11
-27 25 -40 33 -31 32 -45 -5 -72 -33 -24 -42 -55 -12 -43 9 4 29 11 43 17 26
9 49 44 49 74 0 8 -12 30 -26 49 l-25 34 22 11 c14 8 42 10 81 6 48 -6 59 -4
64 9 11 29 -37 61 -59 39z"/>
<path d="M5852 2419 c2 -8 14 -15 25 -17 12 -2 29 -12 39 -23 14 -15 15 -24 7
-42 -13 -28 -5 -79 11 -74 6 2 16 14 22 26 35 69 114 113 122 69 4 -22 -56
-95 -108 -130 -38 -25 -14 -43 28 -20 62 33 154 197 115 203 -42 7 -64 4 -98
-16 l-41 -23 -23 24 c-13 13 -31 24 -40 24 -9 0 -27 3 -40 7 -18 4 -23 2 -19
-8z"/>
<path d="M6156 2401 c-17 -7 -15 -10 15 -29 31 -19 35 -25 31 -55 -4 -39 12
-77 33 -77 18 0 61 43 70 69 3 12 12 20 18 18 18 -3 25 -29 16 -55 -5 -13 -9
-38 -9 -56 0 -17 -4 -36 -9 -41 -5 -6 -11 -34 -14 -63 -5 -42 -3 -54 9 -59 22
-8 32 12 32 66 1 61 20 188 34 228 18 50 1 59 -50 26 -23 -15 -42 -32 -42 -38
0 -6 -9 -16 -20 -22 -16 -11 -21 -10 -29 6 -6 10 -12 31 -15 46 -8 41 -29 52
-70 36z"/>
<path d="M2862 2138 c-17 -17 4 -38 39 -38 37 0 39 -27 4 -60 -45 -43 -23
-120 35 -120 23 0 33 7 45 30 8 16 15 38 15 50 0 11 9 28 20 37 27 23 25 43
-3 43 -13 0 -32 9 -42 20 -19 21 -71 50 -90 50 -6 0 -16 -5 -23 -12z m98 -127
c0 -12 -29 -35 -36 -28 -11 10 5 37 21 37 8 0 15 -4 15 -9z"/>
<path d="M3183 2143 c-24 -9 -13 -31 17 -35 17 -3 30 -1 30 4 0 4 12 8 26 8
26 0 54 -20 54 -40 0 -20 -33 -61 -61 -76 -37 -18 -37 -34 -1 -34 34 0 98 57
108 96 6 23 2 32 -25 56 -26 23 -40 28 -84 27 -28 0 -58 -3 -64 -6z"/>
<path d="M3507 2122 c-3 -4 -4 -41 -3 -82 1 -61 4 -75 18 -78 13 -3 18 8 23
55 4 32 11 63 15 68 4 6 -1 17 -10 25 -20 18 -37 23 -43 12z"/>
<path d="M3773 2098 c-5 -7 -22 -34 -36 -60 -15 -26 -41 -62 -58 -80 -41 -44
-49 -61 -39 -78 13 -21 56 2 64 34 3 14 25 53 48 87 46 67 58 63 50 -18 -3
-42 9 -73 29 -73 5 0 9 42 9 94 0 89 -1 94 -22 100 -32 8 -34 8 -45 -6z"/>
<path d="M4113 2033 c-12 -2 -42 -22 -66 -44 -28 -24 -55 -39 -71 -39 -31 0
-32 -4 -6 -30 19 -19 20 -22 4 -53 -21 -40 -31 -204 -15 -236 8 -14 21 -21 42
-21 27 0 33 6 54 55 25 56 33 126 21 182 -7 30 -5 33 21 39 38 9 113 82 113
111 0 35 -35 48 -97 36z m47 -40 c0 -34 -100 -97 -115 -73 -6 10 30 51 60 68
23 13 55 16 55 5z m-121 -150 c17 -60 13 -124 -9 -160 -58 -95 -79 36 -28 170
14 37 25 34 37 -10z"/>
<path d="M4283 2008 c-22 -11 -22 -11 10 -27 23 -12 33 -25 38 -49 10 -50 23
-58 62 -44 18 7 42 12 52 12 17 0 17 -2 -3 -23 -27 -29 -122 -62 -151 -52 -20
6 -22 4 -19 -17 5 -34 57 -29 150 16 90 43 103 65 65 104 -23 23 -28 24 -56
12 -40 -16 -55 -9 -86 40 -27 43 -29 44 -62 28z"/>
<path d="M5096 1865 c-39 -38 -38 -42 13 -114 22 -31 23 -35 8 -46 -9 -7 -17
-17 -17 -24 0 -14 76 -15 85 0 8 12 -13 69 -25 69 -5 0 -18 16 -30 35 -28 46
-20 80 18 70 49 -12 66 -10 70 6 2 11 -9 19 -36 27 -51 16 -46 17 -86 -23z"/>
<path d="M3462 1848 c2 -22 9 -34 21 -36 15 -3 18 2 15 30 -2 22 -9 34 -21 36
-15 3 -18 -2 -15 -30z"/>
<path d="M5626 1819 l-35 -42 -36 27 c-19 15 -35 31 -35 37 0 5 -11 9 -25 9
-29 0 -35 -29 -7 -36 9 -3 28 -21 42 -41 27 -39 27 -62 6 -166 -8 -37 -12 -84
-9 -106 6 -44 34 -77 57 -68 20 8 46 99 46 164 0 32 4 53 11 53 17 0 57 35 95
82 24 31 34 53 34 79 0 41 -11 49 -70 49 -33 0 -44 -6 -74 -41z m104 -16 c0
-28 -65 -101 -95 -105 -15 -2 -21 3 -23 24 -4 36 69 119 98 111 13 -4 20 -14
20 -30z m-130 -217 c0 -33 -32 -91 -43 -79 -10 10 -8 63 4 108 10 37 12 38 25
20 8 -10 14 -33 14 -49z"/>
<path d="M3210 1791 c0 -40 -11 -51 -50 -51 -11 0 -23 -8 -28 -17 -5 -9 -25
-24 -43 -32 -25 -12 -38 -27 -47 -56 -14 -41 -14 -48 -13 -177 1 -79 -18 -158
-45 -189 -31 -35 -7 -74 27 -43 17 15 22 16 29 5 11 -19 33 -8 65 33 35 46 28
78 -15 70 l-29 -6 -3 93 c-2 52 -1 119 2 149 l5 55 78 1 c87 0 108 -12 104
-61 -1 -21 3 -30 16 -33 29 -6 32 28 7 75 -19 35 -21 50 -14 71 5 15 16 27 24
27 20 0 25 34 6 41 -9 3 -16 12 -16 20 0 27 -24 64 -42 64 -14 0 -18 -8 -18
-39z"/>
<path d="M6263 1808 c-4 -7 -11 -42 -15 -78 -14 -126 -29 -214 -40 -227 -7 -9
-26 -11 -63 -7 -54 7 -130 -10 -120 -26 3 -5 33 -8 68 -8 70 0 117 -14 117
-36 0 -26 30 -27 42 -1 10 22 17 25 69 25 57 0 84 14 58 31 -8 4 -41 6 -73 4
l-59 -5 7 69 c6 73 21 151 38 212 14 48 -7 81 -29 47z"/>
<path d="M5920 1749 c-46 -8 -77 -25 -66 -37 2 -1 29 1 60 6 30 5 58 6 62 3 3
-3 10 -7 15 -7 5 -1 14 -2 19 -3 6 0 10 -9 10 -19 0 -13 -18 -26 -60 -45 -62
-27 -80 -48 -63 -76 17 -27 57 -24 110 8 78 48 89 85 41 143 -28 33 -56 39
-128 27z"/>
<path d="M3603 1724 c-4 -10 4 -24 21 -37 24 -20 25 -24 12 -47 -27 -46 -56
-109 -56 -119 0 -6 -4 -11 -10 -11 -5 0 -10 -20 -10 -43 0 -76 64 -103 89 -39
6 15 15 34 20 42 17 29 31 87 31 127 0 32 4 42 20 46 20 5 27 31 12 41 -5 3
-20 7 -34 10 -34 6 -68 24 -68 36 0 16 -20 11 -27 -6z m57 -163 c0 -30 -41
-112 -53 -108 -16 6 -12 33 12 91 20 46 41 54 41 17z"/>
<path d="M5294 1609 c-9 -15 36 -99 54 -99 11 0 13 8 7 38 -10 54 -44 88 -61
61z"/>
<path d="M3227 1354 c-3 -4 -3 -14 2 -23 8 -16 7 -48 -4 -111 -9 -45 12 -68
44 -50 12 6 21 16 21 22 0 6 11 8 29 5 39 -8 73 17 69 51 -2 22 -8 27 -28 24
-14 -1 -37 -11 -52 -22 -15 -11 -29 -20 -32 -20 -3 0 -6 28 -8 62 -2 47 -7 64
-18 66 -9 1 -19 0 -23 -4z"/>
<path d="M3472 1223 c-10 -21 -4 -123 8 -123 11 0 31 26 28 36 -1 5 1 19 5 30
8 24 -7 74 -22 74 -6 0 -14 -8 -19 -17z"/>
<path d="M3705 1225 c-21 -8 -47 -24 -57 -37 -41 -53 -51 -179 -14 -186 29 -6
45 17 22 33 -19 15 -32 85 -15 85 5 0 9 8 9 18 1 21 27 57 43 57 7 1 25 5 41
10 36 10 56 -12 56 -62 0 -39 27 -46 48 -13 14 24 52 27 52 5 0 -9 -10 -29
-21 -44 -24 -33 -18 -57 10 -41 25 13 43 61 39 101 -3 33 -5 34 -42 33 -29 -1
-45 5 -63 22 -13 13 -28 24 -33 24 -4 0 -14 2 -22 5 -7 2 -31 -2 -53 -10z"/>
<path d="M4093 1173 c-44 -40 -67 -85 -59 -117 8 -33 48 -60 76 -51 28 9 60
45 60 68 0 10 8 35 17 54 16 35 16 36 -6 54 -32 26 -51 24 -88 -8z m57 -30 c0
-24 -66 -97 -79 -88 -20 11 -12 38 21 72 35 36 58 42 58 16z"/>
<path d="M4307 1193 c-13 -13 -7 -32 13 -38 17 -5 19 -12 13 -48 -3 -23 -10
-43 -15 -45 -4 -2 -8 -12 -8 -22 0 -10 -4 -21 -9 -24 -4 -3 -11 -26 -14 -51
-4 -25 -13 -58 -21 -74 -9 -16 -12 -31 -9 -35 9 -8 43 24 43 41 0 7 11 46 25
85 36 103 43 173 20 198 -19 21 -28 24 -38 13z"/>
<path d="M4423 1148 c-6 -7 -13 -31 -16 -53 -6 -53 -52 -180 -77 -215 -24 -34
-25 -46 -4 -54 22 -8 21 -10 38 54 17 64 55 154 78 190 23 35 27 83 7 88 -9 1
-21 -3 -26 -10z"/>
<path d="M4668 1125 c-3 -3 -16 -8 -28 -10 -34 -7 -60 -35 -60 -65 0 -19 11
-36 41 -60 41 -32 41 -33 75 -16 19 8 34 19 34 23 0 5 5 25 9 47 8 34 7 41
-14 62 -23 23 -45 30 -57 19z m38 -40 c3 -6 0 -24 -5 -38 -9 -22 -17 -27 -45
-27 -60 0 -68 48 -12 77 22 12 56 5 62 -12z"/>
<path d="M5653 1040 c6 -48 5 -51 -23 -65 -17 -9 -30 -20 -30 -25 0 -15 21
-23 33 -11 23 23 46 12 53 -24 3 -20 3 -39 -1 -43 -4 -4 -33 -7 -65 -7 -71 0
-98 -18 -54 -36 33 -13 144 -12 158 1 5 5 11 36 12 67 1 32 3 61 3 66 1 4 8 7
17 7 24 0 11 24 -17 30 -16 4 -25 14 -27 30 -5 30 -29 60 -50 60 -12 0 -14
-10 -9 -50z"/>
<path d="M4966 1063 c-3 -10 -8 -35 -12 -55 -7 -40 -9 -41 -74 -42 -53 -1 -46
-29 9 -38 57 -10 63 -17 49 -56 -9 -24 -10 -34 -1 -43 10 -10 15 -6 23 15 6
16 19 30 31 33 18 5 19 10 13 52 -5 25 -8 68 -8 95 -1 49 -19 74 -30 39z"/>
<path d="M3467 1063 c-3 -5 -2 -23 0 -40 6 -36 28 -44 38 -13 10 32 -23 78
-38 53z"/>
<path d="M6005 1058 c-11 -6 -26 -18 -33 -25 -8 -7 -22 -18 -33 -23 -10 -6
-19 -16 -19 -23 0 -7 -12 -29 -26 -50 -18 -27 -24 -48 -22 -75 3 -33 6 -37 32
-40 28 -4 34 0 96 61 36 36 50 55 50 67 0 5 7 10 15 10 18 0 32 67 18 89 -13
20 -52 25 -78 9z m38 -56 c-2 -13 -15 -33 -30 -46 -22 -19 -31 -21 -45 -12
-26 16 -22 31 13 61 37 31 65 29 62 -3z m-101 -97 c13 -28 12 -30 -19 -39 -19
-6 -23 -3 -23 13 0 51 23 66 42 26z"/>
<path d="M3134 835 c-9 -13 -13 -29 -10 -34 13 -21 7 -227 -9 -286 -8 -33 -15
-83 -15 -112 0 -57 -4 -61 -38 -37 -16 11 -31 14 -50 8 -15 -4 -31 -8 -37 -9
-22 -2 -32 -16 -27 -40 2 -14 -1 -32 -8 -40 -15 -19 -5 -49 15 -41 8 3 17 1
20 -4 4 -6 14 -10 23 -10 9 0 39 -16 66 -35 27 -19 54 -35 59 -35 5 0 22 -13
37 -30 15 -16 35 -30 44 -30 19 0 21 31 4 49 -11 10 -8 16 12 32 45 35 60 41
60 24 0 -28 39 -17 46 13 3 15 19 38 34 52 21 19 30 38 35 74 3 27 8 53 10 57
3 4 -2 12 -10 19 -13 10 -19 10 -33 -4 -10 -9 -28 -16 -39 -16 -31 0 -50 -27
-35 -51 7 -10 12 -21 12 -23 0 -9 -111 -37 -120 -31 -11 7 -13 48 -4 80 5 18
72 55 100 55 20 0 74 31 83 48 10 19 9 56 -3 90 -10 29 -81 63 -126 61 -64 -2
-61 -9 -54 109 6 95 5 110 -10 115 -10 4 -21 -2 -32 -18z m136 -298 c13 -24
13 -29 0 -37 -22 -13 -54 12 -58 44 -3 24 0 27 19 24 13 -2 30 -15 39 -31z
m-210 -227 c8 -16 8 -20 -4 -20 -14 0 -46 36 -46 53 0 13 39 -12 50 -33z"/>
<path d="M4769 820 c-11 -8 -8 -15 17 -40 56 -57 144 -50 144 11 0 21 -1 21
-18 6 -28 -25 -79 -22 -105 7 -16 17 -27 22 -38 16z"/>
<path d="M5635 558 c-4 -9 -2 -26 4 -37 7 -11 10 -47 9 -80 -4 -102 36 -120
98 -44 90 109 120 119 118 40 -1 -26 -8 -62 -15 -80 -16 -39 -16 -147 1 -157
6 -4 46 3 88 16 43 13 85 24 94 24 9 0 29 11 43 24 14 13 43 28 63 33 22 5 37
15 37 23 0 16 -23 18 -68 7 l-27 -7 6 47 c13 95 10 137 -8 141 -15 3 -18 -4
-18 -42 0 -64 -29 -162 -54 -184 -27 -25 -118 -54 -130 -42 -6 6 -3 42 7 92
29 147 29 153 9 178 -17 21 -22 22 -53 11 -31 -10 -109 -85 -109 -103 0 -5 -7
-8 -15 -8 -9 0 -15 9 -15 24 0 14 -4 28 -10 31 -5 3 -10 19 -10 34 0 16 -9 39
-19 52 -17 21 -20 22 -26 7z"/>
<path d="M5405 540 c3 -5 14 -10 23 -10 37 0 44 -15 19 -41 -42 -43 -51 -67
-32 -95 15 -23 55 -34 55 -14 0 6 7 10 15 10 20 0 42 37 49 88 5 32 3 42 -8
42 -7 0 -19 7 -26 15 -14 17 -105 22 -95 5z m75 -89 c-12 -23 -29 -35 -36 -28
-10 9 16 47 32 47 11 0 12 -4 4 -19z"/>
<path d="M3837 508 c-8 -13 -23 -32 -34 -43 -10 -11 -26 -33 -36 -48 -23 -36
-33 -28 -40 30 -6 52 -27 76 -66 71 -36 -4 -37 -25 -1 -33 17 -4 29 -9 26 -12
-3 -3 -1 -14 4 -24 7 -11 7 -20 0 -24 -13 -8 -8 -37 12 -66 14 -22 17 -23 43
-9 14 8 33 27 41 42 20 39 72 90 84 83 6 -3 10 -24 10 -46 0 -26 7 -46 20 -59
24 -24 38 -25 76 -5 16 8 37 15 46 15 9 0 19 4 23 9 3 6 18 3 34 -7 26 -15 30
-15 54 0 28 19 47 99 27 123 -33 40 -114 10 -125 -48 -5 -25 -15 -38 -38 -49
-18 -8 -40 -12 -49 -10 -16 3 -38 56 -38 93 0 40 -49 52 -73 17z m288 -28 c8
-24 -1 -40 -21 -40 -20 0 -29 27 -14 45 17 20 27 19 35 -5z"/>
<path d="M4366 488 c-8 -18 -17 -45 -20 -59 -13 -63 -76 -101 -106 -64 -7 8
-22 15 -33 15 -20 0 -20 -1 -2 -20 10 -12 33 -30 51 -41 26 -16 36 -17 57 -8
14 6 30 22 36 35 6 14 19 24 31 24 24 0 32 28 28 95 -4 59 -22 69 -42 23z"/>
<path d="M4611 422 c-5 -9 -12 -35 -16 -57 -4 -22 -15 -46 -24 -53 -14 -11
-14 -14 -1 -22 21 -13 26 -12 44 6 9 8 15 29 14 47 -1 18 2 47 6 65 8 35 -6
45 -23 14z"/>
<path d="M4580 185 c0 -8 7 -15 15 -15 8 0 15 7 15 15 0 8 -7 15 -15 15 -8 0
-15 -7 -15 -15z"/>
</g>
</svg>
