<?xml version="1.0" standalone="no"?>
<!DOCTYPE svg PUBLIC "-//W3C//DTD SVG 20010904//EN"
 "http://www.w3.org/TR/2001/REC-SVG-20010904/DTD/svg10.dtd">
<svg version="1.0" xmlns="http://www.w3.org/2000/svg"
 width="495.000000pt" height="600.000000pt" viewBox="0 0 495.000000 600.000000"
 preserveAspectRatio="xMidYMid meet">

<g transform="translate(0.000000,600.000000) scale(0.100000,-0.100000)"
fill="#000000" stroke="none">
<path d="M2875 5866 c-9 -20 -31 -57 -50 -82 -19 -25 -35 -50 -35 -55 0 -6 19
-19 43 -29 44 -21 97 -26 97 -11 0 16 -31 41 -51 41 -36 0 -21 44 37 107 29
32 28 57 -4 61 -18 3 -26 -4 -37 -32z"/>
<path d="M2578 5817 c-9 -7 -19 -29 -23 -49 -6 -31 -4 -38 15 -48 17 -9 29 -9
51 0 27 12 29 16 23 49 -5 32 -27 62 -43 61 -3 0 -14 -6 -23 -13z"/>
<path d="M2990 5784 c-14 -35 -13 -41 9 -47 12 -3 20 -16 23 -38 5 -30 -1 -39
-48 -88 -30 -30 -54 -61 -54 -70 0 -22 44 -71 64 -71 9 0 21 10 26 23 16 38
47 67 72 67 32 0 48 18 48 55 0 18 13 46 30 69 51 67 37 95 -46 96 -17 0 -48
7 -67 15 -47 19 -46 19 -57 -11z"/>
<path d="M3347 5766 c-67 -24 -115 -62 -122 -97 -7 -29 -3 -36 29 -64 l37 -32
-25 -16 c-14 -10 -30 -17 -36 -17 -20 0 -4 -25 16 -25 24 -1 102 24 109 35 8
13 -6 40 -21 40 -8 0 -14 4 -14 8 0 5 -11 15 -25 22 -52 28 -37 77 32 106 27
12 37 12 53 2 17 -11 22 -10 30 2 13 20 8 44 -10 47 -8 1 -32 -4 -53 -11z"/>
<path d="M3575 5722 c11 -4 35 -16 53 -27 43 -26 39 -53 -11 -70 -52 -18 -107
-62 -107 -86 0 -44 18 -59 69 -59 43 0 51 4 73 33 14 17 28 44 32 60 3 15 11
27 16 27 6 0 10 15 10 34 0 50 -55 96 -113 95 -28 -1 -35 -3 -22 -7z m65 -147
c0 -16 -35 -42 -65 -47 -31 -5 -30 28 2 45 37 20 63 20 63 2z"/>
<path d="M3938 5630 c-41 -62 -63 -67 -54 -11 7 44 -10 59 -45 40 -18 -9 -18
-12 -5 -31 10 -14 12 -26 6 -33 -10 -12 23 -75 39 -75 5 0 23 11 39 25 34 29
42 31 42 11 0 -14 27 -42 34 -35 2 2 7 39 11 82 7 74 6 77 -13 77 -14 0 -32
-17 -54 -50z"/>
<path d="M4489 5583 c-23 -66 -32 -82 -53 -102 -23 -22 -56 -27 -93 -16 -19 6
-23 4 -23 -13 0 -37 62 -54 113 -31 13 6 32 24 42 41 12 21 20 26 25 18 21
-34 48 42 35 99 -8 38 -32 40 -46 4z"/>
<path d="M4626 5571 c-10 -16 19 -25 56 -17 24 5 37 1 55 -16 28 -27 31 -58 4
-58 -11 0 -23 -4 -26 -10 -3 -5 -15 -10 -26 -10 -10 0 -19 -4 -19 -9 0 -5 -8
-12 -18 -16 -11 -3 -24 -17 -30 -31 -17 -37 22 -74 77 -74 37 0 42 3 67 46 17
29 29 67 32 98 3 44 1 54 -21 74 -29 27 -139 44 -151 23z m118 -139 c9 -15
-22 -49 -49 -54 -27 -6 -51 14 -40 32 14 23 79 38 89 22z"/>
<path d="M3931 5411 c-22 -34 -41 -65 -41 -70 0 -10 61 -31 88 -31 24 0 11
-20 -25 -39 -75 -38 -108 -101 -53 -101 25 0 25 -5 0 -40 -17 -24 -18 -29 -5
-40 13 -10 19 -10 33 4 10 9 23 16 29 16 6 0 13 7 17 15 3 8 12 15 20 15 18 0
40 36 30 51 -3 6 -17 14 -30 19 -32 12 -30 20 11 50 19 14 37 32 40 40 7 18
-32 49 -62 50 -37 0 -38 21 -4 52 33 30 38 60 10 66 -11 2 -31 -19 -58 -57z"/>
<path d="M435 5342 c-52 -11 -153 -110 -156 -152 -1 -14 -3 -38 -6 -55 -6 -38
-6 -76 0 -145 5 -65 13 -87 40 -117 40 -45 92 -19 128 64 22 50 28 131 10 142
-5 4 -13 24 -16 46 -6 32 -3 45 15 65 26 30 50 84 50 115 0 24 -33 44 -65 37z
m28 -44 c8 -23 -47 -108 -70 -108 -11 0 -33 31 -33 46 0 44 90 97 103 62z
m-103 -143 c5 -14 14 -25 19 -25 15 0 41 -78 41 -123 0 -33 -7 -51 -31 -80
-35 -42 -62 -47 -81 -14 -18 32 -18 228 1 250 19 24 40 21 51 -8z"/>
<path d="M1030 5295 c-7 -8 -18 -15 -24 -15 -7 0 -33 -22 -59 -48 -42 -43 -47
-52 -47 -93 0 -47 21 -79 51 -79 26 0 59 31 59 55 0 32 -17 41 -39 21 -29 -26
-44 -20 -38 14 7 34 40 74 83 101 46 28 56 25 52 -18 -4 -52 17 -53 87 -6 56
36 58 37 72 18 10 -14 13 -33 9 -62 -5 -36 -3 -43 16 -48 28 -10 38 10 31 65
-10 79 -16 84 -92 76 -59 -5 -68 -4 -79 14 -15 24 -64 27 -82 5z"/>
<path d="M570 5281 c0 -11 5 -23 10 -26 15 -9 13 -95 -2 -95 -9 0 -9 -3 0 -12
7 -7 8 -16 2 -23 -5 -6 -12 -34 -16 -63 -5 -43 -4 -53 10 -58 24 -9 28 -1 33
58 2 29 8 78 13 110 9 57 5 93 -13 116 -15 19 -37 14 -37 -7z"/>
<path d="M823 5287 c-26 -11 -26 -11 -14 -54 6 -21 5 -35 -2 -42 -8 -8 -7 -15
5 -27 15 -15 17 -14 31 7 9 13 18 45 22 70 8 52 -4 64 -42 46z"/>
<path d="M1964 5219 c-3 -6 -13 -8 -21 -5 -17 7 -63 -36 -63 -59 0 -10 16 -23
40 -32 22 -9 40 -20 40 -25 0 -4 -19 -16 -41 -25 -38 -15 -40 -17 -24 -29 14
-10 22 -11 32 -3 7 6 20 9 29 5 20 -8 74 20 74 39 0 19 -28 47 -63 62 -56 26
-17 50 54 34 51 -12 72 1 38 22 -32 20 -87 29 -95 16z"/>
<path d="M2237 5210 c-37 -29 -34 -47 14 -91 50 -46 47 -61 -16 -91 -25 -12
-45 -28 -45 -35 0 -24 45 -14 98 22 64 44 67 65 12 121 -33 35 -38 44 -26 53
11 10 16 9 24 -5 14 -24 54 -9 50 19 -4 32 -74 36 -111 7z"/>
<path d="M2528 5163 c-30 -3 -48 -9 -52 -20 -6 -14 2 -15 63 -9 43 4 72 3 75
-3 8 -12 -25 -31 -52 -31 -24 0 -62 -44 -62 -73 0 -35 21 -57 62 -64 45 -7 59
3 100 66 34 54 35 81 6 108 -26 24 -70 32 -140 26z m102 -101 c0 -23 -34 -52
-61 -52 -33 0 -37 15 -12 42 16 18 73 26 73 10z"/>
<path d="M3355 5139 c-22 -11 -54 -36 -71 -56 -27 -31 -34 -34 -52 -24 -11 6
-28 8 -36 5 -23 -9 -20 -45 4 -51 18 -5 19 -12 14 -97 -7 -115 16 -203 59
-224 23 -11 30 -11 51 5 50 36 55 189 9 251 -39 53 -44 69 -31 96 6 14 16 26
21 26 5 0 20 11 33 25 25 27 62 33 70 11 7 -18 -20 -73 -54 -109 -21 -21 -23
-30 -14 -39 10 -10 22 -3 58 34 24 26 51 63 59 83 15 34 14 36 -9 60 -30 30
-59 31 -111 4z m-56 -222 c26 -89 17 -182 -19 -182 -31 0 -51 132 -29 193 13
38 34 33 48 -11z"/>
<path d="M2847 5143 c-4 -3 -1 -16 7 -28 16 -25 14 -84 -4 -141 -13 -39 -3
-61 23 -51 15 6 24 37 37 136 7 55 6 67 -8 78 -19 14 -45 17 -55 6z"/>
<path d="M3544 5078 c-4 -7 5 -22 23 -37 18 -16 33 -40 37 -61 3 -19 10 -41
15 -49 14 -21 56 -6 96 35 34 34 37 35 42 15 3 -12 11 -21 19 -21 18 0 29 47
18 79 -14 40 -44 37 -88 -9 -22 -22 -44 -39 -49 -37 -6 2 -15 17 -21 35 -17
50 -73 81 -92 50z"/>
<path d="M730 5036 c0 -16 42 -56 58 -56 7 0 12 11 12 25 0 14 -1 25 -3 25 -1
0 -17 4 -35 9 -24 7 -32 6 -32 -3z"/>
<path d="M4373 4983 c-30 -6 -71 -46 -79 -77 -10 -40 3 -75 41 -111 19 -18 35
-38 35 -45 0 -23 -34 -39 -83 -40 -41 0 -48 -3 -45 -17 5 -27 77 -29 133 -4
50 22 59 51 27 87 -67 74 -79 120 -41 160 31 33 69 15 69 -34 0 -18 5 -23 23
-20 49 7 8 110 -43 106 -8 0 -25 -3 -37 -5z"/>
<path d="M3895 4964 c-11 -9 -28 -21 -37 -28 -13 -9 -15 -19 -10 -41 l8 -29
34 32 c18 18 38 32 44 32 11 0 68 -59 97 -101 20 -28 83 -31 103 -4 11 15 16
15 33 5 25 -16 57 -6 49 15 -3 8 -1 17 4 20 6 4 10 24 10 45 0 31 -5 43 -26
56 -22 15 -30 16 -62 4 -21 -7 -55 -24 -76 -38 l-40 -25 -29 37 c-32 40 -67
47 -102 20z m283 -47 c2 -11 -3 -17 -17 -17 -25 0 -38 19 -20 31 19 12 33 6
37 -14z m-68 -46 c0 -5 -7 -12 -16 -15 -22 -9 -24 -8 -24 9 0 8 9 15 20 15 11
0 20 -4 20 -9z"/>
<path d="M1833 4909 c-48 -24 -60 -48 -43 -88 14 -34 47 -51 99 -51 53 0 83
26 83 72 0 30 4 37 22 40 33 5 176 -17 226 -34 25 -8 61 -21 80 -27 19 -6 64
-15 99 -18 58 -6 63 -5 60 12 -3 15 -23 23 -89 36 -47 10 -118 27 -159 38 -40
12 -110 23 -155 26 -44 3 -104 8 -131 10 -38 4 -61 -1 -92 -16z m87 -64 c0
-19 -43 -40 -64 -32 -9 4 -16 16 -16 27 0 17 6 20 40 20 29 0 40 -4 40 -15z"/>
<path d="M2633 4833 c-18 -2 -33 -9 -33 -15 0 -7 23 -9 67 -5 65 5 113 -4 113
-21 0 -4 -20 -13 -44 -21 -53 -15 -88 -50 -88 -86 0 -35 15 -49 56 -49 43 0
80 24 111 74 28 45 31 65 11 86 -8 7 -16 19 -18 25 -4 11 -117 19 -175 12z
m137 -103 c0 -20 -48 -60 -64 -54 -24 9 -19 27 12 46 31 20 52 23 52 8z"/>
<path d="M1045 4630 c-33 -17 -51 -20 -101 -14 -34 3 -76 3 -95 -1 -28 -6 -30
-9 -15 -17 10 -6 39 -11 65 -12 33 -1 56 -9 83 -29 l36 -28 29 43 c21 31 36
43 53 43 20 0 26 -6 28 -27 4 -31 -28 -68 -58 -68 -23 0 -26 -22 -6 -39 25
-21 64 -2 96 47 34 52 37 68 14 100 -20 29 -75 29 -129 2z"/>
<path d="M1433 4593 c-4 -10 -1 -19 6 -21 27 -9 47 -39 65 -95 14 -44 23 -58
41 -63 30 -7 58 8 85 46 25 35 36 38 45 10 14 -44 61 -1 49 45 -10 41 -57 34
-105 -15 -22 -22 -44 -40 -50 -40 -5 0 -17 17 -25 38 -15 36 -80 112 -96 112
-5 0 -12 -8 -15 -17z"/>
<path d="M4180 4570 c-8 -5 -33 -10 -55 -10 -22 0 -49 -8 -61 -18 -25 -20 -56
-77 -47 -86 11 -11 43 -6 43 6 0 7 11 22 25 34 22 19 30 20 55 11 24 -9 32 -8
42 4 7 9 21 19 31 22 14 5 17 1 17 -26 -1 -18 -7 -49 -14 -69 -12 -33 -12 -37
6 -41 14 -4 22 2 29 21 22 58 32 109 25 135 -5 23 -11 27 -44 27 -20 0 -44 -5
-52 -10z"/>
<path d="M1838 4495 c-3 -3 -3 -28 0 -56 4 -42 1 -54 -18 -74 -21 -22 -22 -27
-10 -50 13 -25 44 -33 55 -15 3 5 1 19 -5 30 -8 16 -6 24 10 40 20 20 27 79
14 114 -6 15 -35 22 -46 11z"/>
<path d="M2470 4485 c0 -10 10 -15 33 -15 40 0 50 -7 70 -48 14 -30 15 -36 2
-49 -8 -8 -15 -21 -15 -29 0 -8 -8 -14 -18 -14 -10 0 -22 -4 -27 -9 -16 -16
-85 -25 -85 -12 0 13 75 50 103 51 9 0 17 7 17 15 0 10 -11 15 -35 15 -93 0
-176 -87 -114 -120 39 -22 136 -9 154 19 3 6 15 11 25 11 22 0 48 44 52 87 4
58 -59 113 -132 113 -20 0 -30 -5 -30 -15z"/>
<path d="M2698 4463 c-32 -5 -50 -24 -39 -41 6 -10 14 -9 37 3 37 19 48 19 64
0 11 -13 7 -23 -21 -63 -18 -26 -37 -50 -42 -53 -5 -3 0 -9 11 -11 49 -13 127
119 90 150 -18 14 -63 21 -100 15z"/>
<path d="M2936 4353 c9 -75 35 -97 54 -47 23 59 7 104 -37 104 -22 0 -23 -2
-17 -57z"/>
<path d="M3197 4396 c-48 -18 -61 -29 -86 -76 -17 -34 -18 -40 -5 -59 18 -24
52 -27 80 -6 10 8 29 15 41 15 16 0 29 12 43 40 25 48 25 69 3 86 -22 17 -29
16 -76 0z m43 -36 c0 -5 -7 -10 -15 -10 -8 0 -28 -15 -44 -32 -16 -18 -33 -30
-37 -25 -13 13 31 62 62 68 16 4 30 7 32 8 1 0 2 -3 2 -9z"/>
<path d="M3530 4392 c-21 -8 -44 -39 -81 -110 -18 -35 -43 -71 -56 -81 -29
-23 -30 -48 -2 -56 11 -4 22 -5 23 -3 8 11 64 109 81 142 11 22 26 41 32 44 7
2 23 -19 37 -51 24 -54 51 -76 69 -58 7 7 3 25 -10 53 -12 24 -25 56 -30 72
-9 32 -41 56 -63 48z"/>
<path d="M475 4341 c-31 -18 -44 -56 -26 -74 6 -6 11 -21 11 -33 0 -13 5 -35
11 -51 6 -15 10 -59 10 -98 -2 -56 -7 -77 -27 -106 -30 -43 -25 -61 24 -83 34
-15 41 -16 74 -2 37 16 70 53 82 93 10 31 -25 63 -68 63 l-34 0 -7 63 c-4 34
-15 88 -25 121 -10 32 -16 64 -13 72 7 19 69 14 93 -8 27 -25 25 -52 -5 -72
-29 -19 -33 -46 -6 -46 21 0 67 43 76 72 20 61 -105 127 -170 89z m115 -342
c0 -14 -61 -69 -77 -69 -18 0 -16 10 7 48 14 22 27 32 45 32 14 0 25 -5 25
-11z"/>
<path d="M3993 4294 c-17 -7 -4 -34 17 -34 15 0 30 -10 79 -51 18 -16 9 -92
-13 -114 -18 -18 -7 -51 20 -62 56 -21 184 79 184 144 0 48 -61 72 -113 44
-23 -12 -28 -11 -49 9 -12 12 -37 29 -55 36 -17 8 -34 18 -38 24 -7 11 -13 11
-32 4z m247 -120 c0 -32 -25 -64 -63 -79 -22 -9 -40 -15 -42 -13 -1 2 5 24 12
50 10 34 22 52 41 62 29 15 52 6 52 -20z"/>
<path d="M2918 4214 c-9 -9 22 -64 37 -64 24 0 27 34 5 52 -23 19 -33 22 -42
12z"/>
<path d="M750 4037 c0 -7 4 -17 10 -23 6 -6 6 -22 0 -44 -17 -58 23 -79 74
-39 27 22 51 17 42 -8 -4 -9 -1 -22 5 -29 10 -12 14 -11 27 7 19 27 19 98 1
110 -20 12 -23 11 -49 -11 -27 -23 -40 -25 -40 -7 0 18 -38 57 -55 57 -8 0
-15 -6 -15 -13z"/>
<path d="M1109 3978 c-1 -2 -2 -36 -3 -75 -2 -65 0 -73 16 -73 11 0 18 7 18
19 0 11 5 23 10 26 11 7 8 59 -4 88 -7 14 -33 24 -37 15z"/>
<path d="M1760 3934 c-45 -20 -70 -43 -70 -66 0 -25 49 -78 73 -78 17 0 18 -5
12 -37 -3 -21 -18 -58 -32 -82 -22 -38 -23 -45 -10 -58 21 -21 35 -10 47 40 7
23 27 68 46 100 47 81 47 164 -2 186 -14 6 -26 11 -27 11 -1 -1 -18 -8 -37
-16z m52 -41 c7 -30 -21 -65 -46 -57 -33 10 -37 27 -14 51 26 27 55 30 60 6z"/>
<path d="M1465 3931 c-35 -4 -50 -10 -50 -21 0 -11 9 -14 30 -13 78 7 95 5
110 -7 29 -24 14 -45 -32 -46 -23 0 -58 -9 -78 -20 -32 -17 -36 -23 -33 -53 4
-45 41 -60 99 -41 41 14 65 36 94 87 16 27 17 35 5 63 -13 30 -56 62 -82 58
-7 0 -35 -4 -63 -7z m62 -137 c4 -12 -45 -37 -57 -29 -5 3 -7 12 -4 20 4 8 10
13 14 10 5 -3 12 -1 15 5 8 13 27 9 32 -6z"/>
<path d="M2398 3773 l-3 -56 -75 -24 c-111 -34 -108 -33 -90 -43 9 -4 43 -2
80 6 36 7 70 14 76 14 21 0 24 -29 7 -59 -21 -36 -67 -53 -141 -51 -80 2 -82
2 -82 -15 0 -8 1 -15 3 -15 1 -1 41 -3 88 -6 66 -4 94 -2 115 9 33 17 78 63
80 80 0 7 2 22 2 35 1 12 12 32 23 43 19 19 20 23 6 30 -8 5 -18 26 -22 46 -8
45 -21 63 -46 63 -15 0 -19 -10 -21 -57z"/>
<path d="M2674 3740 c-22 -16 -46 -40 -52 -54 -24 -54 13 -116 70 -116 59 0
136 128 108 180 -17 31 -77 27 -126 -10z m86 -35 c0 -39 -22 -58 -77 -69 -28
-5 -33 -3 -33 14 0 40 19 69 52 79 54 15 58 14 58 -24z"/>
<path d="M1078 3749 c-23 -13 -13 -35 23 -48 37 -13 51 9 24 39 -20 23 -23 23
-47 9z"/>
<path d="M3412 3643 c2 -14 13 -17 54 -14 76 4 84 -14 34 -75 -45 -55 -48 -69
-21 -84 53 -28 101 16 109 100 4 45 3 48 -31 68 -45 29 -150 32 -145 5z"/>
<path d="M833 3635 c-15 -17 -17 -61 -3 -70 6 -3 10 -17 10 -29 0 -19 -7 -25
-37 -31 -21 -5 -42 -10 -48 -12 -5 -2 -25 -6 -42 -9 -37 -7 -42 -19 -15 -33
11 -6 28 -5 49 4 17 7 40 12 50 10 10 -2 24 -4 31 -4 6 -1 12 -10 12 -21 0
-30 27 -24 45 10 9 17 24 30 34 30 30 0 51 11 51 26 0 10 -12 14 -39 14 -22 0
-43 5 -46 10 -4 6 -7 34 -9 63 -1 55 -18 71 -43 42z"/>
<path d="M1033 3633 c-19 -7 -16 -33 5 -33 9 0 25 -7 35 -14 22 -17 23 -81 2
-90 -24 -9 -18 -30 14 -49 35 -21 55 -22 71 -3 6 8 21 16 33 18 21 3 67 60 67
82 -1 30 -20 41 -71 39 -45 -2 -57 2 -86 27 -33 29 -45 33 -70 23z m152 -117
c-16 -24 -44 -41 -53 -32 -10 11 29 56 48 56 19 0 20 -1 5 -24z"/>
<path d="M3195 3633 c-81 -19 -94 -24 -89 -38 6 -15 65 -21 78 -8 4 4 26 9 48
10 48 3 53 6 45 28 -6 15 -39 18 -82 8z"/>
<path d="M3898 3612 c-39 -5 -37 -32 2 -32 38 0 47 -20 33 -72 -10 -37 -9 -40
13 -50 13 -6 24 -15 24 -20 0 -4 16 -8 35 -8 29 0 39 6 53 30 9 16 22 30 27
30 12 0 35 56 35 83 0 12 -9 17 -27 18 -35 2 -32 2 -71 -13 -30 -12 -35 -11
-50 8 -20 25 -37 31 -74 26z m162 -68 c0 -16 -37 -65 -53 -70 -31 -10 -30 3 4
40 30 33 49 45 49 30z"/>
<path d="M3716 3573 c-38 -41 -41 -50 -26 -73 9 -12 16 -8 45 25 l34 39 3 -39
c2 -21 8 -40 13 -42 17 -5 38 55 31 92 -6 30 -11 35 -36 35 -20 0 -39 -11 -64
-37z"/>
<path d="M4180 3560 c0 -11 7 -20 15 -20 8 0 15 -3 16 -7 1 -15 9 -58 14 -80
7 -32 41 -48 71 -34 l24 11 0 -79 c0 -60 4 -82 16 -92 26 -22 46 14 38 71 -3
25 1 75 9 113 7 37 10 70 6 72 -13 8 -62 -15 -76 -36 -21 -29 -53 -8 -53 34
-1 42 -21 67 -54 67 -19 0 -26 -5 -26 -20z"/>
<path d="M1840 3301 c0 -5 -19 -12 -42 -15 -87 -13 -147 -43 -134 -65 10 -16
37 -14 56 4 9 8 31 18 49 21 l32 7 -2 -87 c-2 -48 -8 -95 -15 -104 -8 -11 -27
-17 -57 -17 -45 0 -78 -17 -63 -32 10 -11 259 -4 270 7 16 16 -6 30 -50 30
l-46 0 8 93 c3 50 8 95 11 100 6 10 67 9 99 -3 18 -7 31 -7 37 -1 18 18 -12
40 -61 46 -26 3 -55 10 -64 16 -22 11 -28 11 -28 0z"/>
<path d="M2330 3190 c-34 -6 -34 -6 15 -14 110 -17 141 -42 87 -70 -48 -25
-65 -51 -54 -83 8 -23 14 -28 41 -27 35 2 60 27 87 86 17 37 16 38 -9 72 -23
30 -33 35 -79 38 -29 1 -69 1 -88 -2z"/>
<path d="M2645 3130 c-4 -6 -2 -16 3 -23 6 -7 12 -34 14 -61 4 -67 26 -81 68
-41 34 32 39 30 45 -15 2 -18 10 -38 16 -46 17 -21 48 -17 58 9 11 26 61 76
61 59 0 -7 7 -12 15 -12 8 0 15 7 15 15 0 8 5 15 10 15 6 0 10 13 10 29 0 20
-6 30 -19 34 -26 6 -48 -9 -76 -54 -14 -21 -30 -39 -35 -39 -6 0 -10 19 -10
43 0 30 -5 45 -19 54 -16 10 -23 7 -47 -18 -35 -36 -44 -37 -44 -1 0 42 -48
80 -65 52z"/>
<path d="M3031 3076 c-19 -22 10 -111 35 -111 16 0 19 8 19 49 0 38 -4 52 -21
63 -18 12 -23 12 -33 -1z"/>
<path d="M3277 3023 c-3 -10 -5 -40 -6 -67 0 -27 -2 -50 -4 -52 -1 -2 -23 -5
-48 -7 -25 -2 -51 -7 -58 -11 -18 -12 -2 -26 29 -26 45 0 60 -10 60 -40 0 -19
6 -29 19 -33 25 -6 31 0 31 29 0 26 17 40 43 35 16 -2 17 1 7 18 -6 12 -17 21
-26 21 -12 0 -14 12 -8 75 6 71 6 75 -14 75 -11 0 -23 -8 -25 -17z"/>
<path d="M3750 2981 c-19 -13 -5 -18 68 -24 67 -5 77 -15 57 -53 -8 -16 -15
-40 -15 -54 0 -30 25 -70 44 -70 22 0 54 43 61 83 4 20 11 39 15 42 4 3 19
-16 31 -43 28 -56 58 -66 95 -31 13 12 25 21 25 18 1 -2 3 -26 4 -52 3 -57 23
-83 76 -97 31 -8 38 -16 41 -38 2 -19 9 -27 23 -27 16 0 21 8 23 35 5 46 18
60 57 60 18 0 38 6 44 14 17 21 -2 29 -49 21 l-40 -7 0 45 c0 55 8 77 26 77 7
0 11 6 8 14 -6 16 -37 27 -52 17 -9 -6 -24 -72 -26 -116 -1 -11 -7 -29 -13
-40 -11 -19 -14 -19 -40 -5 -26 15 -28 20 -31 93 l-3 77 -28 0 c-20 0 -34 -8
-45 -25 -24 -37 -50 -32 -71 15 -13 29 -26 42 -44 45 -14 3 -46 10 -71 15 -78
16 -154 20 -170 11z"/>
<path d="M595 2869 c-9 -14 -10 -13 64 -30 35 -8 66 -19 68 -26 2 -6 -12 -16
-32 -23 -69 -23 -82 -85 -25 -115 37 -19 70 -19 97 0 24 17 39 71 28 104 -12
40 -65 78 -123 90 -68 14 -69 14 -77 0z m133 -125 c18 -5 20 -9 11 -20 -15
-18 -59 -18 -59 -1 0 26 11 30 48 21z"/>
<path d="M3009 2844 c-10 -13 -10 -17 2 -25 21 -13 36 -11 43 7 13 33 -21 47
-45 18z"/>
<path d="M866 2832 c-3 -5 0 -24 6 -43 10 -34 6 -58 -28 -176 -11 -39 24 -27
41 14 24 57 38 168 25 192 -11 21 -35 28 -44 13z"/>
<path d="M1060 2789 c-22 -24 -30 -41 -30 -69 0 -41 11 -54 54 -64 25 -6 27
-10 22 -36 -3 -17 -9 -45 -12 -62 -4 -18 -17 -48 -31 -66 -23 -30 -25 -62 -5
-62 4 0 20 12 34 28 23 25 49 82 78 177 7 22 21 50 31 63 18 23 17 24 -12 73
-27 43 -35 49 -65 49 -25 0 -42 -8 -64 -31z m57 -39 c13 -35 -4 -56 -37 -45
-16 5 -19 12 -14 28 7 25 23 47 33 47 4 0 12 -13 18 -30z"/>
<path d="M1398 2713 c-16 -2 -28 -8 -28 -12 0 -4 -17 -17 -38 -29 -42 -23 -68
-62 -59 -86 9 -22 27 -20 27 2 0 10 10 28 23 39 29 27 103 64 111 56 12 -12 6
-51 -9 -63 -23 -19 -3 -35 23 -19 42 26 55 91 23 109 -20 10 -24 10 -73 3z"/>
<path d="M1614 2635 c-63 -31 -93 -79 -78 -122 11 -31 49 -49 85 -40 13 4 42
24 65 46 35 34 41 46 39 76 -4 63 -40 76 -111 40z m31 -95 c-22 -24 -63 -26
-72 -3 -4 11 3 24 22 40 l28 25 20 -21 c20 -20 20 -21 2 -41z"/>
<path d="M1955 2617 c-11 -7 -39 -27 -64 -44 -32 -24 -55 -33 -82 -33 -28 0
-39 -4 -39 -15 0 -8 9 -15 20 -15 11 0 20 -7 20 -15 0 -8 -4 -15 -9 -15 -8 0
-12 -18 -28 -118 -3 -18 -2 -61 1 -96 7 -62 8 -63 39 -64 18 -1 37 2 44 6 24
15 56 108 60 179 5 69 6 71 35 77 33 7 102 71 113 106 14 46 -60 77 -110 47z
m65 -36 c0 -27 -29 -58 -72 -76 -32 -13 -37 -13 -49 1 -18 22 -2 44 52 71 55
27 69 28 69 4z m-143 -152 c21 -57 -12 -179 -47 -179 -25 0 -34 62 -21 135 17
91 45 109 68 44z"/>
<path d="M2551 2575 c-30 -45 -18 -62 26 -40 36 18 48 42 32 61 -18 22 -32 17
-58 -21z"/>
<path d="M2703 2470 c-38 -23 -42 -46 -13 -83 24 -30 26 -63 5 -71 -27 -10
-17 -36 13 -36 20 0 32 8 45 30 20 33 17 56 -13 90 -11 13 -20 29 -20 35 0 15
38 27 46 14 3 -5 14 -9 25 -9 13 0 19 7 19 23 0 18 -6 22 -38 24 -23 2 -49 -4
-69 -17z"/>
<path d="M3854 2428 c-52 -65 -152 -200 -169 -227 -5 -9 -18 -28 -27 -43 -22
-32 -22 -38 -3 -38 15 0 85 67 85 82 0 4 7 8 15 8 10 0 15 -10 15 -33 0 -35
15 -57 38 -57 18 0 8 82 -15 121 -15 25 -14 29 8 60 26 38 70 89 112 131 29
29 30 58 4 58 -8 0 -36 -28 -63 -62z"/>
<path d="M2975 2388 c-8 -59 -46 -108 -69 -89 -7 6 -34 14 -60 17 -37 5 -46 4
-46 -8 0 -10 23 -23 63 -37 92 -30 101 -29 126 24 15 31 27 45 41 45 16 0 20
7 20 34 0 38 -21 66 -50 66 -14 0 -20 -11 -25 -52z"/>
<path d="M3098 2433 c-16 -2 -28 -8 -28 -13 0 -6 12 -12 28 -16 49 -10 52 -13
52 -42 0 -45 22 -57 51 -28 13 13 31 34 41 47 12 18 19 21 28 13 16 -16 -3
-58 -39 -85 -40 -29 -39 -43 1 -35 40 8 52 18 82 72 23 41 23 44 6 64 -20 23
-37 25 -90 9 -32 -10 -42 -9 -61 5 -13 9 -28 15 -34 15 -5 -1 -22 -4 -37 -6z"/>
<path d="M3397 2394 c-16 -17 -5 -26 28 -22 44 5 45 -10 2 -37 -21 -13 -37
-35 -47 -63 -14 -40 -13 -43 7 -64 20 -20 26 -20 62 -9 49 14 88 61 97 117 5
36 3 42 -22 58 -28 19 -115 32 -127 20z m89 -82 c27 -17 -23 -72 -67 -72 -18
0 -9 27 17 54 29 28 33 30 50 18z"/>
<path d="M1067 2181 c-28 -6 -87 -55 -87 -72 0 -27 45 -86 82 -109 82 -50 174
-62 166 -22 -2 13 -12 16 -41 14 -54 -5 -58 18 -12 74 33 40 36 48 26 68 -25
45 -71 62 -134 47z m81 -43 c7 -7 12 -18 12 -25 0 -20 -57 -73 -79 -73 -39 0
-66 71 -39 98 7 7 30 12 53 12 23 0 46 -5 53 -12z"/>
<path d="M1380 2143 c-59 -14 -110 -44 -110 -64 0 -16 50 -57 77 -63 16 -4 42
-17 58 -30 l30 -24 -29 -31 c-25 -26 -61 -42 -101 -46 -44 -3 -148 -31 -157
-42 -18 -22 6 -39 34 -26 34 17 66 24 137 29 65 5 121 33 121 61 0 7 6 13 14
13 18 0 25 28 14 60 -6 18 -26 32 -70 52 -34 14 -64 31 -66 36 -10 32 79 59
92 27 8 -23 32 -18 51 11 16 24 16 26 -2 40 -10 7 -20 13 -23 13 -3 -1 -34 -8
-70 -16z"/>
<path d="M2275 1951 c-38 -10 -68 -26 -85 -46 -12 -14 -7 -22 34 -62 27 -25
45 -51 42 -59 -3 -7 -23 -22 -46 -34 -44 -22 -45 -40 -2 -39 39 1 85 31 96 62
9 24 6 31 -32 65 -23 21 -42 45 -42 54 0 22 30 31 49 15 21 -17 51 -10 51 12
0 17 -19 42 -29 40 -4 -1 -19 -4 -36 -8z"/>
<path d="M1964 1929 c-4 -7 -8 -27 -9 -46 -3 -45 -20 -61 -74 -67 -51 -5 -74
-22 -51 -36 8 -6 20 -8 27 -5 6 2 28 7 48 11 l37 7 -6 -40 c-5 -30 -3 -43 8
-52 13 -11 17 -9 26 13 5 15 13 38 16 52 4 14 16 27 30 30 29 7 32 34 4 41
-18 5 -20 12 -16 54 4 43 2 49 -14 49 -10 0 -22 -5 -26 -11z"/>
<path d="M2518 1868 c-16 -5 -28 -16 -28 -23 0 -7 -6 -15 -14 -18 -22 -9 -25
-43 -6 -75 24 -38 78 -64 116 -53 25 6 30 15 41 62 16 67 11 92 -22 107 -30
14 -50 14 -87 0z m70 -51 c2 -15 -1 -27 -7 -27 -6 0 -20 -9 -31 -20 -21 -21
-45 -18 -54 7 -10 26 3 51 32 61 41 14 57 8 60 -21z"/>
<path d="M2737 1846 c-3 -8 2 -16 14 -19 16 -4 19 -14 19 -60 0 -74 6 -87 41
-87 19 0 34 8 45 25 19 29 34 24 34 -9 0 -13 7 -29 16 -36 13 -11 20 -8 44 18
34 38 41 39 37 10 -1 -13 4 -23 13 -25 16 -3 50 83 50 125 0 44 -45 40 -73 -8
-20 -34 -47 -40 -47 -11 0 30 -45 33 -71 5 -27 -29 -39 -30 -39 -4 0 38 -32
90 -56 90 -12 0 -24 -6 -27 -14z"/>
<path d="M3188 1799 c-12 -7 -14 -19 -10 -54 2 -26 0 -63 -6 -83 -6 -20 -13
-70 -16 -110 -4 -65 -3 -73 12 -70 19 4 31 48 51 183 7 44 15 89 17 100 6 25
-25 47 -48 34z"/>
<path d="M3459 1786 c32 -34 36 -82 13 -149 l-20 -57 21 -15 c24 -17 67 -20
67 -5 0 6 5 10 11 10 32 0 117 126 102 153 -7 13 -74 7 -89 -8 -23 -23 -34
-18 -34 15 0 37 -39 80 -71 80 l-22 0 22 -24z m98 -148 c-3 -8 -6 -5 -6 6 -1
11 2 17 5 13 3 -3 4 -12 1 -19z"/>
<path d="M862 1763 c-41 -27 -42 -29 -42 -80 0 -49 2 -54 37 -78 37 -24 87
-32 109 -17 21 14 36 56 36 99 -1 23 2 43 5 43 9 0 75 -51 96 -75 10 -11 33
-43 52 -72 19 -28 38 -53 42 -55 8 -3 63 -85 93 -139 29 -51 88 -107 117 -111
22 -2 29 -9 31 -30 8 -73 97 22 90 95 -3 27 -8 33 -32 35 -16 2 -39 -1 -50 -6
-47 -23 -54 -21 -95 23 -22 23 -49 60 -60 82 -11 21 -58 85 -103 143 -69 87
-93 110 -143 137 -78 41 -127 42 -183 6z m87 -47 c17 -20 10 -77 -10 -89 -44
-28 -90 20 -75 78 5 20 12 25 40 25 18 0 39 -6 45 -14z"/>
<path d="M1750 1340 c-14 -12 -38 -20 -55 -19 -44 3 -85 -11 -85 -28 0 -11 7
-14 21 -10 14 4 28 -2 44 -19 12 -13 28 -24 35 -24 15 0 36 25 50 58 14 32 30
27 30 -9 0 -23 -10 -39 -40 -66 -43 -39 -44 -58 -2 -42 39 15 62 39 80 84 19
46 17 64 -6 82 -24 18 -43 16 -72 -7z"/>
<path d="M1939 1340 c-14 -8 -15 -16 -7 -48 11 -45 42 -70 64 -51 8 6 17 10
20 7 2 -3 5 -49 5 -102 1 -53 4 -96 9 -96 22 0 33 38 38 129 5 118 -4 143 -48
134 -23 -4 -34 0 -47 15 -14 16 -22 19 -34 12z"/>
<path d="M2446 1330 c-21 -10 -47 -31 -58 -48 l-19 -31 34 -31 c47 -43 51 -71
15 -114 -32 -39 -23 -55 20 -37 34 15 61 67 52 102 -4 14 -19 37 -34 52 -36
36 -33 54 14 75 24 10 39 23 38 31 -4 21 -19 21 -62 1z"/>
<path d="M2845 1269 c7 -63 22 -91 58 -111 14 -7 26 -3 53 17 l36 27 -2 -58
c-3 -66 5 -94 26 -94 16 0 17 6 15 87 -1 34 2 78 8 99 8 30 8 42 -2 52 -11 10
-18 9 -40 -8 -14 -11 -29 -29 -32 -40 -8 -24 -42 -35 -61 -20 -8 7 -20 33 -27
58 -22 73 -41 68 -32 -9z"/>
<path d="M2625 1301 c-6 -5 -27 -14 -47 -21 -21 -6 -38 -16 -38 -21 0 -13 17
-11 51 7 37 19 65 11 73 -21 6 -24 46 -37 46 -15 0 6 7 10 15 10 14 0 14 -3 0
-30 -9 -16 -20 -30 -25 -30 -6 0 -10 -7 -10 -15 0 -9 9 -15 24 -15 32 0 59 44
60 95 1 39 0 40 -34 43 -19 2 -39 8 -44 13 -13 11 -59 12 -71 0z"/>
<path d="M1978 663 c-10 -2 -18 -8 -18 -11 -1 -4 -11 -20 -24 -36 -23 -27 -25
-28 -47 -12 -48 33 -67 11 -24 -27 28 -24 31 -53 17 -132 -5 -27 -6 -72 -2
-100 7 -48 8 -45 15 32 5 55 15 83 30 83 12 0 15 -15 15 -75 0 -71 -17 -155
-31 -155 -4 0 -10 10 -14 22 -8 22 -8 22 -12 -4 -8 -52 30 -87 61 -55 23 23
39 122 34 211 -4 86 -4 88 24 111 78 66 60 171 -24 148z m32 -43 c0 -43 -51
-113 -65 -90 -7 11 17 72 38 98 14 18 27 15 27 -8z"/>
<path d="M2161 650 c-14 -3 -26 -11 -29 -18 -3 -9 11 -11 57 -7 58 6 62 5 91
-25 31 -31 39 -60 18 -60 -16 0 -78 -72 -78 -92 0 -9 -2 -22 -5 -30 -7 -19 7
-36 37 -43 38 -10 80 35 100 106 13 46 13 61 3 85 -12 29 -65 85 -65 70 0 -5
-7 -3 -15 4 -8 7 -21 10 -29 7 -8 -3 -17 -3 -20 1 -9 8 -36 9 -65 2z m136
-183 c-17 -40 -34 -54 -49 -39 -6 6 1 22 23 46 38 43 46 41 26 -7z"/>
<path d="M2407 618 c-2 -7 0 -26 5 -43 8 -28 4 -132 -8 -218 -5 -34 -11 -41
-49 -57 -52 -22 -63 -37 -39 -55 16 -11 23 -11 49 3 26 13 96 34 200 60 39 10
49 52 12 52 -13 0 -38 -7 -56 -16 -27 -13 -34 -14 -48 -3 -13 12 -15 31 -10
130 7 138 3 159 -28 159 -13 0 -25 -6 -28 -12z"/>
</g>
</svg>
