<?xml version="1.0" standalone="no"?>
<!DOCTYPE svg PUBLIC "-//W3C//DTD SVG 20010904//EN"
 "http://www.w3.org/TR/2001/REC-SVG-20010904/DTD/svg10.dtd">
<svg version="1.0" xmlns="http://www.w3.org/2000/svg"
 width="437.000000pt" height="656.000000pt" viewBox="0 0 437.000000 656.000000"
 preserveAspectRatio="xMidYMid meet">

<g transform="translate(0.000000,656.000000) scale(0.100000,-0.100000)"
fill="#000000" stroke="none">
<path d="M3621 6312 c-14 -26 -14 -82 -1 -102 7 -10 8 0 4 32 -5 32 -3 53 6
63 7 9 10 18 7 21 -3 3 -10 -3 -16 -14z"/>
<path d="M3690 6300 c0 -5 4 -10 9 -10 5 0 8 -26 8 -57 -1 -32 3 -58 8 -58 6
0 9 8 8 18 -2 10 1 16 6 13 5 -3 12 2 16 12 6 16 7 16 21 -2 18 -25 18 -7 0
28 -12 24 -57 66 -70 66 -3 0 -6 -4 -6 -10z"/>
<path d="M3834 6118 c3 -7 9 -21 12 -30 6 -18 44 -26 44 -10 0 10 -43 52 -54
52 -4 0 -5 -6 -2 -12z"/>
<path d="M3490 6065 c0 -8 3 -15 6 -15 3 0 12 7 20 15 14 13 13 15 -5 15 -12
0 -21 -6 -21 -15z"/>
<path d="M3530 6039 c6 -11 11 -30 10 -42 -4 -46 -2 -51 18 -35 9 8 26 18 37
23 13 5 15 9 8 12 -7 3 -13 10 -13 17 0 18 -33 46 -54 46 -14 0 -15 -4 -6 -21z"/>
<path d="M3560 5898 c0 -27 20 -41 45 -32 18 7 20 38 3 31 -7 -2 -21 2 -30 11
-17 14 -18 13 -18 -10z"/>
<path d="M3346 5871 c-11 -18 5 -36 39 -47 31 -10 35 -9 35 7 0 35 -58 66 -74
40z"/>
<path d="M3430 5780 c0 -5 7 -10 16 -10 8 0 12 5 9 10 -3 6 -10 10 -16 10 -5
0 -9 -4 -9 -10z"/>
<path d="M3275 5700 c3 -5 11 -10 16 -10 6 0 7 5 4 10 -3 6 -11 10 -16 10 -6
0 -7 -4 -4 -10z"/>
<path d="M3230 5649 c0 -11 5 -17 10 -14 6 3 10 13 10 21 0 8 -4 14 -10 14 -5
0 -10 -9 -10 -21z"/>
<path d="M2847 5634 c-8 -8 1 -24 14 -24 5 0 9 7 9 15 0 15 -12 20 -23 9z"/>
<path d="M2750 5619 c0 -5 5 -7 10 -4 6 3 10 8 10 11 0 2 -4 4 -10 4 -5 0 -10
-5 -10 -11z"/>
<path d="M3195 5579 c-3 -3 2 -12 9 -18 9 -8 16 -8 20 -2 4 6 13 8 21 4 8 -3
15 -1 15 5 0 11 -59 22 -65 11z"/>
<path d="M2741 5544 c0 -11 3 -14 6 -6 3 7 2 16 -1 19 -3 4 -6 -2 -5 -13z"/>
<path d="M2760 5505 c7 -9 15 -13 17 -11 7 7 -7 26 -19 26 -6 0 -6 -6 2 -15z"/>
<path d="M2853 5473 c-7 -2 -13 -9 -13 -14 0 -12 68 -45 75 -37 6 5 -38 59
-46 57 -2 0 -10 -3 -16 -6z"/>
<path d="M2994 5371 c5 -7 14 -10 22 -7 8 3 14 -1 14 -8 0 -17 41 -29 54 -16
16 16 -7 31 -54 37 -32 5 -41 3 -36 -6z"/>
<path d="M3693 5298 c-33 -52 -43 -98 -22 -98 8 0 8 -5 -1 -15 -7 -8 -8 -15
-4 -15 9 0 20 -18 49 -81 14 -32 20 -36 52 -35 30 1 40 7 56 33 16 27 17 38 7
75 -13 46 -70 116 -70 85 0 -9 5 -17 10 -17 13 0 13 -40 0 -60 -6 -10 -4 -20
7 -32 15 -17 15 -20 -1 -37 -26 -29 -52 -8 -72 57 -14 43 -15 60 -5 92 13 43
31 62 31 33 0 -10 5 -25 10 -33 7 -11 8 -9 6 11 -4 46 -34 66 -53 37z"/>
<path d="M3552 5051 c-7 -17 -12 -45 -10 -63 l4 -33 17 38 c19 41 28 42 90 10
17 -9 33 -11 43 -5 14 8 14 10 -1 25 -9 10 -24 17 -32 17 -9 0 -24 6 -32 14
-9 8 -27 17 -41 21 -21 5 -27 1 -38 -24z"/>
<path d="M3563 4943 c-7 -18 -19 -33 -27 -33 -9 0 -16 -6 -16 -14 0 -16 21
-26 55 -26 27 0 40 34 20 53 -7 8 -15 22 -17 33 -3 15 -6 12 -15 -13z"/>
<path d="M3460 4900 c-14 -10 -22 -22 -18 -26 4 -4 13 -2 20 4 7 6 18 10 23
11 6 0 11 7 13 15 5 21 -8 20 -38 -4z"/>
<path d="M2617 4884 c-6 -6 51 -124 60 -124 2 0 3 10 1 23 -2 18 1 22 20 20
31 -4 28 21 -5 42 -16 10 -32 24 -36 32 -8 14 -29 17 -40 7z"/>
<path d="M2523 4741 c9 -33 16 -40 41 -44 48 -7 49 1 9 44 -49 51 -64 51 -50
0z"/>
<path d="M3370 4740 c-15 -28 -12 -33 16 -26 17 5 37 0 59 -12 34 -21 49 -18
51 11 1 10 -5 17 -16 17 -10 0 -20 5 -22 11 -2 5 -20 12 -41 14 -28 2 -40 -1
-47 -15z"/>
<path d="M3093 4714 c0 -7 9 -14 19 -14 10 0 18 2 18 5 0 2 -8 9 -18 14 -14 8
-19 6 -19 -5z"/>
<path d="M3150 4680 c0 -20 5 -30 15 -30 10 0 15 10 15 30 0 20 -5 30 -15 30
-10 0 -15 -10 -15 -30z"/>
<path d="M3032 4688 c-14 -14 -16 -42 -3 -34 7 5 23 46 17 46 -1 0 -7 -5 -14
-12z"/>
<path d="M3507 4681 c-16 -6 -15 -10 12 -34 37 -32 51 -34 51 -7 0 11 -5 20
-11 20 -7 0 -17 6 -23 14 -7 8 -18 11 -29 7z"/>
<path d="M2436 4661 c-3 -5 1 -14 8 -20 16 -13 32 2 21 19 -8 12 -22 13 -29 1z"/>
<path d="M2529 4642 c-15 -18 -15 -20 4 -31 17 -11 19 -11 14 3 -5 12 -2 16
11 14 21 -4 23 26 2 30 -8 1 -22 -6 -31 -16z"/>
<path d="M2630 4652 c0 -3 67 -32 75 -32 3 0 5 8 5 18 0 13 -9 17 -40 17 -22
0 -40 -1 -40 -3z"/>
<path d="M2480 4640 c0 -5 7 -7 15 -4 8 4 15 8 15 10 0 2 -7 4 -15 4 -8 0 -15
-4 -15 -10z"/>
<path d="M3010 4633 c0 -4 5 -15 10 -23 8 -13 10 -13 10 2 0 9 -4 20 -10 23
-5 3 -10 3 -10 -2z"/>
<path d="M3151 4614 c0 -11 3 -14 6 -6 3 7 2 16 -1 19 -3 4 -6 -2 -5 -13z"/>
<path d="M3295 4614 c-9 -9 -14 -23 -11 -31 3 -8 6 -19 6 -25 0 -6 11 1 25 16
29 31 48 30 53 -2 2 -14 11 -22 22 -22 29 0 12 41 -22 54 -15 6 -28 14 -28 18
0 14 -28 9 -45 -8z"/>
<path d="M3125 4550 c3 -5 8 -10 11 -10 2 0 4 5 4 10 0 6 -5 10 -11 10 -5 0
-7 -4 -4 -10z"/>
<path d="M3281 4526 c-9 -10 -22 -14 -37 -10 -16 4 -24 2 -24 -6 0 -19 32 -39
63 -40 28 0 33 15 18 53 -6 17 -8 17 -20 3z"/>
<path d="M781 4484 c-11 -13 -11 -15 0 -13 8 1 22 -1 32 -6 26 -11 34 3 11 20
-24 18 -26 18 -43 -1z"/>
<path d="M3861 4461 c-12 -16 -21 -33 -21 -38 0 -4 -14 -26 -30 -47 -17 -22
-30 -44 -30 -49 0 -5 -8 -21 -18 -35 -24 -35 -46 -107 -38 -120 3 -6 14 -11
24 -11 9 0 30 -3 46 -7 27 -6 29 -5 24 20 -3 16 -1 29 6 32 17 7 136 -112 136
-136 0 -11 -11 -38 -25 -60 -20 -32 -23 -44 -15 -60 6 -11 14 -20 18 -20 23 1
58 60 49 84 -7 19 1 46 14 46 5 0 9 -11 9 -24 0 -28 11 -39 32 -31 20 8 81
192 74 220 -3 12 0 35 8 51 24 51 28 84 11 84 -9 0 -19 -8 -22 -17 -9 -26 -54
-94 -80 -123 -13 -14 -23 -28 -23 -32 0 -15 -23 -8 -56 17 -18 14 -36 25 -40
25 -15 0 -64 54 -64 71 0 10 7 25 16 34 9 8 18 34 21 56 4 27 12 43 24 48 18
6 18 8 3 29 -20 29 -28 28 -53 -7z m209 -308 c0 -10 -5 -25 -10 -33 -13 -21
-31 0 -24 28 7 26 34 30 34 5z"/>
<path d="M500 4466 c0 -20 16 -29 41 -21 19 7 20 7 2 21 -24 18 -43 18 -43 0z"/>
<path d="M740 4456 c0 -2 7 -7 16 -10 8 -3 12 -2 9 4 -6 10 -25 14 -25 6z"/>
<path d="M2315 4440 c-6 -10 41 -60 56 -60 11 0 11 21 1 36 -12 19 -50 35 -57
24z"/>
<path d="M560 4431 c0 -5 5 -13 10 -16 6 -3 10 -2 10 4 0 5 -4 13 -10 16 -5 3
-10 2 -10 -4z"/>
<path d="M850 4429 c0 -20 -33 -38 -69 -39 -20 0 -39 -7 -46 -17 -8 -11 -29
-18 -60 -19 -26 -2 -48 -5 -50 -6 -1 -2 1 -25 4 -53 4 -35 10 -50 21 -50 8 0
19 -10 25 -22 5 -13 17 -23 25 -22 10 0 11 2 3 6 -7 2 -13 16 -13 29 0 14 -5
34 -11 45 -17 32 16 62 57 54 26 -4 38 0 61 20 15 15 36 34 46 42 16 15 24 43
12 43 -3 0 -5 -5 -5 -11z"/>
<path d="M2380 4361 c0 -6 5 -13 10 -16 6 -3 10 1 10 9 0 9 -4 16 -10 16 -5 0
-10 -4 -10 -9z"/>
<path d="M777 4280 c8 -29 25 -37 21 -9 -1 12 -8 24 -15 26 -7 3 -9 -3 -6 -17z"/>
<path d="M2492 4271 c-12 -7 -12 -12 -1 -30 17 -25 25 -27 33 -4 9 21 -14 45
-32 34z"/>
<path d="M1106 4235 c-3 -8 -1 -17 3 -20 5 -3 11 2 15 10 3 8 1 17 -3 20 -5 3
-11 -2 -15 -10z"/>
<path d="M830 4205 c0 -8 7 -15 16 -15 14 0 14 3 4 15 -7 8 -14 15 -16 15 -2
0 -4 -7 -4 -15z"/>
<path d="M1105 4181 c-3 -5 -1 -12 5 -16 5 -3 10 1 10 9 0 18 -6 21 -15 7z"/>
<path d="M2126 4178 c-21 -45 19 -99 49 -65 8 9 12 15 9 12 -14 -10 -43 17
-46 42 -3 22 -6 25 -12 11z"/>
<path d="M686 4161 c-18 -20 -16 -51 3 -51 17 0 33 39 23 56 -7 13 -11 12 -26
-5z"/>
<path d="M2240 4151 c0 -5 9 -11 20 -14 13 -3 20 0 20 9 0 8 -9 14 -20 14 -11
0 -20 -4 -20 -9z"/>
<path d="M2953 4149 c-12 -15 -16 -33 -14 -61 1 -16 3 -16 21 2 12 12 25 18
30 15 16 -10 11 11 -8 35 -15 18 -20 20 -29 9z"/>
<path d="M2210 4140 c0 -5 5 -10 11 -10 5 0 7 5 4 10 -3 6 -8 10 -11 10 -2 0
-4 -4 -4 -10z"/>
<path d="M1133 4134 c4 -4 -2 -13 -13 -21 -25 -17 -26 -36 -2 -29 9 3 24 1 32
-4 9 -5 19 -5 27 2 17 14 16 28 -2 28 -8 0 -15 4 -15 9 0 5 -8 12 -17 15 -10
4 -14 4 -10 0z"/>
<path d="M910 4120 c0 -5 4 -10 9 -10 6 0 13 5 16 10 3 6 -1 10 -9 10 -9 0
-16 -4 -16 -10z"/>
<path d="M1447 4103 c-4 -3 -7 -11 -7 -17 0 -6 5 -5 12 2 6 6 9 14 7 17 -3 3
-9 2 -12 -2z"/>
<path d="M3022 4091 c7 -11 14 -19 17 -19 4 1 14 -2 24 -7 10 -4 20 -5 23 -2
10 10 -7 27 -27 27 -10 0 -19 5 -19 10 0 6 -7 10 -15 10 -12 0 -13 -3 -3 -19z"/>
<path d="M1056 4075 c-24 -18 -67 -19 -86 -2 -12 10 -12 9 0 -8 8 -11 19 -25
25 -30 5 -6 15 -19 21 -30 7 -12 20 -19 30 -17 26 5 29 9 15 26 -15 18 -5 56
15 56 8 0 14 5 14 10 0 14 -11 12 -34 -5z"/>
<path d="M1180 4061 c0 -6 5 -13 10 -16 6 -3 10 1 10 9 0 9 -4 16 -10 16 -5 0
-10 -4 -10 -9z"/>
<path d="M2291 4054 c0 -11 3 -14 6 -6 3 7 2 16 -1 19 -3 4 -6 -2 -5 -13z"/>
<path d="M2951 4047 c4 -30 -2 -47 -17 -47 -28 0 -11 -34 19 -37 21 -1 28 3
33 22 3 13 3 32 0 43 -7 22 -38 39 -35 19z"/>
<path d="M3094 4049 c-3 -6 -1 -16 5 -22 6 -6 11 -7 11 -3 0 5 7 3 15 -4 12
-10 15 -10 15 2 0 15 -19 38 -31 38 -4 0 -11 -5 -15 -11z"/>
<path d="M1420 4034 c0 -17 -80 -94 -97 -94 -12 0 -14 -7 -9 -27 4 -16 8 -37
10 -48 2 -11 4 -23 5 -27 0 -5 8 -8 16 -8 18 0 20 -27 3 -32 -9 -3 -8 -12 6
-32 27 -42 44 -20 28 39 -7 25 -12 54 -12 65 0 11 -4 20 -9 20 -12 0 0 52 15
67 18 18 51 16 62 -3 8 -15 12 -14 31 5 21 21 21 41 0 41 -6 0 -19 10 -30 23
-10 12 -18 17 -19 11z"/>
<path d="M1220 4023 c0 -4 5 -15 10 -23 8 -13 10 -13 10 2 0 9 -4 20 -10 23
-5 3 -10 3 -10 -2z"/>
<path d="M3173 4006 c1 -11 9 -21 17 -23 10 -3 11 -2 4 4 -6 4 -14 15 -17 23
-5 11 -6 9 -4 -4z"/>
<path d="M1250 3993 c1 -14 40 -58 40 -45 0 6 -9 21 -20 32 -11 11 -20 17 -20
13z"/>
<path d="M3737 3963 c-24 -24 18 -73 63 -73 30 0 26 38 -5 50 -14 5 -25 14
-25 20 0 11 -23 14 -33 3z"/>
<path d="M3523 3943 c-4 -10 -11 -21 -16 -24 -5 -4 1 -24 15 -47 17 -29 28
-38 37 -32 12 7 10 15 -8 46 -18 29 -19 39 -9 45 16 10 45 2 80 -22 27 -20 58
-16 58 7 0 7 -16 16 -35 20 -19 3 -35 10 -35 15 0 5 -18 9 -40 9 -30 0 -42 -5
-47 -17z"/>
<path d="M1091 3924 c0 -11 3 -14 6 -6 3 7 2 16 -1 19 -3 4 -6 -2 -5 -13z"/>
<path d="M2815 3928 c-11 -6 -27 -14 -35 -18 -17 -8 -27 -50 -11 -50 5 0 12
-8 14 -17 4 -14 5 -12 6 5 0 12 6 22 12 22 11 0 53 -85 53 -109 1 -8 7 -16 14
-18 18 -7 15 49 -5 89 -9 18 -20 41 -25 51 -5 10 -6 27 -3 38 7 22 7 22 -20 7z"/>
<path d="M1450 3910 c0 -5 4 -10 9 -10 5 0 14 -12 19 -27 l10 -28 1 27 c1 18
-6 31 -19 38 -14 7 -20 7 -20 0z"/>
<path d="M1040 3891 c0 -5 9 -11 19 -14 14 -3 18 -1 14 9 -6 15 -33 19 -33 5z"/>
<path d="M1501 3834 c0 -11 3 -14 6 -6 3 7 2 16 -1 19 -3 4 -6 -2 -5 -13z"/>
<path d="M1520 3805 c0 -8 4 -15 10 -15 5 0 7 7 4 15 -4 8 -8 15 -10 15 -2 0
-4 -7 -4 -15z"/>
<path d="M2788 3798 c-3 -7 -18 -13 -34 -14 -47 -2 -50 -4 -34 -14 8 -5 23 -7
33 -4 11 3 17 0 17 -10 0 -11 9 -16 29 -16 38 0 47 15 27 45 -18 27 -32 32
-38 13z"/>
<path d="M3361 3790 c-18 -16 -20 -20 -6 -20 9 0 25 4 35 10 10 5 26 7 35 4
26 -10 52 -88 33 -100 -4 -3 -8 6 -8 19 0 28 -29 45 -42 25 -12 -19 -10 -22
17 -48 13 -12 22 -26 19 -31 -9 -15 29 -28 42 -14 14 14 17 102 3 111 -5 3 -9
12 -9 21 0 42 -78 57 -119 23z"/>
<path d="M3597 3784 c-14 -14 -7 -35 11 -32 9 2 17 10 17 17 0 16 -18 25 -28
15z"/>
<path d="M1582 3729 c33 -55 38 -66 38 -94 0 -41 13 -57 41 -53 18 2 24 9 24
27 0 14 6 26 13 29 6 2 12 8 12 13 0 4 -7 6 -15 3 -8 -4 -27 7 -46 25 -17 17
-34 31 -39 31 -4 0 -10 9 -13 20 -3 11 -10 20 -16 20 -8 0 -8 -6 1 -21z"/>
<path d="M1889 3718 c0 -2 -2 -23 -4 -48 l-3 -45 11 38 c6 20 14 37 19 37 5 0
6 5 3 10 -5 9 -24 14 -26 8z"/>
<path d="M1950 3700 c0 -5 5 -10 11 -10 5 0 7 5 4 10 -3 6 -8 10 -11 10 -2 0
-4 -4 -4 -10z"/>
<path d="M1980 3669 c0 -24 18 -45 28 -34 6 6 3 17 -9 29 -14 14 -19 16 -19 5z"/>
<path d="M2630 3672 c0 -12 40 -47 40 -36 1 14 30 -57 30 -72 0 -8 -9 -14 -19
-14 -11 0 -23 -5 -27 -11 -4 -7 -9 -7 -13 -1 -3 5 -16 12 -28 16 -20 6 -23 4
-23 -19 0 -32 25 -43 49 -20 16 14 26 15 57 6 20 -6 41 -8 46 -5 13 8 10 31
-7 47 -8 8 -12 17 -9 19 2 3 -4 23 -13 44 -14 31 -23 38 -40 36 -13 -2 -23 1
-23 7 0 6 -4 11 -10 11 -5 0 -10 -4 -10 -8z"/>
<path d="M2565 3640 c-3 -5 -1 -10 4 -10 6 0 11 5 11 10 0 6 -2 10 -4 10 -3 0
-8 -4 -11 -10z"/>
<path d="M1780 3571 c0 -5 5 -13 10 -16 6 -3 10 -2 10 4 0 5 -4 13 -10 16 -5
3 -10 2 -10 -4z"/>
<path d="M1700 3498 c0 -7 4 -19 9 -27 6 -9 9 -5 9 13 0 14 -4 26 -9 26 -5 0
-9 -6 -9 -12z"/>
<path d="M1837 3494 c-3 -3 -3 -13 0 -21 3 -8 0 -19 -8 -24 -17 -10 0 -31 30
-36 29 -4 34 11 17 52 -14 33 -26 42 -39 29z"/>
<path d="M1775 3470 c3 -5 8 -10 11 -10 2 0 4 5 4 10 0 6 -5 10 -11 10 -5 0
-7 -4 -4 -10z"/>
<path d="M2825 3464 c7 -8 18 -14 24 -14 6 0 11 6 11 14 0 8 -10 14 -24 14
-21 0 -23 -3 -11 -14z"/>
<path d="M1940 3455 c0 -8 7 -15 15 -15 8 0 15 4 15 9 0 5 -7 11 -15 15 -9 3
-15 0 -15 -9z"/>
<path d="M2872 3398 c2 -21 8 -33 18 -33 19 0 25 32 10 50 -20 24 -31 17 -28
-17z"/>
<path d="M2490 3400 c0 -5 5 -10 10 -10 6 0 10 5 10 10 0 6 -4 10 -10 10 -5 0
-10 -4 -10 -10z"/>
<path d="M1740 3333 c0 -6 -10 -15 -22 -19 -21 -6 -21 -7 -3 -20 26 -19 45
-17 45 4 0 19 -20 54 -20 35z"/>
<path d="M1478 3246 c-21 -16 -23 -36 -4 -36 7 0 16 9 19 21 3 12 10 18 16 14
6 -3 11 -1 11 4 0 15 -21 13 -42 -3z"/>
<path d="M1530 3223 c0 -26 16 -47 29 -39 17 11 13 34 -9 46 -17 9 -20 8 -20
-7z"/>
<path d="M1471 3171 c-9 -6 -12 -18 -7 -36 4 -15 10 -25 13 -21 5 5 14 66 9
66 0 0 -7 -4 -15 -9z"/>
<path d="M1570 3148 c0 -7 5 -20 10 -28 8 -12 10 -11 10 7 0 12 -4 25 -10 28
-5 3 -10 0 -10 -7z"/>
<path d="M1581 3074 c0 -11 3 -14 6 -6 3 7 2 16 -1 19 -3 4 -6 -2 -5 -13z"/>
<path d="M1498 3053 c-3 -16 -9 -36 -13 -45 -4 -11 -3 -18 5 -18 6 0 9 4 5 9
-10 17 15 23 31 7 20 -21 35 -20 27 0 -4 11 1 22 12 30 18 13 17 14 -8 14 -15
0 -30 7 -33 15 -9 23 -21 18 -26 -12z"/>
<path d="M1638 3023 c7 -3 16 -2 19 1 4 3 -2 6 -13 5 -11 0 -14 -3 -6 -6z"/>
<path d="M1700 2971 c0 -10 9 -30 21 -45 22 -28 18 -46 -9 -46 -13 0 -12 -3 5
-15 24 -17 53 -10 53 12 0 8 -4 11 -10 8 -6 -3 -10 5 -10 19 0 14 -4 28 -10
31 -5 3 -10 14 -10 25 0 10 -7 20 -15 24 -10 3 -15 -1 -15 -13z"/>
<path d="M1585 2950 c3 -5 11 -10 16 -10 6 0 7 5 4 10 -3 6 -11 10 -16 10 -6
0 -7 -4 -4 -10z"/>
<path d="M2220 2874 c-8 -9 -15 -37 -16 -61 -2 -47 -8 -58 -45 -77 -26 -13
-46 -42 -36 -52 4 -4 24 -1 46 6 35 11 40 11 60 -9 18 -18 25 -20 44 -9 12 7
28 11 36 9 7 -1 10 2 7 8 -3 5 -1 41 6 80 11 67 11 73 -7 91 -29 28 -78 36
-95 14z m47 -66 c-3 -8 -6 -5 -6 6 -1 11 2 17 5 13 3 -3 4 -12 1 -19z"/>
<path d="M1369 2847 c6 -8 9 -28 7 -45 -2 -22 1 -32 10 -32 8 0 14 5 14 10 0
6 9 10 20 10 11 0 20 -6 20 -14 0 -8 7 -16 15 -20 19 -7 19 7 -2 47 -20 40
-41 56 -72 57 -19 0 -21 -3 -12 -13z"/>
<path d="M1317 2796 c-4 -10 -5 -21 -2 -24 9 -9 17 6 13 25 -3 17 -4 17 -11
-1z"/>
<path d="M2434 2779 c20 -96 19 -126 -3 -141 -19 -14 -25 -13 -60 4 -33 16
-42 17 -60 6 -25 -15 -27 -28 -6 -28 8 0 15 -3 15 -8 0 -11 93 -42 128 -42 37
0 41 5 52 76 11 65 -4 154 -25 154 -7 0 -21 3 -31 7 -15 6 -16 2 -10 -28z"/>
<path d="M1380 2735 c0 -9 5 -15 11 -13 6 2 11 8 11 13 0 5 -5 11 -11 13 -6 2
-11 -4 -11 -13z"/>
<path d="M1455 2728 c-4 -10 -16 -18 -26 -18 -28 0 -23 -19 7 -26 34 -9 51 8
37 38 -10 21 -12 21 -18 6z"/>
<path d="M1160 2684 c0 -9 10 -30 23 -47 12 -17 27 -43 33 -57 10 -23 11 -21
11 23 1 36 -4 55 -20 73 -24 27 -47 31 -47 8z"/>
<path d="M2069 2533 c-87 -96 -52 -225 66 -243 42 -6 44 -6 39 16 -3 12 0 25
6 29 6 4 15 18 20 31 12 32 35 30 65 -3 38 -44 41 -83 11 -132 -15 -22 -31
-41 -36 -41 -15 0 -11 -42 6 -65 14 -19 15 -19 37 6 46 52 97 155 97 196 0 26
-5 35 -24 43 -13 5 -45 35 -70 68 -32 41 -63 67 -99 84 -83 41 -90 41 -118 11z
m101 -54 c12 -21 -1 -60 -35 -104 -13 -17 -17 -17 -29 -5 -8 8 -17 26 -21 40
-4 21 1 29 30 48 19 12 35 27 35 32 0 16 8 12 20 -11z"/>
<path d="M1255 2432 c3 -17 1 -34 -5 -37 -13 -8 -13 -45 -1 -45 21 0 33 101
13 108 -9 3 -11 -5 -7 -26z"/>
<path d="M2226 2331 c-3 -4 1 -17 9 -27 14 -18 14 -18 15 9 0 26 -13 36 -24
18z"/>
<path d="M1588 2302 c-4 -25 -1 -28 19 -24 24 5 27 10 17 36 -10 26 -31 18
-36 -12z"/>
<path d="M900 2179 c13 -6 33 -17 42 -26 20 -18 23 -11 8 18 -7 13 -21 19 -43
18 -31 0 -31 -1 -7 -10z"/>
<path d="M841 2114 c0 -11 3 -14 6 -6 3 7 2 16 -1 19 -3 4 -6 -2 -5 -13z"/>
<path d="M840 2065 c0 -20 32 -35 60 -28 21 6 20 7 -16 24 -45 23 -44 23 -44
4z"/>
<path d="M982 2067 c-25 -11 -29 -27 -7 -27 8 0 15 4 15 9 0 4 11 6 25 3 16
-3 25 -11 25 -23 0 -23 18 -25 27 -3 15 39 -35 63 -85 41z"/>
<path d="M1760 2036 c0 -16 27 -29 41 -20 19 11 9 34 -16 34 -15 0 -25 -6 -25
-14z"/>
<path d="M1685 2032 c30 -57 35 -65 35 -52 0 8 -10 26 -21 40 -11 14 -18 19
-14 12z"/>
<path d="M1030 1970 c-9 -16 -8 -20 5 -20 8 0 15 2 15 4 0 2 3 11 6 20 9 23
-13 20 -26 -4z"/>
<path d="M1760 1921 c0 -6 5 -13 10 -16 6 -3 10 1 10 9 0 9 -4 16 -10 16 -5 0
-10 -4 -10 -9z"/>
<path d="M730 1886 c0 -18 38 -46 63 -46 15 0 18 -7 17 -32 -3 -49 -2 -50 30
-33 18 9 30 23 30 35 0 11 0 23 0 27 0 4 -16 8 -35 9 -25 0 -41 8 -56 27 -22
29 -49 36 -49 13z"/>
<path d="M1630 1854 c0 -8 5 -12 10 -9 6 4 8 11 5 16 -9 14 -15 11 -15 -7z"/>
<path d="M876 1765 c4 -8 11 -15 16 -15 6 0 5 6 -2 15 -7 8 -14 15 -16 15 -2
0 -1 -7 2 -15z"/>
<path d="M1631 1764 c0 -11 3 -14 6 -6 3 7 2 16 -1 19 -3 4 -6 -2 -5 -13z"/>
<path d="M1697 1729 c-9 -12 -16 -16 -19 -9 -2 7 -13 10 -23 8 -19 -4 -19 -5
3 -16 25 -14 55 -3 66 23 8 22 -11 18 -27 -6z"/>
<path d="M910 1732 c0 -14 48 -54 59 -51 13 5 -31 59 -48 59 -6 0 -11 -4 -11
-8z"/>
<path d="M760 1710 c0 -5 5 -10 11 -10 5 0 7 5 4 10 -3 6 -8 10 -11 10 -2 0
-4 -4 -4 -10z"/>
<path d="M1513 1685 c10 -32 27 -48 27 -25 0 17 -5 25 -12 23 -5 -2 -8 6 -8
17 0 11 -4 20 -9 20 -5 0 -4 -15 2 -35z"/>
<path d="M595 1694 c-20 -15 -20 -16 4 -12 14 2 26 9 29 16 5 16 -9 15 -33 -4z"/>
<path d="M1477 1703 c-4 -3 -7 -11 -7 -17 0 -6 5 -5 12 2 6 6 9 14 7 17 -3 3
-9 2 -12 -2z"/>
<path d="M638 1673 c7 -3 16 -2 19 1 4 3 -2 6 -13 5 -11 0 -14 -3 -6 -6z"/>
<path d="M670 1660 c-13 -9 -7 -14 12 -11 4 0 5 -5 2 -13 -3 -7 2 -19 11 -26
13 -10 15 -9 15 7 0 30 -22 54 -40 43z"/>
<path d="M566 1651 c-4 -5 -2 -12 3 -15 5 -4 12 -2 15 3 4 5 2 12 -3 15 -5 4
-12 2 -15 -3z"/>
<path d="M1447 1611 c-3 -12 3 -27 14 -37 17 -15 19 -15 25 -1 9 24 1 51 -17
55 -10 2 -19 -5 -22 -17z"/>
<path d="M666 1585 c-9 -9 -16 -25 -16 -36 0 -10 -7 -19 -15 -19 -9 0 -12 -6
-9 -15 5 -11 11 -12 25 -5 10 6 24 9 31 8 8 -2 14 10 16 31 4 42 -10 58 -32
36z"/>
<path d="M583 1561 c6 -17 14 -28 19 -25 4 3 1 16 -8 30 -21 32 -25 30 -11 -5z"/>
<path d="M1336 1453 c-11 -12 -6 -23 24 -55 l30 -31 0 30 c0 21 -7 36 -24 46
-13 9 -26 13 -30 10z"/>
<path d="M478 1391 c27 -22 30 -82 6 -102 -14 -11 -18 -11 -29 4 -15 20 -28 8
-19 -17 8 -20 46 -30 79 -22 29 7 44 50 26 75 -6 9 -14 23 -18 31 -12 26 -37
50 -52 50 -10 0 -7 -6 7 -19z"/>
<path d="M430 1344 c0 -8 5 -12 10 -9 6 3 10 10 10 16 0 5 -4 9 -10 9 -5 0
-10 -7 -10 -16z"/>
<path d="M1385 1347 c-4 -10 -5 -21 -1 -24 10 -10 18 4 13 24 -4 17 -4 17 -12
0z"/>
<path d="M1173 1273 c-7 -2 -13 -11 -13 -20 0 -20 34 -12 38 10 3 17 -3 20
-25 10z"/>
<path d="M1195 1150 c-8 -13 15 -13 35 0 12 8 11 10 -7 10 -12 0 -25 -4 -28
-10z"/>
<path d="M270 1130 c-6 -12 -10 -35 -8 -53 l3 -32 22 44 c21 43 22 61 3 61 -5
0 -14 -9 -20 -20z"/>
<path d="M320 1133 c0 -5 7 -18 15 -29 12 -16 14 -16 15 -3 0 9 -7 22 -15 29
-8 7 -15 8 -15 3z"/>
<path d="M1265 1130 c-3 -5 -1 -10 4 -10 6 0 11 5 11 10 0 6 -2 10 -4 10 -3 0
-8 -4 -11 -10z"/>
<path d="M345 1028 c-8 -26 -16 -34 -37 -36 -18 -2 -28 1 -28 10 -1 16 -29
-32 -30 -49 0 -7 9 -13 20 -13 11 0 20 -4 20 -10 0 -19 18 -10 23 11 5 19 11
21 54 16 26 -4 42 -4 35 -1 -6 3 -9 11 -6 16 4 6 2 8 -3 5 -18 -11 -36 21 -29
53 8 40 -7 38 -19 -2z"/>
<path d="M450 931 c0 -5 5 -13 10 -16 6 -3 10 -2 10 4 0 5 -4 13 -10 16 -5 3
-10 2 -10 -4z"/>
<path d="M496 891 c-3 -5 0 -13 7 -19 10 -8 13 -6 13 9 0 20 -11 25 -20 10z"/>
<path d="M185 877 c-4 -10 -5 -21 -1 -24 10 -10 18 4 13 24 -4 17 -4 17 -12 0z"/>
<path d="M526 845 c-7 -21 3 -45 20 -45 18 0 17 20 0 43 -12 15 -14 16 -20 2z"/>
<path d="M107 783 c-21 -20 7 -72 39 -73 16 0 25 40 13 62 -10 18 -39 24 -52
11z"/>
<path d="M544 758 c3 -13 5 -25 5 -28 1 -3 5 1 10 9 10 16 4 41 -10 41 -5 0
-7 -10 -5 -22z"/>
<path d="M866 701 c-3 -5 -2 -19 2 -32 9 -23 9 -23 14 4 5 27 -5 46 -16 28z"/>
<path d="M791 634 c0 -11 3 -14 6 -6 3 7 2 16 -1 19 -3 4 -6 -2 -5 -13z"/>
<path d="M881 582 c-7 -14 -18 -21 -27 -18 -22 9 -16 -18 10 -43 21 -19 27
-21 44 -10 13 8 18 17 13 24 -5 5 -13 23 -18 40 l-10 30 -12 -23z"/>
<path d="M565 400 c3 -5 10 -10 16 -10 5 0 9 5 9 10 0 6 -7 10 -16 10 -8 0
-12 -4 -9 -10z"/>
<path d="M600 403 c0 -17 37 -63 51 -63 10 0 29 -13 42 -30 30 -35 47 -38 47
-9 0 30 -79 104 -113 105 -15 1 -27 0 -27 -3z"/>
<path d="M610 254 c0 -8 5 -12 10 -9 6 3 10 10 10 16 0 5 -4 9 -10 9 -5 0 -10
-7 -10 -16z"/>
<path d="M742 246 c7 -8 15 -12 17 -11 5 6 -10 25 -20 25 -5 0 -4 -6 3 -14z"/>
</g>
</svg>
