<?xml version="1.0" standalone="no"?>
<!DOCTYPE svg PUBLIC "-//W3C//DTD SVG 20010904//EN"
 "http://www.w3.org/TR/2001/REC-SVG-20010904/DTD/svg10.dtd">
<svg version="1.0" xmlns="http://www.w3.org/2000/svg"
 width="896.000000pt" height="598.000000pt" viewBox="0 0 896.000000 598.000000"
 preserveAspectRatio="xMidYMid meet">

<g transform="translate(0.000000,598.000000) scale(0.100000,-0.100000)"
fill="#000000" stroke="none">
<path d="M6665 5650 c-45 -18 -50 -36 -25 -96 16 -40 21 -65 16 -94 -5 -30 -2
-41 10 -48 17 -9 33 -105 34 -198 0 -36 5 -54 14 -57 17 -7 24 1 57 66 30 60
62 92 85 83 13 -5 15 -14 10 -45 -7 -45 0 -71 19 -71 14 0 31 85 26 130 -7 64
-54 67 -115 7 l-43 -44 -13 69 c-6 38 -9 79 -6 91 3 12 25 34 49 49 47 29 73
68 64 92 -16 41 -136 85 -182 66z m103 -56 l23 -15 -20 -28 c-46 -64 -62 -64
-86 5 -22 64 16 81 83 38z"/>
<path d="M8440 5517 c-14 -6 -47 -28 -74 -48 l-50 -37 -24 19 c-37 29 -73 24
-109 -13 -40 -43 -53 -69 -53 -110 0 -47 18 -67 64 -73 21 -3 42 -8 47 -11 5
-2 18 16 30 41 12 25 25 48 30 51 5 3 9 12 9 21 0 15 76 93 90 93 4 0 13 7 20
15 10 12 28 15 69 13 50 -3 57 -6 78 -37 30 -44 29 -86 -3 -147 -32 -61 -51
-76 -86 -68 -20 4 -28 2 -28 -8 0 -27 19 -41 58 -42 33 0 44 5 68 33 65 77 84
195 42 258 -39 56 -116 78 -178 50z m-186 -115 c7 -12 -7 -29 -31 -36 -13 -4
-23 -15 -23 -26 0 -19 -17 -36 -27 -27 -11 12 20 79 41 87 27 11 34 12 40 2z"/>
<path d="M7736 5446 c-15 -13 -26 -26 -26 -28 0 -11 39 -15 49 -5 13 13 18 0
25 -79 7 -76 12 -91 37 -97 21 -6 51 25 84 86 21 39 40 44 40 10 1 -11 7 -28
14 -37 12 -15 15 -14 28 11 8 16 17 48 20 73 11 101 -54 105 -120 7 -21 -32
-43 -55 -48 -52 -5 4 -9 24 -9 45 0 85 -42 115 -94 66z"/>
<path d="M7393 5418 c-6 -7 -18 -38 -28 -68 -9 -30 -21 -63 -26 -72 -5 -10 -9
-24 -9 -32 0 -7 -7 -19 -15 -26 -23 -19 -19 -57 7 -66 26 -8 45 14 54 64 4 18
15 55 24 80 22 56 30 44 33 -44 2 -56 4 -59 28 -62 22 -3 27 2 32 25 3 15 1
54 -4 86 -16 96 -65 154 -96 115z"/>
<path d="M7051 5359 c-28 -22 -49 -45 -45 -50 8 -14 42 -11 51 5 11 18 65 44
81 39 17 -6 15 -33 -3 -33 -8 0 -20 -10 -26 -22 -7 -13 -15 -25 -19 -28 -25
-19 -39 -127 -18 -148 22 -22 74 -14 92 12 48 74 59 178 25 232 -30 49 -70 47
-138 -7z m83 -156 c-12 -26 -18 -33 -21 -21 -5 19 28 89 34 71 2 -6 -4 -28
-13 -50z"/>
<path d="M6430 5305 c-15 -18 -5 -65 13 -65 8 0 24 12 38 26 24 25 24 26 5 40
-25 18 -40 18 -56 -1z"/>
<path d="M7085 5030 c-19 -7 -19 -7 -1 -17 23 -13 15 -43 -12 -43 -10 0 -25
-12 -33 -27 -8 -15 -24 -38 -36 -51 -26 -28 -28 -43 -11 -60 22 -22 62 -14 91
19 15 17 27 34 27 37 0 3 6 13 14 21 7 9 16 32 20 52 5 29 2 39 -17 55 -15 13
-30 18 -42 14z m-28 -152 c-17 -13 -24 -25 -20 -36 4 -12 3 -14 -4 -7 -6 6 -9
24 -6 42 4 23 11 33 27 35 31 4 33 -12 3 -34z"/>
<path d="M7377 5033 c-14 -4 -17 -13 -15 -43 1 -31 -4 -44 -26 -65 -27 -25
-27 -45 0 -45 8 0 14 5 14 10 0 6 7 10 15 10 42 0 -10 -72 -65 -92 -19 -6 -30
-17 -30 -29 0 -25 32 -25 48 1 7 11 21 20 31 20 21 0 67 49 107 112 23 35 24
42 11 50 -9 4 -25 24 -37 43 -12 19 -25 34 -28 34 -4 -1 -15 -3 -25 -6z"/>
<path d="M6874 5013 c-8 -8 -14 -27 -14 -42 0 -45 -24 -67 -77 -70 -7 -1 -13
-7 -13 -15 0 -44 75 -28 97 20 18 37 38 44 47 17 3 -10 4 -3 2 14 -1 18 2 34
7 36 6 2 7 14 4 28 -7 28 -31 33 -53 12z"/>
<path d="M6592 5005 c-17 -9 -20 -15 -12 -20 8 -5 17 -1 22 9 9 16 12 16 34 1
23 -15 24 -14 24 5 0 23 -31 26 -68 5z"/>
<path d="M6995 4980 c-3 -5 1 -10 10 -10 9 0 13 5 10 10 -3 6 -8 10 -10 10 -2
0 -7 -4 -10 -10z"/>
<path d="M7993 4970 c-13 -5 -23 -16 -23 -25 0 -8 -5 -15 -12 -15 -6 0 -9 -3
-6 -6 4 -3 19 1 35 9 15 8 41 12 58 10 l29 -4 -26 20 c-14 12 -28 21 -30 20
-1 0 -13 -4 -25 -9z"/>
<path d="M6660 4936 c-5 -15 -17 -26 -28 -26 -23 0 -54 -53 -55 -96 -1 -41 11
-55 40 -48 25 7 49 58 61 132 10 56 -2 80 -18 38z"/>
<path d="M6398 4918 c-37 -31 -38 -31 -58 -13 -17 15 -24 16 -47 6 -20 -9 -23
-15 -15 -23 7 -7 12 -22 12 -34 0 -40 25 -49 65 -24 20 12 43 33 52 46 15 24
33 32 33 15 0 -5 5 -22 11 -38 14 -37 27 -15 25 45 -1 39 -4 47 -21 49 -11 1
-37 -12 -57 -29z"/>
<path d="M6520 4935 c-10 -12 -10 -15 3 -15 8 0 17 7 21 15 3 8 2 15 -3 15 -5
0 -14 -7 -21 -15z"/>
<path d="M6100 4921 c0 -5 9 -7 20 -4 26 7 44 -35 23 -55 -8 -8 -12 -19 -10
-25 1 -5 -9 -24 -25 -40 -27 -31 -28 -47 -3 -47 15 0 69 90 79 132 5 21 2 30
-13 38 -24 12 -71 13 -71 1z"/>
<path d="M8110 4890 c0 -24 -5 -33 -20 -37 -22 -6 -24 -33 -4 -40 11 -4 74 52
74 65 0 4 -12 15 -25 25 l-25 18 0 -31z"/>
<path d="M7941 4890 c-1 -37 16 -104 28 -108 6 -2 11 -14 11 -27 0 -12 6 -28
14 -34 8 -7 17 -30 21 -52 7 -39 18 -49 31 -27 4 6 0 16 -8 22 -8 6 -18 28
-22 50 -4 21 -11 46 -15 55 -14 26 -31 86 -31 105 0 9 -4 15 -9 11 -5 -3 -12
3 -14 12 -3 12 -5 10 -6 -7z"/>
<path d="M6028 4882 c-31 -19 -37 -42 -12 -42 10 0 14 6 10 15 -3 9 0 15 8 15
7 0 19 7 26 15 16 19 3 18 -32 -3z"/>
<path d="M5620 4835 c0 -15 46 -32 57 -22 3 4 3 13 0 22 -8 20 -57 20 -57 0z"/>
<path d="M5846 4821 c-8 -9 -17 -37 -21 -62 -7 -50 3 -63 44 -52 27 7 77 101
61 117 -17 17 -68 15 -84 -3z"/>
<path d="M8591 4696 c-7 -8 -11 -31 -10 -53 2 -54 -12 -137 -25 -145 -16 -10
-35 10 -46 51 -5 20 -9 40 -9 45 1 9 -21 26 -33 26 -4 0 -21 -24 -37 -52 l-30
-52 -23 50 c-27 60 -52 76 -85 56 -13 -8 -23 -23 -23 -33 0 -23 8 -24 30 -4
19 18 54 9 46 -11 -13 -34 33 -124 64 -124 4 0 17 16 29 35 18 31 23 34 41 25
12 -7 20 -19 18 -30 -3 -17 27 -60 43 -60 4 0 22 27 41 60 34 63 42 70 52 45
8 -21 43 -19 48 3 3 10 -3 28 -13 41 -10 12 -21 39 -24 59 -12 71 -15 82 -29
82 -7 0 -19 -6 -25 -14z"/>
<path d="M7564 4669 c-3 -6 -1 -15 6 -19 17 -11 50 0 50 16 0 17 -46 19 -56 3z"/>
<path d="M7615 4630 c-3 -5 -1 -10 6 -10 10 0 10 -3 1 -12 -7 -7 -12 -19 -12
-27 0 -28 21 -91 30 -91 7 0 8 28 1 128 -1 23 -15 29 -26 12z"/>
<path d="M8039 4608 c-1 -7 0 -17 1 -23 1 -5 3 -35 5 -67 3 -58 9 -78 26 -78
6 0 8 4 5 9 -3 5 1 14 9 21 8 7 17 27 21 46 7 41 41 69 61 53 9 -8 10 -16 3
-29 -15 -28 -12 -60 5 -60 8 0 15 8 16 18 0 9 2 33 4 52 3 36 -9 70 -25 70 -5
0 -24 -13 -42 -30 -18 -16 -36 -30 -41 -30 -4 0 -13 14 -18 30 -11 30 -28 40
-30 18z"/>
<path d="M7523 4590 c-7 -25 -30 -26 -55 -3 -17 15 -20 15 -28 3 -7 -10 -10
-11 -10 -2 0 6 -9 12 -20 12 -11 0 -20 -7 -20 -16 0 -8 -4 -13 -9 -10 -9 6
-31 -37 -31 -62 1 -23 50 36 50 60 0 15 4 16 25 6 16 -7 25 -19 25 -33 0 -13
10 -30 23 -38 22 -14 24 -14 39 22 22 52 30 81 23 81 -4 0 -9 -9 -12 -20z"/>
<path d="M6886 4533 c-8 -21 -24 -54 -34 -73 -11 -19 -25 -47 -31 -62 -6 -17
-18 -28 -30 -28 -10 0 -24 -6 -30 -14 -10 -12 -8 -19 10 -37 l21 -21 27 31
c14 17 34 52 44 78 35 90 37 94 48 87 7 -4 9 -25 4 -59 -7 -58 5 -79 24 -39
12 27 15 94 5 143 -9 44 -38 41 -58 -6z"/>
<path d="M7102 4547 c-14 -14 -18 -27 -13 -36 7 -11 11 -10 20 6 5 11 7 24 3
28 -4 4 4 2 17 -5 20 -10 23 -17 18 -52 -3 -23 -12 -48 -21 -56 -14 -15 -16
-13 -22 15 -3 18 -12 34 -20 37 -24 9 -11 -84 15 -106 36 -28 54 -23 82 22 12
19 14 39 10 81 -10 87 -45 113 -89 66z"/>
<path d="M6539 4414 c-22 -36 -22 -36 -80 -31 -48 4 -61 2 -74 -13 -9 -10 -14
-24 -10 -29 8 -13 35 -15 35 -2 0 14 32 23 44 11 5 -5 9 -26 8 -45 -3 -43 7
-44 36 -5 13 17 27 30 32 30 16 0 23 -50 11 -77 -12 -27 -6 -63 11 -63 6 0 8
9 5 20 -3 10 -1 20 4 22 5 2 12 36 15 77 3 41 10 85 15 99 7 18 6 28 -3 34
-21 13 -25 10 -49 -28z"/>
<path d="M7324 4428 c-9 -14 4 -55 19 -61 8 -3 20 -1 27 3 11 7 11 14 1 37
-12 29 -36 39 -47 21z"/>
<path d="M6150 4420 c0 -5 -10 -12 -22 -15 -13 -3 -28 -16 -34 -29 -9 -19 -7
-26 10 -39 27 -23 34 -21 29 6 -8 38 40 76 53 42 4 -8 15 -15 25 -15 24 0 26
45 3 54 -24 9 -64 7 -64 -4z"/>
<path d="M6152 4319 c3 -8 11 -14 19 -14 18 0 49 -26 49 -41 0 -6 -11 -19 -25
-28 -14 -9 -25 -23 -25 -31 0 -19 16 -19 24 0 3 8 13 15 22 15 19 0 43 28 44
51 0 24 -33 49 -75 56 -30 5 -37 3 -33 -8z"/>
<path d="M5351 4291 c-16 -17 -32 -43 -36 -60 -6 -28 -9 -30 -56 -29 -44 1
-54 -3 -81 -30 -29 -28 -32 -37 -32 -94 0 -90 9 -118 39 -118 28 0 32 21 11
59 -16 28 -6 95 17 118 23 23 60 9 74 -27 9 -25 17 -31 35 -28 20 3 24 12 33
74 10 67 26 104 46 104 11 0 39 -95 39 -131 0 -30 23 -54 44 -46 18 7 11 116
-12 167 -34 77 -73 90 -121 41z"/>
<path d="M5895 4263 c-37 -9 -115 -45 -115 -54 0 -17 42 -20 66 -4 13 9 41 17
62 18 30 2 37 6 37 22 0 21 -16 26 -50 18z"/>
<path d="M4967 4253 c-10 -3 -27 -25 -37 -49 -20 -46 -39 -56 -47 -25 -10 39
-75 52 -89 18 -7 -19 78 -107 104 -107 12 0 31 13 44 30 12 17 25 30 28 30 4
0 15 -37 25 -82 19 -84 37 -118 63 -118 10 0 13 7 9 23 -3 12 -17 78 -32 147
-15 68 -29 128 -31 132 -5 8 -8 8 -37 1z"/>
<path d="M6389 4236 c-23 -24 -24 -42 -3 -50 26 -10 31 -7 37 17 2 12 7 29 11
38 10 23 -22 20 -45 -5z"/>
<path d="M4513 4188 c-62 -52 -69 -64 -41 -79 17 -9 23 -9 26 0 8 25 70 81 90
81 22 0 32 -24 32 -81 0 -48 26 -72 46 -44 8 10 14 28 14 39 0 23 16 53 24 46
2 -3 -2 -23 -11 -45 -8 -22 -16 -47 -19 -55 -6 -22 11 -44 29 -37 33 12 79
141 70 191 -5 23 -10 26 -43 26 -21 0 -43 -7 -50 -15 -12 -14 -15 -14 -30 0
-32 29 -81 19 -137 -27z"/>
<path d="M4364 4155 c-3 -8 4 -26 15 -41 12 -15 21 -41 21 -58 0 -31 -9 -38
-72 -60 -10 -3 -18 -10 -18 -15 0 -14 44 -24 69 -16 20 6 25 -4 33 -85 2 -17
10 -26 26 -28 24 -4 24 -4 24 75 0 48 2 53 29 62 47 16 33 51 -22 51 -12 0
-20 9 -24 25 -3 14 -8 37 -11 52 -3 16 -10 34 -16 40 -14 18 -47 16 -54 -2z"/>
<path d="M3747 4103 c-45 -7 -171 -94 -182 -125 -16 -46 25 -50 64 -6 l29 33
7 -50 c4 -28 13 -73 21 -102 8 -28 14 -55 14 -61 0 -14 -79 -64 -90 -57 -6 3
-10 -1 -10 -9 0 -21 38 -40 53 -28 7 5 37 20 67 33 75 31 130 66 130 83 0 22
-31 28 -56 11 -13 -8 -26 -15 -29 -15 -15 0 -55 114 -55 156 0 68 11 81 75 89
30 4 57 11 60 15 13 20 -48 41 -98 33z"/>
<path d="M3141 3957 c-6 -8 -17 -30 -26 -50 -15 -36 -15 -36 12 -39 22 -2 29
-10 34 -38 13 -64 77 -83 99 -30 12 28 15 30 48 24 34 -7 35 -6 29 22 -12 62
-26 84 -51 84 -19 0 -27 -8 -36 -34 -6 -19 -17 -40 -25 -46 -11 -9 -16 -4 -24
27 -6 21 -11 46 -11 55 0 24 -35 42 -49 25z"/>
<path d="M2891 3900 c-35 -18 -58 -55 -40 -65 5 -4 22 3 38 14 16 12 37 21 48
21 14 0 10 -8 -20 -36 -35 -34 -38 -40 -35 -87 4 -61 21 -76 67 -58 38 16 97
127 87 166 -15 61 -77 80 -145 45z m45 -148 c-15 -15 -16 -15 -16 5 0 12 6 23
13 26 19 6 21 -13 3 -31z"/>
<path d="M2640 3851 c-41 -18 -90 -54 -90 -66 0 -24 16 -25 54 -4 39 21 58 18
41 -5 -6 -7 -25 -32 -42 -56 -40 -52 -42 -83 -8 -98 38 -18 51 -15 80 16 32
33 75 114 75 141 0 43 -71 90 -110 72z"/>
<path d="M2381 3824 c-17 -14 -31 -31 -31 -37 0 -6 -11 -22 -25 -37 -24 -25
-24 -26 -14 -130 16 -169 20 -191 42 -216 31 -36 52 -30 76 19 23 48 31 174
13 219 -9 22 -7 38 13 89 28 71 30 90 13 107 -19 19 -54 14 -87 -14z m33 -72
c-7 -34 -18 -41 -27 -18 -5 13 21 61 29 53 2 -2 1 -18 -2 -35z m-17 -113 c7
-13 13 -38 13 -56 0 -44 -20 -133 -30 -133 -12 0 -26 116 -22 188 2 39 20 39
39 1z"/>
<path d="M7390 3811 c0 -11 4 -21 9 -21 18 0 21 18 6 30 -13 10 -15 9 -15 -9z"/>
<path d="M7227 3774 c-10 -13 -13 -24 -8 -24 10 0 36 39 29 45 -2 2 -11 -8
-21 -21z"/>
<path d="M7034 3742 c-6 -4 -16 -17 -23 -29 -9 -18 -17 -21 -41 -16 -34 6 -35
3 -18 -44 17 -48 41 -43 56 13 12 44 14 45 42 39 33 -7 35 -4 20 26 -11 20
-19 23 -36 11z"/>
<path d="M2055 3708 c-16 -6 -41 -21 -56 -34 -14 -13 -29 -24 -35 -24 -5 0
-15 -9 -21 -20 -21 -33 4 -34 62 -1 63 35 71 37 79 15 4 -10 -5 -25 -26 -42
-57 -47 -98 -95 -98 -114 0 -30 42 -43 76 -24 47 26 61 40 87 88 20 38 23 53
17 93 -4 29 -15 54 -26 62 -20 15 -19 15 -59 1z"/>
<path d="M6882 3695 c-36 -30 -56 -31 -82 -5 -11 11 -27 20 -35 20 -16 0 -58
-41 -49 -49 3 -3 8 -1 12 5 4 6 19 14 33 17 22 6 27 2 37 -26 7 -19 12 -53 12
-76 0 -60 22 -49 35 17 11 58 35 92 65 92 11 0 20 4 20 9 0 22 -20 20 -48 -4z"/>
<path d="M7270 3708 c0 -5 9 -12 20 -15 11 -3 20 -9 20 -14 0 -5 8 -9 19 -9
22 0 66 -39 66 -59 0 -8 6 -16 14 -19 10 -3 12 0 6 14 -4 11 -8 25 -8 32 0 6
-6 12 -13 12 -7 0 -17 7 -22 16 -11 20 -102 57 -102 42z"/>
<path d="M1752 3630 c-42 -44 -53 -50 -89 -50 -27 0 -43 -5 -47 -15 -8 -22 19
-43 48 -38 23 5 26 2 28 -23 5 -89 13 -146 33 -239 8 -37 32 -65 57 -65 49 0
77 82 60 175 -11 58 -10 67 8 102 44 86 43 185 -3 197 -39 10 -47 7 -95 -44z
m75 -56 c-6 -58 -23 -77 -43 -50 -19 26 -18 55 3 78 30 34 46 23 40 -28z m-56
-146 c2 -21 3 -28 13 -49 10 -23 3 -92 -10 -96 -13 -4 -31 74 -33 147 -1 51 0
54 14 36 8 -11 16 -28 16 -38z"/>
<path d="M6592 3652 c-9 -6 -6 -12 11 -21 13 -7 31 -28 40 -47 21 -43 34 -43
39 -1 3 17 9 41 13 52 8 19 8 19 -12 2 -19 -16 -21 -16 -43 3 -26 22 -29 23
-48 12z"/>
<path d="M7067 3643 c-11 -10 -8 -43 3 -43 6 0 10 11 10 25 0 26 -2 29 -13 18z"/>
<path d="M6113 3575 c-11 -8 -23 -24 -26 -35 -6 -23 8 -28 17 -5 3 9 18 15 36
15 32 0 37 9 18 28 -15 15 -19 15 -45 -3z"/>
<path d="M7050 3570 c0 -5 5 -10 10 -10 6 0 10 5 10 10 0 6 -4 10 -10 10 -5 0
-10 -4 -10 -10z"/>
<path d="M5930 3553 c-17 -7 -30 -23 -30 -38 1 -5 5 -2 11 8 17 29 64 22 93
-15 14 -18 26 -27 26 -20 0 17 -58 72 -74 71 -6 0 -18 -3 -26 -6z"/>
<path d="M7333 3553 c-13 -2 -23 -8 -23 -13 0 -13 53 -5 58 9 2 6 0 10 -5 10
-4 -1 -18 -4 -30 -6z"/>
<path d="M5683 3518 c-6 -7 -13 -24 -17 -38 -11 -44 -22 -56 -40 -40 -24 19
-31 4 -12 -25 19 -29 34 -32 42 -7 8 25 27 65 37 79 13 19 37 4 37 -24 0 -13
4 -22 9 -18 14 8 -13 79 -31 83 -8 2 -19 -3 -25 -10z"/>
<path d="M5416 3493 c5 -10 8 -45 7 -78 l-2 -60 14 40 c8 22 15 57 15 78 0 31
-3 37 -21 37 -17 0 -19 -4 -13 -17z"/>
<path d="M6150 3480 c0 -16 5 -30 10 -30 6 0 10 14 10 30 0 17 -4 30 -10 30
-5 0 -10 -13 -10 -30z"/>
<path d="M5490 3490 c-13 -8 -13 -10 2 -10 9 0 20 5 23 10 8 13 -5 13 -25 0z"/>
<path d="M6050 3489 c0 -5 5 -7 10 -4 6 3 10 8 10 11 0 2 -4 4 -10 4 -5 0 -10
-5 -10 -11z"/>
<path d="M4610 3460 c-8 -6 -29 -10 -45 -10 -34 0 -55 -15 -55 -41 0 -22 50
-13 68 13 7 10 19 18 27 18 14 0 30 18 23 25 -2 2 -10 0 -18 -5z"/>
<path d="M4655 3463 c11 -3 26 -10 33 -16 15 -12 27 -3 17 12 -3 6 -21 10 -38
10 -21 -1 -25 -3 -12 -6z"/>
<path d="M5095 3461 c-7 -12 12 -24 25 -16 6 3 13 -2 16 -12 3 -10 10 -26 15
-35 13 -25 -9 -58 -43 -65 -42 -8 -33 -22 11 -16 45 6 51 -5 51 -104 0 -62 14
-88 32 -62 5 8 6 50 3 97 -6 77 -5 84 13 89 18 4 18 6 -5 29 -13 13 -29 23
-35 21 -7 -1 -13 4 -14 11 -1 6 -3 15 -4 20 -1 4 -2 11 -1 16 5 26 -50 49 -64
27z"/>
<path d="M5364 3457 c-6 -7 -9 -18 -6 -25 2 -6 -3 -12 -11 -12 -22 0 -28 -61
-9 -83 21 -24 33 -9 38 49 2 26 8 52 14 58 5 5 10 14 10 18 0 12 -24 9 -36 -5z"/>
<path d="M1309 3453 c-1 -5 -1 -33 0 -63 2 -55 2 -55 -37 -72 -21 -10 -46 -18
-54 -18 -13 0 -28 -19 -28 -36 0 -8 69 -4 94 6 29 11 27 15 30 -75 1 -40 5
-50 20 -53 27 -6 36 15 36 91 0 59 2 67 19 67 24 0 43 23 35 44 -4 10 -18 16
-35 16 -28 0 -30 2 -28 38 2 21 -1 43 -5 50 -8 13 -45 17 -47 5z"/>
<path d="M6490 3448 c0 -9 5 -20 10 -23 13 -8 13 5 0 25 -8 13 -10 13 -10 -2z"/>
<path d="M1021 3429 c-43 -36 -72 -81 -65 -103 15 -49 71 -76 157 -76 51 0 70
18 50 48 -6 11 -6 25 0 43 12 31 -12 92 -39 103 -31 12 -79 5 -103 -15z m87
-58 c7 -45 -6 -71 -36 -71 -31 1 -62 21 -62 41 0 8 7 25 16 37 22 32 77 28 82
-7z"/>
<path d="M6155 3403 c7 -30 13 -39 19 -32 8 8 -6 59 -16 59 -6 0 -7 -11 -3
-27z"/>
<path d="M4575 3359 c4 -19 12 -45 18 -59 9 -21 11 -22 14 -7 3 10 1 26 -3 35
-4 9 -6 21 -5 25 1 4 -6 15 -15 24 -15 16 -16 14 -9 -18z"/>
<path d="M5751 3368 c-1 -16 4 -28 9 -28 12 0 12 8 0 35 -8 18 -9 17 -9 -7z"/>
<path d="M6530 3380 c0 -5 5 -10 10 -10 6 0 10 5 10 10 0 6 -4 10 -10 10 -5 0
-10 -4 -10 -10z"/>
<path d="M4427 3359 c-9 -6 -15 -14 -12 -20 9 -14 19 -11 33 11 13 22 7 25
-21 9z"/>
<path d="M5876 3352 c-3 -6 -1 -14 5 -17 15 -10 25 3 12 16 -7 7 -13 7 -17 1z"/>
<path d="M5780 3299 c0 -15 7 -32 15 -39 12 -10 15 -9 15 7 0 10 -7 28 -15 39
-14 18 -14 18 -15 -7z"/>
<path d="M3922 3250 c0 -14 2 -19 5 -12 2 6 2 18 0 25 -3 6 -5 1 -5 -13z"/>
<path d="M3883 3253 c-15 -5 -18 -33 -4 -33 8 0 25 30 19 35 -2 1 -9 0 -15 -2z"/>
<path d="M4610 3237 c0 -12 -7 -32 -15 -44 -14 -20 -14 -22 4 -28 36 -11 71
22 41 40 -5 3 -10 17 -10 31 0 13 -4 24 -10 24 -5 0 -10 -10 -10 -23z"/>
<path d="M4735 3220 c-3 -5 -2 -10 4 -10 5 0 13 5 16 10 3 6 2 10 -4 10 -5 0
-13 -4 -16 -10z"/>
<path d="M4675 3200 c-3 -5 -1 -10 4 -10 6 0 11 5 11 10 0 6 -2 10 -4 10 -3 0
-8 -4 -11 -10z"/>
<path d="M3776 3151 c-3 -4 3 -16 14 -26 19 -17 20 -17 26 0 9 23 -27 47 -40
26z"/>
<path d="M3572 3069 c-12 -5 -22 -15 -22 -24 0 -19 16 -20 24 0 8 22 24 18 32
-7 9 -27 7 -45 -8 -75 -6 -13 -8 -26 -5 -29 8 -9 46 37 47 55 0 11 4 10 15 -5
15 -18 15 -16 11 26 -3 25 -5 47 -5 49 -1 2 -8 1 -16 -3 -8 -3 -15 -2 -15 3 0
13 -33 19 -58 10z"/>
<path d="M3955 3070 c3 -5 8 -10 11 -10 2 0 4 5 4 10 0 6 -5 10 -11 10 -5 0
-7 -4 -4 -10z"/>
<path d="M3278 3032 c-50 -31 -47 -62 5 -62 18 0 43 -7 55 -16 14 -10 22 -11
22 -4 0 7 -9 14 -21 17 -12 4 -18 11 -15 20 3 8 6 19 6 24 0 6 9 7 22 4 17 -6
20 -4 15 10 -4 9 -7 19 -7 21 0 10 -58 0 -82 -14z"/>
<path d="M3495 3030 c-3 -5 -2 -10 4 -10 6 0 14 -15 19 -32 10 -40 25 -39 33
2 5 24 2 33 -12 40 -23 13 -36 13 -44 0z"/>
<path d="M2708 2910 l-23 -19 23 -1 c32 0 44 -37 24 -75 -9 -16 -16 -34 -17
-39 0 -14 -54 -26 -61 -14 -3 5 -3 25 1 44 5 28 3 35 -9 32 -8 -2 -22 6 -30
17 -15 20 -15 20 -16 -1 0 -11 3 -24 7 -27 4 -4 7 -28 7 -54 l1 -47 38 -1 c20
-1 37 2 37 7 0 4 10 8 21 8 17 0 20 5 17 25 -3 14 -2 25 3 25 39 0 55 105 20
127 -16 10 -24 9 -43 -7z"/>
<path d="M6452 2908 c7 -19 38 -22 38 -4 0 10 -9 16 -21 16 -12 0 -19 -5 -17
-12z"/>
<path d="M6414 2875 c-9 -22 1 -29 15 -11 8 10 9 16 1 21 -5 3 -13 -1 -16 -10z"/>
<path d="M2670 2870 c-13 -8 -12 -10 3 -10 9 0 17 5 17 10 0 12 -1 12 -20 0z"/>
<path d="M2290 2831 c0 -11 4 -22 9 -25 5 -3 12 -26 16 -52 6 -39 3 -50 -20
-80 -14 -19 -22 -34 -16 -34 5 0 11 5 13 11 5 16 38 -1 38 -19 0 -11 10 -6 31
17 25 28 29 38 21 55 -6 12 -13 36 -16 54 -10 61 -76 124 -76 73z"/>
<path d="M2458 2843 c7 -3 16 -2 19 1 4 3 -2 6 -13 5 -11 0 -14 -3 -6 -6z"/>
<path d="M5495 2840 c-4 -6 1 -33 10 -60 12 -36 14 -54 6 -69 -16 -29 -13 -39
11 -43 16 -2 24 -12 29 -36 10 -47 15 -48 35 -7 14 30 15 38 4 45 -10 6 -8 11
9 21 28 18 27 25 -9 38 -16 5 -30 15 -30 21 0 17 -42 100 -51 100 -4 0 -11 -5
-14 -10z"/>
<path d="M6070 2800 c0 -10 7 -25 15 -34 27 -27 19 -72 -20 -103 -37 -30 -44
-43 -21 -43 7 0 21 11 30 25 19 29 43 24 52 -12 6 -22 8 -23 23 -8 25 22 29
19 37 -20 3 -19 10 -38 15 -41 5 -3 7 5 5 18 -3 13 -5 23 -6 23 -5 0 -14 56
-14 88 0 24 -4 36 -11 33 -6 -2 -22 13 -35 34 -29 47 -70 70 -70 40z"/>
<path d="M5306 2754 c-3 -9 -6 -24 -6 -35 0 -16 3 -18 19 -9 11 5 27 7 35 4
23 -9 19 9 -7 34 -28 26 -33 27 -41 6z"/>
<path d="M1866 2721 c-4 -5 3 -26 15 -45 24 -41 20 -66 -11 -66 -11 0 -20 -4
-20 -8 0 -5 -10 -14 -22 -20 -22 -10 -21 -11 10 -11 17 -1 32 4 32 10 0 6 12
9 26 7 21 -2 29 -12 45 -57 10 -30 21 -57 25 -60 6 -6 -1 41 -12 80 -3 9 2 24
10 32 13 13 13 16 1 21 -8 3 -25 27 -39 54 -27 54 -51 78 -60 63z"/>
<path d="M5066 2711 c-9 -14 4 -40 26 -52 25 -14 27 -11 16 29 -8 30 -30 43
-42 23z"/>
<path d="M2966 2694 c-17 -17 -20 -33 -10 -59 5 -13 9 -14 15 -4 6 10 13 9 30
-6 l21 -20 -7 45 c-11 66 -20 74 -49 44z"/>
<path d="M4823 2686 c-13 -6 -23 -14 -23 -18 0 -11 7 -10 31 5 30 18 51 -13
43 -65 -5 -31 -4 -38 10 -38 11 0 14 -4 10 -12 -4 -7 -9 -23 -10 -36 -4 -37
-13 -54 -24 -47 -5 3 -10 15 -10 26 0 23 -28 26 -37 3 -8 -21 40 -69 61 -61 8
3 18 23 22 44 4 21 11 46 16 57 7 12 6 22 0 28 -7 7 -7 16 1 29 9 14 7 26 -8
56 -21 40 -43 48 -82 29z"/>
<path d="M6470 2690 c0 -5 5 -10 10 -10 6 0 10 5 10 10 0 6 -4 10 -10 10 -5 0
-10 -4 -10 -10z"/>
<path d="M5300 2669 c0 -5 5 -7 10 -4 6 3 10 8 10 11 0 2 -4 4 -10 4 -5 0 -10
-5 -10 -11z"/>
<path d="M6337 2674 c-12 -12 -8 -61 7 -73 15 -13 96 -22 96 -11 0 4 -8 11
-17 14 -42 16 -63 32 -71 54 -4 13 -11 20 -15 16z"/>
<path d="M5400 2660 c0 -5 7 -10 15 -10 8 0 15 5 15 10 0 6 -7 10 -15 10 -8 0
-15 -4 -15 -10z"/>
<path d="M4671 2642 c0 -7 4 -22 9 -33 6 -11 13 -36 16 -57 7 -54 14 -72 29
-72 7 0 16 7 19 16 10 27 7 54 -7 54 -7 0 -19 16 -26 35 -7 19 -16 35 -21 35
-5 0 -11 8 -13 18 -3 9 -5 11 -6 4z"/>
<path d="M2190 2630 c0 -5 9 -10 21 -10 11 0 17 5 14 10 -3 6 -13 10 -21 10
-8 0 -14 -4 -14 -10z"/>
<path d="M4610 2633 c-1 -5 -10 -19 -20 -32 l-20 -23 -21 26 c-11 14 -28 26
-37 26 -16 -1 -16 -1 -1 -10 9 -5 20 -21 23 -35 4 -15 11 -23 17 -19 6 4 9 -1
8 -12 -2 -11 0 -25 4 -32 11 -17 28 2 46 53 8 22 16 46 18 53 3 6 0 12 -6 12
-6 0 -11 -3 -11 -7z"/>
<path d="M5105 2620 c3 -5 8 -10 11 -10 2 0 4 5 4 10 0 6 -5 10 -11 10 -5 0
-7 -4 -4 -10z"/>
<path d="M5256 2614 c-9 -23 -8 -24 14 -24 13 0 20 7 20 20 0 24 -25 27 -34 4z"/>
<path d="M4347 2575 c-15 -19 -23 -35 -17 -35 7 0 20 10 29 22 10 12 23 18 29
14 23 -14 10 -106 -14 -106 -17 0 -18 -22 -3 -74 13 -48 24 -35 32 39 3 28 9
72 13 99 6 41 4 51 -11 62 -26 19 -26 19 -58 -21z"/>
<path d="M1575 2590 c4 -6 11 -8 16 -5 14 9 11 15 -7 15 -8 0 -12 -5 -9 -10z"/>
<path d="M1624 2589 c-3 -6 -1 -15 6 -19 8 -5 10 -18 5 -39 -6 -28 -4 -31 18
-31 14 0 27 6 30 14 7 17 -2 56 -13 56 -5 0 -15 7 -24 15 -10 11 -17 12 -22 4z"/>
<path d="M1768 2563 c6 -2 18 -2 25 0 6 3 1 5 -13 5 -14 0 -19 -2 -12 -5z"/>
<path d="M2895 2531 c-6 -5 -23 -11 -40 -14 -16 -2 -41 -9 -55 -16 -24 -11
-23 -11 10 -7 85 12 110 20 110 37 0 12 -13 12 -25 0z"/>
<path d="M1310 2511 c0 -10 9 -30 20 -44 20 -25 27 -67 12 -67 -5 0 -14 -11
-19 -23 -10 -22 -9 -23 13 -19 16 3 24 11 24 24 0 10 5 16 10 13 6 -4 10 12
10 40 0 35 -6 52 -25 70 -29 30 -45 32 -45 6z"/>
<path d="M4167 2524 c-9 -10 2 -24 19 -24 8 0 14 7 14 15 0 15 -21 21 -33 9z"/>
<path d="M4308 2517 c-7 -7 -24 -21 -38 -30 -18 -12 -20 -17 -8 -17 9 0 19 6
21 13 4 7 8 3 13 -11 9 -32 35 -9 32 29 -3 33 -2 33 -20 16z"/>
<path d="M1582 2495 c-16 -18 -20 -33 -16 -51 7 -26 41 -47 59 -35 6 3 14 6
20 6 5 0 11 8 13 18 4 19 -14 24 -20 5 -3 -7 -14 -9 -31 -4 -32 8 -37 41 -7
51 11 3 20 13 20 21 0 21 -14 17 -38 -11z"/>
<path d="M5142 2508 c5 -15 28 -23 28 -10 0 5 -7 13 -16 16 -10 4 -14 1 -12
-6z"/>
<path d="M4115 2500 c-3 -5 3 -10 14 -10 12 0 21 5 21 10 0 6 -6 10 -14 10 -8
0 -18 -4 -21 -10z"/>
<path d="M5535 2500 c-3 -5 -1 -10 4 -10 6 0 11 5 11 10 0 6 -2 10 -4 10 -3 0
-8 -4 -11 -10z"/>
<path d="M6040 2492 c0 -15 22 -30 37 -25 11 4 10 8 -4 19 -21 15 -33 18 -33
6z"/>
<path d="M6120 2490 c0 -5 5 -10 10 -10 6 0 10 5 10 10 0 6 -4 10 -10 10 -5 0
-10 -4 -10 -10z"/>
<path d="M4054 2471 c-11 -11 -1 -23 31 -37 49 -20 55 -18 39 16 -12 22 -21
29 -40 28 -14 -2 -27 -4 -30 -7z"/>
<path d="M2295 2461 c-3 -6 -11 -9 -16 -6 -5 4 -9 2 -9 -3 0 -15 25 -21 41
-11 10 6 11 11 3 19 -9 9 -14 9 -19 1z"/>
<path d="M5465 2463 c-38 -9 -40 -23 -3 -23 23 0 38 6 42 15 5 15 -2 17 -39 8z"/>
<path d="M4155 2361 c-3 -5 -1 -12 5 -16 5 -3 10 1 10 9 0 18 -6 21 -15 7z"/>
<path d="M3392 2318 c-20 -20 -14 -36 12 -31 20 4 25 0 30 -25 4 -16 6 -35 4
-42 -2 -7 3 -15 10 -17 9 -4 11 6 8 39 -3 23 -8 53 -12 66 -7 24 -33 29 -52
10z"/>
<path d="M3250 2290 c0 -5 4 -10 9 -10 5 0 24 -16 42 -35 38 -40 46 -42 65
-17 24 31 17 42 -26 37 -32 -3 -43 0 -53 16 -12 20 -37 26 -37 9z"/>
<path d="M4110 2289 c0 -5 5 -7 10 -4 6 3 10 8 10 11 0 2 -4 4 -10 4 -5 0 -10
-5 -10 -11z"/>
<path d="M4387 2273 c-3 -16 -1 -32 4 -37 5 -6 9 4 9 27 0 44 -6 48 -13 10z"/>
<path d="M730 2251 c0 -69 27 -103 49 -62 15 27 -5 81 -30 81 -12 0 -19 -7
-19 -19z"/>
<path d="M3191 2234 c0 -11 3 -14 6 -6 3 7 2 16 -1 19 -3 4 -6 -2 -5 -13z"/>
<path d="M3167 2223 c-4 -3 -7 -16 -6 -27 0 -19 1 -19 10 3 10 24 8 36 -4 24z"/>
<path d="M4325 2190 c3 -5 13 -10 21 -10 8 0 14 5 14 10 0 6 -9 10 -21 10 -11
0 -17 -4 -14 -10z"/>
<path d="M3420 2180 c0 -5 4 -10 9 -10 6 0 13 5 16 10 3 6 -1 10 -9 10 -9 0
-16 -4 -16 -10z"/>
<path d="M503 2141 c-10 -16 -9 -20 5 -26 9 -3 18 -1 20 4 2 6 10 11 18 11 8
0 14 7 14 15 0 22 -43 19 -57 -4z"/>
<path d="M2977 2128 c-13 -14 -28 -19 -48 -16 -23 4 -28 1 -25 -11 2 -9 7 -28
10 -43 8 -37 25 -36 32 1 4 20 11 28 20 24 8 -3 14 0 14 6 0 6 9 11 21 11 15
0 19 -5 15 -15 -3 -8 1 -29 8 -46 9 -21 15 -26 19 -17 3 8 1 21 -4 29 -5 8 -9
33 -9 57 0 34 -3 42 -17 41 -10 0 -26 -10 -36 -21z"/>
<path d="M317 2103 c-18 -17 -5 -33 26 -33 21 0 41 -8 52 -20 10 -11 24 -20
32 -20 20 0 15 38 -6 45 -11 3 -22 12 -25 20 -5 15 -66 21 -79 8z"/>
<path d="M3130 2071 c0 -5 7 -11 15 -15 9 -3 15 0 15 9 0 8 -7 15 -15 15 -8 0
-15 -4 -15 -9z"/>
<path d="M2693 2039 c5 -20 -26 -79 -46 -87 -9 -5 12 -32 24 -32 4 0 20 12 34
27 28 31 33 74 9 97 -21 22 -27 20 -21 -5z"/>
<path d="M2587 2013 c-12 -11 -7 -40 8 -53 20 -17 24 -12 18 28 -5 31 -13 39
-26 25z"/>
<path d="M736 2002 c-13 -12 -5 -29 19 -40 21 -10 27 -9 31 3 3 8 3 18 0 23
-7 12 -43 22 -50 14z"/>
<path d="M3041 1973 c-1 -32 17 -75 29 -68 6 4 6 13 1 23 -5 9 -14 28 -19 42
-10 24 -11 24 -11 3z"/>
<path d="M2164 1968 c-12 -5 -27 -22 -34 -37 -7 -14 -16 -34 -21 -43 -14 -27
-11 -38 11 -38 11 0 20 5 20 10 0 6 -5 10 -10 10 -19 0 10 40 38 53 30 13 42
26 42 45 0 14 -17 15 -46 0z"/>
<path d="M1890 1851 c0 -6 5 -13 10 -16 20 -12 11 -52 -15 -63 -14 -6 -25 -19
-25 -27 0 -9 -12 -20 -26 -25 -30 -12 -27 -30 6 -47 20 -10 27 -9 41 5 9 9 15
20 13 23 -2 4 3 12 11 19 8 7 15 22 15 35 0 12 3 25 7 29 14 14 11 38 -8 57
-21 21 -29 24 -29 10z"/>
<path d="M2170 1850 c0 -5 5 -10 11 -10 5 0 7 5 4 10 -3 6 -8 10 -11 10 -2 0
-4 -4 -4 -10z"/>
<path d="M3987 1831 c-5 -23 -4 -24 8 -8 11 16 15 16 41 2 15 -8 30 -12 32
-10 8 8 -24 32 -50 37 -22 4 -27 1 -31 -21z"/>
<path d="M1848 1815 c-19 -26 -23 -45 -10 -45 8 0 16 14 40 63 9 17 -15 4 -30
-18z"/>
<path d="M1624 1787 c-4 -12 -8 -39 -10 -60 -1 -21 -5 -56 -9 -78 -6 -33 -4
-38 9 -33 23 9 58 72 43 78 -9 3 -8 7 2 14 9 7 11 21 6 50 -7 46 -30 62 -41
29z"/>
<path d="M2210 1778 c0 -4 6 -8 13 -8 6 0 4 -5 -6 -11 -9 -6 -15 -15 -11 -20
8 -14 34 9 34 31 0 9 -7 17 -15 17 -8 0 -15 -4 -15 -9z"/>
<path d="M3991 1760 c0 -8 4 -24 9 -35 5 -13 9 -14 9 -5 0 8 -4 24 -9 35 -5
13 -9 14 -9 5z"/>
<path d="M4130 1740 c0 -20 5 -30 15 -30 21 0 37 34 23 48 -21 21 -38 13 -38
-18z"/>
<path d="M4880 1705 c-10 -12 -10 -15 4 -15 9 0 16 -4 16 -10 0 -5 5 -10 10
-10 6 0 10 11 10 25 0 28 -21 33 -40 10z"/>
<path d="M4010 1672 c0 -16 7 -35 15 -42 10 -8 13 -21 9 -34 -5 -17 -4 -19 7
-9 10 10 10 18 1 38 -7 14 -12 34 -12 45 0 10 -4 22 -10 25 -6 4 -10 -6 -10
-23z"/>
<path d="M4067 1693 c-13 -12 -7 -23 13 -23 11 0 20 7 20 15 0 15 -21 21 -33
8z"/>
<path d="M4821 1669 c-12 -11 -29 -18 -37 -15 -19 7 -19 -37 0 -53 12 -10 16
-5 26 23 6 20 19 40 28 45 9 5 14 12 11 15 -3 3 -15 -4 -28 -15z"/>
<path d="M4670 1659 c0 -5 5 -7 10 -4 6 3 10 8 10 11 0 2 -4 4 -10 4 -5 0 -10
-5 -10 -11z"/>
<path d="M4925 1645 c-4 -16 -17 -45 -27 -63 -30 -54 -20 -61 13 -9 19 32 29
58 27 75 l-4 27 -9 -30z"/>
<path d="M1290 1612 c0 -5 9 -18 20 -30 26 -28 25 -38 -7 -67 -16 -13 -23 -25
-16 -25 6 0 15 5 18 10 10 17 20 12 39 -21 11 -19 16 -39 12 -55 -5 -17 -3
-23 4 -19 5 3 10 21 10 39 0 19 7 39 15 46 20 17 19 20 -15 57 -17 18 -30 41
-30 52 0 16 -6 21 -25 21 -14 0 -25 -4 -25 -8z"/>
<path d="M1596 1582 c-4 -11 -14 -19 -23 -18 -9 0 -17 -8 -19 -21 -7 -39 30
-29 45 13 7 19 11 38 8 41 -3 2 -8 -4 -11 -15z"/>
<path d="M4177 1583 c-13 -12 -7 -23 13 -23 11 0 20 -5 20 -11 0 -5 5 -7 10
-4 6 3 10 -3 10 -14 0 -22 16 -36 24 -22 4 5 2 13 -4 16 -6 4 -8 15 -5 26 5
14 2 19 -14 19 -11 0 -23 5 -26 10 -7 12 -19 13 -28 3z"/>
<path d="M981 1566 c-9 -11 -6 -12 14 -8 14 2 25 8 25 13 0 14 -26 11 -39 -5z"/>
<path d="M1482 1568 c2 -5 7 -9 11 -9 4 1 14 1 22 1 8 0 15 4 15 9 0 5 -11 9
-25 9 -14 0 -24 -5 -23 -10z"/>
<path d="M4140 1565 c-11 -13 -10 -14 4 -9 9 3 16 10 16 15 0 13 -6 11 -20 -6z"/>
<path d="M4044 1538 c4 -18 9 -62 12 -98 6 -64 18 -94 36 -88 5 2 10 47 12
100 1 53 -2 91 -7 85 -5 -9 -13 -6 -26 11 -27 31 -35 28 -27 -10z"/>
<path d="M1024 1545 c-7 -17 4 -37 17 -30 12 8 12 45 -1 45 -6 0 -13 -7 -16
-15z"/>
<path d="M4813 1527 c5 -15 37 -22 37 -9 0 5 -9 12 -21 15 -13 3 -19 1 -16 -6z"/>
<path d="M694 1507 c-3 -8 0 -25 5 -40 6 -14 8 -41 5 -59 -4 -24 -1 -38 10
-47 14 -12 14 -16 -3 -40 -27 -39 -10 -66 27 -42 24 15 35 135 17 176 -8 17
-16 38 -19 48 -6 20 -34 23 -42 4z"/>
<path d="M939 1520 c-1 -3 -3 -25 -4 -50 -2 -46 15 -80 41 -80 16 0 40 35 49
71 6 24 4 25 -29 21 -30 -4 -37 0 -45 19 -5 13 -11 22 -12 19z m41 -85 c0 -23
-18 -27 -29 -7 -6 11 -8 22 -5 25 10 9 34 -4 34 -18z"/>
<path d="M3814 1505 c-4 -8 -3 -31 0 -50 6 -32 4 -37 -26 -55 -21 -13 -36 -16
-42 -10 -15 15 -46 12 -46 -5 0 -27 108 -22 128 6 9 13 20 18 33 14 29 -10 32
15 9 68 -21 47 -45 61 -56 32z"/>
<path d="M1210 1473 c0 -15 2 -15 24 -7 23 9 20 23 -4 21 -11 -1 -20 -7 -20
-14z"/>
<path d="M4218 1438 c-10 -12 -18 -30 -18 -41 0 -10 -4 -16 -9 -13 -5 3 -14
-1 -21 -9 -21 -25 13 -18 37 8 20 21 43 60 43 71 0 13 -16 5 -32 -16z"/>
<path d="M3578 1434 l23 -16 -44 -39 c-48 -41 -65 -82 -46 -105 13 -16 64 -20
54 -4 -4 6 -10 8 -15 5 -14 -9 -22 14 -15 44 5 22 13 30 37 35 38 8 46 1 30
-24 -7 -11 -12 -28 -12 -37 1 -14 6 -11 25 12 28 33 31 62 13 112 -10 27 -17
33 -42 33 l-30 0 22 -16z"/>
<path d="M795 1430 c-3 -5 1 -10 10 -10 9 0 13 5 10 10 -3 6 -8 10 -10 10 -2
0 -7 -4 -10 -10z"/>
<path d="M3331 1397 c-6 -8 -14 -28 -17 -46 -6 -29 -10 -32 -33 -26 -14 4 -27
11 -29 16 -7 17 -63 9 -85 -12 -18 -19 -19 -21 -4 -15 55 19 66 18 90 -8 14
-14 27 -44 31 -66 3 -21 11 -42 16 -45 20 -12 90 93 90 134 0 11 5 23 11 27 8
5 6 10 -5 16 -9 5 -16 16 -16 23 0 19 -34 19 -49 2z"/>
<path d="M668 1263 c7 -3 16 -2 19 1 4 3 -2 6 -13 5 -11 0 -14 -3 -6 -6z"/>
<path d="M2980 1256 c0 -7 6 -19 14 -25 19 -16 32 5 16 24 -16 19 -30 19 -30
1z"/>
<path d="M606 1252 c-3 -6 -1 -14 5 -17 15 -10 25 3 12 16 -7 7 -13 7 -17 1z"/>
<path d="M5136 1228 c-9 -12 -16 -28 -16 -34 0 -6 -6 -16 -13 -22 -17 -14 -57
11 -57 35 0 9 -3 14 -6 10 -11 -11 6 -77 21 -77 7 0 15 -6 18 -12 6 -18 41 14
60 55 l16 31 6 -27 c4 -15 11 -24 16 -21 6 3 7 -5 4 -19 -8 -30 21 -97 41 -97
8 0 14 4 14 10 0 16 -36 70 -43 64 -3 -3 -4 2 -1 13 6 24 -18 105 -33 110 -6
2 -18 -6 -27 -19z"/>
<path d="M5000 1230 c0 -5 5 -10 11 -10 5 0 7 5 4 10 -3 6 -8 10 -11 10 -2 0
-4 -4 -4 -10z"/>
<path d="M3054 1202 c-16 -2 -21 -10 -21 -29 0 -14 -8 -30 -17 -35 -22 -13
-21 -37 2 -31 23 6 41 -35 41 -91 -1 -21 4 -41 9 -45 7 -4 8 -12 2 -21 -15
-23 -12 -60 5 -67 25 -9 28 1 25 84 -1 43 -2 85 -2 93 -1 8 -5 21 -11 28 -6 8
-6 17 2 26 10 11 9 23 -1 53 -10 30 -17 37 -34 35z"/>
<path d="M4910 1200 c-13 -8 -11 -11 8 -16 15 -4 22 -14 22 -30 0 -33 16 -30
25 3 5 20 2 31 -11 40 -21 15 -24 16 -44 3z"/>
<path d="M4824 1144 c14 -21 26 -52 26 -69 0 -42 15 -64 23 -33 4 12 7 36 7
51 0 15 7 39 16 52 10 15 12 25 5 25 -6 0 -18 -11 -27 -25 -18 -28 -35 -25
-27 5 3 11 1 20 -5 20 -6 0 -18 3 -28 7 -13 5 -11 -2 10 -33z"/>
<path d="M2490 1151 c0 -5 6 -14 14 -21 8 -6 16 -24 18 -38 l4 -27 9 29 c6 22
4 32 -8 41 -9 7 -14 15 -10 18 3 4 -1 7 -10 7 -9 0 -17 -4 -17 -9z"/>
<path d="M4765 1150 c-3 -5 -1 -10 4 -10 6 0 11 5 11 10 0 6 -2 10 -4 10 -3 0
-8 -4 -11 -10z"/>
<path d="M4927 1069 c-10 -23 -16 -43 -14 -45 6 -6 32 36 41 64 12 38 -8 24
-27 -19z"/>
<path d="M2200 1087 l-25 -11 33 -4 c26 -3 32 -8 32 -28 0 -23 14 -33 24 -16
6 10 -21 72 -31 71 -4 0 -19 -5 -33 -12z"/>
<path d="M4648 1093 c-9 -2 -21 -18 -27 -35 -16 -45 -13 -53 8 -27 18 22 21
23 36 8 9 -9 23 -34 31 -55 l15 -39 -7 50 c-3 28 -10 52 -15 53 -5 2 -7 7 -4
11 8 13 -19 38 -37 34z"/>
<path d="M2905 1070 c-3 -6 1 -7 9 -4 18 7 21 14 7 14 -6 0 -13 -4 -16 -10z"/>
<path d="M2150 1049 c0 -5 5 -7 10 -4 6 3 10 8 10 11 0 2 -4 4 -10 4 -5 0 -10
-5 -10 -11z"/>
<path d="M1984 1005 c-4 -9 -2 -21 3 -26 14 -14 45 1 41 20 -4 22 -37 26 -44
6z"/>
<path d="M2133 985 c0 -22 2 -30 4 -17 2 12 2 30 0 40 -3 9 -5 -1 -4 -23z"/>
<path d="M2240 980 c-8 -5 -23 -11 -33 -14 -13 -4 -16 -12 -12 -25 4 -12 0
-21 -11 -25 -14 -5 -15 -9 -5 -19 9 -9 14 -9 20 1 4 7 15 10 24 7 12 -5 18 3
27 35 13 47 12 51 -10 40z"/>
<path d="M4591 974 c0 -11 3 -14 6 -6 3 7 2 16 -1 19 -3 4 -6 -2 -5 -13z"/>
<path d="M1897 948 c-22 -46 -21 -51 3 -43 17 5 20 2 20 -25 0 -31 25 -80 41
-80 15 0 28 44 17 57 -6 7 -7 24 -4 38 6 25 -8 36 -18 13 -6 -16 -29 16 -36
52 -5 24 -6 24 -23 -12z"/>
<path d="M2020 960 c0 -5 5 -10 10 -10 6 0 10 5 10 10 0 6 -4 10 -10 10 -5 0
-10 -4 -10 -10z"/>
<path d="M4330 950 c0 -5 6 -10 14 -10 16 0 28 -48 13 -53 -10 -3 -37 -73 -37
-98 0 -23 24 -41 44 -33 20 8 21 34 2 34 -18 0 -14 69 5 81 22 13 32 -2 26
-37 -3 -19 -2 -34 3 -34 20 0 23 73 6 133 -7 23 -14 27 -42 27 -19 0 -34 -4
-34 -10z"/>
<path d="M1742 938 c-16 -16 -15 -43 3 -58 20 -16 30 9 18 45 -6 20 -11 23
-21 13z"/>
<path d="M451 914 c-15 -33 -7 -43 17 -21 10 10 24 17 31 17 20 0 6 25 -15 28
-14 2 -24 -6 -33 -24z"/>
<path d="M4587 933 c-13 -12 -7 -53 7 -53 14 0 29 37 20 52 -6 10 -18 10 -27
1z"/>
<path d="M2030 910 c0 -11 5 -20 10 -20 6 0 10 9 10 20 0 11 -4 20 -10 20 -5
0 -10 -9 -10 -20z"/>
<path d="M2145 920 c3 -5 8 -10 11 -10 2 0 4 5 4 10 0 6 -5 10 -11 10 -5 0 -7
-4 -4 -10z"/>
<path d="M2435 911 c-6 -5 -20 -11 -32 -13 -20 -3 -21 -4 -6 -23 11 -14 17
-16 20 -7 3 6 11 12 18 12 7 0 15 9 18 20 5 21 -3 26 -18 11z"/>
<path d="M4235 910 c4 -6 11 -8 16 -5 14 9 11 15 -7 15 -8 0 -12 -5 -9 -10z"/>
<path d="M1646 895 c-9 -9 -17 -31 -17 -48 -1 -18 -3 -42 -4 -55 -3 -26 13
-40 21 -18 3 8 11 13 18 10 8 -3 12 13 11 55 0 68 -6 79 -29 56z"/>
<path d="M1860 869 c0 -5 5 -7 10 -4 6 3 10 8 10 11 0 2 -4 4 -10 4 -5 0 -10
-5 -10 -11z"/>
<path d="M1413 853 c11 -3 17 -14 17 -34 0 -16 4 -29 8 -29 4 0 6 16 4 35 -3
28 -8 35 -26 34 -16 -1 -17 -2 -3 -6z"/>
<path d="M3870 820 c-11 -34 -17 -40 -42 -40 -30 0 -58 19 -58 39 0 6 -16 11
-35 11 -19 0 -35 -4 -35 -8 0 -5 14 -7 30 -4 21 3 30 0 30 -9 1 -23 48 -69 71
-69 12 0 27 7 34 17 17 23 34 8 41 -37 8 -47 26 -76 43 -66 9 6 9 11 -1 23
-14 17 -36 110 -37 156 -1 41 -26 33 -41 -13z"/>
<path d="M1556 842 c-12 -11 -36 -73 -36 -91 1 -13 4 -12 19 6 l19 22 6 -22
c3 -12 6 -36 6 -53 0 -31 21 -60 33 -47 4 3 7 19 7 34 0 15 5 31 10 34 6 3 10
12 10 18 0 7 -7 3 -15 -7 -21 -28 -33 -11 -36 52 -3 52 -9 68 -23 54z"/>
<path d="M3267 810 c-26 -16 -52 -30 -57 -30 -10 0 -14 -43 -5 -52 3 -2 18 -3
35 0 23 3 30 10 30 26 0 11 4 27 9 35 8 12 13 12 33 -1 16 -11 30 -13 39 -7
12 7 12 9 -1 9 -11 0 -12 2 -3 8 9 6 7 12 -7 25 -11 9 -22 17 -23 17 -2 0 -24
-13 -50 -30z"/>
<path d="M5221 815 c-18 -6 -38 -19 -43 -28 -10 -19 2 -22 30 -8 9 5 29 14 45
22 28 13 37 30 15 28 -7 -1 -28 -7 -47 -14z"/>
<path d="M1775 800 c-2 -4 4 -15 15 -25 22 -20 53 -14 44 9 -6 15 -52 28 -59
16z"/>
<path d="M3560 771 c-18 -29 -32 -41 -49 -41 -20 0 -22 -3 -13 -12 7 -7 12
-20 12 -30 0 -16 3 -16 20 -6 11 7 20 23 20 35 0 13 4 23 8 23 5 0 14 11 22
24 8 15 18 22 28 19 10 -4 13 -1 10 8 -9 28 -34 19 -58 -20z"/>
<path d="M5135 760 c-3 -5 -14 -10 -24 -10 -10 0 -26 -9 -35 -19 -10 -11 -30
-21 -45 -23 -18 -2 -26 -9 -26 -22 0 -25 19 -31 38 -11 9 8 20 15 25 15 14 0
42 -86 49 -152 5 -48 3 -59 -11 -64 -16 -6 -23 -34 -7 -34 25 0 72 25 86 46 8
13 24 24 35 24 11 0 24 9 30 20 9 17 8 20 -10 20 -11 0 -30 -9 -42 -20 -28
-26 -43 -13 -58 53 -7 29 -16 57 -20 62 -19 27 8 123 31 109 5 -3 9 0 9 5 0
14 -17 14 -25 1z"/>
<path d="M974 752 c-14 -9 -24 -62 -13 -62 5 0 9 5 9 10 0 6 9 10 20 10 11 0
20 6 20 14 0 18 -23 36 -36 28z"/>
<path d="M1196 735 c-3 -8 -1 -15 3 -15 5 0 11 7 15 15 3 8 1 15 -3 15 -5 0
-11 -7 -15 -15z"/>
<path d="M1440 736 c0 -9 5 -16 10 -16 6 0 10 4 10 9 0 6 -4 13 -10 16 -5 3
-10 -1 -10 -9z"/>
<path d="M3336 725 c-13 -17 -25 -23 -38 -20 -19 7 -25 -9 -8 -20 5 -3 10 -20
10 -38 -1 -59 8 -119 19 -130 8 -8 11 9 10 63 0 51 5 85 16 108 23 44 16 71
-9 37z"/>
<path d="M3445 740 c4 -6 11 -8 16 -5 14 9 11 15 -7 15 -8 0 -12 -5 -9 -10z"/>
<path d="M3599 724 c-23 -27 -39 -60 -39 -81 1 -16 2 -16 12 2 6 11 20 30 30
42 11 11 18 29 16 38 -3 16 -4 16 -19 -1z"/>
<path d="M1503 713 c-7 -3 -13 -14 -13 -25 0 -17 -2 -18 -15 -8 -18 15 -30 7
-22 -15 9 -22 29 -18 50 11 20 27 20 44 0 37z"/>
<path d="M1005 645 c1 -43 9 -64 21 -53 8 8 -6 98 -16 98 -4 0 -6 -20 -5 -45z"/>
<path d="M3180 664 c0 -8 5 -12 10 -9 6 3 10 10 10 16 0 5 -4 9 -10 9 -5 0
-10 -7 -10 -16z"/>
<path d="M795 660 c-3 -5 3 -10 14 -10 11 0 25 -8 30 -17 9 -16 10 -16 11 3 0
29 -41 46 -55 24z"/>
<path d="M930 636 c0 -23 -28 -40 -44 -27 -18 15 -30 -1 -21 -29 8 -26 41 -26
55 -1 21 40 30 71 20 71 -6 0 -10 -6 -10 -14z"/>
<path d="M662 610 c-18 -29 -15 -36 22 -59 40 -25 46 -26 46 -6 0 8 -4 15 -9
15 -5 0 -12 16 -15 35 -8 39 -25 45 -44 15z"/>
<path d="M1156 573 c-12 -12 -6 -33 9 -33 8 0 15 6 15 14 0 17 -14 28 -24 19z"/>
<path d="M3181 534 c0 -11 3 -14 6 -6 3 7 2 16 -1 19 -3 4 -6 -2 -5 -13z"/>
<path d="M272 510 c0 -14 2 -19 5 -12 2 6 2 18 0 25 -3 6 -5 1 -5 -13z"/>
<path d="M510 506 c0 -8 9 -31 20 -51 24 -42 25 -68 5 -85 -23 -19 -18 -27 15
-22 23 3 29 1 25 -10 -3 -8 1 -21 10 -28 8 -7 18 -30 21 -52 4 -21 11 -41 17
-45 7 -4 7 12 2 48 -14 95 -13 104 13 102 32 -4 28 25 -5 33 -16 3 -35 8 -44
10 -17 5 -28 26 -38 79 -6 31 -41 49 -41 21z"/>
<path d="M711 493 c0 -25 1 -26 9 -8 12 27 12 35 0 35 -5 0 -10 -12 -9 -27z"/>
<path d="M307 458 c-2 -7 6 -34 19 -60 13 -26 24 -56 24 -67 0 -25 18 -37 26
-17 5 13 -5 73 -23 139 -5 20 -39 23 -46 5z"/>
<path d="M3290 459 c0 -5 5 -7 10 -4 6 3 10 8 10 11 0 2 -4 4 -10 4 -5 0 -10
-5 -10 -11z"/>
<path d="M247 440 c-4 -14 -6 -36 -6 -50 1 -22 2 -20 10 8 6 19 9 41 7 50 -3
12 -6 10 -11 -8z"/>
<path d="M4985 400 c-3 -5 3 -10 14 -10 12 0 21 5 21 10 0 6 -6 10 -14 10 -8
0 -18 -4 -21 -10z"/>
<path d="M224 336 c-15 -16 -29 -96 -17 -96 10 0 37 84 31 99 -1 5 -8 3 -14
-3z"/>
<path d="M455 319 c-4 -6 -5 -13 -2 -16 7 -7 27 6 27 18 0 12 -17 12 -25 -2z"/>
<path d="M720 273 c8 -3 21 -10 28 -16 7 -5 15 -7 19 -3 10 9 0 15 -33 20 -16
2 -22 1 -14 -1z"/>
</g>
</svg>
