<?xml version="1.0" standalone="no"?>
<!DOCTYPE svg PUBLIC "-//W3C//DTD SVG 20010904//EN"
 "http://www.w3.org/TR/2001/REC-SVG-20010904/DTD/svg10.dtd">
<svg version="1.0" xmlns="http://www.w3.org/2000/svg"
 width="494.000000pt" height="439.000000pt" viewBox="0 0 494.000000 439.000000"
 preserveAspectRatio="xMidYMid meet">

<g transform="translate(0.000000,439.000000) scale(0.100000,-0.100000)"
fill="#000000" stroke="none">
<path d="M4047 3912 c-19 -21 -22 -41 -7 -43 6 -1 16 -2 23 -3 18 -2 37 20 37
43 0 27 -31 28 -53 3z"/>
<path d="M2947 3662 c-41 -134 -3 -199 147 -252 40 -14 21 -35 -47 -50 -82
-19 -114 -76 -57 -100 37 -16 121 -15 131 1 9 16 69 -26 69 -48 0 -9 -18 -33
-41 -54 -34 -32 -39 -40 -30 -57 10 -18 50 -32 93 -33 30 -1 29 -16 -3 -40
-17 -13 -40 -31 -51 -40 -22 -16 -18 -39 7 -39 8 0 44 20 81 45 36 25 70 45
75 45 6 0 9 10 7 22 -3 19 -13 25 -75 37 -80 15 -87 23 -52 70 29 39 16 76
-36 106 -22 12 -41 29 -43 37 -2 8 13 29 33 46 29 26 40 30 68 25 38 -8 94 -8
122 0 11 3 24 6 28 6 14 2 38 72 40 116 1 46 -24 95 -48 95 -8 0 -49 -35 -92
-79 l-78 -79 -61 9 c-69 9 -124 37 -149 76 -21 32 -13 102 15 126 34 29 21 67
-23 67 -7 0 -20 -26 -30 -58z m427 -130 c-1 -7 -2 -25 -2 -42 -2 -39 -34 -70
-71 -70 -45 0 -43 21 6 78 42 49 69 62 67 34z"/>
<path d="M4026 3691 c-8 -13 3 -38 20 -45 15 -6 34 22 27 42 -5 14 -39 16 -47
3z"/>
<path d="M3997 3504 c-31 -42 -4 -71 37 -41 13 9 16 20 11 40 -9 34 -24 34
-48 1z"/>
<path d="M2766 3491 c-3 -5 -2 -21 4 -36 12 -30 45 -31 45 -1 0 22 -40 52 -49
37z"/>
<path d="M4015 3328 c14 -43 7 -70 -22 -94 -33 -27 -56 -30 -73 -9 -9 11 -27
15 -54 13 -39 -3 -41 -5 -39 -33 3 -36 38 -68 70 -62 27 5 119 -17 139 -34 20
-17 18 -26 -18 -56 -17 -16 -45 -39 -61 -53 l-29 -25 22 -28 c12 -15 31 -27
43 -27 12 0 30 -6 39 -14 16 -12 15 -15 -12 -45 -17 -18 -30 -38 -30 -45 0
-13 53 -56 70 -56 5 0 10 -4 10 -9 0 -5 9 -11 20 -14 19 -5 29 -37 11 -37 -4
0 -30 -20 -56 -45 -41 -37 -46 -47 -35 -60 19 -23 27 -19 46 25 10 22 24 40
31 40 7 0 13 4 13 10 0 5 16 16 36 25 49 20 41 41 -28 78 -71 37 -75 57 -15
86 24 12 51 21 60 21 9 0 19 5 22 10 12 20 -15 37 -68 44 -65 8 -117 25 -117
37 0 5 6 9 14 9 22 0 76 71 76 99 0 14 -14 37 -35 57 -19 18 -35 36 -35 41 0
4 12 22 26 38 22 26 25 36 20 73 -7 52 -12 62 -33 62 -11 0 -13 -6 -8 -22z"/>
<path d="M3220 2928 c-8 -18 -20 -41 -28 -50 -33 -40 19 -79 100 -75 54 4 98
32 98 64 0 35 -75 93 -121 93 -32 0 -38 -4 -49 -32z m116 -29 c43 -47 -41 -68
-94 -24 -2 2 4 14 12 28 19 28 54 27 82 -4z"/>
<path d="M2055 2933 c-11 -3 -26 -14 -33 -24 -7 -11 -20 -19 -27 -19 -8 0 -41
-23 -72 -51 -115 -102 -139 -121 -200 -166 -35 -24 -63 -50 -63 -57 0 -20 22
-36 51 -36 56 0 79 -23 34 -34 -13 -3 -29 -15 -35 -26 -10 -18 -8 -20 24 -20
22 0 45 9 65 26 32 27 41 54 17 54 -7 0 -19 7 -26 15 -7 8 -21 15 -31 15 -32
0 -31 18 3 47 18 15 44 40 59 54 15 14 39 33 54 43 26 17 29 17 74 0 87 -34
121 -34 168 2 42 32 67 85 58 125 -11 49 -56 68 -120 52z m73 -49 c14 -15 16
-44 3 -44 -5 0 -13 -9 -16 -20 -10 -32 -57 -51 -110 -44 -25 4 -48 11 -51 15
-11 19 10 51 42 65 19 8 34 18 34 23 0 13 43 28 65 23 11 -3 26 -11 33 -18z"/>
<path d="M2543 2843 c-7 -2 -13 -9 -13 -15 0 -5 -13 -29 -30 -53 -50 -73 -64
-174 -30 -217 10 -14 17 -28 13 -31 -3 -4 3 -10 13 -13 10 -4 31 -18 45 -31
41 -38 97 -47 169 -28 35 9 80 -10 80 -34 0 -23 -54 -71 -81 -71 -19 0 -39
-34 -39 -65 0 -28 47 -46 122 -48 89 -2 98 12 42 68 -27 27 -33 40 -25 48 18
18 13 82 -10 111 -18 23 -19 31 -10 58 6 17 11 35 11 39 0 14 -43 49 -61 49
-9 0 -28 6 -42 13 -36 19 -107 10 -107 -13 0 -21 21 -32 41 -19 8 5 22 9 32 9
19 0 19 -12 -5 -74 -10 -26 -15 -28 -51 -23 -30 4 -49 16 -79 48 -37 39 -40
47 -35 84 7 50 31 98 74 151 18 23 33 46 33 53 0 11 -34 14 -57 4z m247 -553
c0 -5 -11 -10 -24 -10 -14 0 -28 5 -31 10 -4 6 7 10 24 10 17 0 31 -4 31 -10z"/>
<path d="M3421 2689 c-6 -11 -24 -25 -39 -31 -15 -6 -45 -18 -67 -28 -49 -22
-91 -36 -129 -45 -27 -6 -28 -7 -13 -23 15 -14 23 -15 64 -4 100 27 223 97
223 128 0 21 -26 23 -39 3z"/>
<path d="M4142 2603 c-24 -26 -23 -53 1 -53 19 0 77 30 77 39 0 11 -35 41 -46
40 -5 -1 -19 -12 -32 -26z"/>
<path d="M1737 2473 c-13 -12 -7 -21 28 -43 19 -12 40 -31 46 -41 11 -21 12
-19 -133 -82 -16 -7 -28 -18 -28 -24 0 -17 7 -16 77 3 64 18 90 21 113 10 17
-7 26 1 80 65 46 55 37 81 -18 53 -35 -17 -52 -12 -112 38 -36 30 -43 32 -53
21z"/>
<path d="M4120 2415 c0 -8 4 -15 8 -15 7 0 32 -57 32 -73 0 -4 -20 -16 -45
-28 -39 -18 -43 -24 -34 -40 11 -22 27 -25 35 -6 3 8 10 14 17 15 7 1 24 4 38
8 22 5 30 0 48 -25 12 -17 29 -31 37 -31 19 0 18 35 -2 55 -18 17 -12 45 9 45
8 0 19 10 25 23 6 12 11 16 11 10 1 -16 57 -17 67 -2 3 6 1 16 -4 21 -11 11
-97 -6 -116 -23 -26 -23 -75 15 -76 59 0 17 -6 22 -25 22 -16 0 -25 -6 -25
-15z"/>
<path d="M1952 2288 c-7 -7 -12 -20 -12 -30 0 -14 8 -18 33 -18 41 0 73 21 64
44 -8 19 -67 22 -85 4z"/>
<path d="M2744 2205 c-4 -9 -2 -20 3 -24 5 -3 13 -19 17 -36 4 -16 15 -38 23
-47 26 -29 9 -45 -56 -53 -88 -10 -141 13 -141 62 0 32 -37 32 -46 -1 -14 -57
41 -95 140 -98 59 -2 65 -5 71 -26 8 -34 34 -39 55 -11 12 14 29 23 47 24 21
0 29 5 31 22 2 12 18 31 37 43 37 23 47 40 34 61 -7 12 -14 11 -43 -5 -59 -32
-80 -29 -100 13 -46 93 -60 108 -72 76z"/>
<path d="M2089 2187 c-13 -13 -36 -32 -51 -42 -16 -9 -28 -24 -28 -31 0 -8 -4
-14 -10 -14 -5 0 -10 -6 -10 -13 0 -16 56 -37 98 -37 18 0 32 -2 32 -5 0 -13
-33 -54 -40 -50 -4 3 -13 -2 -20 -10 -10 -13 -8 -15 13 -15 59 0 142 67 116
94 -4 5 -33 10 -64 12 -61 4 -75 9 -75 28 0 14 71 66 90 66 5 0 10 9 10 20 0
28 -31 26 -61 -3z"/>
<path d="M1725 2150 c-4 -12 -16 -29 -27 -40 -22 -20 -17 -40 11 -40 21 0 61
36 61 55 0 43 -33 62 -45 25z"/>
<path d="M3640 2020 c-25 -17 -52 -37 -61 -44 -20 -17 -79 -46 -93 -46 -6 0
-24 -11 -41 -24 -29 -23 -29 -24 -12 -50 10 -14 30 -33 45 -43 45 -29 121
-109 128 -137 12 -51 112 -83 167 -55 33 17 57 46 57 68 0 30 11 51 26 51 19
0 18 15 -3 35 -11 12 -16 31 -14 60 1 24 -3 46 -9 50 -5 3 -10 23 -10 44 0 50
-50 108 -100 116 -28 4 -44 -1 -80 -25z m120 -40 c26 -26 34 -63 20 -89 -26
-49 -70 -11 -70 60 0 55 15 64 50 29z m-89 -53 c9 -34 -5 -42 -56 -33 -40 8
-45 28 -12 51 32 22 59 15 68 -18z m-63 -73 c58 -7 61 -14 35 -68 -11 -22 -23
-34 -32 -31 -20 8 -130 99 -130 109 -1 4 16 6 37 3 20 -3 61 -9 90 -13z m167
-38 c12 -8 16 -19 12 -30 -6 -14 -14 -16 -39 -11 -41 9 -52 19 -45 39 8 20 47
21 72 2z m15 -121 c0 -22 -45 -40 -71 -29 -21 10 -20 11 12 27 43 21 59 21 59
2z"/>
<path d="M4485 1953 c29 -71 30 -67 -9 -117 -40 -53 -41 -68 -7 -76 30 -7 30
-24 0 -30 -38 -8 -69 -33 -69 -57 0 -44 106 -95 161 -78 10 4 26 22 34 41 12
29 12 39 0 68 -8 19 -24 37 -35 41 -39 12 -49 43 -38 114 7 44 7 71 -1 88 -13
27 -47 33 -36 6z m69 -255 c19 -27 5 -58 -29 -58 -67 0 -103 45 -45 57 17 3
33 10 36 14 9 15 22 10 38 -13z"/>
<path d="M2054 1886 c-15 -12 -16 -17 -7 -27 8 -8 16 -9 25 -2 21 17 71 13 97
-8 27 -22 22 -49 -9 -49 -11 0 -20 -7 -20 -15 0 -14 13 -14 88 1 25 5 29 26 8
46 -34 32 -57 48 -71 48 -7 0 -17 5 -20 10 -9 15 -68 12 -91 -4z"/>
<path d="M2265 1702 c-11 -2 -27 -10 -35 -17 -8 -7 -36 -23 -62 -35 -76 -35
-61 -58 42 -69 l54 -6 -37 -37 c-45 -46 -41 -68 13 -68 43 0 64 -18 31 -27
-27 -7 -27 -23 -1 -23 11 0 20 5 20 11 0 5 4 8 8 5 13 -8 82 16 82 28 -1 30
-21 41 -74 40 -30 0 -53 4 -50 8 3 4 25 19 50 34 24 14 44 29 44 33 0 20 -30
31 -87 31 -35 0 -63 4 -63 10 0 14 35 30 64 30 16 0 27 7 31 21 8 25 -3 37
-30 31z"/>
<path d="M877 1542 c-64 -38 -64 -97 -2 -126 24 -12 40 -13 65 -6 19 5 35 8
37 6 12 -11 3 -66 -15 -101 -21 -40 -123 -149 -181 -193 -30 -23 -271 -142
-287 -142 -18 0 -85 -73 -82 -89 2 -9 13 -17 26 -19 17 -3 22 2 22 20 0 13 4
28 8 34 9 14 176 94 196 94 8 0 18 4 21 10 3 5 21 17 40 26 19 9 35 20 35 25
0 5 7 9 15 9 7 0 18 6 22 13 4 8 29 26 56 41 26 16 68 53 95 84 26 32 49 59
52 62 32 32 51 159 31 208 -13 31 -67 62 -104 61 -12 0 -35 -8 -50 -17z m82
-26 c26 -32 -30 -77 -70 -56 -23 13 -24 28 -2 52 19 21 56 24 72 4z"/>
<path d="M1281 1550 c-44 -5 -59 -12 -82 -38 -31 -34 -36 -61 -19 -93 9 -16
18 -18 53 -13 23 4 52 16 65 27 18 17 27 19 40 11 40 -26 26 -90 -42 -192 -30
-44 -52 -83 -48 -86 3 -3 -2 -6 -10 -6 -9 0 -18 -6 -21 -13 -3 -7 -32 -47 -65
-88 -54 -67 -66 -76 -111 -88 -27 -7 -55 -19 -62 -27 -6 -8 -19 -14 -28 -15
-9 0 -11 -3 -4 -5 6 -3 34 2 62 10 62 18 65 9 21 -52 -35 -49 -63 -66 -96 -58
-32 8 -43 52 -18 71 11 8 14 15 9 15 -15 0 -65 -56 -65 -73 0 -18 32 -47 51
-47 8 0 19 -4 25 -10 6 -6 30 1 69 21 51 26 64 30 87 21 29 -11 45 -9 120 14
36 12 49 22 56 44 12 32 -4 50 -71 84 -30 16 -36 23 -31 40 7 23 35 62 72 103
13 14 32 42 43 63 11 21 29 46 39 55 11 10 20 22 20 27 0 6 14 29 31 53 17 23
33 60 36 81 4 33 0 44 -26 72 -20 21 -31 44 -31 62 0 36 -3 37 -69 30z m-2
-44 c18 -21 2 -46 -29 -46 -36 0 -43 11 -24 38 17 25 37 28 53 8z m-79 -571
c51 -27 37 -55 -39 -75 -36 -9 -46 -9 -58 3 -13 13 -13 18 1 45 9 17 26 33 38
35 13 2 24 5 26 6 2 0 16 -6 32 -14z"/>
<path d="M3615 1513 c4 -10 10 -28 13 -41 4 -21 2 -22 -35 -16 -42 6 -73 -12
-73 -42 0 -46 91 -83 120 -49 18 22 43 18 70 -10 13 -14 28 -24 33 -22 17 5
135 -123 167 -183 11 -21 9 -26 -24 -56 -20 -18 -36 -37 -36 -42 0 -13 32 -25
39 -15 3 5 21 21 40 36 l34 28 24 -23 c14 -13 29 -33 34 -45 5 -13 13 -23 19
-23 16 0 12 30 -12 71 l-22 40 25 24 c14 14 36 27 49 30 13 2 27 10 32 17 14
24 -41 20 -93 -5 l-49 -25 -15 28 c-8 16 -34 42 -58 59 -23 16 -54 41 -69 55
-15 14 -30 26 -34 26 -4 0 -14 7 -23 15 -9 8 -32 28 -52 45 -25 21 -41 46 -53
85 -14 43 -22 55 -38 55 -15 0 -18 -4 -13 -17z m-10 -103 c3 -5 -1 -10 -9 -10
-9 0 -16 5 -16 10 0 6 4 10 9 10 6 0 13 -4 16 -10z"/>
<path d="M3020 1490 c0 -21 33 -56 62 -66 14 -4 18 -16 18 -51 0 -54 16 -54
45 1 13 24 39 47 75 68 52 29 53 31 31 40 -16 6 -40 3 -72 -7 -53 -18 -95 -12
-110 16 -13 26 -49 25 -49 -1z"/>
<path d="M3811 1479 c-40 -38 -18 -94 55 -139 30 -19 38 -21 65 -10 81 34 57
109 -47 149 -51 20 -52 20 -73 0z m82 -34 c50 -21 54 -41 10 -50 -29 -5 -40
-2 -56 14 -17 17 -18 22 -7 35 15 19 10 19 53 1z"/>
<path d="M2427 1397 c-3 -8 -25 -23 -50 -35 -51 -24 -80 -49 -72 -63 4 -5 30
-9 58 -9 72 0 82 -10 41 -40 -63 -47 -31 -76 69 -61 41 7 47 6 47 -10 0 -9
-10 -19 -22 -23 -13 -3 -38 -15 -57 -26 -51 -32 -26 -44 39 -19 133 50 147
101 30 108 -48 3 -60 7 -60 20 0 8 38 24 52 22 4 0 12 8 18 19 9 17 7 21 -7
26 -10 3 -28 9 -39 14 -12 5 -31 6 -43 3 -34 -9 -24 12 19 41 23 15 38 31 35
36 -9 15 -52 12 -58 -3z"/>
<path d="M3199 1319 c-37 -40 -38 -81 -3 -114 15 -14 36 -25 48 -24 32 1 79
32 99 67 18 31 18 31 -10 62 -19 21 -40 32 -66 36 -33 4 -43 0 -68 -27z m84
-8 c15 -8 27 -22 27 -32 0 -25 -27 -49 -54 -49 -31 0 -49 56 -27 82 9 10 18
17 21 15 3 -1 17 -9 33 -16z"/>
<path d="M2523 1100 c-31 -13 -40 -56 -19 -90 9 -16 16 -35 16 -43 0 -15 20
-27 47 -27 29 0 121 -49 142 -76 51 -65 -67 -101 -167 -52 -28 15 -31 14 -35
-3 -3 -12 2 -20 17 -25 11 -3 27 -11 35 -17 20 -16 118 -17 155 -2 81 34 79
79 -5 134 -66 43 -71 58 -30 92 43 36 36 56 -32 92 -54 28 -86 32 -124 17z
m125 -47 c22 -31 10 -48 -35 -51 -36 -3 -44 1 -59 22 -26 40 -12 59 39 52 23
-3 48 -14 55 -23z"/>
<path d="M3010 1086 c-25 -32 34 -122 112 -172 56 -35 129 -59 138 -44 4 7 16
17 27 23 93 56 153 111 153 141 0 13 -62 -2 -81 -20 -22 -20 -49 -7 -98 45
-22 23 -36 31 -39 23 -7 -23 8 -61 35 -86 30 -28 26 -52 -12 -66 -26 -10 -37
-8 -100 21 -60 28 -91 59 -107 107 -13 37 -16 41 -28 28z"/>
<path d="M1795 1048 c-23 -14 -19 -75 7 -96 12 -9 31 -27 43 -39 20 -21 33
-26 103 -37 24 -4 32 -2 32 10 0 8 15 21 33 29 36 15 60 47 51 69 -8 20 -49
46 -72 46 -10 0 -23 5 -29 11 -7 7 -13 7 -17 1 -3 -6 11 -19 31 -29 20 -11 38
-24 41 -31 5 -16 -37 -39 -84 -46 -33 -5 -48 -1 -74 17 -18 12 -38 30 -44 40
-15 24 4 52 37 52 15 1 30 4 34 8 10 11 -72 5 -92 -5z"/>
<path d="M1910 1050 c0 -5 5 -10 10 -10 6 0 10 5 10 10 0 6 -4 10 -10 10 -5 0
-10 -4 -10 -10z"/>
<path d="M470 836 c0 -43 -7 -47 -80 -51 -61 -4 -111 -21 -117 -42 -3 -9 5 -9
31 -1 20 6 36 14 36 18 0 9 92 11 107 2 20 -12 2 -62 -32 -89 -33 -26 -132
-63 -171 -63 -50 0 -58 48 -15 91 16 16 24 29 16 29 -16 0 -81 -71 -90 -99
-12 -40 11 -53 84 -48 88 5 115 13 162 44 34 22 43 24 66 14 35 -14 148 -8
168 9 10 8 15 25 13 44 -3 26 -11 34 -58 57 -71 36 -80 44 -80 78 0 24 -15 41
-36 41 -2 0 -4 -15 -4 -34z m113 -110 c15 -13 27 -28 27 -34 0 -17 -35 -32
-74 -32 -55 0 -65 7 -56 40 5 16 11 34 15 40 11 18 59 11 88 -14z"/>
<path d="M2065 839 c-4 -6 -2 -15 6 -19 19 -12 -4 -51 -42 -74 -16 -10 -41
-35 -55 -56 -21 -32 -24 -42 -14 -59 12 -23 18 -24 73 -12 40 10 63 -4 34 -21
-9 -4 -22 -14 -29 -21 -7 -7 -26 -21 -42 -31 -27 -17 -28 -20 -12 -32 16 -11
22 -8 51 20 33 33 108 73 147 79 12 2 27 11 32 21 14 21 -9 38 -44 31 -14 -2
-55 -7 -92 -11 -87 -8 -89 5 -12 82 30 31 54 63 52 71 -5 23 -44 47 -53 32z"/>
<path d="M1260 785 c0 -9 6 -18 14 -21 19 -7 12 -41 -14 -70 -25 -25 -17 -34
39 -43 33 -6 62 -33 49 -47 -10 -9 -119 -9 -145 0 -18 6 -23 5 -23 -7 0 -51
123 -64 190 -22 22 14 40 31 40 39 0 17 -28 42 -63 55 -23 9 -27 16 -27 50 0
28 -6 46 -22 61 -26 24 -38 26 -38 5z"/>
<path d="M596 551 c-3 -5 1 -14 9 -21 16 -13 19 -38 9 -64 -8 -20 -47 -21 -82
-2 -67 36 -127 38 -137 5 -14 -43 50 -81 135 -80 110 0 165 75 105 144 -26 29
-31 32 -39 18z m-106 -101 c13 -9 13 -10 0 -10 -8 0 -22 5 -30 10 -13 9 -13
10 0 10 8 0 22 -5 30 -10z"/>
<path d="M1392 530 c-18 -16 -37 -30 -41 -30 -16 0 -43 -39 -39 -57 2 -12 19
-22 52 -30 27 -7 51 -14 54 -17 9 -10 -19 -35 -47 -41 -16 -3 -37 -14 -48 -24
-10 -10 -36 -24 -57 -31 -36 -11 -56 -34 -42 -47 6 -7 32 5 81 37 17 10 55 31
85 45 86 41 103 54 90 70 -6 7 -27 16 -48 19 -62 11 -72 17 -72 36 0 11 9 24
21 30 34 19 69 52 63 62 -9 13 -18 10 -52 -22z"/>
<path d="M728 343 c-8 -17 -39 -40 -86 -65 -65 -34 -76 -37 -97 -26 -90 50
-105 57 -105 50 0 -11 69 -72 81 -72 5 0 11 -11 15 -25 6 -24 23 -37 93 -70
23 -11 37 -13 44 -6 13 13 -8 40 -41 52 -14 6 -22 16 -20 26 4 21 84 79 121
88 15 4 27 10 27 15 0 5 9 12 20 15 24 8 26 30 4 39 -29 11 -43 6 -56 -21z"/>
</g>
</svg>
